<?xml version="1.0" encoding="UTF-8"?>
<svg version="1.1" xmlns="http://www.w3.org/2000/svg" width="512" height="512">
<path d="M0 0 C3.6929715 3.04213098 5.77421429 6.7775564 7.875 11 C8.21869629 11.69061523 8.56239258 12.38123047 8.91650391 13.09277344 C11.57682849 18.66525844 13.59553331 24.34167599 15.375 30.25 C15.61331543 31.04019531 15.85163086 31.83039063 16.09716797 32.64453125 C19.39446006 44.20528967 20.41176324 55.50079968 20.375 67.5 C20.37412384 68.20176361 20.37324768 68.90352722 20.37234497 69.6265564 C20.22303738 106.01679527 5.73406757 136.87691316 -19.90014648 162.32226562 C-25.82304476 168.03316015 -31.96103197 172.70415922 -39 177 C-40.0725 177.68320313 -41.145 178.36640625 -42.25 179.0703125 C-59.52952609 189.59002398 -79.7323312 196 -100 196 C-100 205.9 -100 215.8 -100 226 C-92.58720581 225.96072388 -92.58720581 225.96072388 -85.0246582 225.9206543 C-68.71990202 225.83790676 -52.41513771 225.7823622 -36.11022663 225.74093914 C-26.22189449 225.71515021 -16.33376117 225.67998652 -6.44555664 225.62280273 C2.17234787 225.57298886 10.7901084 225.54071399 19.40815288 225.52955753 C23.97202266 225.52303533 28.53548052 225.50769219 33.09921837 225.47134972 C37.39450736 225.43742198 41.6892146 225.42694042 45.98462486 225.43446159 C47.56125042 225.43308559 49.13789534 225.42313348 50.71440506 225.40397263 C52.86786889 225.37908246 55.01913832 225.38507693 57.1726532 225.39872742 C58.97982834 225.39181397 58.97982834 225.39181397 60.82351208 225.38476086 C64.9216947 226.17851875 66.41095054 227.79979951 69 231 C69.60127258 233.34761047 69.60127258 233.34761047 69.56762695 235.7902832 C69.5672493 236.71086014 69.56687164 237.63143707 69.56648254 238.57991028 C69.54067612 239.5602977 69.51486969 240.54068512 69.48828125 241.55078125 C69.48120651 242.56472458 69.47413177 243.57866791 69.46684265 244.62333679 C69.43891012 247.8538163 69.37617162 251.08254661 69.3125 254.3125 C69.28741575 256.5058343 69.26460281 258.69919584 69.24414062 260.89257812 C69.18908755 266.26231302 69.10547273 271.63103154 69 277 C69.61261688 277.06416611 70.22523376 277.12833221 70.85641479 277.19444275 C71.66289459 277.28101639 72.46937439 277.36759003 73.30029297 277.45678711 C74.09853485 277.54157822 74.89677673 277.62636932 75.71920776 277.71372986 C93.97525314 280.00510941 111.44995839 291.73655429 123.09375 305.50390625 C138.09638239 325.14874661 142.52224858 347.24293862 139.71142578 371.48925781 C136.48851842 391.03435236 124.60135109 409.03215134 109 421 C89.61030408 434.78544833 66.705303 439.20632348 43.3046875 435.34765625 C23.17699305 431.17769912 5.63875707 418.55723544 -6.15234375 401.97265625 C-18.24168351 383.39964824 -22.06399131 361.41880825 -18.3828125 339.59765625 C-15.39641106 327.21598303 -9.32146801 314.6899853 -1 305 C-0.50371094 304.36191406 -0.00742187 303.72382813 0.50390625 303.06640625 C12.34705003 288.42656828 29.90522692 280.61895462 48 277 C49.32 277 50.64 277 52 277 C52 265.78 52 254.56 52 243 C1.84 243 -48.32 243 -100 243 C-100 254.22 -100 265.44 -100 277 C-96.7 277.33 -93.4 277.66 -90 278 C-69.18005221 283.27326629 -50.70431751 295.67302601 -39.55859375 314.2578125 C-38.78708984 315.61519531 -38.78708984 315.61519531 -38 317 C-37.53722656 317.80179687 -37.07445312 318.60359375 -36.59765625 319.4296875 C-26.58931501 337.98618645 -25.52131396 359.93348726 -31 380 C-35.17619157 393.46171642 -42.1639443 403.99694845 -52 414 C-52.68707031 414.69996094 -53.37414062 415.39992188 -54.08203125 416.12109375 C-70.98338505 432.20716889 -91.83662208 436.54499869 -114.453125 436.26953125 C-132.17395259 435.75825666 -148.99814706 427.92977033 -162 416 C-163.13308594 415.00419922 -163.13308594 415.00419922 -164.2890625 413.98828125 C-179.09949942 400.22119126 -187.13760953 381.02478299 -188.21484375 361.0078125 C-188.87664459 339.64214638 -182.79335629 320.00490719 -168.625 303.8125 C-167.10118526 302.191366 -165.55992915 300.58641352 -164 299 C-163.31292969 298.30003906 -162.62585938 297.60007812 -161.91796875 296.87890625 C-149.11387914 284.69245361 -133.36107032 278.73610703 -116 277 C-116 265.78 -116 254.56 -116 243 C-166.16 243 -216.32 243 -268 243 C-268 254.22 -268 265.44 -268 277 C-265.03 277.33 -262.06 277.66 -259 278 C-237.78356801 283.41600901 -219.1754366 295.485438 -207.87890625 314.50390625 C-197.05303311 333.49969185 -193.19003718 356.08869219 -198.75 377.5 C-199.45153956 379.68283913 -200.19524838 381.85306747 -201 384 C-201.30035156 384.81855469 -201.60070312 385.63710938 -201.91015625 386.48046875 C-202.8300914 388.73052659 -203.86792254 390.84905283 -205 393 C-205.46921875 393.92039062 -205.9384375 394.84078125 -206.421875 395.7890625 C-216.82288959 414.95664652 -234.32593522 428.15122755 -255.1875 434.375 C-275.42169238 439.40792095 -297.319524 436.8170054 -315.6171875 427.04296875 C-336.02703602 414.71692859 -349.24561363 397.05953558 -355.109375 373.83203125 C-359.4750894 353.35937847 -355.74180328 331.78661882 -345 314 C-332.46096025 294.94584144 -314.88517252 282.84831629 -292.75 277.625 C-289 277 -289 277 -285 277 C-285.01110306 276.43481155 -285.02220612 275.86962311 -285.03364563 275.28730774 C-285.14436013 269.39881206 -285.21971684 263.51061253 -285.2746582 257.62133789 C-285.29978509 255.4242756 -285.33389246 253.22729676 -285.37719727 251.03051758 C-285.43792762 247.87039595 -285.46622833 244.71138043 -285.48828125 241.55078125 C-285.51408768 240.57039383 -285.5398941 239.59000641 -285.56648254 238.57991028 C-285.5668602 237.65933334 -285.56723785 236.73875641 -285.56762695 235.7902832 C-285.57873001 234.9842012 -285.58983307 234.1781192 -285.60127258 233.34761047 C-284.68873629 229.78470103 -282.80190502 228.31867252 -280 226 C-276.82351208 225.38476086 -276.82351208 225.38476086 -273.1726532 225.39872742 C-272.16169113 225.39231923 -272.16169113 225.39231923 -271.13030559 225.38578159 C-268.87874951 225.37756529 -266.62906904 225.4050098 -264.37768555 225.43237305 C-262.76120548 225.43378383 -261.14472222 225.43299094 -259.52824402 225.43016052 C-255.14410133 225.42872613 -250.76064285 225.45811927 -246.37665915 225.49303031 C-241.79360662 225.52429015 -237.21053833 225.52722425 -232.62739563 225.53315735 C-223.9504989 225.5486969 -215.27391722 225.58972685 -206.59715921 225.6399048 C-196.71819474 225.69579481 -186.83921522 225.7232839 -176.960132 225.74838197 C-156.63987311 225.80064271 -136.32004609 225.89233579 -116 226 C-116 216.1 -116 206.2 -116 196 C-118.64 196 -121.28 196 -124 196 C-141.45258042 194.17013924 -159.05796921 188.16668406 -174 179 C-174.29519531 179.78632813 -174.59039062 180.57265625 -174.89453125 181.3828125 C-176.19658667 184.46541721 -176.99153525 185.53642255 -180 187 C-183.92404077 187 -186.1225438 186.83154279 -189.015625 184.08984375 C-191.75946821 179.81744221 -192.93001159 175.43500823 -194.25 170.5625 C-194.6521875 169.1693457 -194.6521875 169.1693457 -195.0625 167.74804688 C-197.54841491 158.83807125 -197.54841491 158.83807125 -197 154 C-194.84909549 150.66238955 -193.79587201 149.26529067 -190 148 C-185.54669445 147.68649872 -181.08801429 147.67603239 -176.625 147.625 C-175.39265625 147.58761719 -174.1603125 147.55023438 -172.890625 147.51171875 C-162.76081509 147.41283774 -162.76081509 147.41283774 -159.68359375 150.33984375 C-157.59111522 153.64605692 -157.2933967 155.15293759 -158 159 C-160 162.375 -160 162.375 -162 165 C-149.33052102 171.31304518 -136.12023219 176.2248851 -122 178 C-120.99453125 178.1340625 -119.9890625 178.268125 -118.953125 178.40625 C-90.64110073 181.33049664 -61.90869845 172.95632339 -39.63330078 155.32958984 C-17.19485578 137.06355524 -1.13719489 111.13524518 2 82 C3.35504378 56.66152561 0.22909733 35.22042718 -11.7109375 12.78515625 C-13.44836318 9.0312638 -13.16564756 6.93406053 -12 3 C-8.25027671 -1.41143916 -5.44353178 -1.58357288 0 0 Z M-324.96484375 316.15234375 C-337.38315905 331.17932047 -340.66459907 348.0139742 -339 367 C-337.77607183 374.85835429 -334.86833845 382.09225277 -331 389 C-328.14027398 386.47024236 -326.11682651 383.74750234 -324.0625 380.5625 C-321.67931784 376.9162313 -319.25138791 373.93417933 -316 371 C-315.46503906 370.50757813 -314.93007813 370.01515625 -314.37890625 369.5078125 C-310.50297019 366.03759803 -306.59419016 363.43773356 -302 361 C-302.42152344 360.16855469 -302.84304688 359.33710938 -303.27734375 358.48046875 C-303.82519531 357.39378906 -304.37304688 356.30710937 -304.9375 355.1875 C-305.48277344 354.10855469 -306.02804687 353.02960938 -306.58984375 351.91796875 C-310.09714628 344.66047571 -310.13909115 335.88181921 -308.31640625 328.0703125 C-304.91326408 319.00468066 -299.71334893 312.33027038 -291 308 C-281.79710582 304.08387482 -271.99573895 304.30384933 -262.69921875 307.88671875 C-253.59171477 312.22607564 -248.56040483 318.55125156 -244.84765625 327.90234375 C-242.21238729 337.53261235 -243.68906562 347.13302794 -248 356 C-248.97862305 357.67930781 -249.97330709 359.34964263 -251 361 C-250.32195312 361.38929688 -249.64390625 361.77859375 -248.9453125 362.1796875 C-237.5436718 369.03330531 -229.65978994 376.89817272 -224 389 C-220.42328708 385.8808623 -218.9368511 382.9948776 -217.3125 378.5625 C-216.89613281 377.45003906 -216.47976562 376.33757812 -216.05078125 375.19140625 C-211.16943024 360.36589036 -212.87211683 342.77386852 -219.5078125 328.83203125 C-228.42689106 312.4665592 -242.33119473 301.09607659 -259.9375 295.125 C-284.73845545 289.12244991 -308.02652646 297.59764628 -324.96484375 316.15234375 Z M-156.48046875 315.75390625 C-167.980906 330.22095545 -172.17828499 345.78334004 -171 364 C-169.75063335 373.21801611 -166.50385108 380.91055875 -162 389 C-159.44284885 387.72142442 -159.18570828 386.60812908 -157.9375 384.0625 C-152.94932305 374.91508513 -146.22691674 368.60674735 -137.28515625 363.375 C-134.91038068 362.07125866 -134.91038068 362.07125866 -133 360 C-133.40992188 359.45472656 -133.81984375 358.90945313 -134.2421875 358.34765625 C-139.62163956 350.81899727 -142.1168936 343.37143532 -141 334 C-139.13880758 324.9121464 -135.35340829 317.16109185 -128.01171875 311.31640625 C-119.88149561 305.99624082 -111.09587241 304.2637119 -101.5625 305.5625 C-93.39607026 307.2781365 -86.40426585 311.48403286 -81.24609375 318.07421875 C-75.93834271 326.27710673 -73.70428136 335.00107882 -75.49609375 344.6796875 C-77.01454054 350.87357781 -79.25926443 355.83985489 -83 361 C-82.39414062 361.32871094 -81.78828125 361.65742188 -81.1640625 361.99609375 C-69.474382 368.63223545 -60.88531081 376.87516986 -55 389 C-48.43472275 383.35347875 -45.85380611 372.34832643 -45 364 C-43.80183346 344.82933539 -48.76281214 328.18206471 -61.49609375 313.53125 C-73.18392938 301.7157781 -88.12244468 293.89222225 -104.8659668 293.61962891 C-125.44232645 293.65879823 -142.43029651 300.15489613 -156.48046875 315.75390625 Z M12.03515625 316.15234375 C-0.3987125 331.19814117 -3.63262146 347.99953665 -2 367 C-0.77797894 375.23488062 2.15489858 382.27069247 7 389 C9.0363283 386.35039155 10.8590826 383.64726213 12.625 380.8125 C18.50444895 372.00780798 25.69508473 365.95355615 35 361 C34.57847656 360.18015625 34.15695312 359.3603125 33.72265625 358.515625 C33.17480469 357.43796875 32.62695312 356.3603125 32.0625 355.25 C31.51722656 354.18265625 30.97195313 353.1153125 30.41015625 352.015625 C26.97322862 344.66574097 26.8042807 336.00152303 28.68359375 328.140625 C32.09168619 319.03352321 37.2441364 312.35139888 46 308 C55.21622873 304.07820054 64.93924693 304.34613074 74.265625 307.8515625 C83.53580459 312.20359337 88.42383718 318.46951732 92.1171875 327.83203125 C94.78161481 337.39331688 93.7147012 347.32747271 89 356 C88.01216126 357.67390335 87.01492785 359.34238145 86 361 C86.73605469 361.45890625 87.47210938 361.9178125 88.23046875 362.390625 C89.20628906 363.00421875 90.18210937 363.6178125 91.1875 364.25 C92.15042969 364.85328125 93.11335938 365.4565625 94.10546875 366.078125 C99.04792008 369.3597526 102.63448177 372.50898605 106.0625 377.375 C106.74441406 378.33792969 107.42632812 379.30085938 108.12890625 380.29296875 C110.12080859 383.17478153 112.09360505 386.06097446 114 389 C116.7103832 385.75863529 118.13944318 382.5042382 119.625 378.5625 C120.05039062 377.45003906 120.47578125 376.33757812 120.9140625 375.19140625 C125.9280869 360.45594606 124.09456995 342.70387625 117.4921875 328.83203125 C108.57310894 312.4665592 94.66880527 301.09607659 77.0625 295.125 C52.26154455 289.12244991 28.97347354 297.59764628 12.03515625 316.15234375 Z M-287.8671875 325.6953125 C-292.13420678 330.57482258 -293.42998639 333.81994206 -293.3359375 340.328125 C-292.78064128 344.74466702 -291.0540066 347.79845684 -288 351 C-283.32401834 354.46296549 -278.82757212 355.8325103 -273 355 C-267.29718193 353.25200979 -263.72859088 350.44849089 -260.84375 345.21484375 C-258.92469304 340.17731924 -259.3898663 335.76260848 -261.125 330.75 C-264.68330751 325.53114899 -268.64619243 322.32051564 -274.85546875 321.09765625 C-279.84009469 320.87066964 -284.17099388 322.33935427 -287.8671875 325.6953125 Z M-119.8125 326.25 C-123.23629721 330.55420221 -125.37389643 334.4851407 -124.9375 340.0625 C-123.96593416 345.40611214 -121.39851559 348.79662612 -117.3125 352.3125 C-112.51726425 354.75535595 -108.06348754 355.91850596 -102.78515625 354.3359375 C-97.49651518 351.91320807 -94.61209206 348.76358639 -91.6875 343.75 C-90.49525389 338.98101555 -90.8318254 334.42980316 -92.9765625 329.96875 C-96.31104414 324.89173279 -100.09054361 322.88548673 -105.875 321.125 C-111.44710971 320.90211561 -115.50466627 322.80373302 -119.8125 326.25 Z M51 324 C47.16708077 327.40793027 44.4453637 330.77429438 43.7265625 335.98046875 C43.48182919 341.29871194 44.28959125 344.89183677 47.3828125 349.26953125 C51.08894838 353.23527568 55.21199893 354.74457128 60.5 355.5 C65.78464682 354.74505045 69.87772394 353.22480148 73.6171875 349.3046875 C76.82896211 344.82271955 77.72445197 340.80813009 77.421875 335.328125 C76.57693289 330.6652963 73.9983091 327.9983091 70.75 324.75 C64.06943159 320.49872919 58.0142404 320.0528721 51 324 Z M-308.3984375 385.875 C-312.63189442 391.49207455 -315.9021343 398.02982939 -317 405 C-302.64685994 416.01889292 -286.69902384 421.34806542 -268.625 419.375 C-257.09011619 417.60850157 -246.16058668 413.37741904 -237 406 C-235.59892843 401.79678528 -236.95213503 399.65958443 -238.64453125 395.69140625 C-244.01566333 385.02653593 -252.63598916 377.83852253 -263.73828125 373.7265625 C-279.85039006 368.5506519 -296.87010328 373.63638926 -308.3984375 385.875 Z M-140.13671875 386.49609375 C-145.97136117 394.30182477 -145.97136117 394.30182477 -147.8046875 403.51171875 C-146.09024379 408.81317818 -139.92452973 411.00915301 -135.23828125 413.421875 C-121.36322323 420.00140042 -104.86612518 421.68978566 -89.9375 417.4375 C-77.80673787 412.97991963 -77.80673787 412.97991963 -68 405 C-67.86246215 398.26064542 -71.35432017 393.45453376 -75 388 C-75.5775 387.113125 -76.155 386.22625 -76.75 385.3125 C-85.32365875 376.50068407 -95.74362485 371.91844453 -108 371.5 C-120.66808442 371.94596117 -131.80086834 376.7582356 -140.13671875 386.49609375 Z M29.1875 385.625 C24.78809297 390.77457235 21.73900166 396.4337696 20 403 C21.77814804 408.33444412 27.26334443 410.38131435 32 413 C47.20797075 420.43889246 63.20064253 421.74827949 79.44140625 416.9921875 C86.79575451 414.36997596 93.89109741 410.91976507 100 406 C101.52225398 401.43323807 99.65268903 398.55112384 97.7578125 394.26953125 C91.87870324 383.33438803 83.28933151 377.38340344 72 373 C56.05660705 368.81731975 40.45714356 374.00084779 29.1875 385.625 Z " fill="#F38319" transform="translate(364,68)"/>
<path d="M0 0 C1.83691406 -0.00580078 1.83691406 -0.00580078 3.7109375 -0.01171875 C4.98195313 -0.00011719 6.25296875 0.01148438 7.5625 0.0234375 C8.83351563 0.01183594 10.10453125 0.00023437 11.4140625 -0.01171875 C12.63867188 -0.00785156 13.86328125 -0.00398438 15.125 0 C16.24003906 0.00338379 17.35507812 0.00676758 18.50390625 0.01025391 C21.93382395 0.44556434 23.82151669 1.3174407 26.5625 3.3984375 C27.65234375 6.10546875 27.65234375 6.10546875 28.5 9.2109375 C30.29873734 13.97672389 31.99226387 16.21772053 36.66625977 18.43041992 C43.46470484 21.2728334 43.46470484 21.2728334 50.5625 20.3984375 C51.67625 19.8621875 52.79 19.3259375 53.9375 18.7734375 C58.27694864 17.12743974 60.13953206 17.00171078 64.5625 18.3984375 C67.53644288 20.42756697 70.01052954 22.86854291 72.5625 25.3984375 C73.98949219 26.76935547 73.98949219 26.76935547 75.4453125 28.16796875 C84.25815869 36.73712856 84.25815869 36.73712856 85.5625 40.3984375 C85.33389577 44.43711226 84.59693888 47.32161231 82.9375 51.0234375 C81.14987954 55.41123317 81.89489046 57.63423237 83.53515625 61.96875 C84.26399952 63.67722133 84.99316823 65.38555386 85.72265625 67.09375 C86.5625 69.3984375 86.5625 69.3984375 86.5625 72.3984375 C87.3875 72.4809375 88.2125 72.5634375 89.0625 72.6484375 C93.56735759 73.61376413 99.0152473 75.01186175 101.65209961 79.07910156 C103.63526722 84.13141916 102.88848492 89.98242477 102.875 95.3359375 C102.89111328 96.61146484 102.90722656 97.88699219 102.92382812 99.20117188 C102.92447266 100.43029297 102.92511719 101.65941406 102.92578125 102.92578125 C102.92876221 104.04718506 102.93174316 105.16858887 102.93481445 106.32397461 C102.51778734 109.76766142 101.62381023 111.63351439 99.5625 114.3984375 C97.1875 115.76171875 97.1875 115.76171875 94.5625 116.7109375 C93.69625 117.03707031 92.83 117.36320312 91.9375 117.69921875 C89.5625 118.3984375 89.5625 118.3984375 86.5625 118.3984375 C86.48 119.2028125 86.3975 120.0071875 86.3125 120.8359375 C85.65223406 123.97220071 84.81607503 126.11822071 83.4375 128.9609375 C81.88200334 132.34636349 81.88200334 132.34636349 81.625 136.0234375 C82.39545607 137.97525953 83.27718862 139.88279079 84.1875 141.7734375 C85.83349776 146.11288614 85.95922672 147.97546956 84.5625 152.3984375 C82.53337053 155.37238038 80.09239459 157.84646704 77.5625 160.3984375 C76.19158203 161.82542969 76.19158203 161.82542969 74.79296875 163.28125 C66.22380894 172.09409619 66.22380894 172.09409619 62.5625 173.3984375 C58.52382524 173.16983327 55.63932519 172.43287638 51.9375 170.7734375 C48.17800213 169.24179022 47.34339663 169.40609073 43.5625 170.3984375 C42.593125 170.65238281 41.62375 170.90632812 40.625 171.16796875 C34.18020021 173.31858174 34.18020021 173.31858174 29.84765625 178.29296875 C28.59200114 181.47842653 28.59200114 181.47842653 27.72265625 184.65625 C26.24090871 188.15856236 24.96139158 188.77274042 21.5625 190.3984375 C18.50390625 190.78662109 18.50390625 190.78662109 15.125 190.796875 C13.90039062 190.80074219 12.67578125 190.80460938 11.4140625 190.80859375 C10.14304687 190.79699219 8.87203125 190.78539062 7.5625 190.7734375 C6.29148437 190.78503906 5.02046875 190.79664063 3.7109375 190.80859375 C2.48632812 190.80472656 1.26171875 190.80085937 0 190.796875 C-1.11503906 190.79349121 -2.23007813 190.79010742 -3.37890625 190.78662109 C-6.80882395 190.35131066 -8.69651669 189.4794343 -11.4375 187.3984375 C-12.52734375 184.69140625 -12.52734375 184.69140625 -13.375 181.5859375 C-15.17373734 176.82015111 -16.86726387 174.57915447 -21.54125977 172.36645508 C-27.56385214 169.88747634 -31.34144035 168.80421005 -37.46484375 171.1875 C-38.09519531 171.46335938 -38.72554687 171.73921875 -39.375 172.0234375 C-43.19703682 173.45223631 -45.48826021 173.87940242 -49.4375 172.3984375 C-52.36207192 170.32335321 -54.8748456 167.89997238 -57.4375 165.3984375 C-57.89946777 164.9554834 -58.36143555 164.5125293 -58.83740234 164.05615234 C-69.07189667 154.23171001 -69.07189667 154.23171001 -70.4375 150.3984375 C-70.20889577 146.35976274 -69.47193888 143.47526269 -67.8125 139.7734375 C-66.02487954 135.38564183 -66.76989046 133.16264263 -68.41015625 128.828125 C-69.13899952 127.11965367 -69.86816823 125.41132114 -70.59765625 123.703125 C-71.4375 121.3984375 -71.4375 121.3984375 -71.4375 118.3984375 C-72.2625 118.3159375 -73.0875 118.2334375 -73.9375 118.1484375 C-78.44235759 117.18311087 -83.8902473 115.78501325 -86.52709961 111.71777344 C-88.51026722 106.66545584 -87.76348492 100.81445023 -87.75 95.4609375 C-87.76611328 94.18541016 -87.78222656 92.90988281 -87.79882812 91.59570312 C-87.79947266 90.36658203 -87.80011719 89.13746094 -87.80078125 87.87109375 C-87.80525269 86.18898804 -87.80525269 86.18898804 -87.80981445 84.47290039 C-87.39278734 81.02921358 -86.49881023 79.16336061 -84.4375 76.3984375 C-82.0625 75.03515625 -82.0625 75.03515625 -79.4375 74.0859375 C-78.57125 73.75980469 -77.705 73.43367188 -76.8125 73.09765625 C-74.4375 72.3984375 -74.4375 72.3984375 -71.4375 72.3984375 C-71.355 71.5940625 -71.2725 70.7896875 -71.1875 69.9609375 C-70.52723406 66.82467429 -69.69107503 64.67865429 -68.3125 61.8359375 C-66.75700334 58.45051151 -66.75700334 58.45051151 -66.5 54.7734375 C-67.27045607 52.82161547 -68.15218862 50.91408421 -69.0625 49.0234375 C-70.70849776 44.68398886 -70.83422672 42.82140544 -69.4375 38.3984375 C-67.40837053 35.42449462 -64.96739459 32.95040796 -62.4375 30.3984375 C-61.06658203 28.97144531 -61.06658203 28.97144531 -59.66796875 27.515625 C-51.09880894 18.70277881 -51.09880894 18.70277881 -47.4375 17.3984375 C-43.39882524 17.62704173 -40.51432519 18.36399862 -36.8125 20.0234375 C-33.05300213 21.55508478 -32.21839663 21.39078427 -28.4375 20.3984375 C-27.468125 20.14449219 -26.49875 19.89054687 -25.5 19.62890625 C-19.05520021 17.47829326 -19.05520021 17.47829326 -14.72265625 12.50390625 C-13.46700114 9.31844847 -13.46700114 9.31844847 -12.59765625 6.140625 C-10.22743447 0.5382826 -5.61321301 0.01703432 0 0 Z M1.5625 17.3984375 C0.325 20.0590625 0.325 20.0590625 -0.9375 22.7734375 C-1.4015625 23.77117187 -1.865625 24.76890625 -2.34375 25.796875 C-3.5666873 28.23536376 -3.5666873 28.23536376 -3.4375 30.3984375 C-4.08074219 30.54539062 -4.72398437 30.69234375 -5.38671875 30.84375 C-10.98557219 32.23347967 -15.94611937 34.02674765 -21.125 36.5859375 C-27.19379696 39.46969208 -31.09658641 40.72545254 -37.69921875 38.70703125 C-39.63831968 38.00651835 -41.54244879 37.2106023 -43.4375 36.3984375 C-46.0775 39.0384375 -48.7175 41.6784375 -51.4375 44.3984375 C-50.9425 45.5534375 -50.4475 46.7084375 -49.9375 47.8984375 C-47.88191165 53.58854438 -47.35323015 57.77300421 -49.6796875 63.40625 C-50.7391499 65.6358649 -51.82182082 67.85457913 -52.92578125 70.0625 C-54.37338414 73.25695186 -55.19779481 76.16984445 -55.9375 79.5859375 C-56.609375 82.28515625 -56.609375 82.28515625 -57.4375 84.3984375 C-60.1875 85.8984375 -60.1875 85.8984375 -63.4375 86.3984375 C-64.74261208 86.90685466 -66.03493181 87.44930766 -67.3125 88.0234375 C-68.859375 88.7040625 -68.859375 88.7040625 -70.4375 89.3984375 C-70.4375 93.3584375 -70.4375 97.3184375 -70.4375 101.3984375 C-67.776875 102.6359375 -67.776875 102.6359375 -65.0625 103.8984375 C-64.06476563 104.3625 -63.06703125 104.8265625 -62.0390625 105.3046875 C-59.60057374 106.5276248 -59.60057374 106.5276248 -57.4375 106.3984375 C-57.29054687 107.04167969 -57.14359375 107.68492187 -56.9921875 108.34765625 C-55.60245783 113.94650969 -53.80918985 118.90705687 -51.25 124.0859375 C-48.36624542 130.15473446 -47.11048496 134.05752391 -49.12890625 140.66015625 C-49.82941915 142.59925718 -50.6253352 144.50338629 -51.4375 146.3984375 C-48.7975 149.0384375 -46.1575 151.6784375 -43.4375 154.3984375 C-41.705 153.6559375 -41.705 153.6559375 -39.9375 152.8984375 C-34.24739312 150.84284915 -30.06293329 150.31416765 -24.4296875 152.640625 C-22.2000726 153.7000874 -19.98135837 154.78275832 -17.7734375 155.88671875 C-14.57898564 157.33432164 -11.66609305 158.15873231 -8.25 158.8984375 C-5.55078125 159.5703125 -5.55078125 159.5703125 -3.4375 160.3984375 C-1.9375 163.1484375 -1.9375 163.1484375 -1.4375 166.3984375 C-0.92908284 167.70354958 -0.38662984 168.99586931 0.1875 170.2734375 C0.868125 171.8203125 0.868125 171.8203125 1.5625 173.3984375 C5.5225 173.3984375 9.4825 173.3984375 13.5625 173.3984375 C14.3875 171.6246875 15.2125 169.8509375 16.0625 168.0234375 C16.75859375 166.52683594 16.75859375 166.52683594 17.46875 165 C18.6916873 162.56151124 18.6916873 162.56151124 18.5625 160.3984375 C19.20574219 160.25148437 19.84898437 160.10453125 20.51171875 159.953125 C26.11057219 158.56339533 31.07111937 156.77012735 36.25 154.2109375 C42.31879696 151.32718292 46.22158641 150.07142246 52.82421875 152.08984375 C54.76331968 152.79035665 56.66744879 153.5862727 58.5625 154.3984375 C61.2025 151.7584375 63.8425 149.1184375 66.5625 146.3984375 C66.0675 145.2434375 65.5725 144.0884375 65.0625 142.8984375 C63.00691165 137.20833062 62.47823015 133.02387079 64.8046875 127.390625 C65.8641499 125.1610101 66.94682082 122.94229587 68.05078125 120.734375 C69.49838414 117.53992314 70.32279481 114.62703055 71.0625 111.2109375 C71.734375 108.51171875 71.734375 108.51171875 72.5625 106.3984375 C75.3125 104.8984375 75.3125 104.8984375 78.5625 104.3984375 C79.86761208 103.89002034 81.15993181 103.34756734 82.4375 102.7734375 C83.984375 102.0928125 83.984375 102.0928125 85.5625 101.3984375 C85.5625 97.4384375 85.5625 93.4784375 85.5625 89.3984375 C83.78875 88.5734375 82.015 87.7484375 80.1875 86.8984375 C79.18976563 86.434375 78.19203125 85.9703125 77.1640625 85.4921875 C74.72557374 84.2692502 74.72557374 84.2692502 72.5625 84.3984375 C72.41554688 83.75519531 72.26859375 83.11195312 72.1171875 82.44921875 C70.72745783 76.85036531 68.93418985 71.88981813 66.375 66.7109375 C63.49124542 60.64214054 62.23548496 56.73935109 64.25390625 50.13671875 C64.95441915 48.19761782 65.7503352 46.29348871 66.5625 44.3984375 C63.9225 41.7584375 61.2825 39.1184375 58.5625 36.3984375 C57.4075 36.8934375 56.2525 37.3884375 55.0625 37.8984375 C49.37239312 39.95402585 45.18793329 40.48270735 39.5546875 38.15625 C37.3250726 37.0967876 35.10635837 36.01411668 32.8984375 34.91015625 C29.70398564 33.46255336 26.79109305 32.63814269 23.375 31.8984375 C20.67578125 31.2265625 20.67578125 31.2265625 18.5625 30.3984375 C17.0625 27.6484375 17.0625 27.6484375 16.5625 24.3984375 C16.05408284 23.09332542 15.51162984 21.80100569 14.9375 20.5234375 C14.256875 18.9765625 14.256875 18.9765625 13.5625 17.3984375 C9.6025 17.3984375 5.6425 17.3984375 1.5625 17.3984375 Z " fill="#ED5422" transform="translate(248.4375,40.6015625)"/>
<path d="M0 0 C0.28359375 -0.78632813 0.5671875 -1.57265625 0.859375 -2.3828125 C2.33229498 -5.76245765 3.61122035 -6.61368105 7 -8 C10.66083719 -8 12.32895087 -7.6472249 14.98046875 -5.08984375 C17.76815572 -0.8247366 18.92586702 3.54969281 20.25 8.4375 C20.518125 9.36626953 20.78625 10.29503906 21.0625 11.25195312 C23.54841491 20.16192875 23.54841491 20.16192875 23 25 C20.84909549 28.33761045 19.79587201 29.73470933 16 31 C11.35909672 31.31435425 6.7127672 31.32397462 2.0625 31.375 C0.77408203 31.41238281 -0.51433594 31.44976562 -1.84179688 31.48828125 C-3.07865234 31.49988281 -4.31550781 31.51148438 -5.58984375 31.5234375 C-6.72284912 31.54325684 -7.85585449 31.56307617 -9.02319336 31.58349609 C-12 31 -12 31 -14.36938477 28.65087891 C-16.38937507 25.36699588 -16.61993555 23.79710525 -16 20 C-14.70935133 17.97219237 -13.37971772 15.96828778 -12 14 C-39.83676675 -0.2468408 -70.50824797 -4.0020487 -100.62109375 5.46484375 C-128.50237684 14.90359325 -151.59139528 34.59661971 -164.96630859 60.90039062 C-177.48893168 86.67810422 -180.59754618 117.17048168 -171.80908203 144.67480469 C-169.21537372 152.12878114 -165.99586432 159.24978006 -162.2890625 166.21484375 C-160.55163682 169.9687362 -160.83435244 172.06593947 -162 176 C-164.125 178.5 -164.125 178.5 -167 180 C-170.76671084 180 -173.02926653 179.79965371 -175.97265625 177.375 C-178.44742707 174.47584651 -180.18710146 171.3921478 -181.875 168 C-182.21869629 167.31010986 -182.56239258 166.62021973 -182.91650391 165.90942383 C-191.05434987 148.87659124 -194.43019339 130.82345157 -194.375 112.0625 C-194.37412384 111.33456238 -194.37324768 110.60662476 -194.37234497 109.85662842 C-194.2272841 73.24005162 -179.92363088 42.31125353 -154.09985352 16.67773438 C-148.17695524 10.96683985 -142.03896803 6.29584078 -135 2 C-133.9275 1.31679688 -132.855 0.63359375 -131.75 -0.0703125 C-92.65176315 -23.87317428 -39.08603095 -23.97862123 0 0 Z " fill="#ED4F22" transform="translate(322,25)"/>
<path d="M0 0 C9.19134071 8.35435521 15.02615715 20.33212077 15.875 32.6875 C16.46185959 46.79950542 12.95770309 59.27616394 3.81640625 70.2890625 C-5.47687292 80.20064452 -17.70400608 85.97411098 -31.32714844 86.578125 C-45.83373112 86.772193 -58.3569497 81.83259547 -69.05859375 72.10546875 C-78.77111996 61.92798118 -82.76641238 49.08898861 -82.74243164 35.31445312 C-82.34880778 21.24199192 -76.17450919 8.86488298 -66.0625 -0.78515625 C-46.08692612 -16.44090356 -19.70728836 -15.74635066 0 0 Z M-57.37109375 15.10546875 C-64.46251612 23.68184708 -66.2610624 32.12440392 -65.37109375 43.10546875 C-63.78445679 52.17814735 -58.31557076 59.30896785 -50.87109375 64.54296875 C-42.75454758 69.46746147 -34.21178251 70.30177362 -24.9140625 68.67578125 C-15.96543944 66.13694248 -9.2853919 60.1299006 -4.5234375 52.28125 C-0.37847886 44.45500607 -0.02574121 34.90490578 -2.43359375 26.41796875 C-5.84755237 17.65282848 -12.154458 11.45718786 -20.37109375 7.10546875 C-33.63328045 1.60041012 -47.40946251 5.4059857 -57.37109375 15.10546875 Z " fill="#EE5421" transform="translate(289.37109375,98.89453125)"/>
</svg>
