<?xml version="1.0" encoding="UTF-8"?>
<svg version="1.1" xmlns="http://www.w3.org/2000/svg" width="512" height="512">
<path d="M0 0 C2.80485817 1.27118178 5.23777659 2.97987534 7.75 4.75 C9.25690829 5.76826648 10.76475574 6.78514423 12.2734375 7.80078125 C13.05041992 8.33010254 13.82740234 8.85942383 14.62792969 9.40478516 C18.48950251 12.0016889 22.43198695 14.46675681 26.375 16.9375 C27.98063403 17.94895642 29.58610195 18.96067658 31.19140625 19.97265625 C32.38660889 20.72506592 32.38660889 20.72506592 33.60595703 21.49267578 C37.50990201 23.95065623 41.41151977 26.41231762 45.3125 28.875 C46.08835449 29.36476318 46.86420898 29.85452637 47.66357422 30.35913086 C54.72035783 34.8170724 61.76105338 39.30013754 68.80126953 43.78417969 C77.0787882 49.05446637 85.37340293 54.29733903 93.67333984 59.53222656 C97.61660245 62.01983357 101.55820768 64.51006414 105.5 67 C107.0833256 68.00001224 108.66665893 69.00001225 110.25 70 C113.41666667 72 116.58333333 74 119.75 76 C120.53366943 76.49491943 121.31733887 76.98983887 122.12475586 77.49975586 C123.70901129 78.50039823 125.29315834 79.50121221 126.87719727 80.50219727 C130.82055447 82.99378331 134.76571356 85.48241642 138.71484375 87.96484375 C142.65113786 90.44047997 146.58172422 92.92492127 150.50732422 95.41748047 C152.24751842 96.52227369 153.98881833 97.62532638 155.73095703 98.72705078 C158.49241486 100.47682356 161.24691976 102.23708231 164 104 C165.2828186 104.81005493 165.2828186 104.81005493 166.59155273 105.63647461 C167.78373413 106.40423218 167.78373413 106.40423218 169 107.1875 C169.70125 107.63480469 170.4025 108.08210938 171.125 108.54296875 C174.40476506 111.09161952 175.85459592 112.85652039 176.38818359 117.05273438 C176.39156738 118.22126953 176.39495117 119.38980469 176.3984375 120.59375 C176.40230469 121.87121094 176.40617187 123.14867188 176.41015625 124.46484375 C176.40387207 125.12726074 176.39758789 125.78967773 176.39111328 126.47216797 C176.37504886 128.49385089 176.39097765 130.51353513 176.41015625 132.53515625 C176.40628906 133.81261719 176.40242188 135.09007812 176.3984375 136.40625 C176.39505371 137.57478516 176.39166992 138.74332031 176.38818359 139.94726562 C175.93513947 143.51007301 175.69966685 144.63289765 173 147 C169.76199481 147.50815678 166.57977763 147.37428562 163.3125 147.25 C162.41982422 147.23195312 161.52714844 147.21390625 160.60742188 147.1953125 C158.40386496 147.14817759 156.20247399 147.08240657 154 147 C154.00460896 148.07767482 154.00921793 149.15534964 154.01396656 150.26568127 C154.12489688 176.47131564 154.20709664 202.67691961 154.25906086 228.88273907 C154.28485743 241.55561854 154.32003597 254.22834304 154.37719727 266.90112305 C154.42698745 277.94496204 154.45928043 288.98868883 154.47044247 300.03263694 C154.4769686 305.88196788 154.49233746 311.73097775 154.52865028 317.58020592 C154.56254019 323.08364326 154.57306699 328.58662669 154.56553841 334.09015846 C154.56691608 336.11184275 154.57689001 338.13354193 154.59602737 340.15513611 C154.62085591 342.91275636 154.61494259 345.66865638 154.60127258 348.42631531 C154.61583679 349.22885024 154.630401 350.03138518 154.64540654 350.85823935 C154.59296838 354.76384352 154.14629721 356.79609616 151.84879303 359.99827576 C148.506226 362.34695374 146.86874764 362.61856852 142.81803894 362.60127258 C141.57428497 362.6081459 140.33053101 362.61501923 139.04908752 362.62210083 C137.67879641 362.60440746 136.30851144 362.58623345 134.93823242 362.56762695 C133.48923797 362.56621595 132.04023994 362.56700948 130.59124756 362.56983948 C126.66366882 362.57127304 122.73685485 362.54189383 118.80945373 362.50696969 C114.7028681 362.47569579 110.59626459 362.47277465 106.48957825 362.46684265 C98.715771 362.45130719 90.94231566 362.41028294 83.16866332 362.3600952 C74.3174959 362.30419234 65.46631161 362.2767129 56.61501157 362.25161803 C38.40976771 362.19936655 20.20500622 362.1076788 2 362 C2 370.91 2 379.82 2 389 C4.1857515 388.99555878 6.37150299 388.99111755 8.62348938 388.98654175 C29.18100537 388.94572213 49.73851603 388.91593157 70.29606342 388.89637566 C80.86593028 388.88605398 91.43576744 388.87197666 102.00561523 388.84912109 C111.21606614 388.82921446 120.42649554 388.81629005 129.63696736 388.81182301 C134.51584642 388.809211 139.39466395 388.80305321 144.27352333 388.78853989 C148.86251333 388.77499902 153.45141626 388.77077025 158.04042435 388.77378464 C159.72751653 388.7732329 161.41461153 388.76923469 163.10168648 388.76158905 C165.39975233 388.7516824 167.69748664 388.75401531 169.99555969 388.75949097 C171.92717689 388.75672559 171.92717689 388.75672559 173.89781666 388.75390434 C177 389 177 389 180 391 C180.34057617 393.61376953 180.34057617 393.61376953 180.29296875 396.8828125 C180.28330078 398.04941406 180.27363281 399.21601563 180.26367188 400.41796875 C180.23853516 401.64128906 180.21339844 402.86460937 180.1875 404.125 C180.16719727 405.97158203 180.16719727 405.97158203 180.14648438 407.85546875 C180.11103543 410.90407843 180.06162079 413.951825 180 417 C181.28688721 416.98428955 182.57377441 416.9685791 183.8996582 416.95239258 C188.66863764 416.89814225 193.43758974 416.8636677 198.20678711 416.83520508 C200.27193791 416.82010729 202.3370566 416.79962726 204.40209961 416.77368164 C207.36840739 416.73734205 210.33429171 416.7202837 213.30078125 416.70703125 C214.2258699 416.69154739 215.15095856 416.67606354 216.1040802 416.66011047 C216.96474594 416.65988388 217.82541168 416.65965729 218.7121582 416.65942383 C219.46938675 416.65276199 220.2266153 416.64610016 221.00679016 416.63923645 C223 417 223 417 224.74372864 418.00382996 C226.75930553 421.2065092 226.41609877 424.61095159 226.38818359 428.27929688 C226.39606903 429.54556664 226.39606903 429.54556664 226.40411377 430.8374176 C226.4173312 433.63138259 226.40856959 436.42477909 226.3984375 439.21875 C226.40045774 441.15783803 226.40336875 443.09692532 226.40713501 445.03601074 C226.41156072 449.10139189 226.40511933 453.1665754 226.39111328 457.23193359 C226.37402129 462.44773846 226.38386114 467.66308024 226.40183067 472.8788681 C226.41266181 476.88339743 226.40922525 480.88781663 226.4014473 484.89234924 C226.39944344 486.81572016 226.40191106 488.73910101 226.40888596 490.66246033 C226.41648941 493.34881137 226.40491195 496.03440837 226.38818359 498.72070312 C226.39425629 499.51871841 226.40032898 500.3167337 226.40658569 501.13893127 C226.34416098 506.53922675 226.34416098 506.53922675 224.72763252 508.70348454 C222.63034419 510.27741112 221.57801585 510.37876116 218.97692871 510.38768005 C217.75298653 510.402537 217.75298653 510.402537 216.50431824 510.41769409 C215.61279556 510.41319244 214.72127289 510.4086908 213.80273438 510.40405273 C212.39016106 510.41434761 212.39016106 510.41434761 210.9490509 510.42485046 C207.83046471 510.4431797 204.71237859 510.43927254 201.59375 510.43359375 C199.43045894 510.4381523 197.26716932 510.44345689 195.10388184 510.44947815 C190.5677299 510.45842108 186.03175391 510.45597229 181.49560547 510.44604492 C175.67439051 510.43454839 169.85378151 510.45477157 164.03264618 510.48396206 C159.56488164 510.50228166 155.09726348 510.50204016 150.62947083 510.49632454 C148.48280486 510.49617083 146.33612928 510.50225557 144.1894989 510.51461601 C141.19169753 510.52944566 138.19503077 510.51890832 135.19726562 510.50170898 C134.30574295 510.51137695 133.41422028 510.52104492 132.49568176 510.53100586 C126.62394946 510.46023852 126.62394946 510.46023852 123.94943237 508.48745728 C122.58199373 504.90484804 122.58258062 501.47853627 122.61181641 497.69897461 C122.60393097 496.44711617 122.60393097 496.44711617 122.59588623 495.16996765 C122.5826922 492.41390214 122.59142133 489.65841504 122.6015625 486.90234375 C122.59954178 484.98710519 122.59663036 483.07186739 122.59286499 481.15663147 C122.58844261 477.14430408 122.59487067 473.13217713 122.60888672 469.11987305 C122.62599007 463.97247613 122.61612958 458.82554807 122.59816933 453.6781683 C122.58733904 449.72425287 122.59077416 445.77044898 122.5985527 441.81653023 C122.6005562 439.91827909 122.5980902 438.02001787 122.59111404 436.12177849 C122.5835107 433.4714555 122.5950873 430.82189679 122.61181641 428.17163086 C122.60574371 427.38453735 122.59967102 426.59744385 122.59341431 425.78649902 C122.65481159 420.546643 122.65481159 420.546643 124.25627136 418.01055908 C126.42603296 416.7530972 127.7829917 416.63738702 130.2878418 416.65942383 C131.14850754 416.65965042 132.00917328 416.65987701 132.8959198 416.66011047 C134.28355278 416.68333626 134.28355278 416.68333626 135.69921875 416.70703125 C136.64940384 416.71127609 137.59958893 416.71552094 138.5785675 416.71989441 C141.61516588 416.73669516 144.65110202 416.77435008 147.6875 416.8125 C149.74543313 416.82754503 151.80337665 416.84123375 153.86132812 416.85351562 C158.90780748 416.88660329 163.95379144 416.93839538 169 417 C169 411.72 169 406.44 169 401 C113.89 401 58.78 401 2 401 C2 406.28 2 411.56 2 417 C3.29212402 416.98952637 4.58424805 416.97905273 5.91552734 416.96826172 C10.69756309 416.93213281 15.47958673 416.90912549 20.26171875 416.89013672 C22.33367947 416.88006288 24.40562593 416.86640334 26.47753906 416.84912109 C29.45120764 416.82493336 32.4246887 416.81353092 35.3984375 416.8046875 C36.79381241 416.78920364 36.79381241 416.78920364 38.21737671 416.77340698 C39.07811798 416.77325592 39.93885925 416.77310486 40.82568359 416.77294922 C41.58513275 416.768508 42.34458191 416.76406677 43.12704468 416.75949097 C45 417 45 417 47 419 C47.19867212 421.82075259 47.27268925 424.54334093 47.25878906 427.36523438 C47.26404602 428.66295525 47.26404602 428.66295525 47.26940918 429.9868927 C47.27823507 432.85592598 47.27237433 435.72471407 47.265625 438.59375 C47.2669714 440.58150276 47.26891173 442.5692552 47.27142334 444.55700684 C47.27437577 448.72667572 47.27007315 452.89625902 47.26074219 457.06591797 C47.2493476 462.41964276 47.25590644 467.77316704 47.26788712 473.12688446 C47.27510251 477.23257975 47.27281926 481.33822724 47.26763153 485.44392395 C47.26629415 487.41836063 47.26794584 489.39280161 47.27259064 491.36723328 C47.27765061 494.12319491 47.26995313 496.87882852 47.25878906 499.63476562 C47.26283752 500.45664871 47.26688599 501.2785318 47.27105713 502.12532043 C47.22852806 507.77147194 47.22852806 507.77147194 45 510 C41.90675798 510.19900705 38.90300226 510.27261582 35.80859375 510.25878906 C34.37919968 510.26404602 34.37919968 510.26404602 32.92092896 510.26940918 C29.75971265 510.27823753 26.59871873 510.27237342 23.4375 510.265625 C21.24796506 510.26697133 19.0584304 510.2689116 16.86889648 510.27142334 C12.27552449 510.2743761 7.68223017 510.27007205 3.08886719 510.26074219 C-2.80965863 510.24934761 -8.70800247 510.25590626 -14.60652161 510.26788712 C-19.12912374 510.2751016 -23.65168247 510.27281968 -28.17428589 510.26763153 C-30.3496808 510.26629389 -32.52507961 510.26794671 -34.70046997 510.27259064 C-37.73661798 510.27764909 -40.77246803 510.26995518 -43.80859375 510.25878906 C-44.71463348 510.26283752 -45.62067322 510.26688599 -46.5541687 510.27105713 C-52.77147253 510.22852747 -52.77147253 510.22852747 -55 508 C-55.19867212 505.17924741 -55.27268925 502.45665907 -55.25878906 499.63476562 C-55.26404602 498.33704475 -55.26404602 498.33704475 -55.26940918 497.0131073 C-55.27823507 494.14407402 -55.27237433 491.27528593 -55.265625 488.40625 C-55.2669714 486.41849724 -55.26891173 484.4307448 -55.27142334 482.44299316 C-55.27437577 478.27332428 -55.27007315 474.10374098 -55.26074219 469.93408203 C-55.2493476 464.58035724 -55.25590644 459.22683296 -55.26788712 453.87311554 C-55.27510251 449.76742025 -55.27281926 445.66177276 -55.26763153 441.55607605 C-55.26629415 439.58163937 -55.26794584 437.60719839 -55.27259064 435.63276672 C-55.27765061 432.87680509 -55.26995313 430.12117148 -55.25878906 427.36523438 C-55.26283752 426.54335129 -55.26688599 425.7214682 -55.27105713 424.87467957 C-55.22852806 419.22852806 -55.22852806 419.22852806 -53 417 C-51.12704468 416.75949097 -51.12704468 416.75949097 -48.82568359 416.77294922 C-47.53457169 416.77317581 -47.53457169 416.77317581 -46.21737671 416.77340698 C-45.28712677 416.78372955 -44.35687683 416.79405212 -43.3984375 416.8046875 C-42.44683746 416.8075174 -41.49523743 416.81034729 -40.51480103 416.81326294 C-37.46807408 416.82448011 -34.42163846 416.84958737 -31.375 416.875 C-29.31250424 416.88502782 -27.25000388 416.89415401 -25.1875 416.90234375 C-20.12488733 416.92442446 -15.0624931 416.9589647 -10 417 C-10 411.72 -10 406.44 -10 401 C-64.78 401 -119.56 401 -176 401 C-176 406.28 -176 411.56 -176 417 C-174.74340576 416.98428955 -173.48681152 416.9685791 -172.19213867 416.95239258 C-167.53497718 416.89813817 -162.87784369 416.86366624 -158.22045898 416.83520508 C-156.20380966 416.82010821 -154.18719321 416.79962885 -152.1706543 416.77368164 C-149.27384329 416.73733789 -146.37746594 416.7202828 -143.48046875 416.70703125 C-142.12564644 416.68380547 -142.12564644 416.68380547 -140.74345398 416.66011047 C-139.90280899 416.65988388 -139.062164 416.65965729 -138.19604492 416.65942383 C-137.08684944 416.64943108 -137.08684944 416.64943108 -135.95524597 416.63923645 C-134 417 -134 417 -132.26200867 418.00382996 C-130.23836563 421.20470782 -130.5838862 424.60897606 -130.61181641 428.27929688 C-130.60655945 429.12347672 -130.60130249 429.96765656 -130.59588623 430.8374176 C-130.5826688 433.63138259 -130.59143041 436.42477909 -130.6015625 439.21875 C-130.59954226 441.15783803 -130.59663125 443.09692532 -130.59286499 445.03601074 C-130.58843928 449.10139189 -130.59488067 453.1665754 -130.60888672 457.23193359 C-130.62597871 462.44773846 -130.61613886 467.66308024 -130.59816933 472.8788681 C-130.58733819 476.88339743 -130.59077475 480.88781663 -130.5985527 484.89234924 C-130.60055656 486.81572016 -130.59808894 488.73910101 -130.59111404 490.66246033 C-130.58351059 493.34881137 -130.59508805 496.03440837 -130.61181641 498.72070312 C-130.60574371 499.51871841 -130.59967102 500.3167337 -130.59341431 501.13893127 C-130.65583902 506.53922675 -130.65583902 506.53922675 -132.27236748 508.70348454 C-134.36965581 510.27741112 -135.42198415 510.37876116 -138.02307129 510.38768005 C-139.24701347 510.402537 -139.24701347 510.402537 -140.49568176 510.41769409 C-141.38720444 510.41319244 -142.27872711 510.4086908 -143.19726562 510.40405273 C-144.60983894 510.41434761 -144.60983894 510.41434761 -146.0509491 510.42485046 C-149.16953529 510.4431797 -152.28762141 510.43927254 -155.40625 510.43359375 C-157.56954106 510.4381523 -159.73283068 510.44345689 -161.89611816 510.44947815 C-166.4322701 510.45842108 -170.96824609 510.45597229 -175.50439453 510.44604492 C-181.32560949 510.43454839 -187.14621849 510.45477157 -192.96735382 510.48396206 C-197.43511836 510.50228166 -201.90273652 510.50204016 -206.37052917 510.49632454 C-208.51719514 510.49617083 -210.66387072 510.50225557 -212.8105011 510.51461601 C-215.80830247 510.52944566 -218.80496923 510.51890832 -221.80273438 510.50170898 C-222.69425705 510.51137695 -223.58577972 510.52104492 -224.50431824 510.53100586 C-230.37605054 510.46023852 -230.37605054 510.46023852 -233.05056763 508.48745728 C-234.41800627 504.90484804 -234.41741938 501.47853627 -234.38818359 497.69897461 C-234.39606903 496.44711617 -234.39606903 496.44711617 -234.40411377 495.16996765 C-234.4173078 492.41390214 -234.40857867 489.65841504 -234.3984375 486.90234375 C-234.40045822 484.98710519 -234.40336964 483.07186739 -234.40713501 481.15663147 C-234.41155739 477.14430408 -234.40512933 473.13217713 -234.39111328 469.11987305 C-234.37400993 463.97247613 -234.38387042 458.82554807 -234.40183067 453.6781683 C-234.41266096 449.72425287 -234.40922584 445.77044898 -234.4014473 441.81653023 C-234.3994438 439.91827909 -234.4019098 438.02001787 -234.40888596 436.12177849 C-234.4164893 433.4714555 -234.4049127 430.82189679 -234.38818359 428.17163086 C-234.39425629 427.38453735 -234.40032898 426.59744385 -234.40658569 425.78649902 C-234.34518841 420.546643 -234.34518841 420.546643 -232.74372864 418.01055908 C-230.57396704 416.7530972 -229.2170083 416.63738702 -226.7121582 416.65942383 C-225.85149246 416.65965042 -224.99082672 416.65987701 -224.1040802 416.66011047 C-222.71644722 416.68333626 -222.71644722 416.68333626 -221.30078125 416.70703125 C-220.35059616 416.71127609 -219.40041107 416.71552094 -218.4214325 416.71989441 C-215.38483412 416.73669516 -212.34889798 416.77435008 -209.3125 416.8125 C-207.25456687 416.82754503 -205.19662335 416.84123375 -203.13867188 416.85351562 C-198.09219252 416.88660329 -193.04620856 416.93839538 -188 417 C-188.01571045 416.25838623 -188.0314209 415.51677246 -188.04760742 414.75268555 C-188.10990714 411.39770104 -188.14897507 408.04283814 -188.1875 404.6875 C-188.21263672 403.52025391 -188.23777344 402.35300781 -188.26367188 401.15039062 C-188.27333984 400.03212891 -188.28300781 398.91386719 -188.29296875 397.76171875 C-188.3086792 396.73006592 -188.32438965 395.69841309 -188.34057617 394.63549805 C-188 392 -188 392 -186.91649151 390.35782909 C-183.9972301 388.28954022 -181.54238723 388.63161978 -177.99555969 388.63923645 C-177.27837475 388.63667318 -176.56118982 388.6341099 -175.822272 388.63146895 C-173.41294471 388.62651741 -171.00424051 388.643046 -168.5949707 388.65942383 C-166.87041234 388.66026981 -165.1458529 388.65979553 -163.42129517 388.65809631 C-158.73351159 388.65723379 -154.04595721 388.67490104 -149.35822701 388.69581819 C-144.46150126 388.71454225 -139.56477055 388.71633205 -134.66801453 388.71989441 C-125.39262179 388.72922745 -116.11733484 388.75385825 -106.84198874 388.78394288 C-96.28348925 388.81744774 -85.72498477 388.83396304 -75.16644537 388.84902918 C-53.44423623 388.88040671 -31.72212849 388.93379429 -10 389 C-10 379.76 -10 370.52 -10 361 C-14.49794189 361.01571045 -18.99588379 361.0314209 -23.63012695 361.04760742 C-38.46210526 361.09723246 -53.29408677 361.13057321 -68.12612629 361.15543652 C-77.12213174 361.17091699 -86.11805864 361.19202899 -95.11401367 361.22631836 C-102.95328437 361.25618466 -110.79249819 361.27556641 -118.6318242 361.28226548 C-122.78416017 361.28618246 -126.93633342 361.29541223 -131.08861732 361.31719017 C-134.99475963 361.33751168 -138.90067174 361.34384266 -142.80686188 361.33932304 C-144.24240303 361.3401502 -145.67795166 361.34614176 -147.11344719 361.35761642 C-149.06978194 361.37249087 -151.02623946 361.36717784 -152.98262024 361.36076355 C-154.0786321 361.36352893 -155.17464396 361.36629431 -156.30386829 361.36914349 C-159 361 -159 361 -160.85353851 360.0006485 C-162.72456421 356.73558919 -162.40014968 353.28982671 -162.36076355 349.62886047 C-162.36332682 348.76466765 -162.3658901 347.90047483 -162.36853105 347.01009434 C-162.37348745 344.1033031 -162.35694546 341.1970269 -162.34057617 338.2902832 C-162.3397303 336.21104952 -162.34020426 334.13181495 -162.34190369 332.05258179 C-162.34276662 326.39790308 -162.32509255 320.74341417 -162.30418181 315.08877969 C-162.28546471 309.18307211 -162.2836685 303.27736047 -162.28010559 297.37162781 C-162.27077051 286.18378155 -162.24613692 274.99602293 -162.21605712 263.80821532 C-162.18255863 251.07321294 -162.16603856 238.33820644 -162.15097082 225.60317099 C-162.11958865 199.40206535 -162.06679972 173.20103758 -162 147 C-163.25296875 147.04640625 -164.5059375 147.0928125 -165.796875 147.140625 C-167.44789281 147.17814813 -169.09893642 147.21454771 -170.75 147.25 C-171.575 147.28351563 -172.4 147.31703125 -173.25 147.3515625 C-179.36985784 147.45026988 -179.36985784 147.45026988 -182.54577637 145.1809082 C-184.58788536 142.11834468 -184.51760179 139.8491194 -184.53125 136.1875 C-184.5350769 135.53676514 -184.53890381 134.88603027 -184.54284668 134.21557617 C-184.54556076 132.84389696 -184.53823453 131.47216556 -184.52148438 130.10058594 C-184.50006119 128.00598315 -184.52129637 125.91480916 -184.546875 123.8203125 C-184.54423163 122.48436746 -184.53910643 121.14842455 -184.53125 119.8125 C-184.52673828 118.60207031 -184.52222656 117.39164062 -184.51757812 116.14453125 C-183.77712951 111.64595664 -181.6664481 110.19948227 -178.10327148 107.63476562 C-177.44915283 107.22935547 -176.79503418 106.82394531 -176.12109375 106.40625 C-175.00154297 105.70628906 -175.00154297 105.70628906 -173.859375 104.9921875 C-173.06015625 104.49976562 -172.2609375 104.00734375 -171.4375 103.5 C-169.7173599 102.42722445 -167.99731031 101.35430376 -166.27734375 100.28125 C-165.39933105 99.73597656 -164.52131836 99.19070312 -163.61669922 98.62890625 C-159.56474791 96.10654955 -155.53289585 93.55266795 -151.5 91 C-149.91677513 89.99982829 -148.33344146 88.99982878 -146.75 88 C-145.96625 87.505 -145.1825 87.01 -144.375 86.5 C-110.33333333 65 -76.29166667 43.5 -42.25 22 C-41.07232056 21.25617065 -41.07232056 21.25617065 -39.87084961 20.49731445 C-38.30142839 19.50614358 -36.73193079 18.51509364 -35.16235352 17.52416992 C-30.99050192 14.89011605 -26.82033664 12.25343741 -22.65234375 9.61328125 C-21.77964844 9.06091797 -20.90695313 8.50855469 -20.0078125 7.93945312 C-18.3263376 6.87511529 -16.64532878 5.81004069 -14.96484375 4.74414062 C-13.835625 4.02967773 -13.835625 4.02967773 -12.68359375 3.30078125 C-12.01900146 2.87966064 -11.35440918 2.45854004 -10.66967773 2.0246582 C-6.92869416 -0.27113184 -4.42568748 -0.41210855 0 0 Z M-8.68359375 15.203125 C-9.8128125 15.92242187 -9.8128125 15.92242187 -10.96484375 16.65625 C-11.78082031 17.1821875 -12.59679687 17.708125 -13.4375 18.25 C-15.17570587 19.35949311 -16.91398924 20.46886481 -18.65234375 21.578125 C-19.5429248 22.14853516 -20.43350586 22.71894531 -21.35107422 23.30664062 C-25.38978949 25.88844054 -29.44505576 28.44379703 -33.5 31 C-35.08342632 31.99985276 -36.66675933 32.9998533 -38.25 34 C-66.75 52 -66.75 52 -69.12426758 53.49951172 C-70.71007325 54.50109035 -72.29584791 55.50271808 -73.8815918 56.50439453 C-77.80184757 58.98064184 -81.72261107 61.45607701 -85.64453125 63.9296875 C-94.10764415 69.26883255 -102.55998748 74.62440199 -111 80 C-120.19882646 85.85890045 -129.41356384 91.69206685 -138.63818359 97.51025391 C-145.06900506 101.56657731 -151.49790147 105.62594797 -157.92480469 109.68847656 C-159.2429289 110.52153106 -160.56126387 111.35425226 -161.87988281 112.18652344 C-163.46239185 113.18557764 -165.0437518 114.1864514 -166.625 115.1875 C-167.46289062 115.71730469 -168.30078125 116.24710937 -169.1640625 116.79296875 C-170.93801029 117.87054437 -170.93801029 117.87054437 -172 119 C-172.07319621 121.69654854 -172.09242537 124.36691458 -172.0625 127.0625 C-172.05798828 127.82111328 -172.05347656 128.57972656 -172.04882812 129.36132812 C-172.0370068 131.24091871 -172.01907078 133.12046899 -172 135 C-168.7 135 -165.4 135 -162 135 C-161.855625 133.5975 -161.71125 132.195 -161.5625 130.75 C-161.39923371 129.16398461 -161.21192095 127.58025005 -161 126 C-160.92652344 125.28328125 -160.85304688 124.5665625 -160.77734375 123.828125 C-160 122 -160 122 -157.74755859 121.05371094 C-156.84086426 120.70598633 -155.93416992 120.35826172 -155 120 C-153.40277795 119.13629345 -151.82366596 118.23847418 -150.26171875 117.3125 C-148.92125488 116.52008911 -148.92125488 116.52008911 -147.55371094 115.71166992 C-146.60786133 115.14681885 -145.66201172 114.58196777 -144.6875 114 C-143.69911133 113.41259033 -142.71072266 112.82518066 -141.69238281 112.2199707 C-134.88112663 108.15830877 -128.13431623 104.00569291 -121.42578125 99.77734375 C-115.78774838 96.22825567 -110.11169925 92.74086157 -104.4375 89.25 C-103.3225415 88.56405762 -102.20758301 87.87811523 -101.05883789 87.17138672 C-92.83229706 82.11555978 -84.58653477 77.09192055 -76.33374023 72.07910156 C-70.03644182 68.25027439 -63.76161918 64.38686743 -57.5 60.5 C-49.16608994 55.32698355 -40.8079504 50.19521614 -32.41235352 45.12280273 C-27.82401758 42.34784929 -23.26364728 39.54406721 -18.7578125 36.63671875 C-17.53324341 35.85675537 -17.53324341 35.85675537 -16.28393555 35.06103516 C-14.76597518 34.09160006 -13.25631623 33.10898766 -11.75708008 32.11083984 C-11.08314209 31.68367676 -10.4092041 31.25651367 -9.71484375 30.81640625 C-9.13855225 30.43943604 -8.56226074 30.06246582 -7.96850586 29.67407227 C-4.23732015 28.3964084 -0.98216543 29.52378676 2.45922852 31.19238281 C3.25772217 31.69092773 4.05621582 32.18947266 4.87890625 32.703125 C5.78898438 33.26451172 6.6990625 33.82589844 7.63671875 34.40429688 C9.08498047 35.31791992 9.08498047 35.31791992 10.5625 36.25 C11.57828125 36.87970703 12.5940625 37.50941406 13.640625 38.15820312 C16.7656174 40.0972512 19.88280415 42.048451 23 44 C25.64728039 45.64310718 28.29695815 47.28228473 30.94702148 48.92089844 C32.65956608 49.98016385 34.3713086 51.04072701 36.08227539 52.10253906 C42.53310447 56.10445908 49.0113096 60.05981669 55.5 64 C63.72206959 68.99275807 71.91363653 74.03172903 80.0859375 79.10546875 C86.53617758 83.1053924 93.01273715 87.06045033 99.5 91 C109.50563991 97.07905686 119.4813042 103.2041111 129.41845703 109.39453125 C132.097094 111.06038303 134.78101701 112.71752526 137.46484375 114.375 C139.20601369 115.45787598 140.94690976 116.54119248 142.6875 117.625 C143.49606445 118.12209473 144.30462891 118.61918945 145.13769531 119.13134766 C145.87987305 119.59589355 146.62205078 120.06043945 147.38671875 120.5390625 C148.03858154 120.94334473 148.69044434 121.34762695 149.36206055 121.76416016 C151.7444102 123.5616641 152.87792917 125.3332169 153.4140625 128.26171875 C153.609375 130.5078125 153.8046875 132.75390625 154 135 C157.3 135 160.6 135 164 135 C165.34184716 125.46833624 165.34184716 125.46833624 162.40625 116.765625 C159.70808986 114.89908956 156.93493323 113.46918697 154 112 C151.24268231 110.37902269 148.53221052 108.683102 145.8125 107 C145.05340332 106.54069092 144.29430664 106.08138184 143.51220703 105.6081543 C137.07921941 101.71471064 130.78283589 97.63037321 124.5 93.5 C117.00137264 88.57474558 109.452947 83.7709298 101.77514648 79.13061523 C92.98459591 73.80648452 84.34574346 68.24496618 75.68554688 62.71240234 C71.56900794 60.08754742 67.44162334 57.47999925 63.3125 54.875 C62.15439819 54.14422241 62.15439819 54.14422241 60.97290039 53.39868164 C59.42422235 52.42160334 57.87547591 51.44463343 56.32666016 50.46777344 C52.38339755 47.98016643 48.44179232 45.48993586 44.5 43 C42.9166744 41.99998776 41.33334107 40.99998775 39.75 40 C30.25 34 30.25 34 27.87084961 32.49707031 C26.30172271 31.5062469 24.73222924 30.51600373 23.16235352 29.52636719 C18.98333171 26.89083049 14.81281134 24.24287175 10.65234375 21.578125 C9.77964844 21.02125 8.90695312 20.464375 8.0078125 19.890625 C6.32448197 18.8161587 4.64339844 17.73816203 2.96484375 16.65625 C2.21203125 16.17671875 1.45921875 15.6971875 0.68359375 15.203125 C0.01900146 14.77676758 -0.64559082 14.35041016 -1.33032227 13.91113281 C-4.45477997 12.20613557 -5.90410574 13.41999365 -8.68359375 15.203125 Z M-9.73828125 44.1328125 C-10.46345947 44.60170898 -11.1886377 45.07060547 -11.93579102 45.55371094 C-12.72010498 46.07223633 -13.50441895 46.59076172 -14.3125 47.125 C-16.03528617 48.23879433 -17.75929696 49.35069619 -19.484375 50.4609375 C-20.38865234 51.04456055 -21.29292969 51.62818359 -22.22460938 52.22949219 C-26.79245934 55.14346544 -31.42672307 57.94581885 -36.0625 60.75 C-44.33006749 65.76343066 -52.57999063 70.80418888 -60.8125 75.875 C-62.43454346 76.87394287 -62.43454346 76.87394287 -64.08935547 77.89306641 C-67.3931806 79.92826187 -70.69665513 81.96402513 -74 84 C-86.58688849 91.75776967 -99.1759569 99.51079471 -111.8125 107.1875 C-119.41288256 111.80592058 -126.99785158 116.4482498 -134.5625 121.125 C-135.42528564 121.65762451 -136.28807129 122.19024902 -137.17700195 122.73901367 C-137.98613037 123.24021729 -138.79525879 123.7414209 -139.62890625 124.2578125 C-140.33088135 124.6923877 -141.03285645 125.12696289 -141.75610352 125.57470703 C-142.49658936 126.04505371 -143.2370752 126.51540039 -144 127 C-145.02139887 127.50799763 -146.04279774 128.01599525 -147.09514809 128.53938675 C-150.38867995 130.80541501 -150.38867995 130.80541501 -150.73828697 134.91239548 C-150.76350817 136.53977947 -150.75536443 138.16787733 -150.7215271 139.79510498 C-150.72665365 140.69282065 -150.7317802 141.59053631 -150.7370621 142.51545548 C-150.7469628 145.53023527 -150.71391788 148.54302136 -150.68115234 151.55761719 C-150.6794603 153.71581474 -150.6804091 155.87401576 -150.68380737 158.0322113 C-150.68553214 163.89779108 -150.65020335 169.76263789 -150.60836363 175.62804699 C-150.57091029 181.7552693 -150.56733551 187.88250755 -150.56021118 194.00982666 C-150.54154653 205.61566838 -150.49228725 217.22117185 -150.43211424 228.82686448 C-150.36509975 242.03826633 -150.33207278 255.24968415 -150.30194163 268.46121359 C-150.23918988 295.6410031 -150.13241757 322.82046836 -150 350 C-144.06 350 -138.12 350 -132 350 C-131.99191315 347.34848907 -131.98382629 344.69697815 -131.97549438 341.96511841 C-131.89851959 317.03654275 -131.81058986 292.10802311 -131.71247292 267.17952156 C-131.66228963 254.36204352 -131.61584748 241.54457205 -131.578125 228.72705078 C-131.54524774 217.55905315 -131.50544038 206.39110576 -131.45720994 195.22316349 C-131.43190241 189.30644299 -131.41013381 183.38975601 -131.39665604 177.47299576 C-131.38387416 171.90971177 -131.36186205 166.34654244 -131.33261681 160.78332138 C-131.32351059 158.73622625 -131.31784376 156.68911264 -131.31578636 154.64199829 C-131.31248521 151.85748321 -131.29706667 149.07329749 -131.2784729 146.28884888 C-131.28040763 145.46979352 -131.28234237 144.65073817 -131.28433573 143.80686295 C-131.22824242 138.22824242 -131.22824242 138.22824242 -129 136 C-127.15089703 135.74930167 -127.15089703 135.74930167 -124.85514832 135.74831772 C-123.54475193 135.74049448 -123.54475193 135.74049448 -122.20788288 135.73251319 C-121.24233573 135.73697463 -120.27678858 135.74143608 -119.28198242 135.74603271 C-118.26079661 135.74291273 -117.23961081 135.73979275 -116.18747997 135.73657823 C-112.74341863 135.72855957 -109.2995316 135.73493691 -105.85546875 135.74121094 C-103.39539486 135.73850279 -100.93532178 135.73494286 -98.47525024 135.73059082 C-92.47366776 135.72239484 -86.47215445 135.72362623 -80.47057462 135.7294161 C-75.59458585 135.73392604 -70.7186111 135.7345484 -65.84262085 135.73236847 C-65.14962897 135.732062 -64.45663708 135.73175554 -63.74264544 135.73143978 C-62.33500997 135.73080036 -60.9273745 135.73015193 -59.51973903 135.7294946 C-46.30876884 135.72378642 -33.09782637 135.73035684 -19.88686073 135.74109533 C-8.54207295 135.75003129 2.8026739 135.74847939 14.14746094 135.73925781 C27.30995578 135.72856379 40.47242631 135.72433579 53.63492489 135.73048234 C55.03749021 135.73111946 56.44005553 135.7317482 57.84262085 135.73236847 C58.53277702 135.73267702 59.22293318 135.73298557 59.93400317 135.73330347 C64.80623793 135.73503302 69.67845732 135.73210973 74.5506897 135.72740936 C81.10381963 135.72122659 87.65688397 135.72560493 94.21001053 135.73719788 C96.62155656 135.7398526 99.03310907 135.73906564 101.44465256 135.73467255 C104.72385207 135.7292476 108.00279921 135.73601398 111.28198242 135.74603271 C112.24752957 135.74157127 113.21307673 135.73710983 114.20788288 135.73251319 C115.08148047 135.73772868 115.95507807 135.74294418 116.85514832 135.74831772 C117.61274539 135.74864242 118.37034246 135.74896713 119.15089703 135.74930167 C121 136 121 136 123 138 C123.20564594 140.79496264 123.28507943 143.49202609 123.2784729 146.28884888 C123.2842653 147.15627083 123.2900577 148.02369278 123.29602563 148.91740024 C123.31310999 151.84096661 123.31590935 154.76437593 123.31884766 157.68798828 C123.32814002 159.77693065 123.33830764 161.86586929 123.34928894 163.95480347 C123.37668104 169.64044617 123.39176555 175.32606399 123.40471697 181.01175547 C123.42030735 186.94820431 123.44711052 192.88460198 123.4727478 198.8210144 C123.51960829 210.06903984 123.55631714 221.31707482 123.58942068 232.56514823 C123.62759081 245.36788465 123.67701427 258.17056978 123.72740483 270.97326303 C123.83083278 297.31547143 123.91965856 323.65771195 124 350 C129.94 350 135.88 350 142 350 C142.44018043 321.65382994 142.77906748 293.30848526 142.98443127 264.95958328 C143.08232932 251.79592669 143.21574082 238.63443481 143.43334961 225.47216797 C143.62297209 213.99719022 143.74536007 202.52378007 143.7876814 191.04727912 C143.81241696 184.97176734 143.87034769 178.90073907 144.00887108 172.82666779 C144.13835033 167.10252176 144.17753445 161.38467965 144.14904594 155.6592083 C144.15425226 153.56434963 144.19178646 151.46926965 144.26490402 149.37568092 C144.86767053 138.40346571 144.86767053 138.40346571 140.13083863 128.98778248 C135.54915766 125.29680088 130.54481279 122.59599347 125.24358332 120.08459425 C122.2975507 118.66042158 119.60637851 116.98534154 116.8515625 115.22265625 C115.11026755 114.16779606 113.3680918 113.11438835 111.625 112.0625 C104.22662564 107.57863675 96.84910488 103.06417361 89.5 98.5 C82.18983725 93.96134844 74.85472456 89.46607269 67.5 85 C59.28298105 80.01030887 51.09564967 74.97569084 42.92944336 69.90332031 C35.36321465 65.20964775 27.75452462 60.58736579 20.13549805 55.97998047 C15.90995209 53.41637841 11.70562047 50.83645622 7.578125 48.1171875 C6.93093506 47.69083008 6.28374512 47.26447266 5.61694336 46.82519531 C3.95309458 45.71851413 2.29836673 44.59815253 0.64453125 43.4765625 C-3.44247245 41.19460179 -6.02072661 41.68683973 -9.73828125 44.1328125 Z M-120 147 C-120 213.99 -120 280.98 -120 350 C-43.44 350 33.12 350 112 350 C112 283.01 112 216.02 112 147 C35.44 147 -41.12 147 -120 147 Z M-222 429 C-222 451.77 -222 474.54 -222 498 C-195.93 498 -169.86 498 -143 498 C-143 475.23 -143 452.46 -143 429 C-149.93 429 -156.86 429 -164 429 C-164.04898438 430.90265625 -164.09796875 432.8053125 -164.1484375 434.765625 C-164.22346927 437.26043142 -164.29901692 439.75522237 -164.375 442.25 C-164.4059375 443.50425781 -164.436875 444.75851562 -164.46875 446.05078125 C-164.50742188 447.25605469 -164.54609375 448.46132813 -164.5859375 449.703125 C-164.6173584 450.81333008 -164.6487793 451.92353516 -164.68115234 453.06738281 C-164.98789356 455.88865042 -165.54286225 457.5970009 -167 460 C-169.78590165 460.46431694 -171.31031295 460.68373353 -174 460 C-177.00148167 457.61969454 -179.50707616 454.90085684 -182 452 C-183.12588014 452.95729916 -184.2506715 453.91587895 -185.375 454.875 C-186.00148437 455.40867187 -186.62796875 455.94234375 -187.2734375 456.4921875 C-188.55836651 457.61432007 -189.79371975 458.79371975 -191 460 C-196.33333333 460.33333333 -196.33333333 460.33333333 -199 459 C-199.33 449.1 -199.66 439.2 -200 429 C-207.26 429 -214.52 429 -222 429 Z M-188 429 C-188 432.3 -188 435.6 -188 439 C-186.7625 438.79375 -185.525 438.5875 -184.25 438.375 C-180.38574398 437.73095733 -179.86272925 438.06863537 -176 440 C-176 436.37 -176 432.74 -176 429 C-179.96 429 -183.92 429 -188 429 Z M-43 429 C-43 451.77 -43 474.54 -43 498 C-17.26 498 8.48 498 35 498 C35 475.23 35 452.46 35 429 C28.07 429 21.14 429 14 429 C13.95101562 431.07023437 13.90203125 433.14046875 13.8515625 435.2734375 C13.79594311 437.27573559 13.74025603 439.27803246 13.68261719 441.28027344 C13.64430673 442.67308572 13.60945741 444.06599765 13.578125 445.45898438 C13.53252093 447.45986308 13.47348377 449.46042146 13.4140625 451.4609375 C13.3826416 452.66540527 13.3512207 453.86987305 13.31884766 455.11083984 C13 458 13 458 11 460 C7.26279147 460.49829447 5.54312856 460.36208571 2.375 458.25 C0.21138795 456.20026227 -1.93115033 454.14547373 -4 452 C-5.12588014 452.95729916 -6.2506715 453.91587895 -7.375 454.875 C-8.00148437 455.40867187 -8.62796875 455.94234375 -9.2734375 456.4921875 C-10.55836651 457.61432007 -11.79371975 458.79371975 -13 460 C-15.64 460 -18.28 460 -21 460 C-21.495 444.655 -21.495 444.655 -22 429 C-28.93 429 -35.86 429 -43 429 Z M-10 429 C-10 432.63 -10 436.26 -10 440 C-8.68 439.34 -7.36 438.68 -6 438 C-3.02475039 438.29752496 -0.67758805 438.66120597 2 440 C2 436.37 2 432.74 2 429 C-1.96 429 -5.92 429 -10 429 Z M135 429 C135 451.77 135 474.54 135 498 C161.07 498 187.14 498 214 498 C214 475.23 214 452.46 214 429 C206.74 429 199.48 429 192 429 C191.67 438.9 191.34 448.8 191 459 C187.93772154 460.53113923 186.42801806 460.57133634 183 460 C180.05343076 457.57808967 177.51600148 454.86083417 175 452 C173.87411986 452.95729916 172.7493285 453.91587895 171.625 454.875 C170.99851562 455.40867187 170.37203125 455.94234375 169.7265625 456.4921875 C168.44163349 457.61432007 167.20628025 458.79371975 166 460 C162.5 460.3125 162.5 460.3125 159 460 C156.64290358 456.46435537 156.69990265 454.77974745 156.5859375 450.58203125 C156.54726563 449.32841797 156.50859375 448.07480469 156.46875 446.78320312 C156.4378125 445.47287109 156.406875 444.16253906 156.375 442.8125 C156.33680662 441.4771884 156.29775409 440.14190108 156.2578125 438.80664062 C156.16341115 435.53799389 156.08061168 432.26901588 156 429 C149.07 429 142.14 429 135 429 Z M168 429 C168 432.63 168 436.26 168 440 C169.32 439.34 170.64 438.68 172 438 C175.12726415 437.77117579 176.9962485 437.9987495 180 439 C180 435.7 180 432.4 180 429 C176.04 429 172.08 429 168 429 Z " fill="#F1853A" transform="translate(260,1)"/>
<path d="M0 0 C1.9190918 -0.01643555 1.9190918 -0.01643555 3.87695312 -0.03320312 C13.30043389 0.04099751 13.30043389 0.04099751 16.27124023 2.47290039 C18.87960044 5.74395607 19.05287766 7.56304225 19 11.6875 C18.99097656 12.59757813 18.98195313 13.50765625 18.97265625 14.4453125 C18.96105469 15.14398438 18.94945312 15.84265625 18.9375 16.5625 C21.80608229 17.2054581 24.03901067 17.70453124 26.9375 17.5625 C28.99477132 15.9670651 30.99624656 14.29723712 32.9375 12.5625 C36.54387753 11.5501835 38.71936037 11.00143043 42.16796875 12.58984375 C46.08239175 15.37797297 49.32670562 18.70268819 52.6875 22.125 C53.37199219 22.81013672 54.05648437 23.49527344 54.76171875 24.20117188 C60.90551777 30.39971762 60.90551777 30.39971762 60.9921875 33.55078125 C60.49194945 40.02125173 60.49194945 40.02125173 57.3125 43.125 C54.72423034 45.24441107 54.72423034 45.24441107 54.83203125 47.640625 C55.09309101 49.63164079 55.50541108 51.60148107 55.9375 53.5625 C56.60136719 53.52769531 57.26523437 53.49289063 57.94921875 53.45703125 C67.19790804 53.17349479 67.19790804 53.17349479 70.9375 56.5625 C72.6183269 60.03966437 73.1930829 62.84281105 73.203125 66.6875 C73.20570313 67.64140625 73.20828125 68.5953125 73.2109375 69.578125 C73.20320312 70.56296875 73.19546875 71.5478125 73.1875 72.5625 C73.19523438 73.54734375 73.20296875 74.5321875 73.2109375 75.546875 C73.20835937 76.50078125 73.20578125 77.4546875 73.203125 78.4375 C73.20086914 79.30117187 73.19861328 80.16484375 73.19628906 81.0546875 C72.83120105 84.59259704 71.73921976 87.445026 69.66796875 90.33203125 C67.23019994 92.06543345 65.21073335 92.07583921 62.25 92.25 C61.25613281 92.31574219 60.26226562 92.38148438 59.23828125 92.44921875 C58.09939453 92.50529297 58.09939453 92.50529297 56.9375 92.5625 C55.41860281 95.91609666 55.41860281 95.91609666 55 99.5 C55.9518682 101.86495979 55.9518682 101.86495979 58.5 104.4375 C60.9375 107.5625 60.9375 107.5625 61.5 110.5625 C60.24960009 117.23129952 54.98795565 121.79868906 50.3125 126.375 C49.72726562 126.95958984 49.14203125 127.54417969 48.5390625 128.14648438 C44.29818849 132.34358789 42.18193079 133.99291544 36.08203125 134.00390625 C33.37906495 133.447558 32.36300096 132.38070672 30.4375 130.4375 C28.81863496 128.73065704 28.81863496 128.73065704 26.9375 127.5625 C23.85929445 127.62764721 21.86125555 128.43403294 18.9375 129.5625 C18.98390625 130.22636719 19.0303125 130.89023437 19.078125 131.57421875 C19.37541625 138.84723679 19.37541625 138.84723679 17.0625 142.625 C12.2595557 147.00415509 6.31951861 145.82512465 0.125 145.875 C-1.06416016 145.90400391 -2.25332031 145.93300781 -3.47851562 145.96289062 C-4.62642578 145.97126953 -5.77433594 145.97964844 -6.95703125 145.98828125 C-8.00737549 146.00286377 -9.05771973 146.01744629 -10.13989258 146.0324707 C-13.78416875 145.44645186 -15.43023981 144.09516275 -18.0625 141.5625 C-19.32487731 139.03774538 -19.16106404 137.25049534 -19.125 134.4375 C-19.11597656 133.52742187 -19.10695312 132.61734375 -19.09765625 131.6796875 C-19.08605469 130.98101562 -19.07445312 130.28234375 -19.0625 129.5625 C-22.985275 128.03084008 -22.985275 128.03084008 -27.0625 127.5625 C-28.94363496 128.73065704 -28.94363496 128.73065704 -30.5625 130.4375 C-33.00629247 132.83696064 -34.5323445 134.09785794 -38 134.375 C-43.41758598 133.90707031 -46.41771209 130.25342447 -50.0625 126.5625 C-50.95066406 125.77875 -51.83882812 124.995 -52.75390625 124.1875 C-60.58015989 117.06260337 -60.58015989 117.06260337 -61.4375 111.8125 C-61.46056716 107.4528062 -59.8049802 104.93183281 -57.0625 101.5625 C-55.62612302 99.61086882 -55.62612302 99.61086882 -55.0625 97.5625 C-55.6803822 95.87713838 -56.34400019 94.2074864 -57.0625 92.5625 C-57.81015625 92.53671875 -58.5578125 92.5109375 -59.328125 92.484375 C-67.42468679 92.01808087 -67.42468679 92.01808087 -70.6875 89.6875 C-74.05448614 84.48397597 -73.28440832 78.66400394 -73.3125 72.6875 C-73.333125 71.59824219 -73.35375 70.50898438 -73.375 69.38671875 C-73.38015625 68.33355469 -73.3853125 67.28039062 -73.390625 66.1953125 C-73.3999707 65.23512207 -73.40931641 64.27493164 -73.41894531 63.28564453 C-72.99646699 60.05802589 -71.94824316 58.19170547 -70.0625 55.5625 C-67.23464501 53.65778776 -64.67533869 53.23422106 -61.3125 52.9375 C-60.51328125 52.86273438 -59.7140625 52.78796875 -58.890625 52.7109375 C-58.28734375 52.66195312 -57.6840625 52.61296875 -57.0625 52.5625 C-55.50305296 49.44641222 -55.50305296 49.44641222 -55.0625 45.5625 C-56.24077615 43.71052967 -56.24077615 43.71052967 -57.9375 42.0625 C-60.39003553 39.5193396 -61.02677038 38.7136638 -61.875 35.125 C-60.67886909 29.88042599 -57.79767991 27.29767991 -54.0625 23.5625 C-52.74185547 22.11810547 -52.74185547 22.11810547 -51.39453125 20.64453125 C-50.45188352 19.6367445 -49.50787672 18.63022721 -48.5625 17.625 C-47.6859375 16.68785156 -46.809375 15.75070313 -45.90625 14.78515625 C-42.4943924 12.11847085 -40.36008906 11.65151796 -36.0625 11.5625 C-32.52365842 12.72922191 -29.6928944 14.9321056 -27.0625 17.5625 C-25.0693433 17.58625926 -25.0693433 17.58625926 -22.9375 17.1875 C-21.65875 16.98125 -20.38 16.775 -19.0625 16.5625 C-19.12050781 15.82644531 -19.17851562 15.09039062 -19.23828125 14.33203125 C-19.28339844 13.35621094 -19.32851562 12.38039062 -19.375 11.375 C-19.43300781 10.41207031 -19.49101562 9.44914063 -19.55078125 8.45703125 C-19.04171041 5.43925931 -18.36789283 3.57444151 -16.04418945 1.51098633 C-11.16646404 -0.82361552 -5.27843981 -0.09868735 0 0 Z M-7.0625 12.5625 C-7.248125 14.9446875 -7.248125 14.9446875 -7.4375 17.375 C-7.72432535 21.05592531 -7.95422945 22.40009418 -10.0625 25.5625 C-13.03125 26.9140625 -13.03125 26.9140625 -16.5625 28.1875 C-20.88140351 29.71483568 -20.88140351 29.71483568 -25.0625 31.5625 C-27.8125 32 -27.8125 32 -31.0625 31.5625 C-33.39214376 29.75465427 -35.10440039 27.80032813 -37.0625 25.5625 C-40.27774305 26.97094718 -42.38433868 28.66594786 -44.8125 31.1875 C-45.73289063 32.13496094 -45.73289063 32.13496094 -46.671875 33.1015625 C-47.13078125 33.58367187 -47.5896875 34.06578125 -48.0625 34.5625 C-47.64097656 34.99820313 -47.21945313 35.43390625 -46.78515625 35.8828125 C-44.3109291 38.57244296 -42.330983 40.94074989 -40.875 44.3125 C-41.12986585 48.73017478 -42.77938677 52.00776924 -44.76171875 55.9296875 C-46.20371136 58.65727321 -46.20371136 58.65727321 -47.125 62.1875 C-49.0625 64.5625 -49.0625 64.5625 -51.9140625 65.140625 C-54.95476531 65.41122619 -58.0104858 65.49686529 -61.0625 65.5625 C-61.0625 70.1825 -61.0625 74.8025 -61.0625 79.5625 C-56.4425 80.2225 -51.8225 80.8825 -47.0625 81.5625 C-46.815 82.696875 -46.5675 83.83125 -46.3125 85 C-45.51229218 88.30012716 -44.36934571 91.14193037 -42.875 94.1875 C-41.55041172 97.08565932 -41.06261776 98.55637634 -41 101.8125 C-42.33995721 105.28062455 -44.28435719 107.14052935 -47.0625 109.5625 C-45.41158222 113.85488623 -42.32495434 116.4418915 -39.0625 119.5625 C-36.42297051 118.34425562 -34.61399343 117.17657574 -32.375 115.25 C-29.0625 113.5625 -29.0625 113.5625 -27.0625 113.83203125 C-24.67098466 114.63062655 -22.38240752 115.57492327 -20.0625 116.5625 C-18.0447823 117.30024433 -16.02390611 118.02940618 -14 118.75 C-12.370625 119.348125 -10.74125 119.94625 -9.0625 120.5625 C-8.4025 124.8525 -7.7425 129.1425 -7.0625 133.5625 C-2.4425 133.5625 2.1775 133.5625 6.9375 133.5625 C7.040625 131.809375 7.14375 130.05625 7.25 128.25 C7.55236068 123.10986842 7.55236068 123.10986842 9.15234375 120.8359375 C12.21170057 118.65355167 15.62159751 117.68888204 19.16015625 116.5078125 C21.84405436 115.65317591 21.84405436 115.65317591 23.93359375 114.6171875 C25.625 113.875 25.625 113.875 28.9375 113.5625 C31.97765521 115.55153772 34.45644036 117.92033259 36.9375 120.5625 C38.0430189 119.62659496 39.14685453 118.68870142 40.25 117.75 C40.86488281 117.22792969 41.47976563 116.70585937 42.11328125 116.16796875 C43.79174679 114.69077531 45.37632034 113.16210869 46.9375 111.5625 C45.79036634 108.98144927 44.71734537 107.32976511 42.75 105.25 C40.9375 102.5625 40.9375 102.5625 40.875 99.5 C42.18207521 93.28107375 45.10730423 87.22289154 47.9375 81.5625 C52.23821585 80.63724639 56.57528624 80.15542226 60.9375 79.5625 C60.9375 74.9425 60.9375 70.3225 60.9375 65.5625 C58.029375 65.376875 58.029375 65.376875 55.0625 65.1875 C49.1875 64.8125 49.1875 64.8125 46.9375 62.5625 C45.03075877 58.31539726 43.4689941 53.95699337 41.9375 49.5625 C41.67582031 48.84707031 41.41414063 48.13164062 41.14453125 47.39453125 C40.6875 45.6875 40.6875 45.6875 40.9375 42.5625 C42.99502161 39.87762038 45.32766035 37.70374001 47.9375 35.5625 C47.00159496 34.4569811 46.06370142 33.35314547 45.125 32.25 C44.60292969 31.63511719 44.08085937 31.02023438 43.54296875 30.38671875 C42.06577531 28.70825321 40.53710869 27.12367966 38.9375 25.5625 C36.3729212 26.6616052 34.96075524 27.53523524 33.125 29.6875 C30.9375 31.5625 30.9375 31.5625 27.6875 32.0625 C23.7823953 31.54181937 21.3339096 30.51761698 17.93359375 28.6484375 C15.99138309 27.59181409 14.04231 26.71865362 12 25.875 C8.9375 24.5625 8.9375 24.5625 7.9375 23.5625 C7.47537367 19.9054262 7.23320827 16.23773137 6.9375 12.5625 C2.3175 12.5625 -2.3025 12.5625 -7.0625 12.5625 Z " fill="#F1863A" transform="translate(256.0625,176.4375)"/>
<path d="M0 0 C8.15796103 6.12167248 13.71774715 13.80023629 15.8125 23.875 C16.98463173 37.19467875 15.38521647 47.60309276 7.05078125 58.390625 C3.71351982 62.09481046 0.23906286 64.61560854 -4.1875 66.875 C-5.1465625 67.38160156 -5.1465625 67.38160156 -6.125 67.8984375 C-15.16485225 71.74743709 -28.03742594 71.32705174 -37.25 68.3125 C-47.62521407 63.76140917 -54.66739038 56.33518988 -59.0625 45.9375 C-62.07952003 35.57785292 -61.54976251 23.15067897 -56.80078125 13.4921875 C-50.84543187 3.83096695 -43.02290189 -2.65969949 -32.0234375 -5.62109375 C-20.47148121 -7.67371408 -9.85876042 -6.38966277 0 0 Z M-42.71484375 14.8359375 C-47.74200358 21.79662035 -49.40242427 29.40772164 -48.1875 37.875 C-46.21988667 44.80586267 -42.32325899 51.3077081 -36.1171875 55.16015625 C-29.08952263 58.57604213 -22.59222482 59.75604029 -15 57.6875 C-6.17963803 54.63377344 -0.87517967 49.37252661 3.1875 41.0625 C4.89298603 32.36452124 4.27710829 24.63838415 -0.1875 16.875 C-4.5280587 10.86499564 -10.05277834 7.68274807 -17.1875 5.875 C-26.91570141 4.40744862 -36.10247917 7.48886575 -42.71484375 14.8359375 Z " fill="#F18539" transform="translate(278.1875,217.125)"/>
<path d="M0 0 C0.98467255 -0.01606293 1.96934509 -0.03212585 2.9838562 -0.04867554 C7.47686005 -0.09317759 11.96971803 -0.13417187 16.46289062 -0.15722656 C18.83343308 -0.17380378 21.20392519 -0.20111666 23.57421875 -0.23925781 C26.99261391 -0.29397117 30.40983949 -0.31589086 33.82861328 -0.33056641 C34.88708466 -0.35323578 35.94555603 -0.37590515 37.03610229 -0.39926147 C41.76880112 -0.38565029 44.34167732 -0.36000645 48.31933594 2.36425781 C50.38667372 5.56043817 50.76972823 7.1990742 50.74267578 10.97412109 C50.74009766 12.06337891 50.73751953 13.15263672 50.73486328 14.27490234 C50.69232422 15.96679688 50.69232422 15.96679688 50.64892578 17.69287109 C50.65279297 19.38476562 50.65279297 19.38476562 50.65673828 21.11083984 C50.54279203 30.73929822 50.54279203 30.73929822 47.14892578 35.19287109 C44.75830078 35.81433105 44.75830078 35.81433105 41.89892578 35.80810547 C40.29210937 35.8220636 40.29210937 35.8220636 38.65283203 35.83630371 C37.49654297 35.81990845 36.34025391 35.80351318 35.14892578 35.78662109 C33.96169922 35.78666138 32.77447266 35.78670166 31.55126953 35.78674316 C29.03949698 35.78137825 26.5277254 35.76375452 24.01611328 35.73486328 C20.16403085 35.69303511 16.31369677 35.69379047 12.46142578 35.70068359 C10.02391359 35.69019089 7.58641044 35.67725236 5.14892578 35.66162109 C3.99263672 35.66141968 2.83634766 35.66121826 1.64501953 35.66101074 C0.57380859 35.64509888 -0.49740234 35.62918701 -1.60107422 35.61279297 C-2.54466797 35.60437378 -3.48826172 35.59595459 -4.46044922 35.58728027 C-7.28255957 35.12168394 -8.18960102 34.49044511 -9.85107422 32.19287109 C-10.22338867 29.32958984 -10.22338867 29.32958984 -10.21435547 25.88037109 C-10.21371094 24.64029297 -10.21306641 23.40021484 -10.21240234 22.12255859 C-10.19628906 20.82576172 -10.18017578 19.52896484 -10.16357422 18.19287109 C-10.16679687 16.89607422 -10.17001953 15.59927734 -10.17333984 14.26318359 C-10.11805489 4.5933421 -10.11805489 4.5933421 -7.85107422 1.19287109 C-4.95070072 0.22607993 -3.02164332 0.04484651 0 0 Z M2.14892578 12.19287109 C2.14892578 15.82287109 2.14892578 19.45287109 2.14892578 23.19287109 C14.02892578 23.19287109 25.90892578 23.19287109 38.14892578 23.19287109 C38.14892578 19.56287109 38.14892578 15.93287109 38.14892578 12.19287109 C26.26892578 12.19287109 14.38892578 12.19287109 2.14892578 12.19287109 Z " fill="#F9C53B" transform="translate(267.85107421875,88.80712890625)"/>
<path d="M0 0 C0.98782471 -0.00622879 1.97564941 -0.01245758 2.9934082 -0.01887512 C4.05390381 -0.00966537 5.11439941 -0.00045563 6.20703125 0.0090332 C7.30168701 0.0085347 8.39634277 0.00803619 9.52416992 0.00752258 C11.83742082 0.00986197 14.15067431 0.01958246 16.46386719 0.03613281 C20.00609075 0.05972494 23.54756158 0.05669245 27.08984375 0.05004883 C29.33724407 0.05562568 31.58464123 0.0627356 33.83203125 0.0715332 C34.89252686 0.0706218 35.95302246 0.06971039 37.0456543 0.06877136 C38.52739136 0.08306938 38.52739136 0.08306938 40.0390625 0.09765625 C40.90635986 0.10226364 41.77365723 0.10687103 42.66723633 0.11161804 C45.23068868 0.39571627 46.84676498 0.99780806 49.01953125 2.37231445 C51.30559744 6.94444684 50.24969981 13.28998198 50.26953125 18.30981445 C50.29015625 19.61112305 50.31078125 20.91243164 50.33203125 22.25317383 C50.33976562 24.12005859 50.33976562 24.12005859 50.34765625 26.0246582 C50.35700195 27.16926514 50.36634766 28.31387207 50.37597656 29.49316406 C50.01953125 32.37231445 50.01953125 32.37231445 48.82637024 34.0289917 C46.37834697 35.84901295 44.78881918 35.74664706 41.75366211 35.74462891 C40.14200417 35.75397209 40.14200417 35.75397209 38.49778748 35.76350403 C37.33836136 35.75429428 36.17893524 35.74508453 34.984375 35.7355957 C33.19997765 35.73634346 33.19997765 35.73634346 31.37953186 35.73710632 C28.86359996 35.73476454 26.34766577 35.72502997 23.83178711 35.70849609 C19.96902655 35.68488777 16.10695505 35.6879366 12.24414062 35.69458008 C9.80338128 35.68900412 7.36262485 35.68189476 4.921875 35.6730957 C3.76042465 35.67400711 2.5989743 35.67491852 1.40232849 35.67585754 C-0.20460121 35.66155952 -0.20460121 35.66155952 -1.84399414 35.64697266 C-2.7898085 35.64236526 -3.73562286 35.63775787 -4.71009827 35.63301086 C-6.98046875 35.37231445 -6.98046875 35.37231445 -8.98046875 33.37231445 C-9.40206869 29.11557221 -9.35206351 24.8440702 -9.35107422 20.56884766 C-9.35544596 18.44587912 -9.39175313 16.32499277 -9.4296875 14.20239258 C-9.43555608 12.8540924 -9.4395252 11.50578234 -9.44140625 10.1574707 C-9.44962402 8.92907471 -9.4578418 7.70067871 -9.46630859 6.43505859 C-8.98046875 3.37231445 -8.98046875 3.37231445 -7.26138306 1.7041626 C-4.59754234 0.14871998 -3.0664134 -0.00222539 0 0 Z M3.01953125 12.37231445 C3.01953125 16.00231445 3.01953125 19.63231445 3.01953125 23.37231445 C14.56953125 23.37231445 26.11953125 23.37231445 38.01953125 23.37231445 C38.01953125 19.74231445 38.01953125 16.11231445 38.01953125 12.37231445 C26.46953125 12.37231445 14.91953125 12.37231445 3.01953125 12.37231445 Z " fill="#F6AB3A" transform="translate(203.98046875,88.627685546875)"/>
</svg>
