<?xml version="1.0" encoding="UTF-8"?>
<svg version="1.1" xmlns="http://www.w3.org/2000/svg" width="376" height="396">
<path d="M0 0 C124.08 0 248.16 0 376 0 C376 130.68 376 261.36 376 396 C251.92 396 127.84 396 0 396 C0 265.32 0 134.64 0 0 Z " fill="#FDFDFD" transform="translate(0,0)"/>
<path d="M0 0 C18.31494056 -0.14010654 36.62974222 -0.24593957 54.94510269 -0.31087303 C63.44909825 -0.34182302 71.95276101 -0.38402489 80.45654297 -0.45263672 C87.86769732 -0.51240435 95.27861069 -0.55114085 102.68999934 -0.56453097 C106.61512119 -0.57235943 110.5395536 -0.59078017 114.46445465 -0.63438034 C118.15821533 -0.67508076 121.85100213 -0.68767494 125.54496574 -0.67864609 C127.54819528 -0.68108615 129.5513185 -0.71338857 131.55427551 -0.746521 C140.10215106 -0.68736915 140.10215106 -0.68736915 142.68906403 1.29310226 C144.26310991 3.55110503 144.96590594 5.86014919 145.61328125 8.515625 C144.67423291 12.31966796 142.05407548 14.28979269 139.1875 16.75 C138.59654541 17.27585693 138.00559082 17.80171387 137.39672852 18.34350586 C132.95316376 22.26689496 128.36857327 26.01259649 123.74609375 29.72265625 C120.73680853 32.21826547 117.86062978 34.83766805 115 37.5 C110.39347267 41.78638257 105.6287245 45.79752234 100.7265625 49.74609375 C95.99542161 53.65707984 91.52007216 57.84919244 87 62 C85.50593422 63.36071114 84.00658463 64.71566292 82.5 66.0625 C81.8915625 66.61035156 81.283125 67.15820312 80.65625 67.72265625 C79 69 79 69 76 70 C76 70.66 76 71.32 76 72 C74.3125 73.6875 74.3125 73.6875 72 75 C66.77285715 74.8631638 64.03416789 71.69396871 60.5 68.25 C59.94441406 67.7240625 59.38882813 67.198125 58.81640625 66.65625 C56.30890704 64.27265075 53.86339239 61.8574896 51.46875 59.359375 C48.82806399 56.83568141 46.04298954 55.0117325 43 53 C41.07205276 51.30671301 39.17707651 49.57532609 37.3125 47.8125 C32.5846584 43.39206417 27.70194999 39.24995251 22.66015625 35.1875 C19.11998227 32.27634371 15.73336404 29.21281143 12.34375 26.12890625 C10.18493559 24.16798316 8.00731046 22.23295915 5.8125 20.3125 C5.17957031 19.75175781 4.54664063 19.19101563 3.89453125 18.61328125 C2.61599359 17.52454712 1.29848428 16.48021026 -0.05078125 15.48046875 C-1.90895659 14.0691492 -3.51810692 12.80364968 -5 11 C-5.4375 7.125 -5.4375 7.125 -5 4 C-3.35 3.34 -1.7 2.68 0 2 C0 1.34 0 0.68 0 0 Z " fill="#816FD5" transform="translate(132,126)"/>
<path d="M0 0 C0.66 0.33 1.32 0.66 2 1 C2 5.95 2 10.9 2 16 C1.67 16 1.34 16 1 16 C1 14.02 1 12.04 1 10 C0.34 10 -0.32 10 -1 10 C-1.26570801 10.59022949 -1.53141602 11.18045898 -1.80517578 11.78857422 C-3.03082951 14.05706043 -4.30368752 15.56188232 -6.1171875 17.3828125 C-7.02791016 18.29740234 -7.02791016 18.29740234 -7.95703125 19.23046875 C-8.58996094 19.85566406 -9.22289062 20.48085937 -9.875 21.125 C-10.50019531 21.75792969 -11.12539063 22.39085937 -11.76953125 23.04296875 C-12.37925781 23.65011719 -12.98898437 24.25726563 -13.6171875 24.8828125 C-14.17003418 25.43340332 -14.72288086 25.98399414 -15.29248047 26.55126953 C-17.09859832 28.08365491 -18.86298368 28.99822211 -21 30 C-22.1976841 30.91927508 -23.36503452 31.87932574 -24.5 32.875 C-25.0671875 33.36742187 -25.634375 33.85984375 -26.21875 34.3671875 C-27.47109781 35.51517299 -28.68738468 36.70313725 -29.875 37.91796875 C-33.13964193 41.1165977 -36.76013893 43.85313171 -40.34375 46.68359375 C-42.93070263 48.93956862 -44.89368318 51.30373011 -47 54 C-49.0625 55.125 -49.0625 55.125 -51 56 C-51.474375 56.495 -51.94875 56.99 -52.4375 57.5 C-55.25700163 60.20672157 -58.15613913 61 -62 61 C-55.71867638 55.18035974 -49.34904488 49.59447736 -42.68359375 44.21484375 C-39.19306571 41.33401493 -35.86725932 38.29065597 -32.5234375 35.2421875 C-29.94917642 32.95484096 -27.30710511 30.78451729 -24.625 28.625 C-19.99150282 24.87751149 -15.57214383 20.95741211 -11.22607422 16.88427734 C-8.50248506 14.33727551 -5.72245407 11.9973191 -2.75 9.75 C0.38685482 7.18451452 0.38685482 7.18451452 0.4375 3.125 C0.293125 2.09375 0.14875 1.0625 0 0 Z " fill="#DAD5F0" transform="translate(276,130)"/>
<path d="M0 0 C0 6.6 0 13.2 0 20 C-3.75635569 19.24872886 -5.83210307 18.75994274 -9 17 C-9 16.34 -9 15.68 -9 15 C-10.65 14.67 -12.3 14.34 -14 14 C-14 13.34 -14 12.68 -14 12 C-15.32 11.67 -16.64 11.34 -18 11 C-18 10.01 -18 9.02 -18 8 C-15.75583701 6.65590238 -13.50557204 5.32470104 -11.25 4 C-10.29867188 3.42765625 -10.29867188 3.42765625 -9.328125 2.84375 C-5.86028524 0.82084348 -4.10651746 0 0 0 Z " fill="#F8F6A8" transform="translate(319,228)"/>
<path d="M0 0 C0 6.27 0 12.54 0 19 C-4.74217248 18.0515655 -7.82698446 16.57288604 -11.8125 14.0625 C-12.40998047 13.70220703 -13.00746094 13.34191406 -13.62304688 12.97070312 C-15.12129015 12.04093616 -16.56628564 11.02648071 -18 10 C-18 9.34 -18 8.68 -18 8 C-15.96370903 6.51526661 -13.95716704 5.18447308 -11.8125 3.875 C-11.23435547 3.50246094 -10.65621094 3.12992187 -10.06054688 2.74609375 C-6.21617005 0.37430873 -4.72276936 0 0 0 Z " fill="#D5E19E" transform="translate(78,83)"/>
<path d="M0 0 C3.4375 0.75 3.4375 0.75 5.4375 2.75 C5.76765665 5.85347254 5.94281294 7.90781176 4.3125 10.625 C1.55659116 12.27854531 -0.41325452 12.14365568 -3.5625 11.75 C-5.4375 10.6875 -5.4375 10.6875 -6.5625 8.75 C-6.9375 5.1875 -6.9375 5.1875 -6.5625 1.75 C-3.5625 -0.25 -3.5625 -0.25 0 0 Z " fill="#BBDAA5" transform="translate(60.5625,251.25)"/>
<path d="M0 0 C0.33 0 0.66 0 1 0 C1.268125 0.928125 1.53625 1.85625 1.8125 2.8125 C2.91148371 5.76240366 3.62418561 7.05615186 6 9 C4.02 9.99 4.02 9.99 2 11 C2 37.73 2 64.46 2 92 C1.34 92 0.68 92 0 92 C0 61.64 0 31.28 0 0 Z " fill="#F4F4F4" transform="translate(126,132)"/>
<path d="M0 0 C3.5 0.25 3.5 0.25 5.5 2.25 C5.8125 5.75 5.8125 5.75 5.5 9.25 C2.25366476 11.4142235 1.25698557 11.62569856 -2.5 11.25 C-3.49 10.59 -4.48 9.93 -5.5 9.25 C-5.8125 5.75 -5.8125 5.75 -5.5 2.25 C-3.5 0.25 -3.5 0.25 0 0 Z " fill="#D37A86" transform="translate(302.5,81.75)"/>
<path d="M0 0 C3.3 0 6.6 0 10 0 C10 2.97 10 5.94 10 9 C6.7 9 3.4 9 0 9 C0 6.03 0 3.06 0 0 Z " fill="#EEEEEE" transform="translate(230,96)"/>
<path d="M0 0 C3.3 0 6.6 0 10 0 C10 2.97 10 5.94 10 9 C3.06640625 9.09765625 3.06640625 9.09765625 1 9 C0 8 0 8 -0.09765625 6.15234375 C-0.06510417 4.1015625 -0.03255208 2.05078125 0 0 Z " fill="#EDEDED" transform="translate(183,280)"/>
<path d="M0 0 C1.32 0 2.64 0 4 0 C4 6.6 4 13.2 4 20 C0.24364431 19.24872886 -1.83210307 18.75994274 -5 17 C-5 16.34 -5 15.68 -5 15 C-5.99 15 -6.98 15 -8 15 C-8.33 14.01 -8.66 13.02 -9 12 C-5.1936543 12.67170806 -1.64793184 13.72746564 2 15 C2 11.37 2 7.74 2 4 C0.68 3.67 -0.64 3.34 -2 3 C-1.34 2.01 -0.68 1.02 0 0 Z " fill="#F7F49F" transform="translate(315,228)"/>
<path d="M0 0 C3.50827915 1.52079073 5.95271646 3.5995673 8.75 6.1875 C9.6265625 6.98929688 10.503125 7.79109375 11.40625 8.6171875 C12.2621875 9.40351563 13.118125 10.18984375 14 11 C19.47063822 15.97168743 19.47063822 15.97168743 25.4375 20.3125 C28 22 28 22 29 24 C23.51072032 22.81603772 20.70554103 21.46844653 17 17 C16.67 16.01 16.34 15.02 16 14 C15.0925 13.71125 14.185 13.4225 13.25 13.125 C6.89613095 10.92558379 3.660037 5.33319678 0 0 Z " fill="#DAD5F3" transform="translate(154,161)"/>
<path d="M0 0 C0 3.3 0 6.6 0 10 C-3.82097239 9.46930939 -6.06171403 8.50298434 -9 6 C-8.75 4.125 -8.75 4.125 -8 2 C-5.06004981 -0.02755186 -3.72295997 0 0 0 Z " fill="#FEFDE2" transform="translate(316,233)"/>
<path d="M0 0 C1.32 0 2.64 0 4 0 C4.88099735 2.97818634 5.06705164 5.45292865 4.87890625 8.546875 C4.83056641 9.39121094 4.78222656 10.23554687 4.73242188 11.10546875 C4.67634766 11.97816406 4.62027344 12.85085937 4.5625 13.75 C4.51029297 14.63816406 4.45808594 15.52632812 4.40429688 16.44140625 C4.27498267 18.62799196 4.14003358 20.81407894 4 23 C2.1875 23.625 2.1875 23.625 0 24 C-0.99 23.34 -1.98 22.68 -3 22 C-3 21.34 -3 20.68 -3 20 C-1.35 20.33 0.3 20.66 2 21 C2 14.73 2 8.46 2 2 C1.01 1.67 0.02 1.34 -1 1 C-0.67 0.67 -0.34 0.34 0 0 Z " fill="#F4F8DC" transform="translate(76,81)"/>
<path d="M0 0 C0 6.6 0 13.2 0 20 C-0.33 20 -0.66 20 -1 20 C-1 13.73 -1 7.46 -1 1 C-6.88225929 3.22571973 -11.86826711 5.40778698 -17 9 C-17.66 9 -18.32 9 -19 9 C-19 9.99 -19 10.98 -19 12 C-17.68 12.66 -16.36 13.32 -15 14 C-16.65 14 -18.3 14 -20 14 C-20.33203125 11.23828125 -20.33203125 11.23828125 -20 8 C-17.69921875 5.91796875 -17.69921875 5.91796875 -14.6875 4.1875 C-13.70136719 3.60355469 -12.71523438 3.01960937 -11.69921875 2.41796875 C-7.24175517 0.07634895 -5.34374621 0 0 0 Z " fill="#FEFDD5" transform="translate(320,227)"/>
<path d="M0 0 C-0.66 0 -1.32 0 -2 0 C-3.52299523 2.93720508 -4.80100302 5.9168649 -6 9 C-5.01 9 -4.02 9 -3 9 C-3 9.99 -3 10.98 -3 12 C-2.34 12 -1.68 12 -1 12 C-1.33 12.99 -1.66 13.98 -2 15 C-8.73342736 10.3106488 -8.73342736 10.3106488 -9.75 5.3125 C-9 2 -9 2 -6.75 0 C-3.86898163 -1.04764304 -2.78690244 -1.1354047 0 0 Z " fill="#8D80CC" transform="translate(136,128)"/>
<path d="M0 0 C0 2.64 0 5.28 0 8 C-3.94120709 7.43697042 -6.7508723 6.3208055 -10 4 C-10 3.34 -10 2.68 -10 2 C-6.49223216 0.39644899 -3.85645121 -0.22036864 0 0 Z " fill="#FCFEF0" transform="translate(75,89)"/>
<path d="M0 0 C1.65 0 3.3 0 5 0 C5 6.27 5 12.54 5 19 C4.01 19 3.02 19 2 19 C1.67 18.01 1.34 17.02 1 16 C1.66 16 2.32 16 3 16 C3 11.71 3 7.42 3 3 C1.35 3.33 -0.3 3.66 -2 4 C-1.34 2.68 -0.68 1.36 0 0 Z " fill="#D2DE99" transform="translate(73,83)"/>
<path d="M0 0 C3.4375 0.1875 3.4375 0.1875 4.4375 1.1875 C4.47830783 3.18708364 4.48004356 5.18795254 4.4375 7.1875 C4.1075 5.8675 3.7775 4.5475 3.4375 3.1875 C1.7875 3.1875 0.1375 3.1875 -1.5625 3.1875 C-1.5625 4.1775 -1.5625 5.1675 -1.5625 6.1875 C-0.5725 6.8475 0.4175 7.5075 1.4375 8.1875 C-0.9375 8.8125 -0.9375 8.8125 -3.5625 9.1875 C-5.5625 7.1875 -5.5625 7.1875 -5.8125 4.6875 C-5.39271275 0.48962753 -4.08147862 0.21481466 0 0 Z " fill="#A1C983" transform="translate(59.5625,252.8125)"/>
<path d="M0 0 C0.33 0.99 0.66 1.98 1 3 C-2.3 5.97 -5.6 8.94 -9 12 C-10.32 11.34 -11.64 10.68 -13 10 C-12.67 9.34 -12.34 8.68 -12 8 C-10.125 7.4375 -10.125 7.4375 -8 7 C-7.01 6.67 -6.02 6.34 -5 6 C-5 5.34 -5 4.68 -5 4 C-3.37373596 2.61767557 -1.7074998 1.28062485 0 0 Z " fill="#E0DAF4" transform="translate(213,192)"/>
<path d="M0 0 C1.3921875 0.3403125 1.3921875 0.3403125 2.8125 0.6875 C2.8125 4.6475 2.8125 8.6075 2.8125 12.6875 C1.8225 12.3575 0.8325 12.0275 -0.1875 11.6875 C0.4725 11.6875 1.1325 11.6875 1.8125 11.6875 C1.8125 9.0475 1.8125 6.4075 1.8125 3.6875 C-0.8275 4.3475 -3.4675 5.0075 -6.1875 5.6875 C-6.1875 2.6875 -6.1875 2.6875 -5.0625 0.9375 C-3.1875 -0.3125 -3.1875 -0.3125 0 0 Z " fill="#E6F0B6" transform="translate(73.1875,85.3125)"/>
<path d="M0 0 C1.67542976 0.28604898 3.34385343 0.61781233 5 1 C4.67 2.65 4.34 4.3 4 6 C2.35 6 0.7 6 -1 6 C-1.042721 4.33388095 -1.04063832 2.66617115 -1 1 C-0.67 0.67 -0.34 0.34 0 0 Z " fill="#FCD8D5" transform="translate(301,84)"/>
<path d="M0 0 C0.33 0 0.66 0 1 0 C1.268125 0.928125 1.53625 1.85625 1.8125 2.8125 C2.91148371 5.76240366 3.62418561 7.05615186 6 9 C5.360625 9.165 4.72125 9.33 4.0625 9.5 C1.83880759 10.781786 1.83880759 10.781786 1.51171875 12.9140625 C1.2724022 14.93575155 1.13106972 16.96841939 1 19 C0.67 19 0.34 19 0 19 C0 12.73 0 6.46 0 0 Z " fill="#E7E4F5" transform="translate(126,132)"/>
<path d="M0 0 C1.32 0.33 2.64 0.66 4 1 C4.1875 4.375 4.1875 4.375 4 8 C0.77208445 10.1519437 -0.28400809 10.20086443 -4 10 C-4 9.34 -4 8.68 -4 8 C-2.35 8 -0.7 8 1 8 C1.20970559 3.85906302 1.20970559 3.85906302 0 0 Z " fill="#D3777F" transform="translate(304,83)"/>
<path d="M0 0 C0.65355469 0.58007812 0.65355469 0.58007812 1.3203125 1.171875 C4.23709685 3.72248296 7.10855887 6.15694064 10.375 8.25 C13 10 13 10 14 12 C8.51613296 10.81720515 5.66245456 9.49958703 2 5 C0.6875 2.1875 0.6875 2.1875 0 0 Z " fill="#CFC9ED" transform="translate(169,173)"/>
<path d="M0 0 C0.66 0.33 1.32 0.66 2 1 C-0.72231898 5.71170593 -2.88484204 8.04100334 -8 10 C-8.99 10 -9.98 10 -11 10 C-5.555 5.05 -5.555 5.05 0 0 Z " fill="#D1CAEE" transform="translate(246,163)"/>
<path d="M0 0 C4.18423892 3.50897269 8.19588166 7.08060535 12 11 C8.9168649 9.80100302 5.93720508 8.52299523 3 7 C3 6.34 3 5.68 3 5 C2.01 4.67 1.02 4.34 0 4 C0 2.68 0 1.36 0 0 Z " fill="#DDD7F5" transform="translate(132,141)"/>
<path d="M0 0 C0.66 0.33 1.32 0.66 2 1 C-5.29840547 8.48291572 -5.29840547 8.48291572 -9 11 C-8.17459373 6.37772487 -6.2506905 3.88463474 -2.4375 1.1875 C-1.633125 0.795625 -0.82875 0.40375 0 0 Z " fill="#E2E0F1" transform="translate(255,157)"/>
<path d="M0 0 C0.33 0 0.66 0 1 0 C1 1.98 1 3.96 1 6 C4.465 5.505 4.465 5.505 8 5 C8 5.99 8 6.98 8 8 C5.03 8 2.06 8 -1 8 C-1.125 2.25 -1.125 2.25 0 0 Z " fill="#EBEBEB" transform="translate(231,97)"/>
<path d="M0 0 C0.66 0 1.32 0 2 0 C2.226875 1.11375 2.45375 2.2275 2.6875 3.375 C3.60623658 7.16038373 3.60623658 7.16038373 6.625 8.4375 C7.40875 8.623125 8.1925 8.80875 9 9 C7.02 9.99 7.02 9.99 5 11 C2.5 9.4375 2.5 9.4375 0 7 C-0.3125 3.25 -0.3125 3.25 0 0 Z " fill="#E2F3D7" transform="translate(52,254)"/>
<path d="M0 0 C1.29608947 0.93137592 2.58671632 1.8703566 3.875 2.8125 C4.59429687 3.33457031 5.31359375 3.85664063 6.0546875 4.39453125 C8 6 8 6 10 9 C9.01 9.33 8.02 9.66 7 10 C6.34 8.68 5.68 7.36 5 6 C4.34 6 3.68 6 3 6 C3 5.34 3 4.68 3 4 C2.01 3.67 1.02 3.34 0 3 C0 2.01 0 1.02 0 0 Z " fill="#DFDBF3" transform="translate(144,152)"/>
<path d="M0 0 C3.77545388 1.09068668 6.47043472 1.9083091 9 5 C8.67 5.99 8.34 6.98 8 8 C6.66372225 6.85760183 5.33104612 5.71098945 4 4.5625 C3.2575 3.92441406 2.515 3.28632813 1.75 2.62890625 C1.1725 2.09136719 0.595 1.55382812 0 1 C0 0.67 0 0.34 0 0 Z " fill="#9487CD" transform="translate(135,143)"/>
<path d="M0 0 C1.65 0 3.3 0 5 0 C5 1.65 5 3.3 5 5 C3.35 5 1.7 5 0 5 C0 3.35 0 1.7 0 0 Z " fill="#FBFBFB" transform="translate(232,98)"/>
<path d="M0 0 C1.32 0.33 2.64 0.66 4 1 C0.04 4.465 0.04 4.465 -4 8 C-4.33 7.01 -4.66 6.02 -5 5 C-4.34 5 -3.68 5 -3 5 C-3 4.34 -3 3.68 -3 3 C-2.34 3 -1.68 3 -1 3 C-0.67 2.01 -0.34 1.02 0 0 Z " fill="#8779C9" transform="translate(264,144)"/>
<path d="M0 0 C1.98 0.495 1.98 0.495 4 1 C3.67 2.32 3.34 3.64 3 5 C1.68 4.67 0.36 4.34 -1 4 C-0.67 2.68 -0.34 1.36 0 0 Z " fill="#D5F2C0" transform="translate(58,255)"/>
<path d="M0 0 C1.32 0 2.64 0 4 0 C4 1.65 4 3.3 4 5 C2.68 5 1.36 5 0 5 C0 3.35 0 1.7 0 0 Z " fill="#FCFCFC" transform="translate(186,282)"/>
<path d="M0 0 C1.32 0 2.64 0 4 0 C6.25 2.5 6.25 2.5 8 5 C4.40142046 5 2.90548882 4.04169485 0 2 C0 1.34 0 0.68 0 0 Z " fill="#F3FAD3" transform="translate(65,91)"/>
<path d="M0 0 C0.99 0.33 1.98 0.66 3 1 C3 2.65 3 4.3 3 6 C4.65 6 6.3 6 8 6 C8 6.33 8 6.66 8 7 C2.25 8.125 2.25 8.125 0 7 C0 4.69 0 2.38 0 0 Z " fill="#E09397" transform="translate(297,84)"/>
<path d="M0 0 C0.33 1.32 0.66 2.64 1 4 C0.01 4.33 -0.98 4.66 -2 5 C-2.66 4.67 -3.32 4.34 -4 4 C-4 3.01 -4 2.02 -4 1 C-2.68 0.67 -1.36 0.34 0 0 Z " fill="#F8F494" transform="translate(305,235)"/>
<path d="M0 0 C0 0.66 0 1.32 0 2 C-0.99 2.495 -0.99 2.495 -2 3 C-1.67 4.32 -1.34 5.64 -1 7 C-2.32 6.34 -3.64 5.68 -5 5 C-4.625 3.0625 -4.625 3.0625 -4 1 C-2 0 -2 0 0 0 Z " fill="#FEFCCF" transform="translate(312,234)"/>
<path d="M0 0 C1.65 0 3.3 0 5 0 C3.35 1.98 1.7 3.96 0 6 C-1 3 -1 3 0 0 Z " fill="#897BC7" transform="translate(241,163)"/>
</svg>
