<svg width="122" height="16" viewBox="0 0 122 16" fill="none" xmlns="http://www.w3.org/2000/svg">
<path d="M9.46 3.39C9.36 3.55 9.25333 3.67 9.14 3.75C9.03333 3.83 8.89333 3.87 8.72 3.87C8.56667 3.87 8.4 3.82333 8.22 3.73C8.04667 3.63 7.84667 3.52 7.62 3.4C7.4 3.28 7.14667 3.17333 6.86 3.08C6.57333 2.98 6.24667 2.93 5.88 2.93C5.24667 2.93 4.77333 3.06667 4.46 3.34C4.15333 3.60667 4 3.97 4 4.43C4 4.72333 4.09333 4.96667 4.28 5.16C4.46667 5.35333 4.71 5.52 5.01 5.66C5.31667 5.8 5.66333 5.93 6.05 6.05C6.44333 6.16333 6.84333 6.29333 7.25 6.44C7.65667 6.58 8.05333 6.74667 8.44 6.94C8.83333 7.13333 9.18 7.38 9.48 7.68C9.78667 7.98 10.0333 8.34667 10.22 8.78C10.4067 9.20667 10.5 9.72333 10.5 10.33C10.5 11.0033 10.3833 11.6333 10.15 12.22C9.91667 12.8067 9.57667 13.32 9.13 13.76C8.69 14.1933 8.14333 14.5367 7.49 14.79C6.84333 15.0367 6.10667 15.16 5.28 15.16C4.82667 15.16 4.36333 15.1133 3.89 15.02C3.42333 14.9267 2.97 14.7967 2.53 14.63C2.09 14.4567 1.67667 14.2533 1.29 14.02C0.903333 13.7867 0.566667 13.5267 0.28 13.24L1.28 11.66C1.36 11.5467 1.46333 11.4533 1.59 11.38C1.72333 11.3 1.86667 11.26 2.02 11.26C2.22 11.26 2.42 11.3233 2.62 11.45C2.82667 11.5767 3.05667 11.7167 3.31 11.87C3.57 12.0233 3.86667 12.1633 4.2 12.29C4.53333 12.4167 4.92667 12.48 5.38 12.48C5.99333 12.48 6.47 12.3467 6.81 12.08C7.15 11.8067 7.32 11.3767 7.32 10.79C7.32 10.45 7.22667 10.1733 7.04 9.96C6.85333 9.74667 6.60667 9.57 6.3 9.43C6 9.29 5.65667 9.16667 5.27 9.06C4.88333 8.95333 4.48667 8.83667 4.08 8.71C3.67333 8.57667 3.27667 8.41667 2.89 8.23C2.50333 8.03667 2.15667 7.78667 1.85 7.48C1.55 7.16667 1.30667 6.78 1.12 6.32C0.933333 5.85333 0.84 5.28 0.84 4.6C0.84 4.05333 0.95 3.52 1.17 3C1.39 2.48 1.71333 2.01667 2.14 1.61C2.56667 1.20333 3.09 0.879999 3.71 0.639999C4.33 0.393333 5.04 0.27 5.84 0.27C6.28667 0.27 6.72 0.306666 7.14 0.38C7.56667 0.446666 7.97 0.549999 8.35 0.689999C8.73 0.823333 9.08333 0.986666 9.41 1.18C9.74333 1.36667 10.04 1.58 10.3 1.82L9.46 3.39ZM25.7342 7.92C25.7342 9.01333 25.5709 10.0067 25.2442 10.9C24.9176 11.7867 24.4576 12.5467 23.8642 13.18C23.2709 13.8067 22.5576 14.2933 21.7242 14.64C20.8976 14.98 19.9842 15.15 18.9842 15.15C17.9842 15.15 17.0709 14.98 16.2442 14.64C15.4176 14.2933 14.7076 13.8067 14.1142 13.18C13.5209 12.5467 13.0609 11.7867 12.7342 10.9C12.4076 10.0067 12.2442 9.01333 12.2442 7.92C12.2442 6.83333 12.4076 5.84667 12.7342 4.96C13.0609 4.06667 13.5209 3.30667 14.1142 2.68C14.7076 2.04667 15.4176 1.55667 16.2442 1.21C17.0709 0.863332 17.9842 0.689999 18.9842 0.689999C19.9842 0.689999 20.8976 0.863332 21.7242 1.21C22.5576 1.55 23.2709 2.03667 23.8642 2.67C24.4576 3.30333 24.9176 4.06667 25.2442 4.96C25.5709 5.84667 25.7342 6.83333 25.7342 7.92ZM24.6742 7.92C24.6742 6.93333 24.5376 6.04667 24.2642 5.26C23.9909 4.47333 23.6042 3.80667 23.1042 3.26C22.6042 2.71333 22.0042 2.29667 21.3042 2.01C20.6042 1.71667 19.8309 1.57 18.9842 1.57C18.1442 1.57 17.3742 1.71667 16.6742 2.01C15.9742 2.29667 15.3709 2.71333 14.8642 3.26C14.3642 3.80667 13.9742 4.47333 13.6942 5.26C13.4209 6.04667 13.2842 6.93333 13.2842 7.92C13.2842 8.91333 13.4209 9.80333 13.6942 10.59C13.9742 11.37 14.3642 12.0333 14.8642 12.58C15.3709 13.1267 15.9742 13.5433 16.6742 13.83C17.3742 14.1167 18.1442 14.26 18.9842 14.26C19.8309 14.26 20.6042 14.1167 21.3042 13.83C22.0042 13.5433 22.6042 13.1267 23.1042 12.58C23.6042 12.0333 23.9909 11.37 24.2642 10.59C24.5376 9.80333 24.6742 8.91333 24.6742 7.92ZM30.0145 1.7V7.65H36.4645V8.5H30.0145V15H28.9845V0.849999H37.4645V1.7H30.0145ZM49.4736 1.72H44.5036V15H43.4736V1.72H38.4736V0.849999H49.4736V1.72Z" fill="black"/>
<path d="M66.6261 3.11H62.5261V15H59.1461V3.11H55.0461V0.43H66.6261V3.11ZM73.0836 7.28C73.5436 7.28 73.9336 7.22333 74.2536 7.11C74.5803 6.99 74.8469 6.82667 75.0536 6.62C75.2603 6.41333 75.4103 6.17333 75.5036 5.9C75.5969 5.62 75.6436 5.32 75.6436 5C75.6436 4.36 75.4336 3.86 75.0136 3.5C74.6003 3.14 73.9569 2.96 73.0836 2.96H71.7236V7.28H73.0836ZM80.2636 15H77.2036C76.6369 15 76.2303 14.7867 75.9836 14.36L73.5636 10.13C73.4503 9.95 73.3236 9.82 73.1836 9.74C73.0436 9.65333 72.8436 9.61 72.5836 9.61H71.7236V15H68.3436V0.43H73.0836C74.1369 0.43 75.0336 0.54 75.7736 0.76C76.5203 0.973333 77.1269 1.27333 77.5936 1.66C78.0669 2.04667 78.4103 2.50333 78.6236 3.03C78.8369 3.55667 78.9436 4.13 78.9436 4.75C78.9436 5.22333 78.8803 5.67 78.7536 6.09C78.6269 6.51 78.4403 6.9 78.1936 7.26C77.9469 7.61333 77.6403 7.93 77.2736 8.21C76.9136 8.49 76.4969 8.72 76.0236 8.9C76.2436 9.01333 76.4503 9.15667 76.6436 9.33C76.8369 9.49667 77.0103 9.69667 77.1636 9.93L80.2636 15ZM89.1881 9.43L87.8381 5.44C87.7381 5.18667 87.6315 4.89 87.5181 4.55C87.4048 4.20333 87.2915 3.83 87.1781 3.43C87.0781 3.83667 86.9715 4.21333 86.8581 4.56C86.7448 4.90667 86.6381 5.20667 86.5381 5.46L85.1981 9.43H89.1881ZM94.5581 15H91.9381C91.6448 15 91.4081 14.9333 91.2281 14.8C91.0481 14.66 90.9115 14.4833 90.8181 14.27L89.9581 11.73H84.4181L83.5581 14.27C83.4848 14.4567 83.3515 14.6267 83.1581 14.78C82.9715 14.9267 82.7381 15 82.4581 15H79.8181L85.4581 0.43H88.9181L94.5581 15ZM99.1069 15H95.7069V0.43H99.1069V15ZM110.698 12.3V15H101.918V0.43H105.298V12.3H110.698ZM120.476 3.39C120.376 3.55 120.269 3.67 120.156 3.75C120.049 3.83 119.909 3.87 119.736 3.87C119.582 3.87 119.416 3.82333 119.236 3.73C119.062 3.63 118.862 3.52 118.636 3.4C118.416 3.28 118.162 3.17333 117.876 3.08C117.589 2.98 117.262 2.93 116.896 2.93C116.262 2.93 115.789 3.06667 115.476 3.34C115.169 3.60667 115.016 3.97 115.016 4.43C115.016 4.72333 115.109 4.96667 115.296 5.16C115.482 5.35333 115.726 5.52 116.026 5.66C116.332 5.8 116.679 5.93 117.066 6.05C117.459 6.16333 117.859 6.29333 118.266 6.44C118.672 6.58 119.069 6.74667 119.456 6.94C119.849 7.13333 120.196 7.38 120.496 7.68C120.802 7.98 121.049 8.34667 121.236 8.78C121.422 9.20667 121.516 9.72333 121.516 10.33C121.516 11.0033 121.399 11.6333 121.166 12.22C120.932 12.8067 120.592 13.32 120.146 13.76C119.706 14.1933 119.159 14.5367 118.506 14.79C117.859 15.0367 117.122 15.16 116.296 15.16C115.842 15.16 115.379 15.1133 114.906 15.02C114.439 14.9267 113.986 14.7967 113.546 14.63C113.106 14.4567 112.692 14.2533 112.306 14.02C111.919 13.7867 111.582 13.5267 111.296 13.24L112.296 11.66C112.376 11.5467 112.479 11.4533 112.606 11.38C112.739 11.3 112.882 11.26 113.036 11.26C113.236 11.26 113.436 11.3233 113.636 11.45C113.842 11.5767 114.072 11.7167 114.326 11.87C114.586 12.0233 114.882 12.1633 115.216 12.29C115.549 12.4167 115.942 12.48 116.396 12.48C117.009 12.48 117.486 12.3467 117.826 12.08C118.166 11.8067 118.336 11.3767 118.336 10.79C118.336 10.45 118.242 10.1733 118.056 9.96C117.869 9.74667 117.622 9.57 117.316 9.43C117.016 9.29 116.672 9.16667 116.286 9.06C115.899 8.95333 115.502 8.83667 115.096 8.71C114.689 8.57667 114.292 8.41667 113.906 8.23C113.519 8.03667 113.172 7.78667 112.866 7.48C112.566 7.16667 112.322 6.78 112.136 6.32C111.949 5.85333 111.856 5.28 111.856 4.6C111.856 4.05333 111.966 3.52 112.186 3C112.406 2.48 112.729 2.01667 113.156 1.61C113.582 1.20333 114.106 0.879999 114.726 0.639999C115.346 0.393333 116.056 0.27 116.856 0.27C117.302 0.27 117.736 0.306666 118.156 0.38C118.582 0.446666 118.986 0.549999 119.366 0.689999C119.746 0.823333 120.099 0.986666 120.426 1.18C120.759 1.36667 121.056 1.58 121.316 1.82L120.476 3.39Z" fill="url(#paint0_linear_2508_1850)"/>
<defs>
<linearGradient id="paint0_linear_2508_1850" x1="55.5848" y1="1.94737" x2="122.754" y2="12.551" gradientUnits="userSpaceOnUse">
<stop/>
<stop offset="0.265" stop-color="#2737A4"/>
<stop offset="1" stop-color="#D90101"/>
</linearGradient>
</defs>
</svg>
