<?xml version="1.0" encoding="UTF-8"?>
<svg version="1.1" xmlns="http://www.w3.org/2000/svg" width="512" height="512">
<path d="M0 0 C9.22038261 7.98056615 16.42921629 16.39698229 22.9921875 26.58984375 C23.63542969 26.14253906 24.27867187 25.69523437 24.94140625 25.234375 C38.39014039 16.23657712 52.75049809 11.21448924 68.9765625 14.2734375 C77.12730497 16.02629572 84.27085642 18.52534429 90.9921875 23.58984375 C91.77078125 24.17636719 92.549375 24.76289062 93.3515625 25.3671875 C103.04741204 33.32233922 110.08895098 45.1031892 111.9921875 57.58984375 C113.02700893 74.82555804 110.22772926 89.35424103 98.7421875 102.77734375 C89.70913434 112.39077429 77.50257266 119.0841791 64.171875 119.79296875 C56.52745268 119.928527 49.63177464 119.76403888 42.2890625 117.34375 C39.87630165 116.55180639 37.4881522 116.04566709 34.9921875 115.58984375 C34.46431641 116.98783203 34.46431641 116.98783203 33.92578125 118.4140625 C22.42022318 148.37125858 2.58005315 171.41199139 -27.0078125 184.58984375 C-37.86213767 188.98403369 -48.29113809 191.58984375 -60.0078125 191.58984375 C-60.0078125 199.83984375 -60.0078125 208.08984375 -60.0078125 216.58984375 C-57.03499268 216.5741333 -54.06217285 216.55842285 -50.99926758 216.54223633 C-41.18050503 216.49254199 -31.36173694 216.45939534 -21.54288197 216.43440723 C-15.58931136 216.4187469 -9.63586953 216.39750164 -3.68237305 216.36352539 C2.06235839 216.33094547 7.80696591 216.3129935 13.55178261 216.30521202 C15.7442552 216.29966609 17.93672097 216.28883635 20.12914085 216.27265358 C23.19846668 216.25089781 26.26727948 216.24787609 29.33666992 216.24926758 C30.24441666 216.23848175 31.15216339 216.22769592 32.0874176 216.21658325 C36.86645682 216.24004952 40.13421954 216.43160895 43.9921875 219.58984375 C45.47123988 222.54794851 45.11409653 225.54455925 45.08984375 228.78515625 C45.08772133 229.84632156 45.08772133 229.84632156 45.08555603 230.92892456 C45.0799535 233.19094044 45.06740068 235.45285773 45.0546875 237.71484375 C45.04967282 239.2473944 45.04510986 240.77994661 45.04101562 242.3125 C45.02998327 246.07165263 45.01271702 249.83073147 44.9921875 253.58984375 C46.1678125 253.55890625 47.3434375 253.52796875 48.5546875 253.49609375 C69.00490584 253.53203438 89.5663322 267.16755436 103.53320312 281.03857422 C107.45379095 285.20715103 110.74412958 289.89000237 113.9921875 294.58984375 C115.11753906 293.88408203 115.11753906 293.88408203 116.265625 293.1640625 C128.86664207 285.49870828 140.2006933 282.68286356 154.890625 285.05859375 C165.02227269 287.74332058 175.52441069 294.13559672 180.99804688 303.26806641 C187.90759629 315.86763644 190.10661212 327.81231938 187.30859375 342.07421875 C184.5046071 350.31165672 179.33297785 356.7368065 172.9921875 362.58984375 C172.2909375 363.24984375 171.5896875 363.90984375 170.8671875 364.58984375 C159.14211289 372.74641739 146.05959705 374.37683492 132.20703125 371.91796875 C129.4367839 371.21797776 126.71019097 370.4696599 123.9921875 369.58984375 C123.5796875 370.6778125 123.1671875 371.76578125 122.7421875 372.88671875 C112.91892825 398.15765918 95.85031781 416.4852684 70.9921875 427.58984375 C48.07765909 436.4966443 22.46301484 435.75861115 -0.15234375 426.3828125 C-10.70782962 421.67229741 -19.85222302 414.73158673 -28.0078125 406.58984375 C-28.77738281 405.831875 -29.54695313 405.07390625 -30.33984375 404.29296875 C-47.02829007 386.89377088 -54.25045135 363.32198796 -54.0078125 339.58984375 C-53.16241838 317.73615251 -44.69435157 297.69439349 -30.0078125 281.58984375 C-29.32203125 280.81125 -28.63625 280.03265625 -27.9296875 279.23046875 C-15.28850591 265.65290334 2.91941205 257.01119322 20.9921875 253.58984375 C23.3021875 253.58984375 25.6121875 253.58984375 27.9921875 253.58984375 C27.9921875 246.98984375 27.9921875 240.38984375 27.9921875 233.58984375 C-35.3678125 233.58984375 -98.7278125 233.58984375 -164.0078125 233.58984375 C-164.0078125 240.18984375 -164.0078125 246.78984375 -164.0078125 253.58984375 C-161.6978125 253.58984375 -159.3878125 253.58984375 -157.0078125 253.58984375 C-134.11836256 257.62603446 -113.31115773 270.48798129 -99.4453125 289.15234375 C-84.95759201 310.88392448 -78.94197227 336.69744371 -84.08374023 362.60302734 C-90.08900928 387.89566576 -104.92355476 407.92488142 -127.0078125 421.58984375 C-148.72094849 434.12094666 -173.87965135 436.72209398 -198.0078125 430.58984375 C-211.98147383 426.3369903 -224.16195106 419.31432372 -235.0078125 409.58984375 C-235.63042969 409.04972656 -236.25304687 408.50960938 -236.89453125 407.953125 C-248.10157235 397.58204035 -255.23450528 383.90976541 -260.0078125 369.58984375 C-260.67683594 369.80640625 -261.34585938 370.02296875 -262.03515625 370.24609375 C-274.85019945 373.96159621 -288.80804835 374.65536029 -301.0078125 368.58984375 C-311.48337168 362.58969193 -319.63719232 353.55895548 -323.3828125 341.9375 C-325.70041192 329.52385808 -325.45381744 316.21392828 -318.58203125 305.33203125 C-311.78743849 295.81608997 -302.31379451 287.90411598 -290.77734375 285.03515625 C-275.330409 282.55144601 -262.92902858 286.01381538 -250.0078125 294.58984375 C-249.37875 293.74421875 -248.7496875 292.89859375 -248.1015625 292.02734375 C-233.12730748 272.0852287 -213.94896966 258.02688939 -189.0078125 253.58984375 C-186.32486436 253.47591438 -183.6953475 253.51609142 -181.0078125 253.58984375 C-181.02875977 252.64141602 -181.04970703 251.69298828 -181.07128906 250.71582031 C-181.1395481 247.1896795 -181.18965179 243.66424276 -181.22753906 240.13769531 C-181.24762849 238.6128429 -181.27490566 237.08806727 -181.30957031 235.56347656 C-181.35821046 233.36894777 -181.38080646 231.17543906 -181.3984375 228.98046875 C-181.41938477 227.66079102 -181.44033203 226.34111328 -181.46191406 224.98144531 C-181.0078125 221.58984375 -181.0078125 221.58984375 -179.10839844 219.19042969 C-174.86142346 215.95435717 -170.93368693 216.45595704 -165.78466797 216.47631836 C-164.828526 216.47617233 -163.87238403 216.47602631 -162.88726807 216.47587585 C-159.71648923 216.47657435 -156.54576862 216.48436385 -153.375 216.4921875 C-151.18067456 216.4940519 -148.98634871 216.4954757 -146.79202271 216.49647522 C-141.00847226 216.50029865 -135.2249468 216.51012747 -129.44140625 216.5211792 C-123.54297219 216.53139705 -117.6445341 216.53597364 -111.74609375 216.54101562 C-100.1666539 216.55174987 -88.58723919 216.56934528 -77.0078125 216.58984375 C-77.3378125 208.66984375 -77.6678125 200.74984375 -78.0078125 192.58984375 C-80.8334375 192.19796875 -83.6590625 191.80609375 -86.5703125 191.40234375 C-108.19316858 188.08272897 -126.60149547 178.96366363 -143.0078125 164.58984375 C-143.82636719 163.873125 -144.64492187 163.15640625 -145.48828125 162.41796875 C-160.93580042 147.87269406 -171.48793928 128.24141917 -176.0078125 107.58984375 C-176.23082031 106.59597656 -176.45382813 105.60210937 -176.68359375 104.578125 C-182.02830261 76.18208677 -175.59614304 46.77589472 -159.79931641 22.75195312 C-142.52866147 -2.09770945 -117.58120788 -17.69316122 -88.0078125 -23.41015625 C-56.67947471 -28.26822851 -24.55678076 -20.24830171 0 0 Z " fill="#1689FB" transform="translate(324.0078125,51.41015625)"/>
<path d="M0 0 C2.02107544 0.02149041 4.03859952 0.00003039 6.05957031 -0.02539062 C18.6068688 -0.05369523 30.33664477 2.62852922 41.64550781 8.14648438 C42.34933594 8.48494385 43.05316406 8.82340332 43.77832031 9.17211914 C64.41803161 19.50833326 79.88637862 37.9170512 87.74511719 59.51269531 C95.54986541 83.34719567 93.86843374 109.09958767 83.06347656 131.66601562 C72.03754262 153.25597894 52.53410876 169.24969499 29.58300781 176.77148438 C3.24905788 184.27759837 -22.06660645 180.6814209 -45.83886719 167.47460938 C-50.96668586 164.28566741 -55.49068007 160.54618668 -59.97949219 156.52148438 C-60.60210937 155.98136719 -61.22472656 155.44125 -61.86621094 154.88476562 C-73.07325203 144.51368097 -80.20618497 130.84140603 -84.97949219 116.52148438 C-85.64851563 116.73804688 -86.31753906 116.95460938 -87.00683594 117.17773438 C-99.82187914 120.89323683 -113.77972804 121.58700092 -125.97949219 115.52148438 C-136.45505136 109.52133256 -144.608872 100.49059611 -148.35449219 88.86914062 C-150.67209161 76.45549871 -150.42549712 63.1455689 -143.55371094 52.26367188 C-136.75911818 42.7477306 -127.28547419 34.83575661 -115.74902344 31.96679688 C-100.30208868 29.48308663 -87.90070827 32.945456 -74.97949219 41.52148438 C-74.03589844 40.25304687 -74.03589844 40.25304687 -73.07324219 38.95898438 C-55.11354916 15.04098218 -30.64894076 -0.38552127 0 0 Z " fill="#1789FB" transform="translate(148.9794921875,304.478515625)"/>
<path d="M0 0 C0.99 0 1.98 0 3 0 C5.04296875 2.40625 5.04296875 2.40625 7.1875 5.5 C7.90292969 6.5209375 8.61835938 7.541875 9.35546875 8.59375 C9.89816406 9.3878125 10.44085938 10.181875 11 11 C11.75023437 10.52949219 12.50046875 10.05898438 13.2734375 9.57421875 C25.87445457 1.90886453 37.2085058 -0.90698019 51.8984375 1.46875 C62.03008519 4.15347683 72.53222319 10.54575297 78.00585938 19.67822266 C84.91540879 32.27779269 87.11442462 44.22247563 84.31640625 58.484375 C81.5124196 66.72181297 76.34079035 73.14696275 70 79 C69.29875 79.66 68.5975 80.32 67.875 81 C56.14992539 89.15657364 43.06740955 90.78699117 29.21484375 88.328125 C26.4445964 87.62813401 23.71800347 86.87981615 21 86 C20.5875 87.08796875 20.175 88.1759375 19.75 89.296875 C9.92674075 114.56781543 -7.14186969 132.89542465 -32 144 C-54.92150445 152.90951211 -80.49701397 152.15156192 -103.125 142.80859375 C-111.60541985 139.02788238 -123.12053339 133.27968781 -127.1015625 124.59765625 C-127.39804687 123.74042969 -127.69453125 122.88320313 -128 122 C-129.1121069 119.80591717 -130.23835218 117.61897037 -131.375 115.4375 C-142.23460393 94.058798 -144.21214389 70.00944041 -137.39794922 46.96386719 C-132.80739424 33.07872785 -125.12269878 21.43787438 -115 11 C-114.46117187 10.38769531 -113.92234375 9.77539062 -113.3671875 9.14453125 C-105.14740902 0.11929709 -92.44044418 -6.96426049 -81 -11 C-80.34 -10.67 -79.68 -10.34 -79 -10 C-79.721875 -9.29875 -80.44375 -8.5975 -81.1875 -7.875 C-89.45016376 0.48102719 -93.49052805 7.53597888 -93.546875 19.54492188 C-93.53140625 20.66447266 -93.5159375 21.78402344 -93.5 22.9375 C-93.51546875 24.05318359 -93.5309375 25.16886719 -93.546875 26.31835938 C-93.50457171 35.34482367 -91.94354071 43.00207102 -85.8125 49.875 C-78.96377257 55.99976047 -72.27538766 57.69543319 -63.15234375 57.38671875 C-55.94789009 56.50290101 -50.00957879 53.23728692 -45 48 C-40.16092013 39.93486689 -38.81927946 33.56645653 -38.8125 24.3125 C-38.80025391 23.45205078 -38.78800781 22.59160156 -38.77539062 21.70507812 C-38.75378848 12.14972757 -39.88803095 4.28236802 -46.7578125 -2.81640625 C-54.47685172 -10.06624897 -61.61270357 -11.44626545 -72 -12 C-52.51481387 -24.99012409 -17.52600824 -11.68400549 0 0 Z " fill="#1689FB" transform="translate(427,335)"/>
<path d="M0 0 C5.94 0 11.88 0 18 0 C18 8.25 18 16.5 18 25 C20.97281982 24.98428955 23.94563965 24.9685791 27.00854492 24.95239258 C36.82730747 24.90269824 46.64607556 24.86955159 56.46493053 24.84456348 C62.41850114 24.82890315 68.37194297 24.80765789 74.32543945 24.77368164 C80.07017089 24.74110172 85.81477841 24.72314975 91.55959511 24.71536827 C93.7520677 24.70982234 95.94453347 24.6989926 98.13695335 24.68280983 C101.20627918 24.66105406 104.27509198 24.65803234 107.34448242 24.65942383 C108.25222916 24.648638 109.15997589 24.63785217 110.0952301 24.6267395 C114.87426932 24.65020577 118.14203204 24.8417652 122 28 C123.47905238 30.95810476 123.12190903 33.9547155 123.09765625 37.1953125 C123.09553383 38.25647781 123.09553383 38.25647781 123.09336853 39.33908081 C123.087766 41.60109669 123.07521318 43.86301398 123.0625 46.125 C123.05748532 47.65755065 123.05292236 49.19010286 123.04882812 50.72265625 C123.03779577 54.48180888 123.02052952 58.24088772 123 62 C124.175625 61.9690625 125.35125 61.938125 126.5625 61.90625 C147.74914987 61.94348489 167.33842758 76.13316702 182 90 C181.67 90.99 181.34 91.98 181 93 C180.16339844 92.48050781 179.32679688 91.96101563 178.46484375 91.42578125 C169.9215671 86.25713609 161.62222236 82.71611966 152 80 C150.82695312 79.63003906 149.65390625 79.26007813 148.4453125 78.87890625 C142.32762231 77.38087731 136.00505316 77.75123917 129.75 77.8125 C128.48414063 77.81314453 127.21828125 77.81378906 125.9140625 77.81445312 C118.87296315 77.72141921 118.87296315 77.72141921 112 79 C112.61746094 79.09796875 113.23492187 79.1959375 113.87109375 79.296875 C124.58238623 81.18806211 131.96711333 84.47779615 139 93 C145.0989393 102.64025889 144.40265496 118.49664095 142.3515625 129.46875 C139.77678219 137.30312427 135.150596 143.6283697 127.75 147.4375 C120.55984304 150.64431001 112.79386436 151.47452656 105.16796875 149.12890625 C96.59748752 145.11355022 91.18889765 139.73423016 87.81591797 130.90942383 C86.33310103 125.62195241 86.4243571 120.39324409 86.5 114.9375 C86.47679687 113.25817383 86.47679687 113.25817383 86.453125 111.54492188 C86.51129109 99.14827444 90.97978086 92.17864596 99.375 83.5625 C99.91125 83.046875 100.4475 82.53125 101 82 C77.93904875 90.50403842 60.27858106 105.58465026 49.2109375 127.55078125 C39.06165078 150.02420184 37.75029635 175.81467398 46.42578125 198.9609375 C49.07971879 205.39347863 52.19918555 211.18698966 56 217 C56 217.66 56 218.32 56 219 C42.01397151 212.70165604 33.88247673 194.48838469 28.6796875 180.88134766 C20.69770588 158.78754364 22.92676576 133.15198086 32.7890625 112.046875 C36.8499467 103.83958177 41.81527093 96.78187532 48 90 C48.68578125 89.22140625 49.3715625 88.4428125 50.078125 87.640625 C62.71930659 74.06305959 80.92722455 65.42134947 99 62 C101.31 62 103.62 62 106 62 C106 55.4 106 48.8 106 42 C42.64 42 -20.72 42 -86 42 C-86 48.6 -86 55.2 -86 62 C-91.61 62 -97.22 62 -103 62 C-103.09194923 57.51492097 -103.17153929 53.03312304 -103.21972656 48.54785156 C-103.23981599 47.02299915 -103.26709316 45.49822352 -103.30175781 43.97363281 C-103.35039796 41.77910402 -103.37299396 39.58559531 -103.390625 37.390625 C-103.41157227 36.07094727 -103.43251953 34.75126953 -103.45410156 33.39160156 C-103 30 -103 30 -101.10058594 27.60058594 C-96.85361096 24.36451342 -92.92587443 24.86611329 -87.77685547 24.88647461 C-86.34264252 24.88625557 -86.34264252 24.88625557 -84.87945557 24.8860321 C-81.70867673 24.8867306 -78.53795612 24.8945201 -75.3671875 24.90234375 C-73.17286206 24.90420815 -70.97853621 24.90563195 -68.78421021 24.90663147 C-63.00065976 24.9104549 -57.2171343 24.92028372 -51.43359375 24.93133545 C-45.53515969 24.9415533 -39.6367216 24.94612989 -33.73828125 24.95117188 C-22.1588414 24.96190612 -10.57942669 24.97950153 1 25 C0.505 12.625 0.505 12.625 0 0 Z " fill="#137BE4" transform="translate(246,243)"/>
<path d="M0 0 C0.80050781 0.45246094 1.60101563 0.90492188 2.42578125 1.37109375 C9.16195409 5.01899043 16.07961247 4.92714779 23.4609375 3.25390625 C26.98365164 2.1426761 29.64574427 0.93278507 32.73828125 -1.12890625 C42.13638973 -2.30366981 50.34192971 2.36683214 57.73828125 7.87109375 C59.19234375 8.92296875 59.19234375 8.92296875 60.67578125 9.99609375 C69.63942047 17.6657693 75.04828673 29.37362118 76.73828125 40.87109375 C77.13445416 45.97544545 77.3185146 51.05570997 77.38354492 56.17407227 C77.41180589 57.76959169 77.45981034 59.36487815 77.52709961 60.95922852 C78.08113158 74.1787835 78.08113158 74.1787835 74.90795898 78.17773438 C72.57312234 79.76921018 70.36684658 80.84795735 67.73828125 81.87109375 C66.64902344 82.45117188 65.55976563 83.03125 64.4375 83.62890625 C48.92749422 90.66976491 34.96921399 94.24533473 17.96411133 94.24169922 C15.70380347 94.24603994 13.44550702 94.28237138 11.18554688 94.3203125 C-2.36854575 94.42602009 -15.29778518 92.18286523 -27.69921875 86.49609375 C-28.34898682 86.20009277 -28.99875488 85.9040918 -29.66821289 85.59912109 C-42.50298063 79.62983187 -42.50298063 79.62983187 -46.26171875 75.87109375 C-46.38778159 73.41764346 -46.45040887 70.99400077 -46.46484375 68.5390625 C-46.47054382 67.79207596 -46.4762439 67.04508942 -46.4821167 66.27546692 C-46.49159099 64.68406598 -46.49811026 63.0926452 -46.50195312 61.5012207 C-46.51152697 59.10656203 -46.54246801 56.71281139 -46.57421875 54.31835938 C-46.6881624 38.08986157 -43.65750908 23.96646887 -32.234375 11.71484375 C-24.50339541 4.48905689 -10.9832605 -5.48214557 0 0 Z " fill="#FDC73A" transform="translate(239.26171875,149.12890625)"/>
<path d="M0 0 C1.16789062 0.87978516 1.16789062 0.87978516 2.359375 1.77734375 C12.05522454 9.73249547 19.09676348 21.51334545 21 34 C22.03482143 51.23571429 19.23554176 65.76439728 7.75 79.1875 C-1.28305316 88.80093054 -13.48961484 95.49433535 -26.8203125 96.203125 C-44.1247881 96.51403189 -57.1308762 91.8212455 -70 80 C-74.67850267 74.61729364 -78.10408163 68.49387757 -81 62 C-81.391875 61.154375 -81.78375 60.30875 -82.1875 59.4375 C-86.48824996 46.53525012 -84.43039803 31.22333228 -79 19 C-71.95160351 6.10248642 -62.07081664 -2.9144075 -48.125 -7.875 C-31.93378042 -12.5794007 -13.62884252 -10.26928518 0 0 Z " fill="#FEFDFD" transform="translate(415,75)"/>
<path d="M0 0 C2.04749877 0.00849585 4.09217962 -0.02034763 6.1394043 -0.05200195 C18.74788995 -0.12044208 30.47091111 2.50817465 41.87182617 8.07104492 C42.5756543 8.40950439 43.27948242 8.74796387 44.00463867 9.09667969 C64.64434997 19.4328938 80.11269698 37.84161175 87.97143555 59.43725586 C95.77618377 83.27175621 94.0947521 109.02414822 83.28979492 131.59057617 C77.77817799 142.3829143 70.10961093 151.26211176 61.24682617 159.44604492 C60.91682617 158.45604492 60.58682617 157.46604492 60.24682617 156.44604492 C61.68823242 153.94213867 61.68823242 153.94213867 63.80932617 150.88354492 C76.301519 131.77977797 78.60047721 107.63515756 74.68774414 85.54614258 C70.86905556 67.35768237 61.30144 52.3634481 48.24682617 39.44604492 C47.61518555 38.79249023 46.98354492 38.13893555 46.33276367 37.46557617 C38.71369156 30.13179971 24.1121477 20.44604492 13.24682617 20.44604492 C13.8269043 20.77475586 14.40698242 21.1034668 15.00463867 21.44213867 C22.68976293 26.12169453 27.28974483 31.93023032 30.24682617 40.44604492 C30.68509283 44.68728765 30.6170804 48.93433916 30.62182617 53.19604492 C30.64631836 54.3381543 30.67081055 55.48026367 30.69604492 56.65698242 C30.73111975 66.82868136 28.31411805 74.20736429 21.27416992 81.64916992 C14.45870397 87.68985265 7.66617044 89.30027966 -1.35473633 88.91870117 C-9.96020635 87.72184844 -15.36647472 83.44338088 -21.06176758 77.11791992 C-25.50456478 70.09973681 -26.21398171 63.0970459 -26.06567383 54.94604492 C-26.06889648 54.06045898 -26.07211914 53.17487305 -26.07543945 52.26245117 C-25.9966055 42.50137404 -24.78603944 34.62781189 -17.77270508 27.40698242 C-10.59350434 20.61083715 -4.4618836 18.31289401 5.24682617 17.44604492 C-14.47981742 11.56769447 -37.52167054 17.05938144 -55.13208008 26.34838867 C-58.88936235 28.43327802 -62.30133951 30.89159868 -65.75317383 33.44604492 C-66.41317383 33.11604492 -67.07317383 32.78604492 -67.75317383 32.44604492 C-50.66959872 11.79194768 -26.98374549 -0.16983001 0 0 Z " fill="#147BE4" transform="translate(148.753173828125,304.553955078125)"/>
<path d="M0 0 C4.92932043 3.07126173 10.26914675 2.63770288 15.875 2 C20.77022931 0.77289748 20.77022931 0.77289748 24.875 -2 C33.69056831 -2.2493292 40.42113824 1.0645002 47.625 5.8125 C55.54044466 13.5080712 61.42244176 23.56101318 62.10205078 34.73217773 C62.09157715 36.03614502 62.08110352 37.3401123 62.0703125 38.68359375 C62.0674826 39.38396255 62.06465271 40.08433136 62.06173706 40.80592346 C62.05064885 43.0166317 62.02556703 45.22691671 62 47.4375 C61.98995546 48.94725972 61.9808322 50.45702588 61.97265625 51.96679688 C61.95074714 55.64466597 61.91629758 59.3222916 61.875 63 C37.80508403 76.49068344 13.03474506 82.05991075 -14.125 75 C-19.61019523 73.37730162 -24.93288341 71.40012353 -30.125 69 C-31.00373779 68.67926514 -31.88247559 68.35853027 -32.7878418 68.02807617 C-35.87846666 66.65376424 -37.83897162 65.50909584 -40.125 63 C-41.33439825 58.35279708 -41.35588578 53.91774975 -41.15405273 49.16235352 C-41.06364191 46.96524989 -41.05149759 44.77883422 -41.05273438 42.58007812 C-40.89505105 29.98676866 -37.82352507 18.96459243 -29.43359375 9.2265625 C-22.26504046 2.31272938 -9.76884277 -6.25205937 0 0 Z " fill="#FDC73A" transform="translate(350.125,407)"/>
<path d="M0 0 C5.32344947 1.72400552 12.85284554 2.47155749 17.98828125 0.0703125 C18.79845703 -0.49042969 18.79845703 -0.49042969 19.625 -1.0625 C24.37425632 -3.78892493 27.79520488 -3.34192184 33 -2 C43.21187096 1.9253289 50.80305965 8.32989411 56 18 C59.77150891 26.59993542 60.80172337 34.97174445 60.85107422 44.24755859 C60.87525095 46.39731381 60.97419201 48.53619037 61.07421875 50.68359375 C61.30942397 60.57707048 61.30942397 60.57707048 57.9777832 64.19750977 C55.37374315 65.80463835 52.86623668 66.93815856 50 68 C49.32420898 68.31291992 48.64841797 68.62583984 47.95214844 68.94824219 C25.96099783 79.093493 -0.04315652 80.02939058 -22.75 71.75 C-27.27582174 69.84501309 -31.57938761 67.67670189 -35.890625 65.328125 C-37.04079102 64.70325195 -38.19095703 64.07837891 -39.37597656 63.43457031 C-40.2419043 62.96116211 -41.10783203 62.48775391 -42 62 C-42.10022677 57.66249365 -42.1720945 53.32563263 -42.21972656 48.98730469 C-42.23961976 47.51713291 -42.26674472 46.04703785 -42.30175781 44.57714844 C-42.60674916 31.426639 -41.08735217 20.11652218 -32 10 C-31.21302734 9.07574219 -31.21302734 9.07574219 -30.41015625 8.1328125 C-22.76759617 -0.24702985 -10.38871846 -6.8346832 0 0 Z " fill="#FCC73A" transform="translate(142,408)"/>
<path d="M0 0 C8.31500618 6.22957055 15.62582146 16.63763253 17.75 26.9375 C19.14442687 40.75129598 18.03507582 52.25810958 9.69921875 63.76953125 C2.11442697 72.75542134 -7.16831767 80.00712173 -19.15478516 81.11328125 C-32.70602311 82.00251177 -43.75486147 79.79978327 -54.70703125 71.265625 C-63.27898818 63.41787334 -68.89492174 53.84431239 -69.625 42.18359375 C-70.1756791 26.87269653 -67.09555202 16.84326175 -56.9375 5.3125 C-40.59038571 -9.13378705 -18.72930559 -11.84101995 0 0 Z " fill="#FEFDFD" transform="translate(69.25,343.0625)"/>
<path d="M0 0 C8.16043403 6.33060795 12.76920219 15.30760658 16 25 C17.22109927 38.81105386 16.52588488 51.18641057 7.5078125 62.2890625 C5.43094751 64.64571241 3.3089003 66.86870741 1 69 C-0.051875 69.99 -0.051875 69.99 -1.125 71 C-12.73419179 79.07595951 -25.69695108 80.84024878 -39.43359375 78.38671875 C-46.90361505 76.18165395 -52.37280221 72.30424557 -58 67 C-58.97259766 66.10667969 -58.97259766 66.10667969 -59.96484375 65.1953125 C-68.30699848 56.68887026 -71.56431573 46.45629359 -71.625 34.8125 C-71.37534775 22.4396884 -68.0186876 14.3900546 -60 5 C-59.401875 4.113125 -58.80375 3.22625 -58.1875 2.3125 C-42.80937425 -13.9443758 -16.9929429 -12.19362241 0 0 Z " fill="#FEFCFC" transform="translate(496,345)"/>
<path d="M0 0 C4.54921605 3.94305402 9.05067632 7.97648342 12.9609375 12.56640625 C12.9609375 13.22640625 12.9609375 13.88640625 12.9609375 14.56640625 C8.82062128 13.06013449 5.2347185 11.0173093 1.4609375 8.75390625 C-21.35174213 -4.57183483 -51.36435854 -9.0670724 -77.2265625 -2.93359375 C-97.17310728 2.39142354 -114.54524034 13.07258409 -129.0390625 27.56640625 C-129.76738281 28.29472656 -130.49570313 29.02304688 -131.24609375 29.7734375 C-145.19172207 44.59926327 -152.87013107 62.90967043 -157.0390625 82.56640625 C-157.2141333 83.32824219 -157.3892041 84.09007812 -157.56958008 84.875 C-160.26849301 100.34708327 -159.23200561 118.82185303 -154.0390625 133.56640625 C-153.67683594 134.74460938 -153.31460938 135.9228125 -152.94140625 137.13671875 C-150.42613735 144.89568382 -146.97456995 151.64358883 -142.80859375 158.60546875 C-141.43966427 160.89608364 -140.18374725 163.15963318 -139.0390625 165.56640625 C-147.66479291 164.21562073 -154.04953192 153.45856118 -158.93603516 146.78295898 C-167.15253826 135.02755048 -172.97581619 121.5625648 -176.0390625 107.56640625 C-176.37357422 106.07560547 -176.37357422 106.07560547 -176.71484375 104.5546875 C-182.05955261 76.15864927 -175.62739304 46.75245722 -159.83056641 22.72851562 C-142.55991147 -2.12114695 -117.61245788 -17.71659872 -88.0390625 -23.43359375 C-56.42055092 -28.33666314 -24.91268368 -20.04937641 0 0 Z " fill="#147BE4" transform="translate(324.0390625,51.43359375)"/>
<path d="M0 0 C5.94 0 11.88 0 18 0 C18 8.25 18 16.5 18 25 C20.97281982 24.98428955 23.94563965 24.9685791 27.00854492 24.95239258 C36.82730747 24.90269824 46.64607556 24.86955159 56.46493053 24.84456348 C62.41850114 24.82890315 68.37194297 24.80765789 74.32543945 24.77368164 C80.07017089 24.74110172 85.81477841 24.72314975 91.55959511 24.71536827 C93.7520677 24.70982234 95.94453347 24.6989926 98.13695335 24.68280983 C101.20627918 24.66105406 104.27509198 24.65803234 107.34448242 24.65942383 C108.25222916 24.648638 109.15997589 24.63785217 110.0952301 24.6267395 C114.87426932 24.65020577 118.14203204 24.8417652 122 28 C123.47905238 30.95810476 123.12190903 33.9547155 123.09765625 37.1953125 C123.09553383 38.25647781 123.09553383 38.25647781 123.09336853 39.33908081 C123.087766 41.60109669 123.07521318 43.86301398 123.0625 46.125 C123.05748532 47.65755065 123.05292236 49.19010286 123.04882812 50.72265625 C123.03864616 54.48183947 123.01907143 58.24080924 123 62 C117.39 62 111.78 62 106 62 C106 55.4 106 48.8 106 42 C42.64 42 -20.72 42 -86 42 C-86 48.6 -86 55.2 -86 62 C-91.61 62 -97.22 62 -103 62 C-103.09194923 57.51492097 -103.17153929 53.03312304 -103.21972656 48.54785156 C-103.23981599 47.02299915 -103.26709316 45.49822352 -103.30175781 43.97363281 C-103.35039796 41.77910402 -103.37299396 39.58559531 -103.390625 37.390625 C-103.41157227 36.07094727 -103.43251953 34.75126953 -103.45410156 33.39160156 C-103 30 -103 30 -101.10058594 27.60058594 C-96.85361096 24.36451342 -92.92587443 24.86611329 -87.77685547 24.88647461 C-86.34264252 24.88625557 -86.34264252 24.88625557 -84.87945557 24.8860321 C-81.70867673 24.8867306 -78.53795612 24.8945201 -75.3671875 24.90234375 C-73.17286206 24.90420815 -70.97853621 24.90563195 -68.78421021 24.90663147 C-63.00065976 24.9104549 -57.2171343 24.92028372 -51.43359375 24.93133545 C-45.53515969 24.9415533 -39.6367216 24.94612989 -33.73828125 24.95117188 C-22.1588414 24.96190612 -10.57942669 24.97950153 1 25 C0.505 12.625 0.505 12.625 0 0 Z " fill="#000000" transform="translate(246,243)"/>
<path d="M0 0 C8.4260971 5.29415743 14.63966133 12.13735557 17 22 C17.37441675 26.3140565 17.43235702 30.59750738 17.39111328 34.92651367 C17.37506434 36.9294705 17.39254365 38.93260318 17.41015625 40.93554688 C17.37529137 52.55136306 15.61422809 60.77882834 7.6875 69.5625 C-0.52035224 77.0068311 -8.82025598 80.76657843 -20.1328125 80.4140625 C-28.35407756 79.22679534 -36.57784199 75.39287684 -42 69 C-49.05626702 58.96405643 -50.34268913 50.79334224 -50.3125 38.6875 C-50.32861328 37.40681641 -50.34472656 36.12613281 -50.36132812 34.80664062 C-50.36718141 23.43371613 -48.36541548 14.85185987 -41 6 C-29.50083708 -5.12822218 -14.20178674 -7.23929159 0 0 Z " fill="#FCC6AB" transform="translate(271,54)"/>
<path d="M0 0 C5.92009553 3.62065929 10.34850672 9.09853542 12.50634766 15.72705078 C13.61158814 20.81596717 13.59059402 25.99980271 13.625 31.1875 C13.63587646 32.30415039 13.64675293 33.42080078 13.65795898 34.57128906 C13.48754596 44.49508109 10.89179492 51.94683412 4.02734375 59.203125 C-2.7881222 65.24380773 -9.58065573 66.85423474 -18.6015625 66.47265625 C-27.20703252 65.27580352 -32.61330089 60.99733596 -38.30859375 54.671875 C-42.75139096 47.65369188 -43.46080788 40.65100098 -43.3125 32.5 C-43.31572266 31.61441406 -43.31894531 30.72882813 -43.32226562 29.81640625 C-43.24349048 20.06261077 -42.0721964 12.04370092 -34.9140625 4.92578125 C-25.2013182 -4.06092735 -12.07866631 -6.4707141 0 0 Z " fill="#FDC6AB" transform="translate(166,327)"/>
<path d="M0 0 C6.61292924 3.572502 12.42841883 9.39033443 15 16.5 C17.36187571 29.77711562 18.23493789 45.23440875 10.45703125 56.79296875 C5.92471817 62.48688152 0.79858388 65.23380537 -6 67.5 C-16.01906864 68.48363928 -23.0084179 67.03977567 -31.03125 60.9609375 C-36.58197975 55.99820878 -39.47436216 49.7658565 -40.38232422 42.3972168 C-40.53512054 39.06801039 -40.54620014 35.7696852 -40.5 32.4375 C-40.51546875 31.31794922 -40.5309375 30.19839844 -40.546875 29.04492188 C-40.50254097 19.59623128 -38.31155357 12.04529378 -31.73046875 5.07421875 C-23.13070853 -2.74903942 -10.87943219 -4.21200239 0 0 Z " fill="#FCC6AB" transform="translate(373,325.5)"/>
<path d="M0 0 C1.16789062 0.87978516 1.16789062 0.87978516 2.359375 1.77734375 C12.05522454 9.73249547 19.09676348 21.51334545 21 34 C22.03482143 51.23571429 19.23554176 65.76439728 7.75 79.1875 C-1.28305316 88.80093054 -13.48961484 95.49433535 -26.8203125 96.203125 C-44.1247881 96.51403189 -57.1308762 91.8212455 -70 80 C-74.67850267 74.61729364 -78.10408163 68.49387757 -81 62 C-81.391875 61.154375 -81.78375 60.30875 -82.1875 59.4375 C-86.48824996 46.53525012 -84.43039803 31.22333228 -79 19 C-71.95160351 6.10248642 -62.07081664 -2.9144075 -48.125 -7.875 C-31.93378042 -12.5794007 -13.62884252 -10.26928518 0 0 Z M-65.1796875 14.73828125 C-73.03026309 24.49253718 -76.15957955 35.59433946 -75 48 C-73.05929442 60.29657149 -67.64604482 70.07077417 -58 78 C-47.52168985 85.27607793 -35.57172973 87.63509614 -23 86 C-10.42243515 82.83872162 -0.2989072 75.67731099 6.4765625 64.58203125 C11.55590953 55.00256098 13.75780765 44.71038357 11.3125 33.984375 C7.72875443 22.3372019 2.0444665 13.12243988 -8 6 C-27.76209744 -4.31172955 -49.6944603 -1.71869098 -65.1796875 14.73828125 Z " fill="#ED5452" transform="translate(415,75)"/>
<path d="M0 0 C8.16043403 6.33060795 12.76920219 15.30760658 16 25 C17.22109927 38.81105386 16.52588488 51.18641057 7.5078125 62.2890625 C5.43094751 64.64571241 3.3089003 66.86870741 1 69 C-0.051875 69.99 -0.051875 69.99 -1.125 71 C-12.73419179 79.07595951 -25.69695108 80.84024878 -39.43359375 78.38671875 C-46.90361505 76.18165395 -52.37280221 72.30424557 -58 67 C-58.97259766 66.10667969 -58.97259766 66.10667969 -59.96484375 65.1953125 C-68.30699848 56.68887026 -71.56431573 46.45629359 -71.625 34.8125 C-71.37534775 22.4396884 -68.0186876 14.3900546 -60 5 C-59.401875 4.113125 -58.80375 3.22625 -58.1875 2.3125 C-42.80937425 -13.9443758 -16.9929429 -12.19362241 0 0 Z M-56.25 12.375 C-62.64187788 20.28211869 -64.96347872 28.81210462 -64 39 C-62.13938383 49.64335519 -57.47461535 57.61145064 -49.15234375 64.49609375 C-40.11728014 70.80915998 -30.8019046 71.8192127 -20 71 C-10.84686061 68.89844932 -3.02231776 63.24239674 2.375 55.625 C7.76437604 46.71755904 9.07466287 38.40415371 8 28 C5.62078661 18.91018476 0.38558011 10.8242902 -7 5 C-12.31609894 1.99424057 -17.8439329 -0.60705955 -24 -1 C-24.72445312 -1.061875 -25.44890625 -1.12375 -26.1953125 -1.1875 C-38.31871593 -1.79557039 -48.22410041 3.58854134 -56.25 12.375 Z " fill="#ED5553" transform="translate(496,345)"/>
<path d="M0 0 C8.31500618 6.22957055 15.62582146 16.63763253 17.75 26.9375 C19.14442687 40.75129598 18.03507582 52.25810958 9.69921875 63.76953125 C2.11442697 72.75542134 -7.16831767 80.00712173 -19.15478516 81.11328125 C-32.70602311 82.00251177 -43.75486147 79.79978327 -54.70703125 71.265625 C-63.27898818 63.41787334 -68.89492174 53.84431239 -69.625 42.18359375 C-70.1756791 26.87269653 -67.09555202 16.84326175 -56.9375 5.3125 C-40.59038571 -9.13378705 -18.72930559 -11.84101995 0 0 Z M-53.25 12.9375 C-60.56421082 22.79115616 -62.66507867 32.82218134 -61.25 44.9375 C-59.18180843 53.29684175 -54.90369807 60.43623983 -48.25 65.9375 C-38.14203881 72.01766955 -29.27553439 74.44388339 -17.48828125 72.4765625 C-7.94421214 69.92947969 0.30015254 64.21369515 5.75 55.9375 C10.72094998 46.22212434 12.3163305 37.48952316 9.6875 26.875 C6.87431914 18.56753163 1.20038024 10.68135488 -6.25 5.9375 C-22.52626694 -2.00899767 -40.28847623 -0.75061914 -53.25 12.9375 Z " fill="#ED5452" transform="translate(69.25,343.0625)"/>
<path d="M0 0 C10.81362173 3.60454058 16.92964481 11.45526063 22.25390625 21.32421875 C26.97086838 31.2977217 27.50738057 41.45056912 27.64526367 52.30297852 C27.67352464 53.89849794 27.72152909 55.4937844 27.78881836 57.08813477 C28.34255555 70.30065621 28.34255555 70.30065621 25.18286133 74.30004883 C22.84465789 75.89570633 20.63245937 76.97214342 18 78 C16.26169922 78.92232422 16.26169922 78.92232422 14.48828125 79.86328125 C13.44027344 80.34152344 12.39226562 80.81976563 11.3125 81.3125 C9.72888672 82.04919922 9.72888672 82.04919922 8.11328125 82.80078125 C5 84 5 84 -1 85 C-0.67 56.95 -0.34 28.9 0 0 Z " fill="#FBA231" transform="translate(289,153)"/>
<path d="M0 0 C0 27.72 0 55.44 0 84 C-9.00414636 82.87448171 -9.00414636 82.87448171 -12.4296875 81.00390625 C-13.161875 80.61009766 -13.8940625 80.21628906 -14.6484375 79.81054688 C-15.38320312 79.39869141 -16.11796875 78.98683594 -16.875 78.5625 C-17.63296875 78.15451172 -18.3909375 77.74652344 -19.171875 77.32617188 C-24.67519264 74.32480736 -24.67519264 74.32480736 -27 72 C-27.21246803 69.48626709 -27.30397603 67.08578725 -27.30078125 64.5703125 C-27.30506638 63.82474091 -27.3093515 63.07916931 -27.31376648 62.31100464 C-27.31951939 60.7255759 -27.32000298 59.14012076 -27.31567383 57.5546875 C-27.3125572 55.16878702 -27.33580553 52.7841805 -27.36132812 50.3984375 C-27.43052643 34.12895835 -24.30923091 20.1038828 -12.9375 7.79296875 C-4.51633987 0 -4.51633987 0 0 0 Z " fill="#FBA231" transform="translate(220,153)"/>
<path d="M0 0 C7.55842324 5.54700813 11.71468267 11.51716376 14.48828125 20.421875 C14.48828125 21.741875 14.48828125 23.061875 14.48828125 24.421875 C13.41578125 24.091875 12.34328125 23.761875 11.23828125 23.421875 C-0.21963613 20.73767757 -7.6377657 22.82513644 -17.65234375 28.37890625 C-24.73429024 32.26004453 -31.36667156 34.7116043 -39.51171875 33.421875 C-50.01171875 29.921875 -50.01171875 29.921875 -52.51171875 27.421875 C-52.93256762 18.52915542 -49.50584789 10.86894662 -43.6171875 4.3125 C-31.10569715 -7.23656801 -14.64791828 -9.20335768 0 0 Z " fill="#925333" transform="translate(273.51171875,55.578125)"/>
<path d="M0 0 C3.62043986 2.01135548 4.76208225 3.34885667 6.1875 7.25 C5.71414552 16.71708966 -5.37392136 24.6788113 -11.76855469 31.02929688 C-13.63454908 32.88449382 -15.48951811 34.75024199 -17.34375 36.6171875 C-18.53321277 37.80532996 -19.7232951 38.99285256 -20.9140625 40.1796875 C-21.46518707 40.73486053 -22.01631165 41.29003357 -22.58413696 41.86203003 C-26.31158693 45.54436692 -28.73095442 47.70605289 -33.93994141 48.38085938 C-39.84456456 47.64596133 -43.36390026 42.57404139 -47.375 38.5 C-48.30183594 37.613125 -49.22867187 36.72625 -50.18359375 35.8125 C-57.59518597 28.38999232 -57.59518597 28.38999232 -57.69140625 23.5 C-57 20 -57 20 -55.5625 17.5 C-52.39898143 15.64818425 -50.1849239 15.08576767 -46.52734375 15.1953125 C-41.13771658 16.9113298 -37.57885411 21.81595344 -34 26 C-28.24275878 21.22795514 -22.99216088 16.07809795 -17.75 10.75 C-16.1638093 9.13830785 -14.57536578 7.5288289 -12.984375 5.921875 C-12.29053711 5.21643555 -11.59669922 4.51099609 -10.88183594 3.78417969 C-7.22988752 0.32174598 -4.97943638 -0.59753237 0 0 Z " fill="#EF5653" transform="translate(409,94)"/>
<path d="M0 0 C0.66 0.33 1.32 0.66 2 1 C2 24.1 2 47.2 2 71 C3.98 71.66 5.96 72.32 8 73 C3.82870331 74.8075619 0.33617929 72.98541846 -3.625 71.4375 C-4.28628906 71.19708984 -4.94757813 70.95667969 -5.62890625 70.70898438 C-7.7933056 69.88435238 -9.88632506 68.94675262 -12 68 C-12.89759033 67.67346436 -13.79518066 67.34692871 -14.7199707 67.01049805 C-17.79787336 65.64086832 -19.73598193 64.51050391 -22 62 C-23.20562166 57.35181602 -23.23088908 52.91782744 -23.02905273 48.16235352 C-22.93864191 45.96524989 -22.92649759 43.77883422 -22.92773438 41.58007812 C-22.75603923 27.85232405 -19.01625056 15.85641677 -9 6 C-6.11776891 3.76671846 -3.16732106 1.80361338 0 0 Z " fill="#FBA331" transform="translate(332,408)"/>
<path d="M0 0 C0.66 0.33 1.32 0.66 2 1 C2 24.1 2 47.2 2 71 C3.98 71.66 5.96 72.32 8 73 C4.14734435 74.47823718 1.80981212 73.48224954 -1.9375 72 C-3.46697266 71.4121875 -3.46697266 71.4121875 -5.02734375 70.8125 C-10.87842717 68.29857996 -16.42416264 65.0630129 -22 62 C-22.10022677 57.66249365 -22.1720945 53.32563263 -22.21972656 48.98730469 C-22.23961976 47.51713291 -22.26674472 46.04703785 -22.30175781 44.57714844 C-22.63969909 30.00591568 -20.21373315 19.0133001 -10.234375 8.0625 C-7.12998441 4.82313591 -4.13287042 1.88931219 0 0 Z " fill="#FBA231" transform="translate(122,408)"/>
<path d="M0 0 C5.38977685 3.07987249 8.093224 4.68198442 12 9 C12.845625 9.928125 13.69125 10.85625 14.5625 11.8125 C20.69750066 19.33655741 23.27282696 28.03304359 23.1953125 37.68359375 C23.1924826 38.38396255 23.18965271 39.08433136 23.18673706 39.80592346 C23.17564885 42.0166317 23.15056703 44.22691671 23.125 46.4375 C23.11495546 47.94725972 23.1058322 49.45702588 23.09765625 50.96679688 C23.07574714 54.64466597 23.04129758 58.3222916 23 62 C20.3587447 63.44647391 17.71248464 64.88217356 15.0625 66.3125 C14.32708984 66.71662109 13.59167969 67.12074219 12.83398438 67.53710938 C-0.18981798 74.5324268 -0.18981798 74.5324268 -5.26147461 73.5715332 C-5.83518799 73.38292725 -6.40890137 73.19432129 -7 73 C-4.03 72.01 -4.03 72.01 -1 71 C-0.67 47.57 -0.34 24.14 0 0 Z " fill="#FBA231" transform="translate(389,408)"/>
<path d="M0 0 C11.61297295 6.63598454 18.0860598 13.64334562 22.16870117 26.49511719 C23.5674674 32.3925292 23.81898668 38.21649681 23.85107422 44.24755859 C23.87525095 46.39731381 23.97419201 48.53619037 24.07421875 50.68359375 C24.30777582 60.61167774 24.30777582 60.61167774 20.90307617 64.22607422 C18.3190947 65.80735617 15.83785768 66.95162988 13 68 C11.99066406 68.48210937 10.98132813 68.96421875 9.94140625 69.4609375 C9.15636719 69.76257813 8.37132812 70.06421875 7.5625 70.375 C6.75941406 70.69210937 5.95632812 71.00921875 5.12890625 71.3359375 C3 72 3 72 0 72 C0 48.24 0 24.48 0 0 Z " fill="#FCA230" transform="translate(179,408)"/>
<path d="M0 0 C0.70705078 0.00902344 1.41410156 0.01804687 2.14257812 0.02734375 C10.53778431 0.30487123 15.52355968 2.62237934 21.5625 8.3125 C25.44806353 12.49218986 28.05010108 15.96431944 28.375 21.8125 C28.2821875 23.111875 28.2821875 23.111875 28.1875 24.4375 C27.424375 24.2725 26.66125 24.1075 25.875 23.9375 C24.658125 23.7725 23.44125 23.6075 22.1875 23.4375 C21.43339844 23.32277344 20.67929687 23.20804687 19.90234375 23.08984375 C10.39710359 22.30132458 3.21761486 26.95315014 -4.8125 31.4375 C-9.10354168 33.58302084 -14.12691711 32.95832617 -18.59375 31.578125 C-25.35178571 28.89821429 -25.35178571 28.89821429 -26.8125 27.4375 C-27.0520727 19.77117348 -24.34972304 13.22208129 -19.13671875 7.64453125 C-13.34247605 2.44127561 -7.88965374 -0.12010891 0 0 Z " fill="#925333" transform="translate(359.8125,323.5625)"/>
<path d="M0 0 C6.77931895 4.14615 10.37684034 10.62056184 13 18 C13.16015625 21.375 13.16015625 21.375 13 24 C11.730447 24.64834654 10.45930294 25.29357815 9.1875 25.9375 C8.47980469 26.29714844 7.77210938 26.65679687 7.04296875 27.02734375 C2.32738673 29.27242964 -1.8635813 29.65326778 -7 29 C-11.15475257 27.50204559 -14.94365847 25.32019659 -18.80664062 23.19921875 C-26.60873484 19.16033678 -33.46750465 19.20368519 -42 21 C-42.62485677 16.0011458 -41.41332262 13.12621869 -38.69140625 9.09375 C-28.96955951 -2.94068384 -14.24702146 -7.63233292 0 0 Z " fill="#925333" transform="translate(166,327)"/>
<path d="M0 0 C3.5 0.8125 3.5 0.8125 5.4375 2 C7.02035742 4.70016854 6.77135399 6.72823705 6.5 9.8125 C5.1640625 11.953125 5.1640625 11.953125 3.125 14.0625 C1.9184375 15.32320313 1.9184375 15.32320313 0.6875 16.609375 C-0.37406293 17.67801502 -1.43670251 18.74558586 -2.5 19.8125 C-4.00004269 21.33849971 -5.50003886 22.86454514 -7 24.390625 C-10.18615647 27.6133597 -13.37631743 30.83187122 -16.5859375 34.03125 C-17.2670459 34.71123047 -17.9481543 35.39121094 -18.64990234 36.09179688 C-21.40730574 38.65634942 -22.85774243 39.79913601 -26.69140625 39.87890625 C-31.94352368 38.40831337 -34.68414619 35.58438795 -38.4375 31.75 C-39.12134766 31.10611328 -39.80519531 30.46222656 -40.50976562 29.79882812 C-43.78862623 26.51341635 -45.936083 24.22266647 -46.01171875 19.44140625 C-45.5 15.8125 -45.5 15.8125 -44.375 13.8125 C-41.36701354 12.20824055 -39.89151414 12.17259167 -36.5 12.8125 C-34.31265237 14.50674614 -32.37394185 16.3135709 -30.4296875 18.28125 C-28.38834412 20.22689739 -28.38834412 20.22689739 -24.5 19.8125 C-22.33560867 18.18487766 -22.33560867 18.18487766 -20.27734375 15.9453125 C-19.49166016 15.14222656 -18.70597656 14.33914063 -17.89648438 13.51171875 C-17.08501953 12.66222656 -16.27355469 11.81273437 -15.4375 10.9375 C-13.82370998 9.27140533 -12.20791026 7.60725427 -10.58984375 5.9453125 C-9.87691162 5.20168457 -9.16397949 4.45805664 -8.42944336 3.69189453 C-5.46483771 0.80418931 -4.22994329 -0.2266041 0 0 Z " fill="#EF5855" transform="translate(63.5,360.1875)"/>
<path d="M0 0 C2.375 1 2.375 1 4 3 C4.83422096 9.57345269 4.83422096 9.57345269 2.95480347 12.787323 C1.43019606 14.59365456 -0.17537097 16.23237564 -1.87890625 17.87109375 C-2.48379379 18.47889175 -3.08868134 19.08668976 -3.7118988 19.71290588 C-4.99110886 20.98880696 -6.28019666 22.254872 -7.57836914 23.51147461 C-9.55677161 25.43193937 -11.49511715 27.38701968 -13.43164062 29.34960938 C-14.68268348 30.58817614 -15.93587122 31.82458093 -17.19140625 33.05859375 C-17.76774307 33.64080185 -18.3440799 34.22300995 -18.93788147 34.82286072 C-22.73876989 38.45158262 -25.50938434 40.10856582 -31 40 C-33.24755859 38.76831055 -33.24755859 38.76831055 -35.1484375 36.88671875 C-35.84324219 36.21576172 -36.53804688 35.54480469 -37.25390625 34.85351562 C-37.95386719 34.13873047 -38.65382813 33.42394531 -39.375 32.6875 C-40.09816406 31.98431641 -40.82132812 31.28113281 -41.56640625 30.55664062 C-47.84938629 24.38564616 -47.84938629 24.38564616 -48.3125 20.125 C-48 17 -48 17 -46.375 14.625 C-43.22992985 12.4731099 -41.74825668 12.3253138 -38 13 C-34.58745237 15.42815889 -32.32319237 17.51521145 -30 21 C-25.92749604 20.47659108 -24.18851968 18.46041288 -21.4453125 15.52734375 C-20.58292969 14.62822266 -19.72054688 13.72910156 -18.83203125 12.80273438 C-17.02906925 10.89440447 -15.23216437 8.98033342 -13.44140625 7.06054688 C-12.57644531 6.16271484 -11.71148437 5.26488281 -10.8203125 4.33984375 C-10.03930176 3.50831787 -9.25829102 2.67679199 -8.45361328 1.82006836 C-5.39373576 -0.44972138 -3.72947168 -0.43716239 0 0 Z " fill="#EF5653" transform="translate(490,360)"/>
<path d="M0 0 C0.66 0.33 1.32 0.66 2 1 C1.3503125 1.62648438 0.700625 2.25296875 0.03125 2.8984375 C-1.22171875 4.12433594 -1.22171875 4.12433594 -2.5 5.375 C-3.3353125 6.18710937 -4.170625 6.99921875 -5.03125 7.8359375 C-7.22431286 9.7589659 -7.22431286 9.7589659 -7 12 C-8.53125 13.2890625 -8.53125 13.2890625 -10.5 14.625 C-11.1496875 15.07101562 -11.799375 15.51703125 -12.46875 15.9765625 C-12.9740625 16.31429688 -13.479375 16.65203125 -14 17 C-14.66 16.67 -15.32 16.34 -16 16 C-11.1163329 10.09563077 -5.8280757 4.96906227 0 0 Z " fill="#1385EE" transform="translate(97,321)"/>
<path d="M0 0 C1.17046875 0.10183594 2.3409375 0.20367187 3.546875 0.30859375 C4.43890625 0.39238281 5.3309375 0.47617187 6.25 0.5625 C6.25 0.8925 6.25 1.2225 6.25 1.5625 C5.29738281 1.61148437 4.34476562 1.66046875 3.36328125 1.7109375 C2.10902344 1.78570312 0.85476563 1.86046875 -0.4375 1.9375 C-2.29955078 2.04191406 -2.29955078 2.04191406 -4.19921875 2.1484375 C-7.44317772 2.52672094 -9.81567185 3.18229976 -12.75 4.5625 C-12 2.625 -12 2.625 -10.75 0.5625 C-7.1828025 -0.85091788 -3.75570327 -0.33801329 0 0 Z " fill="#307CCF" transform="translate(359.75,322.4375)"/>
</svg>
