<?xml version="1.0" encoding="UTF-8"?>
<svg version="1.1" xmlns="http://www.w3.org/2000/svg" width="512" height="512">
<path d="M0 0 C0.87411026 -0.00524185 1.74822052 -0.0104837 2.64881897 -0.0158844 C4.49723244 -0.02230683 6.34568677 -0.02096473 8.1940918 -0.01245117 C11.02141209 -0.00394759 13.84670786 -0.03268773 16.67382812 -0.06445312 C18.47005148 -0.0660654 20.26627841 -0.0654871 22.0625 -0.0625 C22.90739487 -0.07373398 23.75228973 -0.08496796 24.62278748 -0.09654236 C30.47721206 -0.02709755 30.47721206 -0.02709755 33.56958008 2.26904297 C35.53088692 5.04727374 36.67207543 7.80678652 37.84765625 10.99609375 C38.275625 12.13175781 38.70359375 13.26742188 39.14453125 14.4375 C40.09765625 17.43359375 40.09765625 17.43359375 40.09765625 20.43359375 C40.76410156 20.59214844 41.43054688 20.75070313 42.1171875 20.9140625 C48.33994261 22.48933337 53.80855878 24.5506801 59.4921875 27.54296875 C65.78551218 29.69421017 71.46907197 26.0475879 77.09765625 23.39453125 C80.81428333 22.20404914 82.39469732 22.14681552 86.09765625 23.43359375 C89.00470248 25.52381586 91.53572747 27.93854381 94.09765625 30.43359375 C94.82839355 31.13822754 95.55913086 31.84286133 96.31201172 32.56884766 C98.57278013 34.77565978 100.80705365 37.00633586 103.03515625 39.24609375 C104.18467773 40.38981445 104.18467773 40.38981445 105.35742188 41.55664062 C106.08509766 42.28560547 106.81277344 43.01457031 107.5625 43.765625 C108.54657837 44.75139526 108.54657837 44.75139526 109.55053711 45.75708008 C112.16675528 48.59210772 112.53205177 51.0479421 112.5390625 54.8828125 C111.75609241 59.40740957 109.39423779 63.28475741 107.21484375 67.28515625 C105.79978553 71.2730476 106.37924698 72.62575503 108.09765625 76.43359375 C108.59523438 77.59117188 109.0928125 78.74875 109.60546875 79.94140625 C110.68640258 82.35914713 111.76974941 84.77581059 112.85546875 87.19140625 C114.09765625 90.43359375 114.09765625 90.43359375 114.09765625 94.43359375 C114.64292969 94.60375 115.18820312 94.77390625 115.75 94.94921875 C119.88493976 96.27805409 123.96080363 97.7044292 127.97265625 99.37109375 C128.69195312 99.66886719 129.41125 99.96664062 130.15234375 100.2734375 C132.61072248 101.73957903 133.63339007 102.9589479 135.09765625 105.43359375 C135.390625 108.66796875 135.390625 108.66796875 135.28515625 112.18359375 C135.25808594 113.3540625 135.23101562 114.52453125 135.203125 115.73046875 C135.15091797 117.06851563 135.15091797 117.06851563 135.09765625 118.43359375 C135.68710526 118.42693192 136.27655426 118.42027008 136.88386536 118.41340637 C143.06534321 118.3466039 149.24671712 118.30160834 155.4284668 118.26879883 C157.72994152 118.25379026 160.03138802 118.23337702 162.33276367 118.20727539 C165.6568095 118.17054162 168.98047444 118.15378751 172.3046875 118.140625 C173.82724907 118.11739922 173.82724907 118.11739922 175.38056946 118.09370422 C187.27952245 118.0909535 198.25366324 121.10093355 207.13671875 129.3203125 C215.30409345 138.16540553 218.41143094 147.85345497 218.35835266 159.71199036 C218.36217821 160.6256314 218.36600376 161.53927245 218.36994523 162.48059958 C218.38023452 165.53115221 218.37629079 168.58151519 218.37231445 171.63208008 C218.37666321 173.82375767 218.38184691 176.01543373 218.38780212 178.20710754 C218.40118663 184.15347297 218.40177132 190.0997748 218.39923882 196.04615235 C218.39816861 201.01373737 218.40305386 205.98130955 218.40784425 210.94889182 C218.41957193 223.34111345 218.41871546 235.73330376 218.41228744 248.12552729 C218.40712085 258.87219632 218.41836829 269.61877465 218.43738566 280.36542574 C218.45678823 291.41496625 218.46472467 302.46446179 218.4612624 313.51401919 C218.45945103 319.71149944 218.46207119 325.90889663 218.47597694 332.1063633 C218.48856905 337.93651927 218.48659793 343.76649401 218.47356606 349.59664726 C218.47120365 351.73231696 218.47392289 353.86799947 218.48218918 356.00365448 C218.4926868 358.9273937 218.48453163 361.8505282 218.47187805 364.77424622 C218.47925234 365.61191538 218.48662662 366.44958455 218.49422437 367.31263763 C218.39355772 378.43003273 214.63117429 387.5666057 207.0234375 395.6328125 C200.14395388 402.12810157 192.25948771 406.56536628 182.63043213 406.55384827 C181.29695488 406.55591026 181.29695488 406.55591026 179.9365387 406.55801392 C178.48536903 406.552621 178.48536903 406.552621 177.00488281 406.54711914 C175.46781929 406.54733818 175.46781929 406.54733818 173.89970398 406.54756165 C170.51254154 406.54686496 167.12543408 406.5390839 163.73828125 406.53125 C161.38987254 406.52938496 159.04146344 406.52796146 156.6930542 406.52696228 C150.51168748 406.52314391 144.33034425 406.51331939 138.14898682 406.5022583 C131.84151528 406.49202959 125.53403994 406.48746153 119.2265625 406.48242188 C106.85024843 406.47169655 94.47395797 406.45410521 82.09765625 406.43359375 C82.09765625 416.99359375 82.09765625 427.55359375 82.09765625 438.43359375 C85.206875 438.3871875 88.31609375 438.34078125 91.51953125 438.29296875 C94.56785453 438.26167515 97.61615916 438.2374433 100.66455078 438.21386719 C102.76521968 438.19388844 104.86583395 438.16669586 106.96630859 438.13183594 C134.53809955 437.68607232 134.53809955 437.68607232 146.1875 447.49609375 C154.03380063 455.45471362 154.3357083 463.44107451 154.39282227 474.11206055 C154.40436525 475.61638782 154.42485389 477.12067341 154.4543457 478.62475586 C154.49698969 480.79959914 154.51318323 482.97322827 154.5234375 485.1484375 C154.54531128 487.09931274 154.54531128 487.09931274 154.56762695 489.08959961 C154.09765625 492.43359375 154.09765625 492.43359375 152.75628662 494.61084747 C148.48706227 497.5378105 144.14703501 496.98380956 139.08959961 496.94152832 C137.95377662 496.94776828 136.81795362 496.95400825 135.64771175 496.9604373 C131.82743235 496.97643995 128.00778456 496.96373398 124.1875 496.95117188 C121.45450519 496.95438858 118.72153751 496.96356535 115.98855591 496.97241211 C109.32747105 496.99021503 102.6665663 496.98634954 96.00547433 496.97476155 C90.59273565 496.96573443 85.18004751 496.96450008 79.76730347 496.96885681 C78.99744989 496.96946974 78.22759632 496.97008268 77.43441385 496.97071418 C75.8705569 496.97199306 74.30669996 496.97328991 72.74284303 496.97460455 C58.0724828 496.98601553 43.40222248 496.97288854 28.73187864 496.95140308 C16.13923623 496.93353161 3.54674131 496.93663557 -9.04589844 496.95507812 C-23.66312686 496.97647571 -38.28026768 496.98491685 -52.89750957 496.97262907 C-54.45567003 496.97135485 -56.01383049 496.97009737 -57.57199097 496.96885681 C-58.72201075 496.96793116 -58.72201075 496.96793116 -59.89526325 496.96698681 C-65.30260287 496.96353056 -70.709887 496.96936814 -76.11721802 496.97877502 C-82.70541386 496.98998407 -89.29341904 496.9869782 -95.88159299 496.96565205 C-99.24423979 496.95512643 -102.60630457 496.95319125 -105.96899033 496.96424866 C-109.61107672 496.97512344 -113.25225887 496.96153683 -116.89428711 496.94152832 C-118.49524278 496.95491265 -118.49524278 496.95491265 -120.12854099 496.96856737 C-127.23661978 496.89243459 -127.23661978 496.89243459 -130.55700684 494.60390472 C-132.49041312 491.48491436 -132.43712075 489.04712391 -132.46875 485.39453125 C-132.47804787 484.37318588 -132.47804787 484.37318588 -132.48753357 483.33120728 C-132.49462464 481.89057845 -132.49146991 480.44986755 -132.47875977 479.00927734 C-132.46501275 476.83531887 -132.4988159 474.66577441 -132.53710938 472.4921875 C-132.58811263 463.37170605 -131.61158051 455.56153388 -125.19165039 448.57080078 C-116.45927265 440.32688252 -105.98808335 438.11185433 -94.375 438.23828125 C-93.38608261 438.24111115 -92.39716522 438.24394104 -91.37828064 438.24685669 C-88.2403418 438.25799233 -85.10269536 438.28308472 -81.96484375 438.30859375 C-79.82878018 438.3186321 -77.69271211 438.32775645 -75.55664062 438.3359375 C-70.3383402 438.35620274 -65.12066673 438.39536428 -59.90234375 438.43359375 C-59.90234375 427.87359375 -59.90234375 417.31359375 -59.90234375 406.43359375 C-63.02550049 406.45454102 -66.14865723 406.47548828 -69.36645508 406.49707031 C-79.71201772 406.56349697 -90.05759004 406.60759171 -100.40330982 406.64084244 C-106.67287842 406.66167276 -112.94222758 406.68990747 -119.21166992 406.73535156 C-125.26766286 406.77897128 -131.32344538 406.80276509 -137.37958336 406.81310272 C-139.68433632 406.82046515 -141.98907841 406.83484197 -144.29374123 406.85651398 C-147.53437365 406.88576175 -150.77414837 406.88954077 -154.01489258 406.88769531 C-154.95717209 406.90207642 -155.8994516 406.91645752 -156.87028503 406.93127441 C-168.42833799 406.86054968 -177.60066989 402.54156862 -185.80859375 394.5859375 C-193.93266693 385.92829172 -196.0520236 376.96004146 -196.04951477 365.40916443 C-196.05319146 364.49864337 -196.05686815 363.5881223 -196.06065625 362.65000969 C-196.07167212 359.59796623 -196.07553339 356.54595684 -196.0793457 353.49389648 C-196.08561198 351.30575961 -196.09225893 349.11762379 -196.09925842 346.92948914 C-196.12028328 339.74206277 -196.13065998 332.55463624 -196.140625 325.3671875 C-196.14467327 322.89069164 -196.14879022 320.4141959 -196.15297508 317.93770027 C-196.17202402 306.30109406 -196.18625516 294.66449417 -196.19458705 283.02787536 C-196.19555556 281.68940063 -196.19652981 280.3509259 -196.19750977 279.01245117 C-196.19799351 278.3485287 -196.19847725 277.68460622 -196.19897565 277.00056488 C-196.20726886 266.25510263 -196.23259534 255.50975195 -196.26509044 244.76433837 C-196.29822421 233.71711752 -196.31584599 222.66995614 -196.31936806 211.62268597 C-196.32171566 205.42618772 -196.3306386 199.2298659 -196.35582924 193.03341484 C-196.37916106 187.19997157 -196.38332248 181.36682025 -196.37306786 175.53334236 C-196.37257362 173.39850517 -196.37886078 171.26365336 -196.3926239 169.12886047 C-196.48464898 154.00207702 -196.04766431 140.89800324 -184.90234375 129.43359375 C-177.19158916 122.2678821 -167.3708669 118.29284821 -156.83666992 118.32006836 C-155.85603073 118.32014389 -154.87539154 118.32021942 -153.86503601 118.32029724 C-152.29602287 118.32803917 -152.29602287 118.32803917 -150.6953125 118.3359375 C-149.0745153 118.33805992 -149.0745153 118.33805992 -147.42097473 118.34022522 C-143.97723599 118.34581295 -140.53356277 118.35836325 -137.08984375 118.37109375 C-134.75195407 118.37611033 -132.41406336 118.38067296 -130.07617188 118.38476562 C-124.35154022 118.39577837 -118.62694667 118.41250434 -112.90234375 118.43359375 C-112.92772217 117.45849854 -112.95310059 116.48340332 -112.97924805 115.47875977 C-112.99898682 114.20701904 -113.01872559 112.93527832 -113.0390625 111.625 C-113.06444092 110.36115479 -113.08981934 109.09730957 -113.1159668 107.79516602 C-112.90234375 104.43359375 -112.90234375 104.43359375 -110.71484375 101.37109375 C-105.58836738 98.25814906 -97.93383923 94.43359375 -91.90234375 94.43359375 C-91.76892578 92.93505859 -91.76892578 92.93505859 -91.6328125 91.40625 C-90.92157255 86.4023937 -88.562404 82.33785675 -86.16601562 77.95117188 C-84.49855336 74.66698149 -83.80589582 72.89985387 -84.5625 69.2421875 C-85.00464844 68.31535156 -85.44679688 67.38851562 -85.90234375 66.43359375 C-86.25554687 65.68335937 -86.60875 64.933125 -86.97265625 64.16015625 C-87.32070312 63.46664062 -87.66875 62.773125 -88.02734375 62.05859375 C-90.07904329 57.40131381 -90.78853836 54.50907196 -89.90234375 49.43359375 C-88.609375 47.61108398 -88.609375 47.61108398 -86.90234375 45.7421875 C-86.2683667 45.04649658 -85.63438965 44.35080566 -84.98120117 43.6340332 C-81.4435346 39.88946611 -77.85581246 36.2027591 -74.21484375 32.55859375 C-73.46912109 31.800625 -72.72339844 31.04265625 -71.95507812 30.26171875 C-70.87129883 29.17503906 -70.87129883 29.17503906 -69.765625 28.06640625 C-69.11891846 27.41559082 -68.47221191 26.76477539 -67.8059082 26.09423828 C-64.79713367 23.46942305 -62.863583 22.41397662 -58.83984375 22.49609375 C-54.41230848 23.2499198 -50.59112356 25.40117243 -46.6484375 27.47265625 C-40.86021055 29.498124 -35.70467875 26.71512839 -30.33984375 24.43359375 C-26.24389664 22.70210664 -22.32666803 21.11295257 -17.90234375 20.43359375 C-17.78632813 19.73492188 -17.6703125 19.03625 -17.55078125 18.31640625 C-16.8361041 15.13910663 -15.77155043 12.31731173 -14.52734375 9.30859375 C-13.89699219 7.75785156 -13.89699219 7.75785156 -13.25390625 6.17578125 C-10.14980525 -0.12213465 -6.62675444 -0.02297003 0 0 Z M1.09765625 16.43359375 C0.16953125 19.15609375 -0.75859375 21.87859375 -1.71484375 24.68359375 C-4.77200915 32.58114872 -4.77200915 32.58114872 -8.25390625 35.20703125 C-10.83984375 36.05859375 -10.83984375 36.05859375 -13.66015625 36.6875 C-17.77126115 37.63354944 -21.38291245 39.26219217 -25.21484375 40.99609375 C-26.21922485 41.43719482 -26.21922485 41.43719482 -27.24389648 41.88720703 C-30.28335517 43.2257051 -33.24063476 44.61018085 -36.1875 46.1484375 C-39.7885807 47.85312174 -42.21990143 47.56716889 -45.90234375 46.43359375 C-49.95558599 44.88247846 -53.93766086 43.19784509 -57.90234375 41.43359375 C-60.10894003 43.47851269 -62.2911942 45.54165811 -64.46484375 47.62109375 C-65.09326172 48.19923828 -65.72167969 48.77738281 -66.36914062 49.37304688 C-68.04361567 50.9926211 -69.55366565 52.53358917 -70.90234375 54.43359375 C-71.11202404 57.08313891 -71.11202404 57.08313891 -69.90234375 59.43359375 C-69.58136719 60.24699219 -69.26039063 61.06039062 -68.9296875 61.8984375 C-68.20366117 63.54565854 -67.47449647 65.19149992 -66.7421875 66.8359375 C-65.2217727 71.53861583 -65.46907471 74.4541692 -67.4765625 78.9921875 C-68.17140159 80.290334 -68.87634269 81.58311008 -69.58984375 82.87109375 C-72.5413051 88.38444418 -74.70726836 93.6708735 -76.40234375 99.68359375 C-78.36631196 105.92246609 -78.36631196 105.92246609 -80.66796875 108.1171875 C-82.65234375 109.12109375 -82.65234375 109.12109375 -86.90234375 110.43359375 C-89.87234375 111.75359375 -92.84234375 113.07359375 -95.90234375 114.43359375 C-95.90234375 121.03359375 -95.90234375 127.63359375 -95.90234375 134.43359375 C-93.46859375 135.42359375 -91.03484375 136.41359375 -88.52734375 137.43359375 C-87.76244629 137.74683594 -86.99754883 138.06007813 -86.20947266 138.3828125 C-82.66958342 139.9065301 -82.66958342 139.9065301 -78.90234375 140.43359375 C-78.76699219 141.04203125 -78.63164062 141.65046875 -78.4921875 142.27734375 C-76.99167344 148.38722134 -74.92480182 154.06185668 -72.40234375 159.80859375 C-72.10577881 160.48599609 -71.80921387 161.16339844 -71.50366211 161.86132812 C-70.20982333 164.75036453 -68.85776801 167.50706117 -67.21484375 170.21484375 C-65.23247861 173.56598483 -65.40356553 175.56806258 -65.90234375 179.43359375 C-67.11995869 182.32389185 -68.45515533 185.10253085 -69.90625 187.8828125 C-71.04046387 190.78728958 -70.93452648 191.57410351 -69.90234375 194.43359375 C-68.70828666 196.03603783 -68.70828666 196.03603783 -67.1796875 197.44921875 C-66.64150391 197.97773438 -66.10332031 198.50625 -65.54882812 199.05078125 C-64.98486328 199.58960938 -64.42089844 200.1284375 -63.83984375 200.68359375 C-62.9880957 201.51503906 -62.9880957 201.51503906 -62.11914062 202.36328125 C-60.72021906 203.72693589 -59.31215261 205.08119792 -57.90234375 206.43359375 C-56.48442967 205.97913411 -55.06806329 205.51984431 -53.65234375 205.05859375 C-52.8634375 204.80335938 -52.07453125 204.548125 -51.26171875 204.28515625 C-48.90731357 203.49133761 -48.90731357 203.49133761 -46.81640625 202.3671875 C-43.43196351 200.71640829 -40.50200783 200.69462694 -36.90234375 201.43359375 C-34.05496139 202.70864799 -31.30590831 204.10381418 -28.55615234 205.57617188 C-22.05954348 209.00912772 -13.30824323 213.43359375 -5.90234375 213.43359375 C-3.49565356 219.40533437 -1.20950313 225.42283641 1.09765625 231.43359375 C7.69765625 231.43359375 14.29765625 231.43359375 21.09765625 231.43359375 C22.9459372 226.63556033 22.9459372 226.63556033 24.77661133 221.83081055 C27.34732877 215.28166448 27.34732877 215.28166448 30.09765625 213.43359375 C32.34047078 212.60355339 34.6178874 211.8652737 36.91015625 211.18359375 C42.44911681 209.47955796 47.43441657 207.3630374 52.53515625 204.62109375 C61.07084091 200.24799073 61.07084091 200.24799073 67.09765625 201.43359375 C69.99768979 202.6944779 72.79922884 204.03244295 75.58203125 205.53515625 C77.98623495 206.66132812 77.98623495 206.66132812 80.0625 205.9140625 C82.89011688 203.85712047 85.41748082 201.56190598 87.91015625 199.12109375 C88.42513672 198.64736328 88.94011719 198.17363281 89.47070312 197.68554688 C91.14663273 196.11266132 91.14663273 196.11266132 93.09765625 193.43359375 C93.02014069 189.16377848 90.85080622 185.65506166 88.9375 181.91015625 C87.34201161 177.20532071 87.52581232 173.18497522 89.671875 168.7421875 C90.36487041 167.44564763 91.06982201 166.15544386 91.78515625 164.87109375 C98.29845126 153.19601054 98.29845126 153.19601054 101.09765625 140.43359375 C101.65453125 140.25183594 102.21140625 140.07007813 102.78515625 139.8828125 C103.54828125 139.63144531 104.31140625 139.38007813 105.09765625 139.12109375 C105.84015625 138.87746094 106.58265625 138.63382812 107.34765625 138.3828125 C110.95622337 137.13724175 114.52323225 135.77400275 118.09765625 134.43359375 C118.09765625 127.83359375 118.09765625 121.23359375 118.09765625 114.43359375 C115.56078125 113.28890625 115.56078125 113.28890625 112.97265625 112.12109375 C111.00972491 111.23538083 109.05153108 110.33911015 107.09765625 109.43359375 C106.05867187 109.07910156 105.0196875 108.72460938 103.94921875 108.359375 C99.65645559 105.46028974 99.01406741 101.76142943 97.59765625 96.93359375 C95.72073298 90.99088607 93.88932026 85.58742817 90.59765625 80.24609375 C88.17466062 76.09331248 87.4754244 73.37302098 88.39453125 68.6328125 C89.41935615 65.42738795 90.78485801 62.44989112 92.35546875 59.4765625 C93.27478508 56.94602334 92.97287712 55.95071109 92.09765625 53.43359375 C90.90359916 51.83114967 90.90359916 51.83114967 89.375 50.41796875 C88.83681641 49.88945313 88.29863281 49.3609375 87.74414062 48.81640625 C87.18017578 48.27757813 86.61621094 47.73875 86.03515625 47.18359375 C85.46732422 46.62929688 84.89949219 46.075 84.31445312 45.50390625 C82.91553156 44.14025161 81.50746511 42.78598958 80.09765625 41.43359375 C79.09605469 41.87832031 78.09445312 42.32304688 77.0625 42.78125 C75.72042642 43.35374293 74.377957 43.92530851 73.03515625 44.49609375 C72.37837891 44.79064453 71.72160156 45.08519531 71.04492188 45.38867188 C66.33662963 47.36012429 63.17806941 47.77773894 58.09765625 46.43359375 C55.44511295 45.31785527 52.93673646 43.99514442 50.41015625 42.62109375 C44.55200578 39.54349914 38.84639599 37.12806499 32.453125 35.3203125 C29.78455598 34.31572682 28.78048035 33.72835388 27.09765625 31.43359375 C25.94680652 28.87148304 24.90134257 26.36607653 23.91015625 23.74609375 C22.98203125 21.33296875 22.05390625 18.91984375 21.09765625 16.43359375 C14.49765625 16.43359375 7.89765625 16.43359375 1.09765625 16.43359375 Z M-173.83984375 143.37109375 C-174.38511719 144.01949219 -174.93039063 144.66789063 -175.4921875 145.3359375 C-179.01951876 150.58296488 -179.19423162 155.19125047 -179.17649841 161.31962585 C-179.18173509 162.21522384 -179.18697177 163.11082183 -179.19236714 164.03355914 C-179.20737058 167.03503186 -179.20807237 170.03633415 -179.20874023 173.0378418 C-179.21636157 175.18981718 -179.22478903 177.34178983 -179.23396301 179.49375916 C-179.25591959 185.34106072 -179.2647087 191.18830998 -179.26978946 197.03564811 C-179.27343219 200.6899838 -179.27967188 204.34430578 -179.28679085 207.99863625 C-179.31129107 220.7509687 -179.32433812 233.50326045 -179.32788086 246.25561523 C-179.33151475 258.13613181 -179.36139836 270.01638983 -179.40328544 281.8968274 C-179.43799858 292.10083071 -179.45342949 302.30474839 -179.45412689 312.50881034 C-179.45491946 318.60132049 -179.46364917 324.6935674 -179.49212456 330.78601646 C-179.51832178 336.51938259 -179.52050074 342.25226756 -179.50446892 347.98566628 C-179.50265567 350.08586807 -179.50933382 352.18609764 -179.52528763 354.28623962 C-180.07532884 369.24882539 -180.07532884 369.24882539 -173.90234375 382.43359375 C-168.56570755 387.34330098 -164.46296463 389.55532782 -157.12070179 389.56781483 C-155.90744057 389.57227267 -154.69417936 389.57673051 -153.44415265 389.58132344 C-152.09076423 389.58123415 -150.73737582 389.58104429 -149.38398743 389.58076477 C-147.95166826 389.58406345 -146.51935002 389.58778903 -145.08703297 389.59190625 C-141.14150684 389.60193388 -137.19599591 389.60564427 -133.25045884 389.60829556 C-128.99877851 389.61219635 -124.74711025 389.62177484 -120.49543762 389.63050842 C-110.22292584 389.65027915 -99.95041305 389.66033979 -89.67788699 389.66923621 C-84.84188461 389.67361809 -80.00588333 389.67898516 -75.16988182 389.68422508 C-59.09650684 389.70123792 -43.02313255 389.7157325 -26.94974995 389.72297382 C-22.77777925 389.72488376 -18.60580856 389.72680408 -14.43383789 389.72875977 C-13.39689894 389.72924351 -12.35995999 389.72972725 -11.29159864 389.73022565 C5.50934245 389.73852746 22.31021238 389.76386669 39.11112239 389.79634044 C56.35524667 389.82939948 73.59933476 389.84742154 90.8434909 389.85061806 C100.52748229 389.85278422 110.2113699 389.86154839 119.89533043 389.88707924 C128.14201224 389.90877045 136.38856507 389.91684444 144.63527217 389.90711246 C148.84286359 389.90256317 153.0501888 389.90449035 157.25774384 389.9238739 C161.11139218 389.94147373 164.96457949 389.94053401 168.81823251 389.92497661 C170.21060996 389.92259568 171.60301906 389.92694935 172.99534806 389.93880526 C180.80069287 390.00113984 186.47325645 389.75156242 193.09765625 385.43359375 C198.90008707 379.63116293 201.41590816 373.86048385 201.50354856 365.80923611 C201.49453349 364.56399344 201.49453349 364.56399344 201.4853363 363.29359436 C201.49072184 362.39487639 201.49610738 361.49615843 201.50165612 360.57020658 C201.51592019 357.57018244 201.50883575 354.57060049 201.50170898 351.57055664 C201.50741334 349.41504055 201.51437785 347.25952748 201.52250671 345.10401917 C201.54044559 339.25693198 201.53926836 333.40999482 201.53356433 327.56288838 C201.53047365 322.67961021 201.53656358 317.7963609 201.54260308 312.91308683 C201.556649 301.39231015 201.55508632 289.87160762 201.54370117 278.35083008 C201.53221875 266.46912328 201.54629771 254.58764216 201.57309765 242.7059651 C201.59525467 232.50024707 201.60189203 222.29459988 201.59602123 212.0888595 C201.59265063 205.99537816 201.59507387 199.9020415 201.61227226 193.8085804 C201.62773928 188.07851077 201.62378822 182.34877551 201.60496712 176.6187191 C201.60128066 174.51768686 201.60439133 172.41662985 201.61485291 170.31562042 C201.62806029 167.44355433 201.61651723 164.57259559 201.59886169 161.70057678 C201.6084667 160.87264573 201.61807171 160.04471467 201.62796777 159.1916948 C201.54312812 152.46663092 199.57043023 147.30681696 195.16796875 142.19140625 C194.20503906 141.38316406 194.20503906 141.38316406 193.22265625 140.55859375 C192.58585937 140.00429687 191.9490625 139.45 191.29296875 138.87890625 C185.21748986 134.87903581 179.01604238 135.16732493 172.01171875 135.23828125 C170.95479828 135.24111115 169.89787781 135.24394104 168.80892944 135.24685669 C165.44672124 135.25801525 162.08478339 135.28311216 158.72265625 135.30859375 C156.43750386 135.31862913 154.15234727 135.327754 151.8671875 135.3359375 C146.27724023 135.35794048 140.68749402 135.39244079 135.09765625 135.43359375 C134.76765625 138.40359375 134.43765625 141.37359375 134.09765625 144.43359375 C135.58612061 144.44817627 137.07458496 144.46275879 138.6081543 144.4777832 C144.134114 144.53578466 149.65966702 144.61301822 155.18530273 144.69604492 C157.57618608 144.72928542 159.96714773 144.75732004 162.3581543 144.7800293 C165.79640044 144.81359058 169.23392954 144.86590899 172.671875 144.921875 C173.73975754 144.92826492 174.80764008 144.93465485 175.90788269 144.9412384 C185.68112086 145.13456385 185.68112086 145.13456385 189.09765625 148.43359375 C191.73749618 153.56736695 192.53184584 157.783987 192.47860718 163.5687561 C192.48328715 164.35933485 192.48796712 165.1499136 192.49278891 165.96444929 C192.5047003 168.59838064 192.49529702 171.23178797 192.48583984 173.86572266 C192.4899072 175.76009931 192.49524999 177.65447359 192.50177002 179.54884338 C192.51542805 184.68295772 192.51015167 189.81689088 192.50063276 194.95100832 C192.49303059 200.32585413 192.50008312 205.70068457 192.50479126 211.07553101 C192.51024623 220.09888491 192.50306296 229.1221651 192.48876953 238.14550781 C192.47243365 248.57875423 192.47773941 259.01182486 192.49424875 269.44506705 C192.50785914 278.40488777 192.50978575 287.36465556 192.50193274 296.32448328 C192.49725505 301.67504724 192.49663425 307.02552853 192.50654221 312.37608719 C192.5152034 317.40435209 192.50920539 322.43239005 192.49185944 327.46063042 C192.4878905 329.30652298 192.48903558 331.15243463 192.49564743 332.99831963 C192.5038367 335.51660443 192.4935734 338.0341604 192.47860718 340.55239868 C192.48529934 341.28401266 192.49199151 342.01562663 192.49888647 342.76941073 C192.44830496 347.15262044 191.79489679 349.94675929 189.09765625 353.43359375 C186.41770049 354.77357163 184.36798253 354.56151175 181.36541939 354.56502151 C180.13774884 354.56886266 178.9100783 354.5727038 177.64520562 354.57666135 C176.27039784 354.57588101 174.89559012 354.57500221 173.52078247 354.57403564 C172.0699766 354.57661781 170.61917143 354.57963055 169.16836727 354.58303905 C165.16725088 354.59112971 161.16615241 354.59289976 157.16502881 354.59363651 C152.85546716 354.59548347 148.54591489 354.60302895 144.23635864 354.60977173 C134.80675844 354.62336991 125.37716249 354.62938199 115.94755411 354.63378239 C110.06356497 354.63654212 104.17957748 354.64077895 98.29558945 354.64528656 C82.01550716 354.65748082 65.73542619 354.66778005 49.45533943 354.67116165 C47.89155543 354.671491 47.89155543 354.671491 46.29617982 354.671827 C44.72858434 354.67215442 44.72858434 354.67215442 43.12932026 354.67248845 C41.01150648 354.67293192 38.89369269 354.67337849 36.77587891 354.67382812 C35.72536275 354.67404955 34.6748466 354.67427098 33.59249662 354.67449912 C16.56247559 354.67844888 -0.46750269 354.69590761 -17.4975072 354.71918765 C-34.96758325 354.7428772 -52.43763784 354.7553624 -69.90773022 354.75652957 C-79.72237355 354.75744764 -89.53696118 354.76323323 -99.3515892 354.78134918 C-107.707457 354.79671783 -116.0632519 354.80188981 -124.41913114 354.79361108 C-128.68490683 354.78969314 -132.95053555 354.7906896 -137.21629333 354.80466843 C-141.1184343 354.81733914 -145.02031686 354.81627051 -148.92245711 354.80407771 C-150.33699725 354.80210879 -151.75155526 354.80525383 -153.16607021 354.81392208 C-155.08349211 354.82493181 -157.00099849 354.8157793 -158.91842461 354.80553055 C-159.98511403 354.80612764 -161.05180345 354.80672472 -162.1508168 354.80733991 C-165.29948278 354.37964945 -166.65394286 353.64970205 -168.90234375 351.43359375 C-170.10356772 347.82992183 -170.04719292 344.54381999 -170.04278564 340.79290771 C-170.04575677 340.0071578 -170.04872789 339.22140788 -170.05178905 338.41184735 C-170.06048321 335.77032243 -170.0619849 333.12884279 -170.06347656 330.48730469 C-170.06810426 328.59676517 -170.07312885 326.70622658 -170.07852173 324.81568909 C-170.09165309 319.67299911 -170.09809222 314.53032219 -170.10253239 309.38761806 C-170.10546214 306.1752117 -170.10956679 302.96280892 -170.11403656 299.75040436 C-170.12771391 289.70119135 -170.1373792 279.65198651 -170.14123845 269.60276484 C-170.14571884 257.99952956 -170.1632649 246.39641211 -170.19223905 234.79321265 C-170.21385252 225.82666016 -170.22394257 216.86014082 -170.22527957 207.89356256 C-170.22632791 202.53726949 -170.2322418 197.18108713 -170.25009918 191.82482147 C-170.26657385 186.78513741 -170.26873826 181.74564736 -170.25996017 176.70594597 C-170.25918946 174.85766264 -170.26353708 173.00936891 -170.27341843 171.16111183 C-170.28613224 168.63458193 -170.28026435 166.10873974 -170.26983643 163.58221436 C-170.27789283 162.85369758 -170.28594923 162.12518081 -170.29424977 161.37458777 C-170.23919757 155.65718901 -169.12852721 150.71220874 -165.03582764 146.52311707 C-162.45315766 145.20420429 -160.66286182 145.03706551 -157.76660156 145.0012207 C-156.74584534 144.98142654 -155.72508911 144.96163239 -154.67340088 144.9412384 C-153.03102448 144.93165352 -153.03102448 144.93165352 -151.35546875 144.921875 C-150.22913025 144.9039238 -149.10279175 144.8859726 -147.94232178 144.86747742 C-144.34570049 144.8133058 -140.74921244 144.77945587 -137.15234375 144.74609375 C-134.7135231 144.71292682 -132.27472004 144.67843776 -129.8359375 144.64257812 C-123.85819239 144.5575753 -117.88043018 144.4892543 -111.90234375 144.43359375 C-112.39734375 139.97859375 -112.39734375 139.97859375 -112.90234375 135.43359375 C-119.5734428 135.33427028 -126.24410566 135.26190972 -132.91577148 135.21386719 C-135.18244938 135.19382668 -137.44907607 135.16658664 -139.71557617 135.13183594 C-142.98499231 135.08298507 -146.25372132 135.06054863 -149.5234375 135.04296875 C-150.52692734 135.02232361 -151.53041718 135.00167847 -152.5643158 134.98040771 C-160.79406166 134.97781856 -168.43426415 136.69672285 -173.83984375 143.37109375 Z M-153.90234375 161.43359375 C-153.90234375 219.84359375 -153.90234375 278.25359375 -153.90234375 338.43359375 C-144.00234375 338.43359375 -134.10234375 338.43359375 -123.90234375 338.43359375 C-123.69532605 332.13105499 -123.51638619 325.84034428 -123.40795898 319.53710938 C-123.36276688 317.39510096 -123.30139721 315.25336916 -123.22338867 313.11230469 C-123.11387004 310.0286036 -123.06311081 306.94857556 -123.0234375 303.86328125 C-122.97698593 302.90992889 -122.93053436 301.95657654 -122.88267517 300.97433472 C-122.88057318 298.18990169 -122.98470678 296.06628357 -123.90234375 293.43359375 C-126.00899676 291.41510223 -128.07001004 290.08369372 -130.63490295 288.70291138 C-135.72326517 285.85443663 -138.75621436 281.43891505 -140.77734375 276.05859375 C-143.27188724 267.21566115 -142.06364761 259.61996832 -137.90234375 251.43359375 C-133.49672991 244.95686253 -127.38550906 242.18035471 -119.90234375 240.43359375 C-111.53374123 239.20366277 -104.21371066 241.43126725 -97.31640625 246.234375 C-92.26541786 250.83584177 -89.42084795 257.08085984 -88.3828125 263.79296875 C-88.11429895 272.26606291 -90.22651036 278.00817699 -94.52734375 285.12109375 C-96.90234375 287.43359375 -96.90234375 287.43359375 -99.29980469 288.16772461 C-102.83284681 289.44538307 -104.50897166 290.49277587 -106.90234375 293.43359375 C-108.72278497 300.79755802 -107.83122262 308.80221227 -107.52734375 316.30859375 C-107.47716515 318.44911574 -107.43154088 320.58974967 -107.390625 322.73046875 C-107.28908696 327.96983181 -107.0935814 333.1936822 -106.90234375 338.43359375 C-95.35234375 338.43359375 -83.80234375 338.43359375 -71.90234375 338.43359375 C-71.61343307 327.75354532 -71.61343307 327.75354532 -71.33422852 317.07324219 C-71.2960861 315.72980771 -71.25761532 314.3863825 -71.21875 313.04296875 C-71.19403625 312.00487061 -71.19403625 312.00487061 -71.16882324 310.94580078 C-70.96409276 304.15414293 -70.96409276 304.15414293 -69.90234375 301.43359375 C-67.65234375 300.37109375 -67.65234375 300.37109375 -64.90234375 299.43359375 C-62.19207816 298.3491772 -62.19207816 298.3491772 -59.90234375 296.43359375 C-59.22692216 293.55271927 -59.22692216 293.55271927 -59.33984375 290.30859375 C-59.02726779 282.72229062 -57.44465031 277.44421994 -52.52734375 271.62109375 C-51.66109375 270.89921875 -50.79484375 270.17734375 -49.90234375 269.43359375 C-48.63390625 268.35078125 -48.63390625 268.35078125 -47.33984375 267.24609375 C-40.18969304 263.47601428 -32.12700985 262.55879915 -24.28515625 264.55078125 C-17.66501437 267.00348955 -12.27334779 270.85839891 -8.83984375 277.10546875 C-5.66436313 284.99124563 -4.89163623 293.40041561 -7.90234375 301.43359375 C-9.40574835 303.9580021 -11.07142973 306.12086025 -12.90234375 308.43359375 C-12.90234375 309.09359375 -12.90234375 309.75359375 -12.90234375 310.43359375 C-13.48242188 310.71976563 -14.0625 311.0059375 -14.66015625 311.30078125 C-16.04739101 312.00164898 -17.42112313 312.73096938 -18.76953125 313.50390625 C-25.60493427 317.0944876 -32.30879537 317.33675251 -39.90234375 316.43359375 C-42.46203386 315.62507974 -44.6805162 314.68435228 -47.03515625 313.40625 C-49.00584047 312.37968019 -50.71085391 311.79277984 -52.90234375 311.43359375 C-53.56234375 311.76359375 -54.22234375 312.09359375 -54.90234375 312.43359375 C-54.90234375 321.01359375 -54.90234375 329.59359375 -54.90234375 338.43359375 C-11.34234375 338.43359375 32.21765625 338.43359375 77.09765625 338.43359375 C77.09765625 329.85359375 77.09765625 321.27359375 77.09765625 312.43359375 C72.16446467 311.2161304 72.16446467 311.2161304 68.47265625 313.30859375 C62.0117204 317.3765904 55.55146544 317.04124124 48.09765625 316.43359375 C44.83661538 315.46718978 42.03911254 314.11970049 39.09765625 312.43359375 C38.04964844 311.99660156 38.04964844 311.99660156 36.98046875 311.55078125 C34.62104917 310.1507937 34.14216484 308.93577212 33.09765625 306.43359375 C32.75605469 305.83160156 32.41445313 305.22960937 32.0625 304.609375 C27.96093458 297.17041415 27.30913657 290.18661134 29.25 281.921875 C31.53018419 275.22843109 35.53284601 269.79889022 41.76953125 266.37109375 C49.70190872 263.17684779 58.02446952 262.45577897 66.09765625 265.43359375 C73.23515331 268.81991424 77.01965128 273.2195196 80.09765625 280.43359375 C81.20610597 283.7589429 81.1321598 286.31303759 81.16015625 289.80859375 C81.38709906 294.55761604 81.38709906 294.55761604 83.87109375 298.3984375 C86.59348949 300.09379225 88.84731711 301.43359375 92.09765625 301.43359375 C93.29970718 305.24935686 93.31971285 309.07982208 93.4140625 313.04296875 C93.44203918 314.01000732 93.44203918 314.01000732 93.47058105 314.99658203 C93.53859452 317.39212056 93.59892412 319.78787229 93.66015625 322.18359375 C93.87671875 330.22734375 93.87671875 330.22734375 94.09765625 338.43359375 C105.64765625 338.43359375 117.19765625 338.43359375 129.09765625 338.43359375 C129.35094204 332.14750095 129.56946738 325.87918278 129.7019043 319.59204102 C129.75709746 317.45666463 129.83207669 315.3217017 129.92749023 313.18774414 C131.02612515 301.15122953 131.02612515 301.15122953 126.70776367 290.56323242 C123.8914274 288.81297613 121.16537075 287.66101476 118.09765625 286.43359375 C112.79601517 281.29345378 110.81467198 274.52436675 110.59765625 267.30859375 C110.73991809 259.98629321 112.76749566 254.33996822 117.09765625 248.43359375 C123.51264846 242.54460803 130.72021851 239.90331673 139.37890625 240.125 C146.86367588 240.97456437 153.59594963 243.63525363 158.66015625 249.3203125 C163.08548529 255.8260272 165.37411364 263.61693718 164.09765625 271.43359375 C162.28277858 279.01527206 159.43349634 284.74435617 153.09765625 289.43359375 C149.63265625 291.41359375 149.63265625 291.41359375 146.09765625 293.43359375 C146.09765625 308.28359375 146.09765625 323.13359375 146.09765625 338.43359375 C155.99765625 338.43359375 165.89765625 338.43359375 176.09765625 338.43359375 C176.09765625 280.02359375 176.09765625 221.61359375 176.09765625 161.43359375 C154.97765625 161.43359375 133.85765625 161.43359375 112.09765625 161.43359375 C103.5990959 175.83849001 103.5990959 175.83849001 107.66015625 184.43359375 C108.2634375 185.47902344 108.86671875 186.52445313 109.48828125 187.6015625 C111.86284064 191.78009541 112.1327443 193.73588645 111.09765625 198.43359375 C106.60222039 204.6401302 100.70396284 209.98048563 95.28515625 215.37109375 C94.52267578 216.13744141 93.76019531 216.90378906 92.97460938 217.69335938 C92.24564453 218.42103516 91.51667969 219.14871094 90.765625 219.8984375 C90.10844482 220.55448975 89.45126465 221.21054199 88.77416992 221.88647461 C85.96262259 224.48102469 85.19380338 224.43664604 81.16015625 224.30859375 C76.12354529 223.72275209 72.12305777 221.74820684 67.67578125 219.39453125 C63.72166434 217.92072404 61.3009315 218.92675963 57.51953125 220.51953125 C56.19695312 221.15761719 56.19695312 221.15761719 54.84765625 221.80859375 C49.6853801 224.29809379 49.6853801 224.29809379 46.86645508 224.94799805 C42.14467423 226.05357415 42.14467423 226.05357415 38.78564453 229.32617188 C37.78738928 231.6902195 37.00353904 234.03279191 36.28515625 236.49609375 C35.77057796 238.13687067 35.24371372 239.77385803 34.703125 241.40625 C34.38057739 242.49305054 34.38057739 242.49305054 34.05151367 243.60180664 C32.73102542 246.13767134 31.83068465 246.5652662 29.09765625 247.43359375 C26.3539613 247.62573941 23.71514234 247.71393889 20.97265625 247.69921875 C20.18874512 247.7011322 19.40483398 247.70304565 18.59716797 247.70501709 C16.94303058 247.7063755 15.28888241 247.70270307 13.63476562 247.69433594 C11.10652665 247.68363131 8.57899819 247.6942426 6.05078125 247.70703125 C4.44140469 247.70570959 2.83202856 247.70314707 1.22265625 247.69921875 C0.46839355 247.70326721 -0.28586914 247.70731567 -1.06298828 247.71148682 C-8.05803696 247.64915904 -8.05803696 247.64915904 -10.90234375 245.43359375 C-11.74511719 243.64941406 -11.74511719 243.64941406 -12.26171875 241.51171875 C-14.41262286 232.86857268 -14.41262286 232.86857268 -19.68994141 226.04931641 C-23.02421791 224.33729522 -26.43955891 223.32116945 -30.0625 222.40625 C-33.90234375 221.43359375 -33.90234375 221.43359375 -37.0859375 219.7421875 C-40.40040925 218.20217635 -41.49436622 218.27626805 -44.90234375 219.43359375 C-47.92688184 220.67516053 -50.89201952 222.01985897 -53.8671875 223.375 C-57.37425598 224.59818605 -59.22871254 225.12785947 -62.90234375 224.43359375 C-65.8695842 222.40639899 -68.35415882 219.9572713 -70.90234375 217.43359375 C-71.63308105 216.7276709 -72.36381836 216.02174805 -73.11669922 215.29443359 C-75.3788434 213.09020501 -77.61232142 210.86026834 -79.83984375 208.62109375 C-80.60619141 207.85861328 -81.37253906 207.09613281 -82.16210938 206.31054688 C-82.88978516 205.58158203 -83.61746094 204.85261719 -84.3671875 204.1015625 C-85.02323975 203.44438232 -85.67929199 202.78720215 -86.35522461 202.11010742 C-88.96653448 199.28039859 -89.3219691 196.83699853 -89.36328125 193.015625 C-88.74516419 189.55312182 -87.1252132 186.96414485 -85.46484375 183.87109375 C-81.44922577 175.01333414 -81.44922577 175.01333414 -89.90234375 161.43359375 C-111.02234375 161.43359375 -132.14234375 161.43359375 -153.90234375 161.43359375 Z M-125.33984375 262.24609375 C-126.21559723 265.65180175 -125.7937114 268.04639667 -124.90234375 271.43359375 C-122.28374222 274.97640758 -120.64892723 276.22028418 -116.40234375 277.43359375 C-111.57461262 277.43359375 -109.47945504 275.95632189 -106.08984375 272.68359375 C-104.33135646 269.35172309 -104.38971888 267.15012402 -104.90234375 263.43359375 C-106.79797028 260.23472398 -108.24861742 258.07199324 -111.8046875 256.69921875 C-117.69727002 255.56820483 -121.58019303 257.50566458 -125.33984375 262.24609375 Z M128.28515625 261.18359375 C126.52666896 264.51546441 126.58503138 266.71706348 127.09765625 270.43359375 C128.8878941 273.40406248 130.94770453 275.85861789 134.09765625 277.43359375 C138.00562105 277.87768066 139.84313771 277.57064219 143.34765625 275.68359375 C146.61881427 273.10038847 146.61881427 273.10038847 148.09765625 269.43359375 C148.02019308 265.17311937 147.51948916 263.00430886 144.97265625 259.55859375 C138.59521676 254.84483412 133.70716039 255.94855527 128.28515625 261.18359375 Z M-41.90234375 284.43359375 C-43.50321002 287.63532629 -43.40151464 290.95936434 -42.90234375 294.43359375 C-41.10870464 297.24362835 -39.8835344 298.94299843 -36.90234375 300.43359375 C-31.08888428 300.96724888 -31.08888428 300.96724888 -25.96484375 298.55859375 C-22.80539017 295.30339915 -22.56813132 293.00946137 -22.609375 288.47265625 C-23.06489342 285.30224808 -24.65550032 283.61435355 -26.90234375 281.43359375 C-32.62106483 278.57423321 -37.68004462 280.08334616 -41.90234375 284.43359375 Z M46.09765625 284.43359375 C44.49678998 287.63532629 44.59848536 290.95936434 45.09765625 294.43359375 C46.89129536 297.24362835 48.1164656 298.94299843 51.09765625 300.43359375 C56.91111572 300.96724888 56.91111572 300.96724888 62.03515625 298.55859375 C65.19460983 295.30339915 65.43186868 293.00946137 65.390625 288.47265625 C64.93510658 285.30224808 63.34449968 283.61435355 61.09765625 281.43359375 C55.37893517 278.57423321 50.31995538 280.08334616 46.09765625 284.43359375 Z M-42.90234375 406.43359375 C-42.90234375 416.99359375 -42.90234375 427.55359375 -42.90234375 438.43359375 C-7.26234375 438.43359375 28.37765625 438.43359375 65.09765625 438.43359375 C65.09765625 427.87359375 65.09765625 417.31359375 65.09765625 406.43359375 C29.45765625 406.43359375 -6.18234375 406.43359375 -42.90234375 406.43359375 Z M-114.90234375 464.43359375 C-114.90234375 469.71359375 -114.90234375 474.99359375 -114.90234375 480.43359375 C-31.74234375 480.43359375 51.41765625 480.43359375 137.09765625 480.43359375 C138.80481465 465.18047555 138.80481465 465.18047555 132.09765625 458.43359375 C126.58669435 455.26826964 121.82721518 455.00283685 115.65394592 455.0459137 C114.72255954 455.04052816 113.79117315 455.03514262 112.83156294 455.02959388 C109.72098764 455.01532431 106.61083849 455.02241565 103.50024414 455.02954102 C101.26591144 455.02383695 99.03158166 455.01687255 96.79725647 455.00874329 C90.73530166 454.99080123 84.67349153 454.99198225 78.61151814 454.99768567 C73.54929672 455.00077589 68.48710315 454.99468694 63.42488569 454.98864692 C50.79957104 454.97379704 38.17434353 454.97741811 25.54903542 454.98951023 C14.59405764 454.99944231 3.63924876 454.98650096 -7.31570297 454.96257604 C-18.57542127 454.93817156 -29.83506299 454.92897995 -41.09481436 454.93522877 C-47.41185917 454.93859984 -53.72876443 454.93617302 -60.04578972 454.91897774 C-65.98597388 454.90351389 -71.92583546 454.9074583 -77.86600685 454.92628288 C-80.04444187 454.92997022 -82.22290075 454.92685614 -84.40131378 454.91639709 C-87.37846413 454.90319582 -90.35454517 454.91472761 -93.33164978 454.93238831 C-94.19070842 454.9227833 -95.04976706 454.91317829 -95.93485779 454.90328223 C-104.73612219 455.01047435 -109.3912603 457.54473943 -114.90234375 464.43359375 Z " fill="#F2791B" transform="translate(244.90234375,7.56640625)"/>
<path d="M0 0 C2.47233219 1.92416804 4.82540936 3.91887297 7.15234375 6.015625 C7.7865625 6.56863281 8.42078125 7.12164062 9.07421875 7.69140625 C21.90226367 19.58289037 29.33630131 38.20567607 30.35546875 55.453125 C30.64804715 77.68908317 23.69216097 96.11041322 8.33984375 112.265625 C0.49277124 119.83673013 -8.70568026 125.10494782 -18.84765625 129.015625 C-20.09289062 129.49708984 -20.09289062 129.49708984 -21.36328125 129.98828125 C-39.53811647 135.7011315 -60.80385198 132.94379575 -77.53515625 124.453125 C-85.00685971 120.4040126 -90.9516964 115.07637876 -96.84765625 109.015625 C-97.4509375 108.40976563 -98.05421875 107.80390625 -98.67578125 107.1796875 C-111.53587972 93.3043181 -116.22654766 74.50874855 -116.0625 56.0625 C-115.64596135 45.33080853 -112.92229958 35.44202799 -107.84765625 26.015625 C-107.18443359 24.75492188 -107.18443359 24.75492188 -106.5078125 23.46875 C-97.0753813 6.64191983 -81.55025153 -5.31129058 -63.17822266 -10.89160156 C-41.47197687 -16.77748993 -18.42796294 -12.84143371 0 0 Z M-85.23046875 22.70703125 C-94.90976068 34.95788424 -100.42530661 49.27856262 -98.84765625 65.015625 C-95.921373 81.47596828 -89.4585694 94.99011201 -75.76953125 105.34375 C-61.3005417 114.78004753 -45.9439549 117.39920492 -29.02734375 114.3203125 C-14.33598164 110.18728155 -2.08801926 100.90949122 5.6875 87.7734375 C13.61050069 72.8570682 15.06928358 58.20464227 10.48828125 41.96484375 C8.64353607 36.1023061 5.6241755 31.05615137 2.15234375 26.015625 C1.06953125 24.4378125 1.06953125 24.4378125 -0.03515625 22.828125 C-12.0426308 10.82065045 -25.70773658 3.9388504 -42.66015625 3.703125 C-59.08846809 3.79666291 -74.24199001 10.29545444 -85.23046875 22.70703125 Z " fill="#EE5621" transform="translate(298.84765625,71.984375)"/>
<path d="M0 0 C2.29013653 3.4352048 2.17842973 4.985331 2 9 C2.804375 9.020625 3.60875 9.04125 4.4375 9.0625 C10.68593045 10.7068238 16.0452597 14.99266182 19.5625 20.4375 C21.35048372 24.86859009 21.62105766 27.26443536 21 32 C19.09496794 34.75171298 17.7143524 35.71801879 14.625 36.9375 C10.93943675 37.02525151 9.06717792 36.02303225 6 34 C4.60287726 32.04402816 3.26220093 30.04563599 2 28 C-2.235621 25.17625267 -6.02687197 25.34179188 -11 26 C-13.8017483 27.4631891 -13.8017483 27.4631891 -15 30 C-15.40802691 32.62822118 -15.40802691 32.62822118 -14 35 C-9.29565502 37.32561094 -4.75132658 38.63570176 0.375 39.8125 C8.81534179 41.91398986 16.24573842 45.39318147 21 53 C23.80410094 58.88861198 24.14158117 66.01471964 22.34765625 72.27734375 C19.66809543 78.26897976 15.47633569 82.65514021 9.32421875 85.03515625 C6.89463164 85.77399816 4.47464871 86.43237434 2 87 C2.1546875 88.36125 2.1546875 88.36125 2.3125 89.75 C2 93 2 93 -0.125 95.375 C-3.51886077 97.29326913 -5.16312978 97.63947837 -9 97 C-11.8125 95.375 -11.8125 95.375 -14 93 C-14.0825 92.01 -14.165 91.02 -14.25 90 C-14.4975 89.01 -14.745 88.02 -15 87 C-17.1413968 85.72243631 -19.3304886 84.88175484 -21.65234375 83.9765625 C-27.72859343 81.4490044 -31.15678191 77.02384581 -34.08203125 71.34375 C-35.57145486 67.54096632 -35.61876943 65.05637738 -35 61 C-33.07045537 58.21287997 -31.73289213 57.26308948 -28.5625 56.125 C-25.43296231 55.97233962 -23.73889296 56.48640126 -21 58 C-19.14216361 60.07220212 -17.95685108 62.08424313 -16.6875 64.5625 C-14.41732419 67.84164284 -12.80127879 68.75594512 -9 70 C-4.20838236 69.98486061 0.37921897 69.23504746 5 68 C5.41561208 63.93194295 5.41561208 63.93194295 3.77392578 60.38793945 C1.67346973 58.74451905 0.01553518 58.23837395 -2.5703125 57.60546875 C-3.91609375 57.25452148 -3.91609375 57.25452148 -5.2890625 56.89648438 C-7.15487947 56.43003013 -9.02204703 55.96893981 -10.890625 55.51367188 C-18.37268447 53.54723317 -24.98493649 50.70166213 -29.97265625 44.578125 C-33.43442583 37.18309034 -34.35701438 30.71016015 -31.9375 22.8125 C-29.46629199 17.05411908 -25.04191027 13.21729266 -19.75 10.0625 C-17 9 -17 9 -14 9 C-14.0825 8.0925 -14.165 7.185 -14.25 6.25 C-14 3 -14 3 -12.1875 0.6875 C-7.75970765 -2.72822553 -5.03278854 -1.83010493 0 0 Z " fill="#EE5721" transform="translate(262,84)"/>
</svg>
