<?xml version="1.0" encoding="UTF-8"?>
<svg version="1.1" xmlns="http://www.w3.org/2000/svg" width="512" height="512">
<path d="M0 0 C3.4238892 2.96224121 6.03436793 6.6057215 8.6015625 10.3125 C9.10429687 11.034375 9.60703125 11.75625 10.125 12.5 C10.56070313 13.1703125 10.99640625 13.840625 11.4453125 14.53125 C12.9351298 16.22883319 12.9351298 16.22883319 15.3659668 16.29467773 C18.61492424 15.93120645 19.47671542 15.09912262 21.69921875 12.75390625 C22.35083984 12.08166016 23.00246094 11.40941406 23.67382812 10.71679688 C24.33833984 10.00587891 25.00285156 9.29496094 25.6875 8.5625 C27.02279405 7.16610575 28.35994519 5.77148423 29.69921875 4.37890625 C30.57839966 3.44413452 30.57839966 3.44413452 31.4753418 2.49047852 C33.5159259 0.49564009 34.87887408 0.02535194 37.6875 -0.5625 C43.66065249 0.45180891 46.40521865 5.85575616 49.859375 10.5 C50.46265625 11.304375 51.0659375 12.10875 51.6875 12.9375 C52.22761719 13.68902344 52.76773438 14.44054688 53.32421875 15.21484375 C55.28620178 17.30488161 56.18918945 17.64801044 59 18 C61.06217492 17.30853867 61.06217492 17.30853867 63.08203125 16.09375 C64.23348633 15.47306641 64.23348633 15.47306641 65.40820312 14.83984375 C67.00213364 13.95159327 68.59332666 13.05841131 70.18164062 12.16015625 C75.17939629 9.47965572 78.28777291 8.30315405 84 10 C86 12 86 12 86.34863281 15.04370117 C85.91376675 19.97857833 84.37722307 23.78758163 82.421875 28.30078125 C81.8701059 29.61540596 81.8701059 29.61540596 81.30718994 30.95658875 C80.13307382 33.74696838 78.94202901 36.52973215 77.75 39.3125 C76.9636814 41.17073253 76.17851378 43.02945256 75.39453125 44.88867188 C74.28214407 47.52605827 73.16829076 50.1626796 72.04510498 52.79548645 C71.36631605 54.38741193 70.69289451 55.98163839 70.02526855 57.57827759 C69.30028938 59.29070533 68.55081148 60.99285819 67.78430176 62.68710327 C67.39947632 63.56790558 67.01465088 64.44870789 66.61816406 65.35620117 C66.26079163 66.15039963 65.90341919 66.94459808 65.53521729 67.76286316 C64.77830434 70.01589908 64.77830434 70.01589908 65.79705811 72.17793274 C67.19247873 74.29154292 68.78026756 75.94976521 70.5625 77.75 C77.25364565 85.07723262 81.59031599 94.18063198 86 103 C106.295 103.495 106.295 103.495 127 104 C127 72.32 127 40.64 127 8 C153.4 8 179.8 8 207 8 C207.33 49.58 207.66 91.16 208 134 C217.9 124.1 227.8 114.2 238 104 C242.15125992 106.07562996 244.84500149 108.56965187 248.05371094 111.81079102 C248.64926285 112.40444458 249.24481476 112.99809814 249.8584137 113.60974121 C251.82198483 115.56961296 253.77827261 117.53658227 255.734375 119.50390625 C257.09592842 120.86665172 258.45785165 122.2290278 259.82012939 123.59104919 C262.67111921 126.44360227 265.51871925 129.2994822 268.36376953 132.15795898 C272.01968631 135.83090564 275.68219197 139.49719454 279.34701157 143.16125584 C282.15759296 145.9721084 284.96556635 148.78555378 287.77265167 151.59989738 C289.12292329 152.95336122 290.47381031 154.30621138 291.82530975 155.65844917 C293.70736579 157.54266064 295.58609929 159.43011984 297.46386719 161.31860352 C298.02797806 161.8822612 298.59208893 162.44591888 299.17329407 163.0266571 C303 166.88552342 303 166.88552342 303 168 C297.72 168 292.44 168 287 168 C287 186.48 287 204.96 287 224 C290.65018368 222.53992653 292.69173191 221.6809813 295.625 219.4375 C301.68135293 214.81987344 308.659511 215.28385473 316 216 C322.3335716 218.27459537 327.22232128 223.29942264 330.11474609 229.32055664 C333.31617452 239.01048409 330.34814769 250.38097031 328.375 260.0625 C328.23961823 260.73875427 328.10423645 261.41500854 327.9647522 262.11175537 C320.12653478 301.15185358 303.58188846 336.94314424 276 366 C274.84785031 367.34879668 273.70155917 368.7026303 272.5625 370.0625 C260.1719926 384.19855232 244.15478766 395.8419404 227.80761719 404.98681641 C226.04053857 405.97727781 224.29014255 406.9933144 222.5390625 408.01171875 C196.64575426 422.75120851 164.90700076 432.23100919 134.98326111 432.12025452 C133.69153271 432.12153615 133.69153271 432.12153615 132.37370878 432.12284368 C129.51335897 432.12447932 126.65306894 432.11900875 123.79272461 432.11352539 C121.73230999 432.11324308 119.67189527 432.11340211 117.61148071 432.1139679 C112.03573634 432.11425415 106.4600136 432.10838515 100.88427424 432.10139394 C95.05066332 432.09513183 89.21705187 432.09455434 83.38343811 432.09336853 C72.34457606 432.09026364 61.30572395 432.0820616 50.26686627 432.07201904 C37.69616045 432.06083176 25.12545416 432.05534086 12.5547446 432.05032361 C-13.29684243 432.03987828 -39.14842066 432.02229514 -65 432 C-64.9685791 433.24088379 -64.9685791 433.24088379 -64.93652344 434.50683594 C-64.85338381 438.2544337 -64.80134469 442.00183749 -64.75 445.75 C-64.71648437 447.05195313 -64.68296875 448.35390625 -64.6484375 449.6953125 C-64.63554688 450.94570313 -64.62265625 452.19609375 -64.609375 453.484375 C-64.5779541 455.21252441 -64.5779541 455.21252441 -64.54589844 456.97558594 C-65.09615439 460.64040889 -66.08600436 461.78465375 -69 464 C-71.58007812 464.50793457 -71.58007812 464.50793457 -74.53125 464.51757812 C-75.63919922 464.53018677 -76.74714844 464.54279541 -77.88867188 464.55578613 C-79.08041016 464.54768921 -80.27214844 464.53959229 -81.5 464.53125 C-83.34174805 464.53699036 -83.34174805 464.53699036 -85.22070312 464.54284668 C-87.81641459 464.54556842 -90.41215336 464.53818911 -93.0078125 464.52148438 C-96.98499599 464.50008075 -100.96037282 464.52127963 -104.9375 464.546875 C-107.45833733 464.54423177 -109.97917353 464.53910691 -112.5 464.53125 C-113.69173828 464.53934692 -114.88347656 464.54744385 -116.11132812 464.55578613 C-117.77325195 464.53687317 -117.77325195 464.53687317 -119.46875 464.51757812 C-120.44263672 464.51439575 -121.41652344 464.51121338 -122.41992188 464.50793457 C-125.8642894 463.82984916 -126.86571714 462.77637234 -129 460 C-129.39317553 457.37972768 -129.54123353 455.17864997 -129.50793457 452.56054688 C-129.51417453 451.8085778 -129.5204145 451.05660873 -129.52684355 450.28185272 C-129.54280672 447.76050013 -129.53015689 445.24010987 -129.51757812 442.71875 C-129.52299779 440.91185949 -129.53011957 439.1049734 -129.53881836 437.2980957 C-129.55707322 432.3890197 -129.54997526 427.48027948 -129.53730202 422.57119751 C-129.52718556 417.43742966 -129.53656393 412.30369084 -129.54284668 407.16992188 C-129.55012703 398.54812449 -129.54052519 389.92646409 -129.52148438 381.3046875 C-129.49971492 371.33211031 -129.50676601 361.35986021 -129.52879 351.38729095 C-129.54693293 342.83007759 -129.54950773 334.27296277 -129.53903532 325.71573639 C-129.53279431 320.6026727 -129.53198146 315.48976283 -129.54518127 310.37670898 C-129.55672305 305.57002425 -129.54874469 300.76376184 -129.52560425 295.9571228 C-129.5203082 294.19144391 -129.52184621 292.42572956 -129.53065491 290.6600647 C-129.54155901 288.25271187 -129.52791046 285.84671889 -129.50793457 283.43945312 C-129.51685746 282.73789848 -129.52578034 282.03634384 -129.53497362 281.31352997 C-129.48088036 277.96119552 -129.19808531 276.25767839 -127.12950897 273.56678009 C-124.41327194 271.56831652 -122.82333861 271.49338368 -119.46875 271.48242188 C-118.36080078 271.46981323 -117.25285156 271.45720459 -116.11132812 271.44421387 C-114.3237207 271.45635925 -114.3237207 271.45635925 -112.5 271.46875 C-111.27216797 271.4649231 -110.04433594 271.46109619 -108.77929688 271.45715332 C-106.18358541 271.45443158 -103.58784664 271.46181089 -100.9921875 271.47851562 C-97.01500401 271.49991925 -93.03962718 271.47872037 -89.0625 271.453125 C-86.54166267 271.45576823 -84.02082647 271.46089309 -81.5 271.46875 C-79.71239258 271.45660461 -79.71239258 271.45660461 -77.88867188 271.44421387 C-76.22674805 271.46312683 -76.22674805 271.46312683 -74.53125 271.48242188 C-73.55736328 271.48560425 -72.58347656 271.48878662 -71.58007812 271.49206543 C-68.24309652 272.14901 -67.05499606 273.33317776 -65 276 C-64.58207005 278.73710477 -64.39527789 281.08986105 -64.390625 283.828125 C-64.37408875 284.57713074 -64.35755249 285.32613647 -64.34051514 286.09783936 C-64.2920649 288.48197654 -64.27067228 290.86547611 -64.25 293.25 C-64.2218376 294.86982369 -64.19190978 296.48961772 -64.16015625 298.109375 C-64.08630756 302.07286414 -64.03671543 306.03599998 -64 310 C-63.54488037 309.69408936 -63.08976074 309.38817871 -62.62084961 309.07299805 C-27.9912132 286.00518493 11.89877055 271.67975576 53.76293945 271.70947266 C55.16763152 271.70346665 56.57232033 271.69665648 57.977005 271.68911743 C61.74114915 271.67167713 65.50520206 271.66677198 69.26938272 271.66548586 C71.62892529 271.664053 73.98844546 271.65976262 76.34798241 271.65449142 C84.60057396 271.63607582 92.85310147 271.62781158 101.10571289 271.62939453 C108.76819818 271.63059905 116.43040326 271.60941437 124.0928176 271.5779072 C130.7046999 271.55169913 137.31649074 271.54102887 143.92842454 271.54230535 C147.86337252 271.54281292 151.79806982 271.53724154 155.73296547 271.51594925 C159.42930576 271.49648545 163.1251578 271.49649715 166.82151604 271.51098251 C168.80903385 271.51404461 170.79655219 271.4974585 172.78399658 271.48010254 C182.71249817 271.54929707 191.04834875 273.36650025 198.46875 280.296875 C204.58710887 287.10198844 207.1182297 293.87481703 207 303 C207.6573262 302.71185425 208.3146524 302.4237085 208.99189758 302.12683105 C215.18407723 299.41358323 221.378528 296.70559848 227.57558918 294.00351715 C230.76155146 292.61413293 233.94659632 291.22272241 237.12963867 289.82666016 C240.78822066 288.22213525 244.45062744 286.62645963 248.11328125 285.03125 C249.2571077 284.52815308 250.40093414 284.02505615 251.579422 283.50671387 C253.17073189 282.81599792 253.17073189 282.81599792 254.79418945 282.11132812 C255.72906693 281.7027356 256.6639444 281.29414307 257.62715149 280.87316895 C260 280 260 280 263 280 C263.26731934 279.13938965 263.53463867 278.2787793 263.81005859 277.39208984 C264.99803935 274.00558909 266.422212 270.92856054 268.0390625 267.7265625 C268.61914062 266.57285156 269.19921875 265.41914063 269.796875 264.23046875 C270.40616191 263.02860117 271.01553802 261.82677881 271.625 260.625 C272.24255878 259.39992668 272.85974982 258.1746679 273.4765625 256.94921875 C274.98077167 253.96430368 276.48869122 250.98132497 278 248 C277.26244838 248.00151888 276.52489676 248.00303776 275.7649951 248.00460267 C232.05826051 248.09410183 188.35153589 248.16273959 144.64472803 248.20426132 C139.39759197 248.20926419 134.1504561 248.21444147 128.90332031 248.21972656 C127.85870363 248.2207758 126.81408694 248.22182505 125.7378152 248.22290608 C108.82029113 248.24031452 91.9028214 248.27185464 74.98532957 248.30861118 C57.62830386 248.34600837 40.27130661 248.36823327 22.91424227 248.37635398 C12.20273704 248.38184428 1.49138539 248.39918918 -9.22007257 248.43166587 C-16.56387077 248.45279865 -23.9075895 248.45920284 -31.25141591 248.45400551 C-35.48936999 248.45144181 -39.72705558 248.45539049 -43.96496201 248.4768219 C-47.84647691 248.49630762 -51.72754313 248.49725713 -55.60907882 248.48359558 C-57.01164353 248.48190748 -58.4142364 248.48696483 -59.81674582 248.49953273 C-68.80435953 248.5753737 -75.25461865 248.1584091 -82.2421875 242.03515625 C-87.55046066 235.62205112 -89 232.68887267 -89 224 C-79.43 223.67 -69.86 223.34 -60 223 C-62.31 220.36 -64.62 217.72 -67 215 C-68.7421875 212.171875 -68.7421875 212.171875 -69.875 209.75 C-70.26429687 208.94046875 -70.65359375 208.1309375 -71.0546875 207.296875 C-72.53545529 203.69897639 -73.12607699 200.50971811 -73.17700195 196.62475586 C-73.19625481 195.33576637 -73.19625481 195.33576637 -73.21589661 194.02073669 C-73.22328354 193.09479202 -73.23067047 192.16884735 -73.23828125 191.21484375 C-73.246353 190.24454727 -73.25442474 189.27425079 -73.26274109 188.27455139 C-73.27657475 186.21259335 -73.28730012 184.15061249 -73.29516602 182.08862305 C-73.30657466 180.0146598 -73.32684496 177.94072324 -73.35668945 175.86694336 C-73.72529347 150.21910549 -68.04948369 128.15765771 -57.0625 105.0625 C-56.57265625 104.03237793 -56.0828125 103.00225586 -55.578125 101.94091797 C-50.03863748 90.60068083 -43.62054898 81.1510443 -35 72 C-40.44232645 60.98229193 -46.07998704 50.08591507 -51.875 39.25 C-53.0138221 37.11640036 -54.15205559 34.98248858 -55.28982544 32.84832764 C-55.98805022 31.53905976 -56.68696166 30.23015776 -57.38668823 28.92169189 C-58.26166122 27.28318817 -59.13110241 25.64173358 -60 24 C-60.40879395 23.25202148 -60.81758789 22.50404297 -61.23876953 21.73339844 C-62.36298172 19.17345407 -61.86868769 17.60606307 -61 15 C-59.69897461 13.34179687 -59.69897461 13.34179687 -58 12 C-52.84908752 12.12084252 -48.47864043 13.07736777 -43.58984375 14.65625 C-42.66236328 14.9553125 -41.73488281 15.254375 -40.77929688 15.5625 C-38.87175397 16.19179251 -36.97306848 16.84854199 -35.08398438 17.53125 C-32.26081361 18.41140345 -29.96027951 19.00961865 -27 19 C-23.67841595 17.23504931 -21.45983591 14.80755073 -19 12 C-17.96686392 10.97575816 -16.92829484 9.9569489 -15.8828125 8.9453125 C-14.48586875 7.51670997 -13.08900649 6.08802306 -11.6953125 4.65625 C-7.83180588 0.72688816 -5.65620416 -0.9604875 0 0 Z " fill="#FDE3CD" transform="translate(153,24)"/>
<path d="M0 0 C3.4238892 2.96224121 6.03436793 6.6057215 8.6015625 10.3125 C9.35566406 11.3953125 9.35566406 11.3953125 10.125 12.5 C10.56070313 13.1703125 10.99640625 13.840625 11.4453125 14.53125 C12.9351298 16.22883319 12.9351298 16.22883319 15.3659668 16.29467773 C18.61492424 15.93120645 19.47671542 15.09912262 21.69921875 12.75390625 C22.35083984 12.08166016 23.00246094 11.40941406 23.67382812 10.71679688 C24.33833984 10.00587891 25.00285156 9.29496094 25.6875 8.5625 C27.02279405 7.16610575 28.35994519 5.77148423 29.69921875 4.37890625 C30.57839966 3.44413452 30.57839966 3.44413452 31.4753418 2.49047852 C33.5159259 0.49564009 34.87887408 0.02535194 37.6875 -0.5625 C43.66065249 0.45180891 46.40521865 5.85575616 49.859375 10.5 C50.46265625 11.304375 51.0659375 12.10875 51.6875 12.9375 C52.22761719 13.68902344 52.76773438 14.44054688 53.32421875 15.21484375 C55.28620178 17.30488161 56.18918945 17.64801044 59 18 C61.06217492 17.30853867 61.06217492 17.30853867 63.08203125 16.09375 C64.23348633 15.47306641 64.23348633 15.47306641 65.40820312 14.83984375 C67.00213364 13.95159327 68.59332666 13.05841131 70.18164062 12.16015625 C75.17939629 9.47965572 78.28777291 8.30315405 84 10 C86 12 86 12 86.34863281 15.04370117 C85.91376675 19.97857833 84.37722307 23.78758163 82.421875 28.30078125 C81.8701059 29.61540596 81.8701059 29.61540596 81.30718994 30.95658875 C80.13307382 33.74696838 78.94202901 36.52973215 77.75 39.3125 C76.9636814 41.17073253 76.17851378 43.02945256 75.39453125 44.88867188 C74.28214407 47.52605827 73.16829076 50.1626796 72.04510498 52.79548645 C71.36631605 54.38741193 70.69289451 55.98163839 70.02526855 57.57827759 C69.30028938 59.29070533 68.55081148 60.99285819 67.78430176 62.68710327 C67.39947632 63.56790558 67.01465088 64.44870789 66.61816406 65.35620117 C66.26079163 66.15039963 65.90341919 66.94459808 65.53521729 67.76286316 C64.77830434 70.01589908 64.77830434 70.01589908 65.79705811 72.17793274 C67.19247873 74.29154292 68.78026756 75.94976521 70.5625 77.75 C77.39685063 85.24654548 82.25048878 94.62622194 86 104 C75.77 104 65.54 104 55 104 C55 146.24 55 188.48 55 232 C39.386875 232.0825 23.77375 232.165 7.6875 232.25 C2.77576904 232.28641602 -2.13596191 232.32283203 -7.1965332 232.36035156 C-13.24060059 232.37841797 -13.24060059 232.37841797 -16.07902527 232.3817749 C-18.0419122 232.3878772 -20.00478508 232.40186175 -21.96757507 232.42230225 C-37.67156759 232.57752679 -50.63468124 231.60976021 -62.71484375 220.41015625 C-68.71343959 213.92312513 -73.06013327 205.54043193 -73.17700195 196.62475586 C-73.18983719 195.76542953 -73.20267242 194.90610321 -73.21589661 194.02073669 C-73.22697701 192.63181969 -73.22697701 192.63181969 -73.23828125 191.21484375 C-73.246353 190.24454727 -73.25442474 189.27425079 -73.26274109 188.27455139 C-73.27657475 186.21259335 -73.28730012 184.15061249 -73.29516602 182.08862305 C-73.30657466 180.0146598 -73.32684496 177.94072324 -73.35668945 175.86694336 C-73.72529347 150.21910549 -68.04948369 128.15765771 -57.0625 105.0625 C-56.57265625 104.03237793 -56.0828125 103.00225586 -55.578125 101.94091797 C-50.03863748 90.60068083 -43.62054898 81.1510443 -35 72 C-40.44232645 60.98229193 -46.07998704 50.08591507 -51.875 39.25 C-53.0138221 37.11640036 -54.15205559 34.98248858 -55.28982544 32.84832764 C-55.98805022 31.53905976 -56.68696166 30.23015776 -57.38668823 28.92169189 C-58.26166122 27.28318817 -59.13110241 25.64173358 -60 24 C-60.61319092 22.87803223 -60.61319092 22.87803223 -61.23876953 21.73339844 C-62.36298172 19.17345407 -61.86868769 17.60606307 -61 15 C-59.69897461 13.34179688 -59.69897461 13.34179688 -58 12 C-52.84908752 12.12084252 -48.47864043 13.07736777 -43.58984375 14.65625 C-42.66236328 14.9553125 -41.73488281 15.254375 -40.77929688 15.5625 C-38.87175397 16.19179251 -36.97306848 16.84854199 -35.08398438 17.53125 C-32.26081361 18.41140345 -29.96027951 19.00961865 -27 19 C-23.67841595 17.23504931 -21.45983591 14.80755073 -19 12 C-17.96686392 10.97575816 -16.92829484 9.9569489 -15.8828125 8.9453125 C-14.48586875 7.51670997 -13.08900649 6.08802306 -11.6953125 4.65625 C-7.83180588 0.72688816 -5.65620416 -0.9604875 0 0 Z " fill="#E3A800" transform="translate(153,24)"/>
<path d="M0 0 C26.4 0 52.8 0 80 0 C80.33 41.58 80.66 83.16 81 126 C90.9 116.1 100.8 106.2 111 96 C115.15125992 98.07562996 117.84500149 100.56965187 121.05371094 103.81079102 C121.64926285 104.40444458 122.24481476 104.99809814 122.8584137 105.60974121 C124.82198483 107.56961296 126.77827261 109.53658227 128.734375 111.50390625 C130.09592842 112.86665172 131.45785165 114.2290278 132.82012939 115.59104919 C135.67111921 118.44360227 138.51871925 121.2994822 141.36376953 124.15795898 C145.01968631 127.83090564 148.68219197 131.49719454 152.34701157 135.16125584 C155.15759296 137.9721084 157.96556635 140.78555378 160.77265167 143.59989738 C162.12292329 144.95336122 163.47381031 146.30621138 164.82530975 147.65844917 C166.70736579 149.54266064 168.58609929 151.43011984 170.46386719 153.31860352 C171.02797806 153.8822612 171.59208893 154.44591888 172.17329407 155.0266571 C176 158.88552342 176 158.88552342 176 160 C139.04 160 102.08 160 64 160 C64 181.12 64 202.24 64 224 C34.96 224 5.92 224 -24 224 C-24 181.76 -24 139.52 -24 96 C-16.08 96 -8.16 96 0 96 C0 64.32 0 32.64 0 0 Z " fill="#CBE6FE" transform="translate(280,32)"/>
<path d="M0 0 C15.84 0 31.68 0 48 0 C48 42.24 48 84.48 48 128 C77.04 128 106.08 128 136 128 C136 106.88 136 85.76 136 64 C167.68 64 199.36 64 232 64 C232.165 74.415625 232.33 84.83125 232.5 95.5625 C232.57283203 98.81939697 232.64566406 102.07629395 232.72070312 105.43188477 C232.74410308 108.06003191 232.76448051 110.68820843 232.78125 113.31640625 C232.81261047 114.30627785 232.81261047 114.30627785 232.84460449 115.31614685 C233.10241344 123.90275396 232.17514637 129.61030612 227.9432373 136.97935486 C227.56577236 137.66018112 227.18830742 138.34100738 226.79940414 139.04246473 C225.87759224 140.70131925 224.94038171 142.35160146 224 144 C179.42087042 144.09154167 134.84175079 144.16203169 90.26254576 144.20426132 C85.00038843 144.20926419 79.73823128 144.21444147 74.47607422 144.21972656 C73.42846692 144.2207758 72.38085962 144.22182505 71.30150664 144.22290608 C54.3354837 144.24031458 37.36951495 144.27185474 20.40352416 144.30861118 C2.99677789 144.34600819 -14.40993999 144.36823323 -31.81672478 144.37635398 C-42.55893927 144.38184432 -53.30100064 144.39918942 -64.04316801 144.43166587 C-71.40799095 144.45279842 -78.77273464 144.45920289 -86.1375857 144.45400551 C-90.38769108 144.45144178 -94.63752873 144.45539089 -98.88758659 144.4768219 C-102.78020363 144.49630712 -106.67237326 144.49725744 -110.56501102 144.48359558 C-111.97161337 144.48190743 -113.37824378 144.48696519 -114.78479099 144.49953273 C-123.78431642 144.57525422 -130.24530114 144.16657409 -137.2421875 138.03515625 C-142.39243778 131.81296393 -144.08621901 128.20996602 -144 120 C-139.41021962 119.9007037 -134.82107212 119.82833252 -130.23046875 119.78027344 C-128.67078756 119.76022778 -127.11118087 119.73298343 -125.55175781 119.69824219 C-123.30254686 119.64940874 -121.0543341 119.62696185 -118.8046875 119.609375 C-117.76838699 119.57840729 -117.76838699 119.57840729 -116.71115112 119.54681396 C-111.55929302 119.54445646 -109.12672744 121.09680759 -105 124 C-98.75832344 126.76595619 -92.92626601 127.44349235 -86.16577148 127.43237305 C-85.21311685 127.44264684 -84.26046221 127.45292063 -83.27893925 127.46350574 C-80.22625769 127.49315291 -77.17389876 127.50289786 -74.12109375 127.51171875 C-72.22398777 127.52720181 -70.32689208 127.54400169 -68.42980957 127.56213379 C-61.43248628 127.61984862 -54.43497209 127.65216443 -47.4375 127.6875 C-31.783125 127.790625 -16.12875 127.89375 0 128 C0 85.76 0 43.52 0 0 Z " fill="#E8E4DE" transform="translate(208,128)"/>
<path d="M0 0 C28.48048729 4.97278349 57.15773297 18.03505535 74.4375 42.0625 C81.1004543 51.65189259 86.34630961 61.03904141 86.22705078 72.93310547 C86.22734283 73.7045137 86.22763489 74.47592194 86.22793579 75.27070618 C86.22655011 77.8029838 86.21102512 80.33496172 86.1953125 82.8671875 C86.19157966 84.62980997 86.18873396 86.39243452 86.18673706 88.15505981 C86.17912198 92.78122749 86.15949182 97.40726843 86.1373291 102.03338623 C86.11682481 106.75921922 86.10772556 111.4850728 86.09765625 116.2109375 C86.07624386 125.47401384 86.04213366 134.73699636 86 144 C76.29811569 144.06983608 66.59631932 144.12298062 56.89423752 144.15543652 C52.38805953 144.17102202 47.88205485 144.19212851 43.37597656 144.22631836 C39.01875378 144.25916789 34.6616966 144.27690637 30.30435944 144.28463173 C28.65076342 144.2901297 26.99717538 144.30086442 25.34365082 144.31719017 C10.56577141 144.45715333 -2.65916158 143.27378307 -14.22265625 133.03125 C-22.25451713 124.74417111 -26.14085001 114.24390958 -26.203125 102.84375 C-26.20882507 102.02741089 -26.21452515 101.21107178 -26.22039795 100.36999512 C-26.22985515 98.63160495 -26.23638478 96.89319679 -26.24023438 95.15478516 C-26.2497606 92.5650796 -26.28069635 89.97623173 -26.3125 87.38671875 C-26.41535877 71.58541791 -24.74985922 56.23610891 -19.5 41.25 C-19.16323242 40.26338379 -18.82646484 39.27676758 -18.47949219 38.26025391 C-13.82016867 25.07833818 -8.1377199 11.44604528 0 0 Z " fill="#FDBD07" transform="translate(122,96)"/>
<path d="M0 0 C1.10794922 -0.01260864 2.21589844 -0.02521729 3.35742188 -0.03820801 C4.54916016 -0.03011108 5.74089844 -0.02201416 6.96875 -0.01367188 C8.19658203 -0.01749878 9.42441406 -0.02132568 10.68945312 -0.02526855 C13.28516459 -0.02799029 15.88090336 -0.02061099 18.4765625 -0.00390625 C22.45374599 0.01749738 26.42912282 -0.0037015 30.40625 -0.02929688 C32.92708733 -0.02665365 35.44792353 -0.02152878 37.96875 -0.01367188 C39.16048828 -0.0217688 40.35222656 -0.02986572 41.58007812 -0.03820801 C43.24200195 -0.01929504 43.24200195 -0.01929504 44.9375 0 C45.91138672 0.00318237 46.88527344 0.00636475 47.88867188 0.00964355 C51.3330394 0.68772897 52.33446714 1.74120578 54.46875 4.51757812 C54.86192553 7.13785045 55.00998353 9.33892816 54.97668457 11.95703125 C54.98292453 12.70900032 54.9891645 13.46096939 54.99559355 14.2357254 C55.01155672 16.75707799 54.99890689 19.27746826 54.98632812 21.79882812 C54.99174779 23.60571863 54.99886957 25.41260472 55.00756836 27.21948242 C55.02582322 32.12855843 55.01872526 37.03729865 55.00605202 41.94638062 C54.99593556 47.08014847 55.00531393 52.21388729 55.01159668 57.34765625 C55.01887703 65.96945363 55.00927519 74.59111403 54.99023438 83.21289062 C54.96846492 93.18546781 54.97551601 103.15771791 54.99754 113.13028717 C55.01568293 121.68750054 55.01825773 130.24461535 55.00778532 138.80184174 C55.00154431 143.91490542 55.00073146 149.02781529 55.01393127 154.14086914 C55.02547305 158.94755388 55.01749469 163.75381628 54.99435425 168.56045532 C54.9890582 170.32613422 54.99059621 172.09184856 54.99940491 173.85751343 C55.01030901 176.26486626 54.99666046 178.67085923 54.97668457 181.078125 C54.98560746 181.77967964 54.99453034 182.48123428 55.00372362 183.20404816 C54.94963036 186.55638261 54.66683531 188.25989974 52.59825897 190.95079803 C49.88202194 192.9492616 48.29208861 193.02419445 44.9375 193.03515625 C43.82955078 193.04776489 42.72160156 193.06037354 41.58007812 193.07336426 C40.38833984 193.06526733 39.19660156 193.05717041 37.96875 193.04882812 C36.12700195 193.05456848 36.12700195 193.05456848 34.24804688 193.0604248 C31.65233541 193.06314654 29.05659664 193.05576724 26.4609375 193.0390625 C22.48375401 193.01765887 18.50837718 193.03885775 14.53125 193.06445312 C12.01041267 193.0618099 9.48957647 193.05668503 6.96875 193.04882812 C5.77701172 193.05692505 4.58527344 193.06502197 3.35742188 193.07336426 C1.69549805 193.05445129 1.69549805 193.05445129 0 193.03515625 C-1.46083008 193.03038269 -1.46083008 193.03038269 -2.95117188 193.0255127 C-6.3955394 192.34742728 -7.39696714 191.29395047 -9.53125 188.51757812 C-9.92442553 185.8973058 -10.07248353 183.69622809 -10.03918457 181.078125 C-10.04542453 180.32615593 -10.0516645 179.57418686 -10.05809355 178.79943085 C-10.07405672 176.27807826 -10.06140689 173.75768799 -10.04882812 171.23632812 C-10.05424779 169.42943762 -10.06136957 167.62255153 -10.07006836 165.81567383 C-10.08832322 160.90659782 -10.08122526 155.9978576 -10.06855202 151.08877563 C-10.05843556 145.95500778 -10.06781393 140.82126896 -10.07409668 135.6875 C-10.08137703 127.06570262 -10.07177519 118.44404222 -10.05273438 109.82226562 C-10.03096492 99.84968844 -10.03801601 89.87743834 -10.06004 79.90486908 C-10.07818293 71.34765571 -10.08075773 62.7905409 -10.07028532 54.23331451 C-10.06404431 49.12025083 -10.06323146 44.00734096 -10.07643127 38.89428711 C-10.08797305 34.08760237 -10.07999469 29.28133997 -10.05685425 24.47470093 C-10.0515582 22.70902203 -10.05309621 20.94330769 -10.06190491 19.17764282 C-10.07280901 16.77028999 -10.05916046 14.36429702 -10.03918457 11.95703125 C-10.04810746 11.25547661 -10.05703034 10.55392197 -10.06622362 9.83110809 C-10.01213036 6.47877364 -9.72933531 4.77525651 -7.66075897 2.08435822 C-4.94452194 0.08589465 -3.35458861 0.0109618 0 0 Z " fill="#2B67B3" transform="translate(33.53125,295.482421875)"/>
<path d="M0 0 C31.68 0 63.36 0 96 0 C96 21.12 96 42.24 96 64 C64.32 64 32.64 64 0 64 C0 42.88 0 21.76 0 0 Z " fill="#CBE6FE" transform="translate(344,192)"/>
<path d="M0 0 C15.84 0 31.68 0 48 0 C48 42.24 48 84.48 48 128 C32.16 128 16.32 128 0 128 C0 85.76 0 43.52 0 0 Z " fill="#CBE6FE" transform="translate(208,128)"/>
<path d="M0 0 C3.4238892 2.96224121 6.03436793 6.6057215 8.6015625 10.3125 C9.35566406 11.3953125 9.35566406 11.3953125 10.125 12.5 C10.56070313 13.1703125 10.99640625 13.840625 11.4453125 14.53125 C12.9351298 16.22883319 12.9351298 16.22883319 15.3659668 16.29467773 C18.61492424 15.93120645 19.47671542 15.09912262 21.69921875 12.75390625 C22.35083984 12.08166016 23.00246094 11.40941406 23.67382812 10.71679688 C24.33833984 10.00587891 25.00285156 9.29496094 25.6875 8.5625 C27.02279405 7.16610575 28.35994519 5.77148423 29.69921875 4.37890625 C30.57839966 3.44413452 30.57839966 3.44413452 31.4753418 2.49047852 C33.5159259 0.49564009 34.87887408 0.02535194 37.6875 -0.5625 C43.66065249 0.45180891 46.40521865 5.85575616 49.859375 10.5 C50.46265625 11.304375 51.0659375 12.10875 51.6875 12.9375 C52.22761719 13.68902344 52.76773438 14.44054688 53.32421875 15.21484375 C55.24169365 17.25746853 56.23544588 17.74031586 59 18 C62.19623648 17.12949221 62.19623648 17.12949221 65 16 C53.06001514 31.25664732 35.46315801 41.93827328 18.10546875 50.0168457 C16.60005069 50.71980472 15.10351584 51.4419146 13.61328125 52.17651367 C6.46326761 55.60610324 -0.86356544 57.96140528 -8.47021484 60.11254883 C-10.50025452 60.6875721 -12.52557803 61.27733504 -14.55078125 61.86914062 C-21.9733946 64.01338332 -29.35882177 65.82636153 -37 67 C-37.47832275 66.0934668 -37.95664551 65.18693359 -38.44946289 64.25292969 C-40.25659399 60.82967556 -42.06715606 57.40824541 -43.87866211 53.98730469 C-44.65626467 52.51773368 -45.4329853 51.0476956 -46.20874023 49.57714844 C-47.33595331 47.4407627 -48.4659722 45.30589551 -49.59765625 43.171875 C-49.96823151 42.47203491 -50.33880676 41.77219482 -50.72061157 41.05114746 C-53.52765516 35.78914453 -56.52652835 30.68231822 -59.68530273 25.62207031 C-61.16119371 22.6785106 -61.73983158 20.27694337 -62 17 C-60.625 14.0625 -60.625 14.0625 -58 12 C-52.86998791 12.19672613 -48.46450462 13.07458735 -43.58984375 14.65625 C-42.66236328 14.9553125 -41.73488281 15.254375 -40.77929688 15.5625 C-38.87175397 16.19179251 -36.97306848 16.84854199 -35.08398438 17.53125 C-32.26081361 18.41140345 -29.96027951 19.00961865 -27 19 C-23.67841595 17.23504931 -21.45983591 14.80755073 -19 12 C-17.96686392 10.97575816 -16.92829484 9.9569489 -15.8828125 8.9453125 C-14.48586875 7.51670997 -13.08900649 6.08802306 -11.6953125 4.65625 C-7.83180588 0.72688816 -5.65620416 -0.9604875 0 0 Z " fill="#FDBE06" transform="translate(153,24)"/>
<path d="M0 0 C4.17074586 1.63786818 6.96319939 4.68904437 10.05371094 7.81079102 C10.64926285 8.40444458 11.24481476 8.99809814 11.8584137 9.60974121 C13.82198483 11.56961296 15.77827261 13.53658227 17.734375 15.50390625 C19.09592842 16.86665172 20.45785165 18.2290278 21.82012939 19.59104919 C24.67111921 22.44360227 27.51871925 25.2994822 30.36376953 28.15795898 C34.01968631 31.83090564 37.68219197 35.49719454 41.34701157 39.16125584 C44.15759296 41.9721084 46.96556635 44.78555378 49.77265167 47.59989738 C51.12292329 48.95336122 52.47381031 50.30621138 53.82530975 51.65844917 C55.70736579 53.54266064 57.58609929 55.43011984 59.46386719 57.31860352 C60.02797806 57.8822612 60.59208893 58.44591888 61.17329407 59.0266571 C65 62.88552342 65 62.88552342 65 64 C22.76 64 -19.48 64 -63 64 C-59.12027396 59.47365296 -55.2969902 55.15386462 -51.08642578 50.97290039 C-50.5295961 50.41592468 -49.97276642 49.85894897 -49.39906311 49.28509521 C-47.58351 47.47023101 -45.76445606 45.65892089 -43.9453125 43.84765625 C-42.67571469 42.57992626 -41.40633952 41.31197327 -40.13717651 40.04380798 C-36.81532426 36.72575224 -33.49047867 33.41071211 -30.16497803 30.09631348 C-26.76440491 26.70601645 -23.36670263 23.31284494 -19.96875 19.91992188 C-13.31528981 13.27714838 -6.65866041 6.63756054 0 0 Z " fill="#E2A800" transform="translate(391,128)"/>
<path d="M0 0 C2.1551538 10.71373478 4.5652232 24.38628426 -1.37176514 34.28778076 C-9.49515507 45.32660498 -20.46446857 54.34452222 -31 63 C-26.05 63.33 -21.1 63.66 -16 64 C-16 85.12 -16 106.24 -16 128 C-26.56 128 -37.12 128 -48 128 C-48 106.88 -48 85.76 -48 64 C-53.28 64 -58.56 64 -64 64 C-60.27814773 59.39230722 -56.24862551 55.23016033 -51.98046875 51.12890625 C-50.86512998 50.04893593 -49.74989755 48.96885578 -48.63476562 47.88867188 C-46.90712348 46.2166569 -45.17509547 44.550787 -43.42700195 42.90014648 C-41.71995442 41.28431341 -40.03653309 39.64670072 -38.35546875 38.00390625 C-37.83260788 37.52031143 -37.30974701 37.03671661 -36.77104187 36.53846741 C-32.69591457 32.49516004 -32.25102448 29.50511138 -32 24 C-30.79915771 23.94078369 -29.59831543 23.88156738 -28.36108398 23.82055664 C-23.78283806 23.23815226 -21.2885505 21.19945486 -18.22265625 17.87109375 C-17.72583847 17.36199966 -17.22902069 16.85290558 -16.71714783 16.3283844 C-15.14813783 14.71391289 -13.60518773 13.07710295 -12.0625 11.4375 C-10.48973911 9.79993742 -8.91206535 8.1672604 -7.33287048 6.53590393 C-5.91289684 5.06373256 -4.50508693 3.57985775 -3.09790039 2.09545898 C-1 0 -1 0 0 0 Z " fill="#A9C6EB" transform="translate(360,128)"/>
<path d="M0 0 C7.92 0 15.84 0 24 0 C24 42.24 24 84.48 24 128 C16.08 128 8.16 128 0 128 C0 85.76 0 43.52 0 0 Z " fill="#A9C6EB" transform="translate(256,128)"/>
<path d="M0 0 C5.28 0 10.56 0 16 0 C16 2.64 16 5.28 16 8 C16.66386719 7.96519531 17.32773438 7.93039063 18.01171875 7.89453125 C26.96988245 7.61990141 26.96988245 7.61990141 31 11 C32 13 32 13 32 24 C21.44 24 10.88 24 0 24 C0 26.64 0 29.28 0 32 C0.76143311 31.98428955 1.52286621 31.9685791 2.30737305 31.95239258 C5.7673394 31.88991547 9.2271869 31.85096828 12.6875 31.8125 C13.88568359 31.78736328 15.08386719 31.76222656 16.31835938 31.73632812 C17.47529297 31.72666016 18.63222656 31.71699219 19.82421875 31.70703125 C20.88729248 31.6913208 21.95036621 31.67561035 23.0456543 31.65942383 C26.42477331 32.04896775 28.27990964 32.99204546 31 35 C33.09814417 39.19628834 32.22688527 44.65034849 32.24023438 49.26635742 C32.24991423 51.29452939 32.28092532 53.32167642 32.3125 55.34960938 C32.32023437 57.27450195 32.32023437 57.27450195 32.328125 59.23828125 C32.34214355 61.002323 32.34214355 61.002323 32.35644531 62.80200195 C31.96232939 66.33797759 31.17635611 68.20624468 29 71 C25.98509443 72.00496852 23.95818308 72.10335303 20.8125 72.0625 C19.46091797 72.04896484 19.46091797 72.04896484 18.08203125 72.03515625 C17.39496094 72.02355469 16.70789063 72.01195312 16 72 C16 74.64 16 77.28 16 80 C10.72 80 5.44 80 0 80 C0 77.36 0 74.72 0 72 C-1.12148437 72.05220703 -1.12148437 72.05220703 -2.265625 72.10546875 C-3.25046875 72.13253906 -4.2353125 72.15960938 -5.25 72.1875 C-6.22453125 72.22230469 -7.1990625 72.25710937 -8.203125 72.29296875 C-11.42776918 71.95519178 -12.70790797 71.25529239 -15 69 C-16 66 -16 66 -16 56 C-5.44 56 5.12 56 16 56 C16 53.36 16 50.72 16 48 C15.20303711 48.01571045 14.40607422 48.0314209 13.58496094 48.04760742 C9.9733795 48.10997589 6.36191139 48.14899739 2.75 48.1875 C0.86861328 48.22520508 0.86861328 48.22520508 -1.05078125 48.26367188 C-2.25605469 48.27333984 -3.46132812 48.28300781 -4.703125 48.29296875 C-5.81333008 48.3086792 -6.92353516 48.32438965 -8.06738281 48.34057617 C-11.35000916 47.95935208 -12.68197998 47.31835911 -15 45 C-16.65685067 40.02944799 -16.30338389 34.86489453 -16.35009766 29.65820312 C-16.36665751 28.30614001 -16.39394924 26.95416446 -16.43212891 25.60253906 C-16.48707871 23.64441461 -16.505666 21.6853772 -16.5234375 19.7265625 C-16.54325684 18.55689941 -16.56307617 17.38723633 -16.58349609 16.18212891 C-15.82597791 12.05096069 -14.2403239 10.58192306 -11 8 C-8.10546875 7.51171875 -8.10546875 7.51171875 -5.1875 7.6875 C-3.72376953 7.75517578 -3.72376953 7.75517578 -2.23046875 7.82421875 C-1.49441406 7.88222656 -0.75835937 7.94023437 0 8 C0 5.36 0 2.72 0 0 Z " fill="#FEFDFC" transform="translate(152,136)"/>
<path d="M0 0 C10.56 0 21.12 0 32 0 C32 13.2 32 26.4 32 40 C21.44 40 10.88 40 0 40 C0 26.8 0 13.6 0 0 Z " fill="#A9C6EB" transform="translate(376,216)"/>
<path d="M0 0 C2.875 1.6875 2.875 1.6875 5 5 C5.90290167 11.65251133 6.10885197 17.44096499 2 23 C-0.80915474 24.40457737 -2.88810534 24.24895157 -6 24 C-9.1359157 22.22015595 -9.84102736 21.47691793 -11 18 C-12.0494539 6.63591344 -12.0494539 6.63591344 -8.875 1.6875 C-5.44657382 -0.32483711 -3.9001417 -0.81252952 0 0 Z " fill="#F8F9FB" transform="translate(59,328)"/>
<path d="M0 0 C5.28 0 10.56 0 16 0 C16 5.28 16 10.56 16 16 C10.72 16 5.44 16 0 16 C0 10.72 0 5.44 0 0 Z " fill="#FEBE07" transform="translate(16,152)"/>
<path d="M0 0 C5.28 0 10.56 0 16 0 C16 5.28 16 10.56 16 16 C10.72 16 5.44 16 0 16 C0 10.72 0 5.44 0 0 Z " fill="#FEBE07" transform="translate(32,104)"/>
<path d="M0 0 C5.28 0 10.56 0 16 0 C16 5.28 16 10.56 16 16 C10.72 16 5.44 16 0 16 C0 10.72 0 5.44 0 0 Z " fill="#FEBE07" transform="translate(424,96)"/>
<path d="M0 0 C5.28 0 10.56 0 16 0 C16 5.28 16 10.56 16 16 C10.72 16 5.44 16 0 16 C0 10.72 0 5.44 0 0 Z " fill="#FEBE07" transform="translate(48,88)"/>
<path d="M0 0 C5.28 0 10.56 0 16 0 C16 5.28 16 10.56 16 16 C10.72 16 5.44 16 0 16 C0 10.72 0 5.44 0 0 Z " fill="#FEBE07" transform="translate(16,88)"/>
<path d="M0 0 C5.28 0 10.56 0 16 0 C16 5.28 16 10.56 16 16 C10.72 16 5.44 16 0 16 C0 10.72 0 5.44 0 0 Z " fill="#FEBE07" transform="translate(480,72)"/>
<path d="M0 0 C5.28 0 10.56 0 16 0 C16 5.28 16 10.56 16 16 C10.72 16 5.44 16 0 16 C0 10.72 0 5.44 0 0 Z " fill="#FEBE07" transform="translate(32,72)"/>
<path d="M0 0 C5.28 0 10.56 0 16 0 C16 5.28 16 10.56 16 16 C10.72 16 5.44 16 0 16 C0 10.72 0 5.44 0 0 Z " fill="#FEBE07" transform="translate(440,48)"/>
<path d="M0 0 C5.28 0 10.56 0 16 0 C16 5.28 16 10.56 16 16 C10.72 16 5.44 16 0 16 C0 10.72 0 5.44 0 0 Z " fill="#FEBE07" transform="translate(456,32)"/>
<path d="M0 0 C5.28 0 10.56 0 16 0 C16 5.28 16 10.56 16 16 C10.72 16 5.44 16 0 16 C0 10.72 0 5.44 0 0 Z " fill="#FEBE07" transform="translate(424,32)"/>
<path d="M0 0 C5.28 0 10.56 0 16 0 C16 5.28 16 10.56 16 16 C10.72 16 5.44 16 0 16 C0 10.72 0 5.44 0 0 Z " fill="#FEBE07" transform="translate(440,16)"/>
<path d="M0 0 C5.28 0 10.56 0 16 0 C16 5.28 16 10.56 16 16 C10.72 16 5.44 16 0 16 C0 10.72 0 5.44 0 0 Z " fill="#FEBE07" transform="translate(48,16)"/>
<path d="M0 0 C2.64 0 5.28 0 8 0 C8 5.28 8 10.56 8 16 C5.36 16 2.72 16 0 16 C0 10.72 0 5.44 0 0 Z " fill="#2B67B3" transform="translate(256,216)"/>
<path d="M0 0 C2.64 0 5.28 0 8 0 C8 5.28 8 10.56 8 16 C5.36 16 2.72 16 0 16 C0 10.72 0 5.44 0 0 Z " fill="#2B67B3" transform="translate(232,216)"/>
<path d="M0 0 C2.64 0 5.28 0 8 0 C8 5.28 8 10.56 8 16 C5.36 16 2.72 16 0 16 C0 10.72 0 5.44 0 0 Z " fill="#2B67B3" transform="translate(256,184)"/>
<path d="M0 0 C2.64 0 5.28 0 8 0 C8 5.28 8 10.56 8 16 C5.36 16 2.72 16 0 16 C0 10.72 0 5.44 0 0 Z " fill="#2B67B3" transform="translate(232,184)"/>
<path d="M0 0 C2.64 0 5.28 0 8 0 C8 5.28 8 10.56 8 16 C5.36 16 2.72 16 0 16 C0 10.72 0 5.44 0 0 Z " fill="#2B67B3" transform="translate(328,152)"/>
<path d="M0 0 C2.64 0 5.28 0 8 0 C8 5.28 8 10.56 8 16 C5.36 16 2.72 16 0 16 C0 10.72 0 5.44 0 0 Z " fill="#2B67B3" transform="translate(304,152)"/>
<path d="M0 0 C2.64 0 5.28 0 8 0 C8 5.28 8 10.56 8 16 C5.36 16 2.72 16 0 16 C0 10.72 0 5.44 0 0 Z " fill="#2B67B3" transform="translate(256,152)"/>
<path d="M0 0 C2.64 0 5.28 0 8 0 C8 5.28 8 10.56 8 16 C5.36 16 2.72 16 0 16 C0 10.72 0 5.44 0 0 Z " fill="#2B67B3" transform="translate(232,152)"/>
<path d="M0 0 C2.64 0 5.28 0 8 0 C8 5.28 8 10.56 8 16 C5.36 16 2.72 16 0 16 C0 10.72 0 5.44 0 0 Z " fill="#2B67B3" transform="translate(328,120)"/>
<path d="M0 0 C2.64 0 5.28 0 8 0 C8 5.28 8 10.56 8 16 C5.36 16 2.72 16 0 16 C0 10.72 0 5.44 0 0 Z " fill="#2B67B3" transform="translate(304,120)"/>
<path d="M0 0 C2.64 0 5.28 0 8 0 C8 5.28 8 10.56 8 16 C5.36 16 2.72 16 0 16 C0 10.72 0 5.44 0 0 Z " fill="#2B67B3" transform="translate(328,88)"/>
<path d="M0 0 C2.64 0 5.28 0 8 0 C8 5.28 8 10.56 8 16 C5.36 16 2.72 16 0 16 C0 10.72 0 5.44 0 0 Z " fill="#2B67B3" transform="translate(304,88)"/>
<path d="M0 0 C2.64 0 5.28 0 8 0 C8 5.28 8 10.56 8 16 C5.36 16 2.72 16 0 16 C0 10.72 0 5.44 0 0 Z " fill="#2B67B3" transform="translate(328,56)"/>
<path d="M0 0 C2.64 0 5.28 0 8 0 C8 5.28 8 10.56 8 16 C5.36 16 2.72 16 0 16 C0 10.72 0 5.44 0 0 Z " fill="#2B67B3" transform="translate(304,56)"/>
<path d="M0 0 C1.32 0 2.64 0 4 0 C2.92598892 2.91517292 2.22189824 4.77810176 0 7 C0 4.69 0 2.38 0 0 Z " fill="#E9E5DE" transform="translate(440,248)"/>
</svg>
