<?xml version="1.0" encoding="UTF-8"?>
<svg version="1.1" xmlns="http://www.w3.org/2000/svg" width="512" height="512">
<path d="M0 0 C9.68631875 8.04002742 19.50775405 17.50167729 25 29 C25.70382812 28.97905273 26.40765625 28.95810547 27.1328125 28.93652344 C41.02524969 28.5783307 53.77559207 28.38364562 67 33 C68.03640625 33.33902344 69.0728125 33.67804688 70.140625 34.02734375 C87.80924125 40.52587931 102.24195736 54.53115989 111 71 C111.48305145 72.3004001 111.93006993 73.61488801 112.3359375 74.94140625 C113.54325904 78.8267128 114.55229833 81.73789759 117 85 C121.84140633 87.42733886 127.42428224 87.81240559 132.71972656 88.58398438 C147.47587962 91.27611337 160.5915703 101.7630436 171 112 C171.77214844 112.75925781 172.54429687 113.51851562 173.33984375 114.30078125 C189.87343704 131.56920091 197.44241133 155.4283591 197.21484375 179.01953125 C196.04848785 200.62892512 188.56689299 220.7602306 174 237 C173.18789063 237.90621094 172.37578125 238.81242187 171.5390625 239.74609375 C157.04483165 255.06917358 136.2822962 266.07495729 114.95835876 267.15390015 C113.88534012 267.16676056 112.81232147 267.17962097 111.70678711 267.19287109 C110.48209213 267.20893402 109.25739716 267.22499695 107.99559021 267.24154663 C102.44131879 267.28618361 96.88717163 267.32742966 91.33276367 267.35009766 C88.4004829 267.36347478 85.4688918 267.39141197 82.53686523 267.43212891 C78.98315647 267.4814589 75.43007599 267.50621645 71.87603951 267.51332474 C69.87236659 267.52327598 67.86886164 267.55750489 65.86546326 267.59213257 C55.76882488 267.56857565 55.76882488 267.56857565 52.67431641 264.59619141 C50.57142431 261.33545146 50.33196476 259.69176184 50.56640625 255.93359375 C51.24805393 252.89381354 52.80232287 251.13303956 55 249 C57.54935503 247.72532248 59.35132464 247.86850042 62.20556641 247.8581543 C63.29495514 247.85111984 64.38434387 247.84408539 65.50674438 247.83683777 C67.28617935 247.83059135 67.28617935 247.83059135 69.1015625 247.82421875 C71.61979974 247.80098938 74.1380289 247.77687087 76.65625 247.75195312 C80.62090112 247.71707707 84.58502033 247.68763678 88.54980469 247.67407227 C114.21922189 247.66559045 114.21922189 247.66559045 138.25 239.375 C138.90419922 239.03509033 139.55839844 238.69518066 140.23242188 238.3449707 C157.43052203 229.03912066 168.09048132 213.96973617 174.375 195.6875 C179.2435631 177.23605496 176.57206863 157.41568192 167.625 140.70703125 C165.08557268 136.47668719 162.26132235 132.69840678 159 129 C158.34386719 128.24976563 157.68773437 127.49953125 157.01171875 126.7265625 C143.07491086 111.79608823 125.5651079 106.6580539 105.97021484 104.30957031 C104 104 104 104 101 103 C100.11206055 101.20922852 100.11206055 101.20922852 99.38671875 98.87890625 C99.11166504 98.03054199 98.83661133 97.18217773 98.55322266 96.30810547 C98.26753418 95.40205566 97.9818457 94.49600586 97.6875 93.5625 C92.34132577 77.56897403 83.99155125 64.60422854 69 56 C51.03106818 47.05123395 34.18316663 48.3460635 15 52 C14.30777344 50.71029297 14.30777344 50.71029297 13.6015625 49.39453125 C0.92193533 26.23439974 -17.0494091 7.89436025 -42.6875 -0.375 C-44.78306169 -0.9490569 -46.88732515 -1.49253069 -49 -2 C-49.92683594 -2.22429687 -50.85367188 -2.44859375 -51.80859375 -2.6796875 C-75.14281365 -7.40478612 -100.11735365 -2.63675655 -119.97045898 10.42285156 C-125.42388496 14.1528144 -130.32260948 18.33055072 -135 23 C-135.76957031 23.75796875 -136.53914063 24.5159375 -137.33203125 25.296875 C-153.78222175 42.44766987 -161.31885912 66.0867926 -161.16796875 89.53515625 C-160.9306453 94.43064224 -160.3519465 99.26735553 -159.71166992 104.125 C-159.23244142 107.77789046 -158.8845961 111.31428795 -159 115 C-160.66666667 115.41666667 -162.33333333 115.83333333 -164 116.25 C-165.093125 116.52714844 -166.18625 116.80429688 -167.3125 117.08984375 C-169.85184516 117.71661009 -172.38493907 118.31396446 -174.9375 118.87890625 C-192.36048564 122.81896775 -208.15244143 131.2147379 -218.07177734 146.66992188 C-227.64284873 162.51228325 -231.11970544 180.17616404 -227.15625 198.51953125 C-224.61516917 208.15128589 -219.87117843 218.15423641 -212.75390625 225.234375 C-211 227 -211 227 -211 229 C-210.42121094 229.26296875 -209.84242188 229.5259375 -209.24609375 229.796875 C-206.88686574 231.06060061 -205.09702828 232.51616016 -203.0625 234.25 C-189.82680244 244.66497513 -174.6466535 247.44440733 -158.22265625 247.40625 C-156.83929738 247.41550952 -155.45594908 247.42648909 -154.07261658 247.43908691 C-148.99787348 247.48162976 -143.9231569 247.49313972 -138.8482666 247.50531006 C-134.53019021 247.51685826 -130.21250364 247.54042861 -125.89459038 247.58000183 C-123.88444798 247.59350289 -121.87421135 247.58921458 -119.86402893 247.58459473 C-118.64183151 247.59470581 -117.41963409 247.60481689 -116.16040039 247.61523438 C-115.08850967 247.61728882 -114.01661896 247.61934326 -112.9122467 247.62145996 C-109.55452741 248.05790348 -107.70563106 248.99074193 -105 251 C-102.53248761 254.70126859 -102.69278844 256.62223532 -103 261 C-104.18767855 264.38031589 -104.89825225 264.93216817 -108 267 C-110.82791138 267.26742554 -110.82791138 267.26742554 -114.31298828 267.29052734 C-115.61930206 267.30328705 -116.92561584 267.31604675 -118.27151489 267.32919312 C-119.70444592 267.33225455 -121.13737894 267.33448029 -122.5703125 267.3359375 C-124.04987718 267.34237216 -125.52944061 267.34910101 -127.00900269 267.35610962 C-130.12110325 267.36810156 -133.2330928 267.37178949 -136.34521484 267.37060547 C-139.50690897 267.37044412 -142.66801636 267.38412772 -145.82958984 267.41162109 C-185.89002384 267.75485859 -185.89002384 267.75485859 -201.375 259.25 C-202.02871582 258.90565918 -202.68243164 258.56131836 -203.35595703 258.20654297 C-219.05107826 249.72863298 -230.07566423 238.22817869 -239 223 C-239.64775391 221.90365234 -239.64775391 221.90365234 -240.30859375 220.78515625 C-250.5292059 201.97445761 -251.03652663 179.34756757 -246 159 C-239.65945975 137.88809125 -225.64968135 119.37545587 -206.27416992 108.70239258 C-197.67285917 104.14307332 -189.80141916 100.49007096 -180 100 C-180.33 99.01 -180.66 98.02 -181 97 C-183.45269798 66.57911262 -174.36605865 37.85814653 -154.84375 14.41015625 C-115.61818193 -30.40919882 -46.97418781 -37.81990086 0 0 Z " fill="#F25D14" transform="translate(282,91)"/>
<path d="M0 0 C2.51344921 1.66308524 3.56578149 2.44487021 5 5 C5.76532151 9.25078819 5.68975108 13.46722063 5.65942383 17.77661133 C5.66990753 19.07456635 5.68039124 20.37252136 5.69119263 21.70980835 C5.71931692 25.26122744 5.71687161 28.81204211 5.70889878 32.36353898 C5.70577205 36.07787357 5.73081287 39.79201621 5.75285339 43.50627136 C5.79029586 50.53620888 5.80244148 57.56595296 5.8054778 64.59598035 C5.81016843 72.6008739 5.84309182 80.60557366 5.87837565 88.61038172 C5.95031067 105.07357624 5.98682697 121.53665138 6 138 C6.47421387 137.52054932 6.94842773 137.04109863 7.43701172 136.54711914 C9.58040335 134.38298162 11.7276439 132.22270353 13.875 130.0625 C14.62136719 129.30775391 15.36773437 128.55300781 16.13671875 127.77539062 C16.85214844 127.05673828 17.56757813 126.33808594 18.3046875 125.59765625 C18.96452637 124.93258057 19.62436523 124.26750488 20.30419922 123.58227539 C23.31389856 120.77406038 25.88144619 120.65238993 29.9609375 120.7265625 C33.3282394 121.17811639 34.83668648 122.44335675 37 125 C38.36640264 129.25996117 38.37584348 131.2137183 36.43774414 135.26831055 C33.8521627 139.55242741 30.48857104 142.90728623 26.93359375 146.39453125 C26.25829117 147.06796066 25.58298859 147.74139008 24.88722229 148.43522644 C23.46779459 149.84796729 22.04479133 151.25712387 20.6184082 152.6628418 C18.43368559 154.81625975 16.25995346 156.98030457 14.08789062 159.14648438 C12.70374849 160.52146126 11.31900371 161.89583181 9.93359375 163.26953125 C9.28353867 163.91533646 8.63348358 164.56114166 7.96372986 165.22651672 C7.35622391 165.82441513 6.74871796 166.42231354 6.12280273 167.03833008 C5.59081772 167.56348709 5.0588327 168.0886441 4.51072693 168.62971497 C0.85138592 171.94887221 -1.76523031 172.68013209 -6.54736328 172.55377197 C-11.48481283 171.4389631 -14.53437993 167.6581195 -17.9375 164.1171875 C-19.14672119 162.90665207 -19.14672119 162.90665207 -20.38037109 161.67166138 C-22.07507535 159.96558148 -23.75882478 158.24855833 -25.43212891 156.52148438 C-27.99494883 153.88020581 -30.59322552 151.27830667 -33.19921875 148.6796875 C-34.84336985 147.01521476 -36.4853731 145.34861708 -38.125 143.6796875 C-39.28890259 142.51214432 -39.28890259 142.51214432 -40.47631836 141.3210144 C-45.72361888 135.86230405 -45.72361888 135.86230405 -47.0703125 131.66064453 C-46.97639785 128.10688826 -45.89586964 125.97922373 -44 123 C-40.87210111 120.91473407 -38.91023587 120.38802548 -35.16796875 120.50390625 C-30.75564369 121.51357343 -28.09114317 124.88625735 -25 128 C-24.14519043 128.85480957 -23.29038086 129.70961914 -22.40966797 130.59033203 C-18.70483398 134.29516602 -18.70483398 134.29516602 -15 138 C-14.99945523 137.31916257 -14.99891047 136.63832514 -14.99834919 135.93685627 C-14.98338118 119.36971781 -14.94093385 102.8029008 -14.86790943 86.23592091 C-14.83325776 78.22422555 -14.8079037 70.21270228 -14.80444336 62.20092773 C-14.80140369 55.21775205 -14.78091315 48.23488282 -14.73947543 41.25182551 C-14.71814355 37.55432848 -14.70554548 33.85726714 -14.71384621 30.15970802 C-14.72278652 26.03157939 -14.6927661 21.90461499 -14.65942383 17.77661133 C-14.66804947 16.55093948 -14.67667511 15.32526764 -14.68556213 14.06245422 C-14.56035896 4.84096835 -14.56035896 4.84096835 -11.64628601 1.76396179 C-7.410784 -1.05933988 -4.86376542 -1.36185432 0 0 Z " fill="#F49517" transform="translate(217,273)"/>
<path d="M0 0 C7.48561581 5.31072562 13.94596366 12.65783961 20.45654297 19.10644531 C21.74096682 20.37419682 23.03074743 21.63654281 24.32568359 22.89355469 C26.21642275 24.72945526 28.09010699 26.58134156 29.9609375 28.4375 C30.82650772 29.26906616 30.82650772 29.26906616 31.70956421 30.11743164 C35.35607967 33.78338694 37.12787289 36.74410399 38 42 C36.15305674 48.2590855 36.15305674 48.2590855 33.14624023 50.19116211 C29.25703149 51.65685982 25.91193844 51.29814986 22 50 C18.740164 47.67215833 16.12860404 44.89090472 13.4375 41.9375 C12.71498047 41.17888672 11.99246094 40.42027344 11.24804688 39.63867188 C9.4790917 37.77599722 7.73157087 35.89736297 6 34 C5.99761165 34.6602225 5.99522329 35.320445 5.99276257 36.00067425 C5.93362064 52.06705461 5.85807587 68.1332615 5.76428509 84.19947338 C5.71932384 91.96898734 5.67990998 99.73845542 5.65356445 107.50805664 C5.63058698 114.2802266 5.59719187 121.05225144 5.55129844 127.82430631 C5.52736267 131.40991799 5.50863629 134.99538592 5.50238609 138.58107567 C5.49521261 142.58445082 5.46478103 146.58732576 5.43237305 150.59057617 C5.43380814 151.77884506 5.43524323 152.96711395 5.4367218 154.19139099 C5.42418365 155.28369019 5.41164551 156.37598938 5.39872742 157.50138855 C5.39181397 158.92141064 5.39181397 158.92141064 5.38476086 160.37012005 C4.92353048 163.52267703 3.84409961 165.42362513 2 168 C-0.55650323 169.43905512 -3.07826495 169.8840143 -6 170 C-10.09321211 168.55979574 -11.58367421 167.62448869 -14 164 C-14.26171303 161.60059834 -14.26171303 161.60059834 -14.2784729 158.70393372 C-14.28963638 157.6059697 -14.30079987 156.50800568 -14.31230164 155.37677002 C-14.31446182 154.17195984 -14.31662201 152.96714966 -14.31884766 151.72583008 C-14.32889328 150.45742783 -14.3389389 149.18902557 -14.34928894 147.88218689 C-14.37661857 144.40314953 -14.39174704 140.92415272 -14.40471697 137.44503617 C-14.4203346 133.80947603 -14.44712916 130.17399887 -14.4727478 126.53849792 C-14.51955987 119.65376497 -14.55629219 112.76901644 -14.58942068 105.88420552 C-14.62762494 98.04626531 -14.67703952 90.20840839 -14.72740483 82.37053835 C-14.83076079 66.24708536 -14.92000923 50.12358619 -15 34 C-15.43344727 34.4439209 -15.86689453 34.8878418 -16.31347656 35.34521484 C-18.28701429 37.36041732 -20.26838304 39.36774289 -22.25 41.375 C-22.93191406 42.07367188 -23.61382812 42.77234375 -24.31640625 43.4921875 C-24.98027344 44.1625 -25.64414062 44.8328125 -26.328125 45.5234375 C-26.9355957 46.14138184 -27.54306641 46.75932617 -28.16894531 47.39599609 C-30.69334552 49.60737068 -32.85542775 50.90327558 -36.21875 51.1875 C-40.57661716 50.82931914 -42.43515468 50.56484532 -45.625 47.375 C-47.3566736 43.12452843 -47.43282312 41.37388109 -46 37 C-40.60570653 29.49110679 -33.25286857 23.06672673 -26.72875977 16.54345703 C-24.80130309 14.61379025 -22.88201892 12.67622693 -20.96289062 10.73828125 C-19.73225997 9.50472016 -18.501157 8.27163006 -17.26953125 7.0390625 C-16.69966995 6.46201569 -16.12980865 5.88496887 -15.54267883 5.29043579 C-10.2969465 0.07471949 -7.40822246 -2.09899636 0 0 Z " fill="#F48816" transform="translate(304,273)"/>
</svg>
