<?xml version="1.0" encoding="UTF-8"?>
<svg version="1.1" xmlns="http://www.w3.org/2000/svg" width="512" height="512">
<path d="M0 0 C3.42414771 3.54333154 4.76731351 6.68678855 5.96020508 11.42431641 C6.12229871 12.05319228 6.28439234 12.68206816 6.4513979 13.33000088 C6.98625493 15.41764118 7.50282226 17.50936319 8.01953125 19.6015625 C8.39811459 21.09382772 8.77785162 22.58580065 9.15866089 24.07749939 C10.17981135 28.09069381 11.1853115 32.10765514 12.18758774 36.12559891 C13.23176416 40.30189029 14.28886193 44.47490658 15.3449707 48.64819336 C16.63501594 53.74936062 17.92347536 58.85090919 19.20530701 63.95414734 C21.77575164 74.18481854 24.38433099 84.40456525 27.03979683 94.61349487 C28.09679617 98.68044043 29.14786433 102.74892358 30.1992712 106.81731796 C31.01925013 109.98824817 31.84353297 113.15796201 32.67373657 116.32623291 C33.58812333 119.82044553 34.48896013 123.31789059 35.38671875 126.81640625 C35.65451141 127.82565659 35.92230408 128.83490692 36.19821167 129.8747406 C39.30791264 142.12703558 39.30791264 142.12703558 38 147 C34.36445505 152.58079558 31.19503723 154.1316865 24.83081055 155.58325195 C24.03919116 155.78300031 23.24757177 155.98274866 22.43196392 156.18855 C20.7756794 156.60464025 19.11702686 157.01140835 17.45623398 157.40912247 C15.13755906 157.96690846 12.82876647 158.55312196 10.52090454 159.15390015 C5.92235079 160.34973218 1.31522444 161.50993332 -3.29296875 162.66796875 C-5.02542477 163.10507461 -6.75782994 163.5423821 -8.4901886 163.97987366 C-12.15786987 164.90571605 -15.82586918 165.83028291 -19.49414062 166.75378418 C-25.25838545 168.20500758 -31.02184251 169.65934176 -36.78515625 171.11425781 C-42.69328636 172.60560477 -48.60144747 174.0968277 -54.50985718 175.58706665 C-72.29760848 180.07356609 -90.08274896 184.57032093 -107.8656311 189.07608032 C-111.69122629 190.04532011 -115.51712762 191.01334545 -119.34311199 191.98104763 C-122.18193699 192.69929821 -125.02053216 193.41845367 -127.85906029 194.13787651 C-129.77372911 194.62288777 -131.68865573 195.10688102 -133.60359192 195.59083557 C-140.36577417 197.29919126 -140.36577417 197.29919126 -147.07226562 199.20996094 C-150 200 -150 200 -154 200 C-154 235.31 -154 270.62 -154 307 C-152.68 307.33 -151.36 307.66 -150 308 C-141.42803426 312.64444689 -136.09037315 317.72888056 -133 327 C-74.92 327 -16.84 327 43 327 C43 307.86 43 288.72 43 269 C47 263 47 263 54 259 C70.17 259 86.34 259 103 259 C103 322.36 103 385.72 103 451 C51.40229988 451 51.40229988 451 45.59912109 445.46264648 C40.79168528 439.32711086 42.27955823 429.98708181 42.4140625 422.59765625 C42.42526325 420.79163526 42.43379929 418.98559596 42.43978882 417.17955017 C42.46261818 412.44278995 42.52148965 407.70714641 42.5880127 402.9708252 C42.6495631 398.1310944 42.67683098 393.29118186 42.70703125 388.45117188 C42.77123938 378.96695924 42.87354663 369.48357274 43 360 C20.15596611 359.92037369 -2.68761809 359.89204845 -25.53177834 359.92484188 C-36.13872368 359.93887158 -46.74516816 359.93609661 -57.35205078 359.89379883 C-66.59678516 359.85697557 -75.84090878 359.8516438 -85.08566892 359.88417059 C-89.98123754 359.90029422 -94.87566051 359.90061921 -99.77113724 359.86323357 C-104.37967187 359.82853676 -108.98622377 359.83596447 -113.59469986 359.87562943 C-115.28537167 359.88276976 -116.97618929 359.87455085 -118.66669464 359.84977531 C-127.55393785 359.39368614 -127.55393785 359.39368614 -135.24848557 362.96145821 C-136.88121499 365.29226337 -136.88121499 365.29226337 -137.94985008 367.74691105 C-141.37017516 375.08519343 -150.05366188 378.42146475 -157.125 381.25 C-168.43404805 383.43884801 -179.61627562 382.59633998 -189.53515625 376.421875 C-198.66742525 369.65271401 -205.22132451 361.46822197 -207 350 C-207.8088226 337.26104409 -206.29886698 326.99930297 -198 317 C-194.94939867 313.97212196 -191.8684418 310.9342209 -188 309 C-187.505 259.5 -187.505 259.5 -187 209 C-196.425625 211.43375 -205.85125 213.8675 -215.5625 216.375 C-221.58301516 217.92572948 -227.60362831 219.47604248 -233.625 221.0234375 C-234.38772217 221.21944927 -235.15044434 221.41546104 -235.9362793 221.61741257 C-240.80154038 222.867598 -245.66696451 224.11714762 -250.5324707 225.36637878 C-253.01062835 226.00272919 -255.48871732 226.63934653 -257.96679688 227.27600098 C-266.97114387 229.58890259 -275.97675687 231.89674225 -284.98515224 234.19383049 C-288.90340798 235.19299941 -292.82113631 236.19412533 -296.73757935 237.20037842 C-300.43698507 238.15073543 -304.13785071 239.09518281 -307.83988953 240.03522873 C-309.19679334 240.38081531 -310.55317958 240.72844194 -311.90898132 241.07832718 C-331.24906812 246.0653919 -331.24906812 246.0653919 -336.875 243.5625 C-340.78215853 240.9486833 -341.97213319 237.44354727 -343 233 C-343.33883169 231.00092416 -343.67270075 229.00099633 -344 227 C-345.3614917 227.36351562 -345.3614917 227.36351562 -346.75048828 227.734375 C-350.13715741 228.63483157 -353.5254491 229.52859843 -356.91503906 230.41796875 C-358.37830333 230.80334458 -359.84088298 231.19133016 -361.30273438 231.58203125 C-363.41098789 232.14499813 -365.52157146 232.69835729 -367.6328125 233.25 C-368.90012207 233.58515625 -370.16743164 233.9203125 -371.47314453 234.265625 C-374.85623266 234.97006423 -377.57170853 235.45178559 -381 235 C-384.3377973 231.66843298 -385.16892892 227.49177629 -386.26831055 223.05371094 C-386.47357361 222.25643082 -386.67883667 221.4591507 -386.89031982 220.63771057 C-387.56520547 218.00556642 -388.22638077 215.37020333 -388.88671875 212.734375 C-389.35271482 210.89823898 -389.81926043 209.06224234 -390.28633118 207.22637939 C-391.2631478 203.37785377 -392.23317205 199.5276958 -393.19848633 195.67626953 C-394.43312897 190.75262187 -395.68459861 185.83343945 -396.94125652 180.91537094 C-397.90813448 177.1234509 -398.8659035 173.32927499 -399.82099342 169.53437042 C-400.27867625 167.72047334 -400.73917169 165.90728345 -401.20258141 164.094841 C-401.85093903 161.55340723 -402.48692041 159.009175 -403.11987305 156.46386719 C-403.31152542 155.72280228 -403.5031778 154.98173737 -403.70063782 154.21821594 C-404.89041988 149.36145116 -405.16931302 145.00125278 -405 140 C-399.87674471 137.54510684 -395.66104589 136.49658297 -390 136 C-394.58795579 129.9401403 -399.39837639 124.10240432 -404.35473633 118.34301758 C-408.08222211 113.98980218 -409.10692733 111.8356901 -409.5234375 106.0703125 C-408.71266882 102.86354085 -406.65029875 101.86627903 -404 100 C-401.39016724 98.99954224 -401.39016724 98.99954224 -398.52783203 98.27783203 C-397.42597565 97.99336212 -396.32411926 97.70889221 -395.18887329 97.415802 C-393.97412323 97.11616547 -392.75937317 96.81652893 -391.5078125 96.5078125 C-390.18424236 96.17148856 -388.86095814 95.8340378 -387.53793335 95.49557495 C-383.85545464 94.55705002 -380.16906234 93.63478081 -376.48190308 92.71484375 C-372.46145196 91.70867681 -368.44485535 90.6873334 -364.42773438 89.66796875 C-356.11636983 87.56168663 -347.80134255 85.4701844 -339.4852562 83.38263321 C-327.97762181 80.49341851 -316.47320979 77.59144283 -304.96867752 74.68990517 C-298.64732294 73.09563324 -292.32587529 71.50173054 -286.00439453 69.90795898 C-284.73359983 69.58755992 -283.46280514 69.26716085 -282.15350151 68.93705273 C-273.67792207 66.80041452 -265.20178693 64.66599218 -256.72537112 62.53267467 C-228.535534 55.43762299 -200.3568559 48.30447565 -172.21123886 41.0359993 C-149.96286963 35.29101981 -127.69162361 29.63853427 -105.41015625 24.0234375 C-104.71181624 23.84744577 -104.01347623 23.67145404 -103.2939744 23.49012923 C-88.42570859 19.74332743 -73.55628447 16.00113543 -58.68589878 12.26275635 C-53.37847318 10.92844699 -48.071275 9.59323379 -42.7640667 8.25806046 C-39.06201733 7.32713558 -35.35963951 6.39752546 -31.65724182 5.46798706 C-29.40860538 4.90246369 -27.15998295 4.33688463 -24.91137695 3.77124023 C-23.90247532 3.51836022 -22.89357368 3.26548021 -21.85409927 3.00493717 C-17.89608423 2.00815707 -13.95624471 1.00260767 -10.04850769 -0.17710876 C-6.24195829 -1.20462008 -3.79044829 -1.07276838 0 0 Z " fill="#DAE1EA" transform="translate(409,31)"/>
<path d="M0 0 C3.34182365 3.4787572 4.73560042 6.5435808 5.92285156 11.1796875 C6.24288147 12.40445801 6.56291138 13.62922852 6.89263916 14.89111328 C7.22575018 16.21896294 7.55840107 17.54692811 7.890625 18.875 C8.24269473 20.24617199 8.59571706 21.6170997 8.949646 22.98779297 C9.68687065 25.85385282 10.41557334 28.72189535 11.13769531 31.59179688 C12.06185317 35.26358317 13.00242823 38.93090588 13.94882584 42.59701538 C14.67779827 45.42509115 15.40039138 48.25476441 16.12084198 51.08502197 C16.46550783 52.43772248 16.81158751 53.79006357 17.15912628 55.14202881 C17.64376121 57.03323697 18.11943268 58.92673519 18.59472656 60.8203125 C18.86690002 61.89555176 19.13907349 62.97079102 19.41949463 64.07861328 C19.96277518 66.81266653 20.11538531 69.22305492 20 72 C-7.96843909 79.81334049 -7.96843909 79.81334049 -19.75 82.6875 C-25.55222726 84.1030896 -31.2861896 85.63692432 -37 87.375 C-45.69359854 90.01509026 -54.50045918 92.17521095 -63.32617188 94.32568359 C-71.29345342 96.27847119 -79.19431462 98.41721295 -87.09204102 100.62988281 C-96.21284669 103.18328875 -105.35824055 105.64791131 -114.5 108.125 C-115.53979004 108.40690186 -116.57958008 108.68880371 -117.65087891 108.97924805 C-132.92545241 113.11770788 -148.21912998 117.17560119 -163.534729 121.15930176 C-180.16005897 125.48566105 -196.74176623 129.96733208 -213.3125 134.49804688 C-223.294264 137.22152858 -233.28518665 139.87400861 -243.33773804 142.32540894 C-248.27490071 143.53585277 -253.13670568 144.89419542 -258 146.375 C-265.60477553 148.67583931 -273.28549898 150.60193933 -281 152.5 C-288.54748941 154.3570953 -296.06797229 156.22060413 -303.5 158.5 C-313.35264261 161.51789245 -323.37371714 163.88366915 -333.375 166.3515625 C-339.7787396 167.93436677 -346.149356 169.61627723 -352.5078125 171.37109375 C-355 172 -355 172 -357 172 C-354.03032551 184.07862428 -351.04971972 196.14689937 -347.6496582 208.11279297 C-347.09279833 210.07333935 -346.54344469 212.03569447 -346 214 C-345.80728516 214.69222656 -345.61457031 215.38445312 -345.41601562 216.09765625 C-344.41818878 219.84388334 -343.90827806 223.13767244 -344 227 C-348.3025646 228.14877635 -352.60756916 229.28776246 -356.91503906 230.41796875 C-358.37830333 230.80334458 -359.84088298 231.19133016 -361.30273438 231.58203125 C-363.41098789 232.14499813 -365.52157146 232.69835729 -367.6328125 233.25 C-368.90012207 233.58515625 -370.16743164 233.9203125 -371.47314453 234.265625 C-374.85623266 234.97006423 -377.57170853 235.45178559 -381 235 C-384.3377973 231.66843298 -385.16892892 227.49177629 -386.26831055 223.05371094 C-386.47357361 222.25643082 -386.67883667 221.4591507 -386.89031982 220.63771057 C-387.56520547 218.00556642 -388.22638077 215.37020333 -388.88671875 212.734375 C-389.35271482 210.89823898 -389.81926043 209.06224234 -390.28633118 207.22637939 C-391.2631478 203.37785377 -392.23317205 199.5276958 -393.19848633 195.67626953 C-394.43312897 190.75262187 -395.68459861 185.83343945 -396.94125652 180.91537094 C-397.90813448 177.1234509 -398.8659035 173.32927499 -399.82099342 169.53437042 C-400.27867625 167.72047334 -400.73917169 165.90728345 -401.20258141 164.094841 C-401.85093903 161.55340723 -402.48692041 159.009175 -403.11987305 156.46386719 C-403.31152542 155.72280228 -403.5031778 154.98173737 -403.70063782 154.21821594 C-404.89041988 149.36145116 -405.16931302 145.00125278 -405 140 C-399.87674471 137.54510684 -395.66104589 136.49658297 -390 136 C-394.58795579 129.9401403 -399.39837639 124.10240432 -404.35473633 118.34301758 C-408.08222211 113.98980218 -409.10692733 111.8356901 -409.5234375 106.0703125 C-408.71266882 102.86354085 -406.65029875 101.86627903 -404 100 C-401.39016724 98.99954224 -401.39016724 98.99954224 -398.52783203 98.27783203 C-397.42597565 97.99336212 -396.32411926 97.70889221 -395.18887329 97.415802 C-393.97412323 97.11616547 -392.75937317 96.81652893 -391.5078125 96.5078125 C-390.18424236 96.17148856 -388.86095814 95.8340378 -387.53793335 95.49557495 C-383.85545464 94.55705002 -380.16906234 93.63478081 -376.48190308 92.71484375 C-372.46145196 91.70867681 -368.44485535 90.6873334 -364.42773438 89.66796875 C-356.11636983 87.56168663 -347.80134255 85.4701844 -339.4852562 83.38263321 C-327.97762181 80.49341851 -316.47320979 77.59144283 -304.96867752 74.68990517 C-298.64732294 73.09563324 -292.32587529 71.50173054 -286.00439453 69.90795898 C-284.73359983 69.58755992 -283.46280514 69.26716085 -282.15350151 68.93705273 C-273.67792207 66.80041452 -265.20178693 64.66599218 -256.72537112 62.53267467 C-228.535534 55.43762299 -200.3568559 48.30447565 -172.21123886 41.0359993 C-149.96286963 35.29101981 -127.69162361 29.63853427 -105.41015625 24.0234375 C-104.71181624 23.84744577 -104.01347623 23.67145404 -103.2939744 23.49012923 C-88.42570859 19.74332743 -73.55628447 16.00113543 -58.68589878 12.26275635 C-53.37847318 10.92844699 -48.071275 9.59323379 -42.7640667 8.25806046 C-39.06201733 7.32713558 -35.35963951 6.39752546 -31.65724182 5.46798706 C-29.40860538 4.90246369 -27.15998295 4.33688463 -24.91137695 3.77124023 C-23.90247532 3.51836022 -22.89357368 3.26548021 -21.85409927 3.00493717 C-17.89608423 2.00815707 -13.95624471 1.00260767 -10.04850769 -0.17710876 C-6.24195829 -1.20462008 -3.79044829 -1.07276838 0 0 Z " fill="#C0CCD3" transform="translate(409,31)"/>
<path d="M0 0 C0 63.36 0 126.72 0 192 C-51.59770012 192 -51.59770012 192 -57.40087891 186.46264648 C-62.20831472 180.32711086 -60.72044177 170.98708181 -60.5859375 163.59765625 C-60.57473675 161.79163526 -60.56620071 159.98559596 -60.56021118 158.17955017 C-60.53738182 153.44278995 -60.47851035 148.70714641 -60.4119873 143.9708252 C-60.3504369 139.1310944 -60.32316902 134.29118186 -60.29296875 129.45117188 C-60.22876062 119.96695924 -60.12645337 110.48357274 -60 101 C-82.84403389 100.92037369 -105.68761809 100.89204845 -128.53177834 100.92484188 C-139.13872368 100.93887158 -149.74516816 100.93609661 -160.35205078 100.89379883 C-169.59678516 100.85697557 -178.84090878 100.8516438 -188.08566892 100.88417059 C-192.98123754 100.90029422 -197.87566051 100.90061921 -202.77113724 100.86323357 C-207.37967187 100.82853676 -211.98622377 100.83596447 -216.59469986 100.87562943 C-218.28537167 100.88276976 -219.97618929 100.87455085 -221.66669464 100.84977531 C-230.55393785 100.39368614 -230.55393785 100.39368614 -238.24848557 103.96145821 C-239.88121499 106.29226337 -239.88121499 106.29226337 -240.94985008 108.74691105 C-244.37017516 116.08519343 -253.05366188 119.42146475 -260.125 122.25 C-271.43404805 124.43884801 -282.61627562 123.59633998 -292.53515625 117.421875 C-301.66742525 110.65271401 -308.22132451 102.46822197 -310 91 C-310.8119489 78.21180475 -309.26392887 68.05880935 -301 58 C-293.83370396 50.34990339 -285.57591913 46.34332108 -275.109375 45.796875 C-261.97902224 45.55983253 -252.07281799 47.34117267 -242.171875 56.734375 C-238.67298556 60.57296245 -237.76319406 62.71041782 -236 68 C-177.92 68 -119.84 68 -60 68 C-60 48.86 -60 29.72 -60 10 C-46.32755011 -10.50867484 -26.59745065 0 0 0 Z " fill="#DBE2EB" transform="translate(512,290)"/>
<path d="M0 0 C5.47779469 4.40694761 7.82481603 7.91194809 10.078125 14.671875 C68.158125 14.671875 126.238125 14.671875 186.078125 14.671875 C186.078125 25.561875 186.078125 36.451875 186.078125 47.671875 C178.1279126 47.64661743 178.1279126 47.64661743 170.01708984 47.62084961 C152.52677224 47.57181937 135.0367076 47.57160898 117.54634666 47.59671688 C106.93940132 47.61074658 96.33295684 47.60797161 85.72607422 47.56567383 C76.48133984 47.52885057 67.23721622 47.5235188 57.99245608 47.55604559 C53.09688746 47.57216922 48.20246449 47.57249421 43.30698776 47.53510857 C38.69845313 47.50041176 34.09190123 47.50783947 29.48342514 47.54750443 C27.79275333 47.55464476 26.10193571 47.54642585 24.41143036 47.52165031 C15.52418715 47.06556114 15.52418715 47.06556114 7.82963943 50.63333321 C6.19691001 52.96413837 6.19691001 52.96413837 5.12827492 55.41878605 C1.70794984 62.75706843 -6.97553688 66.09333975 -14.046875 68.921875 C-25.35592305 71.11072301 -36.53815062 70.26821498 -46.45703125 64.09375 C-55.58930025 57.32458901 -62.14319951 49.14009697 -63.921875 37.671875 C-64.7338239 24.88367975 -63.18580387 14.73068435 -54.921875 4.671875 C-40.66079175 -10.5519818 -16.71113898 -11.80297228 0 0 Z " fill="#C0CCD2" transform="translate(265.921875,343.328125)"/>
<path d="M0 0 C7.24877505 5.81269697 11.65828903 13.4490125 13.0703125 22.66015625 C14.02645536 35.77297259 13.0432997 47.12450296 4.2578125 57.66015625 C-3.95016852 66.03689949 -13.10640354 69.71114907 -24.8046875 70.09765625 C-37.16563984 69.77554674 -45.91426858 65.45585288 -54.67578125 56.96875 C-62.66556266 48.38122933 -64.25933715 38.6030923 -64.140625 27.23046875 C-63.510775 16.56967432 -58.86349265 8.10017303 -51.1171875 0.84765625 C-36.71729729 -11.04190827 -14.83044185 -10.51566173 0 0 Z " fill="#3D4C70" transform="translate(265.9296875,343.33984375)"/>
<path d="M0 0 C4.42677822 4.99656155 8.74438539 10.06169717 12.97265625 15.2265625 C13.79636719 16.23074219 14.62007812 17.23492187 15.46875 18.26953125 C16.91784173 20.0411864 18.36369357 21.81550218 19.8046875 23.59375 C21.79164762 26.09570764 21.79164762 26.09570764 23.46020508 27.70483398 C28.32813907 32.7334556 29.60009523 37.80218888 31.03515625 44.5390625 C31.52920389 46.68146246 32.02531878 48.82338668 32.5234375 50.96484375 C32.76400879 52.0213916 33.00458008 53.07793945 33.25244141 54.16650391 C34.28554722 58.55597791 35.48567144 62.89084953 36.72265625 67.2265625 C37.48097714 69.8909914 38.23398805 72.55661273 38.97265625 75.2265625 C39.16537109 75.91878906 39.35808594 76.61101562 39.55664062 77.32421875 C40.55446747 81.07044584 41.06437819 84.36423494 40.97265625 88.2265625 C36.67009165 89.37533885 32.36508709 90.51432496 28.05761719 91.64453125 C26.59435292 92.02990708 25.13177327 92.41789266 23.66992188 92.80859375 C21.56166836 93.37156063 19.45108479 93.92491979 17.33984375 94.4765625 C15.43887939 94.97929687 15.43887939 94.97929687 13.49951172 95.4921875 C10.11642359 96.19662673 7.40094772 96.67834809 3.97265625 96.2265625 C0.63485895 92.89499548 -0.19627267 88.71833879 -1.2956543 84.28027344 C-1.50091736 83.48299332 -1.70618042 82.6857132 -1.91766357 81.86427307 C-2.59254922 79.23212892 -3.25372452 76.59676583 -3.9140625 73.9609375 C-4.38005857 72.12480148 -4.84660418 70.28880484 -5.31367493 68.45294189 C-6.29049155 64.60441627 -7.2605158 60.7542583 -8.22583008 56.90283203 C-9.46047272 51.97918437 -10.71194236 47.06000195 -11.96860027 42.14193344 C-12.93547823 38.3500134 -13.89324725 34.55583749 -14.84833717 30.76093292 C-15.30602 28.94703584 -15.76651544 27.13384595 -16.22992516 25.3214035 C-16.87828278 22.77996973 -17.51426416 20.2357375 -18.1472168 17.69042969 C-18.33886917 16.94936478 -18.53052155 16.20829987 -18.72798157 15.44477844 C-19.91776363 10.58801366 -20.19665677 6.22781528 -20.02734375 1.2265625 C-17.70688332 0.16301814 -15.39568973 -0.82699621 -13.02734375 -1.7734375 C-12.36734375 -2.05574219 -11.70734375 -2.33804688 -11.02734375 -2.62890625 C-6.15901216 -4.34993753 -3.81433381 -3.80564512 0 0 Z " fill="#3D4C70" transform="translate(24.02734375,169.7734375)"/>
<path d="M0 0 C4.62 0 9.24 0 14 0 C14 63.36 14 126.72 14 192 C-36.11898734 192 -36.11898734 192 -41.99609375 187.45703125 C-42.70958984 186.64298828 -42.70958984 186.64298828 -43.4375 185.8125 C-43.93121094 185.28269531 -44.42492187 184.75289062 -44.93359375 184.20703125 C-46 182 -46 182 -46 174 C-30.82 174 -15.64 174 0 174 C0 116.58 0 59.16 0 0 Z " fill="#CCD3E0" transform="translate(498,290)"/>
<path d="M0 0 C0 35.31 0 70.62 0 107 C-1.65 106.67 -3.3 106.34 -5 106 C-7.72225949 105.85525819 -10.40265752 105.769515 -13.125 105.75 C-13.82109375 105.729375 -14.5171875 105.70875 -15.234375 105.6875 C-21.92600168 105.63883362 -26.03536554 107.10055424 -33 109 C-33 75.67 -33 42.34 -33 8 C-4.2 0 -4.2 0 0 0 Z " fill="#C0CCD2" transform="translate(255,231)"/>
<path d="M0 0 C4.38773175 2.19386588 7.09334197 4.44520582 9 9 C9.57057837 14.23030176 8.84948106 17.57839146 6 22 C3.74113468 24.60111764 2.09474821 25.78439594 -1.30078125 26.453125 C-6.16081111 26.77761865 -9.25474672 26.33576612 -13.0625 23.1875 C-16.30980568 20.09300871 -17.18225057 17.17432344 -17.4375 12.75 C-17.41406345 7.96894285 -15.74345728 5.68882499 -12.5078125 2.3125 C-8.84347336 -0.87718381 -4.62353299 -0.56042824 0 0 Z " fill="#D8DFE8" transform="translate(245,361)"/>
</svg>
