<?xml version="1.0" encoding="UTF-8"?>
<svg version="1.1" xmlns="http://www.w3.org/2000/svg" width="512" height="512">
<path d="M0 0 C1.23553594 -0.00583219 2.47107188 -0.01166439 3.7440483 -0.01767331 C5.11738744 -0.01403999 6.49072608 -0.01021561 7.86406422 -0.00622082 C9.32128353 -0.00924048 10.77850125 -0.01312903 12.23571616 -0.01781338 C16.24548757 -0.0281265 20.2551699 -0.02590314 24.26494873 -0.02163279 C28.58752756 -0.01917148 32.91008461 -0.02817244 37.23265553 -0.03567028 C45.70413914 -0.04843707 54.17559109 -0.05020841 62.64708271 -0.04787002 C69.53335606 -0.04608848 76.41961979 -0.04783297 83.30589199 -0.05209446 C84.77489811 -0.05298724 84.77489811 -0.05298724 86.27358112 -0.05389806 C88.26302141 -0.0551098 90.25246169 -0.05632393 92.24190197 -0.05754044 C110.91160535 -0.06842414 129.58129068 -0.06624989 148.25099508 -0.06015559 C165.32924638 -0.0549888 182.40744059 -0.06623414 199.4856806 -0.08525381 C217.0179985 -0.10462954 234.55028939 -0.11288848 252.08261806 -0.10913056 C261.92700885 -0.10721772 271.77135108 -0.10971396 281.61573315 -0.1238451 C289.99886314 -0.13575667 298.38191472 -0.13716649 306.76504578 -0.12505493 C311.04157725 -0.11916395 315.31796526 -0.11807276 319.59448719 -0.13005733 C323.51223574 -0.1409087 327.42972095 -0.13782172 331.34745715 -0.12379565 C332.76202389 -0.1211466 334.17661121 -0.12352184 335.59115776 -0.13153151 C346.55762486 -0.18929918 354.95570348 0.57273334 363.11963367 8.27840137 C366.25451794 11.56515698 369.02905279 15.06254397 371.7543993 18.69197559 C372.64457752 19.85853687 372.64457752 19.85853687 373.55273914 21.04866505 C374.77524905 22.65400244 375.99384656 24.26232681 377.20850086 25.87361622 C378.94048626 28.16974476 380.68553873 30.45532165 382.4340868 32.73885059 C383.49993358 34.1393274 384.56507133 35.54034418 385.6293993 36.94197559 C386.35594715 37.89318287 386.35594715 37.89318287 387.09717274 38.86360645 C393.73667349 47.69245564 397.23872258 55.6553037 397.2790575 66.87630177 C397.2867239 67.94865322 397.2867239 67.94865322 397.29454517 69.04266834 C397.30831154 71.37768159 397.30749532 73.71239566 397.30518055 76.04744434 C397.3090726 77.68313168 397.31340831 79.31881801 397.31816578 80.95450306 C397.32559855 84.36955017 397.32535669 87.78449381 397.32007313 91.19954395 C397.31426057 95.5708964 397.33126651 99.94182759 397.3544178 104.31311035 C397.36915597 107.68547499 397.37002711 111.05773792 397.36690807 114.43012905 C397.36742053 116.04204427 397.37264402 117.6539653 397.38271999 119.26584911 C397.39507885 121.51778957 397.38829848 123.76890544 397.37671375 126.02083302 C397.37734318 127.30020237 397.3779726 128.57957172 397.3786211 129.89770985 C396.97707436 133.49958004 396.18009786 135.387833 394.0043993 138.25447559 C391.59894292 139.45720378 390.05442977 139.35519031 387.3793993 139.31697559 C386.56213367 139.30795216 385.74486805 139.29892872 384.9028368 139.28963184 C383.96311024 139.2722295 383.96311024 139.2722295 383.0043993 139.25447559 C383.01439205 140.75332043 383.01439205 140.75332043 383.02458668 142.28244495 C383.08548232 151.71327794 383.1304125 161.14407087 383.15983582 170.57505608 C383.17547132 175.42327622 383.19667095 180.27133725 383.23071766 185.11946583 C383.26338655 189.80085718 383.28126822 194.48209576 383.28903103 199.16359234 C383.29456103 200.94691782 383.30535978 202.73023524 383.32158947 204.51349545 C383.34346403 207.0172624 383.34636207 209.52040338 383.34497547 212.02425098 C383.36115421 213.12261532 383.36115421 213.12261532 383.3776598 214.24316883 C383.32982866 222.2595281 380.22904324 227.71462134 374.9028368 233.52400684 C369.75521473 238.21618087 363.00394311 239.38670574 356.2141161 239.36800098 C355.28079456 239.36788013 354.34747303 239.36775928 353.38586903 239.36763477 C352.4182262 239.36251881 351.45058338 239.35740284 350.45361805 239.35213184 C349.55437611 239.35112476 348.65513416 239.35011768 347.72864246 239.34908009 C344.38304836 239.34386471 341.03747249 239.32990347 337.6918993 239.31697559 C330.2050243 239.29635059 322.7181493 239.27572559 315.0043993 239.25447559 C315.0043993 266.97447559 315.0043993 294.69447559 315.0043993 323.25447559 C342.7243993 323.25447559 370.4443993 323.25447559 399.0043993 323.25447559 C399.0043993 315.33447559 399.0043993 307.41447559 399.0043993 299.25447559 C402.0043993 294.25447559 402.0043993 294.25447559 404.0043993 293.25447559 C406.13763757 293.1472908 408.27426676 293.10558266 410.41016102 293.09334278 C411.0672707 293.08837788 411.72438038 293.08341297 412.40140247 293.07829762 C414.57897451 293.06367218 416.75647369 293.05687336 418.9340868 293.05135059 C420.44622265 293.04559938 421.95835847 293.03984164 423.47049427 293.03407764 C426.64309498 293.02356653 429.81567034 293.01772462 432.98828602 293.01424122 C437.05273771 293.00875668 441.11685437 292.98473029 445.18120098 292.95626926 C448.30560756 292.9376412 451.42993348 292.9324372 454.55439091 292.93090534 C456.05270818 292.92787857 457.55102403 292.91984914 459.04928684 292.90672016 C461.14639962 292.88965567 463.24269439 292.89154032 465.33984852 292.89803028 C466.53294636 292.89438465 467.7260442 292.89073902 468.95529652 292.88698292 C472.29476488 293.28947186 473.65923024 293.88186978 476.0043993 296.25447559 C477.0076918 299.26435309 477.13243533 301.26426816 477.13811207 304.40973377 C477.14237705 305.47667469 477.14664204 306.54361561 477.15103626 307.64288807 C477.15058308 308.81336185 477.15012989 309.98383564 477.14966297 311.18977833 C477.15470089 313.03885288 477.15470089 313.03885288 477.15984058 314.92528248 C477.16772051 318.30751575 477.17101859 321.68968764 477.17165637 325.07192588 C477.17260581 327.89503499 477.17628447 330.7181382 477.17982846 333.54124504 C477.18797201 340.2012735 477.19041277 346.86128844 477.18970203 353.5213213 C477.18910109 360.39288347 477.19965637 367.26436718 477.2154457 374.1359095 C477.22851765 380.03492586 477.23388608 385.93391657 477.23324662 391.83294731 C477.23299156 395.35644925 477.23584763 398.87988144 477.24642467 402.40336895 C477.25789654 406.33220334 477.25336094 410.2609299 477.24731922 414.18977833 C477.25293873 415.35822788 477.25855824 416.52667744 477.26434803 417.73053455 C477.2580563 419.33517567 477.2580563 419.33517567 477.25163746 420.97223377 C477.25218223 421.90119182 477.25272699 422.83014986 477.25328827 423.78725815 C476.98461846 426.45056152 476.46349227 428.02003785 475.0043993 430.25447559 C471.40781901 432.65219579 469.76234091 432.51758492 465.48511219 432.54500294 C464.82785648 432.55172016 464.17060078 432.55843739 463.49342823 432.56535816 C461.32122707 432.58435258 459.14933458 432.58826289 456.97705555 432.59041309 C455.46634767 432.59683962 453.95564105 432.60356787 452.4449358 432.61058521 C449.27828555 432.62256126 446.11174443 432.62626567 442.94507313 432.62508106 C438.8883554 432.62487775 434.8323373 432.65218983 430.77578545 432.68662548 C427.65564736 432.70886758 424.53567843 432.71291946 421.41546917 432.71186161 C419.91993706 432.71422126 418.42440054 432.72306532 416.9289465 432.73852634 C414.83649328 432.7581353 412.74555888 432.75237067 410.65308094 432.74031544 C409.46299931 432.74316547 408.27291767 432.74601551 407.04677296 432.74895191 C403.39378933 432.15523329 402.25970901 431.12282585 400.0043993 428.25447559 C398.69964312 425.64496324 398.89138358 423.72746275 398.90674305 420.80916309 C398.90996571 419.73279591 398.91318836 418.65642872 398.91650867 417.54744434 C398.92488758 416.41951466 398.93326649 415.29158497 398.9418993 414.12947559 C398.94641102 412.99381153 398.95092274 411.85814747 398.95557117 410.68806934 C398.96738315 407.87681921 398.98385423 405.06567329 399.0043993 402.25447559 C386.85948978 402.22287158 374.71523325 402.22927665 362.57038403 402.28294182 C356.92971407 402.30669934 351.28963228 402.31782877 345.64893055 402.29915333 C340.19555121 402.28157844 334.74322341 402.29840955 329.28997135 402.33815289 C327.21941021 402.34737923 325.14875672 402.34463291 323.07823277 402.32916927 C311.67829226 402.25236424 302.76301632 402.61584752 292.86197376 408.61456776 C284.27361721 413.54326285 273.10015083 413.09991995 263.7075243 410.99666309 C253.48525735 408.1899713 246.37826556 403.85259181 239.0043993 396.25447559 C238.41787586 395.67697559 237.83135242 395.09947559 237.22705555 394.50447559 C228.26453313 385.01742896 225.50788443 372.2401388 225.75830555 359.58650684 C226.30739441 352.15201794 227.7926889 345.87986883 232.07129383 339.73958302 C236.87553934 331.06354584 235.85589365 321.25426571 235.8090868 311.61775684 C235.82035088 309.52595974 235.83423757 307.43417527 235.85062122 305.34241199 C235.88651272 299.86956355 235.88705126 294.39727541 235.87994862 288.92433643 C235.87903274 283.32659991 235.91193643 277.72907005 235.9418993 272.13142872 C235.99562392 261.1723856 236.01195995 250.21363595 236.0043993 239.25447559 C235.06533049 239.25724097 234.12626167 239.26000635 233.15873623 239.26285553 C210.28939825 239.32950954 187.42007289 239.37877915 164.55065823 239.40991211 C153.49109535 239.42536867 142.43159672 239.44643507 131.37207508 239.48079395 C121.73049894 239.51073335 112.08896934 239.5300594 102.447348 239.53674108 C97.34408994 239.54064563 92.24096499 239.54979671 87.13774967 239.57166576 C82.32956434 239.59210262 77.52156635 239.59829486 72.71334171 239.59379864 C70.95339405 239.59462062 69.19343981 239.60054322 67.43352985 239.61209202 C44.48308497 239.7552465 44.48308497 239.7552465 36.52734852 232.08772755 C30.12949944 224.38630903 29.32455286 216.85002752 29.6918993 207.12947559 C29.71445789 205.98220997 29.73701649 204.83494434 29.76025867 203.65291309 C29.81861052 200.85202445 29.90041778 198.05397811 30.0043993 195.25447559 C29.19809071 195.27542286 28.39178211 195.29637012 27.56103992 195.31795216 C23.87562203 195.40156732 20.19040436 195.45328108 16.5043993 195.50447559 C15.2359618 195.53799122 13.9675243 195.57150684 12.6606493 195.60603809 C4.71127564 195.68884407 -1.37850724 195.46826422 -7.50487804 189.87703419 C-12.96936989 183.88504402 -13.29226644 177.55874533 -13.2702589 169.88777637 C-13.27536983 168.96340778 -13.28048077 168.03903919 -13.28574657 167.08665943 C-13.29960899 164.04096918 -13.29868822 160.99550609 -13.29638195 157.94978809 C-13.30027089 155.82518397 -13.30460596 153.70058062 -13.30936718 151.57597828 C-13.31682232 147.12584887 -13.31654333 142.6757988 -13.31127453 138.225667 C-13.30548272 132.5340484 -13.32240753 126.84275552 -13.3456192 121.15119076 C-13.36037984 116.76388633 -13.36122502 112.37665992 -13.35810947 107.98933506 C-13.35862157 105.89146117 -13.36383832 103.79358279 -13.37392139 101.69573307 C-13.3863127 98.75693058 -13.37947767 95.81875694 -13.36791515 92.87996387 C-13.37555889 92.02048145 -13.38320263 91.16099903 -13.391078 90.27547169 C-13.33684784 84.01241416 -12.4341491 78.24776486 -8.3471632 73.23103809 C-7.77739758 72.78502247 -7.20763195 72.33900684 -6.6206007 71.87947559 C-5.77368664 71.18724903 -5.77368664 71.18724903 -4.9096632 70.48103809 C-0.42980539 67.61027207 3.3319609 67.01089168 8.61768055 67.05916309 C10.4884325 67.06883106 10.4884325 67.06883106 12.39697742 67.07869434 C13.69055164 67.09545216 14.98412586 67.11220997 16.3168993 67.12947559 C18.28626453 67.14301075 18.28626453 67.14301075 20.29541492 67.15681934 C23.53192843 67.18035762 26.76807079 67.2132404 30.0043993 67.25447559 C28.3838767 63.86349724 26.86828365 60.77557194 24.36768055 57.95760059 C23.87695057 57.39661671 23.38622059 56.83563282 22.88062 56.25764942 C22.36459217 55.67910206 21.84856434 55.1005547 21.3168993 54.50447559 C20.23230951 53.26468823 19.14897911 52.02379801 18.0668993 50.78181934 C17.5409618 50.17966602 17.0150243 49.5775127 16.4731493 48.95711231 C13.86474189 45.93333683 11.39716742 42.80158307 8.92236805 39.66853809 C6.85532753 37.06684555 4.74498946 34.50431341 2.6293993 31.94197559 C1.08527828 30.04814075 -0.45623877 28.15218079 -1.9956007 26.25447559 C-2.44322765 25.70791309 -2.89085461 25.16135059 -3.35204601 24.59822559 C-4.74560738 22.88904929 -6.1220193 21.1672314 -7.4956007 19.44197559 C-7.9292091 18.91499073 -8.3628175 18.38800587 -8.80956554 17.84505177 C-11.53805547 14.37615933 -12.76630109 11.67314101 -12.9956007 7.25447559 C-11.7859419 4.45316047 -10.83174937 2.79540338 -8.25704449 1.12975532 C-5.38990778 0.02004539 -3.07579126 0.00249401 0 0 Z M14.0043993 17.25447559 C14.95061952 18.51815816 15.89712787 19.78162499 16.84375477 21.04500294 C17.37081013 21.74861958 17.89786549 22.45223621 18.44089222 23.17717457 C24.92035802 31.78589858 31.67549492 40.13169923 38.72681141 48.27766895 C42.26834672 52.37392345 45.69234857 56.54548496 49.0512743 60.79353809 C54.76157527 68.25801205 54.76157527 68.25801205 61.0043993 75.25447559 C62.35878998 75.36606333 63.71876697 75.41114929 65.07764149 75.42805958 C65.94234058 75.44154942 66.80703968 75.45503925 67.69794178 75.46893787 C69.11034138 75.48459545 69.11034138 75.48459545 70.5512743 75.50056934 C72.53044521 75.53351828 74.50961177 75.56672975 76.4887743 75.60017872 C79.62025301 75.64754356 82.75171538 75.69194188 85.88330555 75.73128223 C88.89782218 75.77105975 91.91196456 75.8226044 94.9262743 75.87556934 C95.85977711 75.8839835 96.79327991 75.89239765 97.75507069 75.90106678 C106.16366908 76.06057282 106.16366908 76.06057282 110.0043993 78.25447559 C111.69585383 80.34199254 113.09385673 82.3033681 114.5043993 84.56697559 C114.92237782 85.21489063 115.34035633 85.86280567 115.77100086 86.5303545 C117.20038946 88.76072049 118.60488108 91.00524988 120.0043993 93.25447559 C120.54258289 94.1183086 121.08076649 94.98214161 121.63525867 95.87215137 C123.88709472 99.49413507 126.13534359 103.11805665 128.36182117 106.7556963 C128.87809071 107.59834034 129.39436024 108.44098438 129.9262743 109.30916309 C130.37583485 110.04634571 130.82539539 110.78352833 131.28857899 111.54304981 C131.85479969 112.43782032 132.42102039 113.33259083 133.0043993 114.25447559 C133.37948313 114.97968938 133.75456696 115.70490316 134.14101696 116.45209312 C136.7412613 121.21130963 136.7412613 121.21130963 141.13276386 124.07405567 C143.71903462 124.36298444 146.17253196 124.36928465 148.77344227 124.27620411 C150.22316174 124.27817547 150.22316174 124.27817547 151.70216846 124.28018665 C154.88551483 124.27393356 158.06407305 124.20402834 161.2465868 124.13338184 C163.4575895 124.11658927 165.66862576 124.10378117 167.87967396 124.09479237 C173.69040365 124.06047963 179.49909842 123.97211687 185.30902576 123.87245655 C191.24105773 123.78027717 197.17341959 123.73926053 203.1059618 123.69392872 C214.73966687 123.59749599 226.37186367 123.44395436 238.0043993 123.25447559 C238.00804493 122.66201038 238.01169056 122.06954517 238.01544666 121.45912647 C238.05724637 115.29448136 238.12657388 109.13058254 238.21191883 102.96638966 C238.24015033 100.66568432 238.26135396 98.3648816 238.27539539 96.06404591 C238.29679416 92.75722281 238.34343038 89.45157333 238.3950243 86.14510059 C238.39625294 85.11580433 238.39748158 84.08650806 238.39874744 83.026021 C238.54145503 76.07328987 238.54145503 76.07328987 240.50171375 72.60616016 C244.15315387 70.63404055 247.609974 70.69698233 251.65674305 70.73689747 C252.96471348 70.72638355 252.96471348 70.72638355 254.29910755 70.71565723 C257.18036244 70.69805753 260.06063449 70.70970694 262.9418993 70.72322559 C264.944424 70.72053125 266.94694743 70.71664931 268.94946766 70.71162891 C273.14596483 70.70573119 277.34212141 70.71430576 281.53857899 70.73299122 C286.91915974 70.75578081 292.29894243 70.74265921 297.6794939 70.71870136 C301.81447843 70.70425088 305.94927359 70.70884596 310.0842638 70.71921253 C312.06821251 70.72188189 314.05217839 70.71860275 316.03610706 70.70929432 C318.80855351 70.69914114 321.57970558 70.71461237 324.35205555 70.73689747 C325.17295673 70.72880054 325.99385792 70.72070362 326.8396349 70.71236134 C330.35872815 70.76479637 332.57863533 70.96087065 335.51105213 72.98305225 C337.23414247 75.60392146 337.51750075 76.99911313 337.55029774 80.11482716 C337.57001637 81.07552113 337.58973499 82.0362151 337.61005116 83.026021 C337.61189411 84.5699654 337.61189411 84.5699654 337.6137743 86.14510059 C337.63031055 87.20485096 337.64684681 88.26460133 337.66388416 89.35646534 C337.71244485 92.73919391 337.73375367 96.12147264 337.7543993 99.50447559 C337.78255213 101.79876916 337.81247858 104.09304169 337.84424305 106.38728809 C337.92154369 112.00989249 337.96199048 117.63106641 338.0043993 123.25447559 C351.8643993 123.25447559 365.7243993 123.25447559 380.0043993 123.25447559 C380.06737937 115.15104005 380.1274759 107.04849528 380.15964985 98.94502735 C380.1754655 95.17111668 380.19658655 91.39740947 380.23071766 87.62361622 C380.26340864 83.98612557 380.2812727 80.34883174 380.28903103 76.71120548 C380.29455715 75.32617185 380.30534835 73.94114851 380.32158947 72.55619907 C380.34349058 70.61051738 380.34462578 68.66463598 380.34497547 66.71883106 C380.35163731 65.6129665 380.35829914 64.50710194 380.36516285 63.36772633 C379.76180747 58.16100141 377.2022646 54.22804891 374.00049305 50.18806934 C373.14366932 49.09788502 373.14366932 49.09788502 372.26953602 47.98567677 C371.6664159 47.22875538 371.06329578 46.47183399 370.4418993 45.69197559 C369.18246855 44.09326628 367.92335619 42.4943061 366.66455555 40.89510059 C365.73473866 39.7185088 365.73473866 39.7185088 364.78613758 38.51814747 C362.28998906 35.34682806 359.83170901 32.14724134 357.3793993 28.94197559 C355.9249074 27.0431935 354.46696459 25.14704604 353.0043993 23.25447559 C352.31603992 22.33279591 351.62768055 21.41111622 350.9184618 20.46150684 C349.12100157 18.01028046 349.12100157 18.01028046 346.0043993 17.25447559 C344.15485328 17.16264229 342.3021131 17.13072975 340.45028877 17.13142776 C338.70659806 17.12844119 338.70659806 17.12844119 336.92768127 17.12539428 C335.0030968 17.12976355 335.0030968 17.12976355 333.03963184 17.13422108 C331.66760875 17.13378522 330.29558575 17.13291006 328.92356318 17.13163191 C325.14500814 17.12938973 321.36648129 17.13340448 317.58792984 17.13840997 C313.51636989 17.14271823 309.4448116 17.14126778 305.37325001 17.1405077 C298.31621707 17.1399827 291.25919336 17.14312697 284.20216274 17.14874554 C273.99881237 17.15686382 263.79546647 17.1594761 253.59211322 17.16073353 C237.03886555 17.16292353 220.48562281 17.16958221 203.93237782 17.17903614 C187.8500213 17.1882116 171.76766611 17.19529178 155.6853075 17.19954395 C154.19896596 17.19993804 154.19896596 17.19993804 152.68259732 17.20034008 C147.71169757 17.2016451 142.74079782 17.20290881 137.76989806 17.20415199 C96.51472838 17.21452299 55.25956412 17.2321399 14.0043993 17.25447559 Z M5.0043993 84.25447559 C3.37173128 87.51981164 3.86626726 91.12351975 3.87500477 94.71150684 C3.87325245 95.58640766 3.87150013 96.46130848 3.86969471 97.36272144 C3.86528171 100.26415948 3.86821226 103.1655369 3.8715868 106.06697559 C3.8709136 108.07714824 3.86994344 110.08732081 3.86868763 112.09749317 C3.8672114 116.31421654 3.86936281 120.53091875 3.87402821 124.74763966 C3.87972544 130.16184644 3.87644604 135.57600366 3.87045574 140.99020863 C3.86684811 145.14221542 3.86798965 149.29421039 3.87058353 153.44621754 C3.87125224 155.44298273 3.87042633 157.43974899 3.86810398 159.43651295 C3.86557416 162.22351913 3.86942275 165.01044422 3.87500477 167.79744434 C3.87298054 168.62867817 3.87095631 169.45991199 3.86887074 170.31633472 C3.78127939 174.41730268 3.78127939 174.41730268 5.0043993 178.25447559 C13.2543993 178.25447559 21.5043993 178.25447559 30.0043993 178.25447559 C30.0043993 147.23447559 30.0043993 116.21447559 30.0043993 84.25447559 C21.7543993 84.25447559 13.5043993 84.25447559 5.0043993 84.25447559 Z M47.0043993 86.25447559 C46.91095047 103.11797757 46.84041751 119.98139873 46.79715061 136.8451004 C46.77652689 144.67525037 46.74841009 152.50523944 46.70264149 160.33528614 C46.6627677 167.16010817 46.6369651 173.98481367 46.62804532 180.80974895 C46.62283141 184.42343115 46.61058134 188.03678 46.58147907 191.65035534 C46.54925091 195.68480551 46.54844022 199.71867643 46.55029774 203.75325489 C46.53591663 204.95087452 46.52153553 206.14849415 46.50671864 207.38240528 C46.49331446 213.7159114 46.49331446 213.7159114 48.84528065 219.47330189 C52.20443297 222.24444824 54.93628497 222.38024493 59.13849163 222.38590336 C60.20730033 222.3897445 61.27610903 222.39358565 62.37730587 222.39754319 C64.14502745 222.39624347 64.14502745 222.39624347 65.94846058 222.39491749 C67.19706305 222.39788861 68.44566551 222.40085973 69.73210442 222.40392089 C73.204559 222.41199841 76.67699292 222.41378088 80.14945579 222.41451836 C83.89187059 222.41636758 87.63427464 222.4239142 91.37668324 222.43065357 C99.56252917 222.44424221 107.74837022 222.45026229 115.93422556 222.45466423 C121.0434956 222.45742545 126.15276375 222.46166256 131.26203251 222.4661684 C145.40271034 222.47836119 159.54338666 222.48866086 173.68406963 222.4920435 C175.04190844 222.49237284 175.04190844 222.49237284 176.42717833 222.49270885 C177.33459082 222.49292712 178.24200331 222.4931454 179.17691314 222.49337029 C181.01573014 222.49381376 182.85454714 222.49426033 184.69336414 222.49470997 C185.60548421 222.4949314 186.51760427 222.49515283 187.45736434 222.49538097 C202.24276454 222.49933046 217.02811551 222.51678905 231.81349669 222.54006949 C246.98629428 222.56376753 262.15906715 222.57624462 277.33188355 222.57741141 C285.85378044 222.57832899 294.37561316 222.58410201 302.89749241 222.60223103 C310.15281458 222.61761107 317.40805275 222.62276487 324.66338812 222.61449292 C328.36627894 222.6105791 332.06900049 222.61155149 335.77187061 222.62555027 C339.78349372 222.64057788 343.79473332 222.63244456 347.80637074 222.62196827 C348.98039035 222.63002467 350.15440996 222.63808108 351.36400592 222.64638162 C352.43803012 222.63979177 353.51205431 222.63320193 354.61862469 222.62641239 C355.54465524 222.62700948 356.47068578 222.62760657 357.42477787 222.62822175 C360.55687871 222.17443011 362.44961852 221.09290062 365.0043993 219.25447559 C366.50692845 216.24941729 366.13432689 213.16190626 366.11792469 209.86726856 C366.11814373 208.72566273 366.11814373 208.72566273 366.1183672 207.56099415 C366.11766923 205.0395217 366.10988224 202.51812267 366.10205555 199.99666309 C366.10019096 198.25074269 366.09876725 196.50482176 366.09776783 194.75890064 C366.09394589 190.15902231 366.08411835 185.55917546 366.07306385 180.95930958 C366.06284279 176.267338 366.05826872 171.57536134 366.05322742 166.88338184 C366.04249581 157.67373258 366.02542324 148.4641067 366.0043993 139.25447559 C364.18550882 139.25227575 364.18550882 139.25227575 362.32987309 139.25003147 C333.55773554 139.21434426 304.78568724 139.15812452 276.01364483 139.07655464 C272.47377955 139.06653695 268.9339138 139.05669286 265.39404774 139.04695606 C264.68931189 139.04501469 263.98457605 139.04307332 263.25848457 139.04107311 C251.84130583 139.01003578 240.42414719 138.99306764 229.0069342 138.98128137 C217.29540889 138.96887876 205.58398929 138.9413976 193.8725307 138.89986253 C187.29283675 138.87718444 180.71329382 138.86156871 174.13355732 138.86259174 C167.94475472 138.8633346 161.75628675 138.84553453 155.56757069 138.81330776 C153.29233544 138.80476575 151.01706285 138.80308776 148.74181843 138.8086729 C145.64244664 138.81526957 142.54415315 138.79749587 139.44489002 138.77345753 C138.08497137 138.78509815 138.08497137 138.78509815 136.69757962 138.79697394 C130.60349586 138.71292727 130.60349586 138.71292727 127.49197483 136.33187199 C124.84183297 132.63095393 124.84183297 132.63095393 123.6997118 130.69978809 C123.2876952 130.01271778 122.8756786 129.32564747 122.45117664 128.61775684 C121.79689686 127.50980762 121.79689686 127.50980762 121.1293993 126.37947559 C116.06609394 117.94004627 110.82187458 109.62754648 105.51270008 101.34090137 C104.9401952 100.44613087 104.36769032 99.55136036 103.7778368 98.62947559 C103.01092518 97.43451466 103.01092518 97.43451466 102.22852039 96.21541309 C101.0043993 94.25447559 101.0043993 94.25447559 100.0043993 92.25447559 C99.14115543 92.25233807 99.14115543 92.25233807 98.2604723 92.25015736 C92.2576408 92.23043433 86.25582262 92.17610526 80.25342274 92.1018877 C78.01488998 92.07872488 75.77624851 92.06431604 73.53760242 92.05891895 C70.3149094 92.04961722 67.09392229 92.00859757 63.8715868 91.96150684 C62.37593693 91.96740582 62.37593693 91.96740582 60.85007191 91.97342396 C59.90954975 91.95378086 58.9690276 91.93413776 58.00000477 91.91389942 C56.76756535 91.90390667 56.76756535 91.90390667 55.51022816 91.89371204 C51.80146542 90.9476074 49.81407041 88.82477292 47.0043993 86.25447559 Z M255.0043993 87.25447559 C255.0043993 99.13447559 255.0043993 111.01447559 255.0043993 123.25447559 C276.7843993 123.25447559 298.5643993 123.25447559 321.0043993 123.25447559 C321.0043993 111.37447559 321.0043993 99.49447559 321.0043993 87.25447559 C299.2243993 87.25447559 277.4443993 87.25447559 255.0043993 87.25447559 Z M253.0043993 239.25447559 C253.0043993 265.32447559 253.0043993 291.39447559 253.0043993 318.25447559 C258.2843993 316.93447559 263.5643993 315.61447559 269.0043993 314.25447559 C278.03995721 313.66883758 285.36726449 314.70948778 294.0043993 317.25447559 C295.3243993 317.58447559 296.6443993 317.91447559 298.0043993 318.25447559 C298.0043993 292.18447559 298.0043993 266.11447559 298.0043993 239.25447559 C283.1543993 239.25447559 268.3043993 239.25447559 253.0043993 239.25447559 Z M416.0043993 310.25447559 C416.0043993 344.90447559 416.0043993 379.55447559 416.0043993 415.25447559 C430.5243993 415.25447559 445.0443993 415.25447559 460.0043993 415.25447559 C460.0043993 380.60447559 460.0043993 345.95447559 460.0043993 310.25447559 C445.4843993 310.25447559 430.9643993 310.25447559 416.0043993 310.25447559 Z M249.0043993 343.25447559 C243.59270171 351.75146284 241.77136738 359.84497187 243.43018055 369.81306934 C245.81188039 379.17914051 251.41066189 386.04176116 259.62549305 391.03181934 C268.3515027 395.51661576 276.23131705 396.175496 285.6762743 393.49666309 C295.6938399 389.88426823 301.44250511 383.81411373 306.0043993 374.25447559 C308.87859392 366.63390453 308.63202882 358.7543925 305.87549305 351.13338184 C301.38928937 341.34196728 295.00685293 335.2205901 285.0043993 331.25447559 C271.21581959 326.90018726 258.0702606 332.7511444 249.0043993 343.25447559 Z M320.0043993 340.25447559 C320.9943993 344.21447559 321.9843993 348.17447559 323.0043993 352.25447559 C324.9428431 364.22339035 323.23640784 373.96911949 319.0043993 385.25447559 C345.4043993 385.25447559 371.8043993 385.25447559 399.0043993 385.25447559 C399.0043993 370.40447559 399.0043993 355.55447559 399.0043993 340.25447559 C372.9343993 340.25447559 346.8643993 340.25447559 320.0043993 340.25447559 Z " fill="#F46E30" transform="translate(23.995600700378418,49.745524406433105)"/>
<path d="M0 0 C5.48363959 3.82623557 9.19910825 7.93140122 12 14 C12 14.99 12 15.98 12 17 C26.52 17 41.04 17 56 17 C56 22.61 56 28.22 56 34 C41.48 34 26.96 34 12 34 C11.34 35.98 10.68 37.96 10 40 C5.93526203 46.0751354 0.17731085 51.29966212 -6.85546875 53.609375 C-17.18371655 55.49065875 -26.05811622 53.82921399 -34.8125 48.1875 C-41.34535105 41.65464895 -44.38770732 34.71473167 -45.375 25.5 C-44.25314861 15.02938707 -40.30475446 7.30973066 -32.1953125 0.546875 C-22.51471007 -6.2743324 -10.05134087 -5.66742271 0 0 Z M-24 16 C-26.45040602 19.1167445 -28.02357804 22.13733445 -27.97265625 26.16015625 C-27.22956437 29.9463863 -26.30673685 31.70093157 -23.5 34.4375 C-19.3572373 37.02672669 -16.95670455 37.41305871 -12 37 C-8.31992485 35.15996243 -6.39552348 33.57414699 -4.0625 30.1875 C-2.74768352 26.24305056 -2.90885221 24.00087524 -4 20 C-6.17737039 16.62132181 -8.12775165 14.25278623 -12 13 C-16.84007093 12.47390533 -19.99253239 13.21219645 -24 16 Z " fill="#F78834" transform="translate(144,204)"/>
</svg>
