<?xml version="1.0" encoding="UTF-8"?>
<svg version="1.1" xmlns="http://www.w3.org/2000/svg" width="512" height="512">
<path d="M0 0 C0.88409261 -0.00467997 1.76818521 -0.00935994 2.67906851 -0.01418173 C5.61761777 -0.02607056 8.55569538 -0.01669855 11.49424744 -0.00723267 C13.61064932 -0.01130105 15.72704907 -0.01664443 17.84344482 -0.02316284 C23.57472443 -0.03680957 29.30584156 -0.03154887 35.03712392 -0.02202559 C41.04183332 -0.01441632 47.04652905 -0.02147803 53.05123901 -0.02618408 C63.1328531 -0.03163751 73.21440119 -0.02446037 83.29600525 -0.01016235 C94.94482715 0.00616775 106.59349154 0.00087131 118.24230963 -0.01564157 C128.25273805 -0.02926287 138.2631191 -0.03117306 148.27355379 -0.02332556 C154.24848699 -0.01865318 160.22334619 -0.01801239 166.19827461 -0.02793503 C171.8150627 -0.03661188 177.431648 -0.03056945 183.04841423 -0.01325226 C185.10751891 -0.00929148 187.1666407 -0.01041445 189.22573853 -0.01704025 C192.04061398 -0.02526177 194.85484323 -0.01492675 197.66967773 0 C198.48068076 -0.00669217 199.29168378 -0.01338433 200.12726265 -0.02027929 C208.37598639 0.06432018 214.89020929 2.49981317 220.77134705 8.38095093 C223.3672142 12.73349414 224.14822425 15.92734567 224.1590271 20.9710083 C224.17388405 22.93495041 224.17388405 22.93495041 224.18904114 24.93856812 C224.18480356 26.3775339 224.18024574 27.81649878 224.17539978 29.25546265 C224.18110595 30.78029887 224.18807116 32.30513081 224.19619751 33.82995605 C224.21411845 37.96229929 224.21296239 42.09443004 224.20725513 46.22680044 C224.20416125 49.6809692 224.21025805 53.13509726 224.21629387 56.58926022 C224.23033445 64.74104973 224.22878215 72.89273443 224.21739197 81.04452515 C224.20591529 89.4436102 224.21997981 97.84237577 224.24678844 106.24141872 C224.26896947 113.46200996 224.27557729 120.68250109 224.26971203 127.90312397 C224.26634649 132.21147316 224.26873043 136.51961766 224.28596306 140.82793808 C224.30146819 144.88119699 224.29743748 148.93398407 224.27865791 152.98722458 C224.27498163 154.47064628 224.27805242 155.95410321 224.2885437 157.43749237 C224.34900696 166.6970227 224.11517555 173.42397764 217.8065033 180.62313843 C210.21508417 186.90672891 203.9158078 188.51341158 194.03160095 188.49447632 C193.06468323 188.49469536 193.06468323 188.49469536 192.07823181 188.49491882 C189.96808899 188.49422754 187.85803676 188.48647226 185.74790955 188.47860718 C184.27674915 188.47674021 182.80558812 188.47531762 181.33442688 188.47431946 C177.4776892 188.47051626 173.62098966 188.4607049 169.76426697 188.44961548 C165.82262182 188.43935395 161.88097047 188.43481171 157.9393158 188.42977905 C150.21664223 188.41908051 142.494 188.4020307 134.77134705 188.38095093 C135.08134577 189.79670561 135.39263569 191.2121776 135.70445251 192.62753296 C135.96426407 193.80994064 135.96426407 193.80994064 136.22932434 195.01623535 C137.17034305 199.12167519 138.31245102 203.16883323 139.4471283 207.22470093 C140.21940695 210.04671164 140.77134705 212.43842493 140.77134705 215.38095093 C141.98951111 215.33454468 143.20767517 215.28813843 144.4627533 215.24032593 C146.08642653 215.20278435 147.71012649 215.16638676 149.33384705 215.13095093 C150.13371033 215.0974353 150.93357361 215.06391968 151.75767517 215.02938843 C157.64164581 214.9333236 160.95595259 215.95544044 165.77134705 219.38095093 C170.29669759 225.21627137 171.6149959 230.13963161 170.77134705 237.38095093 C169.0571243 242.69131488 166.52706677 246.33241264 161.77134705 249.38095093 C158.80332547 250.37029145 156.84756303 250.51345629 153.75016785 250.52812195 C152.19412338 250.5388549 152.19412338 250.5388549 150.60664368 250.54980469 C148.90008102 250.55383804 148.90008102 250.55383804 147.15904236 250.55795288 C145.96040558 250.56452408 144.7617688 250.57109528 143.52680969 250.5778656 C139.55102795 250.59761354 135.57528655 250.60926652 131.59947205 250.61923218 C130.22921987 250.6232807 128.85896789 250.62739765 127.48871613 250.63158226 C121.04998179 250.6506298 114.61125889 250.66486121 108.1725018 250.67319423 C100.74786077 250.68296259 93.32351819 250.70927311 85.89898229 250.74969512 C80.15533298 250.77988913 74.41176906 250.79466624 68.66804194 250.79797524 C65.23991187 250.80032219 61.8121008 250.80923553 58.38405609 250.83443642 C54.556205 250.85875176 50.72913434 250.85787611 46.90122986 250.85092163 C45.20681259 250.87013672 45.20681259 250.87013672 43.47816467 250.88973999 C37.01722727 250.84695746 32.99694254 250.28982988 27.77134705 246.38095093 C23.2459965 240.54563048 21.92769819 235.62227024 22.77134705 228.38095093 C24.48556979 223.07058698 27.01562732 219.42948922 31.77134705 216.38095093 C34.53700087 215.45906632 36.15418406 215.26309871 39.0018158 215.28329468 C39.8042572 215.28651733 40.60669861 215.28973999 41.43345642 215.2930603 C42.26683533 215.30143921 43.10021423 215.30981812 43.95884705 215.31845093 C44.80382751 215.32296265 45.64880798 215.32747437 46.51939392 215.3321228 C48.60340859 215.3438969 50.68738681 215.36183203 52.77134705 215.38095093 C54.08140275 209.10809597 55.23996258 202.81351696 56.3455658 196.50204468 C56.48329407 195.71857666 56.62102234 194.93510864 56.76292419 194.12789917 C57.09958907 192.21234176 57.43554111 190.2966591 57.77134705 188.38095093 C56.9770076 188.38539215 56.18266815 188.38983337 55.36425781 188.39440918 C47.84711881 188.4346252 40.3300326 188.46500575 32.81281376 188.48457527 C28.94892823 188.49497464 25.08513224 188.50906279 21.22129822 188.53182983 C17.48654752 188.55369642 13.75188249 188.56554843 10.01707268 188.57070541 C8.59825227 188.57437654 7.17943609 188.58154474 5.76065254 188.59241104 C-14.49316221 188.74124332 -14.49316221 188.74124332 -22.22865295 182.38095093 C-28.14843979 176.4185757 -30.45673039 171.71435062 -30.45524597 163.25843811 C-30.4449234 162.34367203 -30.43460083 161.42890594 -30.42396545 160.48641968 C-30.42113556 159.53906448 -30.41830566 158.59170929 -30.41539001 157.61564636 C-30.40422482 154.59978427 -30.37912684 151.58422276 -30.35365295 148.56845093 C-30.34361843 146.5196271 -30.3344934 144.47079861 -30.3263092 142.42196655 C-30.30600187 137.40808663 -30.26684604 132.39485395 -30.22865295 127.38095093 C-42.10865295 127.71095093 -53.98865295 128.04095093 -66.22865295 128.38095093 C-65.23865295 130.03095093 -64.24865295 131.68095093 -63.22865295 133.38095093 C-63.83215284 137.15282523 -64.61884729 138.83890145 -67.47865295 141.38095093 C-71.29972237 142.77043071 -72.52835415 142.09077395 -76.22865295 140.38095093 C-79.2099879 137.99943306 -81.86604188 135.34744224 -84.54115295 132.63095093 C-85.63266663 131.57520874 -85.63266663 131.57520874 -86.74623108 130.49813843 C-89.75264028 127.48332361 -91.9257816 125.21156803 -93.3966217 121.17782593 C-93.00011845 114.57558571 -87.62737626 110.5059451 -83.16615295 106.13095093 C-82.52871155 105.49415405 -81.89127014 104.85735718 -81.23451233 104.20126343 C-75.46720476 98.48865108 -75.46720476 98.48865108 -71.35365295 98.13095093 C-67.85574519 98.41078355 -66.60296153 98.83076764 -64.22865295 101.38095093 C-62.62287452 105.73949238 -63.37494571 106.74668282 -65.22865295 111.38095093 C-53.67865295 111.71095093 -42.12865295 112.04095093 -30.22865295 112.38095093 C-30.22865295 102.48095093 -30.22865295 92.58095093 -30.22865295 82.38095093 C-36.43935608 82.46796265 -36.43935608 82.46796265 -42.77552795 82.55673218 C-46.07955673 82.58889308 -49.3835412 82.61600464 -52.68763733 82.63970184 C-56.17428557 82.66609321 -59.66032495 82.70134978 -63.1466217 82.75814819 C-67.14798329 82.82292911 -71.14870135 82.84714305 -75.15052795 82.86923218 C-77.02257904 82.90794182 -77.02257904 82.90794182 -78.93244934 82.94743347 C-80.09335083 82.94781113 -81.25425232 82.94818878 -82.45033264 82.94857788 C-83.47181396 82.95968094 -84.49329529 82.970784 -85.54573059 82.98222351 C-88.22865295 82.38095093 -88.22865295 82.38095093 -90.58979797 80.07203674 C-92.22865295 77.38095093 -92.22865295 77.38095093 -92.22865295 73.75595093 C-91.10516717 69.96418641 -90.56652102 69.28847229 -87.22865295 67.38095093 C-84.58369446 67.02018738 -84.58369446 67.02018738 -81.54212952 67.04037476 C-80.40124878 67.04060135 -79.26036804 67.04082794 -78.08491516 67.0410614 C-76.85875488 67.05654526 -75.6325946 67.07202911 -74.36927795 67.08798218 C-72.4800058 67.09434944 -72.4800058 67.09434944 -70.55256653 67.10084534 C-67.21176757 67.11478972 -63.87158712 67.14172167 -60.53096008 67.17495728 C-57.11904737 67.20570254 -53.70707066 67.21936014 -50.2950592 67.23446655 C-43.60608647 67.26755279 -36.91740541 67.31776569 -30.22865295 67.38095093 C-30.2375354 66.78484009 -30.24641785 66.18872925 -30.25556946 65.57455444 C-30.34437368 59.3449161 -30.40452401 53.11545891 -30.44837952 46.88534546 C-30.46843872 44.563331 -30.49569286 42.2413667 -30.53041077 39.91952515 C-30.57917836 36.57320748 -30.60167938 33.22756034 -30.61927795 29.88095093 C-30.6399231 28.85042603 -30.66056824 27.81990112 -30.68183899 26.75814819 C-30.68415094 19.25572599 -29.21101207 13.98915843 -24.4044342 8.17391968 C-23.78955139 7.64411499 -23.17466858 7.1143103 -22.54115295 6.56845093 C-21.63816467 5.75440796 -21.63816467 5.75440796 -20.7169342 4.92391968 C-14.23199092 0.90264402 -7.49868112 -0.06204764 0 0 Z M-13.22865295 18.38095093 C-16.57392102 23.91328972 -16.63294883 28.90647072 -16.5216217 35.25204468 C-16.51737686 36.17437393 -16.51313202 37.09670319 -16.50875854 38.04698181 C-16.49206659 40.97111128 -16.45443233 43.89453241 -16.41615295 46.81845093 C-16.40109385 48.80997738 -16.38740759 50.80151472 -16.37513733 52.7930603 C-16.3447555 57.65617797 -16.28601672 62.51777863 -16.22865295 67.38095093 C-8.96865295 67.38095093 -1.70865295 67.38095093 5.77134705 67.38095093 C5.44134705 66.39095093 5.11134705 65.40095093 4.77134705 64.38095093 C4.48678789 61.61744373 4.59316713 59.18728453 4.77134705 56.38095093 C8.63382453 53.80596594 10.18100466 53.66575502 14.77134705 54.38095093 C17.94392632 56.54008837 20.50037884 59.17809741 23.14634705 61.94345093 C24.23109314 63.00015991 24.23109314 63.00015991 25.3377533 64.07821655 C28.60216457 67.40081152 30.55112639 69.65683554 31.9236908 74.17001343 C31.75493528 77.72686048 31.43155595 78.72074202 28.95884705 81.19345093 C28.31173767 81.84958374 27.6646283 82.50571655 26.99790955 83.18173218 C26.26314392 83.90747437 25.5283783 84.63321655 24.77134705 85.38095093 C23.97470642 86.28200562 23.1780658 87.1830603 22.35728455 88.11141968 C16.09488297 94.98455082 16.09488297 94.98455082 12.4236908 96.08407593 C10.27134705 96.13095093 10.27134705 96.13095093 6.77134705 95.38095093 C4.16429806 92.77390194 4.53229372 90.90756851 4.50572205 87.35360718 C4.77134705 85.38095093 4.77134705 85.38095093 6.77134705 82.38095093 C-0.81865295 82.38095093 -8.40865295 82.38095093 -16.22865295 82.38095093 C-16.22865295 92.28095093 -16.22865295 102.18095093 -16.22865295 112.38095093 C-13.1709967 112.40673218 -10.11334045 112.43251343 -6.96302795 112.45907593 C-4.00085756 112.49749125 -1.03886154 112.54265317 1.92320251 112.58847046 C3.98138603 112.61669141 6.03967815 112.63790034 8.0980072 112.65194702 C11.0573949 112.67336083 14.01547524 112.72000314 16.97447205 112.77157593 C18.3543631 112.77341888 18.3543631 112.77341888 19.76213074 112.77529907 C26.12772782 112.92115344 26.12772782 112.92115344 29.35630798 115.22763062 C31.27547702 118.14810524 31.28155364 119.95527806 30.77134705 123.38095093 C29.20490561 125.45089889 28.30960716 126.27528834 25.74017334 126.77967834 C24.57768318 126.79633293 24.57768318 126.79633293 23.39170837 126.81332397 C22.51102188 126.83311813 21.63033539 126.85291229 20.72296143 126.87330627 C19.77599899 126.8796962 18.82903656 126.88608612 17.8533783 126.89266968 C16.88099716 126.91062088 15.90861603 126.92857208 14.9067688 126.94706726 C11.79917241 127.0012756 8.69173052 127.0350999 5.58384705 127.06845093 C3.4777057 127.10161469 1.37158478 127.13610346 -0.73451233 127.17196655 C-5.89911457 127.25700824 -11.06367014 127.32376933 -16.22865295 127.38095093 C-16.22865295 131.01095093 -16.22865295 134.64095093 -16.22865295 138.38095093 C58.35134705 138.38095093 132.93134705 138.38095093 209.77134705 138.38095093 C209.83322205 119.17907593 209.89509705 99.97720093 209.95884705 80.19345093 C209.98615906 74.13074829 210.01347107 68.06804565 210.04161072 61.82162476 C210.05164411 56.38634747 210.05164411 56.38634747 210.05767822 50.95106506 C210.06228451 48.53043464 210.07283477 46.10981109 210.08807373 43.68922424 C210.11000477 40.02229861 210.113066 36.35579357 210.11192322 32.68881226 C210.12271754 31.61070439 210.13351187 30.53259653 210.14463329 29.42181873 C210.19389115 22.3800669 210.19389115 22.3800669 206.77134705 16.38095093 C203.55695136 14.77375309 200.05404151 15.23675463 196.52287292 15.24050903 C195.65968437 15.23753791 194.79649581 15.23456679 193.90715003 15.23150563 C190.99761489 15.22279309 188.08812078 15.22130823 185.17857361 15.21981812 C183.09936942 15.21519171 181.02016608 15.21016729 178.94096375 15.20477295 C173.27970316 15.19162896 167.61845444 15.18519999 161.95718098 15.18076229 C158.42233176 15.17783451 154.88748582 15.17373025 151.35263824 15.16925812 C140.29909029 15.15557732 129.24554978 15.14591377 118.19199395 15.14205623 C105.42111282 15.13757526 92.65033872 15.12002795 79.87949014 15.09105563 C70.01616579 15.06945429 60.15287159 15.05935276 50.28952384 15.05801511 C44.39501827 15.05696588 38.50061322 15.05103315 32.60613251 15.0331955 C27.06087224 15.01674183 21.51578834 15.01454621 15.97051239 15.0233345 C13.93475371 15.02410635 11.89898565 15.01974275 9.86325073 15.00987625 C7.08454137 14.9971984 4.30646052 15.003011 1.52775574 15.01345825 C0.31869611 15.00137365 0.31869611 15.00137365 -0.91478896 14.9890449 C-5.73264694 15.03142243 -9.07269126 15.68080122 -13.22865295 18.38095093 Z M-16.22865295 153.38095093 C-16.62539891 162.71624256 -16.62539891 162.71624256 -13.22865295 170.38095093 C-7.90472079 173.2610043 -3.59540531 173.81346543 2.38658142 173.76190186 C3.22883522 173.76658183 4.07108902 173.7712618 4.93886566 173.77608359 C7.74777189 173.78800436 10.5561876 173.77858781 13.36509705 173.76913452 C15.38430566 173.77320152 17.40351205 173.77854411 19.42271423 173.7850647 C24.89785734 173.79872882 30.37283065 173.79344331 35.84797668 173.78392744 C41.58090163 173.77632621 47.31381215 173.78337775 53.04673767 173.78808594 C62.67371732 173.79354213 72.30062789 173.78635542 81.92759705 173.77206421 C93.05380539 173.755738 104.17984881 173.7610266 115.30605316 173.77754343 C124.86292685 173.79116215 134.41975091 173.79307605 143.97663116 173.78522742 C149.68272606 173.78055305 155.38874347 173.77991963 161.09483337 173.78983688 C166.45961722 173.79850983 171.82418865 173.79247847 177.18894958 173.77515411 C179.15655668 173.77119105 181.12418168 173.77232022 183.09178162 173.77894211 C185.78013242 173.78715475 188.46780493 173.7768394 191.15611267 173.76190186 C192.3206686 173.7719401 192.3206686 173.7719401 193.50875092 173.78218114 C198.63032848 173.72708304 202.24140912 172.83148234 206.77134705 170.38095093 C210.56483895 164.3847863 209.77134705 161.04769882 209.77134705 153.38095093 C135.19134705 153.38095093 60.61134705 153.38095093 -16.22865295 153.38095093 Z M72.77134705 188.38095093 C70.73987128 201.87634203 70.73987128 201.87634203 68.77134705 215.38095093 C87.25134705 215.38095093 105.73134705 215.38095093 124.77134705 215.38095093 C123.13400503 206.37556982 121.45814372 197.37719985 119.77134705 188.38095093 C104.26134705 188.38095093 88.75134705 188.38095093 72.77134705 188.38095093 Z M37.77134705 231.38095093 C38.11921413 233.35631838 38.11921413 233.35631838 38.77134705 235.38095093 C41.1478732 236.569214 42.59171938 236.5092452 45.24362183 236.5146637 C46.18442093 236.51892868 47.12522003 236.52319366 48.0945282 236.52758789 C49.64759674 236.52690811 49.64759674 236.52690811 51.23204041 236.5262146 C52.31991348 236.52957321 53.40778656 236.53293182 54.52862549 236.53639221 C58.13949207 236.54592317 61.7503124 236.54784636 65.3611908 236.54891968 C67.86221333 236.55213062 70.36323568 236.55549457 72.86425781 236.55900574 C78.11250612 236.56500228 83.36074262 236.56688779 88.60899353 236.56625366 C94.67792247 236.56565274 100.74676255 236.5762068 106.815669 236.59199733 C112.65052144 236.60663883 118.48533863 236.61024201 124.3202076 236.60964394 C126.8045901 236.61082716 129.28897321 236.61526795 131.77334404 236.6229763 C135.24272488 236.63273315 138.71187489 236.62991521 142.18125916 236.62387085 C143.21461395 236.62949036 144.24796875 236.63510986 145.31263733 236.64089966 C146.72806572 236.63460793 146.72806572 236.63460793 148.17208862 236.62818909 C148.99265212 236.62873385 149.81321562 236.62927862 150.65864468 236.6298399 C153.07314015 236.50731461 153.07314015 236.50731461 155.77134705 234.38095093 C155.42347996 232.40558348 155.42347996 232.40558348 154.77134705 230.38095093 C152.39482089 229.19268785 150.95097471 229.25265665 148.29907227 229.24723816 C147.35827316 229.24297318 146.41747406 229.23870819 145.44816589 229.23431396 C144.41278687 229.23476715 143.37740784 229.23522034 142.31065369 229.23568726 C141.22278061 229.23232864 140.13490753 229.22897003 139.0140686 229.22550964 C135.40320202 229.21597869 131.79238169 229.21405549 128.1815033 229.21298218 C125.68048076 229.20977123 123.17945841 229.20640729 120.67843628 229.20289612 C115.43018797 229.19689958 110.18195147 229.19501406 104.93370056 229.19564819 C98.86477163 229.19624911 92.79593154 229.18569505 86.72702509 229.16990453 C80.89217266 229.15526302 75.05735546 229.15165985 69.2224865 229.15225792 C66.73810399 229.1510747 64.25372088 229.14663391 61.76935005 229.13892555 C58.29996921 229.12916871 54.8308192 229.13198664 51.36143494 229.13803101 C50.32808014 229.1324115 49.29472534 229.12679199 48.23005676 229.1210022 C46.81462837 229.12729393 46.81462837 229.12729393 45.37060547 229.13371277 C44.55004197 229.133168 43.72947847 229.13262323 42.88404942 229.13206196 C40.46955394 229.25458725 40.46955394 229.25458725 37.77134705 231.38095093 Z " fill="#EF7020" transform="translate(279.22865295410156,252.61904907226563)"/>
<path d="M0 0 C4.07356746 3.89450955 5.6367396 7.86753892 5.91156483 13.40234756 C5.91797505 14.96302774 5.91797505 14.96302774 5.92451477 16.55523682 C5.93524773 18.35097893 5.93524773 18.35097893 5.94619751 20.18299866 C5.94888641 21.4932048 5.95157532 22.80341095 5.9543457 24.15332031 C5.96061357 25.54978096 5.96726065 26.94623996 5.97425842 28.34269714 C5.99526239 32.92506761 6.0056572 37.50743828 6.015625 42.08984375 C6.01967389 43.66964485 6.02379085 45.24944577 6.02797508 46.82924652 C6.04701851 54.252024 6.06125146 61.67479158 6.06958705 69.09758878 C6.07935742 77.65586207 6.10567512 86.21387659 6.14608794 94.77205873 C6.17628025 101.39386786 6.19105886 108.01560293 6.19436806 114.63747954 C6.19671494 118.58931075 6.20562791 122.54086523 6.23082924 126.49262238 C6.25416991 130.21259086 6.25831946 133.93210157 6.24806786 137.6521244 C6.24733925 139.65923111 6.26638799 141.66631487 6.28613281 143.67332458 C6.24115512 151.5008458 5.72670686 157.42616803 0.19568348 163.41051102 C-20.56245237 183.2657121 -58.16160713 181.52057461 -84.6947937 180.93681335 C-94.33925791 180.66233846 -103.76810751 179.62491252 -113.22265625 177.69921875 C-113.91359375 177.56531738 -114.60453125 177.43141602 -115.31640625 177.29345703 C-126.41289522 175.05844644 -140.43415972 170.67769324 -148.16015625 161.82421875 C-150.92871117 157.62943857 -151.35194612 155.80735695 -151.38328552 150.81796265 C-151.39333115 149.56465149 -151.40337677 148.31134033 -151.41372681 147.02005005 C-151.41975723 145.62323058 -151.42564221 144.22641048 -151.43139648 142.82958984 C-151.44093318 141.36445897 -151.45082426 139.89933037 -151.46104431 138.4342041 C-151.49245852 133.61371543 -151.51270314 128.79320936 -151.53125 123.97265625 C-151.53454732 123.15244004 -151.53784464 122.33222383 -151.54124188 121.48715258 C-151.57203023 113.75036391 -151.59873696 106.01357138 -151.61566067 98.27673912 C-151.63755536 88.38330254 -151.67949363 78.49040953 -151.74909824 68.59719026 C-151.7963814 61.63997302 -151.82060018 54.68290218 -151.82785755 47.72552931 C-151.83280849 43.57119611 -151.84783444 39.4174752 -151.88760185 35.26331711 C-151.9245573 31.35117552 -151.93284946 27.43999357 -151.91959572 23.52770996 C-151.91964953 22.09585347 -151.92988868 20.66395353 -151.95134735 19.23225784 C-152.05966253 11.59398184 -151.98943685 6.02205185 -146.76585484 0.14298439 C-116.12170157 -28.52667354 -30.5157912 -25.43902304 0 0 Z M-136.22265625 11.69921875 C-134.31436772 16.78798815 -130.51853999 18.02697268 -125.828125 20.24609375 C-109.23598641 26.93328287 -91.29249563 28.09924977 -73.59765625 28.01171875 C-72.81062317 28.0095636 -72.02359009 28.00740845 -71.21270752 28.00518799 C-50.77815028 27.91563766 -27.42154044 27.16100808 -10.22265625 14.69921875 C-10.82809228 11.11957821 -11.17315159 10.73944129 -14.22265625 8.26171875 C-43.70379723 -8.91793894 -109.14743691 -10.74775797 -136.22265625 11.69921875 Z M-137.22265625 31.69921875 C-137.39709191 36.09455023 -137.50356326 40.48899141 -137.59765625 44.88671875 C-137.64792969 46.13259766 -137.69820312 47.37847656 -137.75 48.66210938 C-138.06433785 54.88969261 -138.06433785 54.88969261 -136.04272461 60.58813477 C-134.34377099 62.1520439 -134.34377099 62.1520439 -131.22265625 63.69921875 C-129.96388672 64.41271484 -129.96388672 64.41271484 -128.6796875 65.140625 C-111.18744671 72.55609488 -92.67578306 73.93291957 -73.91015625 73.94921875 C-73.10785583 73.95022583 -72.30555542 73.95123291 -71.47894287 73.95227051 C-59.1881032 73.94183556 -47.24558554 73.48744057 -35.22265625 70.69921875 C-34.55137695 70.54404785 -33.88009766 70.38887695 -33.18847656 70.22900391 C-19.7968601 67.01028998 -19.7968601 67.01028998 -9.22265625 58.69921875 C-8.67340847 55.70690329 -8.67340847 55.70690329 -8.83203125 52.40234375 C-8.84492188 51.19707031 -8.8578125 49.99179687 -8.87109375 48.75 C-8.90460938 47.49574219 -8.938125 46.24148438 -8.97265625 44.94921875 C-8.99070313 43.67949219 -9.00875 42.40976562 -9.02734375 41.1015625 C-9.07448472 37.96668798 -9.14027961 34.83333315 -9.22265625 31.69921875 C-10.39699219 32.09753906 -11.57132812 32.49585938 -12.78125 32.90625 C-29.05079199 38.3050428 -45.46714863 41.79700398 -62.67578125 41.90234375 C-63.83708557 41.91286522 -63.83708557 41.91286522 -65.02185059 41.92359924 C-67.50551245 41.94099283 -69.98893572 41.94745108 -72.47265625 41.94921875 C-73.74671326 41.95023087 -73.74671326 41.95023087 -75.04650879 41.95126343 C-96.93324483 41.92364039 -116.4635508 38.65560067 -137.22265625 31.69921875 Z M-137.22265625 77.69921875 C-137.39709191 82.09455023 -137.50356326 86.48899141 -137.59765625 90.88671875 C-137.64792969 92.13259766 -137.69820312 93.37847656 -137.75 94.66210938 C-138.06433785 100.88969261 -138.06433785 100.88969261 -136.04272461 106.58813477 C-134.34377099 108.1520439 -134.34377099 108.1520439 -131.22265625 109.69921875 C-129.96388672 110.41271484 -129.96388672 110.41271484 -128.6796875 111.140625 C-111.18744671 118.55609488 -92.67578306 119.93291957 -73.91015625 119.94921875 C-73.10785583 119.95022583 -72.30555542 119.95123291 -71.47894287 119.95227051 C-59.1881032 119.94183556 -47.24558554 119.48744057 -35.22265625 116.69921875 C-34.55137695 116.54404785 -33.88009766 116.38887695 -33.18847656 116.22900391 C-19.7968601 113.01028998 -19.7968601 113.01028998 -9.22265625 104.69921875 C-8.67340847 101.70690329 -8.67340847 101.70690329 -8.83203125 98.40234375 C-8.84492188 97.19707031 -8.8578125 95.99179687 -8.87109375 94.75 C-8.90460938 93.49574219 -8.938125 92.24148438 -8.97265625 90.94921875 C-8.99070313 89.67949219 -9.00875 88.40976562 -9.02734375 87.1015625 C-9.07448472 83.96668798 -9.14027961 80.83333315 -9.22265625 77.69921875 C-10.39699219 78.09753906 -11.57132812 78.49585938 -12.78125 78.90625 C-29.05074284 84.30502649 -45.4671815 87.79712706 -62.67578125 87.90234375 C-63.83728951 87.91279724 -63.83728951 87.91279724 -65.02226257 87.92346191 C-67.50578319 87.94074344 -69.98907803 87.94718089 -72.47265625 87.94921875 C-73.32103058 87.95022583 -74.16940491 87.95123291 -75.04348755 87.95227051 C-96.92393045 87.93469648 -116.49793145 84.712662 -137.22265625 77.69921875 Z M-137.22265625 123.69921875 C-137.39709191 128.09455023 -137.50356326 132.48899141 -137.59765625 136.88671875 C-137.64792969 138.13259766 -137.69820312 139.37847656 -137.75 140.66210938 C-138.06433785 146.88969261 -138.06433785 146.88969261 -136.04272461 152.58813477 C-134.34377099 154.1520439 -134.34377099 154.1520439 -131.22265625 155.69921875 C-129.96388672 156.41271484 -129.96388672 156.41271484 -128.6796875 157.140625 C-111.18744671 164.55609488 -92.67578306 165.93291957 -73.91015625 165.94921875 C-73.10785583 165.95022583 -72.30555542 165.95123291 -71.47894287 165.95227051 C-59.1881032 165.94183556 -47.24558554 165.48744057 -35.22265625 162.69921875 C-34.55137695 162.54404785 -33.88009766 162.38887695 -33.18847656 162.22900391 C-19.7968601 159.01028998 -19.7968601 159.01028998 -9.22265625 150.69921875 C-8.67340847 147.70690329 -8.67340847 147.70690329 -8.83203125 144.40234375 C-8.84492188 143.19707031 -8.8578125 141.99179687 -8.87109375 140.75 C-8.90460938 139.49574219 -8.938125 138.24148438 -8.97265625 136.94921875 C-8.99070313 135.67949219 -9.00875 134.40976562 -9.02734375 133.1015625 C-9.07448472 129.96668798 -9.14027961 126.83333315 -9.22265625 123.69921875 C-10.39699219 124.09753906 -11.57132812 124.49585938 -12.78125 124.90625 C-29.05079199 130.3050428 -45.46714863 133.79700398 -62.67578125 133.90234375 C-63.83708557 133.91286522 -63.83708557 133.91286522 -65.02185059 133.92359924 C-67.50551245 133.94099283 -69.98893572 133.94745108 -72.47265625 133.94921875 C-73.74671326 133.95023087 -73.74671326 133.95023087 -75.04650879 133.95126343 C-96.93324483 133.92364039 -116.4635508 130.65560067 -137.22265625 123.69921875 Z " fill="#F49D1A" transform="translate(160.22265625,268.30078125)"/>
<path d="M0 0 C11.06734812 7.91822581 19.04215996 18.94083087 22.85546875 32.04296875 C23.27155015 34.70663831 23.56907552 37.36051334 23.85546875 40.04296875 C24.53013184 40.0272583 25.20479492 40.01154785 25.89990234 39.99536133 C29.01000299 39.93230796 32.11996847 39.89375744 35.23046875 39.85546875 C36.82181641 39.81776367 36.82181641 39.81776367 38.4453125 39.77929688 C52.20923269 39.65263503 63.92713951 44.15114677 74.10546875 53.54296875 C83.97654258 63.94846378 88.26397262 76.69001483 88.22460938 90.83618164 C87.8483944 103.91723714 82.42650165 115.17994483 73.66796875 124.79296875 C63.34918886 134.39612855 51.22116064 138.33218697 37.38671875 138.44140625 C34.46003399 137.98072439 33.58390663 137.40702573 31.85546875 135.04296875 C30.812108 131.61478344 30.55451557 129.78807958 31.90625 126.44140625 C34.61565463 123.10758973 36.71719324 123.12415438 40.91796875 122.54296875 C51.05595774 120.87117537 59.51535251 117.43192662 65.85546875 109.04296875 C71.3733912 99.75566031 73.66859599 90.86531772 71.171875 80.09375 C67.90281142 70.36794675 63.32005535 64.37681812 54.41796875 59.26953125 C49.17427082 56.75959047 44.6973975 55.79442438 38.8828125 55.734375 C37.57119141 55.70923828 36.25957031 55.68410156 34.90820312 55.65820312 C32.84563282 55.6294368 30.78314536 55.60537965 28.72045898 55.58666992 C26.71190482 55.56494937 24.70357574 55.52487613 22.6953125 55.484375 C21.50284912 55.47092041 20.31038574 55.45746582 19.08178711 55.44360352 C15.28325953 54.97191348 12.58336091 53.77086091 9.85546875 51.04296875 C9.5612362 49.32202587 9.27147696 47.60017786 9.00634766 45.87451172 C7.16320813 34.1959754 3.3002929 22.54618276 -6.5859375 15.23828125 C-17.80834622 7.71505315 -28.62463741 4.64178676 -42.01953125 7.1875 C-52.61236749 10.08728892 -61.55222217 15.59877328 -67.39453125 24.91796875 C-71.70721513 32.63721409 -73.51634932 39.27020263 -74.51953125 48.08984375 C-75.19564024 51.2844587 -75.82297439 52.76784302 -78.14453125 55.04296875 C-80.52734375 56.0625 -80.52734375 56.0625 -83.26953125 56.85546875 C-92.49818074 60.01295913 -98.3463858 65.07360623 -102.9921875 73.64453125 C-107.12003703 82.23605536 -107.52938475 91.56942275 -104.70703125 100.66796875 C-101.10736604 109.40820848 -94.65059305 116.20942192 -86.0390625 120.1015625 C-81.25247932 121.65833247 -76.34029629 122.38617928 -71.3671875 123.07421875 C-68.14453125 124.04296875 -68.14453125 124.04296875 -66.1953125 126.44140625 C-64.84357807 129.78807958 -65.1011705 131.61478344 -66.14453125 135.04296875 C-67.85053198 137.35591205 -68.74494783 137.97256596 -71.60546875 138.4765625 C-86.01504028 138.49587828 -98.23587537 133.56668855 -108.89453125 123.85546875 C-118.56887037 113.46020532 -122.67060429 101.07612208 -122.56665039 87.10009766 C-122.05072147 72.84692679 -115.78307211 60.83387899 -105.58984375 51.08984375 C-100.95404738 47.20940078 -95.89443842 43.95960447 -90.14453125 42.04296875 C-89.32416537 39.18883989 -89.32416537 39.18883989 -88.83203125 35.73046875 C-86.39477584 23.41920422 -81.00738553 14.79922512 -72.14453125 6.04296875 C-71.51804688 5.39457031 -70.8915625 4.74617188 -70.24609375 4.078125 C-51.54081177 -13.95629243 -20.93436224 -12.9699021 0 0 Z " fill="#EB4825" transform="translate(273.14453125,17.95703125)"/>
<path d="M0 0 C2.18640137 1.58227539 2.18640137 1.58227539 4 4 C4.50793457 7.26342773 4.50793457 7.26342773 4.51757812 11.18359375 C4.5245874 11.89951691 4.53159668 12.61544006 4.53881836 13.35305786 C4.55639548 15.71493543 4.54477775 18.07561067 4.53125 20.4375 C4.53394502 22.08130116 4.53782753 23.72510077 4.54284668 25.36889648 C4.5487413 28.81216628 4.54018028 32.25502071 4.52148438 35.69824219 C4.49869442 40.11033693 4.51181775 44.52145842 4.53577423 48.93351746 C4.55023343 52.32734501 4.54562576 55.72094209 4.53526306 59.11477661 C4.53259609 60.74146642 4.53586453 62.36817721 4.54518127 63.99484253 C4.55534942 66.26926028 4.53984477 68.54210554 4.51757812 70.81640625 C4.51439575 72.11006104 4.51121338 73.40371582 4.50793457 74.73657227 C3.91641827 78.53700409 3.04932997 79.73065164 0 82 C-2.47363281 82.45410156 -2.47363281 82.45410156 -5.203125 82.390625 C-6.67265625 82.37128906 -6.67265625 82.37128906 -8.171875 82.3515625 C-9.18765625 82.31804687 -10.2034375 82.28453125 -11.25 82.25 C-12.28125 82.23195313 -13.3125 82.21390625 -14.375 82.1953125 C-16.91761064 82.14822712 -19.45833162 82.0824805 -22 82 C-22.26554687 82.92425781 -22.53109375 83.84851563 -22.8046875 84.80078125 C-24.70804888 89.89507199 -28.23842345 92.55423345 -32.9921875 95.04296875 C-39.30357463 97.65838793 -44.59421187 97.68061337 -51.0625 95.4375 C-57.41436762 92.72079558 -61.24791301 88.2733162 -64 82 C-65.90203728 74.64926946 -64.70015352 67.75838376 -60.96484375 61.17578125 C-57.85716112 56.99357785 -53.94675152 54.41109258 -49 53 C-42.28599265 52.1775341 -35.68276861 52.06807925 -29.72265625 55.5859375 C-26.52193271 58.21328879 -24.05013106 61.41227065 -22 65 C-22 65.66 -22 66.32 -22 67 C-18.37 67 -14.74 67 -11 67 C-11.00888245 66.21961365 -11.01776489 65.43922729 -11.0269165 64.63519287 C-11.10708675 57.2784018 -11.16797631 49.92182271 -11.20724869 42.56470871 C-11.22811795 38.78237005 -11.25642248 35.00039253 -11.30175781 31.21826172 C-11.34524074 27.56779688 -11.36914209 23.91767924 -11.37950897 20.2669754 C-11.3868961 18.87468246 -11.40132175 17.48240838 -11.42292023 16.09026337 C-11.45198041 14.13946589 -11.45363412 12.18831854 -11.45410156 10.23730469 C-11.46298401 9.1269989 -11.47186646 8.01669312 -11.48101807 6.8727417 C-10.38073415 0.3016133 -6.07064028 -0.86723433 0 0 Z M-47.875 69.25 C-49.20345668 71.31648817 -49.85463211 72.52874594 -50 75 C-48.35923508 78.44560634 -47.21487558 79.85674962 -44 82 C-41.19082062 81.78931155 -39.51207883 81.38405913 -37.25 79.6875 C-35.7508809 77.66368922 -35.14879101 76.52944715 -35 74 C-36.14786941 71.75643706 -37.2095767 69.7904233 -39 68 C-43.68010587 67.53280543 -43.68010587 67.53280543 -47.875 69.25 Z " fill="#EE6521" transform="translate(224,112)"/>
<path d="M0 0 C2.86066915 2.14372824 3.88481661 3.31210039 4.48101807 6.8727417 C4.47213562 7.98304749 4.46325317 9.09335327 4.45410156 10.23730469 C4.45379944 11.49830994 4.45349731 12.75931519 4.45318604 14.05853271 C4.43276105 15.42965326 4.41189709 16.80076733 4.390625 18.171875 C4.38316117 19.57862544 4.3774689 20.98538631 4.37347412 22.39215088 C4.3582286 26.08808282 4.31895731 29.78338227 4.2746582 33.47906494 C4.23368143 37.25288335 4.21545804 41.02680432 4.1953125 44.80078125 C4.15246099 52.20080864 4.08422405 59.60031557 4 67 C7.63 67 11.26 67 15 67 C15.66 65.35 16.32 63.7 17 62 C20.03642486 57.21179157 23.61296316 54.59143111 29 53 C35.69555494 52.1724595 42.37125517 52.03274362 48.28515625 55.62109375 C54.25597751 60.42223248 56.8600668 65.77886016 57.8828125 73.32421875 C58.16915667 79.86241072 56.08049101 84.87023987 52 90 C47.31126474 94.55849261 42.0302241 96.60719317 35.625 97.4375 C27.86099947 96.50046545 21.9867185 93.92395507 17.05859375 87.78125 C15.91806843 85.86213728 15.49692311 84.16330735 15 82 C14.03175293 82.0314209 14.03175293 82.0314209 13.04394531 82.06347656 C10.11278932 82.14674205 7.18188223 82.19869206 4.25 82.25 C3.23421875 82.28351563 2.2184375 82.31703125 1.171875 82.3515625 C0.1921875 82.36445313 -0.7875 82.37734375 -1.796875 82.390625 C-2.69760742 82.41157227 -3.59833984 82.43251953 -4.52636719 82.45410156 C-7.90783678 81.83334224 -8.90096542 80.70585446 -11 78 C-11.50793457 74.73657227 -11.50793457 74.73657227 -11.51757812 70.81640625 C-11.5245874 70.10048309 -11.53159668 69.38455994 -11.53881836 68.64694214 C-11.55639548 66.28506457 -11.54477775 63.92438933 -11.53125 61.5625 C-11.53394502 59.91869884 -11.53782753 58.27489923 -11.54284668 56.63110352 C-11.5487413 53.18783372 -11.54018028 49.74497929 -11.52148438 46.30175781 C-11.49869442 41.88966307 -11.51181775 37.47854158 -11.53577423 33.06648254 C-11.55023343 29.67265499 -11.54562576 26.27905791 -11.53526306 22.88522339 C-11.53259609 21.25853358 -11.53586453 19.63182279 -11.54518127 18.00515747 C-11.55534942 15.73073972 -11.53984477 13.45789446 -11.51757812 11.18359375 C-11.51439575 9.88993896 -11.51121338 8.59628418 -11.50793457 7.26342773 C-11 4 -11 4 -9.18640137 1.58227539 C-5.99041652 -0.73062482 -3.84399706 -0.54914244 0 0 Z M30.125 69.1875 C28.62639271 71.60192285 28.06817174 73.13678706 28 76 C29.81557486 79.0725113 31.15282518 80.63071867 34.4375 82.0625 C38.10018003 81.97316634 39.48914235 80.5806037 42 78 C43.1576585 76.12042756 43.1576585 76.12042756 43 74 C41.85213059 71.75643706 40.7904233 69.7904233 39 68 C34.34203151 67.547165 34.34203151 67.547165 30.125 69.1875 Z " fill="#EB4F24" transform="translate(295,112)"/>
<path d="M0 0 C1.0209375 -0.01160156 1.0209375 -0.01160156 2.0625 -0.0234375 C4.72500116 0.52409298 5.41404256 1.14237089 7 3.375 C7.26309093 6.07572417 7.34512836 8.54207566 7.28955078 11.23950195 C7.2852858 12.03984863 7.28102081 12.84019531 7.27662659 13.66479492 C7.26632096 15.40326389 7.24961623 17.14170393 7.22729874 18.8800602 C7.19507484 21.63358936 7.18635302 24.38623089 7.18502808 27.13993835 C7.17941357 34.96894235 7.1503353 42.7972273 7.05859375 50.62573242 C7.00415707 55.41474154 6.9935008 60.20218177 7.01073837 64.99144554 C7.00879623 66.81474218 6.99033574 68.63809998 6.95492935 70.46105385 C6.35472741 80.22059525 6.35472741 80.22059525 10.00090027 88.77458191 C12.28639879 90.28965006 14.48011438 91.31991102 17 92.375 C21.43462378 97.7404557 22.7814758 103.91437249 22.4140625 110.76953125 C21.33283684 117.57309274 18.09242083 121.81795439 12.87890625 126.1484375 C6.91895427 130.0391338 0.91325113 130.08520395 -6 129.375 C-12.18595462 127.65610745 -16.52843784 123.69290255 -20 118.375 C-22.8826495 112.2927086 -23.0985668 106.09732828 -21.1953125 99.6484375 C-18.23572004 92.89240229 -18.23572004 92.89240229 -14.87348938 91.48461914 C-11.84328152 90.12308132 -10.14060139 88.94211863 -8 86.375 C-6.64643754 80.18286546 -6.88524815 74.04870092 -7.0078125 67.73828125 C-7.00977788 65.89316257 -7.00734284 64.04803441 -7.0007019 62.20292664 C-6.99308202 57.355277 -7.03651799 52.5095044 -7.09332275 47.66223145 C-7.17604383 39.89410045 -7.18262922 32.12560544 -7.18636703 24.35710716 C-7.19521597 21.64289073 -7.22666215 18.92964535 -7.26150513 16.21565247 C-7.27133797 14.55693843 -7.2807116 12.89822158 -7.28955078 11.23950195 C-7.30512527 10.48360275 -7.32069977 9.72770355 -7.33674622 8.94889832 C-7.34018504 3.85389495 -7.34018504 3.85389495 -5.60299683 1.40837097 C-3.60901095 0.12294913 -2.36296157 -0.02685184 0 0 Z M-4.75 102.5625 C-7.14444193 105.13010369 -7.14444193 105.13010369 -7.5625 107.9375 C-6.80167555 111.23440593 -5.75181556 112.41976263 -3 114.375 C0.65852292 114.98475382 2.30512879 114.82043026 5.4375 112.8125 C7.32042676 110.35768571 7.32042676 110.35768571 7 106.8125 C6.28410124 103.38614265 6.28410124 103.38614265 4.1875 101.4375 C0.36035632 99.57860164 -1.48294701 99.96370784 -4.75 102.5625 Z " fill="#ED5D22" transform="translate(256,111.625)"/>
<path d="M0 0 C0.89396484 -0.01224609 1.78792969 -0.02449219 2.70898438 -0.03710938 C11.25353054 -0.05613954 11.25353054 -0.05613954 15.0625 2.1875 C17.38999345 5.67874017 17.56549316 7.07972251 17.0625 11.1875 C14.94271078 13.95625542 13.74869328 15.05962291 10.28515625 15.70507812 C9.24230469 15.70958984 8.19945312 15.71410156 7.125 15.71875 C5.41183594 15.72648437 5.41183594 15.72648437 3.6640625 15.734375 C2.47554688 15.71890625 1.28703125 15.7034375 0.0625 15.6875 C-1.12601562 15.70296875 -2.31453125 15.7184375 -3.5390625 15.734375 C-4.68117188 15.72921875 -5.82328125 15.7240625 -7 15.71875 C-8.04285156 15.71423828 -9.08570313 15.70972656 -10.16015625 15.70507812 C-13.62268311 15.05981117 -14.8132719 13.95049952 -16.9375 11.1875 C-17.43602036 7.76907468 -17.33433108 5.9216375 -15.6875 2.875 C-11.62450047 -1.04289241 -5.28308783 0.0037926 0 0 Z " fill="#F0721F" transform="translate(375.9375,407.8125)"/>
<path d="M0 0 C1.8515625 1.35546875 1.8515625 1.35546875 3 3 C3.86979395 9.84962736 3.86979395 9.84962736 1.0625 13.5625 C-3.328525 15.62359337 -6.34892688 14.96781312 -11 14 C-12.02609375 13.81050781 -13.0521875 13.62101562 -14.109375 13.42578125 C-18.68923136 12.45954326 -22.12369228 11.70104618 -25.8125 8.75 C-27.42389079 5.01835816 -27.14658037 2.86970874 -26 -1 C-21.18113735 -7.4251502 -6.43907284 -2.08690172 0 0 Z " fill="#F7B216" transform="translate(58,409)"/>
<path d="M0 0 C1.63388672 0.31710937 1.63388672 0.31710937 3.30078125 0.640625 C13.79782271 2.83577939 13.79782271 2.83577939 16 6 C16.86979395 12.84962736 16.86979395 12.84962736 14.0625 16.5625 C9.671475 18.62359337 6.65107312 17.96781312 2 17 C0.97390625 16.81050781 -0.0521875 16.62101562 -1.109375 16.42578125 C-5.68923136 15.45954326 -9.12369228 14.70104618 -12.8125 11.75 C-14.4361675 7.9899279 -14.22353109 5.88651051 -13 2 C-8.98908142 -1.88937559 -5.06658548 -1.063258 0 0 Z " fill="#F6A918" transform="translate(45,360)"/>
<path d="M0 0 C1.50626953 0.31710937 1.50626953 0.31710937 3.04296875 0.640625 C12.82020905 2.87950585 12.82020905 2.87950585 16 6 C16.45389759 9.1772831 16.67790128 10.98576038 16 14 C14.0625 16.5625 14.0625 16.5625 11 18 C7.88409609 18.19076963 5.04471808 17.63355661 2 17 C0.97390625 16.81050781 -0.0521875 16.62101562 -1.109375 16.42578125 C-5.68923136 15.45954326 -9.12369228 14.70104618 -12.8125 11.75 C-14.4361675 7.9899279 -14.22353109 5.88651051 -13 2 C-9.00187687 -1.87696788 -5.05540592 -1.09216625 0 0 Z " fill="#F5A119" transform="translate(45,314)"/>
</svg>
