<?xml version="1.0" encoding="UTF-8"?>
<svg version="1.1" xmlns="http://www.w3.org/2000/svg" width="512" height="512">
<path d="M0 0 C25.31326221 21.60684047 44.0760265 51.15191611 47.3515625 84.91015625 C47.62621804 90.24797663 47.54325671 95.5711174 47.3515625 100.91015625 C48.16496094 100.86375 48.97835938 100.81734375 49.81640625 100.76953125 C73.37323295 100.02758395 95.99458991 109.6949086 113.07421875 125.72607422 C132.05251817 143.96536263 143.16555917 166.84071348 143.82446289 193.22900391 C144.03372578 221.65482209 135.59027923 245.36684345 115.3515625 265.91015625 C97.68642093 283.60483819 74.49736259 293.19261527 49.62890625 293.30078125 C45.51476269 293.2890088 41.4026002 293.22824948 37.2890625 293.16015625 C35.15040757 293.1400369 33.01173412 293.12179585 30.87304688 293.10546875 C25.69837007 293.06540157 20.52633785 292.98704107 15.3515625 292.91015625 C15.3515625 303.47015625 15.3515625 314.03015625 15.3515625 324.91015625 C36.4715625 324.91015625 57.5915625 324.91015625 79.3515625 324.91015625 C79.3515625 346.03015625 79.3515625 367.15015625 79.3515625 388.91015625 C89.9115625 388.91015625 100.4715625 388.91015625 111.3515625 388.91015625 C111.3515625 410.03015625 111.3515625 431.15015625 111.3515625 452.91015625 C79.6715625 452.91015625 47.9915625 452.91015625 15.3515625 452.91015625 C15.3515625 431.79015625 15.3515625 410.67015625 15.3515625 388.91015625 C25.9115625 388.91015625 36.4715625 388.91015625 47.3515625 388.91015625 C47.3515625 378.35015625 47.3515625 367.79015625 47.3515625 356.91015625 C26.2315625 356.91015625 5.1115625 356.91015625 -16.6484375 356.91015625 C-16.6484375 335.79015625 -16.6484375 314.67015625 -16.6484375 292.91015625 C-43.0484375 292.91015625 -69.4484375 292.91015625 -96.6484375 292.91015625 C-96.6484375 324.59015625 -96.6484375 356.27015625 -96.6484375 388.91015625 C-86.0884375 388.91015625 -75.5284375 388.91015625 -64.6484375 388.91015625 C-64.6484375 410.03015625 -64.6484375 431.15015625 -64.6484375 452.91015625 C-96.3284375 452.91015625 -128.0084375 452.91015625 -160.6484375 452.91015625 C-160.6484375 431.79015625 -160.6484375 410.67015625 -160.6484375 388.91015625 C-150.0884375 388.91015625 -139.5284375 388.91015625 -128.6484375 388.91015625 C-128.6484375 357.23015625 -128.6484375 325.55015625 -128.6484375 292.91015625 C-155.0484375 292.91015625 -181.4484375 292.91015625 -208.6484375 292.91015625 C-208.6484375 314.03015625 -208.6484375 335.15015625 -208.6484375 356.91015625 C-229.7684375 356.91015625 -250.8884375 356.91015625 -272.6484375 356.91015625 C-272.6484375 367.47015625 -272.6484375 378.03015625 -272.6484375 388.91015625 C-262.0884375 388.91015625 -251.5284375 388.91015625 -240.6484375 388.91015625 C-240.6484375 410.03015625 -240.6484375 431.15015625 -240.6484375 452.91015625 C-272.3284375 452.91015625 -304.0084375 452.91015625 -336.6484375 452.91015625 C-336.6484375 431.79015625 -336.6484375 410.67015625 -336.6484375 388.91015625 C-326.0884375 388.91015625 -315.5284375 388.91015625 -304.6484375 388.91015625 C-304.6484375 367.79015625 -304.6484375 346.67015625 -304.6484375 324.91015625 C-283.5284375 324.91015625 -262.4084375 324.91015625 -240.6484375 324.91015625 C-240.6484375 314.35015625 -240.6484375 303.79015625 -240.6484375 292.91015625 C-243.77183594 292.9565625 -246.89523438 293.00296875 -250.11328125 293.05078125 C-253.19814435 293.0821341 -256.2829885 293.10633192 -259.36791992 293.12988281 C-261.48291195 293.14977956 -263.5978506 293.1769069 -265.71264648 293.21191406 C-294.02552337 293.66824865 -318.13776991 287.06655818 -339.27734375 267.24609375 C-357.74390785 249.05333373 -368.47310585 226.55221112 -369.12133789 200.59130859 C-369.33060078 172.16549041 -360.88715423 148.45346905 -340.6484375 127.91015625 C-324.76054332 111.99569368 -302.54164378 100.9040473 -279.76123047 100.64208984 C-276.7183176 100.66736207 -273.68795 100.76288512 -270.6484375 100.91015625 C-270.57367188 100.35070312 -270.49890625 99.79125 -270.421875 99.21484375 C-267.22915431 79.74550777 -255.06235744 62.70830091 -239.5625 50.85546875 C-227.16324311 42.57821683 -213.34894943 36.71384918 -198.2734375 36.97265625 C-193.92248421 36.76267758 -192.27460958 36.53632833 -189.16015625 33.421875 C-187.2423182 30.57747932 -185.49151746 27.70940353 -183.77880859 24.74169922 C-168.44245821 -0.10782575 -140.13745417 -16.45577293 -112.6484375 -24.08984375 C-111.47152344 -24.43015625 -110.29460937 -24.77046875 -109.08203125 -25.12109375 C-71.93031253 -33.92984374 -29.42517011 -24.13571024 0 0 Z " fill="#4DB5FF" transform="translate(368.6484375,43.08984375)"/>
<path d="M0 0 C2.60758429 2.33448995 5.16158915 4.7217188 7.6875 7.14453125 C7.15863167 11.22788669 5.09120962 13.08806143 2.21484375 15.91015625 C1.31572266 16.79960937 0.41660156 17.6890625 -0.50976562 18.60546875 C-1.45529297 19.52585938 -2.40082031 20.44625 -3.375 21.39453125 C-4.33466973 22.33914798 -5.29366229 23.2844532 -6.25195312 24.23046875 C-8.59888828 26.54202297 -10.95253391 28.84629465 -13.3125 31.14453125 C-17.57652315 27.9920669 -21.74315353 24.8086712 -25.75 21.33203125 C-48.12484823 3.51376305 -77.2814777 -2.88230812 -105.3125 -0.85546875 C-119.12086395 0.84772768 -131.97464933 4.77571895 -144.3125 11.14453125 C-145.35277344 11.67820313 -146.39304688 12.211875 -147.46484375 12.76171875 C-154.67675742 16.72305898 -161.0086337 21.62318393 -167.37890625 26.7890625 C-170.3125 29.14453125 -170.3125 29.14453125 -173.3125 31.14453125 C-180.5725 23.88453125 -187.8325 16.62453125 -195.3125 9.14453125 C-190.71369014 3.77925308 -187.02005617 -0.04346378 -181.5625 -4.16796875 C-180.82443115 -4.72629395 -180.0863623 -5.28461914 -179.32592773 -5.85986328 C-126.55480793 -44.86339375 -49.91269634 -43.70324867 0 0 Z " fill="#7FE9FF" transform="translate(349.3125,161.85546875)"/>
<path d="M0 0 C1.35569284 1.10229231 2.70994923 2.20635452 4.0625 3.3125 C5.39112124 4.31875214 6.72307878 5.32066908 8.0625 6.3125 C7.53363167 10.39585544 5.46620962 12.25603018 2.58984375 15.078125 C1.69072266 15.96757812 0.79160156 16.85703125 -0.13476562 17.7734375 C-1.08029297 18.69382813 -2.02582031 19.61421875 -3 20.5625 C-3.95966973 21.50711673 -4.91866229 22.45242195 -5.87695312 23.3984375 C-8.22388828 25.70999172 -10.57753391 28.0142634 -12.9375 30.3125 C-15.8450621 28.89559775 -18.37622966 27.33053804 -21 25.4375 C-25.99168815 22.0573668 -31.19762923 20.07513748 -36.9375 18.3125 C-37.56914062 18.11785156 -38.20078125 17.92320312 -38.8515625 17.72265625 C-52.49412086 15.04013073 -65.56797813 18.77581533 -76.9375 26.3125 C-78.30727965 27.60836237 -79.65271503 28.93232496 -80.9375 30.3125 C-86.57508093 27.89880037 -90.42762406 23.15060665 -94.6875 18.875 C-95.57566406 18.00294922 -96.46382812 17.13089844 -97.37890625 16.23242188 C-98.21808594 15.39388672 -99.05726563 14.55535156 -99.921875 13.69140625 C-101.07768066 12.54007202 -101.07768066 12.54007202 -102.25683594 11.36547852 C-103.9375 9.3125 -103.9375 9.3125 -103.9375 6.3125 C-76.98879648 -21.6917979 -30.06889964 -23.04798104 0 0 Z " fill="#7FE9FF" transform="translate(303.9375,207.6875)"/>
<path d="M0 0 C10.56 0 21.12 0 32 0 C32 10.56 32 21.12 32 32 C21.44 32 10.88 32 0 32 C0 21.44 0 10.88 0 0 Z " fill="#4D7CFF" transform="translate(416,432)"/>
<path d="M0 0 C10.56 0 21.12 0 32 0 C32 10.56 32 21.12 32 32 C21.44 32 10.88 32 0 32 C0 21.44 0 10.88 0 0 Z " fill="#4D7CFF" transform="translate(240,432)"/>
<path d="M0 0 C10.56 0 21.12 0 32 0 C32 10.56 32 21.12 32 32 C21.44 32 10.88 32 0 32 C0 21.44 0 10.88 0 0 Z " fill="#4D7CFF" transform="translate(64,432)"/>
<path d="M0 0 C10.56 0 21.12 0 32 0 C32 10.56 32 21.12 32 32 C21.44 32 10.88 32 0 32 C0 21.44 0 10.88 0 0 Z " fill="#4D7CFF" transform="translate(352,304)"/>
<path d="M0 0 C10.56 0 21.12 0 32 0 C32 10.56 32 21.12 32 32 C21.44 32 10.88 32 0 32 C0 21.44 0 10.88 0 0 Z " fill="#4D7CFF" transform="translate(240,304)"/>
<path d="M0 0 C10.56 0 21.12 0 32 0 C32 10.56 32 21.12 32 32 C21.44 32 10.88 32 0 32 C0 21.44 0 10.88 0 0 Z " fill="#4D7CFF" transform="translate(128,304)"/>
<path d="M0 0 C4.85617985 1.68098533 8.58472043 4.40038392 11 9 C12.32558973 13.92826612 12.30675381 17.89929517 10.9375 22.8125 C8.18641638 27.33847628 5.77184506 30.25901172 0.6328125 31.6328125 C-5.00222896 32.43781842 -9.02277453 32.02537234 -14 29 C-17.8678843 25.55253791 -19.26698087 23.1936339 -20 18.0625 C-20.23431444 13.33360865 -19.49893613 10.11115298 -17 6 C-11.64825929 0.52015912 -7.45208016 -0.67975056 0 0 Z " fill="#7FE9FF" transform="translate(260,256)"/>
</svg>
