<?xml version="1.0" encoding="UTF-8"?>
<svg version="1.1" xmlns="http://www.w3.org/2000/svg" width="512" height="512">
<path d="M0 0 C0.96574331 -0.00679667 0.96574331 -0.00679667 1.95099658 -0.01373065 C4.10035462 -0.02635324 6.24945857 -0.0247557 8.39884949 -0.02310181 C9.94324061 -0.02908844 11.48762873 -0.0358943 13.03201294 -0.04345703 C17.22221905 -0.06111142 21.41234346 -0.0658122 25.60258317 -0.0670886 C28.22236557 -0.06851118 30.84212727 -0.07278283 33.46190453 -0.07808304 C42.6069152 -0.0965821 51.7518676 -0.10475389 60.89689636 -0.10317993 C69.41239357 -0.10197886 77.92763718 -0.12307478 86.44307023 -0.15466726 C93.76129432 -0.18084749 101.07943567 -0.19154648 108.39770621 -0.19026911 C112.765328 -0.18975995 117.13272443 -0.19541748 121.50029945 -0.21662521 C125.61015651 -0.23603691 129.71957392 -0.23611227 133.82944679 -0.22159195 C135.33383834 -0.21950631 136.83825762 -0.22419021 138.34260178 -0.23631287 C147.49883263 -0.30529126 154.50132179 -0.07287525 161.69645691 6.23226929 C162.23528503 6.88324585 162.77411316 7.53422241 163.32926941 8.20492554 C163.88356628 8.85332397 164.43786316 9.50172241 165.00895691 10.16976929 C168.21965876 14.82962576 168.7068789 18.81481696 168.72169495 24.420578 C168.72622606 25.12974371 168.73075717 25.83890942 168.73542559 26.569565 C168.74806092 28.94002858 168.7464498 31.31026214 168.74479675 33.68075562 C168.75078258 35.38277989 168.75758825 37.08480146 168.76515198 38.78681946 C168.78281439 43.40676243 168.78750748 48.02663131 168.78878355 52.64660478 C168.79020565 55.53440193 168.79447638 58.42218028 168.79977798 61.30997276 C168.81827955 71.38865733 168.8264485 81.46728901 168.82487488 91.54598999 C168.82367367 100.93398252 168.84477165 110.32174508 168.8763622 119.70967942 C168.90253369 127.77524228 168.9132418 135.84073007 168.91196406 143.90633506 C168.91145465 148.72107922 168.91712599 153.53561902 168.93832016 158.35032082 C168.95771706 162.88040206 168.95781713 167.41008431 168.9432869 171.94017982 C168.94119945 173.59937626 168.9458959 175.25859777 168.95800781 176.91775131 C169.07456174 193.99496471 169.07456174 193.99496471 162.48942566 201.50961304 C161.8384491 202.04844116 161.18747253 202.58726929 160.51676941 203.14242554 C159.86837097 203.69672241 159.21997253 204.25101929 158.55192566 204.82211304 C154.38172047 207.69543878 150.75237498 208.51728248 145.72787476 208.50793457 C144.58509064 208.5106839 143.44230652 208.51343323 142.26489258 208.51626587 C141.02051926 208.50907532 139.77614594 208.50188477 138.49406433 208.49447632 C137.17660217 208.49476837 135.85914001 208.49506042 134.50175476 208.49536133 C130.8967391 208.49593443 127.29185692 208.4841871 123.68687224 208.47021341 C119.91658059 208.45769891 116.14628578 208.45653499 112.37597656 208.4541626 C105.2397962 208.44794995 98.10367722 208.43154204 90.96752387 208.41146362 C82.84181542 208.38909793 74.71610402 208.3781095 66.59037244 208.36807275 C49.87830218 208.34717562 33.16629363 208.31200382 16.45426941 208.26742554 C16.45426941 205.62742554 16.45426941 202.98742554 16.45426941 200.26742554 C15.47031189 200.27528076 15.47031189 200.27528076 14.46647644 200.28329468 C11.50408378 200.30403825 8.54170638 200.3170773 5.57926941 200.32992554 C4.54673035 200.33830444 3.51419128 200.34668335 2.45036316 200.35531616 C0.97116394 200.36015015 0.97116394 200.36015015 -0.53791809 200.36508179 C-1.44912415 200.3703186 -2.3603302 200.37555542 -3.29914856 200.38095093 C-5.54573059 200.26742554 -5.54573059 200.26742554 -7.54573059 199.26742554 C-7.54573059 202.89742554 -7.54573059 206.52742554 -7.54573059 210.26742554 C-6.03559387 210.41051147 -6.03559387 210.41051147 -4.49494934 210.55648804 C-0.40586707 211.15018046 3.03161356 212.68326723 6.64176941 214.64242554 C7.28887878 214.99329224 7.93598816 215.34415894 8.60270691 215.70565796 C22.97881576 223.86282876 32.96551038 236.66113834 38.45426941 252.26742554 C38.45426941 253.58742554 38.45426941 254.90742554 38.45426941 256.26742554 C50.84540932 256.97155535 63.23185594 257.40405009 75.64176941 257.57992554 C76.54337044 257.59287281 77.44497147 257.60582008 78.37389374 257.6191597 C106.16469314 258.60734571 106.16469314 258.60734571 130.29959106 246.8150177 C136.40946834 240.7693832 141.38918426 233.81995519 145.45426941 226.26742554 C149.08730025 227.9632868 151.39975986 230.00543042 154.20426941 232.89242554 C155.00348816 233.70969116 155.80270691 234.52695679 156.62614441 235.36898804 C157.22942566 235.99547241 157.83270691 236.62195679 158.45426941 237.26742554 C157.14520173 240.15701808 155.74761346 242.22311788 153.50505066 244.45956421 C152.91103455 245.05665695 152.31701843 245.65374969 151.70500183 246.26893616 C151.06538513 246.90136734 150.42576843 247.53379852 149.76676941 248.18539429 C149.1084613 248.84324417 148.4501532 249.50109406 147.77189636 250.17887878 C146.38225347 251.56550546 144.99018579 252.94970575 143.59587097 254.33163452 C141.45693604 256.4522817 139.32614273 258.5808534 137.19645691 260.71078491 C135.84536602 262.05696154 134.49381905 263.4026806 133.14176941 264.74789429 C132.50215271 265.38639816 131.86253601 266.02490204 131.20353699 266.68275452 C130.60952087 267.27039078 130.01550476 267.85802704 129.40348816 268.46347046 C128.88101501 268.98213181 128.35854187 269.50079315 127.82023621 270.03517151 C124.49016786 273.03926366 120.74172889 272.40047066 116.51628113 272.38095093 C115.69668915 272.38109695 114.87709717 272.38124298 114.03266907 272.38139343 C111.31640501 272.38069528 108.60020903 272.37290741 105.88395691 272.36508179 C104.00351499 272.36321726 102.12307258 272.36179352 100.24263 272.36079407 C95.28765019 272.35697161 90.33269958 272.34714362 85.37773132 272.33609009 C80.32382095 272.32587015 75.26990588 272.3212952 70.21598816 272.31625366 C60.2954024 272.30552112 50.37483833 272.28844793 40.45426941 272.26742554 C40.45862 273.02468933 40.46297058 273.78195312 40.467453 274.56216431 C40.47083679 275.55448059 40.47422058 276.54679687 40.47770691 277.56918335 C40.4820575 278.55332214 40.48640808 279.53746094 40.4908905 280.55142212 C40.35954811 290.29243099 35.55728026 304.16441469 28.45426941 311.26742554 C35.05426941 311.59742554 41.65426941 311.92742554 48.45426941 312.26742554 C48.45426941 309.62742554 48.45426941 306.98742554 48.45426941 304.26742554 C61.74557573 304.17465733 75.03680474 304.10362559 88.32836914 304.06017685 C94.50049798 304.03932136 100.67240496 304.01104032 106.84440613 303.96566772 C112.80312779 303.92213822 118.76163634 303.8982731 124.72050476 303.88791656 C126.99145359 303.88053803 129.26239104 303.86612946 131.5332489 303.84450531 C134.71941642 303.81537768 137.90470846 303.81147355 141.09098816 303.81332397 C142.49253395 303.79175232 142.49253395 303.79175232 143.9223938 303.76974487 C151.03223605 303.81428923 156.30731662 305.50972997 161.69645691 310.23226929 C162.23528503 310.88324585 162.77411316 311.53422241 163.32926941 312.20492554 C163.88356628 312.85332397 164.43786316 313.50172241 165.00895691 314.16976929 C167.86223047 318.31087172 168.70461721 321.94378109 168.72169495 326.93325806 C168.7344899 328.62792458 168.7344899 328.62792458 168.74754333 330.35682678 C168.74663696 331.5870607 168.74573059 332.81729462 168.74479675 334.08480835 C168.75151398 335.38781387 168.7582312 336.6908194 168.76515198 338.03330994 C168.78279247 341.60170502 168.78750661 345.17000413 168.78878355 348.73843861 C168.79020716 350.97094782 168.7944808 353.20343279 168.79977798 355.43593597 C168.81827395 363.23345991 168.82644941 371.03091555 168.82487488 378.82846069 C168.82367457 386.08177785 168.84475605 393.33479691 168.8763622 400.58803868 C168.90257327 406.82688388 168.91324011 413.06563203 168.91196406 419.30453181 C168.91145571 423.02553845 168.91706764 426.74628025 168.93832016 430.46723175 C168.9614057 434.62251415 168.95215225 438.77713546 168.94010925 442.9324646 C168.95134827 444.15460159 168.96258728 445.37673859 168.97416687 446.63591003 C168.89649408 457.20085515 165.80309948 465.54778294 158.45426941 473.26742554 C152.02813147 478.33122223 145.61074574 480.51237226 137.40864563 480.53485107 C136.72312681 480.53938219 136.03760799 480.5439133 135.33131588 480.54858172 C133.04687271 480.56118636 130.76266916 480.55960794 128.47819519 480.55795288 C126.83513586 480.56394056 125.19207933 480.57074666 123.54902649 480.57830811 C119.09442615 480.59594995 114.63990268 480.60066269 110.18527079 480.60193968 C107.40015142 480.60336275 104.61505151 480.60763527 101.82993698 480.61293411 C92.10785942 480.63142766 82.38583664 480.63960548 72.66374207 480.63803101 C63.6102991 480.63682946 54.55709448 480.65793613 45.50371182 480.68951833 C37.72262711 480.71569214 29.94162021 480.72639785 22.16049182 480.72512019 C17.51678703 480.72461092 12.87329416 480.73027456 8.22963333 480.75147629 C3.86122694 480.77087758 -0.50676572 480.77097033 -4.87518692 480.75644302 C-6.47471981 480.75435624 -8.07427873 480.75904809 -9.67376709 480.77116394 C-18.91390615 480.83660131 -26.25017352 480.83714371 -33.56916809 474.52133179 C-34.01518372 473.96316772 -34.46119934 473.40500366 -34.92073059 472.82992554 C-35.38221497 472.2743396 -35.84369934 471.71875366 -36.31916809 471.14633179 C-39.74530548 465.89801304 -39.84268131 461.18502546 -39.83625793 455.10604858 C-39.84297516 454.19157959 -39.84969238 453.2771106 -39.85661316 452.33493042 C-39.87558755 449.31627953 -39.87951719 446.29785108 -39.88166809 443.27914429 C-39.88809675 441.1755311 -39.89482516 439.07191881 -39.90184021 436.9683075 C-39.91381183 432.55928475 -39.91752118 428.15034034 -39.91633606 423.74130249 C-39.91613296 418.10226082 -39.94342659 412.46372363 -39.97788048 406.82480145 C-40.00016106 402.47952485 -40.00417323 398.13436939 -40.00311661 393.78904152 C-40.00547114 391.71069413 -40.0142863 389.63234332 -40.02978134 387.55405235 C-40.04946297 384.64134178 -40.04359438 381.72971558 -40.03157043 378.81698608 C-40.04280945 377.96528336 -40.05404846 377.11358063 -40.06562805 376.23606873 C-39.99426572 369.40421738 -38.10862477 364.19208013 -33.58088684 359.02523804 C-32.92991028 358.48640991 -32.27893372 357.94758179 -31.60823059 357.39242554 C-30.95983215 356.83812866 -30.31143372 356.28383179 -29.64338684 355.71273804 C-24.37505053 352.08278564 -19.7138798 351.99490403 -13.52619934 352.07211304 C-12.23834282 352.07635788 -12.23834282 352.07635788 -10.92446899 352.08068848 C-8.19391184 352.09184483 -5.46368789 352.11694095 -2.73323059 352.14242554 C-0.87711555 352.15246122 0.97900465 352.16158604 2.83512878 352.16976929 C7.37507263 352.19006407 11.91429993 352.22922103 16.45426941 352.26742554 C16.12426941 343.02742554 15.79426941 333.78742554 15.45426941 324.26742554 C12.15426941 326.24742554 8.85426941 328.22742554 5.45426941 330.26742554 C-4.60958697 335.2304232 -13.38814676 336.57080711 -24.58088684 336.46273804 C-26.25978249 336.45849319 -26.25978249 336.45849319 -27.97259521 336.4541626 C-31.51791964 336.44304285 -35.0629836 336.41795343 -38.60823059 336.39242554 C-41.02424255 336.38238514 -43.44025849 336.37326115 -45.85627747 336.36508179 C-51.75284945 336.34313044 -57.6492714 336.30973533 -63.54573059 336.26742554 C-63.71699935 346.99528865 -63.81685912 357.72129482 -63.8281374 368.45058727 C-63.83556501 373.43416974 -63.86663268 378.41516275 -63.95368958 383.39804077 C-64.03697275 388.21656994 -64.05559259 393.03158809 -64.03131676 397.8507328 C-64.03309466 399.67948025 -64.05731209 401.50836178 -64.10541725 403.33647728 C-64.3312641 412.45848865 -64.29248715 419.33677853 -57.79104137 426.24743366 C-55.15172916 428.75673734 -52.42990158 431.04276751 -49.54573059 433.26742554 C-51.24159185 436.90045638 -53.28373547 439.21291599 -56.17073059 442.01742554 C-56.98799622 442.81664429 -57.80526184 443.61586304 -58.64729309 444.43930054 C-59.27377747 445.04258179 -59.90026184 445.64586304 -60.54573059 446.26742554 C-63.55484283 444.91852733 -65.64489422 443.41576841 -67.96369934 441.07992554 C-68.57793762 440.46375366 -69.1921759 439.84758179 -69.82502747 439.21273804 C-70.4547345 438.57078491 -71.08444153 437.92883179 -71.73323059 437.26742554 C-72.37453918 436.62547241 -73.01584778 435.98351929 -73.67658997 435.32211304 C-78.99098766 429.95720892 -79.69139035 427.21981992 -79.65925598 419.59506226 C-79.65940201 418.69744171 -79.65954803 417.79982117 -79.65969849 416.875 C-79.65900012 413.89901335 -79.65121126 410.92308879 -79.64338684 407.94711304 C-79.64152239 405.8873091 -79.64009862 403.82750473 -79.63909912 401.7677002 C-79.63527607 396.33925152 -79.62544758 390.91082949 -79.61439514 385.48239136 C-79.60417647 379.945896 -79.59960052 374.40939635 -79.59455872 368.87289429 C-79.58382514 358.0043911 -79.56623003 347.1359147 -79.54573059 336.26742554 C-90.43573059 336.26742554 -101.32573059 336.26742554 -112.54573059 336.26742554 C-112.21573059 336.92742554 -111.88573059 337.58742554 -111.54573059 338.26742554 C-111.47456677 340.64145055 -111.46163974 343.0174323 -111.48323059 345.39242554 C-111.49225403 346.67375366 -111.50127747 347.95508179 -111.51057434 349.27523804 C-111.52797668 350.75637085 -111.52797668 350.75637085 -111.54573059 352.26742554 C-108.90573059 352.26742554 -106.26573059 352.26742554 -103.54573059 352.26742554 C-103.45213357 366.60179739 -103.38194261 380.93612159 -103.3384819 395.27073669 C-103.31762124 401.927145 -103.28933087 408.58329318 -103.24397278 415.23959351 C-103.20046183 421.66515113 -103.17658201 428.09051124 -103.16622162 434.51620483 C-103.15883978 436.96578072 -103.14442479 439.415346 -103.12281036 441.86483765 C-103.09370771 445.30005115 -103.08977761 448.73445203 -103.09162903 452.16976929 C-103.07724792 453.17893906 -103.06286682 454.18810883 -103.04804993 455.2278595 C-103.09080809 462.57603712 -104.6217346 467.9306985 -109.51057434 473.50961304 C-110.1615509 474.04844116 -110.81252747 474.58726929 -111.48323059 475.14242554 C-112.13162903 475.69672241 -112.78002747 476.25101929 -113.44807434 476.82211304 C-118.10793081 480.03281489 -122.09312201 480.52003503 -127.69888306 480.53485107 C-128.40804877 480.53938219 -129.11721447 480.5439133 -129.84787005 480.54858172 C-132.21833363 480.56121705 -134.58856719 480.55960593 -136.95906067 480.55795288 C-138.66108495 480.56393871 -140.36310651 480.57074438 -142.06512451 480.57830811 C-146.68506748 480.59597051 -151.30493636 480.60066361 -155.92490983 480.60193968 C-158.81270699 480.60336178 -161.70048533 480.60763251 -164.58827782 480.61293411 C-174.66696238 480.63143568 -184.74559406 480.63960463 -194.82429504 480.63803101 C-204.21228758 480.6368298 -213.60005013 480.65792778 -222.98798448 480.68951833 C-231.05354734 480.71568982 -239.11903513 480.72639792 -247.18464011 480.72512019 C-251.99938428 480.72461078 -256.81392408 480.73028212 -261.62862587 480.75147629 C-266.15870712 480.77087319 -270.68838937 480.77097326 -275.21848488 480.75644302 C-276.87768132 480.75435558 -278.53690282 480.75905203 -280.19605637 480.77116394 C-297.27326976 480.88771786 -297.27326976 480.88771786 -304.78791809 474.30258179 C-305.32674622 473.65160522 -305.86557434 473.00062866 -306.42073059 472.32992554 C-306.97502747 471.6815271 -307.52932434 471.03312866 -308.10041809 470.36508179 C-310.8674989 466.34907532 -311.79539754 462.78016468 -311.81315613 457.9365387 C-311.8216861 456.88104324 -311.83021606 455.82554779 -311.83900452 454.73806763 C-311.83809814 453.59041931 -311.83719177 452.442771 -311.83625793 451.26034546 C-311.84297516 450.04351578 -311.84969238 448.8266861 -311.85661316 447.57298279 C-311.87234187 444.24219294 -311.87896738 440.91165249 -311.88024473 437.58084273 C-311.88166864 435.49708923 -311.8859428 433.41336168 -311.89123917 431.32961464 C-311.90973129 424.05195081 -311.91791094 416.77436013 -311.91633606 409.49667358 C-311.91513535 402.72615938 -311.93622555 395.95596432 -311.96782339 389.18553084 C-311.99402787 383.36198345 -312.00470159 377.53854002 -312.00342524 371.71493417 C-312.00291676 368.24155054 -312.0085359 364.76845056 -312.02978134 361.29512596 C-312.05285291 357.41752181 -312.04361728 353.54035069 -312.03157043 349.66268921 C-312.04280945 348.52111359 -312.05404846 347.37953796 -312.06562805 346.20336914 C-312.0042807 338.42282372 -310.85092728 333.03916092 -305.58088684 327.02523804 C-304.604422 326.21699585 -304.604422 326.21699585 -303.60823059 325.39242554 C-302.95983215 324.83812866 -302.31143372 324.28383179 -301.64338684 323.71273804 C-295.89834962 319.7543325 -290.54265698 319.99275991 -283.78865051 320.04037476 C-282.70527405 320.0400827 -281.62189758 320.03979065 -280.50569153 320.03948975 C-276.92911232 320.04088173 -273.35274211 320.056437 -269.77619934 320.07211304 C-267.29469924 320.07584363 -264.81319766 320.07869038 -262.33169556 320.08068848 C-255.80343045 320.08832127 -249.27525446 320.10796684 -242.74702454 320.13009644 C-236.08424052 320.15164391 -229.42143059 320.15969181 -222.75862122 320.16976929 C-209.68761967 320.19121296 -196.61667987 320.22495978 -183.54573059 320.26742554 C-183.54573059 322.90742554 -183.54573059 325.54742554 -183.54573059 328.26742554 C-169.19073059 327.77242554 -169.19073059 327.77242554 -154.54573059 327.26742554 C-157.84573059 324.62742554 -161.14573059 321.98742554 -164.54573059 319.26742554 C-169.68464002 314.20637837 -173.42256345 309.17104773 -176.85823059 302.89242554 C-177.34670471 302.01058594 -177.34670471 302.01058594 -177.845047 301.1109314 C-182.65571176 291.86609955 -184.01250007 282.71607197 -183.79573059 272.39242554 C-183.79057434 271.38695679 -183.78541809 270.38148804 -183.78010559 269.34555054 C-183.73213204 264.82404342 -183.47214076 260.69871764 -182.54573059 256.26742554 C-193.43725832 255.56128563 -204.32081366 255.13037604 -215.23323059 254.95492554 C-216.02793636 254.94197826 -216.82264214 254.92903099 -217.6414299 254.91569138 C-242.96828205 254.29629493 -242.96828205 254.29629493 -264.76071167 265.71983337 C-270.94121184 271.84287327 -276.12047966 278.79503188 -280.54573059 286.26742554 C-284.17876143 284.57156428 -286.49122105 282.52942066 -289.29573059 279.64242554 C-290.49455872 278.4165271 -290.49455872 278.4165271 -291.71760559 277.16586304 C-292.32088684 276.53937866 -292.92416809 275.91289429 -293.54573059 275.26742554 C-292.23666291 272.377833 -290.83907465 270.3117332 -288.59651184 268.07528687 C-288.00249573 267.47819412 -287.40847961 266.88110138 -286.79646301 266.26591492 C-286.15684631 265.63348373 -285.51722961 265.00105255 -284.85823059 264.34945679 C-284.19992249 263.6916069 -283.54161438 263.03375702 -282.86335754 262.35597229 C-281.47371465 260.96934561 -280.08164697 259.58514532 -278.68733215 258.20321655 C-276.54839722 256.08256937 -274.41760391 253.95399767 -272.28791809 251.82406616 C-270.93682721 250.47788954 -269.58528023 249.13217048 -268.23323059 247.78695679 C-267.59361389 247.14845291 -266.95399719 246.50994904 -266.29499817 245.85209656 C-265.70098206 245.2644603 -265.10696594 244.67682404 -264.49494934 244.07138062 C-263.9724762 243.55271927 -263.45000305 243.03405792 -262.91169739 242.49967957 C-259.59617932 239.50871338 -255.93572568 240.17342625 -251.73469543 240.23666382 C-250.06220363 240.25277137 -248.38970784 240.26846845 -246.71720886 240.28381348 C-245.82790051 240.29335178 -244.93859215 240.30289009 -244.02233505 240.31271744 C-238.32813516 240.36423206 -232.63364085 240.35849926 -226.93924522 240.36407661 C-221.93484613 240.372287 -216.93200401 240.40000374 -211.92805481 240.46957397 C-207.08804994 240.53574726 -202.25052775 240.54803114 -197.41016006 240.5243187 C-195.5689614 240.52492791 -193.72765927 240.54494964 -191.88689804 240.58508682 C-181.62019822 241.11983423 -181.62019822 241.11983423 -172.74842834 236.8989563 C-170.73109291 234.11043945 -169.17967499 231.28952111 -167.54573059 228.26742554 C-162.38396586 222.55179625 -156.5752645 218.42968005 -149.85823059 214.76742554 C-149.24068909 214.42880493 -148.62314758 214.09018433 -147.9868927 213.74130249 C-143.76027835 211.56166338 -140.20770329 210.6983139 -135.54573059 210.26742554 C-135.58053528 209.46820679 -135.61533997 208.66898804 -135.65119934 207.84555054 C-136.06446689 191.07869554 -130.66562713 176.88991306 -119.67073059 164.26742554 C-110.28395019 154.62347307 -98.73476644 147.33030024 -85.31672668 145.18856812 C-84.23603912 145.01432816 -83.15535156 144.8400882 -82.04191589 144.66056824 C-81.21817474 144.53083115 -80.39443359 144.40109406 -79.54573059 144.26742554 C-78.84121133 132.20975719 -78.40901829 120.15690694 -78.23323059 108.07992554 C-78.22028332 107.20207901 -78.20733604 106.32423248 -78.19399643 105.41978455 C-77.28061976 78.17251817 -77.28061976 78.17251817 -88.99813843 54.56217957 C-95.06053265 48.43703774 -102.01078845 43.4134164 -109.54573059 39.26742554 C-107.84986933 35.6343947 -105.80772571 33.32193508 -102.92073059 30.51742554 C-101.69483215 29.31859741 -101.69483215 29.31859741 -100.44416809 28.09555054 C-99.81768372 27.49226929 -99.19119934 26.88898804 -98.54573059 26.26742554 C-95.65613805 27.57649322 -93.59003825 28.97408148 -91.35359192 31.21664429 C-90.75649918 31.8106604 -90.15940643 32.40467651 -89.54421997 33.01669312 C-88.5955732 33.97611816 -88.5955732 33.97611816 -87.62776184 34.95492554 C-86.64098701 35.9423877 -86.64098701 35.9423877 -85.63427734 36.94979858 C-84.24765067 38.33944148 -82.86345037 39.73150916 -81.48152161 41.12582397 C-79.36087442 43.26475891 -77.23230273 45.39555222 -75.10237122 47.52523804 C-73.75619459 48.87632892 -72.41047553 50.2278759 -71.06526184 51.57992554 C-70.42675797 52.21954224 -69.78825409 52.85915894 -69.13040161 53.51815796 C-68.54276535 54.11217407 -67.95512909 54.70619019 -67.34968567 55.31820679 C-66.83102432 55.84067993 -66.31236298 56.36315308 -65.77798462 56.90145874 C-62.77389247 60.23152709 -63.41268547 63.97996606 -63.4322052 68.20541382 C-63.43205917 69.0250058 -63.43191315 69.84459778 -63.4317627 70.68902588 C-63.43246085 73.40528994 -63.44024871 76.12148591 -63.44807434 78.83773804 C-63.44993887 80.71817996 -63.45136261 82.59862236 -63.45236206 84.47906494 C-63.45618452 89.43404475 -63.46601251 94.38899537 -63.47706604 99.34396362 C-63.48728598 104.39787399 -63.49186093 109.45178907 -63.49690247 114.50570679 C-63.507635 124.42629255 -63.52470819 134.34685662 -63.54573059 144.26742554 C-62.72960297 144.39249481 -61.91347534 144.51756409 -61.07261658 144.64642334 C-59.99785065 144.81703278 -58.92308472 144.98764221 -57.81575012 145.16342163 C-56.22030869 145.41290054 -56.22030869 145.41290054 -54.59263611 145.66741943 C-50.49146794 146.47503421 -47.08418833 147.92882734 -43.42073059 149.89242554 C-42.74260315 150.24651489 -42.06447571 150.60060425 -41.36579895 150.96542358 C-30.71971135 156.69091206 -24.39999896 163.6677642 -16.54573059 173.26742554 C-16.21573059 163.69742554 -15.88573059 154.12742554 -15.54573059 144.26742554 C-18.18573059 144.26742554 -20.82573059 144.26742554 -23.54573059 144.26742554 C-23.63928755 127.84688604 -23.70976527 111.42643337 -23.75297928 95.00569153 C-23.77358012 87.38076859 -23.80165302 79.75601152 -23.8474884 72.13119507 C-23.88743242 65.48323515 -23.91318141 58.8353954 -23.92208457 52.1873188 C-23.92728662 48.66911055 -23.93946077 45.15124599 -23.96865082 41.63314819 C-24.00101824 37.69997857 -24.00168514 33.76714123 -23.99983215 29.83383179 C-24.01421326 28.6750502 -24.02859436 27.51626862 -24.04341125 26.32237244 C-24.00347088 18.48056316 -22.89314342 13.087336 -17.58088684 7.02523804 C-16.92991028 6.48640991 -16.27893372 5.94758179 -15.60823059 5.39242554 C-14.95983215 4.83812866 -14.31143372 4.28383179 -13.64338684 3.71273804 C-9.18858757 0.64332327 -5.36031972 0.01562072 0 0 Z " fill="#1F566C" transform="translate(327.5457305908203,15.732574462890625)"/>
<path d="M0 0 C0.96574331 -0.00679667 0.96574331 -0.00679667 1.95099658 -0.01373065 C4.10035462 -0.02635324 6.24945857 -0.0247557 8.39884949 -0.02310181 C9.94324061 -0.02908844 11.48762873 -0.0358943 13.03201294 -0.04345703 C17.22221905 -0.06111142 21.41234346 -0.0658122 25.60258317 -0.0670886 C28.22236557 -0.06851118 30.84212727 -0.07278283 33.46190453 -0.07808304 C42.6069152 -0.0965821 51.7518676 -0.10475389 60.89689636 -0.10317993 C69.41239357 -0.10197886 77.92763718 -0.12307478 86.44307023 -0.15466726 C93.76129432 -0.18084749 101.07943567 -0.19154648 108.39770621 -0.19026911 C112.765328 -0.18975995 117.13272443 -0.19541748 121.50029945 -0.21662521 C125.61015651 -0.23603691 129.71957392 -0.23611227 133.82944679 -0.22159195 C135.33383834 -0.21950631 136.83825762 -0.22419021 138.34260178 -0.23631287 C147.49883263 -0.30529126 154.50132179 -0.07287525 161.69645691 6.23226929 C162.23528503 6.88324585 162.77411316 7.53422241 163.32926941 8.20492554 C163.88356628 8.85332397 164.43786316 9.50172241 165.00895691 10.16976929 C168.21965876 14.82962576 168.7068789 18.81481696 168.72169495 24.420578 C168.72622606 25.12974371 168.73075717 25.83890942 168.73542559 26.569565 C168.74806092 28.94002858 168.7464498 31.31026214 168.74479675 33.68075562 C168.75078258 35.38277989 168.75758825 37.08480146 168.76515198 38.78681946 C168.78281439 43.40676243 168.78750748 48.02663131 168.78878355 52.64660478 C168.79020565 55.53440193 168.79447638 58.42218028 168.79977798 61.30997276 C168.81827955 71.38865733 168.8264485 81.46728901 168.82487488 91.54598999 C168.82367367 100.93398252 168.84477165 110.32174508 168.8763622 119.70967942 C168.90253369 127.77524228 168.9132418 135.84073007 168.91196406 143.90633506 C168.91145465 148.72107922 168.91712599 153.53561902 168.93832016 158.35032082 C168.95771706 162.88040206 168.95781713 167.41008431 168.9432869 171.94017982 C168.94119945 173.59937626 168.9458959 175.25859777 168.95800781 176.91775131 C169.07456174 193.99496471 169.07456174 193.99496471 162.48942566 201.50961304 C161.8384491 202.04844116 161.18747253 202.58726929 160.51676941 203.14242554 C159.86837097 203.69672241 159.21997253 204.25101929 158.55192566 204.82211304 C154.38172047 207.69543878 150.75237498 208.51728248 145.72787476 208.50793457 C144.58509064 208.5106839 143.44230652 208.51343323 142.26489258 208.51626587 C141.02051926 208.50907532 139.77614594 208.50188477 138.49406433 208.49447632 C137.17660217 208.49476837 135.85914001 208.49506042 134.50175476 208.49536133 C130.8967391 208.49593443 127.29185692 208.4841871 123.68687224 208.47021341 C119.91658059 208.45769891 116.14628578 208.45653499 112.37597656 208.4541626 C105.2397962 208.44794995 98.10367722 208.43154204 90.96752387 208.41146362 C82.84181542 208.38909793 74.71610402 208.3781095 66.59037244 208.36807275 C49.87830218 208.34717562 33.16629363 208.31200382 16.45426941 208.26742554 C16.45426941 205.62742554 16.45426941 202.98742554 16.45426941 200.26742554 C15.80353455 200.27789917 15.15279968 200.2883728 14.48234558 200.29916382 C11.5355261 200.34072389 8.58876829 200.36675162 5.64176941 200.39242554 C4.61760925 200.40918335 3.5934491 200.42594116 2.53825378 200.44320679 C1.55534363 200.4496521 0.57243347 200.45609741 -0.44026184 200.46273804 C-1.34623108 200.47321167 -2.25220032 200.4836853 -3.18562317 200.49447632 C-5.54573059 200.26742554 -5.54573059 200.26742554 -8.54573059 198.26742554 C-9.52092702 195.63410581 -10.35230832 193.08703806 -11.10823059 190.39242554 C-12.43039913 185.27758692 -12.43039913 185.27758692 -14.60749817 180.51791382 C-15.98594002 177.21151856 -15.7913149 173.96068152 -15.74104309 170.43930054 C-15.73679825 169.31579193 -15.73679825 169.31579193 -15.73246765 168.16958618 C-15.72130319 165.78536778 -15.6962059 163.40152974 -15.67073059 161.01742554 C-15.66069594 159.39763931 -15.65157094 157.77784717 -15.64338684 156.15805054 C-15.62137614 152.19436308 -15.58687234 148.23095873 -15.54573059 144.26742554 C-18.18573059 144.26742554 -20.82573059 144.26742554 -23.54573059 144.26742554 C-23.63928755 127.84688604 -23.70976527 111.42643337 -23.75297928 95.00569153 C-23.77358012 87.38076859 -23.80165302 79.75601152 -23.8474884 72.13119507 C-23.88743242 65.48323515 -23.91318141 58.8353954 -23.92208457 52.1873188 C-23.92728662 48.66911055 -23.93946077 45.15124599 -23.96865082 41.63314819 C-24.00101824 37.69997857 -24.00168514 33.76714123 -23.99983215 29.83383179 C-24.01421326 28.6750502 -24.02859436 27.51626862 -24.04341125 26.32237244 C-24.00347088 18.48056316 -22.89314342 13.087336 -17.58088684 7.02523804 C-16.92991028 6.48640991 -16.27893372 5.94758179 -15.60823059 5.39242554 C-14.95983215 4.83812866 -14.31143372 4.28383179 -13.64338684 3.71273804 C-9.18858757 0.64332327 -5.36031972 0.01562072 0 0 Z " fill="#52A48D" transform="translate(327.5457305908203,15.732574462890625)"/>
<path d="M0 0 C1.27866943 -0.0112793 2.55733887 -0.02255859 3.87475586 -0.03417969 C5.28955305 -0.02640266 6.704348 -0.01821 8.11914062 -0.00964355 C9.61076542 -0.01506435 11.10238485 -0.02218677 12.59399414 -0.03088379 C16.6436169 -0.04912547 20.69283223 -0.04204633 24.74246216 -0.02936745 C28.97936099 -0.01924407 33.21622481 -0.02863128 37.453125 -0.03491211 C44.56842312 -0.04219046 51.68355521 -0.03259594 58.79882812 -0.0135498 C67.02641862 0.00821938 75.25361265 0.00116814 83.48119354 -0.02085543 C90.54373317 -0.03900413 97.6061534 -0.04157037 104.6687088 -0.03110075 C108.88752237 -0.02486287 113.10614956 -0.02403817 117.32495117 -0.0372467 C121.29119435 -0.04879699 125.25692611 -0.04079505 129.22311401 -0.01766968 C130.6791804 -0.01237811 132.1352898 -0.01390409 133.59133911 -0.02272034 C135.57780425 -0.03363977 137.56436338 -0.01752243 139.55078125 0 C141.21880798 0.00226215 141.21880798 0.00226215 142.92053223 0.00457001 C146.51444153 0.63824297 147.6838611 1.53765002 149.77539062 4.50793457 C150.26758194 7.18655777 150.26758194 7.18655777 150.25640869 10.30389404 C150.26190735 11.48737427 150.26740601 12.67085449 150.27307129 13.89019775 C150.25149963 15.83228119 150.25149963 15.83228119 150.22949219 17.81359863 C150.22836365 19.19348111 150.22899769 20.57336599 150.23126221 21.95324707 C150.23241008 25.69690298 150.20888953 29.44004646 150.18096638 33.18358326 C150.15596461 37.09666663 150.1536117 41.00976168 150.14886475 44.9229126 C150.13643133 52.33191307 150.1036049 59.74067751 150.06346679 67.14957404 C150.01876036 75.5847813 149.9967649 84.01999981 149.97668505 92.45529604 C149.93487248 109.80631209 149.86451345 127.15709837 149.77539062 144.50793457 C147.13539063 144.50793457 144.49539062 144.50793457 141.77539062 144.50793457 C141.77539062 152.42793457 141.77539062 160.34793457 141.77539062 168.50793457 C133.85539063 168.50793457 125.93539062 168.50793457 117.77539062 168.50793457 C117.82179687 171.06027832 117.86820313 173.61262207 117.91601562 176.24230957 C117.94722219 178.71787528 117.9715036 181.19341898 117.99511719 183.66906738 C118.0152169 185.38791736 118.04250151 187.10669909 118.07714844 188.82531738 C118.12574096 191.29781946 118.14837497 193.76941667 118.16601562 196.24230957 C118.18666077 197.00912048 118.20730591 197.7759314 118.22857666 198.565979 C118.22996909 201.88636388 118.14942384 204.0052565 116.13604736 206.71111298 C113.09012587 209.02952608 111.35718024 209.01070696 107.55078125 209.01586914 C106.27211182 209.02714844 104.99344238 209.03842773 103.67602539 209.05004883 C102.2612282 209.0422718 100.84643325 209.03407914 99.43164062 209.0255127 C97.94001583 209.03093349 96.4483964 209.03805591 94.95678711 209.04675293 C90.90716435 209.06499461 86.85794902 209.05791547 82.80831909 209.04523659 C78.57142026 209.03511321 74.33455644 209.04450042 70.09765625 209.05078125 C62.98235813 209.0580596 55.86722604 209.04846509 48.75195312 209.02941895 C40.52436263 209.00764976 32.2971686 209.014701 24.06958771 209.03672457 C17.00704808 209.05487327 9.94462785 209.05743951 2.88207245 209.04696989 C-1.33674112 209.04073201 -5.55536831 209.03990731 -9.77416992 209.05311584 C-13.7404131 209.06466613 -17.70614486 209.05666419 -21.67233276 209.03353882 C-23.12839915 209.02824725 -24.58450855 209.02977323 -26.04055786 209.03858948 C-28.027023 209.04950891 -30.01358213 209.03339157 -32 209.01586914 C-33.11201782 209.01436104 -34.22403564 209.01285294 -35.36975098 209.01129913 C-38.22460937 208.50793457 -38.22460937 208.50793457 -40.58190155 206.90319061 C-42.78895865 203.68504873 -42.72777341 201.56674829 -42.73254395 197.67590332 C-42.74190389 196.64595497 -42.74190389 196.64595497 -42.75145292 195.59519958 C-42.76740506 193.29492837 -42.75477105 190.9957136 -42.7421875 188.69543457 C-42.74760767 187.04617698 -42.75472974 185.39692423 -42.76342773 183.74768066 C-42.78167663 179.26833241 -42.77458718 174.78935232 -42.76191139 170.30999756 C-42.75179181 165.62466431 -42.76117417 160.9393628 -42.76745605 156.25402832 C-42.7747355 148.3854811 -42.76513697 140.517084 -42.74609375 132.64855957 C-42.72432442 123.54847686 -42.73137558 114.44875261 -42.75339937 105.34867859 C-42.77154492 97.53880238 -42.77411584 89.72903415 -42.7636447 81.91914368 C-42.7574051 77.2532056 -42.7565869 72.58743607 -42.76979065 67.92150879 C-42.78133626 63.5350464 -42.77334724 59.14904663 -42.75021362 54.76263428 C-42.7449196 53.15176156 -42.74645218 51.54084999 -42.75526428 49.92999268 C-42.76617677 47.73278956 -42.75251078 45.53707383 -42.73254395 43.33996582 C-42.73103584 42.1099585 -42.72952774 40.87995117 -42.72797394 39.6126709 C-42.12783658 35.91104312 -41.20469966 34.72009769 -38.22460938 32.50793457 C-35.20019531 32.05383301 -35.20019531 32.05383301 -31.70898438 32.11730957 C-30.45859375 32.1302002 -29.20820313 32.14309082 -27.91992188 32.15637207 C-25.96699219 32.20664551 -25.96699219 32.20664551 -23.97460938 32.25793457 C-22.6571875 32.27598145 -21.33976562 32.29402832 -19.98242188 32.31262207 C-16.7290863 32.35977186 -13.47721313 32.42557413 -10.22460938 32.50793457 C-10.24555664 31.68067871 -10.26650391 30.85342285 -10.28808594 30.00109863 C-10.37122557 26.25350087 -10.42326468 22.50609708 -10.47460938 18.75793457 C-10.52488281 16.80500488 -10.52488281 16.80500488 -10.57617188 14.81262207 C-10.5890625 13.56223145 -10.60195313 12.31184082 -10.61523438 11.02355957 C-10.63618164 9.87145996 -10.65712891 8.71936035 -10.67871094 7.53234863 C-9.72999015 1.21366417 -5.87275328 0.00796454 0 0 Z " fill="#1E556B" transform="translate(58.224609375,15.4920654296875)"/>
<path d="M0 0 C1.08337646 -0.00029205 2.16675293 -0.00058411 3.28295898 -0.00088501 C6.85953819 0.00050697 10.43590841 0.01606224 14.01245117 0.03173828 C16.49395128 0.03546887 18.97545285 0.03831563 21.45695496 0.04031372 C27.98522007 0.04794651 34.51339605 0.06759209 41.04162598 0.08972168 C47.70440999 0.11126916 54.36721993 0.11931706 61.0300293 0.12939453 C74.10103084 0.15083821 87.17197064 0.18458503 100.24291992 0.22705078 C100.24291992 2.86705078 100.24291992 5.50705078 100.24291992 8.22705078 C101.21003906 8.2008667 102.1771582 8.17468262 103.17358398 8.14770508 C106.8188492 8.05606737 110.46401654 7.99939767 114.11010742 7.95239258 C115.6773398 7.92750313 117.24445928 7.89357796 118.8112793 7.84985352 C129.26463439 7.56579495 136.68311022 8.59485508 146.24291992 13.22705078 C151.80829906 15.14146684 157.40704752 15.60931085 163.24291992 15.85205078 C164.01764648 15.89072266 164.79237305 15.92939453 165.59057617 15.96923828 C167.47435407 16.06226435 169.35860248 16.14568253 171.24291992 16.22705078 C172.74448866 19.23018826 172.33573197 22.01772601 172.30541992 25.35205078 C172.29639648 26.63337891 172.28737305 27.91470703 172.27807617 29.23486328 C172.26067383 30.71599609 172.26067383 30.71599609 172.24291992 32.22705078 C174.88291992 32.22705078 177.52291992 32.22705078 180.24291992 32.22705078 C180.33651694 46.56142263 180.40670791 60.89574684 180.45016861 75.23036194 C180.47102928 81.88677024 180.49931964 88.54291842 180.54467773 95.19921875 C180.58818869 101.62477637 180.61206851 108.05013649 180.62242889 114.47583008 C180.62981074 116.92540597 180.64422573 119.37497124 180.66584015 121.82446289 C180.6949428 125.25967639 180.6988729 128.69407727 180.69702148 132.12939453 C180.71140259 133.1385643 180.72578369 134.14773407 180.74060059 135.18748474 C180.69784243 142.53566236 179.16691591 147.89032375 174.27807617 153.46923828 C173.62709961 154.00806641 172.97612305 154.54689453 172.30541992 155.10205078 C171.65702148 155.65634766 171.00862305 156.21064453 170.34057617 156.78173828 C165.6807197 159.99244013 161.6955285 160.47966027 156.08976746 160.49447632 C155.38060175 160.49900743 154.67143604 160.50353854 153.94078046 160.50820696 C151.57031688 160.52084229 149.20008332 160.51923117 146.82958984 160.51757812 C145.12756556 160.52356395 143.425544 160.53036962 141.723526 160.53793335 C137.10358303 160.55559576 132.48371415 160.56028885 127.86374068 160.56156492 C124.97594353 160.56298702 122.08816518 160.56725776 119.2003727 160.57255936 C109.12168813 160.59106092 99.04305645 160.59922987 88.96435547 160.59765625 C79.57636293 160.59645504 70.18860038 160.61755302 60.80066603 160.64914358 C52.73510318 160.67531507 44.66961539 160.68602317 36.6040104 160.68474543 C31.78926624 160.68423602 26.97472644 160.68990736 22.16002464 160.71110153 C17.62994339 160.73049843 13.10026114 160.7305985 8.57016563 160.71606827 C6.9109692 160.71398082 5.25174769 160.71867727 3.59259415 160.73078918 C-13.48461925 160.84734311 -13.48461925 160.84734311 -20.99926758 154.26220703 C-21.80750977 153.28574219 -21.80750977 153.28574219 -22.63208008 152.28955078 C-23.18637695 151.64115234 -23.74067383 150.99275391 -24.31176758 150.32470703 C-27.07884839 146.30870056 -28.00674703 142.73978992 -28.02450562 137.89616394 C-28.03303558 136.84066849 -28.04156555 135.78517303 -28.050354 134.69769287 C-28.04944763 133.55004456 -28.04854126 132.40239624 -28.04760742 131.2199707 C-28.05432465 130.00314102 -28.06104187 128.78631134 -28.06796265 127.53260803 C-28.08369135 124.20181819 -28.09031687 120.87127773 -28.09159422 117.54046798 C-28.09301813 115.45671448 -28.09729229 113.37298693 -28.10258865 111.28923988 C-28.12108078 104.01157605 -28.12926043 96.73398537 -28.12768555 89.45629883 C-28.12648484 82.68578463 -28.14757504 75.91558957 -28.17917287 69.14515609 C-28.20537736 63.3216087 -28.21605108 57.49816527 -28.21477473 51.67455941 C-28.21426625 48.20117578 -28.21988539 44.72807581 -28.24113083 41.25475121 C-28.2642024 37.37714706 -28.25496676 33.49997594 -28.24291992 29.62231445 C-28.25415894 28.48073883 -28.26539795 27.33916321 -28.27697754 26.16299438 C-28.21563019 18.38244896 -27.06227677 12.99878617 -21.79223633 6.98486328 C-21.14125977 6.44603516 -20.4902832 5.90720703 -19.81958008 5.35205078 C-19.17118164 4.79775391 -18.5227832 4.24345703 -17.85473633 3.67236328 C-12.10969911 -0.28604225 -6.75400647 -0.04761485 0 0 Z " fill="#52A48D" transform="translate(43.757080078125,335.77294921875)"/>
<path d="M0 0 C13.29130632 -0.0927682 26.58253533 -0.16379995 39.87409973 -0.20724869 C46.04622857 -0.22810418 52.21813555 -0.25638522 58.39013672 -0.30175781 C64.34885839 -0.34528731 70.30736693 -0.36915244 76.26623535 -0.37950897 C78.53718418 -0.38688751 80.80812163 -0.40129607 83.07897949 -0.42292023 C86.26514701 -0.45204786 89.45043905 -0.45595198 92.63671875 -0.45410156 C94.03826454 -0.47567322 94.03826454 -0.47567322 95.46812439 -0.49768066 C102.57796664 -0.45313631 107.85304721 1.24230444 113.2421875 5.96484375 C113.78101563 6.61582031 114.31984375 7.26679688 114.875 7.9375 C115.42929687 8.58589844 115.98359375 9.23429687 116.5546875 9.90234375 C119.40796106 14.04344618 120.2503478 17.67635555 120.26742554 22.66583252 C120.28022049 24.36049904 120.28022049 24.36049904 120.29327393 26.08940125 C120.29191437 27.93475212 120.29191437 27.93475212 120.29052734 29.81738281 C120.29724457 31.12038834 120.30396179 32.42339386 120.31088257 33.7658844 C120.32852306 37.33427948 120.3332372 40.90257859 120.33451414 44.47101307 C120.33593775 46.70352228 120.34021139 48.93600726 120.34550858 51.16851044 C120.36400454 58.96603437 120.37218 66.76349001 120.37060547 74.56103516 C120.36940516 81.81435231 120.39048664 89.06737138 120.4220928 96.32061315 C120.44830386 102.55945834 120.4589707 108.79820649 120.45769465 115.03710628 C120.4571863 118.75811291 120.46279823 122.47885472 120.48405075 126.19980621 C120.50713629 130.35508862 120.49788284 134.50970992 120.48583984 138.66503906 C120.49707886 139.88717606 120.50831787 141.10931305 120.51989746 142.3684845 C120.44222467 152.93342961 117.34883007 161.2803574 110 169 C103.57386206 174.0637967 97.15647633 176.24494672 88.95437622 176.26742554 C88.2688574 176.27195665 87.58333858 176.27648776 86.87704647 176.28115618 C84.5926033 176.29376082 82.30839975 176.2921824 80.02392578 176.29052734 C78.38086645 176.29651502 76.73780992 176.30332112 75.09475708 176.31088257 C70.64015674 176.32852441 66.18563328 176.33323715 61.73100138 176.33451414 C58.94588201 176.33593721 56.1607821 176.34020974 53.37566757 176.34550858 C43.65359001 176.36400212 33.93156723 176.37217994 24.20947266 176.37060547 C15.15602969 176.36940392 6.10282507 176.39051059 -2.95055759 176.4220928 C-10.7316423 176.4482666 -18.5126492 176.45897232 -26.29377759 176.45769465 C-30.93748238 176.45718539 -35.58097525 176.46284902 -40.22463608 176.48405075 C-44.59304246 176.50345204 -48.96103513 176.5035448 -53.32945633 176.48901749 C-54.92898922 176.4869307 -56.52854814 176.49162255 -58.1280365 176.5037384 C-67.36817556 176.56917577 -74.70444292 176.56971817 -82.0234375 170.25390625 C-82.46945312 169.69574219 -82.91546875 169.13757813 -83.375 168.5625 C-83.83648437 168.00691406 -84.29796875 167.45132813 -84.7734375 166.87890625 C-88.19957489 161.6305875 -88.29695072 156.91759992 -88.29052734 150.83862305 C-88.29724457 149.92415405 -88.30396179 149.00968506 -88.31088257 148.06750488 C-88.32985695 145.04885399 -88.33378659 142.03042554 -88.3359375 139.01171875 C-88.34236616 136.90810556 -88.34909457 134.80449327 -88.35610962 132.70088196 C-88.36808124 128.29185921 -88.37179059 123.88291481 -88.37060547 119.47387695 C-88.37040237 113.83483529 -88.397696 108.1962981 -88.43214989 102.55737591 C-88.45443046 98.21209931 -88.45844264 93.86694385 -88.45738602 89.52161598 C-88.45974055 87.44326859 -88.46855571 85.36491778 -88.48405075 83.28662682 C-88.50373238 80.37391624 -88.49786379 77.46229004 -88.48583984 74.54956055 C-88.50269836 73.27200645 -88.50269836 73.27200645 -88.51989746 71.96864319 C-88.44853513 65.13679184 -86.56289418 59.92465459 -82.03515625 54.7578125 C-81.38417969 54.21898437 -80.73320312 53.68015625 -80.0625 53.125 C-79.08990234 52.29355469 -79.08990234 52.29355469 -78.09765625 51.4453125 C-74.13007646 48.7115983 -70.58397783 47.75061517 -65.79646301 47.73257446 C-64.25541901 47.71977951 -64.25541901 47.71977951 -62.6832428 47.70672607 C-61.56678879 47.70763245 -60.45033478 47.70853882 -59.30004883 47.70947266 C-57.52351425 47.69939682 -57.52351425 47.69939682 -55.71109009 47.68911743 C-52.46904249 47.67338933 -49.22714877 47.66676311 -45.98506761 47.66548586 C-43.95557138 47.66406148 -41.92610177 47.65978633 -39.89661217 47.65449142 C-32.80467407 47.63599672 -25.71281102 47.62781963 -18.62084961 47.62939453 C-12.02987109 47.63059405 -5.43922103 47.60952791 1.15167445 47.5779072 C6.82493624 47.55166765 12.49809131 47.54103052 18.17141324 47.54230535 C21.55320211 47.54281297 24.93469928 47.5372424 28.31642723 47.51594925 C32.09558417 47.49627606 35.87390474 47.50213423 39.65307617 47.51416016 C41.31257545 47.49730164 41.31257545 47.49730164 43.00559998 47.48010254 C51.12295015 47.54548781 58.25776663 48.92366404 64.65625 54.18359375 C65.2646875 54.92738281 65.873125 55.67117188 66.5 56.4375 C67.1290625 57.17871094 67.758125 57.91992188 68.40625 58.68359375 C71.82429141 63.65148236 72.29167322 68.0821709 72.27124023 73.99975586 C72.27646698 74.79064102 72.28169373 75.58152618 72.28707886 76.39637756 C72.29729392 78.1080064 72.3030949 79.81966608 72.30496025 81.53132439 C72.30863176 84.24291783 72.32537947 86.95414812 72.34571838 89.66566467 C72.40105807 97.37298832 72.4318148 105.08036487 72.45629883 112.7878418 C72.47219345 117.50752714 72.50243042 122.22695355 72.54106331 126.94650459 C72.55269437 128.74176849 72.55864349 130.53707872 72.55874443 132.33238029 C72.55893698 134.84547774 72.57723873 137.35786306 72.59936523 139.87084961 C72.59478806 140.60818329 72.59021088 141.34551697 72.585495 142.10519409 C72.65107469 146.80204852 73.52504357 150.00938421 76 154 C80.69241086 158.23461468 83.5029599 159.3041306 89.68359375 159.21484375 C94.3806657 158.77919627 97.17033781 156.8969321 100.3125 153.5 C102.77880102 149.8462207 103.12595822 147.14079967 103.13371277 142.8380127 C103.13797775 141.76962662 103.14224274 140.70124054 103.14663696 139.60047913 C103.14618378 138.4284343 103.14573059 137.25638947 103.14526367 136.04882812 C103.14862228 134.81450546 103.1519809 133.5801828 103.15544128 132.30845642 C103.16332082 128.92215821 103.16661924 125.53592131 103.16725707 122.14961815 C103.16820638 119.32392945 103.17188481 116.49824665 103.17542917 113.67256021 C103.18357218 107.00777799 103.18601349 100.34300928 103.18530273 93.67822266 C103.18470152 86.79868813 103.19526236 79.9192319 103.2110464 73.0397172 C103.22411071 67.13562096 103.22948712 61.23155037 103.22884732 55.32743979 C103.22859207 51.80005739 103.23145849 48.27274461 103.24202538 44.74537659 C103.25348137 40.81394369 103.24896635 36.88261878 103.24291992 32.95117188 C103.24853943 31.77912704 103.25415894 30.60708221 103.25994873 29.39952087 C103.25575424 28.3311348 103.25155975 27.26274872 103.24723816 26.1619873 C103.24778293 25.23210747 103.24832769 24.30222763 103.24888897 23.34416962 C103.15449085 20.72933846 103.15449085 20.72933846 101 18 C98.29608166 17.09869389 96.69807506 16.86669209 93.91877747 16.84178162 C93.09006638 16.8319928 92.26135529 16.82220398 91.40753174 16.81211853 C90.50194519 16.80636307 89.59635864 16.8006076 88.66333008 16.79467773 C87.22889809 16.77982834 87.22889809 16.77982834 85.76548767 16.76467896 C82.60019417 16.73305614 79.43488565 16.70830336 76.26953125 16.68359375 C74.07663072 16.6630249 71.88373417 16.64202845 69.69084167 16.62062073 C63.91557021 16.56539292 58.14026292 16.51598672 52.3649292 16.46777344 C46.47307136 16.41756363 40.58126562 16.36187484 34.68945312 16.30664062 C23.12634658 16.19905036 11.56319482 16.09760727 0 16 C0 10.72 0 5.44 0 0 Z " fill="#1E556B" transform="translate(376,320)"/>
<path d="M0 0 C14.06310726 -0.55182228 26.21620798 4.85097024 36.53515625 14.24609375 C44.20909003 22.2873967 49.86117883 34.0314648 49.97265625 45.24609375 C49.93140625 46.23609375 49.89015625 47.22609375 49.84765625 48.24609375 C49.06003906 48.3440625 48.27242187 48.44203125 47.4609375 48.54296875 C28.74444658 51.11233318 11.47356937 57.46293372 -0.39306641 72.85546875 C-8.94996713 85.02270804 -12.93329519 97.61751101 -14.15234375 112.24609375 C-8.87234375 112.24609375 -3.59234375 112.24609375 1.84765625 112.24609375 C1.84765625 109.60609375 1.84765625 106.96609375 1.84765625 104.24609375 C4.511978 91.99021372 10.95032967 81.00306959 20.84765625 73.24609375 C33.95535997 65.37846861 46.15283426 62.30875715 61.41015625 65.37109375 C74.02008763 68.63643398 83.78468006 75.52036712 90.95703125 86.46484375 C97.51104876 98.05624661 99.81309703 109.41888985 97.16015625 122.68359375 C93.56948631 135.37062753 86.93933842 146.38923068 75.4375 153.29296875 C65.56436902 158.53707963 57.07359922 160.54863221 46.01635742 160.52075195 C44.95996567 160.52586288 43.90357391 160.53097382 42.81517029 160.53623962 C39.34026341 160.55008274 35.86555609 160.54918263 32.390625 160.546875 C29.96218289 160.55076515 27.53374146 160.55510048 25.1053009 160.55986023 C20.0206176 160.56731135 14.93600374 160.5670394 9.85131836 160.56176758 C3.35518839 160.55597807 -3.14065599 160.57289713 -9.63673878 160.59611225 C-14.65123642 160.61088922 -19.66566594 160.61171582 -24.6801815 160.60860252 C-27.07422132 160.60911386 -29.46826514 160.6143161 -31.86228371 160.62441444 C-35.21932818 160.63683664 -38.57582475 160.62995196 -41.93286133 160.6184082 C-42.90932617 160.62605194 -43.88579102 160.63369568 -44.8918457 160.64157104 C-58.47565037 160.53902093 -70.38586668 155.97458775 -80.40234375 146.74609375 C-90.51433713 136.05443196 -94.71483037 122.80797806 -94.3984375 108.25390625 C-93.33957018 95.31219462 -87.34205192 84.41992705 -78.01953125 75.55078125 C-72.87157888 71.41278139 -65.89253692 66.24609375 -59.15234375 66.24609375 C-58.87261719 66.98472656 -58.59289062 67.72335938 -58.3046875 68.484375 C-55.10021037 76.59345378 -51.40518483 84.99325267 -45.15234375 91.24609375 C-41.64465127 90.93381471 -39.79610769 89.34848904 -37.33984375 86.93359375 C-36.71464844 86.33933594 -36.08945313 85.74507813 -35.4453125 85.1328125 C-33.94168802 83.35425736 -33.94168802 83.35425736 -34.27734375 81.26953125 C-35.26615601 78.98290291 -36.48501407 77.18792002 -37.96484375 75.18359375 C-45.22061583 64.63132906 -47.49061505 52.59131029 -45.69140625 40.02734375 C-42.84495651 25.96253329 -36.01670491 15.18499577 -24.00390625 7.13671875 C-16.0261699 2.55094156 -9.07144101 0.70817941 0 0 Z " fill="#4390B6" transform="translate(254.15234375,175.75390625)"/>
<path d="M0 0 C42.24 0 84.48 0 128 0 C128 47.52 128 95.04 128 144 C85.76 144 43.52 144 0 144 C0 96.48 0 48.96 0 0 Z " fill="#E4A589" transform="translate(32,64)"/>
<path d="M0 0 C1.70079964 -0.00832352 1.70079964 -0.00832352 3.43595886 -0.01681519 C7.18364735 -0.02862501 10.93013045 -0.00432053 14.67773438 0.02148438 C17.28177841 0.02319516 19.88582417 0.02313013 22.48986816 0.0213623 C27.94733302 0.02141584 33.40445119 0.04114814 38.86181641 0.07324219 C45.16545045 0.11013354 51.46863051 0.11891739 57.77235842 0.11194468 C63.84380714 0.10563272 69.91507565 0.11662028 75.98649597 0.13591003 C78.56690207 0.14294482 81.14732188 0.14606399 83.72773743 0.1452179 C87.33306708 0.14701417 90.93775069 0.16838292 94.54296875 0.1953125 C95.61117355 0.1923819 96.67937836 0.18945129 97.779953 0.18643188 C106.90331966 0.29165284 106.90331966 0.29165284 110.77148438 3.61523438 C112.27371899 6.61970361 111.92445165 9.7156989 111.92919922 13.01147461 C111.93427994 13.77438309 111.93936066 14.53729156 111.94459534 15.32331848 C111.95531136 16.98425072 111.96392669 18.6451975 111.97071457 20.30615044 C111.98250849 22.94319532 112.0019673 25.58007678 112.02383423 28.21705627 C112.08540004 35.71650664 112.13929943 43.21594415 112.17285156 50.71557617 C112.19392355 55.30217109 112.22933637 59.8884742 112.27360916 64.4749012 C112.28768237 66.21578573 112.29647178 67.95672196 112.29966354 69.69766045 C112.30463162 72.15022639 112.32794134 74.6020343 112.35498047 77.05444336 C112.35197433 77.75981232 112.3489682 78.46518127 112.34587097 79.19192505 C112.44451023 85.28620118 114.00159001 90.80773874 115.77148438 96.61523438 C99.15149902 96.73200576 82.53164661 96.82019191 65.91135025 96.87429523 C58.19434145 96.90008346 50.47758745 96.93524535 42.76074219 96.99243164 C36.03517862 97.04224822 29.30979955 97.07452091 22.58405662 97.08567685 C19.02229967 97.09219875 15.46107058 97.10753856 11.89948273 97.14388466 C7.92474938 97.18411838 3.95053373 97.1851849 -0.02441406 97.18286133 C-1.20692749 97.20083771 -2.38944092 97.21881409 -3.60778809 97.23733521 C-11.45198536 97.18752904 -11.45198536 97.18752904 -14.95793152 94.60368347 C-16.58954052 90.76609381 -16.79635262 87.33403403 -16.76196289 83.23242188 C-16.77057846 82.40091614 -16.77919403 81.5694104 -16.78807068 80.71270752 C-16.81072345 77.97156407 -16.80399371 75.23144344 -16.79492188 72.49023438 C-16.8001575 70.58121436 -16.80643375 68.67219694 -16.81370544 66.76318359 C-16.82410815 62.76517551 -16.81954961 58.76752339 -16.80493164 54.76953125 C-16.78773741 49.64788983 -16.81124756 44.5273696 -16.84642124 39.40585327 C-16.8683876 35.46468685 -16.86695573 31.52378908 -16.85865593 27.58258057 C-16.85783612 25.69434377 -16.86470522 23.8060873 -16.87942696 21.91790771 C-16.89686064 19.27725389 -16.8823419 16.63861966 -16.85961914 13.99804688 C-16.87131134 13.21971497 -16.88300354 12.44138306 -16.89505005 11.63946533 C-16.83116485 7.98796759 -16.31293464 5.75238188 -14.39085388 2.62976074 C-9.67310097 -0.37562225 -5.48790575 -0.06813996 0 0 Z " fill="#E3A488" transform="translate(320.228515625,383.384765625)"/>
<path d="M0 0 C1.08337646 -0.00029205 2.16675293 -0.00058411 3.28295898 -0.00088501 C6.85953819 0.00050697 10.43590841 0.01606224 14.01245117 0.03173828 C16.49395128 0.03546887 18.97545285 0.03831563 21.45695496 0.04031372 C27.98522007 0.04794651 34.51339605 0.06759209 41.04162598 0.08972168 C47.70440999 0.11126916 54.36721993 0.11931706 61.0300293 0.12939453 C74.10103198 0.15083821 87.17196853 0.18496999 100.24291992 0.22705078 C100.24291992 5.50705078 100.24291992 10.78705078 100.24291992 16.22705078 C65.59291992 16.55705078 30.94291992 16.88705078 -4.75708008 17.22705078 C1.51291992 21.84705078 7.78291992 26.46705078 14.24291992 31.22705078 C17.75256195 33.8829961 21.25502788 36.54332584 24.74291992 39.22705078 C32.16959089 44.91147535 39.63697243 50.53343162 47.19091797 56.04785156 C51.31194307 59.05638624 55.39736463 62.10087183 59.44213867 65.21142578 C60.29791504 65.86224121 61.15369141 66.51305664 62.03540039 67.18359375 C63.6747156 68.4315824 65.30578228 69.69050666 66.92700195 70.96191406 C70.02575648 73.30471018 72.46038258 75.02989202 76.25073242 75.98486328 C80.88012592 74.81240592 84.08209222 72.13880456 87.80541992 69.22705078 C88.63041992 68.60056641 89.45541992 67.97408203 90.30541992 67.32861328 C92.96140217 65.3076704 95.60207799 63.26772325 98.24291992 61.22705078 C99.99042554 59.89215517 101.73911833 58.5588122 103.48901367 57.22705078 C106.11863506 55.22568327 108.74756461 53.22349881 111.37255859 51.21606445 C119.58358185 44.9409053 127.87593616 38.77746088 136.23022461 32.69433594 C137.57931559 31.71082832 138.92369597 30.72082848 140.26342773 29.72460938 C145.02089256 26.22705078 145.02089256 26.22705078 147.24291992 26.22705078 C148.68366707 28.00917978 150.04802641 29.85365354 151.36791992 31.72705078 C152.09237305 32.74798828 152.81682617 33.76892578 153.56323242 34.82080078 C154.39467773 36.01189453 154.39467773 36.01189453 155.24291992 37.22705078 C153.87095818 40.45122577 152.47372258 42.09437249 149.62963867 44.11767578 C148.51588867 44.92205078 148.51588867 44.92205078 147.37963867 45.74267578 C146.57139648 46.31501953 145.7631543 46.88736328 144.93041992 47.47705078 C143.1935327 48.73058406 141.45790025 49.98585738 139.72338867 51.24267578 C138.82023926 51.89558594 137.91708984 52.54849609 136.98657227 53.22119141 C132.51908649 56.48732978 128.13283445 59.85778013 123.74291992 63.22705078 C113.99991295 70.6842924 104.16054497 78.00381639 94.24291992 85.22705078 C93.59137939 85.70762939 92.93983887 86.18820801 92.26855469 86.68334961 C85.98621381 91.26981348 80.58681243 92.40807643 72.96557617 92.68798828 C64.94763548 91.33057508 58.65182557 85.7323151 52.43041992 80.85205078 C50.56033609 79.40543179 48.68922165 77.96014423 46.81713867 76.51611328 C45.41407471 75.43185059 45.41407471 75.43185059 43.98266602 74.32568359 C39.94580477 71.23346659 35.84872015 68.22677568 31.74291992 65.22705078 C24.02395459 59.57401034 16.39446788 53.81060541 8.79760742 47.99462891 C4.19036906 44.46778428 -0.43235194 40.96338719 -5.07568359 37.48413086 C-5.62502815 37.07240883 -6.17437271 36.6606868 -6.74036407 36.23648834 C-8.07912858 35.23315455 -9.41808429 34.23007589 -10.75708008 33.22705078 C-10.8033807 46.84825322 -10.83893775 60.46943701 -10.86070442 74.09070206 C-10.87115029 80.41531398 -10.88532422 86.73987214 -10.90795898 93.06445312 C-10.9296586 99.1657845 -10.94164265 105.26706411 -10.94683456 111.36843109 C-10.95053549 113.69848191 -10.95776229 116.02852983 -10.96854019 118.35855865 C-10.98301668 121.6171943 -10.98505961 124.87561482 -10.98413086 128.13427734 C-10.99132141 129.10172379 -10.99851196 130.06917023 -11.00592041 131.06593323 C-11.00317108 131.95491806 -11.00042175 132.84390289 -10.99758911 133.75982666 C-11.00035449 134.91575506 -11.00035449 134.91575506 -11.00317574 136.09503555 C-10.72040861 138.54474893 -10.05656063 140.13927769 -8.75708008 142.22705078 C-5.90029956 143.65544104 -3.47423503 143.35633779 -0.27944946 143.36076355 C0.39322326 143.36302911 1.06589599 143.36529466 1.75895274 143.36762887 C4.02364522 143.37398291 6.28827808 143.37313861 8.55297852 143.37231445 C10.17237933 143.37530509 11.79177943 143.37870739 13.41117859 143.38249207 C17.81821677 143.39134642 22.22523556 143.39367079 26.63228178 143.39430785 C30.30780768 143.39525592 33.98332902 143.39893308 37.65885317 143.40247995 C46.32913036 143.41063011 54.99939716 143.41306369 63.66967773 143.41235352 C72.62079574 143.4117527 81.57185349 143.42230407 90.52295625 143.43809718 C98.20113007 143.45116285 105.87928416 143.45653782 113.55746901 143.45589811 C118.14626851 143.45564281 122.73501449 143.4585111 127.32380295 143.46907616 C131.63951496 143.47874068 135.95512212 143.47884766 140.27083778 143.47155952 C141.85591726 143.4705116 143.4410032 143.47288885 145.02607155 143.47891998 C147.18794589 143.48661375 149.34945578 143.48201267 151.51132202 143.47428894 C152.72180395 143.47483371 153.93228588 143.47537848 155.17944908 143.47593975 C158.14444075 143.23505163 159.83514539 142.94593807 162.24291992 141.22705078 C163.17228624 138.43895183 163.37725525 136.7251431 163.40113831 133.84211731 C163.41092712 132.94609299 163.42071594 132.05006866 163.43080139 131.12689209 C163.43655685 130.14649963 163.44231232 129.16610718 163.44824219 128.15600586 C163.45814178 127.1216893 163.46804138 126.08737274 163.47824097 125.02171326 C163.50987454 121.59669295 163.53462083 118.17165875 163.55932617 114.74658203 C163.57989409 112.37431982 163.60089051 110.00206129 163.62229919 107.62980652 C163.67753661 101.38106258 163.72693857 95.13228548 163.77514648 88.88348389 C163.82534929 82.50904381 163.88104173 76.13465199 163.9362793 69.76025391 C164.04388131 57.24922741 164.14532179 44.73815904 164.24291992 32.22705078 C169.52291992 32.22705078 174.80291992 32.22705078 180.24291992 32.22705078 C180.33566438 46.56143199 180.40670789 60.89574162 180.45016861 75.23036194 C180.47102928 81.88677024 180.49931964 88.54291842 180.54467773 95.19921875 C180.58818869 101.62477637 180.61206851 108.05013649 180.62242889 114.47583008 C180.62981074 116.92540597 180.64422573 119.37497124 180.66584015 121.82446289 C180.6949428 125.25967639 180.6988729 128.69407727 180.69702148 132.12939453 C180.71140259 133.1385643 180.72578369 134.14773407 180.74060059 135.18748474 C180.69784243 142.53566236 179.16691591 147.89032375 174.27807617 153.46923828 C173.62709961 154.00806641 172.97612305 154.54689453 172.30541992 155.10205078 C171.65702148 155.65634766 171.00862305 156.21064453 170.34057617 156.78173828 C165.6807197 159.99244013 161.6955285 160.47966027 156.08976746 160.49447632 C155.38060175 160.49900743 154.67143604 160.50353854 153.94078046 160.50820696 C151.57031688 160.52084229 149.20008332 160.51923117 146.82958984 160.51757812 C145.12756556 160.52356395 143.425544 160.53036962 141.723526 160.53793335 C137.10358303 160.55559576 132.48371415 160.56028885 127.86374068 160.56156492 C124.97594353 160.56298702 122.08816518 160.56725776 119.2003727 160.57255936 C109.12168813 160.59106092 99.04305645 160.59922987 88.96435547 160.59765625 C79.57636293 160.59645504 70.18860038 160.61755302 60.80066603 160.64914358 C52.73510318 160.67531507 44.66961539 160.68602317 36.6040104 160.68474543 C31.78926624 160.68423602 26.97472644 160.68990736 22.16002464 160.71110153 C17.62994339 160.73049843 13.10026114 160.7305985 8.57016563 160.71606827 C6.9109692 160.71398082 5.25174769 160.71867727 3.59259415 160.73078918 C-13.48461925 160.84734311 -13.48461925 160.84734311 -20.99926758 154.26220703 C-21.80750977 153.28574219 -21.80750977 153.28574219 -22.63208008 152.28955078 C-23.18637695 151.64115234 -23.74067383 150.99275391 -24.31176758 150.32470703 C-27.07884839 146.30870056 -28.00674703 142.73978992 -28.02450562 137.89616394 C-28.03303558 136.84066849 -28.04156555 135.78517303 -28.050354 134.69769287 C-28.04944763 133.55004456 -28.04854126 132.40239624 -28.04760742 131.2199707 C-28.05432465 130.00314102 -28.06104187 128.78631134 -28.06796265 127.53260803 C-28.08369135 124.20181819 -28.09031687 120.87127773 -28.09159422 117.54046798 C-28.09301813 115.45671448 -28.09729229 113.37298693 -28.10258865 111.28923988 C-28.12108078 104.01157605 -28.12926043 96.73398537 -28.12768555 89.45629883 C-28.12648484 82.68578463 -28.14757504 75.91558957 -28.17917287 69.14515609 C-28.20537736 63.3216087 -28.21605108 57.49816527 -28.21477473 51.67455941 C-28.21426625 48.20117578 -28.21988539 44.72807581 -28.24113083 41.25475121 C-28.2642024 37.37714706 -28.25496676 33.49997594 -28.24291992 29.62231445 C-28.25415894 28.48073883 -28.26539795 27.33916321 -28.27697754 26.16299438 C-28.21563019 18.38244896 -27.06227677 12.99878617 -21.79223633 6.98486328 C-21.14125977 6.44603516 -20.4902832 5.90720703 -19.81958008 5.35205078 C-19.17118164 4.79775391 -18.5227832 4.24345703 -17.85473633 3.67236328 C-12.10969911 -0.28604225 -6.75400647 -0.04761485 0 0 Z " fill="#1E556B" transform="translate(43.757080078125,335.77294921875)"/>
<path d="M0 0 C0.96574331 -0.00679667 0.96574331 -0.00679667 1.95099658 -0.01373065 C4.10035462 -0.02635324 6.24945857 -0.0247557 8.39884949 -0.02310181 C9.94324061 -0.02908844 11.48762873 -0.0358943 13.03201294 -0.04345703 C17.22221905 -0.06111142 21.41234346 -0.0658122 25.60258317 -0.0670886 C28.22236557 -0.06851118 30.84212727 -0.07278283 33.46190453 -0.07808304 C42.6069152 -0.0965821 51.7518676 -0.10475389 60.89689636 -0.10317993 C69.41239357 -0.10197886 77.92763718 -0.12307478 86.44307023 -0.15466726 C93.76129432 -0.18084749 101.07943567 -0.19154648 108.39770621 -0.19026911 C112.765328 -0.18975995 117.13272443 -0.19541748 121.50029945 -0.21662521 C125.61015651 -0.23603691 129.71957392 -0.23611227 133.82944679 -0.22159195 C135.33383834 -0.21950631 136.83825762 -0.22419021 138.34260178 -0.23631287 C147.49883263 -0.30529126 154.50132179 -0.07287525 161.69645691 6.23226929 C162.23528503 6.88324585 162.77411316 7.53422241 163.32926941 8.20492554 C163.88356628 8.85332397 164.43786316 9.50172241 165.00895691 10.16976929 C168.21965876 14.82962576 168.7068789 18.81481696 168.72169495 24.420578 C168.72622606 25.12974371 168.73075717 25.83890942 168.73542559 26.569565 C168.74806092 28.94002858 168.7464498 31.31026214 168.74479675 33.68075562 C168.75078258 35.38277989 168.75758825 37.08480146 168.76515198 38.78681946 C168.78281439 43.40676243 168.78750748 48.02663131 168.78878355 52.64660478 C168.79020565 55.53440193 168.79447638 58.42218028 168.79977798 61.30997276 C168.81827955 71.38865733 168.8264485 81.46728901 168.82487488 91.54598999 C168.82367367 100.93398252 168.84477165 110.32174508 168.8763622 119.70967942 C168.90253369 127.77524228 168.9132418 135.84073007 168.91196406 143.90633506 C168.91145465 148.72107922 168.91712599 153.53561902 168.93832016 158.35032082 C168.95771706 162.88040206 168.95781713 167.41008431 168.9432869 171.94017982 C168.94119945 173.59937626 168.9458959 175.25859777 168.95800781 176.91775131 C169.07456174 193.99496471 169.07456174 193.99496471 162.48942566 201.50961304 C161.8384491 202.04844116 161.18747253 202.58726929 160.51676941 203.14242554 C159.86837097 203.69672241 159.21997253 204.25101929 158.55192566 204.82211304 C154.38172047 207.69543878 150.75237498 208.51728248 145.72787476 208.50793457 C144.58509064 208.5106839 143.44230652 208.51343323 142.26489258 208.51626587 C141.02051926 208.50907532 139.77614594 208.50188477 138.49406433 208.49447632 C137.17660217 208.49476837 135.85914001 208.49506042 134.50175476 208.49536133 C130.8967391 208.49593443 127.29185692 208.4841871 123.68687224 208.47021341 C119.91658059 208.45769891 116.14628578 208.45653499 112.37597656 208.4541626 C105.2397962 208.44794995 98.10367722 208.43154204 90.96752387 208.41146362 C82.84181542 208.38909793 74.71610402 208.3781095 66.59037244 208.36807275 C49.87830117 208.34717562 33.16629555 208.31160028 16.45426941 208.26742554 C16.45426941 202.98742554 16.45426941 197.70742554 16.45426941 192.26742554 C18.07403687 192.25933868 19.69380432 192.25125183 21.36265564 192.24291992 C36.60741046 192.16552571 51.8520706 192.07792165 67.09670639 191.97989845 C74.93462418 191.92976338 82.77253147 191.88332058 90.61051941 191.84555054 C97.44161371 191.81262321 104.27262669 191.77278793 111.10363126 191.72463548 C114.7210437 191.6993778 118.33840225 191.6775944 121.95587921 191.66408157 C125.9928965 191.64887222 130.02965474 191.61824153 134.0665741 191.58627319 C135.86839645 191.58303291 135.86839645 191.58303291 137.70661926 191.57972717 C139.35562729 191.56298195 139.35562729 191.56298195 141.03794861 191.54589844 C142.47041491 191.5376023 142.47041491 191.5376023 143.93181992 191.52913857 C146.60954059 191.2513156 148.23044002 190.77677756 150.45426941 189.26742554 C151.59040072 185.8590316 151.58300325 183.25803121 151.58798218 179.66281128 C151.59138051 178.6514622 151.59138051 178.6514622 151.5948475 177.61968184 C151.60118817 175.35576138 151.6003581 173.09190078 151.59953308 170.82797241 C151.60252448 169.20680158 151.60592697 167.58563146 151.60971069 165.96446228 C151.61855562 161.55755045 151.62088898 157.15065802 151.62152648 152.74373817 C151.62247511 149.06806784 151.62615277 145.39240205 151.62969857 141.71673346 C151.63784458 133.04791885 151.64028263 124.37911463 151.63957214 115.71029663 C151.63897092 106.75856985 151.64953133 97.80690325 151.66531581 88.85519171 C151.67837521 81.17616412 151.68375673 73.49715624 151.68311673 65.81811762 C151.68286133 61.22880597 151.68573614 56.63954781 151.69629478 52.05024719 C151.7059492 47.73616656 151.70607331 43.42219086 151.69877815 39.10810661 C151.69772907 37.52260625 151.70011425 35.93709945 151.70613861 34.35161018 C151.71381596 32.19162852 151.70924239 30.03201314 151.70150757 27.87203979 C151.70205234 26.66193489 151.7025971 25.45182999 151.70315838 24.20505524 C151.67609509 21.07748102 151.67609509 21.07748102 149.45426941 18.26742554 C146.2193828 17.18913 143.86717264 17.13358785 140.46380615 17.12025452 C139.21175385 17.11309921 137.95970154 17.10594391 136.66970825 17.09857178 C135.27961756 17.09573159 133.8895266 17.09301986 132.49943542 17.09042358 C131.03751972 17.08415815 129.57560561 17.07751128 128.11369324 17.07051086 C123.3118653 17.04948411 118.51003708 17.03911235 113.70817566 17.02914429 C112.05554119 17.02509674 110.40290688 17.02097982 108.75027275 17.0167942 C100.98898455 16.99774854 93.22770585 16.98351408 85.46639878 16.97518224 C76.50226732 16.96540039 67.53838217 16.93905373 58.57433754 16.89868134 C51.64773043 16.8685533 44.72119408 16.85371667 37.7945227 16.85040122 C33.65613275 16.84804765 29.51800613 16.83904718 25.37968636 16.81394005 C21.48820712 16.79071087 17.59716559 16.78640498 13.70563507 16.79670143 C12.27695957 16.79719811 10.8482629 16.79083883 9.41965294 16.77714539 C7.47042036 16.75950578 5.52099886 16.76889202 3.57171631 16.77967834 C2.4805227 16.77728999 1.38932909 16.77490164 0.26506901 16.77244091 C-3.28491399 17.39759647 -4.45231895 18.36038291 -6.54573059 21.26742554 C-7.14581429 23.7160266 -7.14581429 23.7160266 -7.06471252 26.41799927 C-7.08558174 27.97865868 -7.08558174 27.97865868 -7.10687256 29.57084656 C-7.10184219 30.70660629 -7.09681183 31.84236603 -7.09162903 33.01254272 C-7.10196671 34.21281601 -7.11230438 35.41308929 -7.12295532 36.6497345 C-7.14738935 39.93673459 -7.15422003 43.22320663 -7.15323544 46.51027966 C-7.15636453 49.94701247 -7.18198257 53.38357583 -7.20521545 56.82022095 C-7.2457795 63.32599868 -7.26611703 69.83167617 -7.27918935 76.33756089 C-7.2950581 83.7450996 -7.33347311 91.15246768 -7.37378263 98.55990744 C-7.45618705 113.79570028 -7.50947592 129.03144913 -7.54573059 144.26742554 C-12.82573059 144.26742554 -18.10573059 144.26742554 -23.54573059 144.26742554 C-23.63843673 127.84687745 -23.70976526 111.42643776 -23.75297928 95.00569153 C-23.77358012 87.38076859 -23.80165302 79.75601152 -23.8474884 72.13119507 C-23.88743242 65.48323515 -23.91318141 58.8353954 -23.92208457 52.1873188 C-23.92728662 48.66911055 -23.93946077 45.15124599 -23.96865082 41.63314819 C-24.00101824 37.69997857 -24.00168514 33.76714123 -23.99983215 29.83383179 C-24.01421326 28.6750502 -24.02859436 27.51626862 -24.04341125 26.32237244 C-24.00347088 18.48056316 -22.89314342 13.087336 -17.58088684 7.02523804 C-16.92991028 6.48640991 -16.27893372 5.94758179 -15.60823059 5.39242554 C-14.95983215 4.83812866 -14.31143372 4.28383179 -13.64338684 3.71273804 C-9.18858757 0.64332327 -5.36031972 0.01562072 0 0 Z " fill="#1E556B" transform="translate(327.5457305908203,15.732574462890625)"/>
<path d="M0 0 C1.50626953 0.06767578 1.50626953 0.06767578 3.04296875 0.13671875 C5.49348024 0.25340977 7.93087838 0.41656664 10.375 0.625 C10.375 3.265 10.375 5.905 10.375 8.625 C11.59164841 8.61833817 12.80829681 8.61167633 14.06181335 8.60481262 C25.52410463 8.54401389 36.98636321 8.49903324 48.44877911 8.46956348 C54.34181625 8.4539035 60.23472329 8.4326589 66.12768555 8.39868164 C71.81406243 8.36610045 77.5003141 8.34814949 83.18677711 8.34036827 C85.35692122 8.33482257 87.52705843 8.32399327 89.69714928 8.30780983 C92.7353436 8.28605235 95.77301968 8.28303241 98.8112793 8.28442383 C100.15887329 8.26824509 100.15887329 8.26824509 101.53369141 8.2517395 C106.29362644 8.27534849 109.5293465 8.48603905 113.375 11.625 C114.62856335 14.13212671 114.50643503 15.84000559 114.51544189 18.64654541 C114.52115204 19.70922134 114.52686218 20.77189728 114.53274536 21.86677551 C114.53442215 23.62316597 114.53442215 23.62316597 114.53613281 25.41503906 C114.54109772 26.64439682 114.54606262 27.87375458 114.55117798 29.1403656 C114.56330092 32.51865735 114.57074882 35.89688707 114.57518864 39.27519321 C114.57811887 41.38621094 114.58222365 43.49722323 114.58669281 45.60823822 C114.60037166 52.21409939 114.61003566 58.81994814 114.6138947 65.4258225 C114.61837254 73.04908889 114.6359059 80.67217571 114.6648953 88.29538751 C114.68652644 94.1884702 114.69659979 100.08150243 114.69793582 105.9746244 C114.6989831 109.49377577 114.70487384 113.01275844 114.72275543 116.53186798 C114.74232834 120.46043154 114.7379414 124.38877169 114.73144531 128.31738281 C114.7406601 129.48021286 114.74987488 130.64304291 114.7593689 131.84111023 C114.72575743 138.32274352 114.44668635 143.25734387 109.875 148.26953125 C104.46779135 152.47983174 100.09606323 153.45362423 93.375 152.625 C88.0714772 149.92320537 84.27667702 146.33003105 82.375 140.625 C82.27560211 138.03602294 82.23131287 135.47318288 82.2331543 132.8840332 C82.22967987 132.09665268 82.22620544 131.30927216 82.22262573 130.49803162 C82.21527343 128.78745034 82.20992524 127.07685956 82.20633507 125.36626625 C82.19916207 122.65435205 82.18348796 119.942618 82.16499329 117.23075867 C82.11257219 109.51983147 82.06457943 101.80900184 82.04907227 94.09790039 C82.03896358 89.38043227 82.00956383 84.66341612 81.96775246 79.94612694 C81.95547623 78.15252293 81.95031501 76.35885497 81.95255089 74.56521034 C81.95491663 72.04730034 81.9326416 69.53067515 81.9050293 67.01293945 C81.91163071 66.27965424 81.91823212 65.54636902 81.92503357 64.79086304 C81.81298308 58.53010964 79.72398222 53.47174273 75.734375 48.63671875 C75.20328125 48.19972656 74.6721875 47.76273437 74.125 47.3125 C73.34382813 46.63767578 73.34382813 46.63767578 72.546875 45.94921875 C66.42848928 42.21876415 60.76564547 41.17933282 53.75585938 41.19262695 C52.52515717 41.17733948 52.52515717 41.17733948 51.26959229 41.16174316 C48.58590703 41.13180127 45.90257979 41.12237627 43.21875 41.11328125 C41.34687125 41.09642058 39.47500373 41.07826848 37.60314941 41.05888367 C32.69762684 41.01152822 27.7921498 40.98162552 22.88647461 40.95544434 C17.87214163 40.92556566 12.85796531 40.87906052 7.84375 40.83398438 C-1.97908448 40.74811583 -11.80195133 40.6806976 -21.625 40.625 C-21.87499536 36.53661435 -22.05487854 32.45126367 -22.17431641 28.35693359 C-22.22415736 26.96942584 -22.29207033 25.58243112 -22.37939453 24.19677734 C-22.75260295 18.1156755 -23.00122871 12.73807828 -19.55801392 7.45132446 C-13.34880903 0.92909313 -8.90865322 -0.7731141 0 0 Z " fill="#CD8F79" transform="translate(365.625,327.375)"/>
<path d="M0 0 C4.6222993 -0.12514556 9.24357772 -0.21505102 13.8671875 -0.2746582 C15.43441988 -0.29954765 17.00153935 -0.33347282 18.56835938 -0.37719727 C28.93466046 -0.65889023 36.56948534 0.20012481 46 5 C53.77809019 7.59269673 61.86533554 7.62485771 70 8 C68.47738231 12.56785308 64.95456141 14.42882365 61.1875 17.25 C60.09985352 18.10078125 60.09985352 18.10078125 58.99023438 18.96875 C57.93352539 19.76539063 57.93352539 19.76539063 56.85546875 20.578125 C56.21246826 21.06700195 55.56946777 21.55587891 54.90698242 22.05957031 C53 23 53 23 50.8840332 22.90136719 C48.43981187 21.73199241 47.95857866 20.47632822 47 18 C40.47646849 22.21937539 34.27163225 26.7520722 28.125 31.5 C20.49322098 37.35449692 12.8237105 43.14781395 5.05444336 48.81884766 C0.93272395 51.82819211 -3.15362027 54.87318704 -7.19921875 57.984375 C-8.05499512 58.63519043 -8.91077148 59.28600586 -9.79248047 59.95654297 C-11.43179567 61.20453162 -13.06286235 62.46345588 -14.68408203 63.73486328 C-17.78283656 66.0776594 -20.21746266 67.80284124 -24.0078125 68.7578125 C-28.63720599 67.58535514 -31.8391723 64.91175378 -35.5625 62 C-36.3875 61.37351562 -37.2125 60.74703125 -38.0625 60.1015625 C-40.71848224 58.08061962 -43.35915806 56.04067246 -46 54 C-47.74750562 52.66510439 -49.49619841 51.33176142 -51.24609375 50 C-53.88528734 47.99137324 -56.52372761 45.98185344 -59.15820312 43.96704102 C-64.91758856 39.56527048 -70.71853219 35.22624287 -76.5625 30.9375 C-83.45469828 25.87708121 -90.33374571 20.79992147 -97.1875 15.6875 C-98.06801025 15.03450928 -98.94852051 14.38151855 -99.85571289 13.70874023 C-100.66000732 13.10747314 -101.46430176 12.50620605 -102.29296875 11.88671875 C-103.0099292 11.35264404 -103.72688965 10.81856934 -104.46557617 10.26831055 C-104.97193604 9.84976807 -105.4782959 9.43122559 -106 9 C-106 8.67 -106 8.34 -106 8 C-71.02 8 -36.04 8 0 8 C0 5.36 0 2.72 0 0 Z " fill="#6EBBA1" transform="translate(144,344)"/>
<path d="M0 0 C42.24 0 84.48 0 128 0 C128 42.24 128 84.48 128 128 C130.64 128 133.28 128 136 128 C136 135.92 136 143.84 136 152 C128.08 152 120.16 152 112 152 C111.98018066 148.04733154 111.96036133 144.09466309 111.93994141 140.0222168 C111.87313936 126.98628524 111.79559915 113.95043631 111.71247292 100.91459942 C111.66232007 93.00827157 111.61587751 85.10195423 111.578125 77.19555664 C111.54521613 70.30550858 111.50539112 63.41554143 111.45720994 56.52558261 C111.43193387 52.87634389 111.41015594 49.22715893 111.39665604 45.57785606 C111.38146764 41.50710773 111.3508408 37.43661773 111.31884766 33.3659668 C111.31668747 32.15180588 111.31452728 30.93764496 111.31230164 29.68669128 C111.30113815 28.58031311 111.28997467 27.47393494 111.2784729 26.33403015 C111.27294214 25.37075648 111.26741138 24.40748281 111.26171303 23.41501904 C111.15983321 20.73943625 111.15983321 20.73943625 109 18 C106.21190105 17.07063368 104.49809232 16.86566467 101.61506653 16.84178162 C100.71904221 16.8319928 99.82301788 16.82220398 98.89984131 16.81211853 C97.42925262 16.80348534 97.42925262 16.80348534 95.92895508 16.79467773 C94.89463852 16.78477814 93.86032196 16.77487854 92.79466248 16.76467896 C89.36964216 16.73304538 85.94460797 16.70829909 82.51953125 16.68359375 C80.14726904 16.66302583 77.77501051 16.64202941 75.40275574 16.62062073 C69.1540118 16.56538332 62.9052347 16.51598135 56.65643311 16.46777344 C50.28199303 16.41757064 43.90760121 16.36187819 37.53320312 16.30664062 C25.02217663 16.19903861 12.51110826 16.09759813 0 16 C0 10.72 0 5.44 0 0 Z " fill="#CD8F79" transform="translate(64,32)"/>
<path d="M0 0 C5.5979531 2.78577383 10.53410946 6.42946208 15.5625 10.125 C17.15060873 11.28574882 18.73915576 12.44589818 20.328125 13.60546875 C21.5047168 14.46470947 21.5047168 14.46470947 22.70507812 15.34130859 C24.82414164 16.87289556 26.95962465 18.375195 29.109375 19.86328125 C29.7377124 20.30075684 30.3660498 20.73823242 31.01342773 21.18896484 C32.69939113 22.35900376 34.39053205 23.5215722 36.08203125 24.68359375 C39.75578473 27.59997369 42.8761943 30.75238861 45 35 C45.59020447 40.67504295 45.33464103 45.20645352 42 50 C36.74384544 55.15160176 30.86248514 59.31577229 24.75 63.375 C18.0857181 67.85678148 11.58708404 72.45778117 5.25 77.390625 C0.35514638 80.89180502 -5.21268667 80.58038959 -11 80 C-15.38975552 78.00465658 -17.8389668 75.50956913 -20.1640625 71.2824707 C-21.96766268 66.35786262 -21.56589136 61.05431373 -21.53125 55.875 C-21.53699036 53.98370361 -21.53699036 53.98370361 -21.54284668 52.05419922 C-21.54556289 49.39429183 -21.54025485 46.73586634 -21.52148438 44.07617188 C-21.49869464 40.6833496 -21.51183013 37.29179327 -21.53577423 33.89901733 C-21.5537821 30.6409675 -21.5411387 27.38306642 -21.53125 24.125 C-21.53934692 22.91440918 -21.54744385 21.70381836 -21.55578613 20.45654297 C-21.48149755 13.75110878 -21.07020481 9.41946462 -17 4 C-12.08777468 -0.67260458 -6.48754441 -1.1971588 0 0 Z " fill="#1E556B" transform="translate(389,56)"/>
<path d="M0 0 C5.28 0 10.56 0 16 0 C16 2.64 16 5.28 16 8 C47.68 8 79.36 8 112 8 C112 13.28 112 18.56 112 24 C80.32 24 48.64 24 16 24 C16 26.64 16 29.28 16 32 C10.72 32 5.44 32 0 32 C0 29.36 0 26.72 0 24 C-5.28 24 -10.56 24 -16 24 C-16 18.72 -16 13.44 -16 8 C-10.72 8 -5.44 8 0 8 C0 5.36 0 2.72 0 0 Z " fill="#1E556B" transform="translate(352,152)"/>
<path d="M0 0 C31.68 0 63.36 0 96 0 C96 5.28 96 10.56 96 16 C64.32 16 32.64 16 0 16 C0 10.72 0 5.44 0 0 Z " fill="#1E556B" transform="translate(48,168)"/>
<path d="M0 0 C31.68 0 63.36 0 96 0 C96 5.28 96 10.56 96 16 C64.32 16 32.64 16 0 16 C0 10.72 0 5.44 0 0 Z " fill="#1E556B" transform="translate(48,128)"/>
<path d="M0 0 C31.68 0 63.36 0 96 0 C96 5.28 96 10.56 96 16 C64.32 16 32.64 16 0 16 C0 10.72 0 5.44 0 0 Z " fill="#1E556B" transform="translate(48,88)"/>
<path d="M0 0 C7.86774399 4.49585371 7.86774399 4.49585371 11.3046875 7.0234375 C12.42810547 7.84328125 12.42810547 7.84328125 13.57421875 8.6796875 C14.33347656 9.23914063 15.09273438 9.79859375 15.875 10.375 C17.39198783 11.48867203 18.91021686 12.60065535 20.4296875 13.7109375 C21.1731543 14.25459961 21.91662109 14.79826172 22.68261719 15.35839844 C25.83518635 17.59163432 29.08269951 19.66749824 32.35205078 21.72509766 C32.89587402 22.14581543 33.43969727 22.5665332 34 23 C34 23.66 34 24.32 34 25 C32.47802734 26.26171875 32.47802734 26.26171875 30.3359375 27.6875 C29.54944824 28.21706299 28.76295898 28.74662598 27.95263672 29.29223633 C27.1020166 29.85579834 26.25139648 30.41936035 25.375 31 C23.63455669 32.16929389 21.89498127 33.33988058 20.15625 34.51171875 C19.28742188 35.09614746 18.41859375 35.68057617 17.5234375 36.28271484 C13.32397735 39.14059049 9.2083092 42.1125084 5.10302734 45.10351562 C1.10156086 48 1.10156086 48 0 48 C0 32.16 0 16.32 0 0 Z " fill="#ADDBC8" transform="translate(384,72)"/>
</svg>
