<?xml version="1.0" encoding="UTF-8"?>
<svg version="1.1" xmlns="http://www.w3.org/2000/svg" width="512" height="512">
<path d="M0 0 C3.40130085 0.03460947 6.80003744 0.02052867 10.20141602 0.0012207 C12.38567176 0.00811299 14.56992091 0.01777977 16.75415039 0.03051758 C18.26216469 0.02307777 18.26216469 0.02307777 19.80064392 0.01548767 C27.14035885 0.13758009 32.5688634 1.64455841 38.15258789 6.52661133 C41.34149613 10.39054394 43.98090206 13.97420717 45.94555664 18.59692383 C46.93555664 17.93692383 47.92555664 17.27692383 48.94555664 16.59692383 C55.03469821 15.75093647 60.72106725 16.08801124 66.09399414 19.19458008 C71.1726028 23.04103685 74.88323864 27.56168487 76.94555664 33.59692383 C77.20282555 36.21613884 77.20282555 36.21613884 77.21298218 39.07052612 C77.22577713 40.70170128 77.22577713 40.70170128 77.23883057 42.36582947 C77.23747101 44.14093651 77.23747101 44.14093651 77.23608398 45.9519043 C77.24280121 47.20625778 77.24951843 48.46061127 77.25643921 49.75297546 C77.27217594 53.18960149 77.27879427 56.62598575 77.28007078 60.06263113 C77.28149547 62.21612289 77.28577139 64.36958959 77.29106522 66.5230751 C77.30956993 74.05519456 77.31773651 81.58724333 77.31616211 89.11938477 C77.3149651 96.1067465 77.33597916 103.09379714 77.36764944 110.08108032 C77.3939555 116.10261175 77.40452324 122.12404263 77.40325129 128.14563096 C77.40274523 131.73157631 77.40822628 135.31724597 77.42960739 138.90313339 C77.61783833 172.81643967 77.61783833 172.81643967 68.94555664 187.72192383 C68.61555664 188.3277832 68.28555664 188.93364258 67.94555664 189.55786133 C65.92197657 193.19398176 63.6293445 196.42190694 60.94555664 199.59692383 C61.50090088 199.90694336 62.05624512 200.21696289 62.62841797 200.53637695 C75.51712968 207.74471719 88.28684697 215.12836305 100.97338867 222.68676758 C111.22470199 228.78623225 121.56427881 234.72198846 131.94555664 240.59692383 C132.27555664 235.31692383 132.60555664 230.03692383 132.94555664 224.59692383 C140.86555664 224.59692383 148.78555664 224.59692383 156.94555664 224.59692383 C156.94555664 214.03692383 156.94555664 203.47692383 156.94555664 192.59692383 C162.22555664 192.59692383 167.50555664 192.59692383 172.94555664 192.59692383 C172.94555664 203.15692383 172.94555664 213.71692383 172.94555664 224.59692383 C178.22555664 224.59692383 183.50555664 224.59692383 188.94555664 224.59692383 C188.94555664 214.03692383 188.94555664 203.47692383 188.94555664 192.59692383 C194.22555664 192.59692383 199.50555664 192.59692383 204.94555664 192.59692383 C204.94555664 203.15692383 204.94555664 213.71692383 204.94555664 224.59692383 C210.22555664 224.59692383 215.50555664 224.59692383 220.94555664 224.59692383 C220.94555664 214.03692383 220.94555664 203.47692383 220.94555664 192.59692383 C226.22555664 192.59692383 231.50555664 192.59692383 236.94555664 192.59692383 C236.94555664 203.15692383 236.94555664 213.71692383 236.94555664 224.59692383 C244.86555664 224.59692383 252.78555664 224.59692383 260.94555664 224.59692383 C260.94555664 235.15692383 260.94555664 245.71692383 260.94555664 256.59692383 C271.50555664 256.59692383 282.06555664 256.59692383 292.94555664 256.59692383 C292.94555664 261.87692383 292.94555664 267.15692383 292.94555664 272.59692383 C282.38555664 272.59692383 271.82555664 272.59692383 260.94555664 272.59692383 C260.94555664 277.87692383 260.94555664 283.15692383 260.94555664 288.59692383 C271.50555664 288.59692383 282.06555664 288.59692383 292.94555664 288.59692383 C292.94555664 293.87692383 292.94555664 299.15692383 292.94555664 304.59692383 C282.38555664 304.59692383 271.82555664 304.59692383 260.94555664 304.59692383 C260.94555664 309.87692383 260.94555664 315.15692383 260.94555664 320.59692383 C271.50555664 320.59692383 282.06555664 320.59692383 292.94555664 320.59692383 C292.94555664 325.87692383 292.94555664 331.15692383 292.94555664 336.59692383 C282.38555664 336.59692383 271.82555664 336.59692383 260.94555664 336.59692383 C260.94555664 341.87692383 260.94555664 347.15692383 260.94555664 352.59692383 C271.50555664 352.59692383 282.06555664 352.59692383 292.94555664 352.59692383 C292.94555664 357.87692383 292.94555664 363.15692383 292.94555664 368.59692383 C282.38555664 368.59692383 271.82555664 368.59692383 260.94555664 368.59692383 C260.94555664 384.43692383 260.94555664 400.27692383 260.94555664 416.59692383 C255.66555664 416.92692383 250.38555664 417.25692383 244.94555664 417.59692383 C241.05497556 420.2021929 238.83456239 421.98630328 235.85961914 425.35864258 C235.10691742 426.14205521 234.3542157 426.92546783 233.57870483 427.73262024 C231.20409095 430.2165684 228.88663948 432.74592927 226.57055664 435.28442383 C224.22411811 437.7945955 221.86680122 440.29346039 219.49813843 442.78266907 C218.03593196 444.32559447 216.58769914 445.88193931 215.15689087 447.45402527 C206.5318074 456.70781124 194.12797612 464.13594362 181.20218247 464.72112232 C180.19858164 464.7207426 179.19498081 464.72036288 178.16096783 464.71997166 C176.99800865 464.72196271 175.83504947 464.72395375 174.63684911 464.72600514 C172.72683959 464.72163587 172.72683959 464.72163587 170.77824402 464.71717834 C169.40861962 464.71761447 168.0389953 464.71849014 166.66937143 464.71976751 C162.90673657 464.72200432 159.14413016 464.71800229 155.38149893 464.71298945 C151.32360753 464.70867348 147.26571776 464.71013219 143.20782471 464.71089172 C136.17756457 464.71141623 129.1473137 464.70827707 122.11705589 464.70265388 C111.95246661 464.69452898 101.78788181 464.69192265 91.62328962 464.69066589 C75.13215799 464.68847694 58.64103129 464.68182107 42.14990234 464.67236328 C26.1297203 464.66318513 10.10953961 464.65610627 -5.91064453 464.65185547 C-7.39171741 464.65146138 -7.39171741 464.65146138 -8.90271095 464.65105934 C-13.85608536 464.64975431 -18.80945977 464.6484906 -23.76283419 464.64724743 C-64.86004069 464.63687968 -105.95724174 464.6192656 -147.05444336 464.59692383 C-147.19476283 438.98826142 -147.30048772 413.37965686 -147.36531639 387.7706871 C-147.39622098 375.87930175 -147.43833678 363.98815561 -147.50708008 352.09692383 C-147.56698582 341.72945117 -147.60561718 331.36215182 -147.61897433 320.99451089 C-147.62677911 315.50761469 -147.64505155 310.02121417 -147.6888237 304.53447723 C-147.72974112 299.36336864 -147.74207379 294.19295692 -147.73308945 289.02170181 C-147.73473155 287.1303363 -147.74655198 285.23894596 -147.76967621 283.3477211 C-147.90808902 271.43697943 -147.34482565 261.57616135 -138.93335533 252.24355698 C-133.44912388 246.90269655 -126.83361259 243.27795362 -120.17944336 239.59692383 C-118.45170151 238.62118827 -116.72398375 237.64540744 -114.99761963 236.66723633 C-113.80716496 235.99288086 -112.6160375 235.31971176 -111.42425537 234.64770508 C-105.07575551 231.06271042 -98.81514536 227.33271488 -92.55444336 223.59692383 C-83.23704505 218.05259099 -73.88529429 212.57381125 -64.49194336 207.15942383 C-63.37303711 206.51424805 -62.25413086 205.86907227 -61.10131836 205.2043457 C-53.34405924 200.74173177 -53.34405924 200.74173177 -51.05444336 199.59692383 C-51.49014648 199.02586914 -51.92584961 198.45481445 -52.37475586 197.86645508 C-62.5037959 184.07605208 -67.52222935 169.63311156 -67.47436523 152.54882812 C-67.48283478 151.4104953 -67.49130432 150.27216248 -67.50003052 149.09933472 C-67.52324034 145.3731539 -67.52442644 141.64738991 -67.52319336 137.92114258 C-67.53030467 135.30621683 -67.53800508 132.69129262 -67.54626465 130.07637024 C-67.5608109 124.60865954 -67.56147812 119.14106295 -67.55541992 113.67333984 C-67.54878696 107.39179636 -67.57163372 101.11084122 -67.60873365 94.82941693 C-67.64336558 88.74037683 -67.64974892 82.65161064 -67.64564514 76.56247902 C-67.64732768 73.99310365 -67.65688574 71.4237199 -67.67478943 68.85440636 C-67.78921086 50.40545348 -67.22837086 35.42744992 -55.05444336 20.59692383 C-53.89041992 19.11579102 -53.89041992 19.11579102 -52.70288086 17.60473633 C-50.17388168 14.5949986 -47.39199104 12.31917466 -44.17944336 10.03442383 C-43.19202148 9.31125977 -42.20459961 8.5880957 -41.18725586 7.84301758 C-28.00441449 0.11155767 -14.91524952 -0.16831916 0 0 Z " fill="#F5BA00" transform="translate(187.054443359375,23.403076171875)"/>
<path d="M0 0 C3.40130085 0.03460947 6.80003744 0.02052867 10.20141602 0.0012207 C12.38567176 0.00811299 14.56992091 0.01777977 16.75415039 0.03051758 C17.75949326 0.02555771 18.76483612 0.02059784 19.80064392 0.01548767 C27.14035885 0.13758009 32.5688634 1.64455841 38.15258789 6.52661133 C41.34149613 10.39054394 43.98090206 13.97420717 45.94555664 18.59692383 C46.93555664 17.93692383 47.92555664 17.27692383 48.94555664 16.59692383 C55.03469821 15.75093647 60.72106725 16.08801124 66.09399414 19.19458008 C71.1726028 23.04103685 74.88323864 27.56168487 76.94555664 33.59692383 C77.20282555 36.21613884 77.20282555 36.21613884 77.21298218 39.07052612 C77.22577713 40.70170128 77.22577713 40.70170128 77.23883057 42.36582947 C77.23747101 44.14093651 77.23747101 44.14093651 77.23608398 45.9519043 C77.24280121 47.20625778 77.24951843 48.46061127 77.25643921 49.75297546 C77.27217594 53.18960149 77.27879427 56.62598575 77.28007078 60.06263113 C77.28149547 62.21612289 77.28577139 64.36958959 77.29106522 66.5230751 C77.30956993 74.05519456 77.31773651 81.58724333 77.31616211 89.11938477 C77.3149651 96.1067465 77.33597916 103.09379714 77.36764944 110.08108032 C77.3939555 116.10261175 77.40452324 122.12404263 77.40325129 128.14563096 C77.40274523 131.73157631 77.40822628 135.31724597 77.42960739 138.90313339 C77.61783833 172.81643967 77.61783833 172.81643967 68.94555664 187.72192383 C68.61555664 188.3277832 68.28555664 188.93364258 67.94555664 189.55786133 C65.87793296 193.27312263 63.63886199 196.23029215 60.94555664 199.59692383 C68.53555664 203.88692383 76.12555664 208.17692383 83.94555664 212.59692383 C79.79347001 219.1216314 75.69005534 225.51885302 71.19555664 231.78442383 C70.14267193 233.26432276 69.09060616 234.74480463 68.03930664 236.22583008 C67.25813477 237.32628662 67.25813477 237.32628662 66.46118164 238.44897461 C64.17664516 241.68662796 61.93352825 244.95197996 59.69555664 248.22192383 C55.14377321 254.8690393 50.55048772 261.48652399 45.94555664 268.09692383 C40.03013467 276.59095184 34.14124964 285.10221473 28.28833008 293.6394043 C25.78138589 297.29407311 23.26926018 300.94518111 20.75805664 304.59692383 C19.16993164 306.90692383 17.58180664 309.21692383 15.94555664 311.59692383 C25.51555664 311.92692383 35.08555664 312.25692383 44.94555664 312.59692383 C44.94555664 339.98692383 44.94555664 367.37692383 44.94555664 395.59692383 C35.94539809 395.59692383 35.94539809 395.59692383 32.33496094 394.94189453 C31.52177902 394.79786697 30.70859711 394.65383942 29.87077332 394.50544739 C29.012444 394.34614243 28.15411469 394.18683746 27.26977539 394.02270508 C26.34630814 393.85699509 25.42284088 393.6912851 24.47138977 393.52055359 C21.52406233 392.98999968 18.57858872 392.44984617 15.63305664 391.90942383 C13.73017436 391.56570142 11.82718013 391.22259818 9.92407227 390.88012695 C-5.0777647 388.16772994 -20.06422034 385.37289105 -35.05444336 382.59692383 C-35.05444336 359.49692383 -35.05444336 336.39692383 -35.05444336 312.59692383 C-20.69944336 312.10192383 -20.69944336 312.10192383 -6.05444336 311.59692383 C-12.35571882 302.40756377 -18.68618296 293.23999087 -25.05444336 284.09692383 C-30.00338435 276.99147719 -34.93572342 269.87560705 -39.83178711 262.73364258 C-43.87948535 256.83625433 -47.96652854 250.96648144 -52.05444336 245.09692383 C-56.83556784 238.22902891 -61.61586903 231.36065574 -66.36694336 224.47192383 C-66.80458008 223.83963867 -67.2422168 223.20735352 -67.69311523 222.5559082 C-69.94114056 219.28963856 -72.01047076 216.00354482 -74.05444336 212.59692383 C-66.46444336 208.30692383 -58.87444336 204.01692383 -51.05444336 199.59692383 C-53.36444336 196.29692383 -55.67444336 192.99692383 -58.05444336 189.59692383 C-59.94506836 186.19848633 -59.94506836 186.19848633 -61.30444336 183.22192383 C-61.76334961 182.24481445 -62.22225586 181.26770508 -62.69506836 180.26098633 C-66.11139888 171.05260119 -67.50179502 162.33942315 -67.47436523 152.54882812 C-67.48283478 151.4104953 -67.49130432 150.27216248 -67.50003052 149.09933472 C-67.52324034 145.3731539 -67.52442644 141.64738991 -67.52319336 137.92114258 C-67.53030467 135.30621683 -67.53800508 132.69129262 -67.54626465 130.07637024 C-67.5608109 124.60865954 -67.56147812 119.14106295 -67.55541992 113.67333984 C-67.54878696 107.39179636 -67.57163372 101.11084122 -67.60873365 94.82941693 C-67.64336558 88.74037683 -67.64974892 82.65161064 -67.64564514 76.56247902 C-67.64732768 73.99310365 -67.65688574 71.4237199 -67.67478943 68.85440636 C-67.78921086 50.40545348 -67.22837086 35.42744992 -55.05444336 20.59692383 C-53.89041992 19.11579102 -53.89041992 19.11579102 -52.70288086 17.60473633 C-50.17388168 14.5949986 -47.39199104 12.31917466 -44.17944336 10.03442383 C-43.19202148 9.31125977 -42.20459961 8.5880957 -41.18725586 7.84301758 C-28.00441449 0.11155767 -14.91524952 -0.16831916 0 0 Z " fill="#F4C89C" transform="translate(187.054443359375,23.403076171875)"/>
<path d="M0 0 C5.28 0 10.56 0 16 0 C16 10.56 16 21.12 16 32 C21.28 32 26.56 32 32 32 C32 21.44 32 10.88 32 0 C37.28 0 42.56 0 48 0 C48 10.56 48 21.12 48 32 C53.28 32 58.56 32 64 32 C64 21.44 64 10.88 64 0 C69.28 0 74.56 0 80 0 C80 10.56 80 21.12 80 32 C87.92 32 95.84 32 104 32 C104 42.56 104 53.12 104 64 C114.56 64 125.12 64 136 64 C136 69.28 136 74.56 136 80 C125.44 80 114.88 80 104 80 C104 85.28 104 90.56 104 96 C114.56 96 125.12 96 136 96 C136 101.28 136 106.56 136 112 C125.44 112 114.88 112 104 112 C104 117.28 104 122.56 104 128 C114.56 128 125.12 128 136 128 C136 133.28 136 138.56 136 144 C125.44 144 114.88 144 104 144 C104 149.28 104 154.56 104 160 C114.56 160 125.12 160 136 160 C136 165.28 136 170.56 136 176 C125.44 176 114.88 176 104 176 C104 191.84 104 207.68 104 224 C85.52 224 67.04 224 48 224 C48.66 222.68 49.32 221.36 50 220 C50.61687561 215.33771909 51.09410501 210.28410768 49.01953125 205.953125 C46.28876742 202.5585755 43.21342181 200.44014506 38.95703125 199.59375 C28.0840602 199.11842886 20.09606264 208.23493413 12.39453125 214.96484375 C3.91653619 222.15781923 -2.94516998 224.65229726 -14.0625 224.25 C-15.02349609 224.23195313 -15.98449219 224.21390625 -16.97460938 224.1953125 C-19.31749227 224.14868796 -21.6581829 224.08328169 -24 224 C-23.84853516 223.23445801 -23.69707031 222.46891602 -23.54101562 221.68017578 C-22.8509724 218.16360936 -22.17540468 214.64440603 -21.5 211.125 C-21.26152344 209.92101562 -21.02304687 208.71703125 -20.77734375 207.4765625 C-18.01498778 195.2736852 -18.01498778 195.2736852 -20.9375 183.6875 C-21.9584375 182.3571875 -21.9584375 182.3571875 -23 181 C-23.495 178.525 -23.495 178.525 -24 176 C-34.56 176 -45.12 176 -56 176 C-56 170.72 -56 165.44 -56 160 C-45.44 160 -34.88 160 -24 160 C-24 154.72 -24 149.44 -24 144 C-34.56 144 -45.12 144 -56 144 C-56 138.72 -56 133.44 -56 128 C-45.44 128 -34.88 128 -24 128 C-24 122.72 -24 117.44 -24 112 C-34.56 112 -45.12 112 -56 112 C-56 106.72 -56 101.44 -56 96 C-45.44 96 -34.88 96 -24 96 C-24 90.72 -24 85.44 -24 80 C-34.56 80 -45.12 80 -56 80 C-56 74.72 -56 69.44 -56 64 C-45.44 64 -34.88 64 -24 64 C-24 53.44 -24 42.88 -24 32 C-16.08 32 -8.16 32 0 32 C0 21.44 0 10.88 0 0 Z " fill="#7E57DE" transform="translate(344,216)"/>
<path d="M0 0 C4.02436081 1.23583889 7.50976065 2.69795771 11.1328125 4.8359375 C12.09509766 5.39917725 13.05738281 5.96241699 14.04882812 6.54272461 C16.13519067 7.785435 18.21977198 9.03113985 20.30273438 10.27954102 C25.47566593 13.37291974 30.63164296 16.36872421 36.0234375 19.06640625 C36.94882324 19.55254395 37.87420898 20.03868164 38.82763672 20.53955078 C40.5635665 21.44763903 42.32309842 22.31242079 44.10595703 23.12451172 C46.46875 24.40234375 46.46875 24.40234375 50 28 C50 32.95 50 37.9 50 43 C39.44 43 28.88 43 18 43 C18 48.28 18 53.56 18 59 C28.56 59 39.12 59 50 59 C50 64.28 50 69.56 50 75 C39.44 75 28.88 75 18 75 C18 80.28 18 85.56 18 91 C28.56 91 39.12 91 50 91 C50 96.28 50 101.56 50 107 C39.44 107 28.88 107 18 107 C18 112.28 18 117.56 18 123 C28.56 123 39.12 123 50 123 C50 128.28 50 133.56 50 139 C39.44 139 28.88 139 18 139 C18 144.28 18 149.56 18 155 C28.56 155 39.12 155 50 155 C50.99 157.475 50.99 157.475 52 160 C53.051875 161.3303125 53.051875 161.3303125 54.125 162.6875 C58.58877239 170.57349789 55.34872163 180.60525042 53.5625 189 C53.33240234 190.13050781 53.10230469 191.26101563 52.86523438 192.42578125 C51.16003667 200.67992666 51.16003667 200.67992666 50 203 C55.24972463 202.96305052 60.48609336 202.82213109 65.7265625 202.5 C66.60908691 202.44585937 67.49161133 202.39171875 68.40087891 202.3359375 C77.97635425 201.09830326 84.69821542 194.22850458 91.76269531 188.1652832 C104.70747599 177.07083758 104.70747599 177.07083758 112.89453125 177.578125 C116.29880138 178.26024221 118.39466849 179.75820312 121 182 C121.78375 182.66 122.5675 183.32 123.375 184 C125.93424929 188.72476793 125.64509416 193.73423139 125 199 C124.34 199.99 123.68 200.98 123 202 C135.87 202.33 148.74 202.66 162 203 C155.24187472 210.88447949 155.24187472 210.88447949 152.72363281 213.45336914 C151.87179413 214.32446068 151.87179413 214.32446068 151.00274658 215.21315002 C150.40887146 215.81441208 149.81499634 216.41567413 149.203125 217.03515625 C148.56945007 217.67690292 147.93577515 218.3186496 147.28289795 218.97984314 C145.9498341 220.32664158 144.61527902 221.67196551 143.27929688 223.01586914 C141.92908002 224.37761937 140.58334439 225.74382787 139.2421875 227.11450195 C128.04631961 238.55596548 115.5536646 250.25731191 98.58876324 251.12304783 C97.32360237 251.12166514 97.32360237 251.12166514 96.03288269 251.12025452 C94.57113113 251.12231651 94.57113113 251.12231651 93.07984924 251.12442017 C91.49381142 251.11902725 91.49381142 251.11902725 89.87573242 251.11352539 C88.75334167 251.11367142 87.63095093 251.11381744 86.47454834 251.1139679 C82.76816875 251.11327176 79.06183955 251.10549328 75.35546875 251.09765625 C72.78428678 251.09579101 70.21310445 251.09436761 67.641922 251.09336853 C61.56824059 251.08994173 55.49457995 251.08206183 49.42090636 251.07201904 C42.50435862 251.06083146 35.58781001 251.05534079 28.67125547 251.05032361 C14.44749396 251.0398785 0.22374762 251.02229555 -14 251 C-14.22858626 243.15348443 -14.38596527 235.30782958 -14.49438477 227.45874023 C-14.53451205 224.7888575 -14.60091755 222.1233298 -14.67895508 219.45385742 C-14.78840167 215.61321205 -14.83922893 211.77551627 -14.87890625 207.93359375 C-14.92535782 206.74479111 -14.97180939 205.55598846 -15.01966858 204.3311615 C-15.02461898 196.17030256 -15.02461898 196.17030256 -11.93649292 192.64309692 C-9.69646133 190.88855779 -7.4850445 189.38054114 -5 188 C-5.95777344 187.89042969 -6.91554688 187.78085937 -7.90234375 187.66796875 C-9.24742574 187.5080639 -10.59247607 187.34789252 -11.9375 187.1875 C-13.86916016 186.96126953 -13.86916016 186.96126953 -15.83984375 186.73046875 C-23.25655323 185.68056362 -30.62332822 184.30176561 -38 183 C-38 155.28 -38 127.56 -38 99 C-47.9 99 -57.8 99 -68 99 C-63.50270011 91.12972519 -63.50270011 91.12972519 -60.93359375 87.50390625 C-60.37172363 86.70686279 -59.80985352 85.90981934 -59.23095703 85.08862305 C-58.63911621 84.25500244 -58.04727539 83.42138184 -57.4375 82.5625 C-56.17263226 80.7686132 -54.908315 78.97433813 -53.64453125 77.1796875 C-53.02271973 76.29764648 -52.4009082 75.41560547 -51.76025391 74.50683594 C-49.35682538 71.08403371 -46.98693811 67.63900788 -44.625 64.1875 C-40.11432097 57.60331583 -35.56168415 51.04893668 -31 44.5 C-24.12189694 34.62354306 -17.28638059 24.71903621 -10.48583984 14.7890625 C-9.44970917 13.27633108 -8.41317664 11.76387482 -7.3762207 10.25170898 C-6.39594262 8.82218327 -5.41657213 7.39203464 -4.43823242 5.96118164 C-1.11269642 1.11269642 -1.11269642 1.11269642 0 0 Z " fill="#F5BA00" transform="translate(270,237)"/>
<path d="M0 0 C3.73339564 1.31766905 5.68314341 2.65812841 8.375 5.5625 C12.2812553 13.82573236 9.38451588 23.43702729 7.5625 32 C7.33240234 33.13050781 7.10230469 34.26101563 6.86523438 35.42578125 C5.16003667 43.67992666 5.16003667 43.67992666 4 46 C9.24972463 45.96305052 14.48609336 45.82213109 19.7265625 45.5 C20.60908691 45.44585937 21.49161133 45.39171875 22.40087891 45.3359375 C31.97635425 44.09830326 38.69821542 37.22850458 45.76269531 31.1652832 C58.70747599 20.07083758 58.70747599 20.07083758 66.89453125 20.578125 C70.29880138 21.26024221 72.39466849 22.75820312 75 25 C76.175625 25.99 76.175625 25.99 77.375 27 C79.93424929 31.72476793 79.64509416 36.73423139 79 42 C78.34 42.99 77.68 43.98 77 45 C96.305 45.495 96.305 45.495 116 46 C109.24187472 53.88447949 109.24187472 53.88447949 106.72363281 56.45336914 C106.15574036 57.03409683 105.5878479 57.61482452 105.00274658 58.21315002 C104.40887146 58.81441208 103.81499634 59.41567413 103.203125 60.03515625 C102.25261261 60.99777626 102.25261261 60.99777626 101.28289795 61.97984314 C99.9498341 63.32664158 98.61527902 64.67196551 97.27929688 66.01586914 C95.92908002 67.37761937 94.58334439 68.74382787 93.2421875 70.11450195 C82.04631961 81.55596548 69.5536646 93.25731191 52.58876324 94.12304783 C51.74532266 94.12212604 50.90188208 94.12120424 50.03288269 94.12025452 C49.05838165 94.12162918 48.08388062 94.12300385 47.07984924 94.12442017 C46.02249069 94.12082489 44.96513214 94.11722961 43.87573242 94.11352539 C42.75334167 94.11367142 41.63095093 94.11381744 40.47454834 94.1139679 C36.76816875 94.11327176 33.06183955 94.10549328 29.35546875 94.09765625 C26.78428678 94.09579101 24.21310445 94.09436761 21.641922 94.09336853 C15.56824059 94.08994173 9.49457995 94.08206183 3.42090636 94.07201904 C-3.49564138 94.06083146 -10.41218999 94.05534079 -17.32874453 94.05032361 C-31.55250604 94.0398785 -45.77625238 94.02229555 -60 94 C-60.33105662 86.20905325 -60.5578372 78.41993126 -60.71411133 70.62353516 C-60.7792802 67.97505946 -60.86784652 65.32704784 -60.98071289 62.68017578 C-61.94708491 39.42602927 -61.94708491 39.42602927 -57.20146179 34.09004211 C-54.1146592 31.42453104 -50.7014992 29.69994171 -47 28 C-45.52381065 26.98642712 -44.06425908 25.94672393 -42.64453125 24.85546875 C-41.36906569 23.96345422 -40.09172752 23.07411111 -38.8125 22.1875 C-31.81032277 17.29358348 -24.87405145 12.31556443 -17.97583008 7.27612305 C-6.95907375 -0.73253408 -6.95907375 -0.73253408 0 0 Z " fill="#F4C89C" transform="translate(316,394)"/>
<path d="M0 0 C2.47435617 1.00665749 3.19453064 2.02641523 4.65039062 4.25024414 C5.38733154 5.35372192 5.38733154 5.35372192 6.13916016 6.47949219 C6.66364746 7.28813721 7.18813477 8.09678223 7.72851562 8.92993164 C8.88613807 10.66903341 10.04505043 12.40727707 11.20507812 14.14477539 C11.81641602 15.06629395 12.42775391 15.9878125 13.05761719 16.93725586 C16.33886933 21.83577997 19.72506156 26.66068059 23.10351562 31.49243164 C28.00907558 38.52928509 32.89632972 45.57766016 37.74536133 52.65356445 C42.56616586 59.67906559 47.44338096 66.66538547 52.32226562 73.65063477 C52.96808594 74.57682617 53.61390625 75.50301758 54.27929688 76.45727539 C54.90271973 77.35043457 55.52614258 78.24359375 56.16845703 79.16381836 C58.43433015 82.47002491 60.60144342 85.83594115 62.7409668 89.22509766 C63.14935791 89.74644287 63.55774902 90.26778809 63.97851562 90.80493164 C64.63851562 90.80493164 65.29851562 90.80493164 65.97851562 90.80493164 C67.23273088 89.37550709 67.23273088 89.37550709 68.45507812 87.45727539 C68.95281738 86.71840088 69.45055664 85.97952637 69.96337891 85.21826172 C70.50462402 84.40123779 71.04586914 83.58421387 71.60351562 82.74243164 C72.77957567 80.99434693 73.95670688 79.24698252 75.13476562 77.50024414 C76.070625 76.10854004 76.070625 76.10854004 77.02539062 74.6887207 C80.33733099 69.79864076 83.72235727 64.95978804 87.10351562 60.11743164 C91.58134556 53.69315523 96.05095625 47.26396936 100.47851562 40.80493164 C109.89070326 27.07776841 119.42712775 13.4354809 128.97851562 -0.19506836 C132.62166638 0.62702839 135.4606701 2.03899426 138.72851562 3.86743164 C139.71335937 4.4152832 140.69820312 4.96313477 141.71289062 5.52758789 C142.834375 6.15987305 142.834375 6.15987305 143.97851562 6.80493164 C139.47704338 14.14359942 134.64163123 21.19022038 129.65625 28.20458984 C126.30622259 32.91930936 122.99510803 37.65704991 119.72851562 42.42993164 C115.17673219 49.07704711 110.58344671 55.6945318 105.97851562 62.30493164 C100.06309365 70.79895965 94.17420862 79.31022255 88.32128906 87.84741211 C85.81434488 91.50208092 83.30221916 95.15318892 80.79101562 98.80493164 C79.20289063 101.11493164 77.61476563 103.42493164 75.97851562 105.80493164 C85.54851562 106.13493164 95.11851562 106.46493164 104.97851562 106.80493164 C104.97851562 134.19493164 104.97851562 161.58493164 104.97851562 189.80493164 C95.97835708 189.80493164 95.97835708 189.80493164 92.36791992 189.14990234 C91.14814705 188.93386101 91.14814705 188.93386101 89.9037323 188.7134552 C89.04540298 188.55415024 88.18707367 188.39484528 87.30273438 188.23071289 C86.37926712 188.0650029 85.45579987 187.89929291 84.50434875 187.7285614 C81.55702131 187.1980075 78.61154771 186.65785398 75.66601562 186.11743164 C73.76313334 185.77370923 71.86013911 185.43060599 69.95703125 185.08813477 C54.95519429 182.37573775 39.96873865 179.58089887 24.97851562 176.80493164 C24.97851562 153.70493164 24.97851562 130.60493164 24.97851562 106.80493164 C34.54851562 106.47493164 44.11851562 106.14493164 53.97851562 105.80493164 C47.67724016 96.61557159 41.34677603 87.44799869 34.97851562 78.30493164 C30.02957464 71.199485 25.09723557 64.08361486 20.20117188 56.94165039 C16.15347363 51.04426215 12.06643044 45.17448925 7.97851562 39.30493164 C3.19739114 32.43703672 -1.58291005 25.56866355 -6.33398438 18.67993164 C-6.77162109 18.04764648 -7.20925781 17.41536133 -7.66015625 16.76391602 C-9.90075903 13.50843095 -12.03085574 10.2192785 -14.02148438 6.80493164 C-12.11421687 5.60239348 -10.19528318 4.41834215 -8.27148438 3.24243164 C-7.20414062 2.58114258 -6.13679688 1.91985352 -5.03710938 1.23852539 C-2.02148438 -0.19506836 -2.02148438 -0.19506836 0 0 Z " fill="#548AFE" transform="translate(127.021484375,229.195068359375)"/>
<path d="M0 0 C13.2 0 26.4 0 40 0 C40 42.24 40 84.48 40 128 C18.88 128 -2.24 128 -24 128 C-24 93.68 -24 59.36 -24 24 C-21.36 23.34 -18.72 22.68 -16 22 C-9.40899442 19.57881428 -4.84627267 14.52470238 -1.625 8.375 C-0.90128954 5.62490023 -0.46750648 2.8050389 0 0 Z " fill="#633DCC" transform="translate(376,280)"/>
<path d="M0 0 C3.40130085 0.03460947 6.80003744 0.02052867 10.20141602 0.0012207 C12.38567176 0.00811299 14.56992091 0.01777977 16.75415039 0.03051758 C17.75949326 0.02555771 18.76483612 0.02059784 19.80064392 0.01548767 C27.14035885 0.13758009 32.5688634 1.64455841 38.15258789 6.52661133 C41.34149613 10.39054394 43.98090206 13.97420717 45.94555664 18.59692383 C46.93555664 17.93692383 47.92555664 17.27692383 48.94555664 16.59692383 C55.03469821 15.75093647 60.72106725 16.08801124 66.09399414 19.19458008 C71.10998544 22.99361147 75.04069158 27.56552375 76.94555664 33.59692383 C77.21119182 36.53340297 77.17863221 39.45131986 77.14086914 42.39770508 C77.13803925 43.23408005 77.13520935 44.07045502 77.1322937 44.93217468 C77.12113985 47.59140609 77.09604427 50.250295 77.07055664 52.90942383 C77.06052064 54.71736166 77.05139587 56.52530479 77.04321289 58.33325195 C77.02121623 62.75460695 76.98671958 67.17570741 76.94555664 71.59692383 C75.8428267 70.66318979 74.74175394 69.72749845 73.64135742 68.79101562 C73.02801544 68.27016891 72.41467346 67.7493222 71.78274536 67.21269226 C68.4398384 64.27267664 65.38850336 61.04422099 62.30883789 57.83325195 C56.96601995 52.37185972 52.32360057 49.54509439 44.69555664 49.28442383 C43.98915039 49.24704102 43.28274414 49.2096582 42.55493164 49.17114258 C34.38283895 50.50461279 29.30725175 55.81434064 23.88305664 61.65942383 C18.03986332 67.95339388 13.85330193 72.0516188 5.00805664 73.03442383 C-3.54825309 72.63945426 -9.19109039 66.96257473 -14.74194336 61.03442383 C-20.96150798 54.4752672 -25.87910867 49.6065126 -35.30444336 49.28442383 C-36.01084961 49.24704102 -36.71725586 49.2096582 -37.44506836 49.17114258 C-46.24939127 50.60777611 -51.60809464 56.67876137 -57.49194336 62.84692383 C-59.09288215 64.49983292 -60.69564129 66.15098156 -62.30053711 67.80004883 C-62.99848389 68.52869141 -63.69643066 69.25733398 -64.41552734 70.00805664 C-66.05444336 71.59692383 -66.05444336 71.59692383 -67.05444336 71.59692383 C-67.77055772 52.20454684 -67.93177448 36.28435052 -55.05444336 20.59692383 C-54.27842773 19.60950195 -53.50241211 18.62208008 -52.70288086 17.60473633 C-50.17388168 14.5949986 -47.39199104 12.31917466 -44.17944336 10.03442383 C-43.19202148 9.31125977 -42.20459961 8.5880957 -41.18725586 7.84301758 C-28.00441449 0.11155767 -14.91524952 -0.16831916 0 0 Z " fill="#B1782C" transform="translate(187.054443359375,23.403076171875)"/>
<path d="M0 0 C1.78125 1.46875 1.78125 1.46875 3.5 3.5 C14.19132999 14.89869587 30.8943407 22.51139355 46.5 23.2890625 C66.36896524 23.84058681 84.58362262 19.06253452 100 6 C101.10075028 4.82862637 102.18696536 3.64320507 103.25 2.4375 C106 0 106 0 109.5625 -0.125 C113.1687184 1.05521693 115.13334933 2.57927277 118 5 C117.26136719 6.0415625 116.52273437 7.083125 115.76171875 8.15625 C110.26406353 15.91990483 104.80373291 23.70578609 99.4284668 31.5546875 C95.31450102 37.55661389 91.1593142 43.5294343 87 49.5 C82.43820434 56.04886488 77.88613924 62.6036293 73.375 69.1875 C66.98802788 78.50803042 60.4918849 87.75238203 54 97 C50.64309054 95.88103018 50.29734887 95.37845619 48.42578125 92.5546875 C47.93126465 91.81903564 47.43674805 91.08338379 46.92724609 90.32543945 C46.39437988 89.51679443 45.86151367 88.70814941 45.3125 87.875 C44.14560568 86.13599731 42.97758634 84.39774913 41.80859375 82.66015625 C41.19097168 81.7386377 40.57334961 80.81711914 39.93701172 79.86767578 C36.63529791 74.97960791 33.25264489 70.14826267 29.875 65.3125 C24.96890656 58.27405167 20.07879066 51.22566778 15.23095703 44.14697266 C12.51164496 40.18211221 9.77006206 36.23352394 7.015625 32.29296875 C6.31115234 31.28427734 5.60667969 30.27558594 4.88085938 29.23632812 C3.50391774 27.26620357 2.12513856 25.29736146 0.74414062 23.33007812 C-3.68243014 16.99435448 -7.90210077 10.55298277 -12 4 C-4.60738471 -0.63850371 -4.60738471 -0.63850371 0 0 Z " fill="#F5BA01" transform="translate(139,224)"/>
<path d="M0 0 C2.47435617 1.00665749 3.19453064 2.02641523 4.65039062 4.25024414 C5.38733154 5.35372192 5.38733154 5.35372192 6.13916016 6.47949219 C6.66364746 7.28813721 7.18813477 8.09678223 7.72851562 8.92993164 C8.88613807 10.66903341 10.04505043 12.40727707 11.20507812 14.14477539 C11.81641602 15.06629395 12.42775391 15.9878125 13.05761719 16.93725586 C16.33886933 21.83577997 19.72506156 26.66068059 23.10351562 31.49243164 C28.00907558 38.52928509 32.89632972 45.57766016 37.74536133 52.65356445 C42.56616586 59.67906559 47.44338096 66.66538547 52.32226562 73.65063477 C52.96808594 74.57682617 53.61390625 75.50301758 54.27929688 76.45727539 C54.90271973 77.35043457 55.52614258 78.24359375 56.16845703 79.16381836 C58.43433015 82.47002491 60.60144342 85.83594115 62.7409668 89.22509766 C63.14935791 89.74644287 63.55774902 90.26778809 63.97851562 90.80493164 C64.63851562 90.80493164 65.29851562 90.80493164 65.97851562 90.80493164 C67.23273088 89.37550709 67.23273088 89.37550709 68.45507812 87.45727539 C68.95281738 86.71840088 69.45055664 85.97952637 69.96337891 85.21826172 C70.50462402 84.40123779 71.04586914 83.58421387 71.60351562 82.74243164 C72.77957567 80.99434693 73.95670688 79.24698252 75.13476562 77.50024414 C76.070625 76.10854004 76.070625 76.10854004 77.02539062 74.6887207 C80.33733099 69.79864076 83.72235727 64.95978804 87.10351562 60.11743164 C91.58134556 53.69315523 96.05095625 47.26396936 100.47851562 40.80493164 C109.89070326 27.07776841 119.42712775 13.4354809 128.97851562 -0.19506836 C132.62166638 0.62702839 135.4606701 2.03899426 138.72851562 3.86743164 C139.71335937 4.4152832 140.69820312 4.96313477 141.71289062 5.52758789 C142.834375 6.15987305 142.834375 6.15987305 143.97851562 6.80493164 C139.47704338 14.14359942 134.64163123 21.19022038 129.65625 28.20458984 C126.30622259 32.91930936 122.99510803 37.65704991 119.72851562 42.42993164 C115.17673202 49.07704737 110.58341422 55.69450898 105.97851562 62.30493164 C100.46093416 70.22648797 100.46093416 70.22648797 94.96679688 78.16430664 C94.5161084 78.8172168 94.06541992 79.47012695 93.60107422 80.14282227 C92.73101594 81.4127247 91.86797892 82.68746762 91.01220703 83.96704102 C88.63466223 87.50495751 86.14836757 90.86185473 83.45117188 94.16430664 C74.66486626 105.29307471 72.560231 113.57839857 73.03320312 127.73461914 C73.140139 131.92620407 72.8485916 134.52288304 69.97851562 137.80493164 C67.16936089 139.20950901 65.09041028 139.05388321 61.97851562 138.80493164 C58.84259992 137.02508759 58.13748827 136.28184957 56.97851562 132.80493164 C56.97922367 131.17925585 57.03303331 129.55332555 57.11914062 127.92993164 C57.53360738 112.5870568 54.52007797 104.10403382 44.94775391 92.30200195 C41.35028817 87.74027625 38.13595625 82.90792554 34.85351562 78.11743164 C33.48789541 76.15410098 32.12074124 74.19183628 30.75195312 72.23071289 C27.64402682 67.76683965 24.55380171 63.29133471 21.47851562 58.80493164 C17.008311 52.28410392 12.49684472 45.7924917 7.97851562 39.30493164 C3.19739114 32.43703672 -1.58291005 25.56866355 -6.33398438 18.67993164 C-6.77162109 18.04764648 -7.20925781 17.41536133 -7.66015625 16.76391602 C-9.90075903 13.50843095 -12.03085574 10.2192785 -14.02148438 6.80493164 C-12.11421687 5.60239348 -10.19528318 4.41834215 -8.27148438 3.24243164 C-7.20414062 2.58114258 -6.13679688 1.91985352 -5.03710938 1.23852539 C-2.02148438 -0.19506836 -2.02148438 -0.19506836 0 0 Z " fill="#506475" transform="translate(127.021484375,229.195068359375)"/>
<path d="M0 0 C5.28 0 10.56 0 16 0 C16.03738281 1.7840625 16.07476562 3.568125 16.11328125 5.40625 C16.17896468 7.77085352 16.24541119 10.13543593 16.3125 12.5 C16.33505859 13.67304688 16.35761719 14.84609375 16.38085938 16.0546875 C16.6477221 24.69133557 17.39115199 32.73006727 24 39 C30.78378676 43.1369013 37.397823 45.04611754 45.18359375 46.28125 C46.22879684 46.46049515 47.27399994 46.6397403 48.35087585 46.82441711 C51.71080365 47.39754069 55.0739066 47.94884104 58.4375 48.5 C60.75988931 48.89243295 63.08199227 49.28656414 65.40380859 49.68237305 C69.93053729 50.45330874 74.45825525 51.21793576 78.98681641 51.97802734 C86.04983578 53.17006738 93.08901694 54.46993726 100.125 55.8125 C109.76965998 57.63474874 119.4393093 59.24459898 129.13916016 60.74536133 C130.11288574 60.89642334 131.08661133 61.04748535 132.08984375 61.203125 C132.94441162 61.33364258 133.79897949 61.46416016 134.67944336 61.59863281 C137 62 137 62 139.10473633 62.5300293 C141.95997 63.23804486 144.8195986 63.3573719 147.75 63.5625 C148.92046875 63.64628906 150.0909375 63.73007812 151.296875 63.81640625 C152.63492188 63.90728516 152.63492188 63.90728516 154 64 C149.3125 68.81770833 149.3125 68.81770833 146.75 70.3125 C144.62340347 72.36314665 144.67867341 73.2336261 144.390625 76.10546875 C144.26171875 77.39066406 144.1328125 78.67585938 144 80 C133.38660951 78.9258351 123.01637743 77.10074985 112.55639648 75.03076172 C103.95691652 73.34242232 95.33615947 71.85090173 86.6875 70.4375 C77.15048785 68.87663309 67.64222606 67.2333292 58.1574707 65.38085938 C53.46873591 64.46525509 48.77654521 63.60551803 44.06591797 62.81005859 C29.2338056 60.28790532 17.51854569 57.3536086 7.53515625 45.24609375 C2.28572497 37.56562813 -0.14144562 29.84502654 -0.09765625 20.60546875 C-0.09443359 19.40341797 -0.09121094 18.20136719 -0.08789062 16.96289062 C-0.07951172 15.71701172 -0.07113281 14.47113281 -0.0625 13.1875 C-0.05798828 11.92228516 -0.05347656 10.65707031 -0.04882812 9.35351562 C-0.03706262 6.2356568 -0.01912774 3.11782235 0 0 Z " fill="#ECA600" transform="translate(112,360)"/>
<path d="M0 0 C0.33 0 0.66 0 1 0 C1.21914063 1.11375 1.43828125 2.2275 1.6640625 3.375 C8.03321988 34.54636504 22.55452815 57.85149503 48.88671875 75.98828125 C63.32045424 85.06724179 79.25290308 89.03085647 96 91 C96 91.33 96 91.66 96 92 C64.32 92 32.64 92 0 92 C0 61.64 0 31.28 0 0 Z " fill="#EDA600" transform="translate(40,396)"/>
<path d="M0 0 C13.53 0 27.06 0 41 0 C34.24187472 7.88447949 34.24187472 7.88447949 31.72363281 10.45336914 C31.15574036 11.03409683 30.5878479 11.61482452 30.00274658 12.21315002 C29.1119339 13.11504311 29.1119339 13.11504311 28.203125 14.03515625 C27.56945007 14.67690292 26.93577515 15.3186496 26.28289795 15.97984314 C24.9498341 17.32664158 23.61527902 18.67196551 22.27929688 20.01586914 C20.92908002 21.37761937 19.58334439 22.74382787 18.2421875 24.11450195 C6.43516911 36.18052234 -6.52107937 47.90739509 -24.4230957 48.11352539 C-26.17399887 48.11336805 -27.92490733 48.10777702 -29.67578125 48.09765625 C-30.6009404 48.0962413 -31.52609955 48.09482635 -32.47929382 48.09336853 C-35.42372927 48.08778715 -38.36808767 48.07523805 -41.3125 48.0625 C-43.31314994 48.05748259 -45.31380108 48.05292011 -47.31445312 48.04882812 C-52.20966494 48.03782381 -57.10481942 48.02057198 -62 48 C-58.85877123 46.37695521 -55.83285095 45.31166453 -52.4375 44.3125 C-35.24955712 38.59012192 -23.25440944 24.32137944 -10.75 11.875 C-10.27403381 11.40189392 -9.79806763 10.92878784 -9.30767822 10.44134521 C-7.94689021 9.08631902 -6.59054186 7.72683873 -5.234375 6.3671875 C-4.44256836 5.57425293 -3.65076172 4.78131836 -2.83496094 3.96435547 C-0.9459569 2.12837517 -0.9459569 2.12837517 0 0 Z " fill="#DEAE7E" transform="translate(391,440)"/>
<path d="M0 0 C6.63952164 1.84431157 11.15852567 6.42467103 15 12 C17.37725546 16.58870596 17.25988724 20.76247103 17.1953125 25.80078125 C17.1924826 26.63715622 17.18965271 27.47353119 17.18673706 28.33525085 C17.1755832 30.99448226 17.15048763 33.65337118 17.125 36.3125 C17.11496399 38.12043783 17.10583923 39.92838096 17.09765625 41.73632812 C17.07565959 46.15768312 17.04116294 50.57878358 17 55 C15.89727006 54.06626596 14.7961973 53.13057462 13.69580078 52.1940918 C13.0824588 51.67324509 12.46911682 51.15239838 11.83718872 50.61576843 C8.49428176 47.67575281 5.44294672 44.44729716 2.36328125 41.23632812 C-3.07305523 35.67934188 -7.56012829 33.63929377 -15 32 C-15.11605098 27.41687916 -15.18720362 22.83413551 -15.25 18.25 C-15.28351563 16.94804688 -15.31703125 15.64609375 -15.3515625 14.3046875 C-15.36445313 13.05429687 -15.37734375 11.80390625 -15.390625 10.515625 C-15.41157227 9.36352539 -15.43251953 8.21142578 -15.45410156 7.02441406 C-14.17596428 -1.48825508 -6.90817174 -0.92108957 0 0 Z " fill="#956625" transform="translate(247,40)"/>
<path d="M0 0 C5.28 0 10.56 0 16 0 C16.10864696 3.50084645 16.18762825 6.99827172 16.25 10.5 C16.30027344 11.97339844 16.30027344 11.97339844 16.3515625 13.4765625 C16.4562991 21.33180762 15.02413833 26.47836017 9.88671875 32.4609375 C1.43580036 39.81608849 -5.00526287 40.24707274 -16 40 C-16 34.72 -16 29.44 -16 24 C-11.01953125 23.4140625 -11.01953125 23.4140625 -6.0390625 22.828125 C-2.94501903 22.34621957 -2.94501903 22.34621957 -1.8359375 20.21875 C-0.96800382 17.91507556 -0.69101398 16.12365946 -0.5859375 13.671875 C-0.52792969 12.47304687 -0.52792969 12.47304687 -0.46875 11.25 C-0.4378125 10.425 -0.406875 9.6 -0.375 8.75 C-0.31699219 7.48929688 -0.31699219 7.48929688 -0.2578125 6.203125 C-0.16384164 4.13576618 -0.08084436 2.06791373 0 0 Z " fill="#C79369" transform="translate(192,168)"/>
<path d="M0 0 C5.28 0 10.56 0 16 0 C16 15.84 16 31.68 16 48 C10.72 48 5.44 48 0 48 C0 32.16 0 16.32 0 0 Z " fill="#522FBD" transform="translate(376,328)"/>
<path d="M0 0 C3.92570732 3.05332791 5.34268492 5.15252278 6 10 C6.10316822 14.00467075 5.90759947 17.99792856 5.75 22 C5.72292969 23.08023437 5.69585937 24.16046875 5.66796875 25.2734375 C5.62800781 26.31757813 5.58804688 27.36171875 5.546875 28.4375 C5.51432617 29.38496094 5.48177734 30.33242188 5.44824219 31.30859375 C4.92245734 34.46559386 3.85846013 36.41253065 2 39 C-0.80915474 40.40457737 -2.88810534 40.24895157 -6 40 C-9.1359157 38.22015595 -9.84102736 37.47691793 -11 34 C-11.40812924 29.92658653 -11.55972152 25.83866682 -11.75 21.75 C-11.81832031 20.62980469 -11.88664063 19.50960938 -11.95703125 18.35546875 C-12.24636973 12.07163044 -12.28767852 7.45935607 -9 2 C-5.48175489 -0.34549674 -4.14224306 -0.57991403 0 0 Z " fill="#5B7387" transform="translate(195,328)"/>
<path d="M0 0 C10.56 0 21.12 0 32 0 C32 5.28 32 10.56 32 16 C21.44 16 10.88 16 0 16 C0 10.72 0 5.44 0 0 Z " fill="#A88AF2" transform="translate(448,376)"/>
<path d="M0 0 C10.56 0 21.12 0 32 0 C32 5.28 32 10.56 32 16 C21.44 16 10.88 16 0 16 C0 10.72 0 5.44 0 0 Z " fill="#A88AF2" transform="translate(288,376)"/>
<path d="M0 0 C10.56 0 21.12 0 32 0 C32 5.28 32 10.56 32 16 C21.44 16 10.88 16 0 16 C0 10.72 0 5.44 0 0 Z " fill="#A88AF2" transform="translate(448,344)"/>
<path d="M0 0 C10.56 0 21.12 0 32 0 C32 5.28 32 10.56 32 16 C21.44 16 10.88 16 0 16 C0 10.72 0 5.44 0 0 Z " fill="#A88AF2" transform="translate(288,344)"/>
<path d="M0 0 C10.56 0 21.12 0 32 0 C32 5.28 32 10.56 32 16 C21.44 16 10.88 16 0 16 C0 10.72 0 5.44 0 0 Z " fill="#A88AF2" transform="translate(448,312)"/>
<path d="M0 0 C10.56 0 21.12 0 32 0 C32 5.28 32 10.56 32 16 C21.44 16 10.88 16 0 16 C0 10.72 0 5.44 0 0 Z " fill="#A88AF2" transform="translate(288,312)"/>
<path d="M0 0 C10.56 0 21.12 0 32 0 C32 5.28 32 10.56 32 16 C21.44 16 10.88 16 0 16 C0 10.72 0 5.44 0 0 Z " fill="#A88AF2" transform="translate(448,280)"/>
<path d="M0 0 C10.56 0 21.12 0 32 0 C32 5.28 32 10.56 32 16 C21.44 16 10.88 16 0 16 C0 10.72 0 5.44 0 0 Z " fill="#A88AF2" transform="translate(288,280)"/>
<path d="M0 0 C5.28 0 10.56 0 16 0 C16 10.56 16 21.12 16 32 C10.72 32 5.44 32 0 32 C0 21.44 0 10.88 0 0 Z " fill="#A88AF2" transform="translate(408,216)"/>
<path d="M0 0 C5.28 0 10.56 0 16 0 C16 10.56 16 21.12 16 32 C10.72 32 5.44 32 0 32 C0 21.44 0 10.88 0 0 Z " fill="#A88AF2" transform="translate(376,216)"/>
<path d="M0 0 C5.28 0 10.56 0 16 0 C16 10.56 16 21.12 16 32 C10.72 32 5.44 32 0 32 C0 21.44 0 10.88 0 0 Z " fill="#A88AF2" transform="translate(344,216)"/>
<path d="M0 0 C10.56 0 21.12 0 32 0 C32 5.28 32 10.56 32 16 C21.44 16 10.88 16 0 16 C0 10.72 0 5.44 0 0 Z " fill="#B1792C" transform="translate(208,120)"/>
<path d="M0 0 C10.56 0 21.12 0 32 0 C32 5.28 32 10.56 32 16 C21.44 16 10.88 16 0 16 C0 10.72 0 5.44 0 0 Z " fill="#B1792C" transform="translate(144,120)"/>
<path d="M0 0 C2.0625 1.5625 2.0625 1.5625 3 4 C3.17821261 6.85140177 2.92914963 9.292848 2 12 C-0.93837168 14.85194898 -2.53597436 15 -6.625 15 C-10 14 -10 14 -12 11.875 C-13.30782688 8.11499772 -13.06090617 5.81926223 -12 2 C-8.81688665 -2.07438508 -4.54417813 -1.38635943 0 0 Z " fill="#986929" transform="translate(229,145)"/>
<path d="M0 0 C2.0625 1.5625 2.0625 1.5625 3 4 C3.17821261 6.85140177 2.92914963 9.292848 2 12 C-0.93837168 14.85194898 -2.53597436 15 -6.625 15 C-10 14 -10 14 -12 11.875 C-13.30782688 8.11499772 -13.06090617 5.81926223 -12 2 C-8.81688665 -2.07438508 -4.54417813 -1.38635943 0 0 Z " fill="#986929" transform="translate(165,145)"/>
</svg>
