<?xml version="1.0" encoding="UTF-8"?>
<svg version="1.1" xmlns="http://www.w3.org/2000/svg" width="512" height="512">
<path d="M0 0 C80.85 0 161.7 0 245 0 C245 79.53 245 159.06 245 241 C242.36 241.66 239.72 242.32 237 243 C231.0671337 246.58444005 228.33325921 252.13033017 225.02734375 258.0390625 C221.36304098 263.39078023 215.48641577 265.27130777 209.6875 267.75 C208.96626953 268.07871094 208.24503906 268.40742188 207.50195312 268.74609375 C200.86582477 271.56719226 195.89648367 271.01568146 189 268.9375 C183.43345908 267.51046113 178.93396681 267.03301659 173.60449219 269.69775391 C170.10032074 271.80284314 167.29150861 274.32086656 164.390625 277.2109375 C163.89713562 277.7015567 163.40364624 278.1921759 162.89520264 278.69766235 C161.86313549 279.7277044 160.8347809 280.76147891 159.81005859 281.79882812 C158.2502668 283.37473044 156.67504537 284.93392122 155.09765625 286.4921875 C154.09018232 287.50164346 153.08363919 288.51202944 152.078125 289.5234375 C151.17481445 290.43013184 150.27150391 291.33682617 149.34082031 292.27099609 C145.50687224 296.74073656 143.49652472 300.68761041 143.69140625 306.66015625 C144.20231009 310.53397142 145.31345775 314.23789343 146.44140625 317.97265625 C147.68667986 324.72151674 145.28282082 330.54945125 142.75 336.6875 C142.46253906 337.43322266 142.17507812 338.17894531 141.87890625 338.94726562 C138.63004013 346.89918466 132.78963182 349.8358789 125.62109375 354.12109375 C121.82528634 356.84208237 119.48016957 359.55949129 118 364 C117.86677624 366.86734279 117.7876987 369.70952776 117.76171875 372.578125 C117.74961113 373.84532379 117.74961113 373.84532379 117.73725891 375.13812256 C117.72343166 376.92685909 117.71270343 378.71562186 117.70483398 380.50439453 C117.68765088 383.22610174 117.64375726 385.9465844 117.59960938 388.66796875 C117.58947915 390.40884527 117.58096407 392.14973208 117.57421875 393.890625 C117.54795662 395.10193085 117.54795662 395.10193085 117.52116394 396.33770752 C117.54276021 402.02618808 118.6669222 405.35117511 122 410 C123.69033957 411.432742 123.69033957 411.432742 125.57421875 412.1328125 C134.79273936 416.5815513 139.54015648 420.99453888 143.5625 430.5625 C143.93785889 431.4488916 144.31321777 432.3352832 144.69995117 433.24853516 C148.04282444 442.11731541 146.56734308 448.01429923 144 457 C68.43 457 -7.14 457 -85 457 C-85 333.91 -85 210.82 -85 84 C-60.25 83.67 -35.5 83.34 -10 83 C-3.8097394 79.49150654 -3.8097394 79.49150654 -1 74 C-0.67 49.58 -0.34 25.16 0 0 Z M50.6875 71.5625 C47.57555508 76.05753155 47.48674412 79.62481113 48 85 C49.9901964 89.71362305 53.44345654 92.72172827 58 95 C59.78557044 95.09972112 61.57487533 95.13508615 63.36322021 95.14044189 C64.50162354 95.14615204 65.64002686 95.15186218 66.81292725 95.15774536 C68.69555267 95.15942215 68.69555267 95.15942215 70.61621094 95.16113281 C72.59192078 95.16858017 72.59192078 95.16858017 74.60754395 95.17617798 C78.22754713 95.18931203 81.84753175 95.19574918 85.46755505 95.20018864 C87.72933134 95.20311847 89.99110255 95.20722316 92.25287628 95.21169281 C99.329669 95.22537198 106.40645012 95.2350359 113.48325515 95.2388947 C121.65156121 95.24337305 129.81969973 95.26090873 137.98795485 95.2898953 C144.30141599 95.3115215 150.61483002 95.32159952 156.9283278 95.32293582 C160.69898556 95.32398342 164.46948592 95.32988113 168.24010468 95.34775543 C171.78926814 95.36425189 175.33815619 95.36638414 178.88734436 95.35761642 C180.80656945 95.35648061 182.72578547 95.3701869 184.6449585 95.3843689 C192.76157288 95.40864225 192.76157288 95.40864225 200 92 C203.3777799 88.34834606 204.83255122 85.74146732 205.3125 80.75 C204.94700294 76.36403526 203.87718598 73.29243084 201 70 C194.0621793 65.4761551 188.01995574 65.43355944 179.88623047 65.49829102 C178.58772156 65.49288803 177.28921265 65.48748505 175.95135498 65.48191833 C172.41004426 65.46802631 168.86922277 65.47908759 165.32793951 65.49562955 C161.61251339 65.50953951 157.89711395 65.50301345 154.18167114 65.49949646 C147.94606697 65.49679968 141.71065588 65.51022618 135.47509766 65.53344727 C128.27451356 65.56007711 121.07425167 65.56179476 113.87363517 65.5500589 C106.93242974 65.53926763 99.99134042 65.54547723 93.0501442 65.55961418 C90.10210538 65.56535997 87.15415193 65.56530249 84.20611191 65.56054878 C80.08889061 65.55487582 75.9721478 65.57412714 71.85498047 65.59594727 C70.63612152 65.59144562 69.41726257 65.58694397 68.16146851 65.58230591 C60.92400364 65.64607169 55.78475919 65.91418576 50.6875 71.5625 Z M-41.8125 132.6875 C-44.39025916 136.59096387 -45.42794429 139.33628056 -45 144 C-43.6869155 148.72023841 -42.05889104 151.26576806 -37.9938364 154.08446503 C-33.5402404 156.55007858 -29.50594738 156.55943114 -24.50486755 156.50793457 C-23.56798648 156.51417453 -22.63110541 156.5204145 -21.66583401 156.52684355 C-18.53664846 156.54275718 -15.40824362 156.53017545 -12.27905273 156.51757812 C-10.03162177 156.52299991 -7.78419436 156.53012289 -5.53677368 156.53881836 C0.56021638 156.55704665 6.65693556 156.54998631 12.75393033 156.53730202 C19.13462124 156.52717315 25.51528901 156.53656727 31.89598083 156.54284668 C43.29617316 156.55058887 54.69621547 156.53816167 66.09638243 156.51780933 C76.42849238 156.49993477 86.76042258 156.50304704 97.0925293 156.52148438 C109.09892764 156.54289948 121.10519025 156.55085406 133.11161464 156.53903532 C139.46435706 156.53279791 145.81697569 156.53197181 152.16971016 156.54518127 C158.14109126 156.55673065 164.11213264 156.54873029 170.08347702 156.52560425 C172.27564746 156.52031258 174.46784647 156.52183871 176.66000557 156.53065491 C179.65100753 156.54157538 182.64091885 156.52788847 185.6318512 156.50793457 C186.50062647 156.51685746 187.36940174 156.52578034 188.26450354 156.53497362 C193.65722012 156.46512452 196.70678992 155.56185213 201 152 C203.87565761 148.72769996 204.89168611 146.1264645 205.3125 141.75 C204.94788565 137.37462774 203.89086216 134.27423297 201 131 C195.45527285 127.05592176 190.13517738 126.42397253 183.49850464 126.49879456 C182.5730198 126.49326016 181.64753496 126.48772576 180.69400513 126.48202366 C177.60936518 126.46846826 174.52554152 126.4833587 171.44091797 126.49829102 C169.22289691 126.49450605 167.00487821 126.48900454 164.78686523 126.48191833 C158.77463037 126.46797147 152.76268193 126.47912762 146.75046301 126.49562955 C140.45653406 126.50949042 134.16262157 126.50301891 127.86868286 126.49949646 C117.30189628 126.49679557 106.73521051 126.51017313 96.16845703 126.53344727 C85.30252873 126.55737756 74.43675071 126.56444621 63.57080078 126.55395508 C50.46413863 126.54132313 37.35755188 126.54384007 24.25088882 126.55961418 C19.24862164 126.56537333 14.24640474 126.56529187 9.24413681 126.56054878 C3.35568373 126.55577841 -2.53256124 126.56588342 -8.42097473 126.58750343 C-10.58250603 126.5930701 -12.74405734 126.59353771 -14.90559006 126.58855057 C-17.854782 126.58259914 -20.80333734 126.59510043 -23.75247192 126.61231995 C-25.03710239 126.60330488 -25.03710239 126.60330488 -26.34768498 126.59410769 C-32.86547752 126.66336684 -36.98637647 128.07587085 -41.8125 132.6875 Z M-41.875 193.6875 C-44.37752796 197.58849947 -45.43317359 200.37370611 -45 205 C-43.23906267 210.97849094 -40.50011248 213.98533032 -35 217 C-31.85755177 217.56709458 -28.7737879 217.54049195 -25.5871582 217.50793457 C-24.64704801 217.51417453 -23.70693781 217.5204145 -22.73833942 217.52684355 C-19.59223061 217.54278196 -16.44689564 217.53016568 -13.30078125 217.51757812 C-11.04364571 217.52299885 -8.78651372 217.53012122 -6.52938843 217.53881836 C-0.40134895 217.55706037 5.72642128 217.54998037 11.85446548 217.53730202 C18.26585875 217.527179 24.67722888 217.53656576 31.08862305 217.54284668 C42.5454619 217.55059139 54.00215156 217.53815628 65.45896518 217.51780933 C75.84282134 217.49993873 86.22649863 217.50304297 96.61035156 217.52148438 C108.67424121 217.5428995 120.73799577 217.55085373 132.80191135 217.53903532 C139.18596759 217.53279734 145.56990064 217.53197327 151.95394897 217.54518127 C157.95568489 217.55673083 163.95708281 217.54872995 169.9587822 217.52560425 C172.16223972 217.52031244 174.36572566 217.52183895 176.56917191 217.53065491 C179.57555215 217.54157495 182.58084723 217.5278889 185.5871582 217.50793457 C186.89718071 217.5213189 186.89718071 217.5213189 188.23366833 217.53497362 C193.63848469 217.4653224 196.69822554 216.57290578 201 213 C203.89626035 209.70425546 204.89660298 207.09600845 205.3125 202.6875 C204.84440916 197.16402813 202.47578817 194.33180884 198.4375 190.6875 C193.86406799 187.52127784 189.4966452 187.85417779 184.14447021 187.85955811 C182.76983482 187.85510142 182.76983482 187.85510142 181.36742902 187.8505547 C178.28368051 187.84185392 175.19997076 187.84035829 172.11621094 187.83886719 C169.91040463 187.83423998 167.70459912 187.82921545 165.49879456 187.82382202 C159.4966278 187.81068633 153.49447224 187.80425073 147.49229336 187.79981136 C143.74385616 187.79688241 139.99542204 187.79277793 136.24698639 187.78830719 C125.86706574 187.77619668 115.48714726 187.76581529 105.1072197 187.7624321 C104.11070034 187.76210275 104.11070034 187.76210275 103.09404929 187.76176675 C102.42811851 187.76154847 101.76218773 187.76133019 101.07607722 187.7611053 C99.72666216 187.76066183 98.37724709 187.76021527 97.02783203 187.75976562 C96.35847639 187.7595442 95.68912074 187.75932277 94.99948159 187.75909463 C84.15677207 187.75514775 73.3141298 187.73769725 62.47144625 187.7144061 C51.33730637 187.69068213 40.20319101 187.67848765 29.06902337 187.67706418 C22.81847524 187.6760153 16.56802193 187.67008983 10.31749725 187.65224457 C4.43734714 187.63578376 -1.44263667 187.63359879 -7.32280159 187.64238358 C-9.48069516 187.64315502 -11.6385976 187.63879709 -13.79646873 187.62892532 C-16.74335629 187.616235 -19.68965226 187.62206702 -22.63653564 187.63250732 C-23.48956276 187.62445092 -24.34258988 187.61639452 -25.2214663 187.60809398 C-32.02488161 187.66442793 -36.75976009 188.90586269 -41.875 193.6875 Z M-42.4375 255.25 C-44.45790337 258.80590993 -45.30589572 261.94874689 -45 266 C-43.24423042 272.00887602 -40.4548785 274.89195444 -35 278 C-31.50575743 278.59555789 -31.50575743 278.59555789 -27.71313477 278.50793457 C-27.0017035 278.51417453 -26.29027224 278.5204145 -25.55728245 278.52684355 C-23.18498168 278.5427365 -20.81371374 278.53018471 -18.44140625 278.51757812 C-16.73598636 278.52300092 -15.03057115 278.53012446 -13.32516479 278.53881836 C-8.70118066 278.55703599 -4.07755398 278.54999066 0.54643631 278.53730202 C5.38830775 278.52716627 10.23014883 278.5365693 15.07202148 278.54284668 C23.20269254 278.5501214 31.33321821 278.54053996 39.46386719 278.52148438 C48.86046342 278.49971597 58.25671247 278.50676747 67.65330029 278.52879 C75.72481601 278.54694897 83.79622729 278.54949988 91.86775684 278.53903532 C96.68686933 278.53280313 101.50581869 278.53195723 106.32492065 278.54518127 C110.85586655 278.55674638 115.38636537 278.54870206 119.91726303 278.52560425 C121.57889947 278.52032067 123.2405736 278.52182495 124.90219498 278.53065491 C127.17301405 278.54160851 129.44240629 278.52785113 131.71313477 278.50793457 C132.98294693 278.50642647 134.25275909 278.50491837 135.56105042 278.50336456 C140.87614013 277.72538636 143.92366987 275.246277 147.375 271.25 C149.32074001 267.35851998 149.80787765 264.22707702 149 260 C147.59956889 256.24055391 145.74773252 253.56079939 142.5 251.125 C137.97868567 249.09040855 134.15662229 248.87014093 129.19488525 248.85282898 C128.51107528 248.84915229 127.82726532 248.8454756 127.12273383 248.8416875 C124.83214043 248.83067736 122.54159243 248.82681138 120.25097656 248.82299805 C118.60821388 248.81673141 116.9654526 248.81008443 115.32269287 248.80308533 C109.92868025 248.78206754 104.53466741 248.77168555 99.140625 248.76171875 C97.28222387 248.75767044 95.42382289 248.75355349 93.56542206 248.74936867 C84.83450095 248.73032256 76.10358827 248.71608992 67.37265038 248.7077567 C57.30038107 248.69798398 47.2283315 248.67166111 37.15613961 248.63125581 C29.36661222 248.60108168 21.57714778 248.58628662 13.78756309 248.58297569 C9.13710764 248.58062683 4.48688711 248.57168759 -0.16350555 248.54651451 C-4.5400746 248.52320584 -8.9162545 248.51901173 -13.29286957 248.52927589 C-14.89563289 248.52977067 -16.49841556 248.52346726 -18.10112 248.50971985 C-27.66583385 248.43229319 -35.06340698 248.44314491 -42.4375 255.25 Z M-38.9609375 313.65625 C-39.42757812 314.2646875 -39.89421875 314.873125 -40.375 315.5 C-40.85710937 316.1084375 -41.33921875 316.716875 -41.8359375 317.34375 C-44.43245994 321.03813092 -44.59030938 324.6054746 -44 329 C-41.74126288 333.35016037 -39.09194721 336.30530306 -35 339 C-31.39499887 339.93392975 -28.00373489 340.12925802 -24.28947449 340.14044189 C-22.580019 340.14900711 -22.580019 340.14900711 -20.83602905 340.15774536 C-19.59487335 340.15886322 -18.35371765 340.15998108 -17.07495117 340.16113281 C-15.10340309 340.16858017 -15.10340309 340.16858017 -13.09202576 340.17617798 C-9.49272641 340.18926475 -5.89344568 340.19573954 -2.29412627 340.20018864 C-0.04287134 340.20312513 2.20837857 340.20723099 4.45963097 340.21169281 C11.51078861 340.22535737 18.56193468 340.23502936 25.61310464 340.2388947 C33.73891054 340.24337431 41.86454813 340.26092197 49.99030286 340.2898953 C56.28092598 340.31154297 62.57150186 340.32160061 68.86216182 340.32293582 C72.61495393 340.32398156 76.36758761 340.32983997 80.12034035 340.34775543 C84.30925263 340.36736528 88.49781439 340.36293488 92.68676758 340.35644531 C93.92185059 340.3656601 95.15693359 340.37487488 96.42944336 340.3843689 C103.95988737 340.34784044 110.75828299 340.24171701 116.375 334.625 C118.82872506 330.66129029 120.04750877 328.30649126 119.875 323.5625 C118.64308471 318.54684488 116.72758868 315.28461723 112.5625 312.1875 C108.20280633 310.16715415 104.08377466 309.87441706 99.32070923 309.86628723 C98.18804123 309.86202225 97.05537323 309.85775726 95.88838196 309.85336304 C94.65500595 309.85381622 93.42162994 309.85426941 92.15087891 309.85473633 C90.8446608 309.85137772 89.53844269 309.8480191 88.19264221 309.84455872 C84.61613137 309.8357395 81.03964446 309.83338148 77.4631238 309.83274293 C75.22661752 309.83203127 72.99011729 309.82989475 70.75361252 309.82724571 C62.94543828 309.8179993 55.13728109 309.81390996 47.32910156 309.81469727 C40.05993305 309.81529793 32.79083878 309.80474653 25.52168906 309.7889536 C19.27269474 309.77586265 13.02372465 309.77051402 6.77471673 309.77115268 C3.04602914 309.7714072 -0.68259244 309.76858128 -4.41126633 309.75797462 C-8.57159218 309.7464627 -12.73175243 309.75104998 -16.89208984 309.75708008 C-18.12141739 309.75146057 -19.35074493 309.74584106 -20.61732483 309.74005127 C-30.41029953 309.53290811 -30.41029953 309.53290811 -38.9609375 313.65625 Z M-41.25 377.5625 C-44.18665126 381.65283569 -44.6455279 385.03302141 -44 390 C-42.6309477 393.76489383 -40.73757674 396.44681744 -37.5 398.875 C-33.5112374 400.66994317 -30.14760936 401.12627289 -25.78263855 401.14044189 C-24.19928963 401.14900711 -24.19928963 401.14900711 -22.58395386 401.15774536 C-21.43113922 401.15886322 -20.27832458 401.15998108 -19.09057617 401.16113281 C-17.87228622 401.16609772 -16.65399628 401.17106262 -15.39878845 401.17617798 C-12.0598028 401.18827518 -8.72087968 401.19574173 -5.38187957 401.20018864 C-3.29395959 401.20312361 -1.20604505 401.20722921 0.88187218 401.21169281 C7.41991869 401.22536071 13.9579527 401.23503085 20.49601251 401.2388947 C28.03321889 401.24337401 35.57024379 401.26091883 43.10739499 401.2898953 C48.94023692 401.3115382 54.77302789 401.32160037 60.60590953 401.32293582 C64.08649886 401.32398198 67.56691745 401.32984919 71.04746437 401.34775543 C74.93249952 401.36735453 78.81730924 401.36293673 82.70239258 401.35644531 C83.84913452 401.3656601 84.99587646 401.37487488 86.17736816 401.3843689 C93.84635586 401.3442291 98.92447627 400.67436846 104.875 395.5 C107.96708479 391.86225319 108.3411779 388.78762965 108.2890625 384.0625 C107.66314845 379.59651867 104.40742738 375.81483131 101 373 C97.94247491 371.98082497 95.86298056 371.86943503 92.66165161 371.85955811 C91.00030182 371.85099289 91.00030182 371.85099289 89.3053894 371.84225464 C87.48190475 371.84057785 87.48190475 371.84057785 85.62158203 371.83886719 C84.3417041 371.83390228 83.06182617 371.82893738 81.74316406 371.82382202 C78.23072183 371.81070635 74.71829871 371.80425481 71.20583582 371.79981136 C69.01123326 371.79687957 66.81663591 371.79277458 64.62203598 371.78830719 C57.7550856 371.77463506 50.88814714 371.76496675 44.02118409 371.7611053 C36.0951181 371.75662372 28.16922448 371.7390701 20.24321091 371.7101047 C14.11573086 371.6884894 7.98829932 371.67840112 1.86078155 371.67706418 C-1.79860761 371.67601613 -5.45783467 371.67010833 -9.11718369 371.65224457 C-13.19915992 371.63270499 -17.28077516 371.63705221 -21.36279297 371.64355469 C-22.57440094 371.6343399 -23.78600891 371.62512512 -25.03433228 371.6156311 C-26.14753845 371.62120026 -27.26074463 371.62676941 -28.40768433 371.63250732 C-29.3725923 371.63104076 -30.33750027 371.6295742 -31.33164787 371.6280632 C-35.78021338 372.24814074 -38.33434643 374.24189454 -41.25 377.5625 Z " fill="#439ED7" transform="translate(112,8)"/>
<path d="M0 0 C4.51598559 1.54085474 6.30224718 5.62460871 8.30419922 9.64794922 C11.35059419 15.24751332 16.26344308 17.50440204 21.96826172 19.86279297 C22.96486313 20.28356865 22.96486313 20.28356865 23.9815979 20.71284485 C25.38010739 21.30074565 26.78032283 21.88460315 28.18212891 22.46459961 C30.31145468 23.34760348 32.43291902 24.24776847 34.55419922 25.14990234 C35.92094879 25.72191339 37.28812311 26.29291082 38.65576172 26.86279297 C39.28203461 27.1294426 39.9083075 27.39609222 40.55355835 27.67082214 C47.84235266 30.65504338 52.7585739 30.92766741 60.19482422 28.53857422 C64.61295889 27.39092062 67.26789451 27.28528997 71.39794922 29.59326172 C75.15337228 32.78082847 78.504093 36.2928668 79.42919922 41.26904297 C79.19664933 43.58291441 78.72388132 45.47788624 77.94482422 47.66357422 C75.61158819 54.74210783 76.94831456 60.88608538 79.83154297 67.45263672 C80.13042923 68.15955658 80.42931549 68.86647644 80.73725891 69.59481812 C81.36844705 71.07838636 82.00667707 72.55897668 82.65161133 74.03662109 C83.62958762 76.28229033 84.58061303 78.53800639 85.52880859 80.79638672 C86.14898215 82.24497708 86.77067704 83.69291726 87.39404297 85.14013672 C87.67446945 85.80590729 87.95489594 86.47167786 88.24382019 87.15762329 C91.12902751 93.69681755 94.83050741 98.44140126 101.19482422 101.97607422 C105.92109541 104.63984541 105.92109541 104.63984541 106.94482422 105.66357422 C107.88595288 111.24801978 108.7137699 117.17415339 106.94482422 122.66357422 C104.16992992 125.24478462 101.89688462 126.80475657 98.45239258 128.27099609 C91.67527642 131.36808923 89.74944624 137.06995524 86.94482422 143.66357422 C86.48156738 144.72116943 86.01831055 145.77876465 85.54101562 146.8684082 C84.1729203 150.05453394 82.86431089 153.25941173 81.56982422 156.47607422 C81.11994141 157.55566406 80.67005859 158.63525391 80.20654297 159.74755859 C76.8690215 168.02035116 76.23145757 173.85831197 78.60498047 182.45263672 C79.03468754 185.24820227 78.8331823 186.96559781 77.94482422 189.66357422 C74.85663778 193.84135471 70.95600642 199.06542767 65.64404297 200.12060547 C63.56982422 199.85107422 63.56982422 199.85107422 59.94482422 198.66357422 C52.59265925 196.59577782 46.75439732 197.65107301 39.90185547 200.55029297 C39.17036789 200.84917923 38.43888031 201.14806549 37.68522644 201.45600891 C36.15050887 202.08726066 34.61864433 202.72548999 33.08959961 203.37036133 C30.76072933 204.34964238 28.42146343 205.29986193 26.07958984 206.24755859 C24.58213906 206.86760111 23.08536916 207.48929109 21.58935547 208.11279297 C20.89654984 208.39321945 20.2037442 208.67364594 19.48994446 208.96257019 C12.92229998 211.771356 9.41264388 215.580156 6.25732422 221.97607422 C3.83164831 225.52872345 1.91652154 226.94478943 -2.22705078 227.76513672 C-6.95223114 228.27325239 -11.56092067 228.3694712 -16.05517578 226.66357422 C-18.94264903 223.5980763 -20.38861465 220.88831303 -21.96142578 216.99560547 C-25.01465745 212.13663791 -28.87649203 210.83504576 -34.05517578 208.66357422 C-35.64604004 207.96204224 -35.64604004 207.96204224 -37.26904297 207.24633789 C-40.72340184 205.73997255 -44.19750497 204.29065503 -47.68017578 202.85107422 C-48.85580078 202.34898437 -50.03142578 201.84689453 -51.24267578 201.32958984 C-60.34554802 197.57081957 -66.35915973 196.66084944 -75.87939453 199.32373047 C-79.95168616 199.95979756 -82.39062815 199.09198344 -85.83642578 196.87060547 C-88.79393829 194.26578483 -91.02635234 192.05638467 -93.05517578 188.66357422 C-92.99034486 184.7953294 -92.20981137 181.80904682 -90.96533203 178.15576172 C-89.20040419 171.38389265 -91.18789038 165.50877609 -93.92626953 159.27685547 C-94.20865982 158.61195602 -94.49105011 157.94705658 -94.78199768 157.26200867 C-95.67610927 155.1625038 -96.58397551 153.06929999 -97.49267578 150.97607422 C-98.09843788 149.5617648 -98.70326361 148.14705393 -99.30712891 146.73193359 C-100.41579173 144.1353743 -101.53062982 141.5416352 -102.65063477 138.94995117 C-103.51760589 136.92139245 -104.34281471 134.87367866 -105.09765625 132.80078125 C-105.88509706 130.44398614 -105.88509706 130.44398614 -108.37939453 129.47998047 C-109.70390625 129.07585937 -109.70390625 129.07585937 -111.05517578 128.66357422 C-114.86461847 127.25244521 -117.50904116 125.89151894 -120.05517578 122.66357422 C-121.72748166 117.2480759 -121.76635446 111.071571 -120.05517578 105.66357422 C-117.19149647 102.19927303 -114.02870207 100.63003467 -110.05517578 98.66357422 C-105.49755474 95.63804125 -103.56615171 92.27675186 -101.53955078 87.33544922 C-101.23825256 86.62761292 -100.93695435 85.91977661 -100.62652588 85.19049072 C-99.99474582 83.69721855 -99.36984223 82.20102042 -98.75146484 80.70214844 C-97.81085589 78.42731141 -96.84510432 76.16445696 -95.87548828 73.90185547 C-95.26197539 72.44286404 -94.64994731 70.98324718 -94.03955078 69.52294922 C-93.75416443 68.854953 -93.46877808 68.18695679 -93.17474365 67.49871826 C-90.19658359 60.20017041 -89.49531726 54.48881518 -92.24267578 46.91357422 C-93.63816402 41.00515382 -93.63816402 41.00515382 -92.24951172 37.80957031 C-89.45983725 33.46917188 -85.83610776 29.73623259 -81.05517578 27.66357422 C-77.03591895 27.62090695 -74.15069044 28.32964387 -70.37939453 29.68310547 C-63.93338705 31.58433682 -58.13441982 29.18453536 -52.14501953 26.78466797 C-51.41448868 26.49431168 -50.68395782 26.20395538 -49.93128967 25.90480042 C-48.39583268 25.2897253 -46.86219343 24.67009474 -45.33032227 24.04614258 C-43.00424065 23.10574969 -40.66644138 22.20009983 -38.32666016 21.29443359 C-29.29126813 17.69137765 -23.25022039 14.75537124 -19.09472656 5.53173828 C-15.81580233 -1.65746751 -6.83005026 -1.14166198 0 0 Z M-60.05517578 63.66357422 C-60.68294922 64.26685547 -61.31072266 64.87013672 -61.95751953 65.49169922 C-74.8909816 78.98238527 -80.45830029 98.53893389 -80.26611328 116.81591797 C-79.35275464 133.47625621 -73.48712921 147.76737982 -63.05517578 160.66357422 C-62.25853516 161.72318359 -62.25853516 161.72318359 -61.44580078 162.80419922 C-51.34219827 175.50872911 -33.95233964 184.46151284 -18.05517578 186.66357422 C3.35056005 188.35551543 23.1562947 184.65203818 39.93310547 170.49560547 C40.59697266 169.89103516 41.26083984 169.28646484 41.94482422 168.66357422 C42.70150391 167.98681641 43.45818359 167.31005859 44.23779297 166.61279297 C56.96191931 154.61332373 65.41854331 137.85380077 66.26513672 120.31591797 C66.88960419 98.59130844 61.61868926 79.84558056 46.74951172 63.56591797 C33.9781923 50.13821011 16.14616883 41.57846996 -2.43017578 40.46044922 C-24.91459039 40.16970248 -44.02762268 47.93433429 -60.05517578 63.66357422 Z " fill="#41A0D8" transform="translate(378.05517578125,277.33642578125)"/>
<path d="M0 0 C8.75440701 6.61783224 15.17551844 15.93837171 17.46484375 26.86328125 C18.81420768 40.79930697 17.29089218 52.71995102 8.77734375 64.23828125 C1.70105061 72.40119618 -7.73842448 78.95642214 -18.69970703 80.08642578 C-32.7147678 81.00729177 -44.42235583 79.01859756 -55.53515625 69.86328125 C-65.28302152 60.67948775 -70.38855871 49.90286794 -70.84765625 36.55078125 C-70.59706381 25.99641741 -67.49694452 17.4942884 -61.53515625 8.86328125 C-60.95765625 7.97640625 -60.38015625 7.08953125 -59.78515625 6.17578125 C-43.71727504 -10.33843 -18.97326018 -13.14789765 0 0 Z " fill="#41A0D8" transform="translate(397.53515625,355.13671875)"/>
<path d="M0 0 C0 13.53 0 27.06 0 41 C-13.53 41 -27.06 41 -41 41 C-39.25485098 37.50970196 -38.06966827 35.81742637 -35.40820312 33.14941406 C-34.67404175 32.40894836 -33.93988037 31.66848267 -33.18347168 30.90557861 C-32.39073853 30.11689392 -31.59800537 29.32820923 -30.78125 28.515625 C-29.56072937 27.29223419 -29.56072937 27.29223419 -28.31555176 26.04412842 C-26.59645354 24.32367022 -24.87483106 22.6057311 -23.15087891 20.89013672 C-20.50320366 18.25319068 -17.86638469 15.6057262 -15.23046875 12.95703125 C-13.560537 11.28842058 -11.88998522 9.62043014 -10.21875 7.953125 C-9.02965027 6.75795258 -9.02965027 6.75795258 -7.81652832 5.53863525 C-7.08236694 4.8107782 -6.34820557 4.08292114 -5.59179688 3.33300781 C-4.94496948 2.68777161 -4.29814209 2.0425354 -3.63171387 1.37774658 C-2 0 -2 0 0 0 Z " fill="#3DA4DB" transform="translate(83,22)"/>
</svg>
