<?xml version="1.0" encoding="UTF-8"?>
<svg version="1.1" xmlns="http://www.w3.org/2000/svg" width="512" height="512">
<path d="M0 0 C1.05703125 0.37382812 2.1140625 0.74765625 3.203125 1.1328125 C15.07447583 5.72915603 24.90845086 12.12732148 34 21 C34.886875 21.845625 35.77375 22.69125 36.6875 23.5625 C37.450625 24.366875 38.21375 25.17125 39 26 C39.51820313 26.52335937 40.03640625 27.04671875 40.5703125 27.5859375 C51.90988442 39.6374108 60.03766027 57.55608988 62 74 C62.13277344 75.08023438 62.26554687 76.16046875 62.40234375 77.2734375 C63.96050965 93.69545561 61.39865728 108.51437781 56 124 C64.415 124.495 64.415 124.495 73 125 C73.33 122.36 73.66 119.72 74 117 C76.73809458 113.52187985 78.67767788 111.75966187 83 111 C84.67798096 110.91897854 86.35890786 110.89091045 88.03881836 110.90014648 C89.04642715 110.90297134 90.05403595 110.9057962 91.09217834 110.90870667 C92.18453293 110.9169194 93.27688751 110.92513214 94.40234375 110.93359375 C96.76676381 110.94396461 99.13118441 110.9542139 101.49560547 110.96435547 C103.34566193 110.97459747 103.34566193 110.97459747 105.23309326 110.98504639 C108.93177389 110.99972916 112.62992598 110.99554724 116.32861328 110.98486328 C122.49289938 110.96874288 128.65596605 110.99448839 134.82006836 111.04272461 C137.34542381 111.05606885 139.87087681 111.05641763 142.39624023 111.04467773 C146.12056865 111.02968427 149.84229338 111.05921528 153.56640625 111.09765625 C154.68519669 111.08340103 155.80398712 111.06914581 156.9566803 111.05445862 C165.04204873 111.20361895 169.20594571 113.47436194 175 119 C176.17975221 120.00347462 177.36373091 121.00203651 178.5546875 121.9921875 C179.66315311 122.95116954 180.76991475 123.91212454 181.875 124.875 C187.02179174 129.33494605 192.24201823 133.65859676 197.59765625 137.8671875 C204.65537237 144.1330623 204.65537237 144.1330623 205.46609879 148.52497864 C205.65157771 151.71297815 205.67537771 154.86718343 205.64697266 158.06054688 C205.66011505 159.87619896 205.66011505 159.87619896 205.67352295 161.72853088 C205.69172233 165.03687703 205.6875107 168.34365359 205.67162752 171.65191078 C205.65893198 175.1204597 205.67071873 178.58894345 205.67855835 182.05749512 C205.68764439 187.88138818 205.67569486 193.70496378 205.65185547 199.52880859 C205.62464571 206.25349796 205.63346065 212.97742928 205.6609875 219.70210028 C205.68370778 225.48492321 205.68686455 231.26751848 205.67379415 237.05037165 C205.66601547 240.50021438 205.66491376 243.94970128 205.68147659 247.39952087 C205.6986573 251.24646261 205.67481795 255.09256138 205.64697266 258.93945312 C205.65709381 260.07729752 205.66721497 261.21514191 205.67764282 262.38746643 C205.56219902 270.99590455 205.56219902 270.99590455 202.64706421 274.69128418 C198.14321572 278.61944966 193.85912766 278.13267726 188.17578125 278.09765625 C187.31438034 278.0962413 186.45297943 278.09482635 185.56547546 278.09336853 C182.81444831 278.0877714 180.06350256 278.07521946 177.3125 278.0625 C175.4472668 278.05748463 173.58203233 278.05292179 171.71679688 278.04882812 C167.14447466 278.03865384 162.57232845 278.01907787 158 278 C158 286.25 158 294.5 158 303 C159.32 303.66 160.64 304.32 162 305 C163.6315918 306.38867188 163.6315918 306.38867188 165.19921875 307.96875 C165.76833984 308.53980469 166.33746094 309.11085938 166.92382812 309.69921875 C167.50583984 310.29347656 168.08785156 310.88773437 168.6875 311.5 C169.28111328 312.09425781 169.87472656 312.68851562 170.48632812 313.30078125 C174.70913319 317.56692183 176.25 319.55396696 176.25 325.859375 C176 328 176 328 174.25 331.4375 C172.82167333 335.50823101 173.09860973 336.07418881 174.8125 339.8125 C175.21082031 340.56144531 175.60914063 341.31039063 176.01953125 342.08203125 C177 344 177 344 177 346 C177.60328125 346.17015625 178.2065625 346.3403125 178.828125 346.515625 C179.62734375 346.75796875 180.4265625 347.0003125 181.25 347.25 C182.03890625 347.48203125 182.8278125 347.7140625 183.640625 347.953125 C186.53669156 349.23813467 187.98900308 350.54639132 190 353 C190.82535857 357.27259989 190.60269491 361.59408555 190.5625 365.9375 C190.58634766 367.11763672 190.61019531 368.29777344 190.63476562 369.51367188 C190.62013416 378.13160267 190.62013416 378.13160267 187.6875 382.23828125 C185 384 185 384 181.4375 385.25 C177.17928118 387.41782049 176.24928688 389.29547719 174.58203125 393.64453125 C173.57047477 397.73827996 174.13146981 401.26293962 176 405 C176.90607735 411.56906077 176.90607735 411.56906077 174.71875 415.0234375 C172.89686255 417.11860807 170.98738227 419.06127304 169 421 C168.30519531 421.72960937 167.61039062 422.45921875 166.89453125 423.2109375 C160.77372788 429.57289823 160.77372788 429.57289823 157 431 C152.86639303 430.73331568 149.88578499 430.4043801 146.125 428.6875 C141.88191872 427.75402212 139.26208125 428.67297433 135.328125 430.38671875 C131.83985104 432.80392873 130.66980175 435.75339526 129.23046875 439.66015625 C127.538883 442.87685424 126.40367325 443.64899013 123 445 C119.32484413 445.40124745 115.69304586 445.37292287 112 445.3125 C110.52273438 445.31733398 110.52273438 445.31733398 109.015625 445.32226562 C104.17200253 445.28626573 100.43133715 445.14681742 96 443 C94.671875 441.16015625 94.671875 441.16015625 93.75 439.0625 C93.43546875 438.37285156 93.1209375 437.68320312 92.796875 436.97265625 C92.13674209 435.33850371 91.55733563 433.67200688 91 432 C87.22056348 429.55536447 83.07895468 427.64909364 78.546875 428.4140625 C76.33686356 429.21838639 74.1726763 430.10067171 72 431 C68.9375 431.625 68.9375 431.625 66 431 C63.02380603 428.97696619 60.55905335 426.51871801 58 424 C56.66388672 422.78957031 56.66388672 422.78957031 55.30078125 421.5546875 C54.39714844 420.71164062 53.49351562 419.86859375 52.5625 419 C51.71816406 418.21625 50.87382812 417.4325 50.00390625 416.625 C48 414 48 414 47 407 C39.74 407 32.48 407 25 407 C25 416.9 25 426.8 25 437 C28.12082031 436.95359375 31.24164063 436.9071875 34.45703125 436.859375 C37.51194638 436.82809401 40.56684302 436.80385494 43.62182617 436.78027344 C45.72933057 436.76027722 47.83678034 436.73307107 49.9440918 436.69824219 C64.38061042 436.46578108 76.4178217 436.34041478 88.0546875 445.99609375 C95.66742436 453.83812992 96.23584401 462.45230854 96.29516602 472.82397461 C96.30670816 474.23130327 96.32719564 475.63858739 96.35668945 477.0456543 C96.39935657 479.08151924 96.41552956 481.11608733 96.42578125 483.15234375 C96.44765503 484.9775354 96.44765503 484.9775354 96.4699707 486.83959961 C96 490 96 490 94.64439392 492.16577911 C90.43753023 495.08376996 86.22150432 494.55068561 81.21972656 494.50793457 C80.10840488 494.51417453 78.99708321 494.5204145 77.85208511 494.52684355 C74.11471823 494.54284448 70.37799714 494.53014094 66.640625 494.51757812 C63.96673671 494.52299609 61.29289346 494.52997172 58.61901855 494.53881836 C52.10231322 494.55662037 45.585792 494.5527562 39.0690794 494.5411678 C33.77361729 494.53214032 28.47820685 494.53090649 23.18273926 494.53526306 C22.42953785 494.53587599 21.67633645 494.53648893 20.90031075 494.53712043 C19.3702758 494.53839931 17.84024086 494.53969616 16.31020594 494.5410108 C1.95745559 494.55242152 -12.39519263 494.53929521 -26.74792624 494.51780933 C-39.06767906 494.49993788 -51.38728114 494.50304185 -63.70703125 494.52148438 C-78.00783395 494.54288244 -92.30854709 494.55132283 -106.60936356 494.53903532 C-108.13382211 494.5377611 -109.65828068 494.53650362 -111.18273926 494.53526306 C-111.93283445 494.53464596 -112.68292964 494.53402886 -113.455755 494.53339306 C-118.7458751 494.52993695 -124.03593848 494.53577408 -129.3260498 494.54518127 C-135.77151579 494.55639085 -142.21678688 494.55338335 -148.66223049 494.5320583 C-151.95191488 494.52153355 -155.24120632 494.51959692 -158.53089905 494.53065491 C-162.09416936 494.54153094 -165.65651567 494.52794165 -169.21972656 494.50793457 C-170.7856637 494.5213189 -170.7856637 494.5213189 -172.38323593 494.53497362 C-179.34141245 494.45881191 -179.34141245 494.45881191 -182.64141846 492.15982819 C-184.53705839 489.14620226 -184.51767409 486.90974407 -184.53125 483.36328125 C-184.53898437 481.41325195 -184.53898437 481.41325195 -184.546875 479.42382812 C-184.53430664 478.40977905 -184.53430664 478.40977905 -184.52148438 477.37524414 C-184.50023971 475.33551528 -184.52119775 473.29937907 -184.546875 471.25976562 C-184.50896455 461.6542048 -183.23634785 453.7530058 -176.609375 446.41015625 C-167.79076592 438.68317111 -158.82163312 436.6811358 -147.47265625 436.8046875 C-146.48373886 436.8075174 -145.49482147 436.81034729 -144.47593689 436.81326294 C-141.33799805 436.82439858 -138.20035161 436.84949097 -135.0625 436.875 C-132.92643643 436.88503835 -130.79036836 436.8941627 -128.65429688 436.90234375 C-123.43599645 436.92260899 -118.21832298 436.96177053 -113 437 C-113 427.1 -113 417.2 -113 407 C-115.85052002 407.01047363 -118.70104004 407.02094727 -121.63793945 407.03173828 C-131.08547879 407.06496708 -140.5330208 407.08700518 -149.98060322 407.10362434 C-155.70528075 407.1140348 -161.42989811 407.12814378 -167.15454102 407.15087891 C-172.68532587 407.17270517 -178.21605305 407.1845892 -183.74687767 407.18975449 C-185.85064793 407.19343273 -187.95441526 407.20061517 -190.05816078 407.21146011 C-222.4768508 407.3718431 -222.4768508 407.3718431 -234.6171875 396.69921875 C-241.6516363 389.2842178 -246.13080495 381.18885276 -246.12025452 370.84942627 C-246.12162918 369.80898666 -246.12300385 368.76854706 -246.12442017 367.69657898 C-246.11902725 365.99293938 -246.11902725 365.99293938 -246.11352539 364.25488281 C-246.11367142 363.05460953 -246.11381744 361.85433624 -246.1139679 360.61769104 C-246.11339084 357.33082561 -246.10837745 354.04400282 -246.10139394 350.75714588 C-246.0951403 347.32050067 -246.09455501 343.88385461 -246.09336853 340.44720459 C-246.09026115 333.94141654 -246.08205574 327.4356453 -246.07201904 320.92986465 C-246.0608395 313.52241818 -246.05534281 306.11497091 -246.05032361 298.7075181 C-246.03987265 283.471669 -246.02228467 268.23583667 -246 253 C-247.05912598 253.02094727 -248.11825195 253.04189453 -249.20947266 253.06347656 C-253.15659957 253.13613385 -257.10366792 253.18189254 -261.05126953 253.21972656 C-262.75644894 253.23978369 -264.46156006 253.26703657 -266.16650391 253.30175781 C-268.62419524 253.35053861 -271.08097366 253.37302719 -273.5390625 253.390625 C-274.29555084 253.41127014 -275.05203918 253.43191528 -275.83145142 253.45318604 C-281.01496996 253.45536024 -283.8664568 252.38121828 -288 249 C-291.57156019 244.94579655 -293.12075718 242.64660809 -293.14717102 237.28216553 C-293.15432632 236.28680283 -293.16148163 235.29144012 -293.16885376 234.26591492 C-293.17154266 233.16979385 -293.17423157 232.07367279 -293.17700195 230.94433594 C-293.18357315 229.79300674 -293.19014435 228.64167755 -293.19691467 227.45545959 C-293.21668301 223.63176413 -293.22831813 219.808108 -293.23828125 215.984375 C-293.24235678 214.68082314 -293.2464323 213.37727127 -293.25063133 212.03421783 C-293.26968545 205.84696614 -293.28391494 199.65972637 -293.2922433 193.47245097 C-293.30201135 186.33360706 -293.3283182 179.19507358 -293.36874419 172.05633903 C-293.39892567 166.53692735 -293.41371416 161.01760454 -293.41702431 155.49811196 C-293.41937293 152.20243685 -293.43028473 148.90716879 -293.45348549 145.61156464 C-293.47777996 141.93187133 -293.47692905 138.2529908 -293.4699707 134.57324219 C-293.48278076 133.48521805 -293.49559082 132.39719391 -293.50878906 131.27619934 C-293.46674212 125.18067277 -293.06772039 121.64020352 -289 117 C-282.03665315 110.40314509 -274.67309677 110.7098734 -265.58813477 110.74121094 C-264.34029205 110.7377063 -263.09244934 110.73420166 -261.80679321 110.73059082 C-258.39554453 110.72331036 -254.98453932 110.72499785 -251.57330441 110.73134899 C-247.9958014 110.73642689 -244.4183085 110.73171247 -240.84080505 110.72857666 C-234.83289736 110.72494175 -228.82503889 110.72972313 -222.81713867 110.73925781 C-215.88251406 110.75013651 -208.94800711 110.74661915 -202.01338536 110.735605 C-196.04886292 110.72651265 -190.0843758 110.72525651 -184.11984867 110.73048234 C-180.56221047 110.73359198 -177.00462747 110.73403925 -173.44699287 110.72740936 C-169.4783691 110.72052978 -165.5098758 110.73008048 -161.54125977 110.74121094 C-160.3696077 110.73716248 -159.19795563 110.73311401 -157.99079895 110.72894287 C-148.90825482 110.77609255 -142.65813049 111.49670976 -136 118 C-134.24329531 120.71490725 -134 121.71434047 -134 125 C-127.73 125 -121.46 125 -115 125 C-116.175625 122.1228125 -116.175625 122.1228125 -117.375 119.1875 C-121.5013126 109.08889284 -122.36844954 99.02972236 -122.3125 88.1875 C-122.30686035 87.04112061 -122.3012207 85.89474121 -122.29541016 84.71362305 C-121.95280686 60.81449905 -112.62239232 40.1243118 -96 23 C-95.38769531 22.31421875 -94.77539062 21.6284375 -94.14453125 20.921875 C-84.96932294 10.98369627 -72.59310993 4.52307114 -60 0 C-58.29070312 -0.62068359 -58.29070312 -0.62068359 -56.546875 -1.25390625 C-38.79752889 -6.6731215 -17.46265929 -6.27180017 0 0 Z M-86.1875 37.125 C-101.0788786 54.21812456 -106.10477371 74.11038656 -105.18652344 96.34570312 C-103.86181143 115.19684052 -93.16023352 132.40828105 -79.8125 145.1875 C-61.71790023 160.59321694 -41.10549491 164.50954319 -18 163 C0.24476508 160.86436356 17.03281894 149.41025254 28.83203125 135.8359375 C43.00508382 117.29605252 47.42078782 96.68081641 44.72753906 73.67236328 C41.62578184 55.28588458 29.57616273 38.15830388 15 27 C7.25625367 21.77661303 -1.01852905 17.62935816 -10 15 C-11.79244141 14.46439453 -11.79244141 14.46439453 -13.62109375 13.91796875 C-40.0462375 7.46978726 -67.76663844 18.03327247 -86.1875 37.125 Z M-276 128 C-276 147.8 -276 167.6 -276 188 C-273.09885728 186.54942864 -270.97031977 185.34388816 -268.4609375 183.42578125 C-267.80279053 182.92594727 -267.14464355 182.42611328 -266.46655273 181.91113281 C-265.43123413 181.11980957 -265.43123413 181.11980957 -264.375 180.3125 C-262.93672411 179.22976942 -261.4979229 178.14773629 -260.05859375 177.06640625 C-257.68343376 175.27720334 -255.32268382 173.47475223 -252.97265625 171.65234375 C-249.30434612 168.89969809 -246.79034389 167.15806878 -242.25 166.25 C-235.7615763 167.74732855 -232.09827892 172.86051037 -227.9453125 177.73046875 C-225.69241062 180.35885427 -223.38169719 182.92998054 -221.0625 185.5 C-220.29035156 186.3559375 -219.51820313 187.211875 -218.72265625 188.09375 C-217.86994141 189.03734375 -217.86994141 189.03734375 -217 190 C-213.60655558 188.51151188 -211.21770033 186.5673138 -208.5 184.0625 C-207.62214844 183.258125 -206.74429688 182.45375 -205.83984375 181.625 C-204.90269531 180.75875 -203.96554688 179.8925 -203 179 C-201.52355268 177.64740911 -200.04709765 176.29482644 -198.57006836 174.94287109 C-197.05888502 173.55919003 -195.54876633 172.17435758 -194.0390625 170.7890625 C-193.53922852 170.33047852 -193.03939453 169.87189453 -192.52441406 169.39941406 C-191.49729573 168.45651812 -190.47061171 167.51314888 -189.44433594 166.56933594 C-187.94380538 165.19013697 -186.44089758 163.81357236 -184.9375 162.4375 C-184.05964844 161.63183594 -183.18179688 160.82617188 -182.27734375 159.99609375 C-179.30559613 157.39135442 -177.597524 156.07745681 -173.625 155.5625 C-168.4948889 156.18165134 -166.66228965 158.90109107 -163.52490234 162.86254883 C-161.95288033 164.93462309 -160.40909403 167.02470668 -158.875 169.125 C-157.8329858 170.54592846 -156.78879099 171.96526094 -155.7421875 173.3828125 C-155.2869873 174.00559082 -154.83178711 174.62836914 -154.36279297 175.27001953 C-153.01213224 176.98459888 -151.55418304 178.47102663 -150 180 C-149.97473261 172.75513449 -149.9571682 165.51028026 -149.94506836 158.26538086 C-149.94002644 155.79857967 -149.93319309 153.33178148 -149.92456055 150.86499023 C-149.91248875 147.32795471 -149.90677044 143.79095855 -149.90234375 140.25390625 C-149.89718246 139.14350479 -149.89202118 138.03310333 -149.88670349 136.88905334 C-149.88659019 135.35757912 -149.88659019 135.35757912 -149.88647461 133.79516602 C-149.884254 132.89137711 -149.88203339 131.9875882 -149.87974548 131.05641174 C-149.77099538 129.00746419 -149.77099538 129.00746419 -151 128 C-152.6195634 127.90396978 -154.24333083 127.87812145 -155.86573792 127.87974548 C-157.4454538 127.87768349 -157.4454538 127.87768349 -159.05708313 127.87557983 C-160.22233017 127.87917511 -161.38757721 127.88277039 -162.58813477 127.88647461 C-163.80747711 127.88632858 -165.02681946 127.88618256 -166.28311157 127.8860321 C-169.63627511 127.88661107 -172.98937774 127.89164032 -176.34253049 127.89860606 C-179.84325562 127.90484017 -183.34398148 127.90544344 -186.8447113 127.90663147 C-193.47809656 127.90974462 -200.11146541 127.91795778 -206.74484342 127.92798096 C-215.0349706 127.94023669 -223.32510041 127.94572468 -231.61523438 127.95117188 C-246.41016904 127.96092321 -261.20506789 127.98095346 -276 128 Z M90 128 C90 171.89 90 215.78 90 261 C122.34 261 154.68 261 188 261 C188 227.01 188 193.02 188 158 C179.09 157.67 170.18 157.34 161 157 C156.9269077 154.96345385 156.1374621 154.20138208 154.57177734 150.11279297 C153.49851155 146.1469338 153.42131309 142.15076311 153.3125 138.0625 C153.27833984 137.18787109 153.24417969 136.31324219 153.20898438 135.41210938 C153.12724343 133.27516746 153.0619287 131.13760782 153 129 C147.24242509 128.85439547 141.48477891 128.71216851 135.72705078 128.57275391 C133.77813598 128.52512584 131.82924153 128.47665594 129.88037109 128.42724609 C127.04009179 128.35539597 124.19974707 128.28682355 121.359375 128.21875 C120.5220282 128.19687622 119.6846814 128.17500244 118.82196045 128.15246582 C109.20946324 127.92852642 99.62477186 128 90 128 Z M171 139 C171 139.66 171 140.32 171 141 C171.66 140.67 172.32 140.34 173 140 C172.34 139.67 171.68 139.34 171 139 Z M-133 142 C-133 144.64 -133 147.28 -133 150 C-121.78 150 -110.56 150 -99 150 C-103.73236969 141.99824966 -103.73236969 141.99824966 -108.25146484 141.09179688 C-109.39309082 141.13369141 -110.5347168 141.17558594 -111.7109375 141.21875 C-112.95488281 141.24453125 -114.19882813 141.2703125 -115.48046875 141.296875 C-117.40826172 141.39742187 -117.40826172 141.39742187 -119.375 141.5 C-120.68339844 141.53609375 -121.99179688 141.5721875 -123.33984375 141.609375 C-126.56289345 141.70347864 -129.77993848 141.83483606 -133 142 Z M39 150 C50.22 150 61.44 150 73 150 C73 147.36 73 144.72 73 142 C68.45920109 141.76709258 63.91993906 141.62537763 59.375 141.5 C58.08980469 141.43296875 56.80460937 141.3659375 55.48046875 141.296875 C54.23652344 141.27109375 52.99257813 141.2453125 51.7109375 141.21875 C50.56931152 141.17685547 49.42768555 141.13496094 48.25146484 141.09179688 C43.73236969 141.99824966 43.73236969 141.99824966 39 150 Z M-133 167 C-133.00364563 167.89678467 -133.00729126 168.79356934 -133.01104736 169.7175293 C-133.04900087 178.19175581 -133.10593699 186.66560034 -133.18390274 195.13955688 C-133.22331905 199.49555919 -133.25553602 203.85136111 -133.27099609 208.20751953 C-133.28620147 212.41584393 -133.32071502 216.62361724 -133.36830902 220.83169556 C-133.38308301 222.43270055 -133.39103872 224.03378424 -133.39188385 225.63485718 C-133.4100312 242.78415867 -133.4100312 242.78415867 -138 248 C-144.12617686 253.19959326 -150.84163449 252.60231628 -158.58984375 252.609375 C-159.74262817 252.62500488 -160.8954126 252.64063477 -162.08312988 252.65673828 C-166.36771236 252.70913185 -170.6526559 252.72756926 -174.9375 252.75 C-184.528125 252.8325 -194.11875 252.915 -204 253 C-204 281.38 -204 309.76 -204 339 C-171.80333268 339.06608929 -139.60673098 339.12149979 -107.41001628 339.15319599 C-103.61221125 339.15694828 -99.81440637 339.16083123 -96.01660156 339.16479492 C-95.26050065 339.16558185 -94.50439973 339.16636878 -93.72538666 339.16717956 C-81.46941456 339.18024714 -69.2134845 339.20390839 -56.95753737 339.23145839 C-44.38953242 339.25947504 -31.82154955 339.27616832 -19.25351465 339.28226548 C-11.49318676 339.28638972 -3.73297771 339.29943348 4.0273136 339.3237494 C9.96962704 339.34142476 15.91187888 339.34337511 21.85421944 339.33932304 C24.2980237 339.34015204 26.74183223 339.34616757 29.18560982 339.35761642 C32.50878667 339.3724285 35.83144501 339.36899495 39.15463257 339.36076355 C40.1332168 339.36950207 41.11180104 339.3782406 42.12003934 339.38724393 C43.00532052 339.38127078 43.8906017 339.37529764 44.80270958 339.36914349 C45.57050409 339.37028265 46.33829859 339.37142181 47.1293596 339.37259549 C47.74667093 339.24963898 48.36398226 339.12668247 49 339 C51.28368965 336.26645051 51.28368965 336.26645051 50.75 333.625 C50.07445554 330.99006352 50.07445554 330.99006352 48.875 328.625 C47.62244532 324.86733597 47.97436984 322.85683737 49 319 C51.2112274 315.86248767 53.82676765 313.24425377 56.5625 310.5625 C57.25408203 309.83095703 57.94566406 309.09941406 58.65820312 308.34570312 C64.47984334 302.53491406 64.47984334 302.53491406 69.40234375 302.4609375 C73 303 73 303 75 304.0625 C79.28391468 306.07058501 84.37173008 304.15706748 88.75 303.0625 C92.93736754 300.40513214 93.64031653 297.89596435 95.078125 293.27734375 C96 291 96 291 99 289 C100.90112305 288.68115234 100.90112305 288.68115234 103.01171875 288.5859375 C103.76904297 288.54726563 104.52636719 288.50859375 105.30664062 288.46875 C106.09232422 288.4378125 106.87800781 288.406875 107.6875 288.375 C108.48478516 288.33632813 109.28207031 288.29765625 110.10351562 288.2578125 C112.06863475 288.16367506 114.0342854 288.08075368 116 288 C116 284.7 116 281.4 116 278 C114.96593018 277.98541748 113.93186035 277.97083496 112.86645508 277.95581055 C109.01763918 277.89769118 105.16940001 277.82045977 101.32104492 277.73754883 C99.65772892 277.70436345 97.99430204 277.67631166 96.33081055 277.65356445 C93.93490501 277.61990001 91.54000965 277.5675806 89.14453125 277.51171875 C88.4047554 277.50532883 87.66497955 277.4989389 86.90278625 277.49235535 C82.45785737 277.36672702 79.48407788 276.82882844 76 274 C74.24873952 271.12074308 73.7460316 268.95765156 73.7215271 265.60870361 C73.70478188 264.30046883 73.70478188 264.30046883 73.68769836 262.96580505 C73.68553818 262.01706009 73.68337799 261.06831512 73.68115234 260.09082031 C73.67110672 259.08561844 73.6610611 258.08041656 73.65071106 257.04475403 C73.61982282 253.72255016 73.60282808 250.40042709 73.5859375 247.078125 C73.56723041 244.77454938 73.54765735 242.47098064 73.5272522 240.16741943 C73.47587661 234.1044724 73.43627983 228.04150313 73.39910889 221.97845459 C73.35910333 215.79156979 73.30799525 209.60477789 73.2578125 203.41796875 C73.1609889 191.27871105 73.07660463 179.13940095 73 167 C65.44217846 166.82084089 57.88491461 166.69923338 50.32543945 166.61547852 C47.76012714 166.58052261 45.19495174 166.53294018 42.63012695 166.47192383 C23.55480243 165.78393628 23.55480243 165.78393628 6.02612305 172.25219727 C-10.65279249 181.88546523 -36.29127331 181.75242151 -54.375 176.9375 C-55.39424561 176.66848877 -55.39424561 176.66848877 -56.43408203 176.39404297 C-59.82929995 175.36100027 -62.64911755 174.23046376 -65.63427734 172.26977539 C-78.04664149 164.55823493 -91.7292486 166.23338463 -105.875 166.5625 C-108.50907301 166.59766635 -111.14319134 166.62959591 -113.77734375 166.65820312 C-120.18589568 166.73478285 -126.59273322 166.85145596 -133 167 Z M-179.5625 180.18359375 C-180.27188721 180.85946533 -180.98127441 181.53533691 -181.7121582 182.23168945 C-182.467146 182.95960693 -183.22213379 183.68752441 -184 184.4375 C-185.55523693 185.92006079 -187.11122192 187.40183725 -188.66796875 188.8828125 C-189.41868652 189.59856445 -190.1694043 190.31431641 -190.94287109 191.05175781 C-194.11156745 194.05273063 -197.35716611 196.96241476 -200.6171875 199.86328125 C-202.90079325 201.91103919 -205.15303926 203.9899783 -207.40014648 206.07763672 C-209.41957904 207.94602072 -211.45548356 209.79557455 -213.49755859 211.63916016 C-214.98181772 212.98353136 -216.45389597 214.34131124 -217.92578125 215.69921875 C-225.69980553 222.54853198 -225.69980553 222.54853198 -230.5 222.75 C-234 222 -234 222 -236 221 C-237.64075576 217.71848848 -237.7527005 214.52180968 -237 211 C-234.6875 208.25 -234.6875 208.25 -232 206 C-230.97560342 204.68531774 -229.97061415 203.35487488 -229 202 C-230.74886102 200.08228343 -232.49904501 198.16580317 -234.25 196.25 C-234.98669922 195.44175781 -234.98669922 195.44175781 -235.73828125 194.6171875 C-238.42873164 191.6756284 -241.1531511 188.7926232 -244 186 C-244.969375 186.72703125 -245.93875 187.4540625 -246.9375 188.203125 C-247.89849609 188.92072998 -247.89849609 188.92072998 -248.87890625 189.65283203 C-250.31154502 190.73159847 -251.73589247 191.82145189 -253.15234375 192.92138672 C-256.85994365 195.77620606 -260.49405415 198.34694986 -264.625 200.5546875 C-271.21145601 204.2812195 -271.21145601 204.2812195 -276 210 C-277.93192819 218.37794535 -277.34436367 227.5488208 -276 236 C-274.35263874 237.64736126 -272.44844708 237.12604563 -270.17895508 237.12698364 C-268.61402817 237.13121338 -268.61402817 237.13121338 -267.01748657 237.13552856 C-265.28599869 237.13249222 -265.28599869 237.13249222 -263.51953125 237.12939453 C-262.31154877 237.13114685 -261.10356628 237.13289917 -259.85897827 237.13470459 C-256.53674046 237.13836278 -253.21456457 237.13748968 -249.89233017 237.1343255 C-246.42276676 237.13180152 -242.95320608 237.13413955 -239.48364258 237.13571167 C-233.65608238 237.13753325 -227.82853484 237.13512735 -222.00097656 237.13037109 C-215.25438708 237.12492849 -208.50782781 237.12669116 -201.76123905 237.1321975 C-195.97865826 237.13672895 -190.19608659 237.13737902 -184.4135046 237.13475883 C-180.95548444 237.13319623 -177.49747849 237.13300182 -174.03945923 237.13629532 C-170.18645036 237.13970839 -166.33347561 237.13498377 -162.48046875 237.12939453 C-161.32614349 237.13141876 -160.17181824 237.13344299 -158.98251343 237.13552856 C-157.93922882 237.13270874 -156.89594421 237.12988892 -155.82104492 237.12698364 C-154.90884689 237.12660662 -153.99664886 237.12622959 -153.05680847 237.12584114 C-151.00758813 237.22845647 -151.00758813 237.22845647 -150 236 C-148.25050164 224.06269554 -147.33986544 211.17899482 -154.50463867 200.96362305 C-156.95897743 197.89481858 -159.49811987 194.9349338 -162.16113281 192.04541016 C-164.92457358 188.97157761 -167.31416829 185.64686242 -169.75 182.3125 C-171.11319035 180.50017905 -172.51254431 178.71180335 -174 177 C-176.83279809 177 -177.53901021 178.2395617 -179.5625 180.18359375 Z M-229 253 C-229.09357306 268.50782639 -229.16404263 284.01563156 -229.20724869 299.52367401 C-229.22784613 306.72486324 -229.25591238 313.92587672 -229.30175781 321.12695312 C-229.34171241 327.40574913 -229.3674533 333.68441782 -229.37635398 339.96333742 C-229.38155431 343.28595575 -229.39583685 346.60812645 -229.42292023 349.9306488 C-229.45199885 353.6460419 -229.45595394 357.36068311 -229.45410156 361.07617188 C-229.46848267 362.16949829 -229.48286377 363.26282471 -229.49768066 364.38928223 C-229.45637503 372.05669802 -228.11528695 377.1709321 -223.17578125 383.2421875 C-222.56089844 383.78101563 -221.94601563 384.31984375 -221.3125 384.875 C-220.40951172 385.70644531 -220.40951172 385.70644531 -219.48828125 386.5546875 C-212.76873182 390.45772249 -204.79550516 390.2860939 -197.23692322 390.24050903 C-196.18792754 390.24221788 -195.13893187 390.24392673 -194.05814844 390.24568737 C-190.56205106 390.24896749 -187.0661479 390.23800285 -183.57006836 390.22705078 C-181.05645757 390.22648635 -178.54284644 390.22680385 -176.02923584 390.22793579 C-170.62728872 390.22839044 -165.22540354 390.22273743 -159.82346916 390.21146011 C-152.0133125 390.19516595 -144.20317916 390.18999311 -136.39300735 390.18748413 C-123.71975529 390.18311316 -111.04652906 390.16982031 -98.37329102 390.15087891 C-86.0666517 390.13250461 -73.76001941 390.1183557 -61.45336914 390.10986328 C-60.3143901 390.10907511 -60.3143901 390.10907511 -59.15240138 390.10827102 C-55.34289896 390.10566083 -51.5333965 390.10313344 -47.723894 390.10064721 C-16.14924389 390.07993333 15.42537412 390.04457484 47 390 C46.64926007 388.03639198 46.64926007 388.03639198 46 386 C43.99871813 384.6467464 43.99871813 384.6467464 41.5625 383.75 C40.75941406 383.41484375 39.95632813 383.0796875 39.12890625 382.734375 C37.06022294 381.8913008 37.06022294 381.8913008 35 382 C33.92375586 376.55547082 33.67807034 371.15417411 33.4375 365.625 C33.39431641 364.69816406 33.35113281 363.77132812 33.30664062 362.81640625 C33.20123814 360.54439706 33.09911394 358.27229075 33 356 C31.7143323 355.99761165 30.42866461 355.99522329 29.10403728 355.99276257 C-1.39482084 355.93543941 -31.89359898 355.8627351 -62.39237158 355.77101372 C-66.14382356 355.75974515 -69.89527591 355.74860677 -73.64672852 355.73754883 C-74.39359528 355.73534514 -75.14046204 355.73314146 -75.90996113 355.730871 C-88.0132611 355.69547001 -100.11656101 355.67062172 -112.21989361 355.64965298 C-124.63313586 355.6279132 -137.04631075 355.59488023 -149.45949572 355.55129844 C-157.1230475 355.52475018 -164.78651531 355.50707824 -172.45011082 355.50065396 C-178.32024053 355.49479103 -184.19024571 355.47323844 -190.06031609 355.44572449 C-192.47304076 355.43689864 -194.8857904 355.433231 -197.29853058 355.43499184 C-200.58200133 355.43663217 -203.86487979 355.42005146 -207.14826965 355.39872742 C-208.1122682 355.40357499 -209.07626675 355.40842257 -210.06947738 355.41341704 C-210.94629942 355.4039605 -211.82312146 355.39450396 -212.72651386 355.38476086 C-213.48481536 355.38286225 -214.24311686 355.38096365 -215.02439719 355.37900752 C-217.54027959 354.89635061 -218.43372439 353.98832763 -220 352 C-220.38476086 350.08473682 -220.38476086 350.08473682 -220.39872742 347.8808136 C-220.41126556 347.04368835 -220.42380371 346.20656311 -220.4367218 345.34407043 C-220.43528671 344.42913315 -220.43385162 343.51419586 -220.43237305 342.5715332 C-220.4425647 341.60549164 -220.45275635 340.63945007 -220.46325684 339.64413452 C-220.49348693 336.44629187 -220.50266816 333.24874826 -220.51171875 330.05078125 C-220.52855799 327.83545427 -220.5467072 325.62013689 -220.56611633 323.40483093 C-220.6137043 317.57037353 -220.64345681 311.73595502 -220.66955566 305.90136719 C-220.6993168 299.94914056 -220.74586236 293.99704812 -220.79101562 288.04492188 C-220.87714885 276.36335131 -220.94444958 264.68175321 -221 253 C-223.64 253 -226.28 253 -229 253 Z M133 278 C133 285.59 133 293.18 133 301 C138.18010841 304.1490712 138.18010841 304.1490712 141 304 C141 295.42 141 286.84 141 278 C138.36 278 135.72 278 133 278 Z M108 305 C107.72893433 305.8962207 107.72893433 305.8962207 107.45239258 306.81054688 C105.74624144 311.53129717 104.31483834 314.35397532 99.69921875 316.59375 C98.04135648 317.2616279 96.36991978 317.89664946 94.6875 318.5 C93.44323242 318.99886719 93.44323242 318.99886719 92.17382812 319.5078125 C85.35546246 322.1555125 79.94978822 324.00531382 73 321 C70.14785003 321.16777353 69.22254237 321.79229378 67.125 323.75 C66.75375 324.4925 66.3825 325.235 66 326 C66.60968047 327.68834592 67.28837557 329.35202764 68 331 C69.00154353 338.0108047 66.62368568 342.68679642 63.50390625 348.93359375 C62.32098398 351.34552617 61.4396524 353.58393192 60.625 356.125 C58.23135672 360.35990734 55.60021056 360.71797411 51 362 C51 364.64 51 367.28 51 370 C51.58007812 370.18691406 52.16015625 370.37382812 52.7578125 370.56640625 C58.05411386 372.79504791 60.46337056 375.12507925 62.68115234 380.52124023 C63.84494941 383.66213993 64.91953794 386.8294638 66 390 C66.37769531 390.7321875 66.75539063 391.464375 67.14453125 392.21875 C69.09379307 396.27748693 68.3695674 400.8912978 67 405 C66.505 405.99 66.505 405.99 66 407 C67.98 408.65 69.96 410.3 72 412 C73.0209375 411.505 73.0209375 411.505 74.0625 411 C78.7674127 409.39832759 82.61242861 409.48957195 87.28125 411.20703125 C88.3434375 411.73683594 89.405625 412.26664062 90.5 412.8125 C94.00342114 414.55013253 97.33212351 416.15229651 101.0625 417.3125 C105.39142497 419.79932924 106.44835761 423.40289802 108 428 C110.31 428 112.62 428 115 428 C115.25652344 427.39671875 115.51304687 426.7934375 115.77734375 426.171875 C119.03926454 419.36247807 122.07995969 417.4775453 129 415 C130.87923812 414.09205349 132.75416532 413.17513803 134.625 412.25 C140.35252775 409.65384028 144.3412102 409.22653388 150.4375 411 C151.283125 411.33 152.12875 411.66 153 412 C155.16641665 410.33454661 155.16641665 410.33454661 157 408 C156.88658466 405.59122743 156.88658466 405.59122743 156 403 C154.45990733 396.6737732 155.7500946 393.04559716 158.375 387.375 C161.34193342 380.89984939 161.34193342 380.89984939 163 374 C163.9075 373.71125 164.815 373.4225 165.75 373.125 C168.32202908 372.23468224 170.61346766 371.28505587 173 370 C173 367.69 173 365.38 173 363 C172.39671875 362.75507813 171.7934375 362.51015625 171.171875 362.2578125 C166.4580133 360.0529417 163.64842454 358.34254422 161.75 353.375 C161.47285156 352.51003906 161.19570313 351.64507812 160.91015625 350.75390625 C159.92397786 347.76997592 158.60268397 345.11587533 157.1875 342.3125 C154.59181823 336.6845539 155.04079334 333.1727605 156.8125 327.3125 C157.28896982 324.79523069 157.28896982 324.79523069 155.0625 322.6875 C154.381875 322.130625 153.70125 321.57375 153 321 C151.96875 321.33 150.9375 321.66 149.875 322 C142.87721456 323.91356608 138.94125042 322.75429887 132.66015625 319.34375 C130.03773306 318.01906046 127.47906874 317.1486272 124.6875 316.25 C119.67356401 314.35496908 117.96495275 311.58024381 115.7421875 306.828125 C115.49726563 306.22484375 115.25234375 305.6215625 115 305 C112.69 305 110.38 305 108 305 Z M-96 407 C-96 416.9 -96 426.8 -96 437 C-61.68 437 -27.36 437 8 437 C8 427.1 8 417.2 8 407 C-26.32 407 -60.64 407 -96 407 Z M-164.9375 459.3125 C-168.13902334 464.33225052 -168.13902334 464.33225052 -167 477 C-85.82 477 -4.64 477 79 477 C80.08389133 465.12853308 80.08389133 465.12853308 74.8984375 457.234375 C69.53815735 453.74908997 64.05430559 453.71165401 57.89759827 453.73930359 C56.99086205 453.73547804 56.08412584 453.73165249 55.14991277 453.72771102 C52.11689105 453.71740661 49.08405953 453.72136832 46.05102539 453.7253418 C43.87433192 453.72099393 41.69763998 453.71581053 39.52095032 453.70985413 C33.61191591 453.69646145 27.70294545 453.69588573 21.79389882 453.69841743 C16.86087575 453.69948688 11.92786563 453.69460446 6.99484533 453.689812 C-4.64236231 453.67871605 -16.27953767 453.67828003 -27.91674805 453.68432617 C-39.92281979 453.69036802 -51.92875695 453.67804976 -63.93481058 453.6567561 C-74.24324349 453.63914544 -84.5516391 453.63313788 -94.8600865 453.63639385 C-101.0166855 453.63820757 -107.17320092 453.63556143 -113.3297863 453.62167931 C-119.11888142 453.60911424 -124.90779378 453.61103269 -130.69688606 453.62409019 C-132.82091458 453.62645833 -134.9449559 453.62371283 -137.06896973 453.61546707 C-139.96973052 453.60501824 -142.86987595 453.61308552 -145.77061462 453.6257782 C-146.60992254 453.61840391 -147.44923045 453.61102963 -148.31397194 453.60343188 C-155.00344986 453.66495693 -159.58030977 455.09513748 -164.9375 459.3125 Z " fill="#F37F1A" transform="translate(300,11)"/>
<path d="M0 0 C1.15311689 0.67547759 2.30643898 1.350605 3.45996094 2.02539062 C5.72089839 3.35052446 7.9802301 4.67840255 10.23779297 6.00927734 C12.85658267 7.54511828 15.48664097 9.05588317 18.12890625 10.55078125 C25.81273026 14.9354033 32.11711133 18.75356089 35.75 27.125 C36.95141929 35.00097092 36.01014682 41.33736519 31.3125 47.8125 C25.89729537 52.9342699 19.51771721 56.34199707 13.0625 60 C11.90075135 60.66320836 10.73921331 61.32678577 9.57788086 61.99072266 C6.16138515 63.9407117 2.73768296 65.87780721 -0.6875 67.8125 C-1.65220215 68.35825684 -2.6169043 68.90401367 -3.61083984 69.46630859 C-6.11264043 70.8786668 -8.61746604 72.28535046 -11.125 73.6875 C-11.85686523 74.09766357 -12.58873047 74.50782715 -13.34277344 74.93041992 C-19.99801524 78.6193208 -25.61943644 80.24763127 -33.1015625 78.12890625 C-39.69998851 75.46967436 -43.24975078 71.89086165 -46.29321289 65.37451172 C-48.28244879 59.86408064 -48.1364493 54.36870586 -48.12109375 48.5703125 C-48.12895653 46.82498734 -48.12895653 46.82498734 -48.13697815 45.04440308 C-48.14337936 42.59194738 -48.14208611 40.1394609 -48.13354492 37.68701172 C-48.12504249 33.95614327 -48.15381389 30.22681099 -48.18554688 26.49609375 C-48.1871594 24.10416712 -48.18658038 21.71223781 -48.18359375 19.3203125 C-48.19482773 18.21583771 -48.20606171 17.11136292 -48.21763611 15.97341919 C-48.14955438 8.32012682 -47.21953899 0.82436136 -41.97874451 -5.12838745 C-28.35213275 -17.87886993 -13.25085428 -7.81111187 0 0 Z M-27.6875 5.8125 C-30.45749388 8.64404253 -31.06448982 10.70846458 -31.07568359 14.609375 C-31.08514008 15.5571582 -31.09459656 16.50494141 -31.1043396 17.48144531 C-31.09826691 18.49819336 -31.09219421 19.51494141 -31.0859375 20.5625 C-31.08880768 21.61276367 -31.09167786 22.66302734 -31.09463501 23.74511719 C-31.09667521 25.9641982 -31.09114845 28.18329721 -31.07861328 30.40234375 C-31.06255959 33.79988806 -31.07846407 37.19624271 -31.09765625 40.59375 C-31.09567381 42.75000263 -31.09183012 44.90625451 -31.0859375 47.0625 C-31.09201019 48.07924805 -31.09808289 49.09599609 -31.1043396 50.14355469 C-31.09488312 51.09133789 -31.08542664 52.03912109 -31.07568359 53.015625 C-31.07329681 53.84739258 -31.07091003 54.67916016 -31.06845093 55.53613281 C-30.60485869 58.30632204 -29.5082173 59.71485535 -27.6875 61.8125 C-22.92925917 61.25752354 -19.37845705 59.08079779 -15.375 56.625 C-13.87972697 55.72129689 -12.38357769 54.81904258 -10.88671875 53.91796875 C-10.06864746 53.42474121 -9.25057617 52.93151367 -8.40771484 52.42333984 C-5.3840285 50.63279214 -2.3306154 48.9015814 0.73046875 47.17578125 C1.81996826 46.55662842 2.90946777 45.93747559 4.03198242 45.29956055 C6.20000988 44.06896254 8.37329787 42.84758158 10.55200195 41.63598633 C11.54546631 41.06775146 12.53893066 40.4995166 13.5625 39.9140625 C14.45453125 39.41213379 15.3465625 38.91020508 16.265625 38.39306641 C18.39937322 36.96708572 18.39937322 36.96708572 19.359375 34.86865234 C19.51359819 32.64838975 19.51359819 32.64838975 17.70825195 30.75854492 C15.22624975 28.7424398 12.78637649 27.20779959 9.98046875 25.67578125 C8.94100098 25.10230957 7.9015332 24.52883789 6.83056641 23.93798828 C5.73147949 23.33970215 4.63239258 22.74141602 3.5 22.125 C-4.56348497 17.6865441 -12.57684552 13.22155314 -20.35864258 8.30200195 C-23.06623039 6.6230628 -24.42723009 5.8125 -27.6875 5.8125 Z " fill="#EF611F" transform="translate(282.6875,65.1875)"/>
<path d="M0 0 C8.36678178 6.25796935 14.4994808 15.39600474 16.38671875 25.78515625 C17.28930516 37.84113188 16.76968341 48.60138063 9.2265625 58.66796875 C0.52329348 68.63531858 -8.69141757 74.75954467 -21.984375 76.0078125 C-34.52733212 76.46939332 -45.41381944 72.34496834 -54.6796875 63.90234375 C-62.42132969 55.64236266 -66.45432568 45.73293467 -66.6796875 34.46484375 C-66.23553774 22.21707773 -62.63537614 12.81508608 -54.06640625 3.9765625 C-38.56609532 -9.87005284 -17.39759572 -11.11588926 0 0 Z M-43.61328125 17.78515625 C-48.24076664 24.21360892 -50.4200743 30.38972774 -49.23828125 38.29296875 C-47.34404929 46.03564189 -42.97499935 51.78835493 -36.36328125 56.22265625 C-30.33814472 59.24873379 -23.28458952 59.56357739 -16.86328125 57.72265625 C-9.33891063 54.712908 -4.82607051 49.83968489 -1.49609375 42.49609375 C0.81013789 35.41412579 0.13741976 28.47293421 -3.21875 21.85546875 C-7.17240769 15.98589291 -12.83441661 11.77206485 -19.61328125 9.78515625 C-28.75183453 8.71974199 -37.33251398 10.65275952 -43.61328125 17.78515625 Z " fill="#F2751C" transform="translate(436.61328125,343.21484375)"/>
<path d="M0 0 C21.10842669 3.44979394 38.7587593 14.90208343 51.16015625 32.125 C52.83157339 34.73681107 54.13717869 37.31738583 55.4375 40.125 C56.86408305 42.91809944 57.4085948 43.79936172 60.41796875 44.8203125 C62.18934311 45.10148303 63.96578756 45.352749 65.74609375 45.5703125 C68 46 68 46 70.1875 48.125 C72.15678272 55.09323118 69.10315402 62.99054586 67.1875 69.75 C66.93935547 70.68199219 66.69121094 71.61398438 66.43554688 72.57421875 C63.98933569 81.25111034 63.98933569 81.25111034 60 84 C56.00210874 84.73294673 53.64076246 84.97762096 50.125 82.8828125 C47.92556579 81.04078635 45.9770112 79.08141895 44 77 C43.50322754 76.48018555 43.00645508 75.96037109 42.49462891 75.42480469 C31.13834012 63.49407328 31.13834012 63.49407328 30.6875 58.625 C31 55 31 55 32.6875 52.6875 C35.058934 50.95699411 37.26939487 50.03699598 40 49 C30.89262305 33.69185577 19.36481934 24.16281258 2.1875 18.8125 C-2.21151546 17.78782973 -6.66627377 17.62430605 -11.16796875 17.44140625 C-15.09760625 16.82892482 -17.95439386 15.378299 -20.375 12.1875 C-21.26089715 9.08685996 -20.89945179 7.08383471 -20 4 C-15.27360621 -2.37889822 -7.12971005 -0.72675998 0 0 Z " fill="#EC4724" transform="translate(377,28)"/>
<path d="M0 0 C0.67055923 -0.00619858 1.34111847 -0.01239716 2.03199768 -0.01878357 C3.44652865 -0.02586903 4.86114324 -0.02272972 6.27563477 -0.01000977 C8.43207476 0.00384629 10.58416159 -0.03020533 12.74023438 -0.06835938 C14.11849064 -0.06931082 15.4967523 -0.0674504 16.875 -0.0625 C18.1220874 -0.0632251 19.3691748 -0.0639502 20.65405273 -0.06469727 C24.89754394 0.73476522 26.38638993 2.19252072 29.00390625 5.56640625 C29.55006114 10.01366748 29.11315488 12.69521499 27.00390625 16.56640625 C42.17208598 21.06068173 58.61794894 19.52302651 72.62890625 12.37890625 C76.92707941 9.97562664 80.59395463 7.34400994 84.31640625 4.12890625 C87.34550629 1.59234281 89.37529383 0.0154809 93.37890625 -0.18359375 C97.00390625 0.56640625 97.00390625 0.56640625 99.50390625 2.06640625 C101.17760587 4.85590561 101.52137693 7.13290733 101.6328125 10.37109375 C99.07764357 19.29037907 87.7874476 24.85641716 80.2734375 29.11328125 C62.5341427 37.80848778 41.1811046 39.93439774 22.36938477 33.55078125 C20.2222606 32.82064685 20.2222606 32.82064685 17.00390625 32.56640625 C14.20937678 34.8399962 14.20937678 34.8399962 12.00390625 37.56640625 C8.50390625 38.19140625 8.50390625 38.19140625 5.00390625 37.56640625 C0.04118488 33.5089906 -2.74577116 28.31115045 -5.80859375 22.75390625 C-6.31068359 21.88958984 -6.81277344 21.02527344 -7.33007812 20.13476562 C-10.35468527 14.68224254 -11.98941259 10.81688197 -10.99609375 4.56640625 C-7.83816835 0.23945043 -5.19820506 0.04537715 0 0 Z " fill="#F37D1A" transform="translate(224.99609375,261.43359375)"/>
<path d="M0 0 C1.03125 0.30035156 2.0625 0.60070312 3.125 0.91015625 C4.11242187 1.21308594 5.09984375 1.51601563 6.1171875 1.828125 C7.00776855 2.10043945 7.89834961 2.37275391 8.81591797 2.65332031 C11.54708549 3.95046606 12.60124033 5.16124702 14.125 7.75 C14.78039471 11.15805247 14.89453339 13.48417334 13.046875 16.5234375 C11.19234074 18.74325881 9.19418346 20.72694483 7.125 22.75 C6.61001953 23.28592773 6.09503906 23.82185547 5.56445312 24.37402344 C3.81751069 26.1920042 2.03854897 27.97299937 0.25 29.75 C-0.31412598 30.33861816 -0.87825195 30.92723633 -1.45947266 31.53369141 C-4.76159943 34.70834465 -7.00470407 36.14000045 -11.6640625 36.265625 C-15.11722803 36.13514708 -15.67358509 35.93127342 -18.375 33.5 C-19.66912753 31.12743286 -20.29896796 29.34214416 -20.875 26.75 C-37.07278329 37.19460722 -46.61536039 48.82561043 -51.875 67.75 C-52.22264714 69.41373987 -52.55747372 71.08024973 -52.875 72.75 C-53.46105166 75.48656327 -53.96491661 76.89179158 -55.5 79.3125 C-58.97174443 81.413819 -61.9254097 81.50268832 -65.875 80.75 C-68.375 79.4375 -68.375 79.4375 -69.875 76.75 C-72.54750324 61.16039774 -64.29409442 45.24877556 -55.84765625 32.75 C-48.50876742 23.12881241 -38.17965509 14.31534148 -26.875 9.75 C-26.215 9.75 -25.555 9.75 -24.875 9.75 C-25.101875 8.698125 -25.32875 7.64625 -25.5625 6.5625 C-25.9084979 2.34132563 -25.45899538 1.0039201 -22.875 -2.25 C-15.90576288 -5.73461856 -6.8851238 -2.157104 0 0 Z " fill="#F1711C" transform="translate(152.875,31.25)"/>
<path d="M0 0 C1.26481201 -0.01253311 2.52962402 -0.02506622 3.83276367 -0.03797913 C5.20492587 -0.02571038 6.57707819 -0.0122903 7.94921875 0.00219727 C9.36499209 0.001368 10.78076532 -0.00109358 12.1965332 -0.00511169 C15.15898737 -0.0079656 18.12068377 0.00668972 21.08300781 0.03417969 C24.87291214 0.06826339 28.6614621 0.0622413 32.45143127 0.04351711 C35.37352713 0.03292867 38.29530994 0.04190134 41.21737671 0.05690193 C42.61436024 0.06207078 44.01137665 0.06161769 45.40835571 0.05535698 C47.36342616 0.04988362 49.31851262 0.07317922 51.2734375 0.09765625 C52.93959106 0.10695412 52.93959106 0.10695412 54.6394043 0.11643982 C58.31358274 0.74732666 60.00060208 2.0422882 62.63671875 4.63110352 C63.30078125 6.84985352 63.30078125 6.84985352 63.26171875 9.13110352 C63.28105469 10.26032227 63.28105469 10.26032227 63.30078125 11.41235352 C62.3093461 14.7249133 60.4795442 15.74513581 57.63671875 17.63110352 C54.67063904 18.12557983 54.67063904 18.12557983 51.34936523 18.11694336 C50.10134628 18.12309662 48.85332733 18.12924988 47.56748962 18.1355896 C46.21425638 18.12179378 44.86103049 18.10725981 43.5078125 18.09204102 C42.11206737 18.08965464 40.71631898 18.08875168 39.3205719 18.08926392 C36.40109023 18.086142 33.48210176 18.06962325 30.56274414 18.04272461 C26.82460263 18.00871373 23.08700154 18.0010973 19.34872341 18.00261497 C16.46876386 18.00207065 13.58892192 17.99109404 10.70900154 17.97661209 C9.33072867 17.97025836 7.95244252 17.96630853 6.57415581 17.96482468 C4.64761422 17.96047849 2.72112303 17.94137665 0.79467773 17.92163086 C-0.30054703 17.91400726 -1.39577179 17.90638367 -2.52418518 17.89852905 C-5.35077595 17.63228144 -6.99469126 17.15754193 -9.36328125 15.63110352 C-11.66296688 12.41154363 -11.91676763 9.50550819 -11.36328125 5.63110352 C-7.81900722 1.21754681 -5.62858356 0.00487352 0 0 Z " fill="#EF5E20" transform="translate(413.36328125,240.368896484375)"/>
<path d="M0 0 C1.93209068 -0.01879967 1.93209068 -0.01879967 3.9032135 -0.03797913 C5.30063899 -0.02571173 6.69805477 -0.01229185 8.09545898 0.00219727 C9.53604817 0.00136811 10.97663725 -0.00109306 12.41722107 -0.00511169 C15.43094484 -0.00796549 18.44392366 0.00669069 21.45751953 0.03417969 C25.31701637 0.06829397 29.17518438 0.06223098 33.03474522 0.04351711 C36.00741115 0.0329411 38.97976866 0.04188957 41.95240593 0.05690193 C43.37533591 0.06207783 44.79829817 0.0616091 46.22122383 0.05535698 C48.21002504 0.04989744 50.19884233 0.07314629 52.1875 0.09765625 C53.31825455 0.10385483 54.44900909 0.11005341 55.61402893 0.11643982 C59.15865762 0.74226377 60.34033198 1.83048322 62.52905273 4.63110352 C63.45771783 8.37501318 63.03279926 11.69557425 61.21655273 15.06860352 C58.02638805 18.0224597 54.71422412 17.77037816 50.57641602 17.80810547 C49.35149445 17.8209407 48.12657288 17.83377594 46.86453247 17.84700012 C45.52614751 17.85516721 44.18775797 17.862611 42.84936523 17.86938477 C42.17433834 17.87346029 41.49931145 17.87753582 40.80382919 17.88173485 C37.23193419 17.90257217 33.66007735 17.91688478 30.08813477 17.92626953 C26.40370491 17.93733846 22.71987825 17.97174953 19.0356617 18.01144123 C16.19773248 18.03761125 13.35994708 18.04596156 10.52190781 18.04955101 C9.16394851 18.05441486 7.80599554 18.06602334 6.44815445 18.084589 C4.54574431 18.10898697 2.64303972 18.10559497 0.74047852 18.10107422 C-0.88142899 18.10987358 -0.88142899 18.10987358 -2.53610229 18.11885071 C-6.17864992 17.51348913 -7.83897857 16.16785558 -10.47094727 13.63110352 C-11.91525581 10.74248642 -11.84783232 8.8346265 -11.47094727 5.63110352 C-7.90970652 1.16103104 -5.67316679 0.00482191 0 0 Z " fill="#EE5A21" transform="translate(413.470947265625,211.368896484375)"/>
<path d="M0 0 C1.30815674 -0.01253311 2.61631348 -0.02506622 3.96411133 -0.03797913 C5.38884476 -0.02571084 6.81356867 -0.01229082 8.23828125 0.00219727 C9.70271989 0.00136838 11.16715844 -0.00109176 12.6315918 -0.00511169 C15.69836485 -0.00796842 18.76440705 0.00671759 21.83105469 0.03417969 C25.75895453 0.06826368 29.68554773 0.06224388 33.61351013 0.04351711 C36.63678853 0.03294029 39.6597637 0.04189084 42.68301392 0.05690193 C44.13106383 0.06207929 45.57914548 0.06160731 47.02719116 0.05535698 C49.05202334 0.04989769 51.07687132 0.07314567 53.1015625 0.09765625 C54.25309814 0.10385483 55.40463379 0.11005341 56.59106445 0.11643982 C60.16835556 0.73849321 61.34688099 1.80322008 63.55078125 4.63110352 C64.27883076 7.37199579 64.12521366 9.86131558 63.55078125 12.63110352 C61.34337444 15.59968508 60.06480752 16.45976142 56.55078125 17.63110352 C54.62980677 17.73466992 52.70546142 17.77965655 50.78173828 17.79223633 C49.59685822 17.80184387 48.41197815 17.81145142 47.19119263 17.8213501 C45.909935 17.82559998 44.62867737 17.82984985 43.30859375 17.83422852 C41.99293427 17.83992859 40.67727478 17.84562866 39.32174683 17.85150146 C36.53594578 17.86200071 33.75017351 17.86785043 30.96435547 17.87133789 C27.40109867 17.87682107 23.83822428 17.90084934 20.27508736 17.92930984 C16.86959683 17.95245395 13.46415885 17.95438689 10.05859375 17.95922852 C8.14278 17.97774872 8.14278 17.97774872 6.18826294 17.99664307 C4.99707855 17.99364197 3.80589417 17.99064087 2.57861328 17.98754883 C1.5328714 17.99119446 0.48712952 17.99484009 -0.59030151 17.99859619 C-3.9218623 17.57034868 -5.76253846 16.62105067 -8.44921875 14.63110352 C-10.79090639 11.11857206 -10.94545552 9.76640996 -10.44921875 5.63110352 C-7.51238614 0.81746031 -5.56130619 0.0046448 0 0 Z " fill="#EE5521" transform="translate(412.44921875,182.368896484375)"/>
<path d="M0 0 C2.23636008 -0.00218252 4.47222351 -0.02033848 6.70849609 -0.03930664 C8.13687983 -0.04224166 9.5652659 -0.04422573 10.99365234 -0.04516602 C12.28899902 -0.0492749 13.5843457 -0.05338379 14.91894531 -0.05761719 C18.2574133 0.17693836 20.44877034 0.59789898 23.37646484 2.18530273 C25.86805524 5.92268833 25.83439769 7.75861856 25.37646484 12.18530273 C23.87231445 14.87036133 23.87231445 14.87036133 21.37646484 17.18530273 C18.41243409 17.69379509 16.02987267 17.88814777 13.06787109 17.84936523 C12.26413559 17.85414886 11.46040009 17.8589325 10.63230896 17.86386108 C8.93527262 17.86725798 7.23817066 17.85806999 5.54125977 17.8371582 C2.9503293 17.81042001 0.36374395 17.83689009 -2.22705078 17.86889648 C-3.87875301 17.86559166 -5.53045255 17.85918391 -7.18212891 17.84936523 C-7.9531041 17.85948639 -8.72407928 17.86960754 -9.51841736 17.8800354 C-13.53941468 17.7929207 -15.41907378 17.34614279 -18.6159668 14.83129883 C-20.62353516 12.18530273 -20.62353516 12.18530273 -21.18603516 9.18530273 C-20.49559659 5.5029637 -19.25539588 3.81716346 -16.62353516 1.18530273 C-11.31149431 -0.58537755 -5.56344778 -0.00060936 0 0 Z " fill="#ED5322" transform="translate(422.62353515625,152.814697265625)"/>
<path d="M0 0 C3.75531015 0.76462801 5.27259905 2.3588869 7.37890625 5.484375 C8.73375456 9.3795639 8.46439212 11.20417132 7.25390625 15.171875 C5.22856081 18.74998528 4.16525706 19.98744561 0.37890625 21.484375 C-3.56661864 22.07200637 -5.30572568 21.64812381 -8.87109375 19.796875 C-11.81425262 17.32194595 -12.8408541 16.21218664 -13.62109375 12.484375 C-13.54643121 8.30327262 -12.99222688 6.04706071 -10.68359375 2.546875 C-6.91336504 0.00774138 -4.47237304 -0.23994848 0 0 Z " fill="#F48918" transform="translate(86.62109375,160.515625)"/>
</svg>
