<?xml version="1.0" encoding="UTF-8"?>
<svg version="1.1" xmlns="http://www.w3.org/2000/svg" width="512" height="512">
<path d="M0 0 C0.70675369 -0.00350464 1.41350739 -0.00700928 2.14167786 -0.01062012 C4.44904763 -0.01933504 6.75610436 -0.01362756 9.06347656 -0.00683594 C10.67913878 -0.00818493 12.29480059 -0.01012742 13.91046143 -0.01263428 C17.28263242 -0.01557113 20.65469692 -0.01133218 24.02685547 -0.00195312 C28.34666219 0.00947737 32.66622134 0.00285023 36.98601913 -0.00909805 C40.31630318 -0.01632436 43.64652846 -0.01402582 46.97681427 -0.00884247 C48.57001017 -0.00751 50.16321143 -0.00913956 51.75640106 -0.01380157 C53.9796719 -0.01888356 56.20254037 -0.011135 58.42578125 0 C59.68960632 0.00159119 60.9534314 0.00318237 62.2555542 0.00482178 C65.28424111 0.245302 66.94935564 0.60387928 69.45410156 2.25878906 C72.01677065 5.43161746 71.50202895 8.51938568 71.13378906 12.35644531 C70.1599713 15.08201573 68.94444456 15.79528743 66.45410156 17.25878906 C63.29351807 17.6373291 63.29351807 17.6373291 59.51757812 17.64355469 C58.82758728 17.64892746 58.13759644 17.65430023 57.42669678 17.65983582 C55.93169195 17.66960146 54.43663053 17.67256162 52.94159698 17.66947937 C50.56965763 17.66499163 48.19846066 17.67902986 45.82659912 17.69787598 C40.78577873 17.73463911 35.74503623 17.74835408 30.70410156 17.75878906 C24.87404991 17.77089442 19.04435979 17.79261406 13.21446991 17.83879089 C10.88797008 17.85228818 8.56193573 17.84820263 6.2354126 17.84338379 C-2.71196661 17.87614133 -9.23057672 18.3542456 -16.79589844 23.44628906 C-23.60380984 30.40892572 -24.6958203 37.83291704 -24.68634033 47.25907898 C-24.68931145 48.17902942 -24.69228258 49.09897986 -24.69534373 50.04680759 C-24.7040314 53.13660159 -24.70553905 56.22635685 -24.70703125 59.31616211 C-24.71165941 61.52872297 -24.71668406 63.74128303 -24.72207642 65.95384216 C-24.7352034 71.97054633 -24.74164606 77.98723935 -24.74608707 84.0039556 C-24.74901756 87.76296689 -24.75312234 91.52197513 -24.75759125 95.28098488 C-24.76970045 105.69439762 -24.78008216 116.10780821 -24.78346634 126.52122784 C-24.78368591 127.18750344 -24.78390547 127.85377904 -24.78413169 128.54024481 C-24.78434997 129.20809152 -24.78456825 129.87593823 -24.78479314 130.56402272 C-24.7852366 131.91727491 -24.78568316 133.27052711 -24.78613281 134.6237793 C-24.78635424 135.29503544 -24.78657567 135.96629157 -24.78680381 136.65788881 C-24.79074962 147.52828293 -24.80819734 158.39860993 -24.83149233 169.26897814 C-24.85523152 180.4370597 -24.86741163 191.60511681 -24.86883426 202.77322608 C-24.8698822 209.04059044 -24.87578789 215.30786013 -24.89365387 221.57520103 C-24.91013795 227.47260675 -24.9122883 233.36984668 -24.90351486 239.26726723 C-24.90274465 241.42915923 -24.90708507 243.59106016 -24.91697311 245.75292969 C-24.92970265 248.71001007 -24.92381009 251.66650421 -24.91339111 254.62358093 C-24.92144752 255.4739912 -24.92950392 256.32440146 -24.93780446 257.20058173 C-24.87686647 264.62335618 -23.41222785 271.46553976 -18.54589844 277.25878906 C-18.54589844 277.91878906 -18.54589844 278.57878906 -18.54589844 279.25878906 C-17.74152344 279.66097656 -17.74152344 279.66097656 -16.92089844 280.07128906 C-15.15391733 280.95477961 -13.40666063 281.87794004 -11.67089844 282.82128906 C-5.02446961 285.87864632 1.97086931 285.41066674 9.14718628 285.41700745 C10.92509605 285.42441441 10.92509605 285.42441441 12.73892319 285.43197101 C16.02042381 285.44465809 19.30190158 285.45295847 22.58341932 285.45939767 C26.12528151 285.46741981 29.66712234 285.48111132 33.20896912 285.49411011 C39.34267379 285.51584717 45.47638066 285.53400176 51.61010361 285.54971504 C60.47840919 285.57243893 69.34669109 285.60057825 78.21497656 285.63003432 C92.60359371 285.67767937 106.99222054 285.72095191 121.38085938 285.76147461 C135.35710402 285.80084525 149.33334007 285.84227524 163.30957031 285.88647461 C164.60206838 285.89056102 164.60206838 285.89056102 165.92067753 285.89472998 C170.24345042 285.90840972 174.56622318 285.92212994 178.88899589 285.93587029 C214.74401323 286.04978656 250.59904895 286.15660663 286.45410156 286.25878906 C286.43839111 285.46182617 286.42268066 284.66486328 286.40649414 283.84375 C286.34412568 280.23216856 286.30510417 276.62070045 286.26660156 273.00878906 C286.22889648 271.12740234 286.22889648 271.12740234 286.19042969 269.20800781 C286.18076172 268.00273437 286.17109375 266.79746094 286.16113281 265.55566406 C286.14542236 264.44545898 286.12971191 263.33525391 286.11352539 262.19140625 C286.49402416 258.91502548 287.17584882 257.59897489 289.45410156 255.25878906 C291.89941406 254.09863281 291.89941406 254.09863281 294.57910156 253.19628906 C297.22602774 252.35979072 297.22602774 252.35979072 299.45410156 251.25878906 C299.78410156 250.26878906 300.11410156 249.27878906 300.45410156 248.25878906 C299.79755388 248.25992822 299.1410062 248.26106738 298.46456313 248.26224107 C259.57628059 248.32933468 220.68800549 248.38082818 181.79967682 248.41198505 C177.13321544 248.4157373 172.46675418 248.41962025 167.80029297 248.42358398 C166.87126102 248.42437092 165.94222906 248.42515785 164.98504463 248.42596862 C149.93042183 248.43903247 134.87583331 248.46269169 119.82123086 248.49024745 C104.38072424 248.51827444 88.94023561 248.53495958 73.4997046 248.54105455 C63.96745595 248.54517662 54.43530416 248.55820881 44.90308532 248.58253846 C38.37181339 248.59836227 31.84059173 248.60319706 25.309302 248.59929319 C21.53769369 248.5973664 17.76625496 248.60037765 13.99467659 248.61640549 C9.91029988 248.63363636 5.82628692 248.62777425 1.74188232 248.61955261 C0.54344877 248.62829114 -0.65498478 248.63702966 -1.88973451 248.64603299 C-2.98103472 248.64005984 -4.07233494 248.6340867 -5.19670486 248.62793255 C-6.61154281 248.62964129 -6.61154281 248.62964129 -8.05496335 248.63138455 C-11.03557496 248.18554297 -12.38785654 247.33722769 -14.54589844 245.25878906 C-15.79167857 241.52144866 -15.69063816 238.04854963 -15.68634033 234.1558075 C-15.68931145 233.32034938 -15.69228258 232.48489127 -15.69534373 231.62411624 C-15.70404058 228.81442356 -15.70553981 226.00477344 -15.70703125 223.19506836 C-15.71165871 221.18468128 -15.71668328 219.17429508 -15.72207642 217.16390991 C-15.73520904 211.69485118 -15.74164702 206.22580474 -15.74608707 200.7567327 C-15.74901631 197.34131247 -15.75312083 193.92589561 -15.75759125 190.51047707 C-15.77126824 179.82855198 -15.780934 169.14663459 -15.78479314 158.46470135 C-15.789275 146.12624253 -15.80682805 133.78789442 -15.83579373 121.44946927 C-15.85739606 111.91733214 -15.86749664 102.38522619 -15.86883426 92.85306484 C-15.86988329 87.1575459 -15.87581211 81.46213101 -15.89365387 75.7666378 C-15.91010953 70.40932007 -15.9123022 65.05218489 -15.90351486 59.69485092 C-15.90274315 57.72843119 -15.90710476 55.76200174 -15.91697311 53.79560661 C-15.92965535 51.11109331 -15.9238361 48.42723017 -15.91339111 45.74272156 C-15.92144752 44.96460056 -15.92950392 44.18647957 -15.93780446 43.38477916 C-15.8942287 38.59601188 -15.10153083 35.31664306 -12.54589844 31.25878906 C-8.13971273 27.47787893 -4.96265401 26.75556687 0.77294922 26.74121094 C1.47941086 26.73420166 2.1858725 26.72719238 2.91374207 26.7199707 C5.23229093 26.70246688 7.54960437 26.71398247 9.86816406 26.72753906 C11.48668653 26.72484253 13.10520742 26.72095876 14.72372437 26.71594238 C18.10796606 26.71005822 21.49178425 26.71857721 24.87597656 26.73730469 C29.21179078 26.76013066 33.54661653 26.74694201 37.88239479 26.72301483 C41.22131802 26.70855846 44.56000692 26.71316136 47.89893723 26.723526 C49.49771619 26.72619186 51.09651652 26.72292844 52.69527054 26.71360779 C54.92876821 26.70344015 57.16066453 26.71894163 59.39404297 26.74121094 C60.66390045 26.74439331 61.93375793 26.74757568 63.24209595 26.75085449 C67.03029109 27.34990552 68.19573675 28.21127283 70.45410156 31.25878906 C71.54353107 35.25336394 71.87547804 37.33577393 70.14160156 41.13378906 C68.45410156 43.25878906 68.45410156 43.25878906 66.45410156 44.25878906 C45.00410156 44.25878906 23.55410156 44.25878906 1.45410156 44.25878906 C1.45410156 105.96878906 1.45410156 167.67878906 1.45410156 231.25878906 C30.16410156 230.76378906 30.16410156 230.76378906 59.45410156 230.25878906 C50.5207555 221.48289662 50.5207555 221.48289662 41.56494141 212.72998047 C32.51528644 203.82082691 24.15196381 195.20393635 23.2141571 181.83937073 C23.22211052 180.04873451 23.22211052 180.04873451 23.23022461 178.22192383 C23.23077913 177.55625586 23.23133366 176.89058788 23.23190498 176.20474815 C23.23692761 174.01554532 23.25713118 171.826797 23.27832031 169.63769531 C23.28664993 168.08069596 23.29450895 166.52369403 23.30192566 164.96669006 C23.39602456 149.25236084 23.71518168 133.54167526 24.14379883 117.83325195 C24.25037523 113.9018825 24.33954943 109.97029723 24.42540455 106.03842831 C24.49603021 102.9418936 24.57890721 99.84577241 24.66510582 96.7496357 C24.70348106 95.29827611 24.73744166 93.84679161 24.76651955 92.39521599 C25.17615846 72.50628651 25.17615846 72.50628651 31.70410156 65.32128906 C38.18154916 59.62328537 43.78590203 58.61826522 52.29785156 58.85253906 C58.81236875 59.69104128 62.66427659 63.01349343 66.76660156 67.94628906 C74.00478277 78.41018146 73.60840342 91.51771275 73.55175781 103.73144531 C73.55034286 104.89510117 73.54892792 106.05875702 73.54747009 107.25767517 C73.54190784 110.94557349 73.52936239 114.63340933 73.51660156 118.32128906 C73.51158168 120.83365797 73.50701963 123.34602784 73.50292969 125.85839844 C73.49195079 131.99188301 73.47525059 138.12533157 73.45410156 144.25878906 C74.05319336 143.93571777 74.65228516 143.61264648 75.26953125 143.27978516 C80.39562345 140.88401877 87.37597478 141.48405783 92.76660156 142.84082031 C98.78233125 145.49695903 103.03746459 150.53579577 107.45410156 155.25878906 C108.32035156 156.12503906 109.18660156 156.99128906 110.07910156 157.88378906 C111.37212342 159.17681092 112.66040109 160.47496463 113.92285156 161.79785156 C119.62810932 167.69149047 125.97201485 172.86094047 132.50488281 177.81347656 C141.38506251 184.78372848 143.71039032 193.28394411 146.45410156 204.25878906 C146.45410156 213.16878906 146.45410156 222.07878906 146.45410156 231.25878906 C165.59410156 231.25878906 184.73410156 231.25878906 204.45410156 231.25878906 C204.45410156 221.68878906 204.45410156 212.11878906 204.45410156 202.25878906 C209.44451613 186.03994171 215.5484247 179.81626189 227.78076172 169.65625 C233.06592723 165.24243509 238.14058102 160.63924046 242.93457031 155.69628906 C243.54751953 155.06770996 244.16046875 154.43913086 244.79199219 153.79150391 C245.99448158 152.55123832 247.18777922 151.301971 248.37011719 150.04248047 C252.92822537 145.33550921 257.13849596 142.61444226 263.84082031 141.89550781 C265.47470703 141.92064453 265.47470703 141.92064453 267.14160156 141.94628906 C268.23859375 141.95015625 269.33558594 141.95402344 270.46582031 141.95800781 C273.38124433 142.25145572 274.92726927 142.89143495 277.45410156 144.25878906 C277.44410881 143.25306351 277.44410881 143.25306351 277.43391418 142.22702026 C277.36702744 135.18541305 277.32208177 128.14389754 277.28930664 121.10205078 C277.27431312 118.48157072 277.25391154 115.86111535 277.2277832 113.24072266 C277.19098247 109.45241158 277.17428014 105.66443513 277.16113281 101.87597656 C277.14564896 100.72330292 277.1301651 99.57062927 277.11421204 98.38302612 C277.11175147 86.2198223 278.277145 73.4515539 287.22753906 64.48144531 C292.97071214 59.33197578 297.50749444 58.90035454 305.15722656 58.98535156 C311.61179989 59.52068347 315.56068245 61.99904113 319.82910156 66.75878906 C327.65404874 76.37604258 325.6671295 90.2182154 325.98925781 102.01269531 C326.03249294 103.52270505 326.07590831 105.03270963 326.11949158 106.54270935 C326.20984791 109.70020968 326.29779509 112.85776546 326.3840332 116.01538086 C326.47098111 119.19256532 326.561095 122.3696309 326.65454102 125.54663086 C326.94459743 135.41569341 327.19745183 145.28482427 327.40726471 155.15592194 C327.45292313 157.20588003 327.50474242 159.25559324 327.55828857 161.30535889 C327.6483775 164.98644238 327.71017461 168.66684641 327.76269531 172.34863281 C327.79267105 173.40393692 327.82264679 174.45924103 327.85353088 175.54652405 C327.96260441 189.15122447 322.15955271 199.53229675 312.89508057 209.08999634 C309.98772666 212.03259372 307.03552129 214.92813592 304.07910156 217.82128906 C302.8531426 219.03217077 301.62787624 220.24375412 300.40332031 221.45605469 C297.42816958 224.3984485 294.44381122 227.33119248 291.45410156 230.25878906 C294.75410156 230.58878906 298.05410156 230.91878906 301.45410156 231.25878906 C301.11378906 230.17597656 301.11378906 230.17597656 300.76660156 229.07128906 C300.34586936 225.28469924 301.25146022 224.39066972 303.45410156 221.25878906 C305.90827616 218.37776933 308.50269991 215.65788774 311.14160156 212.94628906 C312.16543945 211.83543945 312.16543945 211.83543945 313.20996094 210.70214844 C318.98805084 204.78219797 318.98805084 204.78219797 323.77441406 204.68066406 C327.56561841 205.27630976 330.06817829 206.52820605 333.45410156 208.25878906 C338.1764743 208.13115737 343.42216855 205.6746167 347.45410156 203.25878906 C348.5583724 199.94597656 348.59269559 197.46599432 348.61231995 193.97566223 C348.62210876 192.65893021 348.63189758 191.34219818 348.64198303 189.98556519 C348.64788727 188.52301062 348.65369771 187.06045567 348.65942383 185.59790039 C348.66900218 184.06052893 348.67901223 182.52316012 348.68942261 180.98579407 C348.71648242 176.80843584 348.73748616 172.6310663 348.75742459 168.45366883 C348.7792775 164.08942743 348.80666959 159.72522094 348.83348083 155.36100769 C348.88341713 147.09503992 348.92835249 138.82905278 348.9715032 130.56304711 C349.02086757 121.1532182 349.07578867 111.7434243 349.13118279 102.33362925 C349.24501722 82.9753817 349.35185309 63.6171011 349.45410156 44.25878906 C348.66340775 44.26989212 347.87271393 44.28099518 347.05805969 44.29243469 C339.59858709 44.39271037 332.13944224 44.46879054 324.67947102 44.51784992 C320.84437063 44.54392026 317.00982814 44.57926941 313.17504883 44.63598633 C309.47268904 44.6904007 305.77086508 44.72022889 302.06813622 44.73317528 C300.65710199 44.74239853 299.24609638 44.76041022 297.83529091 44.78743935 C295.85606223 44.82384311 293.87629186 44.82583239 291.89672852 44.82641602 C290.77087845 44.83751907 289.64502838 44.84862213 288.48506165 44.86006165 C284.46282825 44.0621433 282.97517289 42.42520394 280.45410156 39.25878906 C279.82910156 35.75878906 279.82910156 35.75878906 280.45410156 32.25878906 C283.04867745 28.95069492 284.53173656 27.43481929 288.71043396 26.6373291 C289.94254105 26.63938354 291.17464813 26.64143799 292.4440918 26.64355469 C293.12768768 26.63800568 293.81128357 26.63245667 294.51559448 26.6267395 C296.76535137 26.61497149 299.01308065 26.63918775 301.26269531 26.66503906 C302.83301197 26.66675124 304.40333148 26.66668339 305.97364807 26.66491699 C309.26143827 26.66656867 312.54854535 26.68523553 315.83618164 26.71679688 C320.04057669 26.7564418 324.24407624 26.76084505 328.4486227 26.75333405 C331.69070062 26.75025709 334.93257902 26.76241107 338.17460823 26.77946472 C339.72427175 26.7864733 341.27395788 26.78962186 342.82363701 26.78877258 C344.99440848 26.79058022 347.16412837 26.81204302 349.3347168 26.83886719 C350.56761948 26.84728638 351.80052216 26.85570557 353.07078552 26.86437988 C357.65812044 27.39914725 361.09109116 28.80177794 364.26660156 32.19628906 C366.57571544 36.20685527 366.57812736 39.93952436 366.57435608 44.51031494 C366.57641808 46.43699005 366.57641808 46.43699005 366.57852173 48.40258789 C366.5749828 49.8237307 366.57134799 51.24487328 366.56762695 52.66601562 C366.56734485 54.16412352 366.56750327 55.66223155 366.56806946 57.16033936 C366.56835652 61.22610063 366.56247449 65.29183244 366.5554955 69.35758686 C366.54924682 73.60702172 366.54865696 77.85645725 366.54747009 82.105896 C366.54436125 90.15227707 366.53615387 98.19864458 366.5261206 106.24501967 C366.51494561 115.40575853 366.50944552 124.56649802 366.50442517 133.72724199 C366.4939709 152.57109872 366.47638009 171.4149428 366.45410156 190.25878906 C369.42410156 190.25878906 372.39410156 190.25878906 375.45410156 190.25878906 C375.46366866 170.09148315 375.43897573 149.92449425 375.37382317 129.75728798 C375.3443629 120.39265763 375.3259904 111.02825368 375.33398438 101.66357422 C375.3409259 93.49850893 375.3267943 85.33379423 375.28766549 77.16881502 C375.26768633 72.84792122 375.25805131 68.5275775 375.27367783 64.20665359 C375.28807452 60.13353878 375.27414159 56.06147158 375.23914909 51.98849106 C375.23122763 50.49948234 375.2333617 49.01037804 375.24670982 47.52140808 C375.32109346 38.45165149 374.4656289 31.45101475 368.45410156 24.25878906 C362.6153877 19.39319418 356.82918639 18.00860464 349.3347168 18.01928711 C348.30669449 18.01626587 348.30669449 18.01626587 347.25790405 18.01318359 C345.77981913 18.00965634 344.30171906 18.01038252 342.82363701 18.01495934 C340.4818635 18.02058184 338.14057985 18.01134769 335.79884338 17.99775696 C329.14459921 17.96074169 322.49052607 17.94210695 315.83618164 17.95336914 C311.75710182 17.95922474 307.67871717 17.94094508 303.59977913 17.90748024 C302.04929612 17.89953742 300.49873712 17.90078817 298.9482708 17.91150475 C296.77944266 17.92585711 294.61279968 17.90954223 292.4440918 17.88647461 C290.59593117 17.88553047 290.59593117 17.88553047 288.71043396 17.88456726 C284.53291898 17.08176292 283.04148359 15.57388112 280.45410156 12.25878906 C279.91993254 8.45283475 279.898408 6.26432979 281.76660156 2.88378906 C285.11621573 -0.34176532 288.83697081 0.12188691 293.24536133 0.09765625 C294.27530968 0.09020889 294.27530968 0.09020889 295.32606506 0.08261108 C297.59922288 0.06800137 299.87231074 0.06118692 302.14550781 0.05566406 C303.73152161 0.04990846 305.31753541 0.04415078 306.90354919 0.03839111 C310.23331017 0.02788232 313.56304704 0.02203991 316.89282227 0.01855469 C321.13713052 0.01309213 325.38111436 -0.010888 329.62532139 -0.03941727 C332.90523673 -0.05815053 336.18507591 -0.06325505 339.46504021 -0.06478119 C341.02817481 -0.06778785 342.59130872 -0.0757484 344.15439034 -0.08896637 C358.91817515 -0.20482811 370.89176339 2.19025357 382.20410156 12.38378906 C393.71698844 24.7676272 393.75185748 40.84260935 393.77294922 56.76757812 C393.78226727 58.3949482 393.79243867 60.02231357 393.8033905 61.64967346 C393.83049321 66.03104463 393.8457808 70.41238401 393.85881853 74.79381657 C393.87453621 79.3862424 393.90129851 83.97860413 393.92684937 88.57098389 C393.97348515 97.25101355 394.01030244 105.93105548 394.04352224 114.61114573 C394.08185154 124.50003022 394.13123311 134.38885007 394.1815064 144.27767992 C394.28459996 164.60466847 394.37393321 184.93169801 394.45410156 205.25878906 C395.87330725 205.80016466 397.29913472 206.32420308 398.72753906 206.84082031 C399.91742432 207.28131714 399.91742432 207.28131714 401.13134766 207.73071289 C404.79626252 208.56392824 407.19012639 206.89077665 410.45410156 205.25878906 C414.01559632 204.61124456 416.22710413 204.45790371 419.32128906 206.47753906 C421.47620457 208.31224625 423.46154642 210.24850656 425.45410156 212.25878906 C426.78828125 213.55623047 426.78828125 213.55623047 428.14941406 214.87988281 C436.34512457 222.9238209 436.34512457 222.9238209 436.70410156 227.32128906 C436.48037227 230.84502537 436.03022547 232.45489788 434.70410156 235.57128906 C433.19890999 239.60825448 433.62897848 241.73632244 435.26660156 245.69628906 C435.66492188 246.52 436.06324219 247.34371094 436.47363281 248.19238281 C437.45410156 250.25878906 437.45410156 250.25878906 437.45410156 252.25878906 C438.50597656 252.41347656 438.50597656 252.41347656 439.57910156 252.57128906 C443.94530145 253.61538034 447.39942751 254.81728708 450.10888672 258.52050781 C451.59677729 261.54921573 451.84056129 263.46751397 451.85253906 266.82128906 C451.85640625 267.86542969 451.86027344 268.90957031 451.86425781 269.98535156 C451.85265625 271.06558594 451.84105469 272.14582031 451.82910156 273.25878906 C451.84070313 274.33902344 451.85230469 275.41925781 451.86425781 276.53222656 C451.86039062 277.57636719 451.85652344 278.62050781 451.85253906 279.69628906 C451.84915527 280.64375 451.84577148 281.59121094 451.84228516 282.56738281 C451.38089501 285.76635447 450.3533103 287.66255469 448.45410156 290.25878906 C446.14941406 291.23535156 446.14941406 291.23535156 443.57910156 291.88378906 C438.95541946 293.52881798 437.370383 295.26945883 435.26660156 299.69628906 C433.61438869 303.66933607 433.21302663 306.11474001 434.45410156 310.25878906 C434.80472656 310.87753906 435.15535156 311.49628906 435.51660156 312.13378906 C437.00119138 315.49885931 437.0021662 317.60502484 436.45410156 321.25878906 C434.50627738 324.30307056 432.00379203 326.71349461 429.45410156 329.25878906 C428.56207031 330.22171875 427.67003906 331.18464844 426.75097656 332.17675781 C425.79921754 333.18456 424.8460961 334.19107732 423.89160156 335.19628906 C423.0034375 336.1334375 422.11527344 337.07058594 421.20019531 338.03613281 C418.10705111 340.53968765 416.39955172 341.13698322 412.45410156 341.25878906 C410.32910156 340.66503906 410.32910156 340.66503906 408.45410156 339.75878906 C404.67033366 338.19655156 402.47619108 338.08567962 398.45410156 339.25878906 C397.81472656 339.36578125 397.17535156 339.47277344 396.51660156 339.58300781 C392.53813039 340.52488072 390.89487357 341.55491306 388.68066406 345.09082031 C387.63023402 347.25060697 386.62801071 349.43465435 385.68066406 351.64160156 C384.45410156 354.25878906 384.45410156 354.25878906 382.45410156 355.25878906 C378.02299491 355.58421197 373.58317011 355.58334275 369.14160156 355.63378906 C367.90474609 355.67117188 366.66789062 355.70855469 365.39355469 355.74707031 C356.29541504 355.83554493 356.29541504 355.83554493 352.21191406 353.03613281 C350.59299442 350.47823978 349.46462072 348.34851451 348.64160156 345.44628906 C348.40828125 344.65609375 348.17496094 343.86589844 347.93457031 343.05175781 C347.69673828 342.16423828 347.69673828 342.16423828 347.45410156 341.25878906 C346.60847656 341.15566406 345.76285156 341.05253906 344.89160156 340.94628906 C341.45410156 340.25878906 341.45410156 340.25878906 338.14160156 338.44628906 C333.37376864 336.91088524 331.85674205 338.14126034 327.57910156 340.30175781 C325.45410156 341.25878906 325.45410156 341.25878906 322.39160156 341.44628906 C317.90095563 339.63092156 314.89258124 336.61021862 311.45410156 333.25878906 C310.6484375 332.49179687 309.84277344 331.72480469 309.01269531 330.93457031 C301.83546667 323.96470943 301.83546667 323.96470943 300.45410156 320.25878906 C300.75653711 316.02469137 301.58354895 312.99989429 303.45410156 309.25878906 C303.45410156 307.60878906 303.45410156 305.95878906 303.45410156 304.25878906 C285.63410156 303.92878906 267.81410156 303.59878906 249.45410156 303.25878906 C249.45410156 314.47878906 249.45410156 325.69878906 249.45410156 337.25878906 C252.86367188 337.21238281 256.27324219 337.16597656 259.78613281 337.11816406 C263.11904413 337.08689432 266.45193858 337.06264875 269.78491211 337.0390625 C272.08641983 337.01905079 274.38787739 336.99183276 276.68920898 336.95703125 C280.01331018 336.90805208 283.33673432 336.88571506 286.66113281 336.86816406 C287.67617386 336.84751892 288.6912149 336.82687378 289.73701477 336.80560303 C301.2889032 336.80204237 310.72203575 340.63218642 318.95019531 348.73144531 C326.53459301 357.17105699 326.64975237 366.99629088 326.70410156 377.69628906 C326.73503906 379.21319336 326.73503906 379.21319336 326.76660156 380.76074219 C326.79761726 386.70412469 326.40777029 391.04685419 323.45410156 396.25878906 C320.999372 397.48615384 319.40452113 397.38745564 316.65890694 397.39301014 C315.13090672 397.39969691 315.13090672 397.39969691 313.57203782 397.40651876 C312.44443508 397.40633439 311.31683233 397.40615003 310.15505981 397.40596008 C308.368134 397.41147512 308.368134 397.41147512 306.54510868 397.41710156 C303.22807641 397.42624026 299.91109367 397.43084067 296.59405351 397.43349087 C293.02069213 397.43738955 289.44734513 397.44696809 285.87399292 397.45570374 C277.23995809 397.47547913 268.60592206 397.4855351 259.97187024 397.49443153 C255.90889777 397.49881212 251.84592661 397.50417947 247.78295517 397.50942039 C234.28226301 397.52643273 220.78157167 397.54092828 207.28087044 397.54816914 C203.7762769 397.55007912 200.27168336 397.55199944 196.76708984 397.55395508 C195.89601058 397.55443882 195.02493131 397.55492256 194.1274557 397.55542096 C180.00735082 397.56372644 165.88733052 397.58907205 151.76726259 397.62153576 C137.28041927 397.65457206 122.79361898 397.67261473 108.30673778 397.67581338 C100.16880543 397.67798152 92.03099646 397.68677455 83.89310074 397.71227455 C76.9645266 397.7339347 70.0361058 397.74205515 63.10750164 397.73230777 C59.57075694 397.72774953 56.03432893 397.72973688 52.49762726 397.74906921 C48.66732194 397.7698262 44.8374577 397.7597592 41.0071106 397.74653625 C39.8839693 397.7575055 38.760828 397.76847475 37.60365212 397.77977639 C36.57976982 397.7711955 35.55588751 397.76261461 34.50097847 397.75377369 C33.17434297 397.7552389 33.17434297 397.7552389 31.82090676 397.75673372 C28.67642548 397.09517625 27.482528 395.69009016 25.45410156 393.25878906 C23.2747914 388.90016874 24.22423115 383.04459793 24.20410156 378.25878906 C24.18347656 377.06382812 24.16285156 375.86886719 24.14160156 374.63769531 C24.09107496 363.10499821 25.64696098 354.98886574 33.77441406 346.52832031 C40.51432642 340.82002719 48.54469914 337.12242462 57.40625 337.14526367 C58.38696472 337.1453392 59.36767944 337.14541473 60.37811279 337.14549255 C61.42928284 337.15065384 62.48045288 337.15581512 63.56347656 337.16113281 C64.64542297 337.16254776 65.72736938 337.16396271 66.84210205 337.16542053 C70.29613007 337.17101588 73.75009315 337.18356756 77.20410156 337.19628906 C79.54654854 337.20130466 81.88899654 337.20586746 84.23144531 337.20996094 C89.97237584 337.22013268 95.71316606 337.23970914 101.45410156 337.25878906 C101.45410156 326.03878906 101.45410156 314.81878906 101.45410156 303.25878906 C98.34665527 303.27449951 95.23920898 303.29020996 92.03759766 303.30639648 C81.72795398 303.35628374 71.41830474 303.38931423 61.10857201 303.41422558 C54.86268054 303.4298282 48.61691358 303.45096717 42.37109375 303.48510742 C36.33454808 303.51789427 30.29812158 303.53568264 24.26149368 303.54342079 C21.96760815 303.54892977 19.67372855 303.55968669 17.37989426 303.57597923 C-17.10361872 303.81098881 -17.10361872 303.81098881 -31.29589844 291.13378906 C-40.27783997 281.5360643 -42.86227995 269.20786208 -42.80659485 256.51882935 C-42.8104204 255.5796837 -42.81424594 254.64053806 -42.81818742 253.67293346 C-42.82844844 250.54801082 -42.82453842 247.4232743 -42.82055664 244.29833984 C-42.82490693 242.04887727 -42.83009113 239.79941618 -42.83604431 237.54995728 C-42.84941135 231.45488795 -42.85001553 225.35988072 -42.84748101 219.26479959 C-42.84640976 214.17045688 -42.85129862 209.07612665 -42.85608643 203.98178661 C-42.86780703 191.27360233 -42.86696107 178.56546288 -42.86052962 165.85727905 C-42.8553618 154.83981952 -42.86661497 143.82244844 -42.88562784 132.8050064 C-42.90503463 121.47176306 -42.91296629 110.13857369 -42.90950459 98.80530918 C-42.90769402 92.45077289 -42.91030551 86.09631762 -42.92421913 79.74179459 C-42.93681722 73.76469165 -42.93483447 67.78776543 -42.92180824 61.81066513 C-42.91944726 59.6221994 -42.92215993 57.43372115 -42.93043137 55.24526978 C-42.98892142 38.56176119 -42.31655429 24.28946357 -30.35839844 11.50878906 C-21.83033341 3.39154444 -11.66087084 0.01464444 0 0 Z M43.45410156 78.25878906 C42.15775835 81.60126628 42.26032489 85.11277209 42.15698242 88.66259766 C42.11701645 89.96691742 42.07705048 91.27123718 42.03587341 92.61508179 C41.99668077 94.04579079 41.95771123 95.47650593 41.91894531 96.90722656 C41.87579579 98.39906562 41.83237941 99.89089697 41.78871155 101.38272095 C41.69765735 104.52834826 41.60979621 107.67404461 41.52416992 110.81982422 C41.4378934 113.98271018 41.34787782 117.14544606 41.25366211 120.30810547 C40.95848719 130.21913815 40.70403845 140.1302038 40.50093842 150.04356384 C40.45428979 152.24988635 40.40246114 154.45604236 40.34991455 156.66223145 C40.25451679 160.79062475 40.1974883 164.91868262 40.14550781 169.04785156 C40.11553207 170.27031586 40.08555634 171.49278015 40.05467224 172.75228882 C39.92270476 191.60304807 55.57495567 204.19913848 67.89135742 216.98510742 C79.03420872 227.97636274 88.14369021 234.02458162 104.06542969 234.12402344 C112.62927525 233.80731007 121.04102048 232.87424126 129.45410156 231.25878906 C129.54187962 227.0922572 129.59475428 222.9259663 129.64160156 218.75878906 C129.66673828 217.58574219 129.691875 216.41269531 129.71777344 215.20410156 C129.79543951 205.98772812 128.76211614 199.06425851 122.35644531 192.07910156 C119.29313013 189.14788005 115.96956936 186.55767321 112.65722656 183.91503906 C108.87747113 180.83771606 105.3237368 177.52594079 101.76660156 174.19628906 C100.80016724 173.29499268 100.80016724 173.29499268 99.81420898 172.37548828 C95.74505505 168.55217142 91.84384166 164.6245248 88.16503906 160.41894531 C86.42004973 158.96461019 86.42004973 158.96461019 83.74316406 159.56738281 C82.98777344 159.79554688 82.23238281 160.02371094 81.45410156 160.25878906 C80.68109571 162.06401681 80.68109571 162.06401681 80.45410156 164.25878906 C81.57138255 166.20881036 81.57138255 166.20881036 83.36816406 167.98535156 C84.01688477 168.68047852 84.66560547 169.37560547 85.33398438 170.09179688 C86.03362305 170.8069043 86.73326172 171.52201172 87.45410156 172.25878906 C88.13569336 172.95584961 88.81728516 173.65291016 89.51953125 174.37109375 C91.60747203 176.47469654 93.7139386 178.55757938 95.82910156 180.63378906 C97.25586147 182.03511653 98.68045663 183.43865257 100.10253906 184.84472656 C101.03332275 185.75810791 101.03332275 185.75810791 101.98291016 186.68994141 C104.0735208 188.91932475 104.43572659 190.04747691 104.70410156 193.13378906 C104.42031641 196.68110344 104.13086263 197.92741652 101.45410156 200.25878906 C98.14160156 201.25878906 98.14160156 201.25878906 94.45410156 201.25878906 C88.43946295 197.99826857 83.86400731 193.01395211 79.07910156 188.19628906 C78.2314624 187.34301025 77.38382324 186.48973145 76.51049805 185.6105957 C65.10652659 173.98355828 56.22614368 162.55539319 56.37231445 145.55151367 C56.37884537 144.45274399 56.38537628 143.3539743 56.3921051 142.22190857 C56.4035405 141.04685257 56.41497589 139.87179657 56.42675781 138.66113281 C56.43941186 136.14225402 56.45177223 133.62337373 56.46386719 131.10449219 C56.48858787 127.15726004 56.51648406 123.21010666 56.55004883 119.26293945 C56.58051933 115.43733256 56.59811276 111.61182343 56.61425781 107.78613281 C56.62771744 106.62524643 56.64117706 105.46436005 56.65504456 104.26829529 C56.92911092 89.51501492 56.92911092 89.51501492 51.45410156 76.25878906 C47.72119437 75.6055303 46.66712446 76.1167738 43.45410156 78.25878906 Z M297.76660156 78.19628906 C294.27110095 86.35245716 294.17084589 94.3468652 294.17970657 103.0970726 C294.18068532 105.23491336 294.16757323 107.37226954 294.15072632 109.51004028 C294.10485803 115.5816887 294.07987116 121.65328145 294.07324219 127.72509766 C294.06818834 131.45748584 294.04375199 135.1893604 294.0079155 138.92157364 C293.99821335 140.33032248 293.99573233 141.73914281 294.00108719 143.14791489 C294.03947882 153.74219495 293.07982703 163.85918955 285.89160156 172.19628906 C285.19421875 173.01097656 284.49683594 173.82566406 283.77832031 174.66503906 C283.01132812 175.52097656 282.24433594 176.37691406 281.45410156 177.25878906 C280.61492187 178.21785156 279.77574219 179.17691406 278.91113281 180.16503906 C274.2063677 185.47465345 269.28400322 190.55939545 264.14160156 195.44628906 C263.19671875 196.34734375 262.25183594 197.24839844 261.27832031 198.17675781 C258.17104469 200.46746031 256.28388053 201.09965697 252.45410156 201.25878906 C247.88888417 199.12835428 247.88888417 199.12835428 246.45410156 196.25878906 C245.95410156 193.63378906 245.95410156 193.63378906 246.45410156 190.25878906 C251.34011632 183.44935831 257.95968539 177.73723326 264.02050781 171.99511719 C264.70757812 171.32544922 265.39464844 170.65578125 266.10253906 169.96582031 C266.72306152 169.37260986 267.34358398 168.77939941 267.98291016 168.16821289 C269.77337372 165.84441344 270.25252158 164.17337392 270.45410156 161.25878906 C269.46410156 160.26878906 269.46410156 160.26878906 268.45410156 159.25878906 C264.91196771 159.38890827 263.03224525 159.74524244 260.35644531 162.12207031 C259.70804687 162.9303125 259.05964844 163.73855469 258.39160156 164.57128906 C254.82425288 168.76816986 251.13088228 172.60388437 247.07910156 176.32128906 C246.52786621 176.82724609 245.97663086 177.33320313 245.40869141 177.85449219 C241.87660722 181.05702537 238.24068856 184.09201946 234.51660156 187.07128906 C228.1906617 192.17999268 223.72512291 196.32051309 221.45410156 204.25878906 C221.18221162 207.44452832 221.18221162 207.44452832 221.25878906 210.75097656 C221.26523437 211.94980469 221.27167969 213.14863281 221.27832031 214.38378906 C221.29507812 215.62128906 221.31183594 216.85878906 221.32910156 218.13378906 C221.338125 219.39449219 221.34714844 220.65519531 221.35644531 221.95410156 C221.37994348 225.05585946 221.41279822 228.15722558 221.45410156 231.25878906 C236.22430697 234.0949154 254.8771126 237.42182563 268.50646973 229.48022461 C281.83500892 219.88540772 307.59101807 198.52925204 310.45410156 181.25878906 C310.55387943 178.24251338 310.59180375 175.25533976 310.57519531 172.23925781 C310.57233017 171.29108688 310.56946503 170.34291595 310.56651306 169.36601257 C310.48229202 155.67247667 310.05711723 141.98327785 309.65454102 128.29614258 C309.53798404 124.33187023 309.42743747 120.36745564 309.3185358 116.4029665 C309.23263497 113.30141478 309.14346124 110.1999635 309.05334282 107.09853172 C309.01126785 105.63675009 308.97019564 104.17493917 308.93022346 102.71309853 C308.74810951 96.1080313 308.53623588 89.50218141 308.1081543 82.90795898 C308.028386 81.62268562 308.028386 81.62268562 307.94700623 80.31144714 C307.6065344 77.86963713 307.6065344 77.86963713 304.45410156 76.25878906 C301.13815894 75.6784991 300.02207068 75.60667637 297.76660156 78.19628906 Z M364.45410156 207.25878906 C364.20917969 207.93425781 363.96425781 208.60972656 363.71191406 209.30566406 C360.7070034 216.4760026 360.7070034 216.4760026 357.24707031 218.63769531 C355.56220498 219.27184148 353.85695306 219.8537802 352.13769531 220.38769531 C349.30214804 221.30811313 346.93058454 222.56173921 344.32910156 224.00878906 C339.68671064 226.38108002 336.62926096 226.88337727 331.45410156 226.25878906 C330.10612727 225.62224565 328.76813432 224.96273518 327.45410156 224.25878906 C325.38811073 224.19124072 325.38811073 224.19124072 323.45410156 225.25878906 C321.20559674 227.73540404 321.20559674 227.73540404 319.45410156 230.25878906 C320.22753906 231.77472656 320.22753906 231.77472656 321.01660156 233.32128906 C323.07657712 238.25931659 322.42509883 241.8836359 320.40332031 246.82910156 C319.5511215 248.72346302 318.67000383 250.60503992 317.76269531 252.47363281 C316.4314111 255.18531273 316.4314111 255.18531273 315.55175781 257.82519531 C314.28064746 261.38078972 313.45281862 263.61725206 310.20410156 265.70410156 C307.70410156 266.82128906 307.70410156 266.82128906 303.45410156 268.25878906 C303.45410156 271.22878906 303.45410156 274.19878906 303.45410156 277.25878906 C304.10636719 277.43410156 304.75863281 277.60941406 305.43066406 277.79003906 C309.15431937 279.15208407 312.36673357 280.42486991 314.46826172 283.96923828 C316.260032 287.98506951 317.53984376 292.15253035 318.80444336 296.3581543 C319.50063861 298.54129081 319.50063861 298.54129081 321.12597656 301.54003906 C322.91243428 305.1970231 322.3774965 307.35211817 321.45410156 311.25878906 C320.39160156 314.19628906 320.39160156 314.19628906 319.45410156 316.25878906 C321.76410156 318.23878906 324.07410156 320.21878906 326.45410156 322.25878906 C327.97003906 321.48535156 327.97003906 321.48535156 329.51660156 320.69628906 C333.56740974 319.00305124 336.14257392 319.08956123 340.45410156 320.25878906 C342.98618546 321.43003586 345.44103885 322.69427268 347.89550781 324.02050781 C350.3731866 325.21962869 352.59703477 325.82886846 355.26660156 326.44628906 C358.33616736 327.36062781 359.26671115 327.98908697 361.12597656 330.66503906 C362.37479312 333.16267218 363.47776786 335.64378472 364.45410156 338.25878906 C367.42410156 338.25878906 370.39410156 338.25878906 373.45410156 338.25878906 C373.92847656 336.85628906 374.40285156 335.45378906 374.89160156 334.00878906 C376.52438581 330.37471024 377.70985856 328.64821208 381.39160156 327.07128906 C382.17148437 326.79542969 382.95136719 326.51957031 383.75488281 326.23535156 C388.09710018 324.6643612 392.13314636 322.42860943 396.24316406 320.33300781 C401.95713922 318.42139812 406.96577859 320.25086602 412.45410156 322.25878906 C415.12060956 320.09290061 415.12060956 320.09290061 417.45410156 317.25878906 C417.322735 314.43440806 416.70672526 312.76403645 415.45410156 310.25878906 C414.77983736 303.96565647 416.06116505 300.33743393 419.11425781 294.84863281 C420.45956916 292.2482205 421.27516116 289.73631006 422.14160156 286.94628906 C423.76231021 282.64022217 425.60664595 281.1796354 429.70410156 279.13378906 C431.27404031 278.47586675 432.85382752 277.8390411 434.45410156 277.25878906 C434.45410156 274.61878906 434.45410156 271.97878906 434.45410156 269.25878906 C433.80183594 269.071875 433.14957031 268.88496094 432.47753906 268.69238281 C427.66885425 266.88380667 425.07982091 265.40185574 422.55957031 260.79785156 C421.49686698 258.21686301 420.5866949 255.59873218 419.70800781 252.95019531 C418.55082014 249.26348397 418.55082014 249.26348397 416.81347656 246.00097656 C413.99055905 240.30647054 415.58600667 234.97982966 417.45410156 229.25878906 C415.80410156 227.60878906 414.15410156 225.95878906 412.45410156 224.25878906 C411.44347656 224.58878906 410.43285156 224.91878906 409.39160156 225.25878906 C403.04085979 227.33250066 397.88040527 226.39613401 392.01660156 223.44628906 C388.32957517 221.6133586 384.933543 220.04329281 380.95410156 219.00878906 C375.82837249 216.44592453 374.47665115 212.44157239 372.45410156 207.25878906 C369.81410156 207.25878906 367.17410156 207.25878906 364.45410156 207.25878906 Z M118.45410156 303.25878906 C118.45410156 314.47878906 118.45410156 325.69878906 118.45410156 337.25878906 C156.07410156 337.25878906 193.69410156 337.25878906 232.45410156 337.25878906 C232.45410156 326.03878906 232.45410156 314.81878906 232.45410156 303.25878906 C194.83410156 303.25878906 157.21410156 303.25878906 118.45410156 303.25878906 Z M44.01660156 360.82128906 C39.76444925 367.45464667 41.45410156 370.78059865 41.45410156 380.25878906 C129.56410156 380.25878906 217.67410156 380.25878906 308.45410156 380.25878906 C310.26795736 364.13370774 310.26795736 364.13370774 303.45410156 357.25878906 C297.80892382 353.98260133 292.81760794 353.82950877 286.47889709 353.87110901 C285.49034098 353.86572347 284.50178486 353.86033793 283.48327249 353.8547892 C280.17923183 353.84051088 276.87559186 353.84761318 273.5715332 353.85473633 C271.19927143 353.84903273 268.82701239 353.84206851 266.45475769 353.8339386 C260.68511722 353.81785458 254.91560185 353.81590671 249.14594371 353.8211515 C244.45509238 353.82519778 239.76427319 353.82374422 235.07342339 353.81840324 C234.07085457 353.81728061 234.07085457 353.81728061 233.04803185 353.8161353 C231.69009443 353.81460378 230.33215702 353.81306543 228.97421961 353.81152033 C216.24851238 353.79780202 203.52286668 353.80322832 190.79716086 353.81470554 C179.16320159 353.82463784 167.52940137 353.8116962 155.89546663 353.78777135 C143.93965865 353.76337046 131.98392471 353.75377487 120.02809232 353.76042408 C113.3198087 353.76391404 106.61166536 353.76136339 99.90339851 353.74417305 C93.59551326 353.72871425 87.28793187 353.73264807 80.98005867 353.7514782 C78.66616881 353.75516692 76.35225648 353.75204743 74.0383873 353.74159241 C70.87733746 353.72840082 67.71729625 353.73991472 64.55628967 353.75758362 C63.64275775 353.74797861 62.72922584 353.73837361 61.78801113 353.72847754 C54.57252838 353.81134134 49.0662298 355.51270553 44.01660156 360.82128906 Z " fill="#F48619" transform="translate(51.5458984375,107.7412109375)"/>
<path d="M0 0 C3.58346249 2.78036026 6.81407403 5.77575533 10 9 C10.70898438 9.68707031 11.41796875 10.37414062 12.1484375 11.08203125 C25.35401239 24.71767275 29.21078823 42.56116634 29.0625 60.9375 C29.05798828 62.00291016 29.05347656 63.06832031 29.04882812 64.16601562 C29.03711787 66.77740291 29.02071724 69.38867124 29 72 C30.23492187 71.97808594 31.46984375 71.95617187 32.7421875 71.93359375 C38.19277976 71.94199405 42.57236535 72.87313425 46.765625 76.546875 C53.16818056 83.5710379 53.29508197 90.63313819 53.2746582 99.76928711 C53.27976913 100.94885483 53.28488007 102.12842255 53.29014587 103.34373474 C53.30163861 106.56693548 53.3041196 109.78997617 53.30158257 113.01319194 C53.30050989 115.70942386 53.3054038 118.40563228 53.310188 121.10185915 C53.3212676 127.46530368 53.32172923 133.82868917 53.31567383 140.19213867 C53.30963377 146.74508586 53.32194926 153.29781836 53.3432439 159.85072893 C53.36088671 165.48829383 53.36685707 171.12579055 53.36360615 176.76338202 C53.36179751 180.12544032 53.3643874 183.48734542 53.37832069 186.84937859 C53.39066371 190.60019325 53.38390567 194.35051157 53.37231445 198.10131836 C53.37995819 199.20751526 53.38760193 200.31371216 53.39547729 201.45343018 C53.34467146 208.89562848 52.62938793 213.95544556 47.625 219.75 C42.90011514 223.79990131 39.78116303 225.37388924 33.49223328 225.39440918 C32.17589905 225.40575897 30.85956482 225.41710876 29.50334167 225.42880249 C28.05129944 225.42615933 26.59925777 225.42318813 25.1472168 225.41992188 C23.61267479 225.42726416 22.07813831 225.43585085 20.54360962 225.44558716 C16.38022924 225.46779808 12.21704682 225.47073397 8.05361533 225.46883965 C4.57464113 225.4687199 1.09570879 225.47728606 -2.38325375 225.48561716 C-10.59399122 225.50485065 -18.80462703 225.50773565 -27.01538086 225.50097656 C-35.47641552 225.49433932 -43.93701383 225.51718731 -52.39796001 225.55429029 C-59.66948877 225.58501657 -66.9408774 225.59634405 -74.21246976 225.59245348 C-78.55218884 225.59038857 -82.89156854 225.59582471 -87.23122597 225.62034607 C-91.3149115 225.64265858 -95.39788965 225.64069855 -99.48157883 225.62041855 C-100.9762941 225.61701613 -102.4710574 225.62206454 -103.96570778 225.63640213 C-118.91625139 225.76986583 -118.91625139 225.76986583 -125 220 C-128.63109521 215.34474973 -130.11942446 211.83720494 -130.14717102 205.98554993 C-130.15432632 204.94963211 -130.16148163 203.91371429 -130.16885376 202.84640503 C-130.17154266 201.71026764 -130.17423157 200.57413025 -130.17700195 199.40356445 C-130.18357315 198.20653397 -130.19014435 197.00950348 -130.19691467 195.77619934 C-130.21666409 191.80523314 -130.22831689 187.83428015 -130.23828125 183.86328125 C-130.24232992 182.49428983 -130.24644688 181.12529861 -130.25063133 179.7563076 C-130.26968056 173.32237663 -130.28391071 166.8884571 -130.2922433 160.45450336 C-130.30200744 153.03836213 -130.3283062 145.62252002 -130.36874419 138.20648414 C-130.39895647 132.46791472 -130.4137171 126.72943077 -130.41702431 120.99078339 C-130.4193695 117.56653354 -130.42825944 114.14260332 -130.45348549 110.7184391 C-130.47783048 106.89318679 -130.47691962 103.06871426 -130.4699707 99.2434082 C-130.48278076 98.11739197 -130.49559082 96.99137573 -130.50878906 95.83123779 C-130.46142997 88.66978066 -129.56106582 82.92713657 -124.62341785 77.48190784 C-118.800396 72.20880995 -113.41401631 71.91626881 -106 72 C-106.02094727 71.32646484 -106.04189453 70.65292969 -106.06347656 69.95898438 C-106.69373421 46.55169403 -104.38484954 28.05373582 -88.5078125 9.56640625 C-64.84946635 -14.644705 -28.21064536 -18.4077184 0 0 Z M-76.4453125 22.0625 C-86.05965979 34.04419914 -89.18868616 46.32972724 -89.0625 61.375 C-89.05798828 62.39722656 -89.05347656 63.41945312 -89.04882812 64.47265625 C-89.03710317 66.98179623 -89.01916965 69.49090586 -89 72 C-85.7 72 -82.4 72 -79 72 C-78.97421875 70.47890625 -78.9484375 68.9578125 -78.921875 67.390625 C-78.5024117 50.37781086 -77.04250422 37.55950615 -64.375 25.3125 C-54.62340745 17.32059333 -44.26623221 15.80044667 -32.05908203 16.75634766 C-21.60850763 17.99297005 -12.9335538 23.90511433 -6.3828125 31.94140625 C-1.54467628 39.14394238 0.96355306 46.68108183 1.31640625 55.30078125 C1.35830078 56.27724609 1.40019531 57.25371094 1.44335938 58.25976562 C1.48267578 59.26716797 1.52199219 60.27457031 1.5625 61.3125 C1.60568359 62.33923828 1.64886719 63.36597656 1.69335938 64.42382812 C1.79906738 66.94907489 1.90000208 69.47452067 2 72 C5.3 72 8.6 72 12 72 C12.47652335 53.15085419 11.58484255 36.92681106 -1.0625 21.75 C-10.64781007 11.72899402 -22.13443289 6.10573824 -35.86279297 5.60180664 C-51.65671341 5.35469088 -65.44202632 10.26950429 -76.4453125 22.0625 Z M-57.67578125 41.828125 C-64.0525622 52.28679818 -62 58.72066469 -62 72 C-46.49 72 -30.98 72 -15 72 C-14.16336301 54.24939747 -14.16336301 54.24939747 -20.6875 40.25 C-26.0384903 35.04363106 -31.03648264 32.6819646 -38.5625 32.4375 C-47.08179879 32.8148116 -52.15098022 35.43265332 -57.67578125 41.828125 Z M-113 91 C-113.30086622 93.13725058 -113.30086622 93.13725058 -113.24723816 95.6375885 C-113.25143265 96.61493454 -113.25562714 97.59228058 -113.25994873 98.59924316 C-113.25432922 99.67516724 -113.24870972 100.75109131 -113.24291992 101.85961914 C-113.24481827 102.98971909 -113.24671661 104.11981903 -113.24867249 105.28416443 C-113.25238931 109.03456471 -113.24166374 112.78477306 -113.23046875 116.53515625 C-113.22927743 119.13065061 -113.22882368 121.7261454 -113.2290802 124.32164001 C-113.22751381 129.76662075 -113.21945331 135.21153158 -113.20581055 140.65649414 C-113.19007672 146.95947135 -113.18481269 153.26238759 -113.1855461 159.56538302 C-113.18615558 165.62022747 -113.18095023 171.67504696 -113.17275429 177.72988701 C-113.16956094 180.31081458 -113.16759867 182.89174397 -113.16686058 185.47267342 C-113.16470453 189.07173903 -113.15597651 192.67072644 -113.14526367 196.26977539 C-113.14571686 197.34772369 -113.14617004 198.425672 -113.14663696 199.5362854 C-113.14237198 200.51081161 -113.13810699 201.48533783 -113.13371277 202.48939514 C-113.13203692 203.3412996 -113.13036108 204.19320406 -113.12863445 205.07092381 C-113.21216644 207.00733129 -113.21216644 207.00733129 -112 208 C-110.10402694 208.0987544 -108.20432921 208.12632197 -106.30578613 208.12698364 C-105.06897598 208.12980347 -103.83216583 208.13262329 -102.55787659 208.13552856 C-101.17465196 208.13358397 -99.79142747 208.13153578 -98.40820312 208.12939453 C-96.96142025 208.13074853 -95.51463771 208.13252845 -94.06785583 208.13470459 C-90.12788238 208.13927909 -86.18793498 208.1374893 -82.24796104 208.1343255 C-78.13377179 208.13180199 -74.01958484 208.13413942 -69.90539551 208.13571167 C-62.99503171 208.13753339 -56.08467858 208.13512699 -49.17431641 208.13037109 C-41.17350233 208.12492847 -33.17271373 208.12669112 -25.17190027 208.1321975 C-18.31501881 208.13672856 -11.45814504 208.13737921 -4.60126257 208.13475883 C-0.50049261 208.13319602 3.60026535 208.13300241 7.70103455 208.13629532 C11.55542639 208.13917393 15.40978524 208.13719853 19.26417351 208.13140106 C20.68280418 208.13007341 22.10143762 208.13046767 23.52006721 208.13266373 C25.44863921 208.13537499 27.37721724 208.13138062 29.30578613 208.12698364 C30.92849804 208.1264181 30.92849804 208.1264181 32.583992 208.12584114 C34.95026793 208.27285498 34.95026793 208.27285498 36 207 C36.10008034 205.49913763 36.13075376 203.99358767 36.13371277 202.48939514 C36.13797775 201.51486893 36.14224274 200.54034271 36.14663696 199.5362854 C36.14618378 198.4583371 36.14573059 197.38038879 36.14526367 196.26977539 C36.14862228 195.14142776 36.1519809 194.01308014 36.15544128 192.85054016 C36.16498429 189.09956783 36.16689605 185.34863998 36.16796875 181.59765625 C36.17117892 179.00312786 36.17454281 176.40859965 36.17805481 173.81407166 C36.18405442 168.36733504 36.18593651 162.92061622 36.18530273 157.47387695 C36.18470178 151.17148706 36.19525534 144.86918272 36.2110464 138.56681448 C36.22567749 132.5125104 36.22929136 126.4582529 36.22869301 120.40392876 C36.22987726 117.82382292 36.23432373 115.24371652 36.24202538 112.6636219 C36.25176894 109.06221443 36.24896958 105.46102983 36.24291992 101.85961914 C36.24853943 100.78369507 36.25415894 99.707771 36.25994873 98.59924316 C36.25575424 97.62189713 36.25155975 96.64455109 36.24723816 95.6375885 C36.24778293 94.78530702 36.24832769 93.93302553 36.24888897 93.05491734 C36.18726251 90.77595977 36.18726251 90.77595977 34 89 C31.37947525 88.69485256 31.37947525 88.69485256 28.26818848 88.74603271 C27.04827713 88.74039307 25.82836578 88.73475342 24.57148743 88.72894287 C23.21237124 88.73283182 21.85325563 88.73692818 20.49414062 88.74121094 C19.06853557 88.73850208 17.64293192 88.73494175 16.21733093 88.73059082 C12.33930485 88.72145193 8.46138486 88.72501721 4.58335686 88.73134899 C0.53103213 88.73640125 -3.52128332 88.7317197 -7.5736084 88.72857666 C-14.37965532 88.72493475 -21.18565888 88.729742 -27.99169922 88.73925781 C-35.86814076 88.75014281 -43.74447877 88.74661739 -51.6209178 88.735605 C-58.37508263 88.72653852 -65.12921623 88.72524371 -71.88338518 88.73048234 C-75.92102792 88.73360557 -79.95862195 88.73400175 -83.9962616 88.72740936 C-87.79161123 88.72164579 -91.58682697 88.72561453 -95.38216209 88.73719788 C-96.77779607 88.73984978 -98.17344125 88.73907037 -99.56907082 88.73467255 C-101.4687727 88.72923678 -103.36849912 88.73725045 -105.26818848 88.74603271 C-106.33302711 88.74678677 -107.39786575 88.74754082 -108.49497223 88.74831772 C-111.17233646 88.75041851 -111.17233646 88.75041851 -113 91 Z " fill="#F06B1E" transform="translate(266,18)"/>
<path d="M0 0 C9.40948398 8.76531393 13.5892881 20.48887454 14.4375 33 C14.24181335 45.59732783 9.11847758 55.98505908 0.67578125 64.98046875 C-8.97200477 74.02242833 -20.01384075 76.97938467 -33.00390625 76.65234375 C-44.77645745 75.60186995 -54.59754831 70.99357306 -62.6875 62.296875 C-71.52538322 51.07276331 -73.69075434 39.37850992 -72.8125 25.3125 C-70.97384618 13.80160001 -64.12369886 3.81088111 -54.90625 -3.12109375 C-37.64606652 -14.66212913 -16.14856936 -12.49160635 0 0 Z M-47.984375 13.328125 C-53.03207609 18.80725354 -56.12324723 25.54173436 -56.4375 33 C-55.94586199 40.76564582 -52.73170921 47.1010072 -47.52734375 52.80859375 C-41.59804294 58.00855004 -34.51051993 59.73163727 -26.80078125 59.66015625 C-19.55528427 58.81721608 -13.42051686 54.86922621 -8.8125 49.3125 C-4.22213573 43.41060309 -2.48637669 37.74741288 -2.875 30.375 C-3.93528027 22.44117863 -7.78704061 16.39485695 -14.0703125 11.52734375 C-24.83840245 4.01865322 -37.861328 5.01570429 -47.984375 13.328125 Z " fill="#F2741C" transform="translate(449.8125,347.6875)"/>
<path d="M0 0 C5.91348567 6.12737771 9.04274877 13.77866964 9.4609375 22.27734375 C9.14308569 29.1604794 7.17023383 35.93054813 2.41113281 40.98583984 C-0.47758282 44.40972578 -0.64032858 47.08252015 -0.60546875 51.58203125 C-0.61392067 52.6062468 -0.61392067 52.6062468 -0.62254333 53.65115356 C-0.63889718 55.81892825 -0.62355367 57.98464293 -0.6015625 60.15234375 C-0.4552294 79.0823329 -0.4552294 79.0823329 -6.85546875 86.3359375 C-7.43167969 86.79097656 -8.00789063 87.24601562 -8.6015625 87.71484375 C-9.18035156 88.18792969 -9.75914062 88.66101563 -10.35546875 89.1484375 C-15.00994289 92.269419 -20.67927115 91.79059326 -26.0390625 91.27734375 C-31.67050455 89.70621874 -34.95821382 86.78683886 -38.12890625 81.9609375 C-40.28831343 77.96649761 -40.14971784 74.50543446 -40.14453125 70.046875 C-40.15799539 68.58917798 -40.17302001 67.1314947 -40.18945312 65.67382812 C-40.21220025 63.38713032 -40.22662893 61.1019804 -40.21411133 58.81518555 C-39.95873282 47.38631082 -39.95873282 47.38631082 -45.57202148 37.80249023 C-49.63851676 33.57493224 -50.25308992 28.03961976 -50.4765625 22.40234375 C-50.20844576 13.5321483 -47.17759411 6.49427303 -41.09765625 0.03515625 C-29.02684155 -10.27199103 -12.09154847 -10.21527371 0 0 Z M-30.4140625 13.90234375 C-32.86557977 17.48533053 -33.22475987 20.9830921 -33.0390625 25.27734375 C-31.9377807 27.9981576 -30.63700844 29.68391204 -28.56564331 31.73963928 C-24.13809268 36.31644412 -23.1584109 39.55989787 -23.234375 45.8359375 C-23.22066864 46.62509048 -23.20696228 47.41424347 -23.19284058 48.22731018 C-23.15574037 50.72374528 -23.15924128 53.21817363 -23.1640625 55.71484375 C-23.14592145 57.41734853 -23.12511434 59.1198271 -23.1015625 60.82226562 C-23.04989991 64.97429157 -23.03461845 69.12501418 -23.0390625 73.27734375 C-21.09302976 73.86804389 -21.09302976 73.86804389 -19.0390625 74.27734375 C-17.02652891 72.26481016 -17.80657921 68.21045353 -17.7578125 65.4453125 C-17.73019836 64.26307854 -17.73019836 64.26307854 -17.70202637 63.05696106 C-17.64309782 60.52633345 -17.59039314 57.9956362 -17.5390625 55.46484375 C-17.47131828 52.14569348 -17.39755368 48.82675371 -17.3203125 45.5078125 C-17.30673706 44.74413864 -17.29316162 43.98046478 -17.2791748 43.19364929 C-17.11264482 36.04916195 -17.11264482 36.04916195 -16.0390625 33.27734375 C-14.7237284 32.57583223 -13.38788658 31.9120845 -12.0390625 31.27734375 C-9.07287694 28.42101691 -8.28582692 25.38134367 -7.90625 21.3046875 C-8.18915579 16.98621386 -10.96009523 14.28670023 -13.9765625 11.46484375 C-20.21407577 7.87354823 -24.7310836 10.01398976 -30.4140625 13.90234375 Z " fill="#F1711C" transform="translate(248.0390625,124.72265625)"/>
</svg>
