<?xml version="1.0" encoding="UTF-8"?>
<svg version="1.1" xmlns="http://www.w3.org/2000/svg" width="512" height="512">
<path d="M0 0 C168.96 0 337.92 0 512 0 C512 168.96 512 337.92 512 512 C343.04 512 174.08 512 0 512 C0 343.04 0 174.08 0 0 Z " fill="#FCFCFC" transform="translate(0,0)"/>
<path d="M0 0 C168.96 0 337.92 0 512 0 C512 168.96 512 337.92 512 512 C343.04 512 174.08 512 0 512 C0 343.04 0 174.08 0 0 Z M103 28 C101.48243446 29.87394369 99.94395879 31.73136962 98.375 33.5625 C96.91417411 35.37299167 95.45581078 37.18547325 94 39 C89.20585061 44.90646103 84.36530585 50.76737322 79.4375 56.5625 C74.85220806 61.95929193 70.37121173 67.42753925 66 73 C65.43872394 73.56137061 64.87744788 74.12274122 64.29916346 74.70112306 C57.99637448 81.54207626 58.01578985 87.91998716 58.13803101 96.86076355 C58.1328243 98.36569545 58.12455117 99.8706193 58.11349261 101.37551957 C58.0920906 105.49421228 58.11415422 109.61168382 58.14356351 113.73028457 C58.16767709 118.17816785 58.15129394 122.62592856 58.14001465 127.07383728 C58.12431729 135.77975681 58.14586449 144.48520398 58.18000321 153.19105526 C58.21834558 163.32930811 58.21958979 173.46746388 58.21927364 183.60577682 C58.21996018 201.69293301 58.25407538 219.77987156 58.30712891 237.86694336 C58.35858274 255.41938252 58.38689615 272.97165429 58.38916016 290.52416992 C58.38930301 291.60567938 58.38944587 292.68718884 58.38959305 293.80147132 C58.38973167 294.88110918 58.38987028 295.96074705 58.3900131 297.07310122 C58.39030349 299.24686794 58.39060597 301.42063465 58.39092064 303.59440136 C58.39107568 304.66641816 58.39123072 305.73843496 58.39139047 306.84293712 C58.39482936 323.57038364 58.42036957 340.29780491 58.44777673 357.02522662 C58.45738718 363.08842508 58.46351407 369.15161569 58.4670773 375.21482059 C58.47274105 384.83007914 58.48781142 394.44521432 58.52290349 404.06041452 C58.53874695 408.45405495 58.54990305 412.84756969 58.54817581 417.24124146 C58.54677256 421.26228591 58.55921669 425.28303952 58.58279236 429.30401293 C58.58892624 430.75941388 58.59002165 432.2148465 58.58559899 433.67025366 C58.5803672 435.64755739 58.59533762 437.62488374 58.61130333 439.60212994 C58.61395868 440.70071856 58.61661402 441.79930719 58.61934984 442.93118638 C59.38160243 449.07649087 62.45151047 452.99299732 67 457 C70.99034357 459.88314118 73.72073766 460.3599899 78.61328125 460.29296875 C79.86044922 460.28330078 81.10761719 460.27363281 82.39257812 460.26367188 C84.33293945 460.2259668 84.33293945 460.2259668 86.3125 460.1875 C87.62541016 460.17396484 88.93832031 460.16042969 90.29101562 460.14648438 C93.52776077 460.11117443 96.76367105 460.0618528 100 460 C99.97905273 460.6297876 99.95810547 461.2595752 99.93652344 461.90844727 C99.85279901 464.79296571 99.80116379 467.67722768 99.75 470.5625 C99.71648437 471.55314453 99.68296875 472.54378906 99.6484375 473.56445312 C99.55118022 480.88306363 100.5502954 485.1444478 105.52734375 490.70703125 C110.47212962 494.58341464 114.33721191 496.24744467 120.61609936 496.26006222 C121.74154099 496.26712781 122.86698262 496.2741934 124.02652854 496.2814731 C125.25802848 496.27905802 126.48952843 496.27664293 127.75834656 496.27415466 C129.07046688 496.27939134 130.38258721 496.28462802 131.73446876 496.29002339 C135.37519319 496.30420113 139.01583224 496.30586672 142.65658033 496.30542648 C146.58380039 496.3070749 150.5109853 496.32014196 154.43818665 496.33161926 C163.02506451 496.35446708 171.61191765 496.36238973 180.19882178 496.36744571 C185.561754 496.37070317 190.92467904 496.37722598 196.28760719 496.3844471 C211.13950081 496.40401323 225.99138776 496.4204172 240.8432951 496.42332363 C241.79367469 496.4235112 242.74405429 496.42369877 243.72323327 496.42389202 C245.64984469 496.42425827 247.5764561 496.42462197 249.50306752 496.42498314 C250.937605 496.42525735 250.937605 496.42525735 252.40112305 496.42553711 C253.35865039 496.42571766 254.31617774 496.42589821 255.30272106 496.42608423 C270.81537337 496.42962527 286.32788681 496.45664324 301.84049096 496.494035 C317.7716198 496.53212786 333.70267977 496.55148118 349.63385516 496.55178314 C358.57678574 496.55236752 367.51955067 496.56084638 376.46243858 496.58978081 C384.07809979 496.61430786 391.69353495 496.62156873 399.30922499 496.60653328 C403.19310007 496.59936957 407.07652894 496.60019799 410.96035385 496.62294388 C415.17614138 496.64739677 419.39091602 496.63288313 423.60673523 496.61473083 C424.82708157 496.6279308 426.04742791 496.64113077 427.30475444 496.65473074 C434.84669296 496.58061085 440.75298523 495.4198364 447 491 C451.92417011 485.82038779 453.12449247 481.1561266 453.13142776 474.16640759 C453.1334804 473.46406855 453.13553303 472.76172952 453.13764787 472.03810748 C453.14333619 469.66692307 453.14185837 467.29579639 453.14044189 464.92460632 C453.14302448 463.21450048 453.14603734 461.50439524 453.1494453 459.79429084 C453.15753104 455.08099642 453.15930574 450.36771722 453.16004276 445.65441668 C453.16189057 440.57659344 453.1694365 435.49877814 453.17617798 430.42095947 C453.18977273 419.3115855 453.19578772 408.20221514 453.20018864 397.09283423 C453.20294898 390.1597109 453.20718594 383.22658896 453.21169281 376.29346657 C453.22388669 357.10785732 453.23418595 337.9222492 453.2375679 318.73663616 C453.23778747 317.50819223 453.23800703 316.27974829 453.23823325 315.01407878 C453.23845153 313.78265243 453.23866981 312.55122607 453.2388947 311.28248376 C453.23933817 308.7870367 453.23978473 306.29158964 453.24023438 303.79614258 C453.2404558 302.55830781 453.24067723 301.32047305 453.24090537 300.04512814 C453.24485475 279.98049064 453.2623125 259.91588942 453.2855939 239.85126593 C453.3092888 219.26457462 453.32176889 198.67790153 453.32293582 178.09119636 C453.3238536 166.52710832 453.3296318 154.96306757 453.34775543 143.39899254 C453.36313128 133.55331274 453.36829177 123.70769483 453.36001733 113.86200532 C453.35610197 108.83650824 453.35708355 103.81113591 453.37107468 98.78565407 C453.38376047 94.18708567 453.38266313 89.58873642 453.37048396 84.99016855 C453.36851771 83.32461533 453.37164799 81.65904686 453.38032833 79.9935151 C453.39136842 77.73244779 453.38397032 75.47216107 453.3719368 73.21111584 C453.37253389 71.95434888 453.37313097 70.69758192 453.37374616 69.40273112 C452.67612094 63.05127843 449.7026789 59.14283617 445 55 C441.00965643 52.11685882 438.27926234 51.6400101 433.38671875 51.70703125 C432.13955078 51.71669922 430.89238281 51.72636719 429.60742188 51.73632812 C427.66706055 51.7740332 427.66706055 51.7740332 425.6875 51.8125 C424.37458984 51.82603516 423.06167969 51.83957031 421.70898438 51.85351562 C418.47223923 51.88882557 415.23632895 51.9381472 412 52 C412.0314209 51.00202393 412.0314209 51.00202393 412.06347656 49.98388672 C412.14700609 46.94774698 412.19877603 43.91184957 412.25 40.875 C412.30027344 39.30492187 412.30027344 39.30492187 412.3515625 37.703125 C412.43095462 31.43114766 412.22975325 27.74892874 408 23 C400.72168137 16.03813 394.26141313 15.69990073 384.64668274 15.67874146 C383.49775565 15.66856582 382.34882856 15.65839018 381.16508549 15.64790618 C377.98462601 15.62197641 374.80426677 15.60495893 371.62373269 15.59196019 C368.89362097 15.57918205 366.16358335 15.55904746 363.43351803 15.53883888 C354.4431494 15.47233141 345.45273576 15.42918038 336.4622021 15.39243919 C334.12034223 15.38284144 331.77848418 15.3728758 329.4366262 15.36282873 C314.88193541 15.30089207 300.32722837 15.24754511 285.77244282 15.21399117 C282.40436588 15.20609273 279.03628924 15.19808665 275.66821289 15.18994141 C274.83113795 15.18792468 273.99406301 15.18590796 273.13162216 15.18383013 C259.57230016 15.14981778 246.01370824 15.06759358 232.45474265 14.96589543 C218.522579 14.86226034 204.5907906 14.80409669 190.65824479 14.78959739 C182.83993316 14.78028436 175.02281841 14.75090814 167.2048893 14.6701088 C160.54675162 14.60137731 153.89002685 14.57367994 147.23155484 14.59895708 C143.83601458 14.61058542 140.44586715 14.59652076 137.05037689 14.5426178 C116.52706414 14.10781188 116.52706414 14.10781188 103 28 Z " fill="#FEFEFE" transform="translate(0,0)"/>
<path d="M0 0 C1.15119265 -0.00965766 2.30238529 -0.01931532 3.48846257 -0.02926564 C6.67142429 -0.0478696 9.85184586 -0.03072604 13.034621 0.00179148 C16.47171258 0.02817386 19.90858216 0.00828963 23.34570312 -0.0057373 C30.07446676 -0.02588012 36.80244253 -0.00337124 43.53110825 0.0336639 C51.37125498 0.07526025 59.21123265 0.0749175 67.05146898 0.07297358 C81.04449858 0.07097191 95.03716228 0.10759158 109.03005981 0.16571045 C122.59848701 0.22203691 136.1665922 0.25039437 149.73513794 0.2477417 C150.570543 0.24758187 151.40594806 0.24742205 152.26666842 0.24725738 C153.51763832 0.24701525 153.51763832 0.24701525 154.79388034 0.24676824 C170.2520743 0.24400568 185.71013179 0.26759009 201.16828146 0.3033811 C206.6288941 0.315427 212.08948159 0.31969705 217.55010605 0.32151031 C224.20949022 0.32424475 230.86864442 0.34218408 237.52793108 0.37884155 C240.92359282 0.39725574 244.31871313 0.40738015 247.71446228 0.40446472 C251.40065674 0.40249774 255.08590959 0.42516318 258.77197266 0.45410156 C260.37135817 0.44480995 260.37135817 0.44480995 262.0030545 0.43533063 C269.48001791 0.53216196 275.87341014 1.86367844 281.66921997 6.84051514 C282.11265747 7.42574951 282.55609497 8.01098389 283.01296997 8.61395264 C283.47703247 9.20434326 283.94109497 9.79473389 284.41921997 10.40301514 C286.5506949 13.49365378 286.63109179 15.49078218 286.61062622 19.21551514 C286.60740356 20.24676514 286.60418091 21.27801514 286.6008606 22.34051514 C286.59248169 23.42074951 286.58410278 24.50098389 286.57546997 25.61395264 C286.57095825 26.70192139 286.56644653 27.78989014 286.5617981 28.91082764 C286.54998773 31.60359053 286.53351776 34.29624452 286.51296997 36.98895264 C287.31927856 36.96276855 288.12558716 36.93658447 288.95632935 36.90960693 C292.64167469 36.80509003 296.32670735 36.74045025 300.01296997 36.67645264 C301.91562622 36.61361084 301.91562622 36.61361084 303.85671997 36.54949951 C311.31142364 36.45243306 316.90106237 36.7199692 322.51296997 41.98895264 C326.6991937 47.35590614 327.63763252 51.10890547 327.64719105 57.81695843 C327.64954328 58.51869827 327.65189551 59.22043811 327.65431902 59.94344279 C327.66101587 62.31260657 327.66055059 64.6817156 327.66014099 67.05088806 C327.66343919 68.75956869 327.66716466 70.46824854 327.67128247 72.17692739 C327.68131559 76.88635874 327.68502137 81.59577734 327.68767178 86.30521786 C327.69157093 91.3789907 327.70114952 96.4527534 327.70988464 101.52651978 C327.72965981 113.78644317 327.73971648 126.0463674 327.74861243 138.30630276 C327.75299351 144.07673873 327.75836078 149.84717378 327.7636013 155.61760902 C327.78061444 174.79463479 327.79510933 193.97165998 327.80235004 213.14869213 C327.80426 218.12677702 327.80618033 223.10486191 327.80813599 228.08294678 C327.80861973 229.32025692 327.80910347 230.55756706 327.80960187 231.83237145 C327.81790484 251.88273656 327.84324589 271.93304205 327.87571666 291.98338111 C327.90876668 312.55878171 327.92679693 333.134152 327.92999429 353.70957929 C327.93216126 365.26592378 327.94093738 376.82218133 327.96645546 388.37849998 C327.98813432 398.21901047 327.99622673 408.05941291 327.98648868 417.89994457 C327.98193586 422.92167674 327.98388725 427.94318586 328.00325012 432.96488762 C328.02082439 437.56238149 328.0199308 442.15948864 328.00435283 446.7569863 C328.00196803 448.41988594 328.00634539 450.08281195 328.01818148 451.74567118 C328.12156001 467.22886854 328.12156001 467.22886854 323.51296997 473.98895264 C317.21888796 480.28303464 310.76880278 481.33102347 302.21895462 481.39484495 C300.99191612 481.3888349 299.76487762 481.38282486 298.50065613 481.37663269 C296.52779567 481.384711 296.52779567 481.384711 294.51507944 481.3929525 C290.87496159 481.40739025 287.23507048 481.4031677 283.5949403 481.39578569 C279.66506337 481.39105218 275.73523536 481.40356546 271.80537415 481.4138031 C264.11066957 481.43099267 256.41604664 481.43183081 248.72132785 481.4265902 C242.46678722 481.42254767 236.21227072 481.42399303 229.95773125 481.42933846 C229.06732314 481.43008688 228.17691503 481.4308353 227.25952486 481.4316064 C225.45062745 481.43313789 223.64173003 481.43467623 221.83283263 481.43622137 C204.87232077 481.4499469 187.91185505 481.44450827 170.95134424 481.43303616 C155.43748441 481.423103 139.92374384 481.43604576 124.4099024 481.45997035 C108.47645489 481.48435673 92.54306294 481.4939704 76.60959715 481.48731762 C67.6656764 481.48382447 58.72184738 481.48606385 49.77794075 481.50356865 C42.16447931 481.51828483 34.55117419 481.5189337 26.93771584 481.50149774 C23.05414217 481.49298064 19.17084782 481.49085532 15.28728867 481.50614929 C11.07538812 481.52253085 6.86416252 481.50786031 2.65226746 481.49015808 C0.81505578 481.50456559 0.81505578 481.50456559 -1.05927128 481.51926416 C-8.90897015 481.45128427 -14.47739506 480.52686584 -20.54562378 475.17254639 C-21.00066284 474.59633545 -21.4557019 474.02012451 -21.92453003 473.42645264 C-22.39761597 472.84766357 -22.8707019 472.26887451 -23.35812378 471.67254639 C-25.51816936 468.45116354 -25.60639438 465.63898616 -25.58468628 461.88348389 C-25.58146362 460.90057373 -25.57824097 459.91766357 -25.57492065 458.90496826 C-25.56235229 457.36872803 -25.56235229 457.36872803 -25.54953003 455.80145264 C-25.54501831 454.76569092 -25.54050659 453.7299292 -25.53585815 452.66278076 C-25.52407013 450.10477997 -25.50761518 447.54689531 -25.48703003 444.98895264 C-26.29333862 445.01513672 -27.09964722 445.0413208 -27.9303894 445.06829834 C-31.61573475 445.17281524 -35.30076741 445.23745502 -38.98703003 445.30145264 C-40.25546753 445.34334717 -41.52390503 445.3852417 -42.83078003 445.42840576 C-50.2854837 445.52547222 -55.87512243 445.25793607 -61.48703003 439.98895264 C-65.43446551 434.92813791 -66.60928801 431.29785743 -66.63521767 424.96581268 C-66.642759 423.69866724 -66.65030034 422.43152179 -66.65807021 421.12597799 C-66.66143588 419.71177285 -66.6646907 418.29756744 -66.66784668 416.88336182 C-66.67472368 415.38718304 -66.68201228 413.89100612 -66.68967855 412.39483118 C-66.70944057 408.27268253 -66.72280687 404.15053405 -66.73502707 400.02835703 C-66.7462904 396.49519287 -66.76122387 392.96204797 -66.77615018 389.42889768 C-66.9171817 355.93061482 -66.98256684 322.43189639 -67.03547096 288.9333725 C-67.04247994 284.5720162 -67.04960691 280.21066011 -67.05685425 275.8493042 C-67.05864954 274.76530234 -67.06044483 273.68130048 -67.06229453 272.56445009 C-67.09235378 255.00883415 -67.15711414 237.45351768 -67.2355407 219.89805835 C-67.31538873 201.87534867 -67.36115572 183.85279403 -67.37449682 165.82991076 C-67.38290316 155.71023917 -67.40664244 145.5910983 -67.4691658 135.47160339 C-67.52239319 126.85196172 -67.54511444 118.23292543 -67.52805562 109.61312419 C-67.52031296 105.21640889 -67.52706499 100.82099486 -67.57333755 96.42448807 C-67.61541993 92.39433267 -67.6154613 88.36638131 -67.58290736 84.33615786 C-67.57843056 82.88313111 -67.5890028 81.42995803 -67.61665745 79.97718757 C-67.7845641 70.59089414 -66.34808983 65.28975486 -59.84474027 58.38849115 C-59.06669589 57.59664344 -58.28865151 56.80479573 -57.48703003 55.98895264 C-56.01182846 54.21114897 -54.55125512 52.42100457 -53.11203003 50.61395264 C-49.29700064 45.94670028 -45.40810562 41.34685087 -41.50314331 36.75506592 C-38.77703566 33.54041535 -36.10537435 30.29267134 -33.48703003 26.98895264 C-30.36666223 23.05485442 -27.16828086 19.19626945 -23.92453003 15.36395264 C-23.48947144 14.8496167 -23.05441284 14.33528076 -22.60617065 13.80535889 C-21.74502399 12.79149023 -20.8745891 11.7854245 -19.99426758 10.78815961 C-18.44447622 8.99541701 -18.44447622 8.99541701 -17.0853442 6.95404887 C-12.16462574 0.28769007 -7.99466662 -0.15362049 0 0 Z M-1.48703003 13.98895264 C-1.49067566 14.5895047 -1.49432129 15.19005676 -1.49807739 15.80880737 C-1.53995455 22.07106946 -1.60933681 28.3326022 -1.69454956 34.59442139 C-1.72273932 36.92995909 -1.74396373 39.26559184 -1.75802612 41.60125732 C-1.77948249 44.96275423 -1.82614909 48.32311071 -1.87765503 51.68426514 C-1.87949799 53.24553635 -1.87949799 53.24553635 -1.88137817 54.83834839 C-2.00266555 60.86970082 -2.48790022 64.38487363 -6.48703003 68.98895264 C-12.26852561 74.32571779 -17.36179091 75.28938958 -25.06906128 75.40301514 C-25.8832402 75.42238129 -26.69741913 75.44174744 -27.53627014 75.46170044 C-30.12391855 75.52124016 -32.71161206 75.56777847 -35.29953003 75.61395264 C-37.05931451 75.65215603 -38.81908077 75.69120914 -40.5788269 75.73114014 C-44.88141237 75.82692046 -49.18408533 75.91104549 -53.48703003 75.98895264 C-53.57852337 120.89095769 -53.64903711 165.79295289 -53.69129135 210.69503273 C-53.69629436 215.9923877 -53.70147163 221.28974248 -53.70675659 226.58709717 C-53.70780583 227.64173494 -53.70885508 228.69637271 -53.70993611 229.78296921 C-53.72735612 246.87455813 -53.75890257 263.96609341 -53.79564121 281.05765048 C-53.83300628 298.5864188 -53.85525648 316.11515897 -53.86338401 333.64396548 C-53.868881 344.46603554 -53.88626201 355.28795399 -53.9186959 366.10997739 C-53.93978907 373.52429637 -53.9462419 380.93853661 -53.94103554 388.35288343 C-53.93846563 392.6348965 -53.94249068 396.91664407 -53.96385193 401.19861031 C-53.98325085 405.1156898 -53.98434385 409.03232409 -53.97062561 412.94942364 C-53.968929 414.36941359 -53.97405982 415.78943079 -53.98656276 417.20936671 C-54.00253068 419.13412296 -53.99160766 421.05904687 -53.97922134 422.9838295 C-53.98074023 424.05464083 -53.98225911 425.12545216 -53.98382401 426.22871232 C-53.34988057 429.75096966 -52.37963514 430.91534625 -49.48703003 432.98895264 C-46.90352525 433.58567102 -46.90352525 433.58567102 -44.02686405 433.49511051 C-42.91078016 433.5061582 -41.79469627 433.51720589 -40.64479166 433.52858835 C-39.41864112 433.52034759 -38.19249058 433.51210682 -36.92918396 433.50361633 C-35.62664089 433.51056186 -34.32409781 433.51750739 -32.98208374 433.52466339 C-29.36354194 433.54333656 -25.7454081 433.53696995 -22.12684906 433.52651036 C-18.22559188 433.51953147 -14.32441963 433.53550629 -10.42318726 433.54850769 C-2.77919019 433.57017521 4.86465817 433.57001375 12.50867587 433.56188215 C18.72041405 433.55558791 24.9321088 433.55671387 31.14384651 433.56315422 C32.4688785 433.5645067 32.4688785 433.5645067 33.82067882 433.56588651 C35.61508704 433.56773767 37.40949525 433.56960023 39.20390344 433.57147407 C56.03985593 433.58806221 72.87572467 433.57932482 89.71167213 433.56248849 C105.12107918 433.54779151 120.53029125 433.56241808 135.93967318 433.59125865 C151.75436881 433.62063784 167.56897441 433.6316292 183.38369614 433.62207645 C185.17188996 433.62105388 186.96008381 433.62005927 188.74827766 433.61909294 C189.62814533 433.61861655 190.50801299 433.61814016 191.41454331 433.61764934 C197.61942396 433.6154832 203.82421956 433.6252999 210.02908134 433.63986397 C217.59003349 433.65736312 225.15073701 433.65730493 232.71167927 433.63451231 C236.57061159 433.62334776 240.42910549 433.62025702 244.28801918 433.63881302 C248.46842256 433.65865651 252.64775202 433.63988325 256.82814026 433.61714172 C258.05206008 433.62897745 259.2759799 433.64081318 260.5369882 433.65300757 C261.65567983 433.64058553 262.77437147 433.62816349 263.92696285 433.61536503 C264.89194224 433.61509534 265.85692163 433.61482565 266.85114282 433.61454779 C270.68756848 432.71289296 272.1577282 431.10618919 274.51296997 427.98895264 C275.25824258 424.67890893 275.25824258 424.67890893 275.14217567 420.98176479 C275.14944288 420.28496075 275.15671008 419.5881567 275.1641975 418.87023738 C275.1824822 416.52941434 275.1650781 414.19022276 275.14788818 411.84941101 C275.15364805 410.15676982 275.16158825 408.46413487 275.17152441 406.77151304 C275.19243949 402.11571737 275.18206149 397.46043269 275.16659331 392.80463493 C275.15530285 387.78547723 275.17273099 382.76640878 275.18649292 377.74726868 C275.20875402 367.91328193 275.20391148 358.07948573 275.18942972 348.24549144 C275.17814941 340.25554425 275.17660133 332.26565057 275.1820488 324.27569771 C275.18281496 323.13963194 275.18358113 322.00356617 275.18437051 320.83307417 C275.18596909 318.52537475 275.18759016 316.21767534 275.18923347 313.90997595 C275.20349922 292.25884924 275.18708493 270.6078283 275.16023163 248.95671893 C275.13788912 230.36674322 275.14177451 211.77692358 275.16482544 193.18695068 C275.19156365 171.61309648 275.20212902 150.03933501 275.18676412 128.46546656 C275.18517133 126.16644165 275.18359947 123.86741673 275.1820488 121.5683918 C275.18127742 120.43714438 275.18050604 119.30589695 275.17971129 118.14036931 C275.17538857 110.15668193 275.18269308 102.17305322 275.19444656 94.18937492 C275.20844798 84.4647675 275.20472121 74.74036195 275.17804284 65.01577776 C275.16487335 60.05120616 275.15980553 55.08697153 275.1762886 50.12240219 C275.19113632 45.58183466 275.18308619 41.04191792 275.15640084 36.50140984 C275.15079382 34.85480303 275.1537058 33.20814177 275.16577978 31.56156968 C275.18089178 29.33035431 275.16549316 27.10139499 275.14217567 24.87029934 C275.14136391 23.6290459 275.14055215 22.38779246 275.13971579 21.10892528 C274.76693709 17.84098494 274.76693709 17.84098494 272.27661628 15.58963042 C269.39128817 13.91847569 267.95190963 13.49068368 264.66542339 13.49676132 C263.71146795 13.48879713 262.75751251 13.48083293 261.77464932 13.4726274 C260.21482515 13.49010445 260.21482515 13.49010445 258.62348938 13.50793457 C257.51257457 13.50451687 256.40165975 13.50109917 255.25708085 13.49757791 C251.52725635 13.49097899 247.79814832 13.51300948 244.06838989 13.53485107 C241.39771908 13.53597912 238.72709242 13.53552277 236.056427 13.53308105 C230.30295048 13.53098409 224.54965546 13.54352936 218.79622459 13.56603241 C210.47777087 13.59854669 202.15940488 13.60895883 193.8408945 13.61398438 C180.34457368 13.62273794 166.8483496 13.64935514 153.3520813 13.68719482 C140.24206018 13.72391335 127.13206534 13.75222588 114.02200317 13.76922607 C113.21384099 13.77027697 112.40567881 13.77132786 111.57302686 13.7724106 C107.51869689 13.77763077 103.46436673 13.7826856 99.41003644 13.78765821 C65.77761081 13.82912215 32.14530225 13.89957221 -1.48703003 13.98895264 Z " fill="#040404" transform="translate(125.48703002929688,15.01104736328125)"/>
<path d="M0 0 C0.97646484 -0.01160156 1.95292969 -0.02320312 2.95898438 -0.03515625 C8.39530254 -0.01304241 12.4016448 0.26528929 17.0625 3.375 C21.47541294 8.26498461 22.18393614 10.81744859 22.0625 17.375 C23.62409059 17.85712214 25.18681928 18.33555873 26.75 18.8125 C27.62011719 19.07933594 28.49023438 19.34617187 29.38671875 19.62109375 C33.18338154 20.69831898 33.18338154 20.69831898 37.0625 21.375 C37.76375 20.735625 38.465 20.09625 39.1875 19.4375 C42.98604083 16.71245984 45.69324472 16.68236909 50.2890625 16.8671875 C54.96900244 17.72407791 57.70728614 20.13619152 61.0625 23.375 C62.13371094 24.36693359 62.13371094 24.36693359 63.2265625 25.37890625 C71.7973871 33.59131455 71.7973871 33.59131455 72.4375 40.3125 C72.2411268 45.51638986 69.89853374 49.1209494 67.0625 53.375 C67.95613334 58.08306826 69.58087338 62.27755872 72.0625 66.375 C74.43601252 67.62261555 76.18806389 67.84900532 78.84375 68.0703125 C82.66837078 68.59552451 84.41197687 70.65982996 87.0625 73.375 C89.74809689 77.81607707 89.43012959 82.0689007 89.4375 87.125 C89.46199219 87.99382812 89.48648438 88.86265625 89.51171875 89.7578125 C89.54269131 96.63372095 88.04186573 102.06459363 83.375 107.25 C81.0625 108.375 81.0625 108.375 78.984375 108.56640625 C76.3210261 108.84420589 74.46171334 109.15412371 72.0625 110.375 C69.56790026 114.12241864 67.93570197 117.95624642 67.0625 122.375 C67.9413706 124.88043709 69.15799496 126.51089667 70.6875 128.6875 C72.48196341 132.19486031 72.4732511 134.47286452 72.0625 138.375 C69.86309172 143.97637073 66.28975163 147.56852838 62.0625 151.6875 C61.4334375 152.31978516 60.804375 152.95207031 60.15625 153.60351562 C55.34614425 158.35757141 52.14377396 159.70174238 45.33984375 159.6796875 C41.97094852 159.22896052 39.79766084 157.30204514 37.0625 155.375 C33.51670158 155.80120615 30.15875687 156.89214789 26.75 157.9375 C25.86699219 158.20691406 24.98398437 158.47632813 24.07421875 158.75390625 C23.41035156 158.95886719 22.74648438 159.16382813 22.0625 159.375 C22.04832031 159.95507812 22.03414063 160.53515625 22.01953125 161.1328125 C21.64712911 167.23215559 20.56198812 170.18229516 16.0625 174.375 C11.2383789 177.08507576 6.06821243 176.74252679 0.6875 176.75 C-0.23289062 176.77449219 -1.15328125 176.79898438 -2.1015625 176.82421875 C-8.26259826 176.85062319 -11.92658148 176.02231322 -16.9375 172.375 C-19.9440473 168.01065714 -20.25134814 164.60580226 -19.9375 159.375 C-20.741875 159.2925 -21.54625 159.21 -22.375 159.125 C-26.89684205 158.17303325 -30.78452701 156.35919821 -34.9375 154.375 C-35.700625 155.014375 -36.46375 155.65375 -37.25 156.3125 C-41.04660757 159.22617557 -43.99843767 159.52822793 -48.70703125 159.80078125 C-54.62716198 158.67066873 -59.08109662 153.56969737 -63.1875 149.4375 C-63.71601563 148.92509766 -64.24453125 148.41269531 -64.7890625 147.88476562 C-68.41726663 144.26116582 -70.78710469 141.30269544 -71.0546875 136.09375 C-70.37427649 129.86030721 -70.37427649 129.86030721 -67.6875 126.875 C-67.11 126.05 -66.5325 125.225 -65.9375 124.375 C-66.36597788 121.96199301 -67.15043175 119.87413255 -68.0625 117.6015625 C-69.12374771 114.90106609 -69.56953414 112.24513373 -69.9375 109.375 C-70.948125 109.4575 -71.95875 109.54 -73 109.625 C-77.45740567 109.34199012 -80.63112 108.43585674 -83.9375 105.375 C-87.733403 99.87138306 -87.41974222 94.30974461 -87.375 87.875 C-87.39498047 86.85535156 -87.41496094 85.83570313 -87.43554688 84.78515625 C-87.43156674 78.66370176 -87.04176074 75.01690375 -82.9375 70.375 C-79.82269441 67.93366589 -78.44404001 67.36595464 -74.4375 67.4375 C-70.78293448 66.74226901 -70.78293448 66.74226901 -69.30859375 63.82421875 C-66.40598777 57.92578144 -66.40598777 57.92578144 -66.71484375 51.6328125 C-67.92423987 49.30642654 -67.92423987 49.30642654 -69.5625 47 C-71.39477367 43.502023 -71.41722817 41.28135799 -70.9375 37.375 C-68.06096968 32.38808544 -64.39030446 28.55383316 -60.3125 24.5625 C-59.72726563 23.97791016 -59.14203125 23.39332031 -58.5390625 22.79101562 C-53.58746765 17.89052669 -51.27672918 17.05073243 -44.47265625 17.0703125 C-40.93148234 17.49590813 -38.78632029 19.32119933 -35.9375 21.375 C-32.61926986 21.28991718 -30.43655485 20.15528722 -27.375 18.8125 C-23.9375 17.375 -23.9375 17.375 -19.9375 17.375 C-20.02 16.17875 -20.1025 14.9825 -20.1875 13.75 C-20.17953965 9.25239961 -18.90704113 6.82608834 -15.9375 3.375 C-11.15722992 -0.6339516 -5.92206206 -0.07008357 0 0 Z " fill="#FAFAFA" transform="translate(234.9375,65.625)"/>
<path d="M0 0 C3.72890255 -0.1164862 7.45733514 -0.18734576 11.1875 -0.25 C12.77014648 -0.30027344 12.77014648 -0.30027344 14.38476562 -0.3515625 C15.40634766 -0.36445312 16.42792969 -0.37734375 17.48046875 -0.390625 C18.41785889 -0.41157227 19.35524902 -0.43251953 20.32104492 -0.45410156 C23.95225487 0.16141384 25.52384281 1.28387536 28 4 C28.62559515 7.12753534 28.62559515 7.12753534 28.62641239 10.89975739 C28.63338 11.59709596 28.64034761 12.29443454 28.64752635 13.01290458 C28.66484192 15.36157331 28.64636966 17.70860804 28.62818909 20.05725098 C28.63323169 21.75315302 28.6404583 23.44904975 28.64968723 25.14493418 C28.66867733 29.81439916 28.65633788 34.48334294 28.6389643 39.15279508 C28.62562924 44.18491504 28.64101347 49.21695678 28.65278625 54.24906921 C28.67119613 64.11060559 28.66262821 73.97194424 28.64469803 83.83347452 C28.63069056 91.84585048 28.62677523 99.85817266 28.6301403 107.87055969 C28.63061775 109.00953631 28.63109519 110.14851293 28.6315871 111.32200399 C28.6326134 113.63558194 28.63366875 115.94915988 28.63475286 118.26273781 C28.6433267 138.73525678 28.62662274 159.20768009 28.59692383 179.68017578 C28.5680848 199.56009947 28.56100201 219.43988535 28.57641602 239.31982422 C28.59316493 260.951165 28.59722576 282.58244031 28.57970566 304.21378279 C28.57786121 306.51900195 28.57602648 308.82422113 28.57420158 311.12944031 C28.57328949 312.26374683 28.5723774 313.39805335 28.57143768 314.56673279 C28.56582413 322.57243857 28.56914707 330.57811247 28.57574654 338.58381653 C28.5834662 348.33587593 28.57677655 358.08779951 28.5515715 367.83983147 C28.53904465 372.81852779 28.53296839 377.7970123 28.54411316 382.77571678 C28.55411385 387.32919883 28.54578553 391.88225745 28.52253198 396.43568772 C28.51734931 398.08703444 28.51897629 399.73841875 28.52792663 401.38974935 C28.53904873 403.62709369 28.52577122 405.8629879 28.50615788 408.10024261 C28.50496639 409.34507589 28.50377491 410.58990916 28.50254732 411.87246466 C28 415 28 415 26.31077617 417.39959997 C23.4818446 419.35886467 21.94524173 419.50194533 18.52142334 419.50615788 C17.40123936 419.51720556 16.28105537 419.52825325 15.12692642 419.53963572 C13.28084101 419.52727457 13.28084101 419.52727457 11.39746094 419.5146637 C9.43646265 419.52508199 9.43646265 419.52508199 7.43584824 419.53571075 C3.80397473 419.55438414 0.17250768 419.54801725 -3.45938301 419.53755772 C-7.37493599 419.53057896 -11.29040435 419.54655348 -15.20593262 419.55955505 C-22.877668 419.58122219 -30.54925522 419.58106131 -38.22101116 419.57292951 C-44.45468772 419.56663565 -50.68832098 419.56776088 -56.92199707 419.57420158 C-57.80841582 419.57510324 -58.69483456 419.57600489 -59.60811448 419.57693387 C-61.40872543 419.57878503 -63.20933637 419.58064759 -65.0099473 419.58252143 C-81.90357344 419.59910919 -98.79711612 419.59037223 -115.69073725 419.57353585 C-131.15578505 419.55883621 -146.62063862 419.57346926 -162.08566141 419.60230602 C-177.95572275 419.63167825 -193.82569437 419.64267877 -209.69578171 419.63312382 C-211.48985543 419.63210124 -213.28392917 419.63110663 -215.07800293 419.6301403 C-215.96077542 419.62966391 -216.8435479 419.62918752 -217.75307107 419.6286967 C-223.98096371 419.62652979 -230.20877166 419.63635127 -236.43664551 419.65091133 C-244.02397637 419.66840183 -251.61105949 419.66836468 -259.19838047 419.64555968 C-263.07136523 419.63438767 -266.94391297 419.63132114 -270.81687927 419.64986038 C-275.01076913 419.66967795 -279.20358644 419.65094763 -283.39746094 419.62818909 C-284.62818455 419.64002482 -285.85890816 419.65186054 -287.12692642 419.66405493 C-295.18607158 419.57468479 -295.18607158 419.57468479 -298.77203369 417.04276943 C-300.47323759 412.82736776 -300.43455155 409.18416961 -300.25 404.6875 C-300.23195313 403.85154297 -300.21390625 403.01558594 -300.1953125 402.15429688 C-300.14841126 400.10236772 -300.07667411 398.05103244 -300 396 C-299.39787044 395.99940291 -298.79574088 395.99880582 -298.17536497 395.99819064 C-262.48498422 395.96229348 -226.79469507 395.90564959 -191.10439333 395.82207905 C-186.81861934 395.81206164 -182.53284496 395.8022175 -178.24707031 395.79248047 C-177.39385297 395.7905391 -176.54063563 395.78859772 -175.66156322 395.78659752 C-161.84800459 395.75557992 -148.03446257 395.73859754 -134.22087568 395.72680578 C-120.0459141 395.71439297 -105.87103969 395.68688865 -91.69613314 395.64538693 C-82.95006466 395.62025522 -74.20414074 395.60688248 -65.45803565 395.60857043 C-59.45977248 395.60860019 -53.46165652 395.59396545 -47.46345073 395.56783572 C-44.0032123 395.55319394 -40.54327574 395.54498302 -37.08301163 395.55419731 C-33.32825184 395.5608193 -29.57437321 395.5429574 -25.81970215 395.51898193 C-24.73019367 395.52674235 -23.64068519 395.53450277 -22.5181613 395.54249835 C-16.24535938 395.47155396 -11.16110935 394.79354268 -6 391 C-1.91602771 385.86885533 -0.87612522 382.11575708 -0.8613348 375.66502094 C-0.85707147 374.69239052 -0.85707147 374.69239052 -0.85272202 373.700111 C-0.84435462 371.51240772 -0.84310521 369.32475726 -0.84178162 367.13703918 C-0.83721766 365.558775 -0.83221788 363.98051202 -0.82681805 362.40225047 C-0.81320862 358.05362997 -0.80581048 353.70501731 -0.79939139 349.35638106 C-0.79139975 344.67130907 -0.77769773 339.98625346 -0.76467896 335.30119324 C-0.74289864 327.18012313 -0.72475985 319.05905138 -0.70907402 310.9379673 C-0.68638954 299.19615181 -0.65824475 287.45435444 -0.62875474 275.7125543 C-0.58106138 256.66360213 -0.53780192 237.61464257 -0.49731445 218.56567383 C-0.4579684 200.05818099 -0.41654431 181.55069473 -0.37231445 163.04321289 C-0.36822804 161.33284668 -0.36822804 161.33284668 -0.36405908 159.58792762 C-0.35037975 153.86782422 -0.33665945 148.14772092 -0.32291877 142.42761767 C-0.20892659 94.95175883 -0.10212331 47.47588575 0 0 Z " fill="#FAFAFA" transform="translate(412,64)"/>
<path d="M0 0 C0.97646484 -0.01160156 1.95292969 -0.02320312 2.95898438 -0.03515625 C8.39530254 -0.01304241 12.4016448 0.26528929 17.0625 3.375 C21.47541294 8.26498461 22.18393614 10.81744859 22.0625 17.375 C23.62409059 17.85712214 25.18681928 18.33555873 26.75 18.8125 C27.62011719 19.07933594 28.49023438 19.34617187 29.38671875 19.62109375 C33.18338154 20.69831898 33.18338154 20.69831898 37.0625 21.375 C37.76375 20.735625 38.465 20.09625 39.1875 19.4375 C42.98604083 16.71245984 45.69324472 16.68236909 50.2890625 16.8671875 C54.96900244 17.72407791 57.70728614 20.13619152 61.0625 23.375 C62.13371094 24.36693359 62.13371094 24.36693359 63.2265625 25.37890625 C71.7973871 33.59131455 71.7973871 33.59131455 72.4375 40.3125 C72.2411268 45.51638986 69.89853374 49.1209494 67.0625 53.375 C67.95613334 58.08306826 69.58087338 62.27755872 72.0625 66.375 C74.43601252 67.62261555 76.18806389 67.84900532 78.84375 68.0703125 C82.66837078 68.59552451 84.41197687 70.65982996 87.0625 73.375 C89.74809689 77.81607707 89.43012959 82.0689007 89.4375 87.125 C89.46199219 87.99382812 89.48648438 88.86265625 89.51171875 89.7578125 C89.54269131 96.63372095 88.04186573 102.06459363 83.375 107.25 C81.0625 108.375 81.0625 108.375 78.984375 108.56640625 C76.3210261 108.84420589 74.46171334 109.15412371 72.0625 110.375 C69.56790026 114.12241864 67.93570197 117.95624642 67.0625 122.375 C67.9413706 124.88043709 69.15799496 126.51089667 70.6875 128.6875 C72.48196341 132.19486031 72.4732511 134.47286452 72.0625 138.375 C69.86309172 143.97637073 66.28975163 147.56852838 62.0625 151.6875 C61.4334375 152.31978516 60.804375 152.95207031 60.15625 153.60351562 C55.34614425 158.35757141 52.14377396 159.70174238 45.33984375 159.6796875 C41.97094852 159.22896052 39.79766084 157.30204514 37.0625 155.375 C33.51670158 155.80120615 30.15875687 156.89214789 26.75 157.9375 C25.86699219 158.20691406 24.98398437 158.47632813 24.07421875 158.75390625 C23.41035156 158.95886719 22.74648438 159.16382813 22.0625 159.375 C22.04832031 159.95507812 22.03414063 160.53515625 22.01953125 161.1328125 C21.64712911 167.23215559 20.56198812 170.18229516 16.0625 174.375 C11.2383789 177.08507576 6.06821243 176.74252679 0.6875 176.75 C-0.23289062 176.77449219 -1.15328125 176.79898438 -2.1015625 176.82421875 C-8.26259826 176.85062319 -11.92658148 176.02231322 -16.9375 172.375 C-19.9440473 168.01065714 -20.25134814 164.60580226 -19.9375 159.375 C-20.741875 159.2925 -21.54625 159.21 -22.375 159.125 C-26.89684205 158.17303325 -30.78452701 156.35919821 -34.9375 154.375 C-35.700625 155.014375 -36.46375 155.65375 -37.25 156.3125 C-41.04660757 159.22617557 -43.99843767 159.52822793 -48.70703125 159.80078125 C-54.62716198 158.67066873 -59.08109662 153.56969737 -63.1875 149.4375 C-63.71601563 148.92509766 -64.24453125 148.41269531 -64.7890625 147.88476562 C-68.41726663 144.26116582 -70.78710469 141.30269544 -71.0546875 136.09375 C-70.37427649 129.86030721 -70.37427649 129.86030721 -67.6875 126.875 C-67.11 126.05 -66.5325 125.225 -65.9375 124.375 C-66.36597788 121.96199301 -67.15043175 119.87413255 -68.0625 117.6015625 C-69.12374771 114.90106609 -69.56953414 112.24513373 -69.9375 109.375 C-70.948125 109.4575 -71.95875 109.54 -73 109.625 C-77.45740567 109.34199012 -80.63112 108.43585674 -83.9375 105.375 C-87.733403 99.87138306 -87.41974222 94.30974461 -87.375 87.875 C-87.39498047 86.85535156 -87.41496094 85.83570313 -87.43554688 84.78515625 C-87.43156674 78.66370176 -87.04176074 75.01690375 -82.9375 70.375 C-79.82269441 67.93366589 -78.44404001 67.36595464 -74.4375 67.4375 C-70.78293448 66.74226901 -70.78293448 66.74226901 -69.30859375 63.82421875 C-66.40598777 57.92578144 -66.40598777 57.92578144 -66.71484375 51.6328125 C-67.92423987 49.30642654 -67.92423987 49.30642654 -69.5625 47 C-71.39477367 43.502023 -71.41722817 41.28135799 -70.9375 37.375 C-68.06096968 32.38808544 -64.39030446 28.55383316 -60.3125 24.5625 C-59.72726563 23.97791016 -59.14203125 23.39332031 -58.5390625 22.79101562 C-53.58746765 17.89052669 -51.27672918 17.05073243 -44.47265625 17.0703125 C-40.93148234 17.49590813 -38.78632029 19.32119933 -35.9375 21.375 C-32.61926986 21.28991718 -30.43655485 20.15528722 -27.375 18.8125 C-23.9375 17.375 -23.9375 17.375 -19.9375 17.375 C-20.02 16.17875 -20.1025 14.9825 -20.1875 13.75 C-20.17953965 9.25239961 -18.90704113 6.82608834 -15.9375 3.375 C-11.15722992 -0.6339516 -5.92206206 -0.07008357 0 0 Z M-7.9375 13.375 C-8.2675 17.335 -8.5975 21.295 -8.9375 25.375 C-12.24779579 26.80444591 -15.55932788 28.22083749 -18.8984375 29.58203125 C-20.46464844 30.22205078 -20.46464844 30.22205078 -22.0625 30.875 C-23.55136719 31.47828125 -23.55136719 31.47828125 -25.0703125 32.09375 C-27.96907405 33.31124787 -27.96907405 33.31124787 -30.59375 35.02734375 C-32.9375 36.375 -32.9375 36.375 -36.3125 36.4375 C-41.09651323 35.03528923 -43.35748731 32.80888972 -46.9375 29.375 C-50.5675 33.005 -54.1975 36.635 -57.9375 40.375 C-56.22869189 44.41607697 -56.22869189 44.41607697 -53.25 46.75 C-50.9375 49.375 -50.9375 49.375 -51.11328125 52.1796875 C-51.97184871 55.50816229 -53.17421984 58.10926041 -54.8125 61.125 C-57.26694817 65.82301296 -58.97422242 70.26407794 -60.19921875 75.4140625 C-60.9375 77.375 -60.9375 77.375 -63.9375 79.375 C-67.59662601 79.93631311 -71.24007122 80.11400503 -74.9375 80.375 C-74.9375 85.655 -74.9375 90.935 -74.9375 96.375 C-72.203125 96.50520833 -69.46875 96.63541667 -66.734375 96.765625 C-63.20149314 97.53535904 -62.10821596 98.50116082 -59.9375 101.375 C-58.59375 104.58203125 -58.59375 104.58203125 -57.4375 108.1875 C-56.10143609 112.19154246 -54.87044962 115.8334911 -52.5625 119.375 C-50.9375 122.375 -50.9375 122.375 -50.8125 125.4375 C-52.37565502 129.51907145 -54.68918126 131.47224708 -57.9375 134.375 C-56.47124144 137.72320898 -54.60091553 140.06766359 -52.0625 142.6875 C-51.38445312 143.40550781 -50.70640625 144.12351563 -50.0078125 144.86328125 C-48.07986697 146.60472266 -48.07986697 146.60472266 -45.828125 146.265625 C-43.64748749 145.38231057 -43.64748749 145.38231057 -41.5625 142.8125 C-38.9375 140.375 -38.9375 140.375 -36.19921875 140.015625 C-32.2213269 140.4539077 -29.6373704 141.78348776 -26.125 143.6875 C-20.83067668 146.48934541 -15.66597153 148.62733072 -9.9375 150.375 C-7.47660088 152.83589912 -8.16087672 160.34345878 -7.9375 163.375 C-2.3275 163.375 3.2825 163.375 9.0625 163.375 C9.165625 161.621875 9.26875 159.86875 9.375 158.0625 C9.67320912 152.99294501 9.67320912 152.99294501 11.11328125 150.70703125 C14.13440949 148.64249271 17.50503551 147.56244717 20.9375 146.375 C25.65773043 144.72420903 29.77110212 142.98049157 34.0625 140.375 C37.53021262 140.09758299 39.75657756 140.27302585 43.0625 141.375 C43.371875 142.035 43.68125 142.695 44 143.375 C44.8842567 145.48682307 44.8842567 145.48682307 46.80078125 146.30859375 C49.32243256 146.62870528 49.32243256 146.62870528 51.640625 144.28515625 C52.96320313 142.87556641 52.96320313 142.87556641 54.3125 141.4375 C55.65054688 140.03177734 55.65054688 140.03177734 57.015625 138.59765625 C57.69109375 137.86417969 58.3665625 137.13070312 59.0625 136.375 C57.87207905 133.8332904 56.83775973 132.1238197 54.9375 130 C52.60589612 126.73575457 52.70034567 125.32489661 53.0625 121.375 C54.26953125 118.515625 54.26953125 118.515625 55.875 115.625 C58.37399827 110.92031312 60.09322852 106.51112091 61.32421875 101.3359375 C62.0625 99.375 62.0625 99.375 65.0625 97.375 C68.72162601 96.81368689 72.36507122 96.63599497 76.0625 96.375 C76.0625 91.095 76.0625 85.815 76.0625 80.375 C74.309375 80.230625 72.55625 80.08625 70.75 79.9375 C67.60070647 79.67814642 65.07028521 79.37759507 62.0625 78.375 C61.32421875 76.07421875 61.32421875 76.07421875 60.75 73.0625 C59.44281547 67.16611389 57.23516554 62.40262819 54.26953125 57.1640625 C52.87417735 53.93984669 52.6134622 51.85265446 53.0625 48.375 C54.41015625 46.6171875 54.41015625 46.6171875 56.125 45.25 C57.86530072 43.95194674 57.86530072 43.95194674 59.0625 42.375 C59.01277672 39.37917252 57.97554449 38.27571621 55.99609375 36.015625 C55.17238281 35.22671875 54.34867188 34.4378125 53.5 33.625 C52.67371094 32.82578125 51.84742188 32.0265625 50.99609375 31.203125 C50.35800781 30.59984375 49.71992188 29.9965625 49.0625 29.375 C46.13781756 30.68648918 44.91750112 31.54351221 42.75 34.0625 C40.0625 36.375 40.0625 36.375 36.875 36.5 C32.86042339 35.31537084 29.51681238 33.67029551 25.8359375 31.7109375 C21.83637757 29.78438891 17.67949201 28.54059633 13.43359375 27.26953125 C11.0625 26.375 11.0625 26.375 10.0625 24.375 C9.61750069 20.71611679 9.36159776 17.04962966 9.0625 13.375 C3.4525 13.375 -2.1575 13.375 -7.9375 13.375 Z " fill="#050505" transform="translate(234.9375,65.625)"/>
<path d="M0 0 C7.0873324 5.70068041 14.00945231 12.8181708 15.09375 22.20654297 C15.97846279 34.10869477 14.59166035 43.10924095 6.875 52.5625 C0.17571308 59.4575453 -6.79689187 63.45400592 -16.47290039 63.91723633 C-27.1491633 64.01492455 -36.41479454 61.95049947 -44.33984375 54.3671875 C-51.82505512 45.75182387 -54.64514655 36.91048712 -54.4375 25.59375 C-53.57412646 16.52832779 -48.89958905 8.68095181 -42.2421875 2.58984375 C-29.0115311 -7.96873891 -14.41196387 -7.78246049 0 0 Z " fill="#FCFCFC" transform="translate(255.125,124.6875)"/>
<path d="M0 0 C0.88480543 -0.00843994 1.76961086 -0.01687988 2.68122858 -0.02557558 C3.65417149 -0.01956553 4.62711441 -0.01355549 5.62954044 -0.00736332 C6.6624202 -0.01274886 7.69529996 -0.01813439 8.75947911 -0.02368313 C12.2372869 -0.03804605 15.71471852 -0.03083838 19.19254398 -0.023736 C21.67907869 -0.0294352 24.16561078 -0.0363977 26.65213871 -0.04453373 C32.71510582 -0.06065891 38.77792389 -0.06255568 44.84089785 -0.05732083 C49.76786273 -0.05328326 54.69479696 -0.05471775 59.62176037 -0.06006908 C60.3223654 -0.06081751 61.02297043 -0.06156593 61.74480592 -0.06233703 C63.1679794 -0.06386847 64.59115288 -0.06540682 66.01432634 -0.066952 C79.36796176 -0.08068771 92.72153864 -0.07523189 106.07517273 -0.06376678 C118.29730625 -0.0538337 130.5192884 -0.06677441 142.74139857 -0.09070098 C155.28466628 -0.11507165 167.82786344 -0.12470484 180.37115437 -0.11804825 C187.41582837 -0.11455143 194.46038593 -0.11681841 201.50504208 -0.13429928 C208.12801255 -0.15052957 214.75074027 -0.1458713 221.37371922 -0.12699413 C223.8086151 -0.12329366 226.24353222 -0.12645883 228.67840862 -0.13687992 C231.99432664 -0.14999145 235.30927069 -0.1386291 238.62514591 -0.12088871 C239.59585811 -0.13049372 240.5665703 -0.14009872 241.56669801 -0.14999479 C248.03528355 -0.07845587 248.03528355 -0.07845587 251.31994057 2.22023582 C252.690835 4.38031673 252.690835 4.38031673 252.690835 7.44281673 C251.48498386 10.98500445 250.98663758 11.65586207 247.690835 13.38031673 C244.36513697 13.83049508 241.05937174 13.78457688 237.70780277 13.76126766 C236.16945215 13.76828762 236.16945215 13.76828762 234.60002375 13.7754494 C231.15295027 13.78744477 227.70627102 13.77792422 224.25919437 13.76850033 C221.79221711 13.772564 219.32524167 13.77790472 216.85826969 13.7844305 C210.84690228 13.79671 204.83569041 13.79488505 198.82432902 13.78619258 C193.93934209 13.77942093 189.05438667 13.77849706 184.1693964 13.78176403 C183.47447758 13.78222373 182.77955876 13.78268343 182.06358179 13.78315706 C180.65192385 13.78411622 179.24026591 13.78508886 177.82860798 13.78607483 C164.58751068 13.79463208 151.34647566 13.78478936 138.10538858 13.76867373 C126.74077312 13.75527023 115.37624958 13.75759823 104.01163578 13.77143002 C90.81833491 13.78747993 77.62508865 13.79380808 64.43177938 13.78459322 C63.02527746 13.78363756 61.61877554 13.78269445 60.2122736 13.78176403 C59.52022472 13.7813012 58.82817584 13.78083838 58.11515579 13.78036153 C53.23531414 13.77776987 48.3555071 13.78214641 43.47567081 13.78920269 C36.90934719 13.7984888 30.3431706 13.79188953 23.77685452 13.77451992 C21.36292339 13.77054363 18.94897768 13.77170853 16.5350523 13.77830791 C13.24779094 13.7864682 9.96109243 13.77626826 6.67386723 13.76126766 C5.71161905 13.76795983 4.74937087 13.77465199 3.75796366 13.78154695 C-2.62376383 13.72480211 -2.62376383 13.72480211 -5.90576077 12.0752573 C-7.309165 10.38031673 -7.309165 10.38031673 -7.746665 6.88031673 C-7.309165 3.38031673 -7.309165 3.38031673 -6.05114406 1.68533653 C-3.87125575 0.05225295 -2.70673552 0.00364011 0 0 Z " fill="#050505" transform="translate(113.30916500091553,306.61968326568604)"/>
<path d="M0 0 C1.02556708 -0.00467997 2.05113416 -0.00935994 3.10777903 -0.01418173 C6.5548525 -0.02617711 10.00153175 -0.01665656 13.4486084 -0.00723267 C15.91558566 -0.01129634 18.3825611 -0.01663706 20.84953308 -0.02316284 C26.86090049 -0.03544234 32.87211236 -0.03361739 38.88347375 -0.02492492 C43.76846068 -0.01815327 48.6534161 -0.0172294 53.53840637 -0.02049637 C54.23332519 -0.02095607 54.92824401 -0.02141577 55.64422098 -0.0218894 C57.05587893 -0.02284856 58.46753687 -0.0238212 59.8791948 -0.02480717 C73.12029209 -0.03336442 86.36132711 -0.0235217 99.60241419 -0.00740607 C110.96702965 0.00599743 122.33155319 0.00366943 133.69616699 -0.01016235 C146.88946786 -0.02621227 160.08271412 -0.03254042 173.27602339 -0.02332556 C174.68252531 -0.0223699 176.08902724 -0.02142679 177.49552917 -0.02049637 C178.18757805 -0.02003354 178.87962693 -0.01957072 179.59264699 -0.01909386 C184.47248863 -0.0165022 189.35229567 -0.02087875 194.23213196 -0.02793503 C200.79845559 -0.03722114 207.36463217 -0.03062186 213.93094826 -0.01325226 C216.34487938 -0.00927597 218.75882509 -0.01044087 221.17275047 -0.01704025 C224.46001184 -0.02520054 227.74671035 -0.0150006 231.03393555 0 C231.99618372 -0.00669217 232.9584319 -0.01338433 233.94983912 -0.02027929 C240.33156661 0.03646556 240.33156661 0.03646556 243.61356354 1.68601036 C245.01696777 3.38095093 245.01696777 3.38095093 245.45446777 6.88095093 C245.01696777 10.38095093 245.01696777 10.38095093 243.75912142 12.07610571 C241.57794322 13.7097733 240.41312072 13.75675194 237.70500946 13.75847435 C236.37687627 13.77020921 236.37687627 13.77020921 235.0219121 13.78218114 C234.04828706 13.77548898 233.07466203 13.76879681 232.0715332 13.76190186 C231.03794788 13.76658183 230.00436255 13.7712618 228.93945646 13.77608359 C225.45930552 13.78809585 221.97954385 13.77855189 218.49938965 13.76913452 C216.01123321 13.77319745 213.52307857 13.77853775 211.03492737 13.7850647 C204.96827932 13.79735167 198.90178532 13.79551532 192.83514321 13.78682677 C187.90578746 13.78005859 182.97646294 13.77912975 178.04710388 13.78239822 C177.34621013 13.78285792 176.64531637 13.78331762 175.92318341 13.78379125 C174.4994442 13.7847504 173.07570499 13.78572304 171.6519658 13.78670903 C158.29358776 13.79526886 144.93527144 13.7854195 131.57690352 13.76930793 C120.10848908 13.75590419 108.64016573 13.75823212 97.17175293 13.77206421 C83.86200666 13.78810956 70.5523145 13.79444484 57.24255991 13.78522742 C55.82398384 13.78427174 54.40540775 13.78332863 52.98683167 13.78239822 C52.28881887 13.7819354 51.59080607 13.78147257 50.87164137 13.78099572 C45.94675794 13.77840269 41.02190876 13.78278355 36.09703064 13.78983688 C29.47162794 13.79911687 22.84637108 13.79253394 16.22097588 13.77515411 C13.78404973 13.77117484 11.34710915 13.77234775 8.91018867 13.77894211 C5.59406128 13.78709075 2.27849367 13.77691679 -1.03759766 13.76190186 C-2.01122269 13.76859402 -2.98484773 13.77528619 -3.98797655 13.78218114 C-4.87339868 13.7743579 -5.75882081 13.76653466 -6.67107391 13.75847435 C-7.43686248 13.75798729 -8.20265105 13.75750024 -8.99164534 13.75699842 C-11.55924624 13.27214041 -12.43780777 12.46339495 -13.98303223 10.38095093 C-14.42053223 6.88095093 -14.42053223 6.88095093 -13.98303223 3.38095093 C-10.42566503 -0.91540633 -5.10004032 -0.03546934 0 0 Z " fill="#050505" transform="translate(119.9830322265625,346.6190490722656)"/>
<path d="M0 0 C1.23045073 1.01544566 2.43957676 2.05733403 3.625 3.125 C4.54732422 3.94484375 4.54732422 3.94484375 5.48828125 4.78125 C14.11920469 12.9131693 18.79359033 22.78318961 19.9765625 34.65234375 C20.32829182 49.12120877 16.4882442 62.11148656 6.5625 72.875 C-4.91302651 83.65386723 -17.80299942 86.95052388 -33.0859375 86.49609375 C-44.83545735 85.76272745 -55.3780027 79.31508244 -63.4375 70.99609375 C-72.76867763 59.75443794 -76.67205656 46.55680656 -75.375 32.125 C-72.81097424 18.99780227 -66.00815029 7.29361921 -55.0625 -0.52734375 C-38.35323461 -11.20560866 -16.40680633 -11.60329269 0 0 Z M-54.6875 16.5 C-61.72113315 25.31157931 -63.2554476 34.01878245 -62.375 45.125 C-60.0150917 55.97204838 -53.97175757 63.91518301 -44.78125 69.93359375 C-35.8612328 74.35016071 -24.33313683 74.97908245 -14.84765625 72.02734375 C-4.44898104 67.10993744 1.18797091 60.61252329 5.625 50.125 C8.3710305 41.8869085 7.81008107 31.37207561 4.125 23.5625 C-1.42150482 14.10233991 -8.79912275 7.78589472 -19.3515625 4.51171875 C-32.7347789 1.95392257 -45.57311569 6.49473602 -54.6875 16.5 Z " fill="#050505" transform="translate(263.375,114.875)"/>
<path d="M0 0 C0.88890553 -0.00644889 1.77781105 -0.01289778 2.69365311 -0.0195421 C3.67116909 -0.01644489 4.64868507 -0.01334769 5.65582275 -0.01015663 C6.69349163 -0.01468774 7.73116051 -0.01921886 8.8002739 -0.02388728 C12.29416035 -0.0365966 15.78789223 -0.03490671 19.28179932 -0.03325844 C21.77980756 -0.03923952 24.27781394 -0.04604409 26.77581787 -0.05361366 C32.86649151 -0.06948057 38.95710384 -0.07572378 45.04779243 -0.07683842 C49.99669064 -0.07778808 54.94557605 -0.08189427 59.89447021 -0.08823967 C73.91728749 -0.10585439 87.94007413 -0.11507797 101.96290255 -0.11357872 C103.09722129 -0.11345885 103.09722129 -0.11345885 104.25445557 -0.11333656 C105.39015464 -0.11321392 105.39015464 -0.11321392 106.54879713 -0.1130888 C118.82656612 -0.11227543 131.10421256 -0.13142521 143.38194609 -0.1596133 C155.98057257 -0.18831058 168.57913921 -0.20215539 181.17779922 -0.20042574 C188.25430729 -0.19976083 195.33068684 -0.20529735 202.40716553 -0.22678185 C209.05884737 -0.24684691 215.71030338 -0.24635239 222.36201477 -0.23174858 C224.8086232 -0.22964797 227.25524827 -0.23443517 229.701828 -0.2464695 C233.03121955 -0.26179058 236.35965649 -0.25270076 239.68902588 -0.23720741 C240.66654186 -0.24749454 241.64405785 -0.25778167 242.65119553 -0.26838052 C249.13993145 -0.20124094 249.13993145 -0.20124094 251.80419922 2.09286118 C253.0410376 5.17618894 252.62815926 7.11699695 251.67242432 10.25726891 C248.55834867 12.33331934 247.8907533 12.50774865 244.360466 12.5117445 C243.47504387 12.51757669 242.58962174 12.52340889 241.67736864 12.52941781 C240.70374361 12.52563849 239.73011857 12.52185917 238.72698975 12.51796532 C237.17661176 12.52370364 237.17661176 12.52370364 235.59491301 12.52955788 C232.11483972 12.53991645 228.63493054 12.53589031 225.15484619 12.53192711 C222.66669054 12.53627197 220.17853622 12.54145435 217.69038391 12.54741478 C211.62376949 12.55944382 205.55722013 12.56195337 199.49059975 12.55961452 C194.56124829 12.55783329 189.63191028 12.55957678 184.70256042 12.56383896 C183.65121979 12.56473174 183.65121979 12.56473174 182.57863995 12.56564256 C181.15490075 12.56685428 179.73116154 12.56806841 178.30742234 12.56928494 C164.94906031 12.58016691 151.59072352 12.57799475 138.23236006 12.57190009 C126.00311091 12.56672909 113.77394136 12.57799002 101.54470795 12.59699831 C88.99580323 12.61635439 76.44693621 12.62463672 63.89801645 12.62087506 C56.84948005 12.61895978 49.80101144 12.62148237 42.75248718 12.6355896 C36.127094 12.6487155 29.50183436 12.6462738 22.87643242 12.63317871 C20.43950282 12.63080199 18.00256213 12.63358647 15.56564522 12.64180183 C12.24952766 12.65217839 8.9339561 12.64424197 5.61785889 12.63149071 C4.64423385 12.63886499 3.67060882 12.64623928 2.66747999 12.65383703 C1.78205786 12.64663048 0.89663573 12.63942394 -0.01561737 12.63199902 C-1.16430022 12.63208154 -1.16430022 12.63208154 -2.33618879 12.63216573 C-4.90606198 12.14836356 -5.78623352 11.34596795 -7.32757568 9.25726891 C-7.70257568 5.69476891 -7.70257568 5.69476891 -7.32757568 2.25726891 C-4.2106586 0.17932418 -3.53569445 0.00647905 0 0 Z " fill="#000000" transform="translate(113.32757568359375,387.74273109436035)"/>
<path d="M0 0 C0.88480543 -0.00843994 1.76961086 -0.01687988 2.68122858 -0.02557558 C3.65417149 -0.01956553 4.62711441 -0.01355549 5.62954044 -0.00736332 C6.6624202 -0.01274886 7.69529996 -0.01813439 8.75947911 -0.02368313 C12.2372869 -0.03804605 15.71471852 -0.03083838 19.19254398 -0.023736 C21.67907869 -0.0294352 24.16561078 -0.0363977 26.65213871 -0.04453373 C32.71510582 -0.06065891 38.77792389 -0.06255568 44.84089785 -0.05732083 C49.76786273 -0.05328326 54.69479696 -0.05471775 59.62176037 -0.06006908 C60.3223654 -0.06081751 61.02297043 -0.06156593 61.74480592 -0.06233703 C63.1679794 -0.06386847 64.59115288 -0.06540682 66.01432634 -0.066952 C79.36796176 -0.08068771 92.72153864 -0.07523189 106.07517273 -0.06376678 C118.29730625 -0.0538337 130.5192884 -0.06677441 142.74139857 -0.09070098 C155.28466628 -0.11507165 167.82786344 -0.12470484 180.37115437 -0.11804825 C187.41582837 -0.11455143 194.46038593 -0.11681841 201.50504208 -0.13429928 C208.12801255 -0.15052957 214.75074027 -0.1458713 221.37371922 -0.12699413 C223.8086151 -0.12329366 226.24353222 -0.12645883 228.67840862 -0.13687992 C231.99432664 -0.14999145 235.30927069 -0.1386291 238.62514591 -0.12088871 C239.59585811 -0.13049372 240.5665703 -0.14009872 241.56669801 -0.14999479 C248.03188266 -0.07849349 248.03188266 -0.07849349 251.32775307 2.21632957 C252.690835 4.38031673 252.690835 4.38031673 252.565835 7.50531673 C251.690835 10.38031673 251.690835 10.38031673 249.690835 12.38031673 C247.81723458 12.63216573 247.81723458 12.63216573 245.48630714 12.63479233 C244.59939267 12.64062452 243.71247819 12.64645671 242.79868752 12.65246564 C241.81825869 12.64868632 240.83782987 12.64490699 239.82769108 12.64101315 C238.79087663 12.64483869 237.75406217 12.64866424 236.6858291 12.65260571 C233.18883059 12.66297856 229.69199496 12.65893545 226.19498539 12.65497494 C223.69712515 12.65931904 221.19926624 12.66450117 218.70140934 12.67046261 C212.60725233 12.68249911 206.51316008 12.68500008 200.41899712 12.68266235 C195.46721519 12.68088189 190.51544666 12.68262296 185.56366634 12.68688679 C184.85986174 12.68748198 184.15605713 12.68807717 183.43092511 12.68869039 C182.00130737 12.6899021 180.57168963 12.69111623 179.1420719 12.69233277 C165.7241027 12.70321831 152.30615861 12.70104104 138.888188 12.69494792 C126.60390992 12.68977801 114.31971113 12.70103434 102.03544874 12.72004614 C89.43233511 12.73940239 76.82925903 12.74768443 64.22613043 12.74392289 C57.14628011 12.74200745 50.06649728 12.74453158 42.98665905 12.75863743 C36.33091061 12.77176371 29.67529509 12.76932133 23.01953793 12.75622654 C20.57132127 12.75384979 18.12309359 12.7566344 15.67488956 12.76484966 C12.34339265 12.7752261 9.01243923 12.76728985 5.68096256 12.75453854 C4.70276446 12.76191282 3.72456636 12.76928711 2.71672589 12.77688485 C1.82720366 12.76967831 0.93768144 12.76247177 0.02120399 12.75504684 C-0.74816441 12.75510186 -1.51753281 12.75515688 -2.31021541 12.75521356 C-4.8706487 12.2750122 -5.75630521 11.44297935 -7.309165 9.38031673 C-7.95248506 4.23375624 -7.95248506 4.23375624 -6.05505031 1.71658653 C-3.87226988 0.04592492 -2.72961008 0.00367087 0 0 Z " fill="#000000" transform="translate(113.30916500091553,266.61968326568604)"/>
<path d="M0 0 C0.33 0 0.66 0 1 0 C1.09913574 4.75050819 1.17159264 9.50040976 1.21972656 14.25170898 C1.23979892 15.86672458 1.2670633 17.48166789 1.30175781 19.09643555 C1.35047215 21.42254501 1.37301154 23.74769093 1.390625 26.07421875 C1.41127014 26.79212082 1.43191528 27.51002289 1.45318604 28.24967957 C1.4547249 31.7149182 1.05078594 33.90689245 -0.6171875 36.96484375 C-3.7432547 39.63481262 -5.4414718 39.58087564 -9.515625 39.48828125 C-10.76601562 39.47216797 -12.01640625 39.45605469 -13.3046875 39.43945312 C-14.60664062 39.39755859 -15.90859375 39.35566406 -17.25 39.3125 C-19.22613281 39.27866211 -19.22613281 39.27866211 -21.2421875 39.24414062 C-24.49593404 39.18519594 -27.74739671 39.10295053 -31 39 C-29.68770697 36.17516144 -28.22892161 33.87652312 -26.234375 31.48828125 C-25.68031982 30.82054688 -25.12626465 30.1528125 -24.55541992 29.46484375 C-23.95963135 28.75457031 -23.36384277 28.04429688 -22.75 27.3125 C-21.49075009 25.79828962 -20.23163982 24.28396309 -18.97265625 22.76953125 C-18.32184082 21.98916504 -17.67102539 21.20879883 -17.00048828 20.40478516 C-13.71161568 16.45123437 -10.45127503 12.47427113 -7.1875 8.5 C-6.01492152 7.07242478 -4.84179544 5.64529906 -3.66796875 4.21875 C-3.17578857 3.61998047 -2.6836084 3.02121094 -2.17651367 2.40429688 C-1 1 -1 1 0 0 Z " fill="#F5F5F5" transform="translate(111,39)"/>
</svg>
