<?xml version="1.0" encoding="UTF-8"?>
<svg version="1.1" xmlns="http://www.w3.org/2000/svg" width="512" height="512">
<path d="M0 0 C1.27374481 -0.01036789 2.54748962 -0.02073578 3.85983276 -0.03141785 C7.34785218 -0.05844998 10.83515578 -0.05376848 14.3232336 -0.04171729 C17.24045882 -0.03457638 20.15755243 -0.04309233 23.07476735 -0.05162269 C29.96240063 -0.07157205 36.84968686 -0.06601264 43.73730469 -0.04394531 C50.82723544 -0.0216147 57.91625408 -0.03913937 65.00609851 -0.0769946 C71.10487361 -0.10830636 77.20336752 -0.11612022 83.30221295 -0.10504085 C86.93947147 -0.09857423 90.57620474 -0.10045558 94.21340179 -0.12436485 C98.27564635 -0.14970782 102.33621206 -0.12590896 106.3984375 -0.09765625 C108.18956467 -0.1182309 108.18956467 -0.1182309 110.01687622 -0.13922119 C120.5641589 0.0070454 126.30156646 4.15284043 133.63891602 11.43969727 C134.54628006 12.33437714 135.4536441 13.22905701 136.38850403 14.15084839 C137.34572329 15.11011897 138.30247384 16.06985746 139.25878906 17.0300293 C140.26731503 18.0339817 141.27620795 19.0375656 142.28544617 20.040802 C144.38552455 22.13200678 146.47991966 24.22870368 148.57055664 26.3293457 C151.23602556 29.00633227 153.91708014 31.66707488 156.60282612 34.32369804 C158.68525034 36.38769287 160.75819548 38.46101066 162.82857323 40.53708267 C163.81298302 41.52164467 164.8004543 42.50315644 165.79116249 43.48138046 C167.17845402 44.8536268 168.55152232 46.24020612 169.92407227 47.62719727 C170.70522903 48.4085202 171.4863858 49.18984314 172.29121399 49.99484253 C178.89376118 58.12463821 179.03233251 65.18099001 178.95921326 75.3274231 C178.96310918 76.82323449 178.96875196 78.31904217 178.97598416 79.81484115 C178.99071476 83.91268493 178.980572 88.0101435 178.96624744 92.10797477 C178.95512806 96.53200386 178.96708336 100.95597934 178.97608948 105.38000488 C178.99001667 114.04114744 178.98246993 122.70214412 178.96741389 131.36327972 C178.95054927 141.44881872 178.95376457 151.53432143 178.95750798 161.61987017 C178.96338545 179.61322743 178.94921858 197.6065147 178.92456055 215.59985352 C178.90063297 233.06211978 178.89355922 250.52429255 178.90405273 267.98657227 C178.91545929 287.00231068 178.9173958 306.01800585 178.90295464 325.03374374 C178.90142879 327.06089584 178.89990844 329.08804794 178.89839363 331.11520004 C178.89763582 332.11260379 178.896878 333.11000753 178.89609722 334.13763563 C178.89135293 341.16911677 178.89320681 348.20057862 178.89745903 355.23205948 C178.90238309 363.79854373 178.89641272 372.36493955 178.87656473 380.93140353 C178.86668634 385.30277013 178.86159356 389.67400201 178.86945724 394.04537582 C178.87650698 398.04608754 178.86972612 402.04652724 178.85185362 406.04720305 C178.84780458 407.49523895 178.84881664 408.9432996 178.85537248 410.39132632 C178.86351796 412.35867995 178.85141926 414.32608625 178.83832455 416.29341316 C178.83729542 417.38646834 178.83626629 418.47952351 178.83520597 419.60570157 C178.31589409 423.81465437 176.82852179 427.19468306 173.92285156 430.30737305 C169.63880318 433.58341004 167.62795381 434.78708409 162.28075886 434.79706287 C161.17685726 434.80152072 160.07295565 434.80597856 158.93560249 434.81057149 C157.7127724 434.81038713 156.48994231 434.81020277 155.23005676 434.81001282 C153.93880078 434.81368951 152.64754479 434.81736619 151.31715983 434.8211543 C147.72089238 434.83119112 144.12464163 434.83489379 140.52836215 434.83754361 C136.6543277 434.84144173 132.78030652 434.85102045 128.90628052 434.85975647 C119.54400631 434.87953567 110.18173099 434.8895893 100.81944111 434.89848426 C96.41266896 434.90286511 92.00589801 434.90823247 87.59912682 434.91347313 C72.95322958 434.93048749 58.3073331 434.94498192 43.6614275 434.95222187 C39.85916455 434.95413183 36.0569016 434.95605215 32.25463867 434.95800781 C31.30958097 434.95849155 30.36452326 434.95897529 29.39082744 434.95947369 C14.07967823 434.96777492 -1.23139287 434.99311246 -16.54250797 435.02558849 C-32.2554291 435.05864552 -47.96831052 435.07666944 -63.68126661 435.07986611 C-72.50619523 435.08203256 -81.33100999 435.09080072 -90.15590477 435.11632729 C-97.67141869 435.13801585 -105.18679109 435.14609385 -112.70233276 435.1363605 C-116.53715409 435.1318103 -120.37168334 435.13374347 -124.20646477 435.15312195 C-128.36422383 435.17395109 -132.52133284 435.16378601 -136.67912292 435.15058899 C-137.8907994 435.16155824 -139.10247589 435.17252748 -140.35086983 435.18382913 C-146.93470968 435.13324879 -151.35622567 434.89974693 -156.54199219 430.6628418 C-160.66635956 425.24316545 -161.11396399 420.95412655 -161.02301025 414.27919006 C-161.02642795 413.35440981 -161.02984565 412.42962955 -161.03336692 411.47682565 C-161.03993723 408.388854 -161.01798343 405.3017583 -160.99609375 402.21386719 C-160.99496509 399.9961143 -160.99559949 397.77835993 -160.99786377 395.56060791 C-160.99901111 389.54662025 -160.97549807 383.53295191 -160.94756794 377.51903844 C-160.92255794 371.23165714 -160.92021259 364.94426846 -160.91546631 358.65684509 C-160.90444763 348.10597312 -160.87946512 337.55520574 -160.84375 327.00439453 C-160.80700891 316.13916609 -160.77870745 305.27396946 -160.76171875 294.40869141 C-160.76066786 293.73845647 -160.75961696 293.06822153 -160.75853422 292.37767643 C-160.7533139 289.01515504 -160.74825911 285.65263343 -160.74328661 282.29011166 C-160.70147967 254.41427355 -160.63112519 226.53856591 -160.54199219 198.6628418 C-161.21782349 198.46744308 -161.89365479 198.27204437 -162.58996582 198.07072449 C-163.92843567 197.67775932 -163.92843567 197.67775932 -165.29394531 197.27685547 C-166.17602661 197.01958176 -167.05810791 196.76230804 -167.96691895 196.49723816 C-172.19686807 195.12661533 -175.95109361 193.08084881 -179.87792969 191.00463867 C-183.03961986 189.23633076 -183.03961986 189.23633076 -186.54199219 188.6628418 C-187.54841969 190.32563507 -188.54784626 191.99267664 -189.54199219 193.6628418 C-193.05452365 196.00452944 -194.40668574 196.15907857 -198.54199219 195.6628418 C-202.72090966 192.94340549 -204.27620442 190.78663459 -205.59667969 186.0144043 C-205.90089844 184.92643555 -206.20511719 183.8384668 -206.51855469 182.7175293 C-206.81503906 181.58573242 -207.11152344 180.45393555 -207.41699219 179.2878418 C-207.73667969 178.1637793 -208.05636719 177.0397168 -208.38574219 175.8815918 C-209.88399702 170.37061969 -210.93868842 166.32028252 -209.54199219 160.6628418 C-207.4921807 157.86721789 -206.29490069 156.83684732 -202.90527344 156.0534668 C-199.45010121 155.8942015 -195.99992467 155.75025162 -192.54199219 155.6628418 C-191.82060059 155.63174316 -191.09920898 155.60064453 -190.35595703 155.56860352 C-188.0847118 155.47142489 -185.81459709 155.40635238 -183.54199219 155.3503418 C-182.82438721 155.32037109 -182.10678223 155.29040039 -181.36743164 155.25952148 C-177.76928674 155.22058144 -175.68723788 155.57626772 -172.57324219 157.43237305 C-170.54199219 159.6628418 -170.54199219 159.6628418 -169.94824219 161.6628418 C-170.14276992 165.8127667 -170.31169616 168.68103008 -173.54199219 171.6628418 C-174.20199219 171.6628418 -174.86199219 171.6628418 -175.54199219 171.6628418 C-172.85135252 174.92722081 -169.33243698 176.38806209 -165.54199219 178.0378418 C-164.8479126 178.34093262 -164.15383301 178.64402344 -163.4387207 178.95629883 C-134.93419559 190.91601877 -102.81612217 191.14183489 -74.10449219 179.9128418 C-43.88563838 167.41739217 -21.99345396 144.52586035 -9.34228516 114.62182617 C2.1246454 86.55268316 1.04927148 54.47927857 -10.54199219 26.6628418 C-12.29341183 22.95111761 -14.20536621 19.35049693 -16.22167969 15.77612305 C-17.80870313 12.03394054 -18.1399973 9.68787622 -17.54199219 5.6628418 C-13.18707913 -0.99510202 -7.19634693 -0.05118158 0 0 Z M5.45800781 17.6628418 C6.30097454 21.87767542 7.40304518 25.5079471 8.83300781 29.5378418 C19.64878234 61.0448329 17.96768185 97.97138346 3.53759766 128.13696289 C2.22231672 130.75679034 0.84780133 133.33806761 -0.5703125 135.90356445 C-1.47648241 137.54423289 -2.35040969 139.20259514 -3.22167969 140.86206055 C-7.67834884 149.01840481 -13.30099729 155.83675363 -19.54199219 162.6628418 C-20.40824219 163.61288086 -21.27449219 164.56291992 -22.16699219 165.54174805 C-43.82400297 188.19781737 -75.46673879 203.61946416 -106.97119141 204.7902832 C-119.26408778 205.05088173 -131.28804426 204.77683706 -143.54199219 203.6628418 C-143.54199219 274.6128418 -143.54199219 345.5628418 -143.54199219 418.6628418 C-42.89199219 418.6628418 57.75800781 418.6628418 161.45800781 418.6628418 C161.45800781 303.4928418 161.45800781 188.3228418 161.45800781 69.6628418 C139.67800781 69.1678418 139.67800781 69.1678418 117.45800781 68.6628418 C115.80800781 68.0028418 114.15800781 67.3428418 112.45800781 66.6628418 C106.38060163 51.46932634 109.829819 34.02253416 109.45800781 17.6628418 C75.13800781 17.6628418 40.81800781 17.6628418 5.45800781 17.6628418 Z M126.45800781 30.6628418 C126.45800781 37.9228418 126.45800781 45.1828418 126.45800781 52.6628418 C133.71800781 52.6628418 140.97800781 52.6628418 148.45800781 52.6628418 C143.66301493 47.03268592 143.66301493 47.03268592 138.62597656 41.69799805 C137.97306641 41.04379883 137.32015625 40.38959961 136.64746094 39.71557617 C135.98681641 39.05879883 135.32617188 38.40202148 134.64550781 37.7253418 C133.96552734 37.04149414 133.28554688 36.35764648 132.58496094 35.65307617 C131.61526367 34.6853125 131.61526367 34.6853125 130.62597656 33.69799805 C130.04098389 33.1141333 129.45599121 32.53026855 128.85327148 31.92871094 C127.64856017 30.55085335 127.64856017 30.55085335 126.45800781 30.6628418 Z " fill="#F1741C" transform="translate(292.5419921875,69.337158203125)"/>
<path d="M0 0 C2.25663956 -0.017217 4.51181503 -0.06110521 6.76806641 -0.10522461 C8.20425356 -0.11535158 9.64045315 -0.12386768 11.07666016 -0.13061523 C13.03708252 -0.15248901 13.03708252 -0.15248901 15.03710938 -0.17480469 C18.94036034 0.37117396 20.04624021 1.20721952 22.39697266 4.29516602 C23.66259766 6.80297852 23.66259766 6.80297852 24.64697266 9.42016602 C25.14970703 10.7234082 25.14970703 10.7234082 25.66259766 12.05297852 C26.39697266 14.29516602 26.39697266 14.29516602 26.39697266 16.29516602 C27.04923828 16.47692383 27.70150391 16.65868164 28.37353516 16.84594727 C35.96081132 19.02812846 35.96081132 19.02812846 39.45947266 21.17016602 C43.92276949 22.87951374 47.17093606 21.15462212 51.39697266 19.29516602 C52.38697266 18.80016602 52.38697266 18.80016602 53.39697266 18.29516602 C59.9133251 17.39635878 59.9133251 17.39635878 63.27978516 19.43579102 C65.43423146 21.29276147 67.40746596 23.2615235 69.39697266 25.29516602 C70.42867515 26.29608656 71.46268982 27.29462723 72.49853516 28.29125977 C73.59097445 29.35373352 74.68212038 30.41753874 75.77197266 31.48266602 C76.29629883 31.99345703 76.820625 32.50424805 77.36083984 33.03051758 C82.21806987 37.88141071 82.21806987 37.88141071 83.39697266 41.29516602 C83.16919496 45.31923867 82.44936457 48.18030681 80.77197266 51.85766602 C78.5200402 57.48749716 80.27896361 61.10926873 82.45947266 66.48266602 C82.82169922 67.3218457 83.18392578 68.16102539 83.55712891 69.02563477 C84.39697266 71.29516602 84.39697266 71.29516602 84.39697266 74.29516602 C84.97705078 74.47692383 85.55712891 74.65868164 86.15478516 74.84594727 C98.66222409 78.87061821 98.66222409 78.87061821 100.53833008 82.50805664 C102.16781169 87.79726962 101.72393623 93.30479215 101.70947266 98.79516602 C101.72558594 100.01848633 101.74169922 101.24180664 101.75830078 102.50219727 C101.75894531 103.68168945 101.75958984 104.86118164 101.76025391 106.07641602 C101.76323486 107.14956055 101.76621582 108.22270508 101.76928711 109.32836914 C101.34522001 112.70755828 100.40482352 114.5681795 98.39697266 117.29516602 C96.02197266 118.84204102 96.02197266 118.84204102 93.39697266 120.04516602 C92.53072266 120.45250977 91.66447266 120.85985352 90.77197266 121.27954102 C88.39697266 122.29516602 88.39697266 122.29516602 85.39697266 123.29516602 C84.15125913 125.50779052 83.13026566 127.59558498 82.14697266 129.92016602 C81.86595703 130.52473633 81.58494141 131.12930664 81.29541016 131.75219727 C79.32648864 136.32360416 79.25670427 139.49221736 80.39697266 144.29516602 C81.20134766 146.02766602 81.20134766 146.02766602 82.02197266 147.79516602 C83.70005599 152.06665088 83.77890715 153.91904012 82.39697266 158.29516602 C80.3678815 161.26905274 77.92912145 163.74537159 75.39697266 166.29516602 C74.46182601 167.25585944 73.52694549 168.21681195 72.59228516 169.17797852 C62.80572779 179.14943273 62.80572779 179.14943273 57.77197266 179.67016602 C54.26514058 179.62528882 52.03929987 178.74197012 48.95947266 177.10766602 C45.41108208 175.37614896 43.59379598 175.09163961 39.83447266 176.35766602 C38.35513269 177.0031023 36.87596288 177.64892872 35.39697266 178.29516602 C34.68154297 178.44727539 33.96611328 178.59938477 33.22900391 178.75610352 C30.83809199 179.30336666 29.36361303 179.80829945 27.39697266 181.29516602 C25.83054168 184.26583621 24.72358143 187.18870547 23.69775391 190.38500977 C22.10646864 193.94509242 20.66082468 195.18048286 17.39697266 197.29516602 C14.13891602 197.78100586 14.13891602 197.78100586 10.48681641 197.75610352 C8.5077832 197.75030273 8.5077832 197.75030273 6.48876953 197.74438477 C5.8067749 197.73197754 5.12478027 197.71957031 4.42211914 197.70678711 C2.33706858 197.67021155 0.25379545 197.66576858 -1.83154297 197.66625977 C-13.39889511 197.56444444 -13.39889511 197.56444444 -16.60302734 195.29516602 C-17.84912109 192.21313477 -17.84912109 192.21313477 -19.04052734 188.48266602 C-20.55083966 184.36035882 -21.91946379 181.73101227 -25.73974609 179.29516602 C-29.01379095 178.06327456 -32.19680207 177.08291062 -35.60302734 176.29516602 C-36.30685547 176.05540039 -37.01068359 175.81563477 -37.73583984 175.56860352 C-40.30954145 175.19170161 -41.58097512 176.01899783 -43.85302734 177.23266602 C-48.59015395 179.43453829 -51.39122852 180.20516264 -56.60302734 179.29516602 C-59.69140779 177.37711921 -62.0697395 174.88465308 -64.60302734 172.29516602 C-65.63472983 171.29424547 -66.66874451 170.2957048 -67.70458984 169.29907227 C-68.79702914 168.23659851 -69.88817506 167.17279329 -70.97802734 166.10766602 C-71.50235352 165.596875 -72.02667969 165.08608398 -72.56689453 164.55981445 C-77.4538561 159.67922857 -77.4538561 159.67922857 -78.60302734 156.29516602 C-78.3874553 151.91186776 -77.85195709 148.5627804 -75.97802734 144.60766602 C-74.42856046 140.87485944 -74.62537677 140.06922495 -75.60302734 136.29516602 C-75.85697266 135.25360352 -76.11091797 134.21204102 -76.37255859 133.13891602 C-78.44055532 126.24494782 -78.44055532 126.24494782 -83.49755859 121.44360352 C-86.68135719 120.13734027 -86.68135719 120.13734027 -89.86083984 119.22485352 C-93.42051588 118.01801178 -94.94254174 116.61613722 -96.60302734 113.29516602 C-96.8373536 109.20901321 -96.83142698 105.12116216 -96.84326172 101.02880859 C-96.85294158 99.00063663 -96.88395267 96.9734896 -96.91552734 94.94555664 C-96.92068359 93.66229492 -96.92583984 92.3790332 -96.93115234 91.05688477 C-96.94049805 89.88085693 -96.94984375 88.7048291 -96.95947266 87.49316406 C-96.56508486 83.95474913 -95.74761462 82.1110227 -93.60302734 79.29516602 C-90.75537109 77.71313477 -90.75537109 77.71313477 -87.54052734 76.48266602 C-86.47705078 76.0637207 -85.41357422 75.64477539 -84.31787109 75.21313477 C-81.60302734 74.29516602 -81.60302734 74.29516602 -79.60302734 74.29516602 C-79.52052734 73.49079102 -79.43802734 72.68641602 -79.35302734 71.85766602 C-78.69327759 68.72385466 -77.86688561 66.62556337 -76.47802734 63.79516602 C-74.65151294 59.82332741 -74.2075485 57.57463447 -75.60302734 53.29516602 C-76.37646484 51.56266602 -76.37646484 51.56266602 -77.16552734 49.79516602 C-78.7065568 46.04309429 -79.41309318 44.26448861 -78.60302734 40.29516602 C-76.62725627 37.28644796 -74.13342562 34.84194228 -71.60302734 32.29516602 C-70.50656664 31.17287425 -69.41022111 30.05046997 -68.31396484 28.92797852 C-57.96471229 18.41461206 -57.96471229 18.41461206 -53.04052734 17.98266602 C-49.48535595 17.98911823 -47.14147358 18.83041385 -43.97802734 20.42016602 C-40.50425427 22.12248246 -40.50425427 22.12248246 -36.66552734 21.79516602 C-35.65490234 21.30016602 -34.64427734 20.80516602 -33.60302734 20.29516602 C-31.85770303 19.57538886 -30.10729686 18.86785833 -28.35302734 18.17016602 C-27.50224609 17.81696289 -26.65146484 17.46375977 -25.77490234 17.09985352 C-23.60302734 16.29516602 -23.60302734 16.29516602 -21.60302734 16.29516602 C-21.42126953 15.63129883 -21.23951172 14.96743164 -21.05224609 14.28344727 C-18.44545783 5.12626797 -18.44545783 5.12626797 -15.60302734 1.29516602 C-11.10952846 -0.95158342 -4.99754154 0.02659999 0 0 Z M-4.60302734 17.29516602 C-5.28365234 19.21329102 -5.96427734 21.13141602 -6.66552734 23.10766602 C-9.16018986 29.0091668 -9.16018986 29.0091668 -12.60302734 31.23266602 C-13.9315942 31.60431357 -15.26603955 31.95505509 -16.60302734 32.29516602 C-18.81908982 33.10772226 -21.02688135 33.94302936 -23.22802734 34.79516602 C-24.31341797 35.19735352 -25.39880859 35.59954102 -26.51708984 36.01391602 C-29.61113466 37.20697708 -29.61113466 37.20697708 -32.29052734 38.92797852 C-35.57902121 40.87218942 -37.83539824 40.68492075 -41.60302734 40.29516602 C-42.84940997 39.81699407 -44.07988358 39.29521355 -45.29052734 38.73266602 C-48.30686066 37.10674591 -48.30686066 37.10674591 -50.57568359 37.48266602 C-53.11916884 38.50202041 -54.47647298 39.8728489 -56.35302734 41.85766602 C-56.96662109 42.49833008 -57.58021484 43.13899414 -58.21240234 43.79907227 C-58.67130859 44.2927832 -59.13021484 44.78649414 -59.60302734 45.29516602 C-59.31427734 46.12016602 -59.02552734 46.94516602 -58.72802734 47.79516602 C-58.17115234 49.52766602 -58.17115234 49.52766602 -57.60302734 51.29516602 C-57.17376953 52.50301758 -56.74451172 53.71086914 -56.30224609 54.95532227 C-55.02534986 60.15496806 -56.93386873 63.63382634 -59.29052734 68.23266602 C-60.02780566 69.73973052 -60.76089573 71.24885131 -61.48974609 72.76000977 C-62.03356934 73.87049683 -62.03356934 73.87049683 -62.58837891 75.00341797 C-63.93998202 78.0562328 -64.85581562 81.18581303 -65.7199707 84.40698242 C-67.12823708 87.41818844 -69.49506992 88.33370094 -72.47021484 89.54125977 C-73.17404297 89.79004883 -73.87787109 90.03883789 -74.60302734 90.29516602 C-77.07802734 91.28516602 -77.07802734 91.28516602 -79.60302734 92.29516602 C-79.60302734 96.58516602 -79.60302734 100.87516602 -79.60302734 105.29516602 C-76.75677734 106.25422852 -76.75677734 106.25422852 -73.85302734 107.23266602 C-66.99558246 110.11070267 -66.99558246 110.11070267 -65.16552734 114.35766602 C-64.62536276 115.9972565 -64.10614868 117.64383212 -63.60302734 119.29516602 C-62.7641139 121.30161186 -61.90914844 123.30140121 -61.04052734 125.29516602 C-60.62802734 126.31352539 -60.21552734 127.33188477 -59.79052734 128.38110352 C-59.05988774 130.17405466 -58.29584576 131.9543265 -57.47802734 133.70922852 C-56.00470821 137.18380613 -55.28796511 139.23183096 -56.38427734 142.93188477 C-57.54052734 145.60766602 -57.54052734 145.60766602 -58.81787109 148.03344727 C-59.84939044 150.26281596 -59.84939044 150.26281596 -58.90771484 152.38110352 C-56.82024309 155.44356208 -54.62789309 158.11636421 -51.60302734 160.29516602 C-48.64122895 160.29516602 -46.90853681 159.4318413 -44.22802734 158.23266602 C-39.45057697 156.52643374 -35.65194402 156.88525746 -30.95458984 158.72094727 C-29.70610539 159.33725841 -28.46398253 159.96659844 -27.22802734 160.60766602 C-22.98293985 162.72181612 -18.93826357 164.63479652 -14.35302734 165.92016602 C-10.60302734 167.29516602 -10.60302734 167.29516602 -8.72802734 169.48266602 C-7.29286595 173.07056951 -5.89906965 176.65390429 -4.60302734 180.29516602 C-0.31302734 180.29516602 3.97697266 180.29516602 8.39697266 180.29516602 C8.95384766 178.91329102 9.51072266 177.53141602 10.08447266 176.10766602 C12.43713198 170.94960192 14.49916039 167.40706732 20.03369141 165.28344727 C22.10312786 164.61306644 24.18044931 163.9666423 26.26416016 163.34204102 C29.29781389 162.32830136 31.90557791 161.07144511 34.70947266 159.54516602 C38.830268 157.4123582 41.68827685 156.58441948 46.39697266 157.29516602 C47.63987231 157.78231948 48.86961099 158.30428623 50.08447266 158.85766602 C53.10080597 160.48358612 53.10080597 160.48358612 55.36962891 160.10766602 C57.91311416 159.08831162 59.2704183 157.71748313 61.14697266 155.73266602 C61.76056641 155.09200195 62.37416016 154.45133789 63.00634766 153.79125977 C63.46525391 153.29754883 63.92416016 152.80383789 64.39697266 152.29516602 C62.99964629 147.9989788 62.99964629 147.9989788 61.20947266 143.85766602 C59.33036947 137.93126367 61.56032722 133.74406761 64.27197266 128.48266602 C64.81595703 127.4552832 65.35994141 126.42790039 65.92041016 125.36938477 C67.30004925 122.49696158 68.14093263 119.87853409 68.89697266 116.79516602 C69.87286051 113.2695596 70.25307929 112.42567395 73.08447266 109.85766602 C76.8096149 108.10052345 80.50303502 106.63790313 84.39697266 105.29516602 C84.39697266 101.00516602 84.39697266 96.71516602 84.39697266 92.29516602 C82.49947266 91.65579102 80.60197266 91.01641602 78.64697266 90.35766602 C71.78952777 87.47962936 71.78952777 87.47962936 69.95947266 83.23266602 C69.41686534 81.59388231 68.898019 79.94713069 68.39697266 78.29516602 C67.56146993 76.22503507 66.70645809 74.16269603 65.83447266 72.10766602 C65.41810547 71.08930664 65.00173828 70.07094727 64.57275391 69.02172852 C63.38954165 66.14330335 63.38954165 66.14330335 61.52197266 62.98266602 C59.00552548 56.97115333 62.10618907 50.97232533 64.39697266 45.29516602 C61.90152858 42.40070423 59.38955608 39.68165659 56.39697266 37.29516602 C52.8979907 37.15795104 51.06851557 38.00976028 47.89697266 39.35766602 C43.84172579 40.87838359 40.60727787 40.80369762 36.60791016 39.12329102 C35.67205078 38.60250977 34.73619141 38.08172852 33.77197266 37.54516602 C28.59110876 34.7833322 23.55751372 32.95953355 17.89306641 31.44750977 C14.68091437 29.96459138 13.93384799 28.43372467 12.39697266 25.29516602 C12.01154297 24.5565332 11.62611328 23.81790039 11.22900391 23.05688477 C10.28499349 21.13631185 9.34098307 19.21573893 8.39697266 17.29516602 C4.10697266 17.29516602 -0.18302734 17.29516602 -4.60302734 17.29516602 Z " fill="#F1701C" transform="translate(172.60302734375,42.704833984375)"/>
<path d="M0 0 C0.72382874 0.00087616 1.44765747 0.00175232 2.19342041 0.00265503 C26.72880582 0.10025084 48.88562916 5.86657898 70.0625 18.375 C70.330625 17.42625 70.59875 16.4775 70.875 15.5 C72.0625 12.375 72.0625 12.375 75.0625 10.375 C80.69431818 9.83863636 80.69431818 9.83863636 83.0625 10.375 C86.52071606 13.26554981 87.80598063 15.72005157 89.01953125 20.0234375 C89.48069336 21.65539063 89.48069336 21.65539063 89.95117188 23.3203125 C90.4084668 25.01800781 90.4084668 25.01800781 90.875 26.75 C91.19919922 27.8740625 91.52339844 28.998125 91.85742188 30.15625 C94.64739849 40.26468777 94.64739849 40.26468777 93.0625 45.375 C90.45649605 48.18629156 88.77365436 49.23700381 85.00390625 49.96850586 C83.88886719 50.00854736 82.77382813 50.04858887 81.625 50.08984375 C80.40039062 50.13560547 79.17578125 50.18136719 77.9140625 50.22851562 C76.64304688 50.25623047 75.37203125 50.28394531 74.0625 50.3125 C72.79148438 50.36728516 71.52046875 50.42207031 70.2109375 50.47851562 C59.64724952 50.79542626 59.64724952 50.79542626 55.0625 47.375 C53.48827247 44.22654494 53.39321657 40.78281928 54.0625 37.375 C56.08203125 34.61328125 56.08203125 34.61328125 58.0625 32.375 C28.89992578 17.83561314 -2.85148462 12.76888643 -34.45703125 22.76953125 C-53.20521637 29.22056423 -68.86728847 39.52308513 -82.9375 53.375 C-83.71738281 54.13039062 -84.49726562 54.88578125 -85.30078125 55.6640625 C-106.86916762 77.96033403 -115.55228012 108.88042696 -115.1484375 139.1796875 C-114.61172495 157.16949713 -109.06323546 174.65210532 -100.2578125 190.26171875 C-98.71889732 193.89046254 -98.58586329 196.46948832 -98.9375 200.375 C-101.12589318 203.70135764 -102.56090488 204.28085122 -106.4375 205.25 C-111.09681593 205.41640414 -111.09681593 205.41640414 -113.9375 203.375 C-115.56665196 200.88684064 -116.96029891 198.50737068 -118.3125 195.875 C-118.8995874 194.74408936 -118.8995874 194.74408936 -119.49853516 193.59033203 C-135.50164017 161.7747134 -137.21985917 123.96492469 -126.31640625 90.26953125 C-124.30688945 84.41622104 -121.74720723 78.88368709 -118.9375 73.375 C-118.41414063 72.30765625 -117.89078125 71.2403125 -117.3515625 70.140625 C-113.10057716 61.79831574 -107.91931362 54.52405059 -101.9375 47.375 C-100.67099609 45.8590625 -100.67099609 45.8590625 -99.37890625 44.3125 C-82.55885918 25.11815208 -60.53765105 11.8713921 -36.1875 4.5625 C-35.5392627 4.3675293 -34.89102539 4.17255859 -34.22314453 3.97167969 C-22.92364015 0.77546169 -11.69264338 -0.03469478 0 0 Z " fill="#F06B1D" transform="translate(173.9375,7.625)"/>
<path d="M0 0 C0.62390625 0.54527344 1.2478125 1.09054688 1.890625 1.65234375 C10.99583615 10.0647671 16.40155182 21.78159635 17.203125 34.12890625 C17.42039849 50.04418923 13.51216894 63.01251802 2.453125 74.67578125 C-9.82680516 86.31042846 -22.54851179 89.51646345 -38.9296875 89.27734375 C-52.36590798 88.77924705 -63.84984605 82.01588649 -72.9609375 72.421875 C-83.2748943 60.17158148 -85.84138452 46.62793834 -85 31 C-83.05462553 17.2340027 -76.26675176 6.07179049 -65.5625 -2.5625 C-45.92116386 -16.92416748 -18.21085878 -16.86325523 0 0 Z M-60.3125 16.375 C-67.07142227 24.84242762 -68.91844948 33.30200389 -68 44 C-65.42206945 55.12192892 -59.82224105 62.1737762 -50.5625 68.5546875 C-42.52761633 73.08655786 -32.9779992 73.40847103 -24.08203125 71.3125 C-13.61878045 67.41919738 -6.71459801 60.86373389 -1.96484375 50.80859375 C1.45967226 41.90485212 0.82155458 33.31767942 -2.7421875 24.5703125 C-6.76808428 16.34347995 -12.59696851 10.12946896 -21.19140625 6.7421875 C-36.01315073 1.91964038 -49.55795137 4.59876925 -60.3125 16.375 Z " fill="#F1701C" transform="translate(209,103)"/>
<path d="M0 0 C0.67282158 -0.00382555 1.34564317 -0.00765109 2.03885329 -0.01159257 C4.29816746 -0.02192885 6.55722779 -0.01792929 8.81655884 -0.01396179 C10.43448625 -0.01830797 12.05241159 -0.0234908 13.67033386 -0.02944946 C18.06913509 -0.04286197 22.46785052 -0.04341556 26.86666822 -0.04088616 C30.53718435 -0.03981782 34.20768301 -0.0446964 37.87819541 -0.04949158 C46.53751337 -0.06059489 55.19678797 -0.06101977 63.85610962 -0.05497742 C72.79192787 -0.048938 81.72758865 -0.06124591 90.66338003 -0.08254749 C98.33225522 -0.10015733 106.00108026 -0.10616576 113.66997492 -0.10290974 C118.25154755 -0.10109551 122.83300788 -0.10374687 127.41456223 -0.11762428 C131.72377379 -0.13018774 136.03273982 -0.12827264 140.34194756 -0.11521339 C141.92338201 -0.11284469 143.50483366 -0.11559282 145.0862484 -0.12383652 C147.24569154 -0.13428142 149.40430737 -0.12622232 151.5637207 -0.11352539 C153.37611268 -0.113777 153.37611268 -0.113777 155.22511864 -0.1140337 C158.72270968 0.29763896 160.60934448 1.16028322 163.40884399 3.26069641 C164.97819993 6.39940829 164.76085502 8.79925463 164.40884399 12.26069641 C161.84513377 15.55984042 160.34413467 17.07830312 156.19667721 17.8871088 C154.97496602 17.88769511 153.75325483 17.88828142 152.49452209 17.8888855 C151.46941744 17.89952708 151.46941744 17.89952708 150.42360359 17.91038364 C148.1400306 17.92794695 145.85816361 17.90986999 143.57461548 17.89179993 C141.93506089 17.8969394 140.29551182 17.90422089 138.65597534 17.91348267 C134.20758956 17.9320001 129.75980299 17.91905673 125.31144214 17.89939237 C120.65681428 17.88301007 116.0022245 17.89181805 111.34757996 17.89691162 C103.53204776 17.9014326 95.71675491 17.88556139 87.90127563 17.85762024 C78.86307693 17.82555708 69.82530961 17.82558837 60.78708023 17.84283501 C52.09401691 17.8586925 43.40111188 17.85197229 34.7080555 17.83489799 C31.00754653 17.82802207 27.30716424 17.82906545 23.60665703 17.83644295 C19.25052912 17.84409796 14.8948929 17.83200564 10.53884888 17.80459404 C8.93927025 17.79770126 7.33964577 17.79762182 5.74006844 17.80480957 C3.55822242 17.81348487 1.37790065 17.79758397 -0.80381775 17.77536011 C-2.02515191 17.77255319 -3.24648607 17.76974627 -4.50483036 17.76685429 C-8.19695442 17.16134538 -9.35438318 16.20507838 -11.59115601 13.26069641 C-12.74827409 9.63505975 -12.9263269 7.99807239 -11.34115601 4.51069641 C-7.93565341 0.13219308 -5.28478507 0.0089846 0 0 Z " fill="#F48C18" transform="translate(261.5911560058594,424.7393035888672)"/>
<path d="M0 0 C0.67282158 -0.00382555 1.34564317 -0.00765109 2.03885329 -0.01159257 C4.29816746 -0.02192885 6.55722779 -0.01792929 8.81655884 -0.01396179 C10.43448625 -0.01830797 12.05241159 -0.0234908 13.67033386 -0.02944946 C18.06913509 -0.04286197 22.46785052 -0.04341556 26.86666822 -0.04088616 C30.53718435 -0.03981782 34.20768301 -0.0446964 37.87819541 -0.04949158 C46.53751337 -0.06059489 55.19678797 -0.06101977 63.85610962 -0.05497742 C72.79192787 -0.048938 81.72758865 -0.06124591 90.66338003 -0.08254749 C98.33225522 -0.10015733 106.00108026 -0.10616576 113.66997492 -0.10290974 C118.25154755 -0.10109551 122.83300788 -0.10374687 127.41456223 -0.11762428 C131.72377379 -0.13018774 136.03273982 -0.12827264 140.34194756 -0.11521339 C141.92338201 -0.11284469 143.50483366 -0.11559282 145.0862484 -0.12383652 C147.24569154 -0.13428142 149.40430737 -0.12622232 151.5637207 -0.11352539 C153.37611268 -0.113777 153.37611268 -0.113777 155.22511864 -0.1140337 C158.72270968 0.29763896 160.60934448 1.16028322 163.40884399 3.26069641 C164.97819993 6.39940829 164.76085502 8.79925463 164.40884399 12.26069641 C161.85101073 15.54788692 160.34902108 17.0762933 156.21508789 17.8871088 C155.00204987 17.88769511 153.78901184 17.88828142 152.53921509 17.8888855 C151.8606011 17.89597989 151.18198711 17.90307427 150.48280907 17.91038364 C148.21538539 17.92794592 145.94968011 17.90987052 143.68228149 17.89179993 C142.05420146 17.89693949 140.42612699 17.90422105 138.79806519 17.91348267 C134.38060156 17.93200044 129.96374133 17.91905594 125.5463028 17.89939237 C120.92283932 17.88300756 116.29941412 17.89181853 111.67593384 17.89691162 C103.91167563 17.90143277 96.14765831 17.88556145 88.38345337 17.85762024 C79.40775768 17.8255682 70.43249648 17.82558398 61.45676994 17.84283501 C52.8213748 17.8587004 44.18613891 17.85196647 35.55075073 17.83489799 C31.87618774 17.82802652 28.20175236 17.82906093 24.52719116 17.83644295 C20.1997863 17.84410578 15.8728757 17.83197999 11.54555511 17.80459404 C9.9576845 17.79770906 8.36976773 17.79761349 6.7818985 17.80480957 C4.61353895 17.81350383 2.44670494 17.79755169 0.2784729 17.77536011 C-0.93456512 17.77255319 -2.14760315 17.76974627 -3.3973999 17.76685429 C-7.22660118 17.15998879 -8.88337877 15.99167675 -11.59115601 13.26069641 C-12.82789852 9.62776527 -12.93573804 8.01877688 -11.34115601 4.51069641 C-7.93565341 0.13219308 -5.28478507 0.0089846 0 0 Z " fill="#F37E1A" transform="translate(261.5911560058594,359.7393035888672)"/>
<path d="M0 0 C0.67282158 -0.00382555 1.34564317 -0.00765109 2.03885329 -0.01159257 C4.29816746 -0.02192885 6.55722779 -0.01792929 8.81655884 -0.01396179 C10.43448625 -0.01830797 12.05241159 -0.0234908 13.67033386 -0.02944946 C18.06913509 -0.04286197 22.46785052 -0.04341556 26.86666822 -0.04088616 C30.53718435 -0.03981782 34.20768301 -0.0446964 37.87819541 -0.04949158 C46.53751337 -0.06059489 55.19678797 -0.06101977 63.85610962 -0.05497742 C72.79192787 -0.048938 81.72758865 -0.06124591 90.66338003 -0.08254749 C98.33225522 -0.10015733 106.00108026 -0.10616576 113.66997492 -0.10290974 C118.25154755 -0.10109551 122.83300788 -0.10374687 127.41456223 -0.11762428 C131.72377379 -0.13018774 136.03273982 -0.12827264 140.34194756 -0.11521339 C141.92338201 -0.11284469 143.50483366 -0.11559282 145.0862484 -0.12383652 C147.24569154 -0.13428142 149.40430737 -0.12622232 151.5637207 -0.11352539 C153.37611268 -0.113777 153.37611268 -0.113777 155.22511864 -0.1140337 C158.72270968 0.29763896 160.60934448 1.16028322 163.40884399 3.26069641 C164.97819993 6.39940829 164.76085502 8.79925463 164.40884399 12.26069641 C161.85101073 15.54788692 160.34902108 17.0762933 156.21508789 17.8871088 C155.00204987 17.88769511 153.78901184 17.88828142 152.53921509 17.8888855 C151.8606011 17.89597989 151.18198711 17.90307427 150.48280907 17.91038364 C148.21538539 17.92794592 145.94968011 17.90987052 143.68228149 17.89179993 C142.05420146 17.89693949 140.42612699 17.90422105 138.79806519 17.91348267 C134.38060156 17.93200044 129.96374133 17.91905594 125.5463028 17.89939237 C120.92283932 17.88300756 116.29941412 17.89181853 111.67593384 17.89691162 C103.91167563 17.90143277 96.14765831 17.88556145 88.38345337 17.85762024 C79.40775768 17.8255682 70.43249648 17.82558398 61.45676994 17.84283501 C52.8213748 17.8587004 44.18613891 17.85196647 35.55075073 17.83489799 C31.87618774 17.82802652 28.20175236 17.82906093 24.52719116 17.83644295 C20.1997863 17.84410578 15.8728757 17.83197999 11.54555511 17.80459404 C9.9576845 17.79770906 8.36976773 17.79761349 6.7818985 17.80480957 C4.61353895 17.81350383 2.44670494 17.79755169 0.2784729 17.77536011 C-0.93456512 17.77255319 -2.14760315 17.76974627 -3.3973999 17.76685429 C-7.22660118 17.15998879 -8.88337877 15.99167675 -11.59115601 13.26069641 C-12.82789852 9.62776527 -12.93573804 8.01877688 -11.34115601 4.51069641 C-7.93565341 0.13219308 -5.28478507 0.0089846 0 0 Z " fill="#F1701D" transform="translate(261.5911560058594,294.7393035888672)"/>
<path d="M0 0 C0.66227978 -0.00382555 1.32455956 -0.00765109 2.00690842 -0.01159257 C4.21855433 -0.02188341 6.42993873 -0.01793799 8.64160156 -0.01396179 C10.23026774 -0.01831039 11.81893181 -0.02349403 13.40759277 -0.02944946 C17.71743598 -0.04283345 22.02719146 -0.0434189 26.33705139 -0.04088616 C29.93559347 -0.03981625 33.53411782 -0.04470023 37.1326561 -0.04949158 C45.62132851 -0.06058425 54.10995666 -0.06102523 62.59863281 -0.05497742 C71.35613029 -0.04893407 80.11346725 -0.06125833 88.87093735 -0.08254749 C96.39123433 -0.10015695 103.91148018 -0.10616596 111.43179703 -0.10290974 C115.92279679 -0.10109602 120.41368199 -0.1037421 124.90466309 -0.11762428 C129.12690063 -0.13018772 133.34888758 -0.12827269 137.57112122 -0.11521339 C139.12030624 -0.11284498 140.66950882 -0.11559179 142.21867371 -0.12383652 C144.33422501 -0.13428355 146.44893221 -0.12622084 148.56445312 -0.11352539 C149.74799377 -0.11369313 150.93153442 -0.11386087 152.15093994 -0.1140337 C155.64423528 0.30401904 157.48944385 1.1531193 160.28222656 3.26069641 C162.6239142 6.77322787 162.77846334 8.12538997 162.28222656 12.26069641 C160.68579102 14.91674709 160.68579102 14.91674709 158.28222656 17.26069641 C155.17749023 17.8871088 155.17749023 17.8871088 151.45019531 17.8888855 C150.76356308 17.89597989 150.07693085 17.90307427 149.36949158 17.91038364 C147.06900022 17.92798429 144.77019398 17.9098508 142.46972656 17.89179993 C140.82046743 17.89693802 139.17121378 17.90421847 137.52197266 17.91348267 C133.0425387 17.93201916 128.56369888 17.91904414 124.08428955 17.89939237 C119.39895927 17.883023 114.71366713 17.89181637 110.02832031 17.89691162 C102.15973403 17.9014345 94.29138532 17.88555074 86.42285156 17.85762024 C77.32275854 17.82556742 68.22309403 17.82558341 59.12297058 17.84283501 C50.37277853 17.85869293 41.62274375 17.85197128 32.87255859 17.83489799 C29.14693013 17.82802125 25.4214275 17.82906632 21.69580078 17.83644295 C17.30931875 17.84409813 12.923325 17.83200503 8.53692627 17.80459404 C6.92606048 17.79770102 5.31514917 17.79762207 3.70428467 17.80480957 C1.50706222 17.81348442 -0.68864648 17.79758451 -2.88574219 17.77536011 C-4.73075317 17.77114973 -4.73075317 17.77114973 -6.61303711 17.76685429 C-10.31817426 17.16281448 -11.47598515 16.21673264 -13.71777344 13.26069641 C-14.85469574 9.69833985 -15.01511278 7.98752593 -13.59277344 4.51069641 C-9.90338785 0.0834337 -5.49877405 0.00953771 0 0 Z " fill="#F1761C" transform="translate(263.7177734375,320.7393035888672)"/>
<path d="M0 0 C0.98729434 -0.00467997 0.98729434 -0.00467997 1.99453402 -0.00945449 C4.1923709 -0.01740964 6.38992978 -0.01112068 8.58776855 -0.00482178 C10.16658184 -0.00753275 11.74539386 -0.01109428 13.32420349 -0.01544189 C17.60719596 -0.02455557 21.89009202 -0.02102585 26.17308617 -0.01468372 C30.65640904 -0.00961846 35.13972368 -0.01431664 39.62304688 -0.01745605 C47.15182985 -0.02109416 54.68057357 -0.01630068 62.20935059 -0.0067749 C70.91228585 0.00410935 79.6151274 0.00058366 88.3180604 -0.01042771 C95.79164637 -0.01950501 103.26520414 -0.02078369 110.73879385 -0.01555037 C115.20181915 -0.01243312 119.66480041 -0.01201465 124.12782288 -0.01862335 C128.32375536 -0.02440261 132.51956708 -0.02038928 136.71548653 -0.00883484 C138.25499331 -0.00619136 139.79451026 -0.00694802 141.33401299 -0.01136017 C143.43627261 -0.01682945 145.53814581 -0.00996501 147.64038086 0 C149.40463032 0.00113108 149.40463032 0.00113108 151.20452118 0.002285 C155.27743748 0.33129325 158.17170811 1.1450878 161.13269043 4.00396729 C162.73130255 7.03291657 162.80390178 8.8679878 162.32019043 12.25396729 C160.71984863 14.90611172 160.71984863 14.90611172 158.32019043 17.25396729 C155.2154541 17.88037968 155.2154541 17.88037968 151.48815918 17.88215637 C150.80152695 17.88925076 150.11489471 17.89634515 149.40745544 17.90365452 C147.10696409 17.92125516 144.80815785 17.90312167 142.50769043 17.8850708 C140.85843129 17.89020889 139.20917764 17.89748934 137.55993652 17.90675354 C133.08050257 17.92529003 128.60166275 17.91231501 124.12225342 17.89266324 C119.43692314 17.87629387 114.751631 17.88508724 110.06628418 17.8901825 C102.1976979 17.89470538 94.32934919 17.87882161 86.46081543 17.85089111 C77.36072241 17.8188383 68.2610579 17.81885429 59.16093445 17.83610588 C50.4107424 17.8519638 41.66070762 17.84524216 32.91052246 17.82816887 C29.184894 17.82129213 25.45939136 17.82233719 21.73376465 17.82971382 C17.34728262 17.83736901 12.96128887 17.8252759 8.57489014 17.79786491 C6.96402435 17.79097189 5.35311304 17.79089294 3.74224854 17.79808044 C1.54502608 17.8067553 -0.65068261 17.79085538 -2.84777832 17.76863098 C-4.69278931 17.7644206 -4.69278931 17.7644206 -6.57507324 17.76012516 C-10.28021039 17.15608535 -11.43802128 16.21000351 -13.67980957 13.25396729 C-14.81673188 9.69161072 -14.97714892 7.9807968 -13.55480957 4.50396729 C-9.87369536 0.08663023 -5.48741633 0.00351803 0 0 Z " fill="#F38419" transform="translate(263.6798095703125,385.74603271484375)"/>
<path d="M0 0 C1.02738507 -0.00657338 1.02738507 -0.00657338 2.0755254 -0.01327956 C4.381662 -0.02668565 6.68776037 -0.0328504 8.993927 -0.03897095 C10.64288507 -0.04687037 12.2918414 -0.05513922 13.9407959 -0.06375122 C19.36490219 -0.08998559 24.78901628 -0.10527832 30.21316528 -0.11953735 C32.07846202 -0.12489608 33.9437587 -0.13027359 35.80905533 -0.13566971 C43.56567401 -0.15729877 51.32229059 -0.17603719 59.07893181 -0.1872921 C70.20646005 -0.20354299 81.33363974 -0.23674798 92.46103656 -0.29369295 C100.27933383 -0.33234405 108.09753768 -0.35191893 115.91592801 -0.35721266 C120.58870127 -0.36087222 125.26110292 -0.37295749 129.93377304 -0.4053154 C134.32841836 -0.435312 138.72246556 -0.44173822 143.11719131 -0.42993164 C144.7313179 -0.42971021 146.34547158 -0.43807262 147.95950317 -0.45558548 C150.16139085 -0.4781791 152.36109143 -0.47003131 154.56298828 -0.45410156 C156.41189572 -0.45906678 156.41189572 -0.45906678 158.29815483 -0.46413231 C161.40847778 0.15390015 161.40847778 0.15390015 163.80507088 2.50440025 C165.77941523 5.76684419 166.03404367 7.40050485 165.40847778 11.15390015 C163.80422974 13.80213833 163.80422974 13.80213833 161.40847778 16.15390015 C158.30374146 16.78031254 158.30374146 16.78031254 154.57644653 16.78208923 C153.8898143 16.78918362 153.20318207 16.79627801 152.4957428 16.80358738 C150.19525144 16.82118803 147.8964452 16.80305453 145.59597778 16.78500366 C143.94671865 16.79014175 142.297465 16.7974222 140.64822388 16.8066864 C136.16878992 16.82522289 131.6899501 16.81224788 127.21054077 16.7925961 C122.52521049 16.77622673 117.83991835 16.7850201 113.15457153 16.79011536 C105.28598525 16.79463824 97.41763654 16.77875447 89.54910278 16.75082397 C80.44900976 16.71877116 71.34934525 16.71878715 62.2492218 16.73603874 C53.49902976 16.75189666 44.74899497 16.74517502 35.99880981 16.72810173 C32.27318135 16.72122499 28.54767872 16.72227006 24.822052 16.72964668 C20.43556997 16.73730187 16.04957622 16.72520876 11.66317749 16.69779778 C10.0523117 16.69090475 8.44140039 16.6908258 6.83053589 16.69801331 C4.63331344 16.70668816 2.43760474 16.69078824 0.24050903 16.66856384 C-1.60450195 16.66435346 -1.60450195 16.66435346 -3.48678589 16.66005802 C-7.19192304 16.05601821 -8.34973393 15.10993637 -10.59152222 12.15390015 C-11.76743196 8.46938297 -11.9263356 6.8713574 -10.27902222 3.34140015 C-7.29346669 -0.52876442 -4.69460421 0.02123613 0 0 Z " fill="#F59217" transform="translate(260.5915222167969,451.8460998535156)"/>
<path d="M0 0 C0.89110474 -0.00619858 1.78220947 -0.01239716 2.70031738 -0.01878357 C4.57966014 -0.0258705 6.45906582 -0.02272741 8.33837891 -0.01000977 C11.2098357 0.00386318 14.07803664 -0.03023763 16.94921875 -0.06835938 C18.77864663 -0.06931057 20.60807858 -0.0674517 22.4375 -0.0625 C23.29283325 -0.07575821 24.1481665 -0.08901642 25.02941895 -0.10267639 C29.12510222 -0.03885762 31.24093772 0.26103606 34.75952148 2.50976562 C37.48771192 6.76608267 37.42237088 10.14051693 37.34765625 15.1015625 C37.35006821 16.01723495 37.35248016 16.93290741 37.35496521 17.87632751 C37.35398799 19.80700015 37.34062416 21.73770123 37.31567383 23.66821289 C37.28132013 26.62287472 37.29503181 29.57455211 37.31445312 32.52929688 C37.30755564 34.40756481 37.29788414 36.28582503 37.28515625 38.1640625 C37.29011612 39.04643082 37.29507599 39.92879913 37.30018616 40.83790588 C37.18312907 46.93183461 37.18312907 46.93183461 34.87084961 50.09155273 C30.64242252 52.98933243 26.474162 52.74249082 21.54296875 52.76953125 C20.33880058 52.77808136 20.33880058 52.77808136 19.11030579 52.7868042 C17.41152257 52.79624664 15.7127211 52.80278518 14.01391602 52.80664062 C11.42626624 52.81633129 8.83941604 52.84735483 6.25195312 52.87890625 C4.59896303 52.88543826 2.94596728 52.89068796 1.29296875 52.89453125 C0.52401779 52.90687805 -0.24493317 52.91922485 -1.03718567 52.9319458 C-5.83857192 52.91222391 -9.11537754 52.21189024 -13.28125 49.56640625 C-14.41688132 47.29514361 -14.43068297 45.97997783 -14.47412109 43.45556641 C-14.49018402 42.6077359 -14.50624695 41.7599054 -14.52279663 40.88638306 C-14.56722538 37.01215401 -14.60830044 33.13809596 -14.63134766 29.26367188 C-14.64792113 27.21895985 -14.67522938 25.17430609 -14.71337891 23.12988281 C-14.76807435 20.1839387 -14.79000886 17.23935182 -14.8046875 14.29296875 C-14.82735687 13.37931549 -14.85002625 12.46566223 -14.87338257 11.52432251 C-14.85981211 7.45735568 -14.83401021 5.29464259 -12.32861328 1.99389648 C-8.14070676 0.03213639 -4.57592215 -0.02653466 0 0 Z M2.71875 17.56640625 C2.71875 23.50640625 2.71875 29.44640625 2.71875 35.56640625 C8.32875 35.56640625 13.93875 35.56640625 19.71875 35.56640625 C19.71875 29.62640625 19.71875 23.68640625 19.71875 17.56640625 C14.10875 17.56640625 8.49875 17.56640625 2.71875 17.56640625 Z " fill="#F8AC12" transform="translate(191.28125,420.43359375)"/>
<path d="M0 0 C0.89110474 -0.00619858 1.78220947 -0.01239716 2.70031738 -0.01878357 C4.57966014 -0.0258705 6.45906582 -0.02272741 8.33837891 -0.01000977 C11.2098357 0.00386318 14.07803664 -0.03023763 16.94921875 -0.06835938 C18.77864663 -0.06931057 20.60807858 -0.0674517 22.4375 -0.0625 C23.29283325 -0.07575821 24.1481665 -0.08901642 25.02941895 -0.10267639 C29.12510222 -0.03885762 31.24093772 0.26103606 34.75952148 2.50976562 C37.48771192 6.76608267 37.42237088 10.14051693 37.34765625 15.1015625 C37.35006821 16.01723495 37.35248016 16.93290741 37.35496521 17.87632751 C37.35398799 19.80700015 37.34062416 21.73770123 37.31567383 23.66821289 C37.28132013 26.62287472 37.29503181 29.57455211 37.31445312 32.52929688 C37.30755564 34.40756481 37.29788414 36.28582503 37.28515625 38.1640625 C37.29011612 39.04643082 37.29507599 39.92879913 37.30018616 40.83790588 C37.18312907 46.93183461 37.18312907 46.93183461 34.87084961 50.09155273 C30.64242252 52.98933243 26.474162 52.74249082 21.54296875 52.76953125 C20.33880058 52.77808136 20.33880058 52.77808136 19.11030579 52.7868042 C17.41152257 52.79624664 15.7127211 52.80278518 14.01391602 52.80664062 C11.42626624 52.81633129 8.83941604 52.84735483 6.25195312 52.87890625 C4.59896303 52.88543826 2.94596728 52.89068796 1.29296875 52.89453125 C0.52401779 52.90687805 -0.24493317 52.91922485 -1.03718567 52.9319458 C-5.83857192 52.91222391 -9.11537754 52.21189024 -13.28125 49.56640625 C-14.41688132 47.29514361 -14.43068297 45.97997783 -14.47412109 43.45556641 C-14.49018402 42.6077359 -14.50624695 41.7599054 -14.52279663 40.88638306 C-14.56722538 37.01215401 -14.60830044 33.13809596 -14.63134766 29.26367188 C-14.64792113 27.21895985 -14.67522938 25.17430609 -14.71337891 23.12988281 C-14.76807435 20.1839387 -14.79000886 17.23935182 -14.8046875 14.29296875 C-14.82735687 13.37931549 -14.85002625 12.46566223 -14.87338257 11.52432251 C-14.85981211 7.45735568 -14.83401021 5.29464259 -12.32861328 1.99389648 C-8.14070676 0.03213639 -4.57592215 -0.02653466 0 0 Z M2.71875 17.56640625 C2.71875 23.50640625 2.71875 29.44640625 2.71875 35.56640625 C8.32875 35.56640625 13.93875 35.56640625 19.71875 35.56640625 C19.71875 29.62640625 19.71875 23.68640625 19.71875 17.56640625 C14.10875 17.56640625 8.49875 17.56640625 2.71875 17.56640625 Z " fill="#F79E14" transform="translate(191.28125,355.43359375)"/>
<path d="M0 0 C0.89110474 -0.00619858 1.78220947 -0.01239716 2.70031738 -0.01878357 C4.57966014 -0.0258705 6.45906582 -0.02272741 8.33837891 -0.01000977 C11.2098357 0.00386318 14.07803664 -0.03023763 16.94921875 -0.06835938 C18.77864663 -0.06931057 20.60807858 -0.0674517 22.4375 -0.0625 C23.29283325 -0.07575821 24.1481665 -0.08901642 25.02941895 -0.10267639 C29.12510222 -0.03885762 31.24093772 0.26103606 34.75952148 2.50976562 C37.48771192 6.76608267 37.42237088 10.14051693 37.34765625 15.1015625 C37.35006821 16.01723495 37.35248016 16.93290741 37.35496521 17.87632751 C37.35398799 19.80700015 37.34062416 21.73770123 37.31567383 23.66821289 C37.28132013 26.62287472 37.29503181 29.57455211 37.31445312 32.52929688 C37.30755564 34.40756481 37.29788414 36.28582503 37.28515625 38.1640625 C37.29011612 39.04643082 37.29507599 39.92879913 37.30018616 40.83790588 C37.18356769 46.90900035 37.18356769 46.90900035 34.93334961 50.09155273 C30.50997168 53.03738297 26.10419639 52.73904506 20.91796875 52.76953125 C20.16336868 52.77523132 19.40876862 52.7809314 18.63130188 52.7868042 C17.03684888 52.79623244 15.44237659 52.80277952 13.84790039 52.80664062 C11.42494178 52.81633149 9.00283736 52.84736825 6.58007812 52.87890625 C5.02604667 52.8854387 3.47200918 52.89068822 1.91796875 52.89453125 C0.84261116 52.91305145 0.84261116 52.91305145 -0.25447083 52.9319458 C-5.3843579 52.9095457 -8.81592766 51.91540957 -13.28125 49.56640625 C-14.41688132 47.29514361 -14.43068297 45.97997783 -14.47412109 43.45556641 C-14.49018402 42.6077359 -14.50624695 41.7599054 -14.52279663 40.88638306 C-14.56722538 37.01215401 -14.60830044 33.13809596 -14.63134766 29.26367188 C-14.64792113 27.21895985 -14.67522938 25.17430609 -14.71337891 23.12988281 C-14.76807435 20.1839387 -14.79000886 17.23935182 -14.8046875 14.29296875 C-14.82735687 13.37931549 -14.85002625 12.46566223 -14.87338257 11.52432251 C-14.85981211 7.45735568 -14.83401021 5.29464259 -12.32861328 1.99389648 C-8.14070676 0.03213639 -4.57592215 -0.02653466 0 0 Z M2.71875 17.56640625 C2.71875 23.50640625 2.71875 29.44640625 2.71875 35.56640625 C8.32875 35.56640625 13.93875 35.56640625 19.71875 35.56640625 C19.71875 29.62640625 19.71875 23.68640625 19.71875 17.56640625 C14.10875 17.56640625 8.49875 17.56640625 2.71875 17.56640625 Z " fill="#F59017" transform="translate(191.28125,290.43359375)"/>
<path d="M0 0 C1.43427338 -0.01062721 1.43427338 -0.01062721 2.89752197 -0.02146912 C3.95003143 -0.0189917 5.00254089 -0.01651428 6.08694458 -0.01396179 C7.19271851 -0.01907272 8.29849243 -0.02418365 9.43777466 -0.02944946 C13.10880889 -0.04339834 16.77965646 -0.04238457 20.45071411 -0.04008484 C22.99418203 -0.04396913 25.5376493 -0.04830324 28.08111572 -0.05307007 C33.41934577 -0.06054389 38.75750682 -0.0603704 44.09573364 -0.05497742 C50.26580523 -0.04893984 56.43564865 -0.06124082 62.6056813 -0.08254749 C68.53984814 -0.10228628 74.47394426 -0.10533725 80.4081459 -0.10181236 C82.93356995 -0.10232674 85.45899755 -0.10758628 87.9844017 -0.11762428 C91.51355418 -0.12992842 95.04217592 -0.12323255 98.57131958 -0.11161804 C99.61978058 -0.11926178 100.66824158 -0.12690552 101.74847412 -0.13478088 C102.71029602 -0.12776657 103.67211792 -0.12075226 104.66308594 -0.11352539 C105.49747633 -0.11369313 106.33186672 -0.11386087 107.19154167 -0.1140337 C109.99587743 0.34951991 111.37876458 1.35666726 113.45852661 3.26069641 C114.68727324 6.69977462 114.7821953 10.1425682 113.77102661 13.63569641 C111.70938709 16.18820249 109.47415701 17.14338762 106.23115635 17.51796532 C105.4154111 17.52131701 104.59966585 17.52466869 103.75920105 17.52812195 C102.81854294 17.53665192 101.87788483 17.54518188 100.90872192 17.55397034 C99.88367554 17.55306396 98.85862915 17.55215759 97.80252075 17.55122375 C96.17509193 17.56129959 96.17509193 17.56129959 94.51478577 17.57157898 C90.9243717 17.59059416 87.33414416 17.59448482 83.74368286 17.59663391 C81.25030947 17.60305878 78.75693685 17.60978691 76.26356506 17.61680603 C71.03565255 17.62878718 65.80778745 17.63257152 60.5798645 17.63130188 C55.20897591 17.63023295 49.8383746 17.64433326 44.46755981 17.6723175 C37.98549601 17.7056125 31.50369065 17.71941473 25.0215435 17.71808243 C22.54996722 17.72044499 20.07838838 17.72930513 17.60685921 17.74474716 C14.15224553 17.76431222 10.69855511 17.75860592 7.243927 17.74653625 C6.22090485 17.75777527 5.19788269 17.76901428 4.14385986 17.78059387 C-0.23742854 17.74163745 -2.82653305 17.68502362 -6.65306091 15.41392517 C-9.09619329 12.62818691 -9.54147339 10.95534166 -9.54147339 7.26069641 C-7.21475147 2.38566 -5.47684479 0.013487 0 0 Z " fill="#ED5422" transform="translate(326.5414733886719,207.7393035888672)"/>
<path d="M0 0 C1.43427338 -0.01062721 1.43427338 -0.01062721 2.89752197 -0.02146912 C3.95003143 -0.0189917 5.00254089 -0.01651428 6.08694458 -0.01396179 C7.19271851 -0.01907272 8.29849243 -0.02418365 9.43777466 -0.02944946 C13.10880889 -0.04339834 16.77965646 -0.04238457 20.45071411 -0.04008484 C22.99418203 -0.04396913 25.5376493 -0.04830324 28.08111572 -0.05307007 C33.41934577 -0.06054389 38.75750682 -0.0603704 44.09573364 -0.05497742 C50.26580523 -0.04893984 56.43564865 -0.06124082 62.6056813 -0.08254749 C68.53984814 -0.10228628 74.47394426 -0.10533725 80.4081459 -0.10181236 C82.93356995 -0.10232674 85.45899755 -0.10758628 87.9844017 -0.11762428 C91.51355418 -0.12992842 95.04217592 -0.12323255 98.57131958 -0.11161804 C99.61978058 -0.11926178 100.66824158 -0.12690552 101.74847412 -0.13478088 C102.71029602 -0.12776657 103.67211792 -0.12075226 104.66308594 -0.11352539 C105.49747633 -0.11369313 106.33186672 -0.11386087 107.19154167 -0.1140337 C109.9951439 0.34939866 111.37591466 1.36147294 113.45852661 3.26069641 C114.52231564 5.90908784 114.70730696 8.4246004 114.45852661 11.26069641 C112.693886 14.12063119 111.46286964 15.7585249 108.45852661 17.26069641 C106.97484572 17.36120809 105.48677133 17.40009466 103.99971008 17.40786743 C103.0618013 17.41502274 102.12389252 17.42217804 101.15756226 17.42955017 C100.12532532 17.43223907 99.09308838 17.43492798 98.02957153 17.43769836 C96.94491104 17.44426956 95.86025055 17.45084076 94.74272156 17.45761108 C91.14147885 17.47737526 87.54027789 17.48901311 83.93899536 17.49897766 C82.71142328 17.50305319 81.4838512 17.50712872 80.21907997 17.51132774 C74.3933037 17.530047 68.56754391 17.54461033 62.74174327 17.55293971 C56.01831455 17.5627113 49.29521514 17.58902826 42.57190245 17.62944061 C36.74773477 17.66324614 30.92367754 17.67508528 25.09942055 17.67914391 C22.62225422 17.68402365 20.14509175 17.69567681 17.66798973 17.7141819 C14.20361301 17.73845533 10.7401005 17.73762956 7.27566528 17.73066711 C5.73641891 17.7498822 5.73641891 17.7498822 4.16607666 17.76948547 C-0.22366999 17.73727645 -2.82008305 17.68834921 -6.65504456 15.41491699 C-9.09536874 12.62817175 -9.54147339 10.9543885 -9.54147339 7.26069641 C-7.21475147 2.38566 -5.47684479 0.013487 0 0 Z " fill="#EE5A20" transform="translate(326.5414733886719,235.7393035888672)"/>
<path d="M0 0 C0.94914276 -0.00852997 1.89828552 -0.01705994 2.87619019 -0.02584839 C3.91575363 -0.02494202 4.95531708 -0.02403564 6.02638245 -0.02310181 C7.12254883 -0.02981903 8.21871521 -0.03653625 9.34809875 -0.04345703 C12.98122151 -0.06249631 16.61416014 -0.06636412 20.24732971 -0.06851196 C22.76694821 -0.0749353 25.28656595 -0.0816633 27.80618286 -0.08868408 C33.09135469 -0.10067139 38.37645758 -0.10444887 43.66163635 -0.10317993 C49.76987121 -0.10197811 55.87775295 -0.12308752 61.98589844 -0.15466726 C67.86293427 -0.18396913 73.73986217 -0.19115613 79.61697578 -0.18996048 C82.11728928 -0.19232506 84.61760523 -0.20119639 87.11787224 -0.21662521 C90.61111353 -0.23616422 94.10343973 -0.23049427 97.59669495 -0.21841431 C98.63423416 -0.22965332 99.67177338 -0.24089233 100.74075317 -0.25247192 C107.71345656 -0.19102639 107.71345656 -0.19102639 110.99526978 2.07904053 C112.93632233 5.15498138 113.24726677 7.65628814 113.37623596 11.26742554 C112.57598381 13.95918276 111.97986792 14.89992651 109.58791256 16.35618019 C107.11115576 17.37664273 105.3486923 17.52387341 102.6769104 17.53485107 C101.73625229 17.54338104 100.79559418 17.55191101 99.82643127 17.56069946 C98.80138489 17.55979309 97.7763385 17.55888672 96.7202301 17.55795288 C95.09280128 17.56802872 95.09280128 17.56802872 93.43249512 17.57830811 C89.84208105 17.59732328 86.25185352 17.60121394 82.66139221 17.60336304 C80.16801882 17.60978791 77.6746462 17.61651603 75.18127441 17.62353516 C69.9533619 17.6355163 64.7254968 17.63930065 59.49757385 17.63803101 C54.12668526 17.63696208 48.75608395 17.65106239 43.38526917 17.67904663 C36.90320536 17.71234163 30.4214 17.72614386 23.93925285 17.72481155 C21.46767657 17.72717411 18.99609773 17.73603426 16.52456856 17.75147629 C13.06995488 17.77104135 9.61626446 17.76533504 6.16163635 17.75326538 C5.1386142 17.76450439 4.11559204 17.77574341 3.06156921 17.787323 C-1.31971919 17.74836657 -3.9088237 17.69175275 -7.73535156 15.4206543 C-10.17848394 12.63491603 -10.62376404 10.96207078 -10.62376404 7.26742554 C-8.28114097 2.11365478 -5.6546801 0.02296353 0 0 Z " fill="#ED4E23" transform="translate(327.62376403808594,179.73257446289063)"/>
<path d="M0 0 C0.94072861 -0.00563965 1.88145721 -0.0112793 2.85069275 -0.01708984 C4.39601181 -0.01101715 4.39601181 -0.01101715 5.97254944 -0.00482178 C7.05896225 -0.00832642 8.14537506 -0.01183105 9.26470947 -0.01544189 C12.86538534 -0.02426319 16.46586562 -0.01840814 20.06654358 -0.01165771 C22.56374143 -0.01300435 25.06093903 -0.01494486 27.55813599 -0.01745605 C32.79622909 -0.02040794 38.0342711 -0.01629809 43.27235413 -0.0067749 C49.32595593 0.00410395 55.37942296 0.00058815 61.43302149 -0.01042771 C67.25773721 -0.02060244 73.08240175 -0.01951867 78.90712166 -0.01366425 C81.38509197 -0.01232834 83.86306572 -0.01397339 86.34103203 -0.01862335 C89.80293302 -0.02369314 93.26457409 -0.01597141 96.72645569 -0.00482178 C97.75464417 -0.00887024 98.78283264 -0.0129187 99.84217834 -0.01708984 C100.78572678 -0.0114502 101.72927521 -0.00581055 102.70141602 0 C103.5197589 0.00075405 104.33810179 0.0015081 105.18124294 0.002285 C107.67783492 0.28368227 109.2772219 0.95132937 111.41419983 2.25396729 C113.51099386 4.94984532 113.40930804 6.34691128 113.22669983 9.81646729 C112.43907701 13.14871767 112.1173837 14.3076749 109.41419983 16.25396729 C107.0442122 17.4389611 105.59981027 17.38731607 102.9553833 17.40113831 C102.01747452 17.40829361 101.07956573 17.41544891 100.11323547 17.42282104 C99.08099854 17.42550995 98.0487616 17.42819885 96.98524475 17.43096924 C95.90058426 17.43754044 94.81592377 17.44411163 93.69839478 17.45088196 C90.09715207 17.47064613 86.49595111 17.48228398 82.89466858 17.49224854 C81.6670965 17.49632406 80.43952442 17.50039959 79.17475319 17.50459862 C73.34897692 17.52331788 67.52321713 17.53788121 61.69741648 17.54621059 C54.97398777 17.55598217 48.25088836 17.58229913 41.52757567 17.62271148 C35.70340799 17.65651701 29.87935076 17.66835615 24.05509377 17.67241478 C21.57792743 17.67729453 19.10076497 17.68894769 16.62366295 17.70745277 C13.15928623 17.73172621 9.69577372 17.73090044 6.2313385 17.72393799 C4.69209213 17.74315308 4.69209213 17.74315308 3.12174988 17.76275635 C-1.26799677 17.73054732 -3.86440984 17.68162009 -7.69937134 15.40818787 C-10.13969552 12.62144262 -10.58580017 10.94765938 -10.58580017 7.25396729 C-8.25316986 2.1221806 -5.63900801 0.00519838 0 0 Z " fill="#EC4824" transform="translate(327.58580017089844,151.74603271484375)"/>
</svg>
