<?xml version="1.0" encoding="UTF-8"?>
<svg version="1.1" xmlns="http://www.w3.org/2000/svg" width="512" height="512">
<path d="M0 0 C0.88999695 -0.00700928 1.7799939 -0.01401855 2.69696045 -0.02124023 C5.64195911 -0.03885551 8.58599721 -0.02717791 11.53100586 -0.01367188 C13.58402185 -0.01636744 15.63703659 -0.0202504 17.69004822 -0.02526855 C21.99840417 -0.03116979 26.30642866 -0.0225866 30.61474609 -0.00390625 C36.11345904 0.01878306 41.61138668 0.00582782 47.11007023 -0.01819611 C51.35428159 -0.03272311 55.5983102 -0.02801484 59.84252739 -0.01768494 C61.86813896 -0.01503145 63.89376755 -0.01823847 65.91935921 -0.02760315 C90.52013697 -0.11631008 90.52013697 -0.11631008 100.80834961 8.58007812 C101.62561523 9.25167969 102.44288086 9.92328125 103.28491211 10.61523438 C105.18334961 12.51757812 105.18334961 12.51757812 106.18334961 15.51757812 C106.84334961 15.51757812 107.50334961 15.51757812 108.18334961 15.51757812 C108.40893555 14.94136719 108.63452148 14.36515625 108.86694336 13.77148438 C110.56076509 10.87138011 112.5372321 9.43225462 115.24584961 7.45507812 C116.14432617 6.78347656 117.04280273 6.111875 117.96850586 5.41992188 C124.95821812 1.28384669 131.64494803 0.07000412 139.67871094 0.11352539 C140.58068207 0.10666214 141.4826532 0.09979889 142.41195679 0.09272766 C145.36326271 0.07457477 148.31403167 0.07827801 151.26538086 0.08398438 C153.32801993 0.07941956 155.39065749 0.07411309 157.45329285 0.06809998 C161.76108003 0.05919346 166.06868152 0.06156694 170.37646484 0.0715332 C175.89923309 0.08306533 181.42136597 0.06273398 186.94405079 0.03361607 C191.1965288 0.01529157 195.44885313 0.01553825 199.7013607 0.02125359 C201.73834823 0.02140702 203.77534602 0.01534477 205.81229591 0.00296211 C208.65359467 -0.01188846 211.49369999 -0.00131752 214.33496094 0.01586914 C215.17605911 0.00620117 216.01715729 -0.0034668 216.88374329 -0.01342773 C220.52345922 0.03275687 222.72541905 0.18340824 225.70799255 2.35990906 C227.75182041 5.34895101 227.63940007 7.4348026 227.57397461 11.03320312 C227.55463867 12.90878906 227.55463867 12.90878906 227.53491211 14.82226562 C227.48463867 16.77519531 227.48463867 16.77519531 227.43334961 18.76757812 C227.41530273 20.085 227.39725586 21.40242188 227.37866211 22.75976562 C227.33151232 26.0131012 227.26571005 29.26497437 227.18334961 32.51757812 C228.01060547 32.49663086 228.83786133 32.47568359 229.69018555 32.45410156 C233.43778331 32.37096193 237.1851871 32.31892282 240.93334961 32.26757812 C242.23530273 32.2340625 243.53725586 32.20054688 244.87866211 32.16601562 C246.12905273 32.153125 247.37944336 32.14023437 248.66772461 32.12695312 C249.81982422 32.10600586 250.97192383 32.08505859 252.15893555 32.06347656 C255.94788066 32.63236887 256.86870552 33.50466629 259.18334961 36.51757812 C259.68671417 39.62231445 259.68671417 39.62231445 259.69128418 43.34960938 C259.70064412 44.37955772 259.70064412 44.37955772 259.71019316 45.43031311 C259.72614529 47.73058433 259.71351129 50.02979909 259.70092773 52.33007812 C259.70634791 53.97933572 259.71346998 55.62858847 259.72216797 57.27783203 C259.74041686 61.75718028 259.73332741 66.23616038 259.72065163 70.71551514 C259.71053204 75.40084839 259.71991441 80.0861499 259.72619629 84.77148438 C259.73347574 92.64003159 259.72387721 100.50842869 259.70483398 108.37695312 C259.68306465 117.47703583 259.69011581 126.57676009 259.71213961 135.67683411 C259.73028515 143.48671031 259.73285608 151.29647854 259.72238493 159.10636902 C259.71614534 163.77230709 259.71532713 168.43807663 259.72853088 173.10400391 C259.7400765 177.4904663 259.73208748 181.87646606 259.70895386 186.26287842 C259.70365983 187.87375113 259.70519241 189.48466271 259.71400452 191.09552002 C259.72491701 193.29272313 259.71125101 195.48843886 259.69128418 197.68554688 C259.68902203 199.53055786 259.68902203 199.53055786 259.68671417 201.4128418 C259.07286133 205.19906626 258.13481378 206.14686607 255.18334961 208.51757812 C252.79319763 209.01897478 252.79319763 209.01897478 250.07958984 209.02094269 C248.52471611 209.03658917 248.52471611 209.03658917 246.93843079 209.05255175 C245.80108994 209.04362886 244.66374908 209.03470597 243.49194336 209.0255127 C241.67795296 209.03487264 241.67795296 209.03487264 239.82731628 209.04442167 C236.46889487 209.05763359 233.11136588 209.05285575 229.75299835 209.0404768 C226.13193156 209.03144081 222.51094377 209.04538878 218.88989258 209.05639648 C211.79566883 209.07420191 204.70161416 209.07033278 197.60738373 209.05874592 C191.84281525 209.0497198 186.07829422 209.04848403 180.3137207 209.05284119 C179.08400559 209.05376058 179.08400559 209.05376058 177.82944775 209.05469856 C176.16412479 209.05597743 174.49880185 209.05727428 172.83347893 209.05858892 C157.21028884 209.07000064 141.58719257 209.05687175 125.96401787 209.03538746 C112.55270646 209.01751592 99.14153352 209.02061986 85.73022461 209.0390625 C70.16371886 209.06045878 54.59729538 209.06890195 39.03077698 209.05661345 C37.37151084 209.05533922 35.71224468 209.05408174 34.05297852 209.05284119 C33.23654468 209.05222408 32.42011084 209.05160698 31.57893658 209.05097118 C25.81993832 209.04751454 20.06099215 209.05335336 14.30200195 209.0627594 C7.28561614 209.07396699 0.26940937 209.07096561 -6.74695587 209.04963642 C-10.3282507 209.03910912 -13.9092468 209.03503238 -17.49053955 209.04823303 C-21.3689441 209.06231284 -25.2468573 209.04552464 -29.12524414 209.0255127 C-30.26258499 209.03443558 -31.39992584 209.04335847 -32.57173157 209.05255175 C-33.60831406 209.04212076 -34.64489655 209.03168977 -35.71289062 209.02094269 C-36.6083812 209.02029328 -37.50387177 209.01964387 -38.42649841 209.01897478 C-41.61453885 208.35020023 -42.81884938 207.04048515 -44.81665039 204.51757812 C-45.32001495 201.4128418 -45.32001495 201.4128418 -45.32458496 197.68554688 C-45.3339449 196.65559853 -45.3339449 196.65559853 -45.34349394 195.60484314 C-45.35944607 193.30457192 -45.34681207 191.00535716 -45.33422852 188.70507812 C-45.33964869 187.05582053 -45.34677076 185.40656778 -45.35546875 183.75732422 C-45.37371764 179.27797597 -45.36662819 174.79899587 -45.35395241 170.31964111 C-45.34383282 165.63430786 -45.35321519 160.94900635 -45.35949707 156.26367188 C-45.36677652 148.39512466 -45.35717799 140.52672756 -45.33813477 132.65820312 C-45.31636543 123.55812042 -45.3234166 114.45839616 -45.34544039 105.35832214 C-45.36358593 97.54844594 -45.36615686 89.73867771 -45.35568571 81.92878723 C-45.34944612 77.26284916 -45.34862791 72.59707962 -45.36183167 67.93115234 C-45.37337728 63.54468995 -45.36538826 59.15869019 -45.34225464 54.77227783 C-45.33696062 53.16140512 -45.33849319 51.55049354 -45.3473053 49.93963623 C-45.35821779 47.74243312 -45.34455179 45.54671739 -45.32458496 43.34960938 C-45.32307686 42.11960205 -45.32156876 40.88959473 -45.32001495 39.62231445 C-44.7198776 35.92068668 -43.79674068 34.72974124 -40.81665039 32.51757812 C-37.79223633 32.06347656 -37.79223633 32.06347656 -34.30102539 32.12695312 C-33.05063477 32.13984375 -31.80024414 32.15273438 -30.51196289 32.16601562 C-28.5590332 32.21628906 -28.5590332 32.21628906 -26.56665039 32.26757812 C-25.24922852 32.285625 -23.93180664 32.30367187 -22.57446289 32.32226562 C-19.32112731 32.36941542 -16.06925414 32.43521769 -12.81665039 32.51757812 C-12.83759766 31.69032227 -12.85854492 30.86306641 -12.88012695 30.01074219 C-12.96326658 26.26314442 -13.0153057 22.51574063 -13.06665039 18.76757812 C-13.11692383 16.81464844 -13.11692383 16.81464844 -13.16821289 14.82226562 C-13.18110352 13.571875 -13.19399414 12.32148438 -13.20727539 11.03320312 C-13.22822266 9.88110352 -13.24916992 8.72900391 -13.27075195 7.54199219 C-12.81665039 4.51757812 -12.81665039 4.51757812 -11.33930969 2.36090088 C-7.72409654 -0.28075773 -4.30891985 -0.04163583 0 0 Z M3.18334961 16.51757812 C3.18334961 64.03757813 3.18334961 111.55757813 3.18334961 160.51757812 C29.39002865 160.68793397 29.39002865 160.68793397 55.59692383 160.81542969 C60.69335938 160.86083984 60.69335938 160.86083984 63.087677 160.887146 C64.74135681 160.90165288 66.39511532 160.90852742 68.04885864 160.90911865 C77.58038013 160.9183495 85.54422524 161.02841518 94.18334961 165.51757812 C95.84669962 166.19247736 97.51304619 166.86007625 99.18334961 167.51757812 C99.23014563 151.11428049 99.26537563 134.71100462 99.28697395 118.30765629 C99.2972706 110.69067715 99.3113 103.07373957 99.33422852 95.45678711 C99.35421187 88.81504441 99.36707775 82.17333182 99.3715266 75.53155988 C99.37412563 72.01734559 99.38020062 68.50321743 99.39480972 64.98903084 C99.41101589 61.05850784 99.41132613 57.12806781 99.41040039 53.19750977 C99.42118622 51.4647303 99.42118622 51.4647303 99.43218994 49.69694519 C99.40942201 40.74514468 99.06571977 32.6718121 93.18334961 25.51757812 C71.46872115 3.95805415 23.84243352 16.51757812 3.18334961 16.51757812 Z M124.18334961 22.51757812 C117.22892896 29.52203058 115.05331363 36.18123954 115.06309509 46.06051636 C115.06172043 47.13736191 115.06034576 48.21420746 115.05892944 49.32368469 C115.06252472 50.48965683 115.06612 51.65562897 115.06982422 52.85693359 C115.06967819 54.09651321 115.06953217 55.33609283 115.06938171 56.61323547 C115.06995762 59.99915994 115.07496136 63.3850229 115.08195567 66.77093649 C115.08822114 70.31434033 115.08879553 73.85774504 115.08998108 77.40115356 C115.09308499 84.10520421 115.10128568 90.80923849 115.11133057 97.51328194 C115.12252093 105.14809822 115.12800952 112.78291528 115.133026 120.41773772 C115.1434691 136.11769399 115.1610503 151.81763395 115.18334961 167.51757812 C115.93100586 167.16824219 116.67866211 166.81890625 117.44897461 166.45898438 C118.43381836 166.00394531 119.41866211 165.54890625 120.43334961 165.08007812 C121.40788086 164.62761719 122.38241211 164.17515625 123.38647461 163.70898438 C128.34634589 161.59619004 132.72239514 161.35372882 138.07299805 161.31225586 C138.87636723 161.30222314 139.6797364 161.29219042 140.5074501 161.28185368 C143.10251248 161.2505242 145.69759016 161.22572044 148.29272461 161.20117188 C149.89705904 161.18276331 151.50138861 161.16392635 153.10571289 161.14465332 C159.04820098 161.07626912 164.99078214 161.0161757 170.93334961 160.95507812 C184.21584961 160.81070313 197.49834961 160.66632813 211.18334961 160.51757812 C211.18334961 112.99757812 211.18334961 65.47757812 211.18334961 16.51757812 C176.49963188 11.36666569 176.49963188 11.36666569 124.18334961 22.51757812 Z M-28.81665039 48.51757812 C-28.81665039 96.03757813 -28.81665039 143.55757813 -28.81665039 192.51757812 C-23.53665039 192.51757812 -18.25665039 192.51757812 -12.81665039 192.51757812 C-12.81665039 144.99757812 -12.81665039 97.47757812 -12.81665039 48.51757812 C-18.09665039 48.51757812 -23.37665039 48.51757812 -28.81665039 48.51757812 Z M227.18334961 48.51757812 C227.18334961 96.03757813 227.18334961 143.55757813 227.18334961 192.51757812 C232.46334961 192.51757812 237.74334961 192.51757812 243.18334961 192.51757812 C243.18334961 144.99757812 243.18334961 97.47757812 243.18334961 48.51757812 C237.90334961 48.51757812 232.62334961 48.51757812 227.18334961 48.51757812 Z M3.18334961 176.51757812 C3.18334961 181.79757813 3.18334961 187.07757813 3.18334961 192.51757812 C34.20334961 192.51757812 65.22334961 192.51757812 97.18334961 192.51757812 C93.8295629 185.81000471 90.21220599 181.62793147 83.55834961 178.14257812 C78.30910845 176.76119887 73.31170736 176.39454592 67.89282227 176.40405273 C67.18968903 176.40390671 66.48655579 176.40376068 65.76211548 176.40361023 C63.45718206 176.40430229 61.15233126 176.41206132 58.84741211 176.41992188 C57.24173019 176.42178857 55.63604769 176.42321129 54.03036499 176.42420959 C49.81852629 176.42801498 45.60672245 176.43782825 41.39489746 176.44891357 C37.09131339 176.45917036 32.78772365 176.46371634 28.48413086 176.46875 C20.05051938 176.4794524 11.61694286 176.49703305 3.18334961 176.51757812 Z M122.51928711 184.22851562 C120.05905829 186.9919006 118.36653535 188.96802091 117.18334961 192.51757812 C148.20334961 192.51757812 179.22334961 192.51757812 211.18334961 192.51757812 C211.18334961 187.23757812 211.18334961 181.95757812 211.18334961 176.51757812 C201.95115573 176.47226589 192.71903657 176.43562675 183.48675632 176.41395378 C179.19913642 176.40354815 174.91159702 176.38944823 170.62402344 176.36669922 C166.48079075 176.3448554 162.33763515 176.33298532 158.19434929 176.32782364 C156.61922938 176.32414849 155.04411336 176.31697222 153.46902657 176.30611801 C136.59804694 175.87770664 136.59804694 175.87770664 122.51928711 184.22851562 Z " fill="#F49931" transform="translate(148.816650390625,15.482421875)"/>
<path d="M0 0 C2.15511245 -0.00269918 4.31022371 -0.00658513 6.46533203 -0.01159668 C10.96724113 -0.01747165 15.4688313 -0.00899334 19.97070312 0.00976562 C25.71694328 0.03255363 31.4624359 0.01941981 37.20864868 -0.00452423 C41.65443468 -0.01903632 46.1000459 -0.01435143 50.5458374 -0.00401306 C52.66355479 -0.00136072 54.78128849 -0.00456247 56.89898682 -0.01393127 C72.10244019 -0.06644504 84.32186049 0.50226049 95.875 11.53125 C106.39457338 22.5507635 107.4692839 34.40974754 107.39257812 48.9453125 C107.39800768 50.68276554 107.405135 52.42021398 107.41381836 54.15765381 C107.43195559 58.8477903 107.42502411 63.53757235 107.41230202 68.22771454 C107.40212434 73.1526327 107.41158087 78.07752196 107.41784668 83.00244141 C107.42510926 91.27056283 107.41557194 99.53854099 107.39648438 107.80664062 C107.37471834 117.34468123 107.38177069 126.88237974 107.40379 136.42041206 C107.42198368 144.63223242 107.42448296 152.84395021 107.41403532 161.05578423 C107.40782217 165.95043413 107.40690448 170.8449236 107.42018127 175.73956299 C107.4317971 180.34281557 107.42361011 184.94563014 107.40060425 189.54883575 C107.39534762 191.2309522 107.39677827 192.91310597 107.40565491 194.59520721 C107.4712391 208.29370174 105.67285374 219.26775568 95.875 229.53125 C83.46208516 241.38100802 69.9495694 241.1341677 53.75 241.0625 C51.59488755 241.06519918 49.43977629 241.06908513 47.28466797 241.07409668 C42.78275887 241.07997165 38.2811687 241.07149334 33.77929688 241.05273438 C28.03305672 241.02994637 22.2875641 241.04308019 16.54135132 241.06702423 C12.09556532 241.08153632 7.6499541 241.07685143 3.2041626 241.06651306 C1.08644521 241.06386072 -1.03128849 241.06706247 -3.14898682 241.07643127 C-18.35244019 241.12894504 -30.57186049 240.56023951 -42.125 229.53125 C-52.64457338 218.5117365 -53.7192839 206.65275246 -53.64257812 192.1171875 C-53.64800768 190.37973446 -53.655135 188.64228602 -53.66381836 186.90484619 C-53.68195559 182.2147097 -53.67502411 177.52492765 -53.66230202 172.83478546 C-53.65212434 167.9098673 -53.66158087 162.98497804 -53.66784668 158.06005859 C-53.67510926 149.79193717 -53.66557194 141.52395901 -53.64648438 133.25585938 C-53.62471834 123.71781877 -53.63177069 114.18012026 -53.65379 104.64208794 C-53.67198368 96.43026758 -53.67448296 88.21854979 -53.66403532 80.00671577 C-53.65782217 75.11206587 -53.65690448 70.2175764 -53.67018127 65.32293701 C-53.6817971 60.71968443 -53.67361011 56.11686986 -53.65060425 51.51366425 C-53.64534762 49.8315478 -53.64677827 48.14939403 -53.65565491 46.46729279 C-53.7212391 32.76879826 -51.92285374 21.79474432 -42.125 11.53125 C-29.71208516 -0.31850802 -16.1995694 -0.0716677 0 0 Z M-30.125 23.53125 C-38.09006765 32.79013575 -37.41751394 44.57155885 -37.38378906 56.09765625 C-37.38650314 57.66071739 -37.39006641 59.22377725 -37.39440918 60.78683472 C-37.40348583 65.00994409 -37.40000851 69.23295516 -37.39365101 73.45606613 C-37.38856647 77.88811242 -37.39328926 82.32015063 -37.39642334 86.75219727 C-37.40005585 94.19321189 -37.39528268 101.63418674 -37.38574219 109.07519531 C-37.37485902 117.66225529 -37.3783851 126.24922028 -37.389395 134.83627796 C-37.39848827 142.22593146 -37.39974318 149.61555645 -37.39451766 157.00521374 C-37.39140917 161.41129805 -37.39095769 165.81733779 -37.39759064 170.22341919 C-37.40339321 174.36688785 -37.39931422 178.51023474 -37.38780212 182.65369034 C-37.38517105 184.16894453 -37.3858939 185.68420908 -37.39032745 187.19945908 C-37.50672689 203.46592557 -37.50672689 203.46592557 -30.125 217.53125 C-20.25903406 226.01856568 -7.27840376 224.82998014 4.9375 224.796875 C6.69669651 224.7982246 8.45589265 224.80016758 10.21508789 224.80267334 C13.88984756 224.80561074 17.56450956 224.80137171 21.23925781 224.79199219 C25.9295886 224.78059851 30.61969041 224.78716542 35.31001282 224.79913712 C38.93902281 224.80639322 42.56797928 224.80405062 46.19699097 224.79888153 C47.9256086 224.79755539 49.65423122 224.79915609 51.38284302 224.80384064 C67.61019757 225.28059135 67.61019757 225.28059135 81.875 218.53125 C89.23279609 211.12052012 90.99374756 204.17869436 91.00871277 193.79606628 C91.0121111 192.81784903 91.0121111 192.81784903 91.01557809 191.81986982 C91.02187633 189.64836819 91.02109143 187.47692964 91.02026367 185.30541992 C91.02325778 183.74280212 91.02666089 182.18018506 91.03044128 180.61756897 C91.0392601 176.3819139 91.04161851 172.14627905 91.04225707 167.91061568 C91.04296881 165.26151238 91.04510547 162.61241418 91.04775429 159.96331215 C91.05700089 150.71341247 91.06109006 141.46352719 91.06030273 132.21362305 C91.05970221 123.60447845 91.07025085 114.99539657 91.0860464 106.38626784 C91.09914163 98.98394133 91.10448579 91.58163527 91.10384732 84.17929727 C91.10359291 79.76310127 91.10641285 75.34696101 91.11702538 70.9307766 C91.12673971 66.77504609 91.12676276 62.61942425 91.11950874 58.4636898 C91.11846702 56.94359681 91.12080116 55.42349692 91.1268692 53.90341568 C91.33477682 37.56978647 91.33477682 37.56978647 83.875 23.53125 C75.9815049 17.37699959 68.72318152 16.37969208 58.87939453 16.38598633 C58.11254333 16.38262772 57.34569214 16.3792691 56.55560303 16.37580872 C54.03965603 16.36636884 51.52377607 16.3643592 49.0078125 16.36328125 C47.24575779 16.36006409 45.48370334 16.35669968 43.72164917 16.35319519 C40.03496685 16.34722152 36.34830791 16.3453535 32.66162109 16.34594727 C27.95555565 16.34604885 23.24964121 16.3323928 18.54361153 16.31517506 C14.90602947 16.3040155 11.26848349 16.30202926 7.63088608 16.30255699 C5.89668126 16.30138299 4.16247532 16.29699402 2.42828751 16.28922462 C-14.97946213 15.90095448 -14.97946213 15.90095448 -30.125 23.53125 Z " fill="#EC5D3B" transform="translate(389.125,255.46875)"/>
<path d="M0 0 C2.15511245 -0.00269918 4.31022371 -0.00658513 6.46533203 -0.01159668 C10.96724113 -0.01747165 15.4688313 -0.00899334 19.97070312 0.00976562 C25.71694328 0.03255363 31.4624359 0.01941981 37.20864868 -0.00452423 C41.65443468 -0.01903632 46.1000459 -0.01435143 50.5458374 -0.00401306 C52.66355479 -0.00136072 54.78128849 -0.00456247 56.89898682 -0.01393127 C72.10244019 -0.06644504 84.32186049 0.50226049 95.875 11.53125 C106.39457338 22.5507635 107.4692839 34.40974754 107.39257812 48.9453125 C107.39800768 50.68276554 107.405135 52.42021398 107.41381836 54.15765381 C107.43195559 58.8477903 107.42502411 63.53757235 107.41230202 68.22771454 C107.40212434 73.1526327 107.41158087 78.07752196 107.41784668 83.00244141 C107.42510926 91.27056283 107.41557194 99.53854099 107.39648438 107.80664062 C107.37471834 117.34468123 107.38177069 126.88237974 107.40379 136.42041206 C107.42198368 144.63223242 107.42448296 152.84395021 107.41403532 161.05578423 C107.40782217 165.95043413 107.40690448 170.8449236 107.42018127 175.73956299 C107.4317971 180.34281557 107.42361011 184.94563014 107.40060425 189.54883575 C107.39534762 191.2309522 107.39677827 192.91310597 107.40565491 194.59520721 C107.4712391 208.29370174 105.67285374 219.26775568 95.875 229.53125 C83.46208516 241.38100802 69.9495694 241.1341677 53.75 241.0625 C51.59488755 241.06519918 49.43977629 241.06908513 47.28466797 241.07409668 C42.78275887 241.07997165 38.2811687 241.07149334 33.77929688 241.05273438 C28.03305672 241.02994637 22.2875641 241.04308019 16.54135132 241.06702423 C12.09556532 241.08153632 7.6499541 241.07685143 3.2041626 241.06651306 C1.08644521 241.06386072 -1.03128849 241.06706247 -3.14898682 241.07643127 C-18.35244019 241.12894504 -30.57186049 240.56023951 -42.125 229.53125 C-52.64457338 218.5117365 -53.7192839 206.65275246 -53.64257812 192.1171875 C-53.64800768 190.37973446 -53.655135 188.64228602 -53.66381836 186.90484619 C-53.68195559 182.2147097 -53.67502411 177.52492765 -53.66230202 172.83478546 C-53.65212434 167.9098673 -53.66158087 162.98497804 -53.66784668 158.06005859 C-53.67510926 149.79193717 -53.66557194 141.52395901 -53.64648438 133.25585938 C-53.62471834 123.71781877 -53.63177069 114.18012026 -53.65379 104.64208794 C-53.67198368 96.43026758 -53.67448296 88.21854979 -53.66403532 80.00671577 C-53.65782217 75.11206587 -53.65690448 70.2175764 -53.67018127 65.32293701 C-53.6817971 60.71968443 -53.67361011 56.11686986 -53.65060425 51.51366425 C-53.64534762 49.8315478 -53.64677827 48.14939403 -53.65565491 46.46729279 C-53.7212391 32.76879826 -51.92285374 21.79474432 -42.125 11.53125 C-29.71208516 -0.31850802 -16.1995694 -0.0716677 0 0 Z M-30.125 23.53125 C-38.09006765 32.79013575 -37.41751394 44.57155885 -37.38378906 56.09765625 C-37.38650314 57.66071739 -37.39006641 59.22377725 -37.39440918 60.78683472 C-37.40348583 65.00994409 -37.40000851 69.23295516 -37.39365101 73.45606613 C-37.38856647 77.88811242 -37.39328926 82.32015063 -37.39642334 86.75219727 C-37.40005585 94.19321189 -37.39528268 101.63418674 -37.38574219 109.07519531 C-37.37485902 117.66225529 -37.3783851 126.24922028 -37.389395 134.83627796 C-37.39848827 142.22593146 -37.39974318 149.61555645 -37.39451766 157.00521374 C-37.39140917 161.41129805 -37.39095769 165.81733779 -37.39759064 170.22341919 C-37.40339321 174.36688785 -37.39931422 178.51023474 -37.38780212 182.65369034 C-37.38517105 184.16894453 -37.3858939 185.68420908 -37.39032745 187.19945908 C-37.50672689 203.46592557 -37.50672689 203.46592557 -30.125 217.53125 C-20.25903406 226.01856568 -7.27840376 224.82998014 4.9375 224.796875 C6.69669651 224.7982246 8.45589265 224.80016758 10.21508789 224.80267334 C13.88984756 224.80561074 17.56450956 224.80137171 21.23925781 224.79199219 C25.9295886 224.78059851 30.61969041 224.78716542 35.31001282 224.79913712 C38.93902281 224.80639322 42.56797928 224.80405062 46.19699097 224.79888153 C47.9256086 224.79755539 49.65423122 224.79915609 51.38284302 224.80384064 C67.61019757 225.28059135 67.61019757 225.28059135 81.875 218.53125 C89.23279609 211.12052012 90.99374756 204.17869436 91.00871277 193.79606628 C91.0121111 192.81784903 91.0121111 192.81784903 91.01557809 191.81986982 C91.02187633 189.64836819 91.02109143 187.47692964 91.02026367 185.30541992 C91.02325778 183.74280212 91.02666089 182.18018506 91.03044128 180.61756897 C91.0392601 176.3819139 91.04161851 172.14627905 91.04225707 167.91061568 C91.04296881 165.26151238 91.04510547 162.61241418 91.04775429 159.96331215 C91.05700089 150.71341247 91.06109006 141.46352719 91.06030273 132.21362305 C91.05970221 123.60447845 91.07025085 114.99539657 91.0860464 106.38626784 C91.09914163 98.98394133 91.10448579 91.58163527 91.10384732 84.17929727 C91.10359291 79.76310127 91.10641285 75.34696101 91.11702538 70.9307766 C91.12673971 66.77504609 91.12676276 62.61942425 91.11950874 58.4636898 C91.11846702 56.94359681 91.12080116 55.42349692 91.1268692 53.90341568 C91.33477682 37.56978647 91.33477682 37.56978647 83.875 23.53125 C75.9815049 17.37699959 68.72318152 16.37969208 58.87939453 16.38598633 C58.11254333 16.38262772 57.34569214 16.3792691 56.55560303 16.37580872 C54.03965603 16.36636884 51.52377607 16.3643592 49.0078125 16.36328125 C47.24575779 16.36006409 45.48370334 16.35669968 43.72164917 16.35319519 C40.03496685 16.34722152 36.34830791 16.3453535 32.66162109 16.34594727 C27.95555565 16.34604885 23.24964121 16.3323928 18.54361153 16.31517506 C14.90602947 16.3040155 11.26848349 16.30202926 7.63088608 16.30255699 C5.89668126 16.30138299 4.16247532 16.29699402 2.42828751 16.28922462 C-14.97946213 15.90095448 -14.97946213 15.90095448 -30.125 23.53125 Z " fill="#EC5D3B" transform="translate(69.125,255.46875)"/>
<path d="M0 0 C26.4 0 52.8 0 80 0 C80 5.28 80 10.56 80 16 C53.6 16 27.2 16 0 16 C0 10.72 0 5.44 0 0 Z " fill="#EB563B" transform="translate(376,400)"/>
<path d="M0 0 C26.4 0 52.8 0 80 0 C80 5.28 80 10.56 80 16 C53.6 16 27.2 16 0 16 C0 10.72 0 5.44 0 0 Z " fill="#EB563B" transform="translate(56,400)"/>
<path d="M0 0 C26.4 0 52.8 0 80 0 C80 5.28 80 10.56 80 16 C53.6 16 27.2 16 0 16 C0 10.72 0 5.44 0 0 Z " fill="#EC5D3B" transform="translate(376,368)"/>
<path d="M0 0 C26.4 0 52.8 0 80 0 C80 5.28 80 10.56 80 16 C53.6 16 27.2 16 0 16 C0 10.72 0 5.44 0 0 Z " fill="#EC5D3B" transform="translate(56,368)"/>
<path d="M0 0 C26.4 0 52.8 0 80 0 C80 5.28 80 10.56 80 16 C53.6 16 27.2 16 0 16 C0 10.72 0 5.44 0 0 Z " fill="#ED653C" transform="translate(376,336)"/>
<path d="M0 0 C26.4 0 52.8 0 80 0 C80 5.28 80 10.56 80 16 C53.6 16 27.2 16 0 16 C0 10.72 0 5.44 0 0 Z " fill="#ED653C" transform="translate(56,336)"/>
<path d="M0 0 C21.12 0 42.24 0 64 0 C64 5.28 64 10.56 64 16 C42.88 16 21.76 16 0 16 C0 10.72 0 5.44 0 0 Z " fill="#F38F3E" transform="translate(280,144)"/>
<path d="M0 0 C21.12 0 42.24 0 64 0 C64 5.28 64 10.56 64 16 C42.88 16 21.76 16 0 16 C0 10.72 0 5.44 0 0 Z " fill="#F38F3E" transform="translate(168,144)"/>
<path d="M0 0 C21.12 0 42.24 0 64 0 C64 5.28 64 10.56 64 16 C42.88 16 21.76 16 0 16 C0 10.72 0 5.44 0 0 Z " fill="#F49A35" transform="translate(280,112)"/>
<path d="M0 0 C21.12 0 42.24 0 64 0 C64 5.28 64 10.56 64 16 C42.88 16 21.76 16 0 16 C0 10.72 0 5.44 0 0 Z " fill="#F49A35" transform="translate(168,112)"/>
<path d="M0 0 C21.12 0 42.24 0 64 0 C64 5.28 64 10.56 64 16 C42.88 16 21.76 16 0 16 C0 10.72 0 5.44 0 0 Z " fill="#F7A52A" transform="translate(280,80)"/>
<path d="M0 0 C21.12 0 42.24 0 64 0 C64 5.28 64 10.56 64 16 C42.88 16 21.76 16 0 16 C0 10.72 0 5.44 0 0 Z " fill="#F7A52A" transform="translate(168,80)"/>
<path d="M0 0 C21.12 0 42.24 0 64 0 C64 5.28 64 10.56 64 16 C42.88 16 21.76 16 0 16 C0 10.72 0 5.44 0 0 Z " fill="#F9B120" transform="translate(280,48)"/>
<path d="M0 0 C21.12 0 42.24 0 64 0 C64 5.28 64 10.56 64 16 C42.88 16 21.76 16 0 16 C0 10.72 0 5.44 0 0 Z " fill="#F9B120" transform="translate(168,48)"/>
<path d="M0 0 C5.28 0 10.56 0 16 0 C16 15.84 16 31.68 16 48 C10.72 48 5.44 48 0 48 C0 32.16 0 16.32 0 0 Z " fill="#F0813E" transform="translate(440,192)"/>
<path d="M0 0 C5.28 0 10.56 0 16 0 C16 15.84 16 31.68 16 48 C10.72 48 5.44 48 0 48 C0 32.16 0 16.32 0 0 Z " fill="#F0813E" transform="translate(56,192)"/>
<path d="M0 0 C4.58395782 -0.10771702 9.16539636 -0.18719721 13.75 -0.25 C15.05195313 -0.28351562 16.35390625 -0.31703125 17.6953125 -0.3515625 C18.94570313 -0.36445312 20.19609375 -0.37734375 21.484375 -0.390625 C22.63647461 -0.41157227 23.78857422 -0.43251953 24.97558594 -0.45410156 C28 0 28 0 30.3828125 1.6171875 C32.51436611 4.75788243 32.45929781 6.73862043 32.390625 10.515625 C32.37773437 11.76601563 32.36484375 13.01640625 32.3515625 14.3046875 C32.31804687 15.60664062 32.28453125 16.90859375 32.25 18.25 C32.23195313 19.56742188 32.21390625 20.88484375 32.1953125 22.2421875 C32.14816882 25.49510156 32.07642616 28.74764217 32 32 C26.72 32 21.44 32 16 32 C16 26.72 16 21.44 16 16 C10.72 16 5.44 16 0 16 C0 10.72 0 5.44 0 0 Z " fill="#F8AF22" transform="translate(424,48)"/>
<path d="M0 0 C1.25039062 0.01289062 2.50078125 0.02578125 3.7890625 0.0390625 C5.74199219 0.08933594 5.74199219 0.08933594 7.734375 0.140625 C9.05179688 0.15867188 10.36921875 0.17671875 11.7265625 0.1953125 C14.97947656 0.24245618 18.23201717 0.31419884 21.484375 0.390625 C21.484375 5.670625 21.484375 10.950625 21.484375 16.390625 C16.204375 16.390625 10.924375 16.390625 5.484375 16.390625 C5.484375 21.670625 5.484375 26.950625 5.484375 32.390625 C0.204375 32.390625 -5.075625 32.390625 -10.515625 32.390625 C-10.62334202 27.80666718 -10.70282221 23.22522864 -10.765625 18.640625 C-10.79914062 17.33867188 -10.83265625 16.03671875 -10.8671875 14.6953125 C-10.88007812 13.44492187 -10.89296875 12.19453125 -10.90625 10.90625 C-10.92719727 9.75415039 -10.94814453 8.60205078 -10.96972656 7.41503906 C-10.515625 4.390625 -10.515625 4.390625 -8.8984375 2.0078125 C-5.75774257 -0.12374111 -3.77700457 -0.06867281 0 0 Z " fill="#F8AF22" transform="translate(66.515625,47.609375)"/>
<path d="M0 0 C10.56 0 21.12 0 32 0 C32 5.28 32 10.56 32 16 C21.44 16 10.88 16 0 16 C0 10.72 0 5.44 0 0 Z " fill="#EA4B3B" transform="translate(400,448)"/>
<path d="M0 0 C10.56 0 21.12 0 32 0 C32 5.28 32 10.56 32 16 C21.44 16 10.88 16 0 16 C0 10.72 0 5.44 0 0 Z " fill="#EA4B3B" transform="translate(80,448)"/>
<path d="M0 0 C10.56 0 21.12 0 32 0 C32 5.28 32 10.56 32 16 C21.44 16 10.88 16 0 16 C0 10.72 0 5.44 0 0 Z " fill="#EC5A3B" transform="translate(288,384)"/>
<path d="M0 0 C10.56 0 21.12 0 32 0 C32 5.28 32 10.56 32 16 C21.44 16 10.88 16 0 16 C0 10.72 0 5.44 0 0 Z " fill="#EC613C" transform="translate(192,352)"/>
<path d="M0 0 C10.56 0 21.12 0 32 0 C32 5.28 32 10.56 32 16 C21.44 16 10.88 16 0 16 C0 10.72 0 5.44 0 0 Z " fill="#EE6F3C" transform="translate(400,288)"/>
<path d="M0 0 C10.56 0 21.12 0 32 0 C32 5.28 32 10.56 32 16 C21.44 16 10.88 16 0 16 C0 10.72 0 5.44 0 0 Z " fill="#EE6F3C" transform="translate(80,288)"/>
<path d="M0 0 C5.28 0 10.56 0 16 0 C16 5.28 16 10.56 16 16 C10.72 16 5.44 16 0 16 C0 10.72 0 5.44 0 0 Z " fill="#EC5A3B" transform="translate(256,384)"/>
<path d="M0 0 C5.28 0 10.56 0 16 0 C16 5.28 16 10.56 16 16 C10.72 16 5.44 16 0 16 C0 10.72 0 5.44 0 0 Z " fill="#EC5A3B" transform="translate(224,384)"/>
<path d="M0 0 C5.28 0 10.56 0 16 0 C16 5.28 16 10.56 16 16 C10.72 16 5.44 16 0 16 C0 10.72 0 5.44 0 0 Z " fill="#EC5A3B" transform="translate(192,384)"/>
<path d="M0 0 C5.28 0 10.56 0 16 0 C16 5.28 16 10.56 16 16 C10.72 16 5.44 16 0 16 C0 10.72 0 5.44 0 0 Z " fill="#EC613C" transform="translate(304,352)"/>
<path d="M0 0 C5.28 0 10.56 0 16 0 C16 5.28 16 10.56 16 16 C10.72 16 5.44 16 0 16 C0 10.72 0 5.44 0 0 Z " fill="#EC613C" transform="translate(272,352)"/>
<path d="M0 0 C5.28 0 10.56 0 16 0 C16 5.28 16 10.56 16 16 C10.72 16 5.44 16 0 16 C0 10.72 0 5.44 0 0 Z " fill="#EC613C" transform="translate(240,352)"/>
<path d="M0 0 C5.28 0 10.56 0 16 0 C16 5.28 16 10.56 16 16 C10.72 16 5.44 16 0 16 C0 10.72 0 5.44 0 0 Z " fill="#EE6F3C" transform="translate(368,288)"/>
<path d="M0 0 C5.28 0 10.56 0 16 0 C16 5.28 16 10.56 16 16 C10.72 16 5.44 16 0 16 C0 10.72 0 5.44 0 0 Z " fill="#EE6F3C" transform="translate(48,288)"/>
<path d="M0 0 C5.28 0 10.56 0 16 0 C16 5.28 16 10.56 16 16 C10.72 16 5.44 16 0 16 C0 10.72 0 5.44 0 0 Z " fill="#F28C3F" transform="translate(440,160)"/>
<path d="M0 0 C5.28 0 10.56 0 16 0 C16 5.28 16 10.56 16 16 C10.72 16 5.44 16 0 16 C0 10.72 0 5.44 0 0 Z " fill="#F28C3F" transform="translate(56,160)"/>
<path d="M0 0 C5.28 0 10.56 0 16 0 C16 5.28 16 10.56 16 16 C10.72 16 5.44 16 0 16 C0 10.72 0 5.44 0 0 Z " fill="#F3953A" transform="translate(440,128)"/>
<path d="M0 0 C5.28 0 10.56 0 16 0 C16 5.28 16 10.56 16 16 C10.72 16 5.44 16 0 16 C0 10.72 0 5.44 0 0 Z " fill="#F3953A" transform="translate(56,128)"/>
<path d="M0 0 C5.28 0 10.56 0 16 0 C16 5.28 16 10.56 16 16 C10.72 16 5.44 16 0 16 C0 10.72 0 5.44 0 0 Z " fill="#F5A02F" transform="translate(440,96)"/>
<path d="M0 0 C5.28 0 10.56 0 16 0 C16 5.28 16 10.56 16 16 C10.72 16 5.44 16 0 16 C0 10.72 0 5.44 0 0 Z " fill="#F5A02F" transform="translate(56,96)"/>
</svg>
