<?xml version="1.0" encoding="UTF-8"?>
<svg version="1.1" xmlns="http://www.w3.org/2000/svg" width="512" height="512">
<path d="M0 0 C0.85078125 0.48339844 1.7015625 0.96679688 2.578125 1.46484375 C8.99327282 5.44546605 18.57230536 12.14461072 22 19 C22.74691416 19.00146656 23.49382832 19.00293312 24.26337624 19.00444412 C42.44144405 19.04150344 60.61931956 19.10050651 78.79723549 19.18390274 C87.58797129 19.22370407 96.37861742 19.25609099 105.16943359 19.27099609 C112.83194434 19.28400696 120.49425789 19.31095709 128.15665758 19.35461307 C132.21350157 19.37724073 136.27010223 19.39290991 140.32701492 19.39188385 C144.14715014 19.39113799 147.9667472 19.40905815 151.78674316 19.44116783 C153.18712281 19.44967214 154.58756277 19.4514131 155.987957 19.44580269 C169.342637 19.39943484 169.342637 19.39943484 174 24 C179.09465965 29.66658149 178.56227644 35.32099625 178.50793457 42.67773438 C178.51729451 44.61467793 178.51729451 44.61467793 178.52684355 46.59075165 C178.54353081 50.16865106 178.53529356 53.74612332 178.52289867 57.3240242 C178.51384792 61.18503961 178.52781801 65.0459816 178.53881836 68.90698242 C178.55660795 76.4681638 178.55276167 84.02918638 178.5411678 91.59037399 C178.53213547 97.73531142 178.5309086 103.88020433 178.53526306 110.02514648 C178.53587599 110.89961536 178.53648893 111.77408423 178.53712043 112.67505217 C178.53839933 114.45150059 178.53969618 116.227949 178.5410108 118.00439739 C178.55241788 134.66346628 178.53930088 151.32244713 178.51780933 167.98150158 C178.49993823 182.27677431 178.5030423 196.57191711 178.52148438 210.8671875 C178.54288883 227.46650583 178.55131923 244.065747 178.53903532 260.66507721 C178.53776112 262.43500263 178.53650364 264.20492807 178.53526306 265.97485352 C178.53433741 267.28112048 178.53433741 267.28112048 178.53339306 268.61377668 C178.52993888 274.75156983 178.53576996 280.88931404 178.54518127 287.02709961 C178.55639791 294.50670378 178.55336832 301.98614002 178.5320583 309.46572495 C178.52154329 313.28220614 178.51743352 317.09840733 178.53065491 320.91488647 C178.54476667 325.05092348 178.52792113 329.18625303 178.50793457 333.32226562 C178.5213189 335.13422047 178.5213189 335.13422047 178.53497362 336.98278046 C178.45872948 345.08888463 177.41288718 348.60402776 171.64169312 354.34661865 C165.84667826 356.97763921 160.00071305 356.52190467 153.73291016 356.45410156 C152.27391593 356.45297244 150.81491942 356.45360821 149.35592651 356.45587158 C145.40579422 356.45701715 141.45614982 356.43353381 137.5061307 356.40557575 C133.37417876 356.38053559 129.24221508 356.37821804 125.11019897 356.37347412 C117.29044558 356.361052 109.47091643 356.32824082 101.65126169 356.28807616 C92.74684967 356.24333461 83.84242683 356.22136543 74.93793035 356.20129442 C56.62513402 356.15950739 38.312645 356.08616468 20 356 C21.98 371.51 23.96 387.02 26 403 C38.23536493 403.17028582 38.23536493 403.17028582 50.47119141 403.29785156 C52.01467846 403.32723928 53.55813904 403.35806828 55.1015625 403.390625 C56.28625122 403.39231689 56.28625122 403.39231689 57.49487305 403.39404297 C62.76726963 403.52961416 65.88047757 404.42631243 70 408 C74.54282076 413.09220276 74.58891916 417.49973908 74.53125 424 C74.5350769 424.95390625 74.53890381 425.9078125 74.54284668 426.890625 C74.54556036 428.90105245 74.53823737 430.91151553 74.52148438 432.921875 C74.50006709 435.99038787 74.52130466 439.05655952 74.546875 442.125 C74.54423163 444.08333848 74.53910645 446.0416755 74.53125 448 C74.53934692 448.91265625 74.54744385 449.8253125 74.55578613 450.765625 C74.474444 456.32079872 73.84199474 459.69337704 70 464 C64.93301923 468.18485595 61.25516414 468.57517783 54.96679688 468.50793457 C53.61788486 468.51729451 53.61788486 468.51729451 52.24172211 468.52684355 C49.23379662 468.54277553 46.22668125 468.53016834 43.21875 468.51757812 C41.06013517 468.52299914 38.90152404 468.53012168 36.74291992 468.53881836 C30.88346286 468.55705693 25.02428744 468.54998182 19.16482544 468.53730202 C13.03370401 468.52717721 6.90260675 468.53656626 0.77148438 468.54284668 C-9.52478364 468.55012457 -19.8209369 468.54053157 -30.1171875 468.52148438 C-42.02221117 468.49971546 -53.92696082 468.50676672 -65.83197784 468.52879 C-76.0520894 468.54693986 -86.27211844 468.54950431 -96.49224091 468.53903532 C-102.59684236 468.53279816 -108.70131501 468.53197101 -114.8059082 468.54518127 C-120.54500154 468.55673301 -126.28374148 468.54872601 -132.02279663 468.52560425 C-134.12950046 468.5203136 -136.23623401 468.52183698 -138.34292603 468.53065491 C-141.21795162 468.54157965 -144.09184358 468.52788354 -146.96679688 468.50793457 C-148.21845516 468.5213189 -148.21845516 468.5213189 -149.49539948 468.53497362 C-154.7979283 468.46356759 -157.77807525 467.4869181 -162 464 C-166.54282076 458.90779724 -166.58891916 454.50026092 -166.53125 448 C-166.53699036 446.56914063 -166.53699036 446.56914063 -166.54284668 445.109375 C-166.54556036 443.09894755 -166.53823737 441.08848447 -166.52148438 439.078125 C-166.50006709 436.00961213 -166.52130466 432.94344048 -166.546875 429.875 C-166.54423163 427.91666152 -166.53910645 425.9583245 -166.53125 424 C-166.53934692 423.08734375 -166.54744385 422.1746875 -166.55578613 421.234375 C-166.474444 415.67920128 -165.84199474 412.30662296 -162 408 C-157.13370385 403.77848588 -153.26096571 403.39942145 -147.1015625 403.390625 C-146.36059326 403.37499512 -145.61962402 403.35936523 -144.85620117 403.34326172 C-142.11278856 403.29102764 -139.36881792 403.27245838 -136.625 403.25 C-130.47875 403.1675 -124.3325 403.085 -118 403 C-116.02 387.49 -114.04 371.98 -112 356 C-116.45193848 356.02094727 -120.90387695 356.04189453 -125.49072266 356.06347656 C-140.1869559 356.12970527 -154.88319496 356.17412268 -169.57953835 356.20724869 C-178.49141676 356.22787042 -187.40315376 356.25598356 -196.31494141 356.30175781 C-204.08282579 356.34163752 -211.85060775 356.36743564 -219.61859167 356.37635398 C-223.73139778 356.38156683 -227.8439109 356.39381064 -231.95662308 356.42292023 C-235.82917108 356.4501074 -239.7013059 356.45843843 -243.57394028 356.45243073 C-244.99371843 356.4535295 -246.41351066 356.46146408 -247.83320618 356.4768219 C-258.70350575 356.58862714 -258.70350575 356.58862714 -263.64169312 354.34661865 C-269.41288718 348.60402776 -270.45872948 345.08888463 -270.53497362 336.98278046 C-270.52605073 335.77481056 -270.51712785 334.56684067 -270.50793457 333.32226562 C-270.51417453 332.03096992 -270.5204145 330.73967422 -270.52684355 329.40924835 C-270.54353081 325.83134894 -270.53529356 322.25387668 -270.52289867 318.6759758 C-270.51384792 314.81496039 -270.52781801 310.9540184 -270.53881836 307.09301758 C-270.55660795 299.5318362 -270.55276167 291.97081362 -270.5411678 284.40962601 C-270.53213547 278.26468858 -270.5309086 272.11979567 -270.53526306 265.97485352 C-270.53587599 265.10038464 -270.53648893 264.22591577 -270.53712043 263.32494783 C-270.53839933 261.54849941 -270.53969618 259.772051 -270.5410108 257.99560261 C-270.55241788 241.33653372 -270.53930088 224.67755287 -270.51780933 208.01849842 C-270.49993823 193.72322569 -270.5030423 179.42808289 -270.52148438 165.1328125 C-270.54288883 148.53349417 -270.55131923 131.934253 -270.53903532 115.33492279 C-270.53776112 113.56499737 -270.53650364 111.79507193 -270.53526306 110.02514648 C-270.53464596 109.15430184 -270.53402886 108.28345719 -270.53339306 107.38622332 C-270.52993888 101.24843017 -270.53576996 95.11068596 -270.54518127 88.97290039 C-270.55639791 81.49329622 -270.55336832 74.01385998 -270.5320583 66.53427505 C-270.52154329 62.71779386 -270.51743352 58.90159267 -270.53065491 55.08511353 C-270.54476667 50.94907652 -270.52792113 46.81374697 -270.50793457 42.67773438 C-270.51685746 41.46976448 -270.52578034 40.26179459 -270.53497362 39.01721954 C-270.45870782 30.90881218 -269.41976699 27.37961089 -263.62327576 21.65118408 C-257.91456512 19.04963433 -252.2039867 19.49812665 -246.02758789 19.58105469 C-244.59965957 19.5854208 -243.17172447 19.58790984 -241.74378967 19.58866882 C-238.67602158 19.5936466 -235.60863397 19.61055247 -232.54097176 19.63640594 C-227.68678541 19.67592303 -222.83294696 19.68067058 -217.97862244 19.67926025 C-204.17768025 19.68052951 -190.37710211 19.7283275 -176.57641602 19.81103516 C-168.94863422 19.85644161 -161.32131801 19.87307536 -153.69340891 19.85905957 C-148.87086975 19.85192989 -144.05029991 19.88056786 -139.22809422 19.9359746 C-136.22402291 19.96211219 -133.22071432 19.95475215 -130.21660423 19.93808937 C-128.82784171 19.93706104 -127.43898909 19.94966237 -126.05049896 19.9771862 C-118.39701324 20.28049937 -118.39701324 20.28049937 -111.66010857 17.23535919 C-109.90505955 15.23878837 -108.45341432 13.2203653 -107 11 C-77.90334158 -16.5199922 -33.95496885 -19.44964444 0 0 Z M-61 6 C-59.83816513 8.51730889 -58.69651036 10.36148488 -56.89453125 12.5078125 C-53.73797128 18.32629625 -54.59617616 24.56704762 -54.77539062 31.05859375 C-54.88151869 36.95523536 -54.88151869 36.95523536 -52.42114258 42.109375 C-51.470177 43.04136719 -51.470177 43.04136719 -50.5 43.9921875 C-47.21559913 47.22179956 -46.45107692 49.28442289 -46.17578125 53.890625 C-46.18498834 56.0108865 -46.23130793 58.13127363 -46.3125 60.25 C-46.31056641 61.32507813 -46.30863281 62.40015625 -46.30664062 63.5078125 C-46.44807423 71.33055421 -46.44807423 71.33055421 -48.77148438 74.14868164 C-50.88443893 75.90399873 -52.99491061 77.47721622 -55.29296875 78.98046875 C-56.08767578 79.50447266 -56.88238281 80.02847656 -57.70117188 80.56835938 C-58.9319043 81.36983398 -58.9319043 81.36983398 -60.1875 82.1875 C-61.82741714 83.26341775 -63.46677112 84.34019452 -65.10546875 85.41796875 C-65.82887451 85.89000732 -66.55228027 86.3620459 -67.29760742 86.84838867 C-68.95300662 87.88984358 -68.95300662 87.88984358 -70 89 C-70.04080783 90.99958364 -70.04254356 93.00045254 -70 95 C-69.00097656 95.48210937 -68.00195312 95.96421875 -66.97265625 96.4609375 C-65.66911549 97.09864089 -64.36573849 97.73667911 -63.0625 98.375 C-62.0734668 98.85066406 -62.0734668 98.85066406 -61.06445312 99.3359375 C-56.11328125 101.7734375 -56.11328125 101.7734375 -55 104 C-54.7312662 107.97359569 -54.76842295 111.95583892 -54.75 115.9375 C-54.729375 117.04802734 -54.70875 118.15855469 -54.6875 119.30273438 C-54.67976563 120.89891602 -54.67976563 120.89891602 -54.671875 122.52734375 C-54.65785645 123.99288696 -54.65785645 123.99288696 -54.64355469 125.48803711 C-55 128 -55 128 -56.07836914 129.81005859 C-59.02575921 131.63518617 -61.63490673 131.44152871 -65.07421875 131.51171875 C-65.7580513 131.52966995 -66.44188385 131.54762115 -67.1464386 131.56611633 C-69.32673 131.62022075 -71.50680256 131.6541134 -73.6875 131.6875 C-75.16734817 131.7206732 -76.64716745 131.75516287 -78.12695312 131.79101562 C-81.75109169 131.87594524 -85.37530652 131.94275635 -89 132 C-85.25461323 135.89561778 -81.79461487 138.44199552 -76.875 140.625 C-76.21266357 140.92422363 -75.55032715 141.22344727 -74.86791992 141.53173828 C-65.37437157 145.71463584 -56.35592454 147.47587816 -46 148 C-46.00636475 147.43603516 -46.01272949 146.87207031 -46.01928711 146.29101562 C-46.07526172 129.72253228 -46.07526172 129.72253228 -43.41015625 125.453125 C-42.14800809 124.32777409 -40.87069281 123.21918195 -39.578125 122.12890625 C-36.86112635 118.46364817 -37.2355319 113.95589147 -37.26367188 109.54394531 C-37.2686395 104.37513411 -37.2686395 104.37513411 -35.79907227 102.32299805 C-30.26793094 98.25551876 -19.45611589 99.90522866 -12.94384766 100.45263672 C-6.34452288 101.67967986 -1.93219098 105.8543096 2.59082031 110.55615234 C4.9175769 112.94015069 7.3419615 114.98622291 10 117 C10.99 117 11.98 117 13 117 C14.29761299 114.62808416 15.58816317 112.25275386 16.875 109.875 C17.42220703 108.87726563 17.42220703 108.87726563 17.98046875 107.859375 C20.80574849 102.6197653 23 98.07336946 23 92 C22.33282959 92.01160156 21.66565918 92.02320312 20.97827148 92.03515625 C4.55475291 92.19233254 -13.59900767 91.3318897 -27.75073242 81.82373047 C-29.73307257 78.92983152 -29.38946649 76.27445593 -29.3984375 72.8125 C-29.40130768 72.11358643 -29.40417786 71.41467285 -29.40713501 70.69458008 C-29.40917425 69.21857899 -29.40365403 67.74255079 -29.39111328 66.26660156 C-29.3750558 64.00784862 -29.3909647 61.75088482 -29.41015625 59.4921875 C-29.40817379 58.05728772 -29.40433006 56.62238905 -29.3984375 55.1875 C-29.39505371 53.88167969 -29.39166992 52.57585937 -29.38818359 51.23046875 C-29 48 -29 48 -27.65527344 46.11816406 C-25.24876425 44.49252807 -22.60068625 43.7351878 -19.875 42.75 C-16.56547459 41.3322943 -16.56547459 41.3322943 -14 39 C-13.01288804 35.11824892 -12.99938299 31.72430287 -13.06640625 27.7265625 C-12.97810475 22.77129014 -11.4619377 19.22537214 -9 15 C-26.1948948 5.71577426 -41.49486507 2.50869626 -61 6 Z M-96.75 25.25 C-111.21762769 40.33590238 -117.82869722 58.58145701 -117.44360352 79.28149414 C-117.33175617 82.19070743 -117.17014495 85.09369874 -117 88 C-116.98259766 88.79647949 -116.96519531 89.59295898 -116.94726562 90.41357422 C-116.73843322 95.65874819 -115.8090015 100.16345079 -112 104 C-99.24466175 112.48023461 -85.27503431 117.05274478 -70 116 C-70 115.01 -70 114.02 -70 113 C-70.99902344 112.51789063 -71.99804688 112.03578125 -73.02734375 111.5390625 C-74.33088451 110.90135911 -75.63426151 110.26332089 -76.9375 109.625 C-77.9265332 109.14933594 -77.9265332 109.14933594 -78.93554688 108.6640625 C-83.88671875 106.2265625 -83.88671875 106.2265625 -85 104 C-85.29557554 100.04784924 -85.2779886 96.08690877 -85.3125 92.125 C-85.34150391 91.02285156 -85.37050781 89.92070313 -85.40039062 88.78515625 C-85.40876953 87.72425781 -85.41714844 86.66335937 -85.42578125 85.5703125 C-85.44036377 84.59852051 -85.45494629 83.62672852 -85.4699707 82.62548828 C-84.72536475 78.46575196 -82.1855942 76.87323866 -78.90942383 74.46020508 C-78.18263428 73.98478271 -77.45584473 73.50936035 -76.70703125 73.01953125 C-75.91232422 72.49552734 -75.11761719 71.97152344 -74.29882812 71.43164062 C-73.0680957 70.63016602 -73.0680957 70.63016602 -71.8125 69.8125 C-70.17258286 68.73658225 -68.53322888 67.65980548 -66.89453125 66.58203125 C-65.80942261 65.87397339 -65.80942261 65.87397339 -64.70239258 65.15161133 C-63.04699338 64.11015642 -63.04699338 64.11015642 -62 63 C-61.32825825 59.79767901 -61.32825825 59.79767901 -62 56 C-63.57719947 54.23816096 -63.57719947 54.23816096 -65.50390625 52.52734375 C-70.27346705 47.30305019 -69.69818856 42.38733167 -69.4375 35.625 C-69.2676912 25.2825391 -69.2676912 25.2825391 -73.9375 16.4375 C-81.55763377 8.90034409 -90.66940192 19.38806796 -96.75 25.25 Z M4 26 C2.38579739 28.85750429 1.74792675 30.94853055 1.69140625 34.22265625 C1.66626953 35.00833984 1.64113281 35.79402344 1.61523438 36.60351562 C1.57999608 38.2466641 1.54876445 39.88990326 1.52148438 41.53320312 C1.49505859 42.31759766 1.46863281 43.10199219 1.44140625 43.91015625 C1.42122437 44.97955444 1.42122437 44.97955444 1.40063477 46.07055664 C0.88307069 48.56312757 -0.04476508 49.41111922 -2 51 C-5.92726915 53.16078664 -9.96289256 55.04656092 -14 57 C-14 61.29 -14 65.58 -14 70 C-0.69910886 75.45677585 10.67687002 76.76277024 25 76 C26.03996657 58.66857261 19.72612145 43.24012437 8.83203125 29.9609375 C6.96190557 27.80899141 6.96190557 27.80899141 4 26 Z M-254 36 C-254 136.32 -254 236.64 -254 340 C-116.72 340 20.56 340 162 340 C162 239.68 162 139.36 162 36 C119.43 36 76.86 36 33 36 C34.98 41.28 36.96 46.56 39 52 C40.20189972 52.00364563 41.40379944 52.00729126 42.64212036 52.01104736 C53.971845 52.04799711 65.30129783 52.10576982 76.63081551 52.18390274 C82.45538583 52.22340282 88.27980438 52.25557903 94.10449219 52.27099609 C99.72622302 52.28614578 105.3475367 52.3205619 110.96908188 52.36830902 C113.11322274 52.38314014 115.25742315 52.391042 117.40161514 52.39188385 C120.40637884 52.39424998 123.40998641 52.42130207 126.41455078 52.45410156 C127.74272575 52.44655602 127.74272575 52.44655602 129.09773254 52.43885803 C134.52214625 52.53039967 137.77312122 53.27939781 142 57 C145.5315776 61.49730285 145.42696768 65.43918672 145.38768005 70.91294861 C145.39575836 72.26057898 145.39575836 72.26057898 145.40399987 73.63543421 C145.41830906 76.64633695 145.41116836 79.65680188 145.40405273 82.66772461 C145.40975474 84.82619074 145.41671834 86.98465384 145.42485046 89.14311218 C145.44281552 95.0067117 145.44160718 100.87016184 145.43590808 106.73378062 C145.43282111 111.62708828 145.43890319 116.52036705 145.44494683 121.4136706 C145.45900141 132.95638746 145.45742294 144.49903032 145.44604492 156.04174805 C145.43456208 167.9541267 145.44864018 179.86628026 145.4754414 191.77862924 C145.49758445 202.00295917 145.50423893 212.22721837 145.49836498 222.45157057 C145.49499097 228.55954951 145.49744013 234.66738414 145.51461601 240.77534294 C145.53006077 246.51851213 145.5261568 252.26134737 145.50731087 258.00450325 C145.50361819 260.1128241 145.50675312 262.22116956 145.51719666 264.32946777 C145.53036157 267.20672144 145.51889872 270.08286221 145.50120544 272.96006775 C145.51081045 273.79518873 145.52041546 274.6303097 145.53031152 275.49073738 C145.46343185 280.77342027 144.59138464 283.87124055 141 288 C137.14556121 290.80985007 134.45230424 291.37588872 129.71679783 291.38031673 C128.44258679 291.38875668 127.16837575 291.39719662 125.85555226 291.40589231 C124.44378518 291.40009721 123.03201926 291.39401619 121.62025452 291.38768005 C120.11878401 291.39185262 118.61731665 291.39732971 117.11585516 291.40399987 C112.98850003 291.4184834 108.86134409 291.41420072 104.73397791 291.40683305 C100.28331084 291.40211086 95.83268746 291.4146028 91.3820343 291.42485046 C82.66235829 291.44206237 73.94275427 291.44287354 65.22306568 291.43763756 C58.13703449 291.43359913 51.0510246 291.43503552 43.96499443 291.44038582 C42.45326187 291.44150845 42.45326187 291.44150845 40.91098927 291.44265376 C38.86372332 291.44418521 36.81645737 291.44572356 34.76919144 291.44726873 C15.56258482 291.46100238 -3.64398109 291.45554997 -22.85058678 291.44408352 C-40.42874144 291.43414985 -58.00679086 291.4470926 -75.58492928 291.47101771 C-93.6269055 291.49538945 -111.66883267 291.50502135 -129.71082503 291.49836498 C-139.84295783 291.49486853 -149.97500967 291.49713294 -160.10713005 291.51461601 C-168.73225419 291.52931392 -177.35724036 291.53000506 -185.98236173 291.5125451 C-190.38413042 291.50401286 -194.7856524 291.50193958 -199.18740845 291.51719666 C-203.21605568 291.53098778 -207.24424353 291.52635301 -211.27286381 291.50695742 C-212.73108735 291.50317988 -214.18934719 291.50616966 -215.64753854 291.51656907 C-217.62864162 291.52969427 -219.60986865 291.51579892 -221.59095669 291.50057125 C-222.6917136 291.50046391 -223.79247052 291.50035658 -224.92658371 291.50024599 C-229.63526673 290.73383507 -232.80535724 288.41550854 -235.85077 284.80705929 C-237.46887084 280.85475645 -237.41806215 277.32004732 -237.38768005 273.08705139 C-237.39306559 272.18863114 -237.39845113 271.29021089 -237.40399987 270.36456579 C-237.41830906 267.35366305 -237.41116836 264.34319812 -237.40405273 261.33227539 C-237.40975474 259.17380926 -237.41671834 257.01534616 -237.42485046 254.85688782 C-237.44281552 248.9932883 -237.44160718 243.12983816 -237.43590808 237.26621938 C-237.43282111 232.37291172 -237.43890319 227.47963295 -237.44494683 222.5863294 C-237.45900141 211.04361254 -237.45742294 199.50096968 -237.44604492 187.95825195 C-237.43456208 176.0458733 -237.44864018 164.13371974 -237.4754414 152.22137076 C-237.49758445 141.99704083 -237.50423893 131.77278163 -237.49836498 121.54842943 C-237.49499097 115.44045049 -237.49744013 109.33261586 -237.51461601 103.22465706 C-237.53006077 97.48148787 -237.5261568 91.73865263 -237.50731087 85.99549675 C-237.50361819 83.8871759 -237.50675312 81.77883044 -237.51719666 79.67053223 C-237.53036157 76.79327856 -237.51889872 73.91713779 -237.50120544 71.03993225 C-237.51081045 70.20481127 -237.52041546 69.3696903 -237.53031152 68.50926262 C-237.46317919 63.20662305 -236.48519327 60.22571144 -233 56 C-228.59859463 52.23091911 -224.04819123 52.55871643 -218.52807617 52.56762695 C-217.58124969 52.5574353 -216.63442322 52.54724365 -215.65890503 52.53674316 C-212.53686612 52.50660732 -209.41513402 52.49734618 -206.29296875 52.48828125 C-204.12534057 52.47143503 -201.95772217 52.45328487 -199.79011536 52.43388367 C-194.09049534 52.38637153 -188.39091494 52.35656987 -182.69116211 52.33044434 C-176.87280451 52.30064507 -171.05458345 52.25411252 -165.23632812 52.20898438 C-153.82429015 52.12293735 -142.41222409 52.05559815 -131 52 C-129.02 46.72 -127.04 41.44 -125 36 C-167.57 36 -210.14 36 -254 36 Z M-222 68 C-222 136.64 -222 205.28 -222 276 C-208.8 276 -195.6 276 -182 276 C-182 249.6 -182 223.2 -182 196 C-185.96 195.67 -189.92 195.34 -194 195 C-197 192 -197 192 -197.625 188.3125 C-197.18392802 179.12126238 -184.69310804 170.54039168 -178.47338867 164.34301758 C-176.67052659 162.54557764 -174.87315015 160.74277339 -173.07617188 158.93945312 C-171.93000853 157.79394953 -170.78353558 156.64875561 -169.63671875 155.50390625 C-169.10028244 154.96544571 -168.56384613 154.42698517 -168.01115417 153.87220764 C-164.66009421 150.54236743 -163.11592496 149.15392068 -158.375 148.5 C-149.159568 148.70969736 -140.53480818 161.31249559 -134.34301758 167.52661133 C-132.54557764 169.32947341 -130.74277339 171.12684985 -128.93945312 172.92382812 C-127.79394953 174.06999147 -126.64875561 175.21646442 -125.50390625 176.36328125 C-124.96544571 176.89971756 -124.42698517 177.43615387 -123.87220764 177.98884583 C-119.69788235 182.18977243 -118.89513617 184.05510755 -118.671875 190.02734375 C-119 192 -119 192 -122 195 C-127.94 195.495 -127.94 195.495 -134 196 C-134 222.4 -134 248.8 -134 276 C-112.88 276 -91.76 276 -70 276 C-70 260.16 -70 244.32 -70 228 C-73.96 227.67 -77.92 227.34 -82 227 C-85 224 -85 224 -85.625 220.3125 C-85.18392802 211.12126238 -72.69310804 202.54039168 -66.47338867 196.34301758 C-64.67052659 194.54557764 -62.87315015 192.74277339 -61.07617188 190.93945312 C-59.93000853 189.79394953 -58.78353558 188.64875561 -57.63671875 187.50390625 C-57.10028244 186.96544571 -56.56384613 186.42698517 -56.01115417 185.87220764 C-52.66009421 182.54236743 -51.11592496 181.15392068 -46.375 180.5 C-37.159568 180.70969736 -28.53480818 193.31249559 -22.34301758 199.52661133 C-20.54557764 201.32947341 -18.74277339 203.12684985 -16.93945312 204.92382812 C-15.79394953 206.06999147 -14.64875561 207.21646442 -13.50390625 208.36328125 C-12.69621544 209.16793571 -12.69621544 209.16793571 -11.87220764 209.98884583 C-7.69788235 214.18977243 -6.89513617 216.05510755 -6.671875 222.02734375 C-7 224 -7 224 -10 227 C-13.96 227.33 -17.92 227.66 -22 228 C-22 243.84 -22 259.68 -22 276 C-0.88 276 20.24 276 42 276 C42 249.6 42 223.2 42 196 C36.06 195.505 36.06 195.505 30 195 C27 192 27 192 26.375 188.3125 C26.81607198 179.12126238 39.30689196 170.54039168 45.52661133 164.34301758 C47.32947341 162.54557764 49.12684985 160.74277339 50.92382812 158.93945312 C52.06999147 157.79394953 53.21646442 156.64875561 54.36328125 155.50390625 C55.16793571 154.69621544 55.16793571 154.69621544 55.98884583 153.87220764 C59.33990579 150.54236743 60.88407504 149.15392068 65.625 148.5 C74.840432 148.70969736 83.46519182 161.31249559 89.65698242 167.52661133 C91.45442236 169.32947341 93.25722661 171.12684985 95.06054688 172.92382812 C96.20605047 174.06999147 97.35124439 175.21646442 98.49609375 176.36328125 C99.03455429 176.89971756 99.57301483 177.43615387 100.12779236 177.98884583 C104.30211765 182.18977243 105.10486383 184.05510755 105.328125 190.02734375 C105 192 105 192 102 195 C96.06 195.495 96.06 195.495 90 196 C90 222.4 90 248.8 90 276 C103.2 276 116.4 276 130 276 C130 207.36 130 138.72 130 68 C100.96 68 71.92 68 42 68 C41.67 75.26 41.34 82.52 41 90 C36.73140787 112.87965381 24.59485487 134.68669588 5.109375 148.08984375 C-16.94763994 161.63994464 -42.44927427 167.46345383 -68.125 161.5 C-88.90557844 156.12854529 -108.7828736 142.2593714 -120 124 C-130.60246051 105.464161 -133.00692911 89.84755955 -134 68 C-163.04 68 -192.08 68 -222 68 Z M-22 116 C-21.99097656 116.7734375 -21.98195313 117.546875 -21.97265625 118.34375 C-22.18177056 125.69002649 -23.23280089 128.95973046 -28.4765625 134.04296875 C-30.81018141 137.04077151 -30.54950902 139.64674817 -30.24609375 143.3125 C-30.16488281 143.869375 -30.08367187 144.42625 -30 145 C-24.28414545 144.49390871 -20.06450807 142.88897738 -15 140.25 C-14.32710937 139.91484375 -13.65421875 139.5796875 -12.9609375 139.234375 C-8.31498673 136.86655453 -4.18135255 134.11423654 0 131 C-3.53096774 127.39763401 -7.16763201 123.97030253 -11 120.6875 C-11.50789063 120.23310547 -12.01578125 119.77871094 -12.5390625 119.31054688 C-15.03001763 117.18684795 -16.57539614 116.04326806 -19.875 115.70703125 C-20.57625 115.80371094 -21.2775 115.90039062 -22 116 Z M-161.6015625 171.40625 C-162.61447542 172.43249072 -163.62208127 173.46399005 -164.625 174.5 C-165.140625 175.02464844 -165.65625 175.54929688 -166.1875 176.08984375 C-167.46284932 177.38881065 -168.73201261 178.69384577 -170 180 C-169.51391769 180.47644958 -169.02783539 180.95289917 -168.52702332 181.44378662 C-166.32112575 185.13642498 -166.56053388 188.71853384 -166.56762695 192.89941406 C-166.5574353 193.79732666 -166.54724365 194.69523926 -166.53674316 195.62036133 C-166.50657144 198.58551235 -166.49734079 201.55034053 -166.48828125 204.515625 C-166.47143768 206.57258176 -166.45328787 208.6295282 -166.43388367 210.6864624 C-166.38634274 216.09839658 -166.35655977 221.51028895 -166.33044434 226.92236328 C-166.30065953 232.44572203 -166.25412205 237.96893665 -166.20898438 243.4921875 C-166.12290464 254.32804967 -166.05558005 265.16394147 -166 276 C-160.72 276 -155.44 276 -150 276 C-149.99413376 274.85629944 -149.98826752 273.71259888 -149.98222351 272.53424072 C-149.92504452 261.76312977 -149.85230817 250.99222165 -149.76428509 240.22131729 C-149.71953145 234.68369243 -149.68028629 229.146142 -149.65356445 223.60839844 C-149.62758138 218.26552945 -149.58721433 212.92294611 -149.53681374 207.5802536 C-149.5201112 205.54052021 -149.50861807 203.50073738 -149.50238609 201.46094513 C-149.49278188 198.60679583 -149.46476668 195.75338291 -149.43237305 192.89941406 C-149.43380814 192.05352722 -149.43524323 191.20764038 -149.4367218 190.33612061 C-149.36674633 185.9851639 -149.1948494 183.13153689 -146 180 C-147.78572252 178.16052663 -149.57802449 176.32842259 -151.375 174.5 C-151.88289063 173.97535156 -152.39078125 173.45070312 -152.9140625 172.91015625 C-154.23832604 171.56846819 -155.61605865 170.28004185 -157 169 C-159.34591609 168.77366257 -159.34591609 168.77366257 -161.6015625 171.40625 Z M62.3984375 171.40625 C61.38552458 172.43249072 60.37791873 173.46399005 59.375 174.5 C58.859375 175.02464844 58.34375 175.54929688 57.8125 176.08984375 C56.53715068 177.38881065 55.26798739 178.69384577 54 180 C54.48608231 180.47644958 54.97216461 180.95289917 55.47297668 181.44378662 C57.67887425 185.13642498 57.43946612 188.71853384 57.43237305 192.89941406 C57.4425647 193.79732666 57.45275635 194.69523926 57.46325684 195.62036133 C57.49342856 198.58551235 57.50265921 201.55034053 57.51171875 204.515625 C57.52856232 206.57258176 57.54671213 208.6295282 57.56611633 210.6864624 C57.61365726 216.09839658 57.64344023 221.51028895 57.66955566 226.92236328 C57.69934047 232.44572203 57.74587795 237.96893665 57.79101562 243.4921875 C57.87709536 254.32804967 57.94441995 265.16394147 58 276 C63.28 276 68.56 276 74 276 C74.00586624 274.85629944 74.01173248 273.71259888 74.01777649 272.53424072 C74.07495548 261.76312977 74.14769183 250.99222165 74.23571491 240.22131729 C74.28046855 234.68369243 74.31971371 229.146142 74.34643555 223.60839844 C74.37241862 218.26552945 74.41278567 212.92294611 74.46318626 207.5802536 C74.4798888 205.54052021 74.49138193 203.50073738 74.49761391 201.46094513 C74.50721812 198.60679583 74.53523332 195.75338291 74.56762695 192.89941406 C74.56619186 192.05352722 74.56475677 191.20764038 74.5632782 190.33612061 C74.63325367 185.9851639 74.8051506 183.13153689 78 180 C76.21427748 178.16052663 74.42197551 176.32842259 72.625 174.5 C72.11710937 173.97535156 71.60921875 173.45070312 71.0859375 172.91015625 C69.76167396 171.56846819 68.38394135 170.28004185 67 169 C64.65408391 168.77366257 64.65408391 168.77366257 62.3984375 171.40625 Z M-49.6015625 203.40625 C-50.61447542 204.43249072 -51.62208127 205.46399005 -52.625 206.5 C-53.140625 207.02464844 -53.65625 207.54929688 -54.1875 208.08984375 C-55.46284932 209.38881065 -56.73201261 210.69384577 -58 212 C-57.27087654 212.80555328 -57.27087654 212.80555328 -56.52702332 213.62738037 C-54.61180451 216.60316056 -54.60463694 218.43856356 -54.56762695 221.96191406 C-54.54783279 223.16285706 -54.52803864 224.36380005 -54.50764465 225.60113525 C-54.49805977 227.53880768 -54.49805977 227.53880768 -54.48828125 229.515625 C-54.47142992 230.85513961 -54.45327906 232.19463846 -54.43388367 233.53411865 C-54.38642604 237.05215527 -54.35658972 240.57012795 -54.33044434 244.08837891 C-54.30061711 247.68144355 -54.2540943 251.27428797 -54.20898438 254.8671875 C-54.12299972 261.91134618 -54.05717701 268.95554001 -54 276 C-48.72 276 -43.44 276 -38 276 C-37.98541748 274.20336914 -37.97083496 272.40673828 -37.95581055 270.55566406 C-37.90414241 264.6163195 -37.83885216 258.67725535 -37.76428509 252.73816299 C-37.71957747 249.13763929 -37.68032259 245.53722883 -37.65356445 241.93652344 C-37.62753479 238.46092359 -37.58713579 234.98575943 -37.53681374 231.51042938 C-37.51203501 229.54076478 -37.50209914 227.57093161 -37.49235535 225.60113525 C-37.47256119 224.40019226 -37.45276703 223.19924927 -37.43237305 221.96191406 C-37.42126999 220.90490295 -37.41016693 219.84789185 -37.39872742 218.7588501 C-36.95287838 215.67395902 -36.06789752 214.28466335 -34 212 C-35.78572252 210.16052663 -37.57802449 208.32842259 -39.375 206.5 C-39.88289063 205.97535156 -40.39078125 205.45070312 -40.9140625 204.91015625 C-42.23832604 203.56846819 -43.61605865 202.28004185 -45 201 C-47.34591609 200.77366257 -47.34591609 200.77366257 -49.6015625 203.40625 Z M-95 357 C-95.44672963 359.86707079 -95.83755123 362.72260692 -96.19140625 365.6015625 C-96.30097153 366.47138763 -96.4105368 367.34121277 -96.52342224 368.23739624 C-96.75495963 370.0849201 -96.98430973 371.93271916 -97.21166992 373.78076172 C-97.55854839 376.59296367 -97.91449719 379.40390935 -98.27148438 382.21484375 C-98.49534358 384.01034794 -98.71866764 385.80591895 -98.94140625 387.6015625 C-99.04763809 388.43724762 -99.15386993 389.27293274 -99.26332092 390.13394165 C-99.36019699 390.93101532 -99.45707306 391.72808899 -99.55688477 392.54931641 C-99.64269302 393.24135162 -99.72850128 393.93338684 -99.81690979 394.64639282 C-100.0587687 397.75546606 -100 400.88153369 -100 404 C-64.36 404 -28.72 404 8 404 C7.25332871 392.23931527 7.25332871 392.23931527 6.0625 380.5703125 C5.97750244 379.88363495 5.89250488 379.1969574 5.80493164 378.48947144 C5.62889845 377.07653833 5.45078601 375.66386259 5.27050781 374.25146484 C4.99409346 372.07856865 4.72720083 369.9046299 4.4609375 367.73046875 C4.2870125 366.34368039 4.11255488 364.95695869 3.9375 363.5703125 C3.78152344 362.33039551 3.62554687 361.09047852 3.46484375 359.81298828 C3.2975813 357.10346122 3.2975813 357.10346122 2 356 C-0.9776137 355.8993873 -3.93207167 355.86385107 -6.91015625 355.87060547 C-7.84503876 355.86885315 -8.77992126 355.86710083 -9.74313354 355.86529541 C-12.84960762 355.86087526 -15.95602529 355.86381546 -19.0625 355.8671875 C-21.21101899 355.86651451 -23.35953791 355.86554452 -25.50805664 355.86428833 C-30.01742272 355.86281114 -34.52676903 355.86496661 -39.03613281 355.86962891 C-44.83048577 355.8753262 -50.62479242 355.87204731 -56.41914368 355.86605644 C-60.85762891 355.86245141 -65.29610307 355.86358915 -69.73458862 355.86618423 C-71.87173467 355.86685366 -74.00888171 355.86602453 -76.14602661 355.86370468 C-79.12732626 355.8611791 -82.1085498 355.86501741 -85.08984375 355.87060547 C-85.98234833 355.86858124 -86.87485291 355.86655701 -87.79440308 355.86447144 C-91.71095163 355.48788391 -91.71095163 355.48788391 -95 357 Z M-150 420 C-150 430.56 -150 441.12 -150 452 C-81.36 452 -12.72 452 58 452 C58 441.44 58 430.88 58 420 C-10.64 420 -79.28 420 -150 420 Z " fill="#F07D37" transform="translate(302,28)"/>
<path d="M0 0 C5.28 0 10.56 0 16 0 C16 5.28 16 10.56 16 16 C10.72 16 5.44 16 0 16 C0 10.72 0 5.44 0 0 Z " fill="#ED643C" transform="translate(400,336)"/>
</svg>
