<?xml version="1.0" encoding="UTF-8"?>
<svg version="1.1" xmlns="http://www.w3.org/2000/svg" width="512" height="512">
<path d="M0 0 C1.52380783 0.6713649 1.52380783 0.6713649 3.07839966 1.35629272 C5.27646847 2.32689307 7.47123793 3.30499277 9.66299438 4.2897644 C15.00392139 6.68923464 20.36460921 9.0437145 25.72233391 11.40537453 C27.5869905 12.22829273 29.45067098 13.05338519 31.31410217 13.8790741 C42.80200989 18.96648608 54.35157974 23.90448295 65.91912842 28.80780029 C71.51177824 31.17861651 77.10144483 33.55644737 82.69140625 35.93359375 C83.80949677 36.40888519 84.92758728 36.88417664 86.07955933 37.37387085 C104.99510759 45.41747668 123.88485692 53.52156315 142.77125549 61.6333313 C148.93347138 64.27978256 155.09790436 66.92093484 161.26512146 69.55570984 C164.76832074 71.05339271 168.26966631 72.55536844 171.77047729 74.05862427 C173.35278071 74.73700095 174.93587066 75.4135465 176.51980591 76.08810425 C178.65208694 76.99649351 180.78143702 77.91142685 182.91015625 78.828125 C184.66924316 79.58089722 184.66924316 79.58089722 186.46386719 80.34887695 C189.11625681 81.62806684 191.25061407 82.80204813 193.42578125 84.77734375 C194.59220794 88.27662381 194.55463424 91.01543604 194.55949402 94.70967102 C194.56175958 95.41950062 194.56402513 96.12933021 194.56635934 96.86066979 C194.57270333 99.24607818 194.57186966 101.6314298 194.57104492 104.0168457 C194.57403663 105.72541375 194.57743918 107.43398113 194.58122253 109.14254761 C194.59007697 113.79452882 194.59240157 118.44649164 194.59303832 123.09848046 C194.59374932 126.01283665 194.59588484 128.92718817 194.59853554 131.8415432 C194.60780172 142.03360667 194.61186983 152.22565706 194.61108398 162.41772461 C194.61048652 171.87235325 194.62096958 181.32692422 194.63682765 190.78153831 C194.64999173 198.92455316 194.65526402 207.06754942 194.65462857 215.21057481 C194.65437568 220.06150375 194.65710827 224.91238172 194.66780663 229.76329994 C194.7654863 277.37748435 194.7654863 277.37748435 189.98828125 300.46484375 C189.78396484 301.51349609 189.57964844 302.56214844 189.36914062 303.64257812 C188.36499386 308.68208107 187.20523492 313.5698539 185.703125 318.484375 C182.72596193 329.45918753 187.36517311 339.49460108 190.80078125 349.90234375 C200.08785898 378.04026448 200.08785898 378.04026448 199.80078125 391.77734375 C199.78446655 392.90342041 199.78446655 392.90342041 199.76782227 394.05224609 C199.10686255 417.66222584 188.48393749 436.97628348 172.42578125 453.77734375 C171.52472656 454.79054688 171.52472656 454.79054688 170.60546875 455.82421875 C151.17859421 476.84897475 120.21940189 485.92076753 92.4609375 487.02734375 C75.83345931 487.39133841 60.40943878 484.93250132 44.46777344 480.31811523 C43.79391602 480.13966064 43.12005859 479.96120605 42.42578125 479.77734375 C41.22453613 479.44947876 41.22453613 479.44947876 39.99902344 479.11499023 C36.92628597 478.71180277 35.12509042 479.2393668 32.20703125 480.25390625 C31.2025293 480.59292969 30.19802734 480.93195313 29.16308594 481.28125 C28.09477539 481.65121094 27.02646484 482.02117187 25.92578125 482.40234375 C-17.61374802 496.85214386 -52.33026366 487.59808519 -92.89381409 467.31001282 C-107.90776026 459.69630431 -122.08027568 450.91673123 -134.99316406 440.09814453 C-136.56605136 438.78416673 -138.15750518 437.49619226 -139.75390625 436.2109375 C-152.57129087 425.7728044 -164.62647143 413.99511182 -174.57421875 400.77734375 C-175.04891602 400.15730469 -175.52361328 399.53726562 -176.01269531 398.8984375 C-214.83442508 347.97360468 -225.08656736 291.21612276 -225.01012683 228.65519953 C-225.00699378 224.68523369 -225.01317001 220.71530208 -225.01916558 216.74534118 C-225.03308456 207.3913951 -225.03174678 198.03754068 -225.02026367 188.68359375 C-225.00870088 179.05195459 -225.02302243 169.42059123 -225.04966015 159.78898823 C-225.07178959 151.47418968 -225.07846352 143.15947797 -225.07258373 134.84465206 C-225.06921767 129.89676496 -225.07161039 124.94905609 -225.08883476 120.001194 C-225.1042655 115.36985975 -225.10039189 110.73893981 -225.08152962 106.10762215 C-225.07783787 104.41006488 -225.08096925 102.71247703 -225.09141541 101.01494789 C-225.10458255 98.69894796 -225.09311926 96.38433005 -225.07542419 94.06838989 C-225.07521491 92.77331072 -225.07500563 91.47823154 -225.07479 90.14390755 C-224.48930128 86.20623611 -223.34500977 84.57850501 -220.57421875 81.77734375 C-218.41998291 80.46440125 -218.41998291 80.46440125 -216.05175781 79.47924805 C-215.14942413 79.09564117 -214.24709045 78.7120343 -213.31741333 78.31680298 C-212.33481537 77.91577362 -211.35221741 77.51474426 -210.33984375 77.1015625 C-209.30012421 76.66379486 -208.26040466 76.22602722 -207.18917847 75.7749939 C-203.73937089 74.32555491 -200.28182538 72.89556634 -196.82421875 71.46484375 C-194.38457374 70.44290242 -191.9455017 69.41971287 -189.50732422 68.39428711 C-185.70345169 66.79542369 -181.89914781 65.19764617 -178.09213257 63.60627747 C-166.08046025 58.58452451 -154.11187452 53.46430662 -142.15084839 48.32312012 C-137.513162 46.33015699 -132.87384445 44.34100623 -128.23454285 42.35180664 C-124.72245345 40.84589437 -121.21057356 39.33949438 -117.69873047 37.83300781 C-111.02507378 34.97045445 -104.35075731 32.10944238 -97.67616844 29.24906349 C-95.83389462 28.45950399 -93.99168537 27.66979401 -92.14949036 26.88005066 C-86.16810024 24.31614859 -80.18580009 21.75441657 -74.20141602 19.19750977 C-63.97775278 14.8268848 -53.76538752 10.43688767 -43.59765625 5.9375 C-41.18644949 4.8774928 -38.77469843 3.81873617 -36.36270142 2.76052856 C-34.22215809 1.81508109 -32.09003116 0.85235564 -29.95776367 -0.11157227 C-28.68578942 -0.6703571 -27.41343567 -1.22827926 -26.140625 -1.78515625 C-25.07787354 -2.26082031 -24.01512207 -2.73648437 -22.92016602 -3.2265625 C-14.27835016 -5.79924464 -7.98359003 -3.64726165 0 0 Z M-41.13671875 22.83984375 C-43.60517173 23.97918693 -46.08243078 25.09865488 -48.56054688 26.21679688 C-53.05421978 28.25049196 -57.53844988 30.30264046 -62.01196861 32.38030052 C-73.27533476 37.60786172 -84.68956704 42.46883975 -96.12255859 47.31240845 C-101.90384582 49.76607172 -107.67394159 52.2457815 -113.4453125 54.72265625 C-115.77320871 55.72053166 -118.10117141 56.71825197 -120.42919922 57.71582031 C-121.596828 58.21617798 -122.76445679 58.71653564 -123.96746826 59.23205566 C-128.9508317 61.36714435 -133.9345764 63.50134212 -138.91836548 65.63543701 C-143.33268856 67.52569055 -147.74683458 69.41635739 -152.16094398 71.30710983 C-155.14466546 72.58512873 -158.12851328 73.86285129 -161.11254883 75.14013672 C-168.60251341 78.34617722 -176.09023179 81.55737241 -183.57421875 84.77734375 C-184.67562195 85.2511145 -185.77702515 85.72488525 -186.9118042 86.2130127 C-190.15342237 87.60911341 -193.39340108 89.00894389 -196.6328125 90.41015625 C-197.62168961 90.83593964 -198.61056671 91.26172302 -199.62940979 91.70040894 C-200.97965492 92.2859404 -200.97965492 92.2859404 -202.35717773 92.88330078 C-203.54705544 93.39765182 -203.54705544 93.39765182 -204.76097107 93.9223938 C-206.55115574 94.64160883 -206.55115574 94.64160883 -207.57421875 95.77734375 C-207.67776548 97.92330635 -207.7094547 100.07273841 -207.71466064 102.22119141 C-207.71763177 102.90269414 -207.72060289 103.58419687 -207.72366405 104.2863512 C-207.73238909 106.58804839 -207.73386264 108.88969379 -207.73535156 111.19140625 C-207.739978 112.83569958 -207.74500242 114.47999184 -207.75039673 116.12428284 C-207.76356181 120.6112959 -207.76997662 125.09829396 -207.77440739 129.58532333 C-207.77733871 132.3975113 -207.7814442 135.20969519 -207.78591156 138.0218811 C-207.79961306 146.84415322 -207.80925999 155.66641599 -207.81311345 164.48869801 C-207.81756526 174.62360796 -207.83496644 184.7583811 -207.86411405 194.89324951 C-207.88590884 202.74922449 -207.89582752 210.60516156 -207.89715457 218.46116638 C-207.89819235 223.1395493 -207.90387369 227.81780412 -207.92197418 232.49615479 C-208.01050468 256.76150662 -207.95166446 280.91839828 -201.82421875 304.58984375 C-201.56600342 305.6164209 -201.30778809 306.64299805 -201.04174805 307.70068359 C-187.93236414 358.37145588 -157.46104302 403.57109896 -114.57421875 433.77734375 C-113.94451172 434.22513184 -113.31480469 434.67291992 -112.66601562 435.13427734 C-86.62723355 453.51338614 -43.47155181 478.80898153 -10.57421875 474.77734375 C-6.41948113 473.99476124 -2.3487578 472.97985864 1.73828125 471.90234375 C3.34413086 471.49822266 3.34413086 471.49822266 4.98242188 471.0859375 C11.39817551 469.45357371 11.39817551 469.45357371 17.42578125 466.77734375 C13.65924349 462.85386691 9.58399223 459.27771276 5.42578125 455.77734375 C4.81992187 455.18308594 4.2140625 454.58882813 3.58984375 453.9765625 C0.33581052 452.1733347 -1.68470157 453.17825362 -5.19921875 454.15234375 C-30.82722698 461.23604041 -65.41976813 442.22799074 -87.14404297 430.16113281 C-92.16143742 427.30413143 -96.92751267 424.21157113 -101.57421875 420.77734375 C-102.62351562 420.01035156 -103.6728125 419.24335938 -104.75390625 418.453125 C-111.92902019 413.11971189 -118.6337537 407.3650699 -125.09472656 401.18945312 C-126.07586715 400.25299815 -127.06217122 399.32192144 -128.05371094 398.39648438 C-141.60490912 385.72964257 -152.27621494 370.76909648 -161.57421875 354.77734375 C-161.92822754 354.17245117 -162.28223633 353.56755859 -162.64697266 352.94433594 C-181.18809154 320.87368169 -188.7344054 284.28500521 -188.71948242 247.52539062 C-188.72248183 246.03259193 -188.72588613 244.53979401 -188.72966003 243.04699707 C-188.73841535 239.03103404 -188.74083427 235.01509237 -188.74147582 230.99912071 C-188.74219007 228.48704689 -188.74433124 225.97497838 -188.74697304 223.46290588 C-188.75619165 214.69206399 -188.76031147 205.92123721 -188.75952148 197.15039062 C-188.75891855 188.98181703 -188.76952131 180.813309 -188.78526515 172.64475203 C-188.79832842 165.61605249 -188.80370604 158.58737447 -188.80306607 151.55866289 C-188.80281114 147.36683871 -188.80566108 143.17507316 -188.81624413 138.98326111 C-188.82590702 135.04989483 -188.82601683 131.11664359 -188.81872749 127.18327332 C-188.81768006 125.74009025 -188.82005391 124.29690007 -188.82608795 122.85372925 C-188.83378669 120.88520732 -188.82797329 118.91664631 -188.82145691 116.94812012 C-188.82200168 115.84649284 -188.82254644 114.74486557 -188.82310772 113.60985565 C-188.57371947 110.7716616 -188.13222564 109.14019624 -186.57421875 106.77734375 C-184.45019531 105.49487305 -184.45019531 105.49487305 -181.71484375 104.3515625 C-180.64830566 103.89740967 -179.58176758 103.44325684 -178.48291016 102.9753418 C-177.27554199 102.47687744 -176.06817383 101.97841309 -174.82421875 101.46484375 C-173.50903904 100.90994447 -172.19444582 100.35365357 -170.88037109 99.79614258 C-167.85559097 98.51506771 -164.82766994 97.24176785 -161.79785156 95.97265625 C-156.03406318 93.55493288 -150.28423544 91.1047994 -144.53515625 88.65234375 C-143.46727875 88.19687164 -142.39940125 87.74139954 -141.29916382 87.27212524 C-139.07314587 86.32266686 -136.84714314 85.37317278 -134.62115479 84.42364502 C-131.16589996 82.95063966 -127.7098105 81.47961096 -124.25341797 80.00927734 C-103.79080176 71.30448532 -83.34802103 62.55396789 -62.91281128 53.78504944 C-60.76125205 52.86266857 -58.60901961 51.9418563 -56.45608521 51.02268982 C-51.25399038 48.79929773 -46.06149512 46.55774261 -40.89031792 44.26345158 C-38.3365471 43.13190909 -35.77861247 42.0099633 -33.22026443 40.88881493 C-31.41041412 40.09108725 -29.60652208 39.27988456 -27.80282593 38.46833801 C-19.87079031 34.9997945 -14.81110897 33.40323738 -6.52758789 36.59960938 C-4.54923089 37.44795097 -2.57682819 38.31026229 -0.609375 39.18359375 C0.47067307 39.65072281 1.55072113 40.11785187 2.66349792 40.59913635 C5.61683836 41.87897353 8.5650729 43.16980644 11.51157379 44.46529007 C14.64331683 45.83869462 17.78157134 47.19704535 20.91943359 48.55639648 C25.49660546 50.54056609 30.07200762 52.52871047 34.64512634 54.5222044 C46.11008888 59.51940525 57.6052173 64.445422 69.10394287 69.3644104 C72.54955992 70.83932095 75.99394046 72.31708357 79.43798828 73.7956543 C90.91590394 78.72117221 102.40382885 83.62159515 113.91143799 88.47726631 C115.82548131 89.28525684 117.73911817 90.0942013 119.65258789 90.90354919 C120.58547323 91.29813497 120.58547323 91.29813497 121.53720474 91.70069218 C122.77923848 92.22608932 124.02125068 92.75153739 125.26324081 93.27703762 C129.44267668 95.0445713 133.62649499 96.80147798 137.81103516 98.55688477 C139.97054166 99.46982687 142.1298929 100.38313637 144.2890625 101.296875 C145.27682175 101.70822693 146.26458099 102.11957886 147.28227234 102.543396 C148.63588615 103.1190329 148.63588615 103.1190329 150.0168457 103.70629883 C150.8005806 104.03584061 151.58431549 104.36538239 152.39179993 104.70491028 C155.84890279 106.52769635 157.18595852 108.05787556 158.42578125 111.77734375 C158.51884961 113.66277046 158.55207194 115.55136471 158.55276489 117.43908691 C158.55558472 118.6189769 158.55840454 119.79886688 158.56130981 121.01451111 C158.55827347 122.959291 158.55827347 122.959291 158.55517578 124.94335938 C158.55653087 126.32182359 158.55831142 127.70028744 158.56048584 129.07875061 C158.56505415 132.82973806 158.56327127 136.58069807 158.56010675 140.33168602 C158.55757195 144.2719467 158.55992457 148.21220505 158.56149292 152.15246582 C158.56331476 158.78703226 158.56091151 165.42158759 158.55615234 172.05615234 C158.55074555 179.68060984 158.55244601 187.30504044 158.55797875 194.92949724 C158.56255262 201.49965405 158.56313866 208.06980287 158.56054008 214.63996077 C158.55899597 218.55236213 158.55873071 222.46475098 158.56207657 226.37715149 C158.57770324 247.64690945 158.4227559 268.68213381 155.42578125 289.77734375 C159.90882162 288.30138892 164.357946 286.74505827 168.80078125 285.15234375 C171.00911458 284.36067708 173.21744792 283.56901042 175.42578125 282.77734375 C176.91221808 270.53250592 177.71334122 258.5285653 177.65283203 246.19848633 C177.65226568 244.5405325 177.65258882 242.88257817 177.65371704 241.22462463 C177.65428283 236.79196109 177.6426563 232.35940933 177.62856913 227.9267714 C177.61593041 223.26903261 177.61488105 218.61129028 177.61251831 213.95353699 C177.60634168 205.16390237 177.58998342 196.37431846 177.56981933 187.58470601 C177.54734037 177.56511614 177.53643696 167.54552366 177.52642846 157.52591479 C177.50561309 136.94302965 177.47051267 116.36018992 177.42578125 95.77734375 C169.90510496 91.95640421 169.90510496 91.95640421 162.22216797 88.47924805 C161.32028748 88.09564117 160.41840698 87.7120343 159.48919678 87.31680298 C158.53756653 86.91577362 157.58593628 86.51474426 156.60546875 86.1015625 C155.05862396 85.44491104 155.05862396 85.44491104 153.48052979 84.7749939 C151.25422059 83.830249 149.0273131 82.88691297 146.79986572 81.94485474 C141.35856356 79.64334214 135.92104547 77.33292003 130.48316574 75.02333641 C128.58521778 74.21737426 126.68710778 73.4117947 124.78897095 72.60627747 C111.69611072 67.04888205 98.62238713 61.44702763 85.55078125 55.83984375 C83.24195936 54.84989758 80.93312143 53.85998882 78.62426758 52.87011719 C68.36665316 48.47193549 58.1100514 44.07139693 47.85438156 39.66868305 C42.74488426 37.47524958 37.63503131 35.28264589 32.52496719 33.09053326 C27.22550886 30.81704968 21.92650907 28.54250527 16.63038635 26.26126099 C14.47915022 25.34222988 12.32289596 24.43484506 10.16148376 23.54000854 C5.59325317 21.64102837 1.20782893 19.73583823 -3.03930664 17.18969727 C-16.83834491 9.27578227 -27.88652636 16.47192236 -41.13671875 22.83984375 Z M-20.40307617 53.24609375 C-21.16363815 53.56642578 -21.92420013 53.88675781 -22.70780945 54.21679688 C-23.93138908 54.74176758 -23.93138908 54.74176758 -25.1796875 55.27734375 C-26.01889236 55.63248047 -26.85809723 55.98761719 -27.72273254 56.35351562 C-30.40455438 57.48977848 -33.0831399 58.63345983 -35.76171875 59.77734375 C-37.57856793 60.54866748 -39.39562279 61.31950691 -41.21289062 62.08984375 C-45.66907354 63.98006404 -50.12236804 65.87694399 -54.57421875 67.77734375 C-54.57421875 68.10734375 -54.57421875 68.43734375 -54.57421875 68.77734375 C-28.50421875 68.77734375 -2.43421875 68.77734375 24.42578125 68.77734375 C20.98103169 66.48084404 17.36991429 64.92593284 13.58203125 63.30078125 C12.43377869 62.80561508 12.43377869 62.80561508 11.2623291 62.30044556 C9.64577618 61.60465056 8.02853018 60.91046389 6.41064453 60.21777344 C3.93252391 59.15523478 1.45840214 58.083748 -1.015625 57.01171875 C-2.58700327 56.33668921 -4.1586103 55.66219188 -5.73046875 54.98828125 C-6.47115601 54.66644867 -7.21184326 54.34461609 -7.97497559 54.01303101 C-12.80473945 51.95857186 -15.56018212 51.18665708 -20.40307617 53.24609375 Z M-142.57421875 105.77734375 C-142.57421875 106.10734375 -142.57421875 106.43734375 -142.57421875 106.77734375 C-103.30421875 106.77734375 -64.03421875 106.77734375 -23.57421875 106.77734375 C-23.57421875 99.84734375 -23.57421875 92.91734375 -23.57421875 85.77734375 C-34.78037363 85.18171036 -45.97978215 84.75778252 -57.19921875 84.52734375 C-58.02688122 84.51022339 -58.85454369 84.49310303 -59.70728683 84.47546387 C-91.10816023 83.90160788 -115.25775106 89.41053337 -142.57421875 105.77734375 Z M-6.57421875 85.77734375 C-6.57421875 92.70734375 -6.57421875 99.63734375 -6.57421875 106.77734375 C32.69578125 106.77734375 71.96578125 106.77734375 112.42578125 106.77734375 C76.89967138 80.13276135 35.32994658 83.79385506 -6.57421875 85.77734375 Z M-172.57421875 123.77734375 C-172.57421875 130.70734375 -172.57421875 137.63734375 -172.57421875 144.77734375 C-142.54421875 144.77734375 -112.51421875 144.77734375 -81.57421875 144.77734375 C-81.57421875 137.84734375 -81.57421875 130.91734375 -81.57421875 123.77734375 C-111.60421875 123.77734375 -141.63421875 123.77734375 -172.57421875 123.77734375 Z M-64.57421875 123.77734375 C-64.57421875 130.70734375 -64.57421875 137.63734375 -64.57421875 144.77734375 C-32.89421875 144.77734375 -1.21421875 144.77734375 31.42578125 144.77734375 C31.42578125 137.84734375 31.42578125 130.91734375 31.42578125 123.77734375 C-0.25421875 123.77734375 -31.93421875 123.77734375 -64.57421875 123.77734375 Z M48.42578125 123.77734375 C48.42578125 130.70734375 48.42578125 137.63734375 48.42578125 144.77734375 C79.44578125 144.77734375 110.46578125 144.77734375 142.42578125 144.77734375 C142.42578125 137.84734375 142.42578125 130.91734375 142.42578125 123.77734375 C111.40578125 123.77734375 80.38578125 123.77734375 48.42578125 123.77734375 Z M-172.57421875 161.77734375 C-172.57421875 168.70734375 -172.57421875 175.63734375 -172.57421875 182.77734375 C-156.40421875 182.77734375 -140.23421875 182.77734375 -123.57421875 182.77734375 C-123.57421875 175.84734375 -123.57421875 168.91734375 -123.57421875 161.77734375 C-139.74421875 161.77734375 -155.91421875 161.77734375 -172.57421875 161.77734375 Z M-106.57421875 161.77734375 C-106.57421875 168.70734375 -106.57421875 175.63734375 -106.57421875 182.77734375 C-79.18421875 182.77734375 -51.79421875 182.77734375 -23.57421875 182.77734375 C-23.57421875 175.84734375 -23.57421875 168.91734375 -23.57421875 161.77734375 C-50.96421875 161.77734375 -78.35421875 161.77734375 -106.57421875 161.77734375 Z M-6.57421875 161.77734375 C-6.57421875 168.70734375 -6.57421875 175.63734375 -6.57421875 182.77734375 C24.11578125 182.77734375 54.80578125 182.77734375 86.42578125 182.77734375 C86.42578125 175.84734375 86.42578125 168.91734375 86.42578125 161.77734375 C55.73578125 161.77734375 25.04578125 161.77734375 -6.57421875 161.77734375 Z M103.42578125 161.77734375 C103.42578125 168.70734375 103.42578125 175.63734375 103.42578125 182.77734375 C116.29578125 182.77734375 129.16578125 182.77734375 142.42578125 182.77734375 C142.42578125 175.84734375 142.42578125 168.91734375 142.42578125 161.77734375 C129.55578125 161.77734375 116.68578125 161.77734375 103.42578125 161.77734375 Z M-172.57421875 199.77734375 C-172.57421875 206.70734375 -172.57421875 213.63734375 -172.57421875 220.77734375 C-142.54421875 220.77734375 -112.51421875 220.77734375 -81.57421875 220.77734375 C-81.57421875 213.84734375 -81.57421875 206.91734375 -81.57421875 199.77734375 C-111.60421875 199.77734375 -141.63421875 199.77734375 -172.57421875 199.77734375 Z M-64.57421875 199.77734375 C-64.57421875 206.70734375 -64.57421875 213.63734375 -64.57421875 220.77734375 C-32.89421875 220.77734375 -1.21421875 220.77734375 31.42578125 220.77734375 C31.42578125 213.84734375 31.42578125 206.91734375 31.42578125 199.77734375 C-0.25421875 199.77734375 -31.93421875 199.77734375 -64.57421875 199.77734375 Z M48.42578125 199.77734375 C48.42578125 206.70734375 48.42578125 213.63734375 48.42578125 220.77734375 C65.09952852 221.74991139 65.09952852 221.74991139 80.3359375 216.375 C90.21864604 211.2649775 102.1297713 209.67585152 113.11328125 209.46484375 C115.03720703 209.40876953 115.03720703 209.40876953 117 209.3515625 C120.42578125 209.77734375 120.42578125 209.77734375 122.8203125 211.359375 C124.42578125 213.77734375 124.42578125 213.77734375 125.42578125 220.77734375 C131.03578125 220.77734375 136.64578125 220.77734375 142.42578125 220.77734375 C142.42578125 213.84734375 142.42578125 206.91734375 142.42578125 199.77734375 C111.40578125 199.77734375 80.38578125 199.77734375 48.42578125 199.77734375 Z M62.42578125 246.77734375 C49.55522563 260.17864393 41.56769733 276.65727834 41.859375 295.421875 C42.54655535 302.84025927 45.35478063 309.91897227 47.796875 316.90625 C51.37442238 327.23114975 51.45919446 336.58949832 47.42578125 346.77734375 C43.99462187 353.27203829 39.46396727 356.66334221 32.67578125 359.15234375 C21.97040716 361.28101852 13.64574678 357.6829035 4.73828125 352.08984375 C-1.66342225 345.68814025 -5.66089391 338.28208087 -8.57421875 329.77734375 C-14.05830945 339.24724971 -12.97785999 352.79681165 -12.94921875 363.40234375 C-12.9493396 364.09678589 -12.94946045 364.79122803 -12.94958496 365.50671387 C-12.92051802 377.29640013 -11.77220194 388.40166069 -8.57421875 399.77734375 C-8.28546875 400.87046875 -7.99671875 401.96359375 -7.69921875 403.08984375 C-1.56154283 423.69489862 11.06037169 442.40828069 29.42578125 453.77734375 C29.14863281 453.09671875 28.87148438 452.41609375 28.5859375 451.71484375 C27.28547351 448.42208644 26.06536282 445.10728913 24.86328125 441.77734375 C24.21166016 439.98296875 24.21166016 439.98296875 23.546875 438.15234375 C17.96975909 421.36269864 20.15398865 399.84522688 27.48828125 383.90234375 C29.42578125 380.77734375 29.42578125 380.77734375 32.42578125 378.77734375 C35.77105432 378.35028761 37.64674336 378.25798516 40.48828125 380.15234375 C42.84557653 383.34609864 44.4173512 386.719066 46.125 390.29296875 C47.85550193 393.59807154 49.86516976 396.07447607 52.42578125 398.77734375 C52.75578125 398.77734375 53.08578125 398.77734375 53.42578125 398.77734375 C53.52375 397.81054688 53.62171875 396.84375 53.72265625 395.84765625 C55.56805824 379.77993202 61.08821911 367.36257627 73.82421875 356.68359375 C84.08129538 349.16789796 98.33285276 340.08011228 111.42578125 341.77734375 C114.42578125 343.77734375 114.42578125 343.77734375 115.36328125 347.33984375 C115.77320128 351.72283487 114.40782202 354.49526365 112.484375 358.35546875 C108.37375917 367.75982968 108.85480438 378.18519148 110.80078125 388.02734375 C110.92710937 388.72085938 111.0534375 389.414375 111.18359375 390.12890625 C111.85341423 393.62536915 112.60191914 396.70056767 114.42578125 399.77734375 C122.6601208 392.1668178 125.06877487 382.78834564 125.80859375 372.02734375 C126.52120862 368.2748401 127.3928723 367.03413625 130.42578125 364.77734375 C133.73828125 364.15234375 133.73828125 364.15234375 137.42578125 364.77734375 C139.46000806 366.196381 141.18240717 367.72210896 142.9453125 369.46484375 C144.34545872 370.99847138 144.34545872 370.99847138 146.42578125 370.77734375 C146.68746094 371.34710938 146.94914063 371.916875 147.21875 372.50390625 C148.51520464 374.94577228 150.05284639 376.96239957 151.73828125 379.15234375 C161.76893589 393.24551822 163.29369337 410.95960196 160.859375 427.6640625 C159.46493832 433.83316718 157.54548098 439.82199688 155.42578125 445.77734375 C169.86275512 434.34807277 179.39270083 417.91895602 182.42578125 399.77734375 C184.32212891 381.34721492 177.73249251 363.95331337 171.95556641 346.765625 C168.32808426 335.92746165 166.18575795 326.07331906 165.80078125 314.65234375 C165.76210938 313.69585937 165.7234375 312.739375 165.68359375 311.75390625 C165.59057997 309.42856176 165.50474354 307.1032004 165.42578125 304.77734375 C153.51627962 308.95611625 146.41208202 320.35627409 141.17578125 331.21484375 C138.90361476 336.29557679 137.31968651 341.29038839 136.1640625 346.73046875 C135.92042969 347.4059375 135.67679688 348.08140625 135.42578125 348.77734375 C132.8125064 349.64843537 131.11866954 349.96614174 128.42578125 350.02734375 C127.74515625 350.053125 127.06453125 350.07890625 126.36328125 350.10546875 C123.77480448 349.66709768 123.03806879 348.82842729 121.42578125 346.77734375 C121.05688477 344.53173828 121.05688477 344.53173828 121.0546875 341.91015625 C121.03728516 340.94078125 121.01988281 339.97140625 121.00195312 338.97265625 C120.99301254 336.9648569 120.98765605 334.95703757 120.98632812 332.94921875 C120.71608589 318.7475236 115.03534668 307.40943232 108.42578125 295.21484375 C97.56986493 275.13188845 92.04643994 257.61849752 98.42578125 234.77734375 C98.74482422 233.60558594 98.74482422 233.60558594 99.0703125 232.41015625 C99.50288013 230.86038156 99.96015036 229.31750745 100.42578125 227.77734375 C86.38002682 227.77734375 72.55356833 237.86378728 62.42578125 246.77734375 Z M-172.57421875 237.77734375 C-172.57421875 245.03734375 -172.57421875 252.29734375 -172.57421875 259.77734375 C-156.40421875 259.77734375 -140.23421875 259.77734375 -123.57421875 259.77734375 C-123.57421875 252.51734375 -123.57421875 245.25734375 -123.57421875 237.77734375 C-139.74421875 237.77734375 -155.91421875 237.77734375 -172.57421875 237.77734375 Z M-106.57421875 237.77734375 C-106.57421875 245.03734375 -106.57421875 252.29734375 -106.57421875 259.77734375 C-79.18421875 259.77734375 -51.79421875 259.77734375 -23.57421875 259.77734375 C-23.57421875 252.51734375 -23.57421875 245.25734375 -23.57421875 237.77734375 C-50.96421875 237.77734375 -78.35421875 237.77734375 -106.57421875 237.77734375 Z M-6.57421875 237.77734375 C-6.57421875 245.03734375 -6.57421875 252.29734375 -6.57421875 259.77734375 C-0.99828173 260.0539635 4.55374963 260.29209477 10.13110352 260.43652344 C12.02417722 260.49669804 13.91669696 260.57847133 15.80786133 260.68261719 C24.71158366 261.27482561 24.71158366 261.27482561 33.42578125 259.77734375 C37.19056903 256.23375384 38.59596485 252.52315018 40.42578125 247.77734375 C42.43774414 244.92675781 42.43774414 244.92675781 44.36328125 242.58984375 C46.46617623 240.43491277 46.46617623 240.43491277 47.42578125 237.77734375 C29.60578125 237.77734375 11.78578125 237.77734375 -6.57421875 237.77734375 Z M115.42578125 237.77734375 C111.46287516 247.02412462 111.42578125 249.24137277 111.42578125 259.77734375 C121.32578125 259.77734375 131.22578125 259.77734375 141.42578125 259.77734375 C142.1113216 256.34964199 142.5490288 253.92277252 142.5234375 250.5703125 C142.52093994 249.89250732 142.51844238 249.21470215 142.51586914 248.51635742 C142.50676514 247.67435791 142.49766113 246.8323584 142.48828125 245.96484375 C142.45734375 241.91203125 142.45734375 241.91203125 142.42578125 237.77734375 C133.51578125 237.77734375 124.60578125 237.77734375 115.42578125 237.77734375 Z M-170.57421875 275.77734375 C-169.89181043 284.19723957 -169.89181043 284.19723957 -168.57421875 292.40234375 C-168.40921875 293.21960938 -168.24421875 294.036875 -168.07421875 294.87890625 C-167.74555059 296.77391059 -167.74555059 296.77391059 -166.57421875 297.77734375 C-163.92683786 297.87245641 -161.30562874 297.9029001 -158.65795898 297.89086914 C-157.82875946 297.89101517 -156.99955994 297.89116119 -156.14523315 297.89131165 C-153.39106677 297.89061226 -150.63696714 297.88281868 -147.8828125 297.875 C-145.97852109 297.87313591 -144.0742292 297.87171197 -142.16993713 297.87071228 C-137.14753912 297.86688638 -132.12516983 297.85705548 -127.1027832 297.8460083 C-121.98193755 297.83579573 -116.86108727 297.83121499 -111.74023438 297.82617188 C-101.68488115 297.81543327 -91.62955683 297.7978359 -81.57421875 297.77734375 C-81.57421875 290.51734375 -81.57421875 283.25734375 -81.57421875 275.77734375 C-110.94421875 275.77734375 -140.31421875 275.77734375 -170.57421875 275.77734375 Z M-64.57421875 275.77734375 C-64.57421875 283.03734375 -64.57421875 290.29734375 -64.57421875 297.77734375 C-48.73421875 297.77734375 -32.89421875 297.77734375 -16.57421875 297.77734375 C-13.93421875 292.49734375 -11.29421875 287.21734375 -8.57421875 281.77734375 C-5.55553441 280.26800158 -2.90124646 280.60223703 0.42578125 280.77734375 C3.42578125 282.77734375 3.42578125 282.77734375 3.9375 284.73046875 C3.99550781 285.4884375 4.05351562 286.24640625 4.11328125 287.02734375 C4.17902344 287.775 4.24476563 288.52265625 4.3125 289.29296875 C4.44133302 292.11841012 4.42578125 294.94896668 4.42578125 297.77734375 C11.35578125 297.77734375 18.28578125 297.77734375 25.42578125 297.77734375 C26.08578125 290.51734375 26.74578125 283.25734375 27.42578125 275.77734375 C-2.93421875 275.77734375 -33.29421875 275.77734375 -64.57421875 275.77734375 Z M117.42578125 275.77734375 C118.68390625 278.29359375 119.94203125 280.80984375 121.23828125 283.40234375 C123.63411458 288.19401042 126.02994792 292.98567708 128.42578125 297.77734375 C131.06578125 297.77734375 133.70578125 297.77734375 136.42578125 297.77734375 C136.91454822 295.98827221 137.39117794 294.19588455 137.86328125 292.40234375 C138.13011719 291.40460938 138.39695312 290.406875 138.671875 289.37890625 C139.60849307 284.90449246 139.97091066 280.3260496 140.42578125 275.77734375 C132.83578125 275.77734375 125.24578125 275.77734375 117.42578125 275.77734375 Z M-161.57421875 313.77734375 C-160.8767279 317.26479801 -160.35424759 319.6198185 -158.98046875 322.73046875 C-158.67238281 323.43171875 -158.36429687 324.13296875 -158.046875 324.85546875 C-157.56541016 325.93054688 -157.56541016 325.93054688 -157.07421875 327.02734375 C-156.75324219 327.75953125 -156.43226563 328.49171875 -156.1015625 329.24609375 C-154.72931441 332.759439 -154.72931441 332.759439 -152.57421875 335.77734375 C-150.42863048 335.8650998 -148.28017454 335.88429594 -146.1328125 335.875 C-144.82763672 335.87177734 -143.52246094 335.86855469 -142.17773438 335.86523438 C-140.78906185 335.85687776 -139.40038998 335.8484128 -138.01171875 335.83984375 C-136.61914219 335.83483041 -135.22656394 335.83026722 -133.83398438 335.82617188 C-130.41404424 335.81433817 -126.99412625 335.79640206 -123.57421875 335.77734375 C-123.57421875 328.51734375 -123.57421875 321.25734375 -123.57421875 313.77734375 C-136.11421875 313.77734375 -148.65421875 313.77734375 -161.57421875 313.77734375 Z M-106.57421875 313.77734375 C-106.57421875 321.03734375 -106.57421875 328.29734375 -106.57421875 335.77734375 C-80.50421875 335.77734375 -54.43421875 335.77734375 -27.57421875 335.77734375 C-23.38335264 320.87687098 -23.38335264 320.87687098 -23.57421875 313.77734375 C-50.96421875 313.77734375 -78.35421875 313.77734375 -106.57421875 313.77734375 Z M5.42578125 313.77734375 C6.14074776 321.42536211 6.14074776 321.42536211 8.36328125 328.15234375 C8.87181641 329.37050781 8.87181641 329.37050781 9.390625 330.61328125 C10.4633101 332.98677499 10.4633101 332.98677499 12.42578125 335.77734375 C14.63324457 336.20934935 14.63324457 336.20934935 17.1796875 336.10546875 C18.11619141 336.1003125 19.05269531 336.09515625 20.01757812 336.08984375 C21.48807617 336.05890625 21.48807617 336.05890625 22.98828125 336.02734375 C23.97248047 336.0221875 24.95667969 336.01703125 25.97070312 336.01171875 C30.53913469 336.37805012 30.53913469 336.37805012 34.42578125 334.77734375 C34.47612927 332.51729748 34.47612927 332.51729748 34.23828125 329.83984375 C34.18285156 328.94394531 34.12742187 328.04804688 34.0703125 327.125 C33.29742873 322.54221251 33.29742873 322.54221251 29.42578125 313.77734375 C21.50578125 313.77734375 13.58578125 313.77734375 5.42578125 313.77734375 Z M-142.57421875 352.77734375 C-140.77321151 357.27986185 -139.04935241 360.05676785 -136.13671875 363.83984375 C-134.96302734 365.37318359 -134.96302734 365.37318359 -133.765625 366.9375 C-133.04246094 367.87464844 -132.31929687 368.81179688 -131.57421875 369.77734375 C-131.13003098 370.48654968 -130.6858432 371.19575562 -130.22819519 371.92645264 C-128.73376197 373.96002251 -128.73376197 373.96002251 -126.42915344 374.25836182 C-125.60086533 374.24947937 -124.77257721 374.24059692 -123.91918945 374.23144531 C-122.50806633 374.23099213 -122.50806633 374.23099213 -121.06843567 374.23052979 C-119.54956001 374.19956207 -119.54956001 374.19956207 -118 374.16796875 C-116.4415461 374.15947906 -116.4415461 374.15947906 -114.85160828 374.15081787 C-111.52951194 374.12840702 -108.20848971 374.07820065 -104.88671875 374.02734375 C-102.63608327 374.0072849 -100.38543091 373.98903306 -98.13476562 373.97265625 C-92.6138355 373.93192641 -87.09523088 373.85364181 -81.57421875 373.77734375 C-81.57421875 366.84734375 -81.57421875 359.91734375 -81.57421875 352.77734375 C-101.70421875 352.77734375 -121.83421875 352.77734375 -142.57421875 352.77734375 Z M-64.57421875 352.77734375 C-64.57421875 359.70734375 -64.57421875 366.63734375 -64.57421875 373.77734375 C-53.02421875 373.77734375 -41.47421875 373.77734375 -29.57421875 373.77734375 C-29.57421875 366.84734375 -29.57421875 359.91734375 -29.57421875 352.77734375 C-41.12421875 352.77734375 -52.67421875 352.77734375 -64.57421875 352.77734375 Z M80.42578125 372.77734375 C77.67410526 375.90941301 75.48243 379.1562357 73.42578125 382.77734375 C73.06613281 383.38835937 72.70648438 383.999375 72.3359375 384.62890625 C68.9711035 391.66869721 69.23234161 402.1209727 71.140625 409.56640625 C71.67934323 411.01126345 72.23246725 412.45089293 72.8046875 413.8828125 C73.87501741 417.1476553 73.45280047 419.56790869 72.42578125 422.77734375 C69.70952552 425.33381973 68.0716851 425.75098033 64.36328125 425.90234375 C53.71265046 423.76291573 44.84331641 415.20912099 37.42578125 407.77734375 C36.79226684 425.58613777 38.39706142 440.14216856 50.92578125 453.90234375 C61.58259755 463.85407768 75.20369623 469.25755596 89.71484375 469.9296875 C106.05104807 469.08917039 121.38711576 461.74061541 132.42578125 449.77734375 C142.66834872 436.47997546 146.65841951 422.31627801 145.42578125 405.77734375 C144.42999172 400.27646504 142.93910859 396.14686011 139.42578125 391.77734375 C138.94109375 392.67195313 138.45640625 393.5665625 137.95703125 394.48828125 C124.83747877 418.31167012 124.83747877 418.31167012 115.453125 421.43359375 C111.92157759 422.12010016 109.91536414 422.09175478 106.87109375 420.13671875 C97.79086462 411.37560311 93.82368749 393.09348942 93.42578125 380.77734375 C93.34349019 375.44326394 93.36687624 370.11151999 93.42578125 364.77734375 C88.61762078 364.77734375 83.91553884 369.80262624 80.42578125 372.77734375 Z M-111.57421875 390.77734375 C-107.34084661 395.01071589 -103.17908511 398.97594456 -98.57421875 402.77734375 C-97.20714531 403.91785439 -97.20714531 403.91785439 -95.81245422 405.08140564 C-87.45997319 411.49706753 -81.46775655 413.04274303 -70.7421875 412.65625 C-69.37075537 412.6394082 -67.99926809 412.62662345 -66.62776184 412.61766052 C-63.06382657 412.58372741 -59.50333398 412.49572916 -55.94073486 412.39532471 C-52.28713539 412.30229869 -48.63296469 412.26195166 -44.97851562 412.21679688 C-37.84236402 412.12104274 -30.70851919 411.96799462 -23.57421875 411.77734375 C-24.19427961 404.33661343 -25.71054566 398.2320361 -27.57421875 390.77734375 C-55.29421875 390.77734375 -83.01421875 390.77734375 -111.57421875 390.77734375 Z M-50.57421875 428.77734375 C-48.05820818 430.45468413 -46.4122995 431.28273642 -43.6171875 432.1796875 C-42.45243896 432.55371704 -42.45243896 432.55371704 -41.26416016 432.93530273 C-40.43835449 433.19255127 -39.61254883 433.4497998 -38.76171875 433.71484375 C-37.91528809 433.97918213 -37.06885742 434.24352051 -36.19677734 434.51586914 C-23.07135018 438.87892472 -23.07135018 438.87892472 -9.57421875 438.77734375 C-12.04921875 433.82734375 -12.04921875 433.82734375 -14.57421875 428.77734375 C-26.45421875 428.77734375 -38.33421875 428.77734375 -50.57421875 428.77734375 Z " fill="#F37E1A" transform="translate(268.57421875,12.22265625)"/>
</svg>
