<?xml version="1.0" encoding="UTF-8"?>
<svg version="1.1" xmlns="http://www.w3.org/2000/svg" width="512" height="512">
<path d="M0 0 C1.28615357 -0.00384115 2.57230715 -0.00768229 3.89743507 -0.01163983 C5.3278643 -0.01085959 6.75829349 -0.0099808 8.18872261 -0.00901413 C9.70582598 -0.01159769 11.22292867 -0.01461083 12.74003041 -0.01801753 C16.91519191 -0.02609163 21.09033622 -0.02787733 25.2655046 -0.028615 C29.76593662 -0.0304648 34.26635971 -0.03801169 38.76678658 -0.04475021 C48.60961265 -0.05833622 58.45243465 -0.06435846 68.29526854 -0.06876087 C74.43892408 -0.07152242 80.58257805 -0.07575958 86.72623253 -0.08026505 C103.73040544 -0.09245727 120.73457709 -0.10275719 137.73875427 -0.10614014 C138.82718536 -0.1063597 139.91561644 -0.10657927 141.03703029 -0.10680549 C142.12808599 -0.10702377 143.21914169 -0.10724204 144.34325969 -0.10746694 C146.55420868 -0.1079104 148.76515766 -0.10835697 150.97610664 -0.10880661 C152.62117219 -0.10913875 152.62117219 -0.10913875 154.29947139 -0.10947761 C172.07813038 -0.11342734 189.85674842 -0.13088689 207.63539158 -0.15416613 C225.88072904 -0.17786403 244.12604594 -0.19034125 262.37139904 -0.19150805 C272.61867447 -0.19242561 282.86589653 -0.1981983 293.11315727 -0.21632767 C301.83709243 -0.23170747 310.56095773 -0.23686161 319.28490387 -0.22858956 C323.73726349 -0.22467575 328.18948232 -0.22564829 332.64182472 -0.23964691 C336.71669291 -0.2523418 340.79131388 -0.25122737 344.86618151 -0.2390562 C346.34126222 -0.23709154 347.81636019 -0.24021298 349.29141663 -0.24890056 C351.29527256 -0.25995655 353.29920973 -0.25073471 355.30307007 -0.24050903 C356.41652011 -0.24110612 357.52997015 -0.24170321 358.6771611 -0.24231839 C363.1472836 0.29657683 366.53671062 1.80838703 369.62688446 5.10373592 C371.43669928 9.8665356 371.20350622 14.52155791 371.18524361 19.57449722 C371.19649696 21.33040791 371.19649696 21.33040791 371.20797765 23.12179154 C371.22561966 26.36739102 371.22980615 29.61268466 371.22818637 32.85832155 C371.2296316 36.36016583 371.24822014 39.86192631 371.26443672 43.36372757 C371.29654407 51.01868614 371.30636938 58.67357731 371.31207895 66.32859445 C371.31583084 71.10925266 371.32463934 75.8898929 371.33457756 80.67054176 C371.36151482 93.90970604 371.38402603 107.14885294 371.38645554 120.38804722 C371.38661111 121.23506355 371.38676668 122.08207987 371.38692697 122.95476336 C371.38721802 124.67182743 371.3875034 126.38889151 371.38778313 128.10595558 C371.38792598 128.95829451 371.38806883 129.81063343 371.38821602 130.68880081 C371.38835569 131.54218126 371.38849536 132.39556171 371.38863926 133.27480217 C371.3917749 147.10435196 371.42836891 160.93358863 371.47985227 174.76303504 C371.5323015 188.96524629 371.55856846 203.16730292 371.55800664 217.36961335 C371.55825926 225.34228673 371.5694927 233.31460019 371.60918236 241.28718376 C371.64280475 248.07550768 371.65225739 254.86333153 371.63042541 261.65171281 C371.61999216 265.11428066 371.62078297 268.57586927 371.65218925 272.03833199 C371.68027702 275.79555341 371.66523197 279.55022603 371.63934517 283.30740738 C371.6576887 284.39739621 371.67603223 285.48738504 371.69493163 286.61040384 C371.59106946 293.27194745 370.35917563 296.76647903 365.6056236 301.50300282 C365.00230195 302.04038305 364.3989803 302.57776328 363.77737617 303.13142776 C362.88552618 303.9415435 362.88552618 303.9415435 361.97565901 304.76802522 C360.40153379 306.16468917 358.78959916 307.49700729 357.15237617 308.81892776 C351.09892963 313.76590707 345.98074791 318.3802641 342.02737617 325.25642776 C329.24070465 346.75184284 308.92893651 365.3880143 284.4121418 372.05501175 C275.28598515 374.31827279 266.70666254 375.21153306 257.32815742 375.09236526 C253.87124163 375.13039514 250.46678039 375.34274624 247.02054024 375.58992386 C222.21317918 377.28926298 196.25855632 371.6785433 176.96096992 355.14705276 C167.37529897 346.29874111 167.37529897 346.29874111 165.70894527 343.04555035 C163.18232434 340.54175062 161.16822565 340.65019042 157.71236581 340.6122399 C156.87697032 340.62341091 156.04157483 340.63458193 155.18086433 340.64609146 C154.29232004 340.64211804 153.40377575 340.63814462 152.48830587 340.63405079 C149.49866371 340.62543125 146.50987704 340.64532471 143.5202961 340.66487503 C141.38183156 340.66432656 139.24336682 340.6619535 137.10490608 340.65788651 C132.49347161 340.65270075 127.88227434 340.65980954 123.27086639 340.67613792 C115.98083548 340.70119122 108.69104049 340.69498984 101.40098763 340.6836586 C83.29097109 340.66042403 65.1810217 340.67888936 47.07101631 340.70515823 C33.00364188 340.72509207 18.936455 340.73370115 4.86908036 340.70822185 C-2.37923785 340.69639063 -9.62702283 340.70809674 -16.87528574 340.73747456 C-21.38470965 340.7507207 -25.89392626 340.74331756 -30.4033432 340.73019409 C-32.49554811 340.72833586 -34.58778083 340.73506824 -36.67992592 340.75099754 C-39.53557059 340.77155362 -42.38953442 340.76143796 -45.24516106 340.74374771 C-46.07386438 340.75714945 -46.9025677 340.77055119 -47.75638324 340.78435904 C-51.88678964 340.72546423 -54.4523269 340.35667163 -57.72121525 337.71815777 C-60.98765601 334.34030083 -61.34750866 332.95018953 -61.3568449 328.40149593 C-61.36130275 327.3973794 -61.36576059 326.39326288 -61.37035352 325.35871857 C-61.37016916 324.24736175 -61.36998479 323.13600492 -61.36979485 321.99097061 C-61.37347153 320.81672651 -61.37714822 319.64248241 -61.38093632 318.43265516 C-61.39007476 315.16316737 -61.39467539 311.89370909 -61.39732563 308.62421072 C-61.40122445 305.10195532 -61.41080304 301.57971451 -61.4195385 298.05746841 C-61.43931431 289.54652915 -61.44937028 281.03558868 -61.45826629 272.52463219 C-61.46264713 268.51906997 -61.46801445 264.51350909 -61.47325516 260.50794792 C-61.49026813 247.19683958 -61.50476323 233.88573207 -61.5120039 220.57461452 C-61.51391387 217.11918703 -61.51583419 213.66375953 -61.51778984 210.20833206 C-61.51827358 209.34947756 -61.51875732 208.49062306 -61.51925572 207.60574267 C-61.52755949 193.68677507 -61.55290194 179.76789332 -61.58537052 165.84896322 C-61.61841584 151.56664729 -61.63645034 137.28437503 -61.63964814 123.00202066 C-61.64181553 114.97975074 -61.65059752 106.95760603 -61.67610931 98.93537331 C-61.69778181 92.10454329 -61.70588382 85.27386888 -61.69614253 78.44300839 C-61.69158779 74.95676967 -61.69355147 71.47085224 -61.71290398 67.98465729 C-61.7304869 64.20710907 -61.72358292 60.4303833 -61.71037102 56.65283585 C-61.72134026 55.54817118 -61.73230951 54.44350652 -61.74361116 53.30536717 C-61.68064894 45.88026935 -61.68064894 45.88026935 -59.32251072 42.02486515 C-57.21001278 40.12005657 -55.10984559 38.29454744 -52.84762383 36.56892776 C-48.55670076 33.21960638 -44.40199784 29.75221122 -40.28512383 26.19392776 C-35.23885034 21.84127911 -30.14269538 17.56510787 -24.96090508 13.37361526 C-22.95710731 11.73284506 -20.97990093 10.07595141 -19.01559258 8.38924026 C-18.20759209 7.70015579 -18.20759209 7.70015579 -17.38326836 6.99715042 C-15.86868193 5.70283382 -14.35992947 4.40169948 -12.85153008 3.10017776 C-8.65063744 -0.04581018 -5.17193129 0.00579162 0 0 Z " fill="#E3E6EE" transform="translate(101.22262382507324,67.86857223510742)"/>
<path d="M0 0 C0.4197361 8.37965209 0.73811523 16.75482741 0.93261909 25.14243603 C1.0260558 29.03911524 1.15231051 32.92854359 1.35791016 36.82104492 C2.64504047 61.84312799 2.64504047 61.84312799 -1.66973877 68.62411499 C-5.76663398 72.85374821 -10.52119312 75.51823152 -15.8324585 77.9670105 C-18.62292113 79.29686674 -20.97556368 81.01317157 -23.4140625 82.90234375 C-25.53471012 84.43096138 -27.65546363 85.95942165 -29.77734375 87.48632812 C-30.48246094 87.99486328 -31.18757813 88.50339844 -31.9140625 89.02734375 C-32.94128418 89.7558252 -32.94128418 89.7558252 -33.98925781 90.49902344 C-36.02496628 91.97236778 -36.02496628 91.97236778 -37.87792969 93.68066406 C-43.59271259 98.63583131 -48.60352729 98.89351432 -56 98.875 C-57.59134766 98.9059375 -57.59134766 98.9059375 -59.21484375 98.9375 C-61.81068965 98.984272 -64.4038221 99.00447176 -67 99 C-65.515 101.97 -65.515 101.97 -64 105 C-63.6596875 104.0409375 -63.6596875 104.0409375 -63.3125 103.0625 C-62 101 -62 101 -59.72192383 100.37719727 C-57.14747703 100.02043699 -54.73325075 99.88559193 -52.13671875 99.90234375 C-50.80737305 99.90717773 -50.80737305 99.90717773 -49.45117188 99.91210938 C-48.0831543 99.92467773 -48.0831543 99.92467773 -46.6875 99.9375 C-45.75615234 99.94201172 -44.82480469 99.94652344 -43.86523438 99.95117188 C-41.57675627 99.96290766 -39.28841192 99.97932637 -37 100 C-36.67 100.66 -36.34 101.32 -36 102 C-31.91352156 100.16884384 -28.35398051 97.60242551 -24.6875 95.0625 C-23.99124512 94.58321045 -23.29499023 94.1039209 -22.57763672 93.61010742 C-16.85788477 89.64983312 -11.24481002 85.55269573 -5.69799805 81.35375977 C-1.2138402 78 -1.2138402 78 1 78 C1.16370543 95.07237701 1.28705027 112.14450821 1.3626852 129.21749115 C1.39874137 137.1452614 1.44787597 145.07254328 1.52807617 153 C1.59796622 159.91165072 1.6430356 166.82294768 1.65861946 173.73494196 C1.66772579 177.39317288 1.68904176 181.05039196 1.7401104 184.70829773 C1.79673476 188.79751981 1.79792173 192.88499628 1.79467773 196.97460938 C1.81984467 198.18014465 1.8450116 199.38567993 1.87094116 200.62774658 C1.82121893 206.4236259 1.51657151 210.13349184 -2.3401947 214.62585449 C-3.52678476 215.78569496 -4.74598065 216.91341759 -6 218 C-6.59465341 218.53852852 -7.18930681 219.07705704 -7.80198002 219.6319046 C-9.37462695 221.03225632 -10.98674424 222.36474565 -12.625 223.6875 C-18.67844654 228.63447931 -23.79662826 233.24883634 -27.75 240.125 C-40.53667152 261.62041507 -60.84843967 280.25658654 -85.36523438 286.92358398 C-94.49139103 289.18684503 -103.07071364 290.08010529 -112.44921875 289.9609375 C-115.90613454 289.99896738 -119.31059578 290.21131847 -122.75683594 290.45849609 C-147.5269829 292.15528599 -173.59755974 286.57693674 -192.828125 269.9921875 C-193.54484375 269.33476562 -194.2615625 268.67734375 -195 268 C-195.71671875 267.36320312 -196.4334375 266.72640625 -197.171875 266.0703125 C-211.18356089 252.95411029 -217.46847755 232.70242637 -223.875 215.09521484 C-232.91314417 188.81327772 -232.91314417 188.81327772 -253 171 C-252.67 170.01 -252.34 169.02 -252 168 C-248.70039859 166.3501993 -245.00872116 166.61741639 -241.375 166.4375 C-240.57320313 166.39431641 -239.77140625 166.35113281 -238.9453125 166.30664062 C-236.9637489 166.20048543 -234.98189729 166.09973145 -233 166 C-233.02331642 165.08037979 -233.02331642 165.08037979 -233.04710388 164.1421814 C-233.20218468 157.75084036 -233.30763274 151.360035 -233.38452148 144.96728516 C-233.41968533 142.58294969 -233.46742616 140.19876474 -233.52807617 137.81494141 C-233.61316884 134.38406231 -233.65273044 130.95518063 -233.68359375 127.5234375 C-233.73778725 125.92935562 -233.73778725 125.92935562 -233.79307556 124.30307007 C-233.79686981 117.12254212 -233.79686981 117.12254212 -231.559021 113.97010803 C-229.019503 111.64163144 -226.88682961 110.22720937 -223.54052734 109.36987305 C-222.8130127 109.41668213 -222.08549805 109.46349121 -221.3359375 109.51171875 C-220.52560059 109.53234375 -219.71526367 109.55296875 -218.88037109 109.57421875 C-218.05359863 109.61160156 -217.22682617 109.64898437 -216.375 109.6875 C-210.02159139 109.88839287 -210.02159139 109.88839287 -204.6875 106.98828125 C-203.46052812 104.66214706 -202.65436912 102.53934286 -202 100 C-201.67 99.67 -201.34 99.34 -201 99 C-201.63960757 98.99945523 -202.27921515 98.99891047 -202.93820477 98.99834919 C-218.50393522 98.98337949 -234.06931163 98.94092545 -249.63486767 98.86790943 C-257.16229172 98.83326151 -264.68953269 98.8079042 -272.21704102 98.80444336 C-278.77832406 98.80140316 -285.33928103 98.7809056 -291.90043813 98.73947543 C-295.3743777 98.71814822 -298.84785374 98.70554299 -302.32185936 98.71384621 C-306.2008122 98.72279011 -310.07893231 98.69275741 -313.95776367 98.65942383 C-315.68406258 98.67236229 -315.68406258 98.67236229 -317.44523621 98.68556213 C-326.11421498 98.56037654 -326.11421498 98.56037654 -329.19013977 95.58378601 C-331.61641473 92.11999627 -332.12974492 90.43274561 -332.17700195 86.26245117 C-332.18983719 85.27770309 -332.20267242 84.29295502 -332.21589661 83.27836609 C-332.22328354 82.21068497 -332.23067047 81.14300385 -332.23828125 80.04296875 C-332.246353 78.94785477 -332.25442474 77.85274078 -332.26274109 76.72444153 C-332.27658904 74.4034687 -332.287308 72.08247545 -332.29516602 69.76147461 C-332.31237955 66.21233517 -332.3562606 62.66412684 -332.40039062 59.11523438 C-332.41051725 56.86198603 -332.41903344 54.60872975 -332.42578125 52.35546875 C-332.44328934 51.29386032 -332.46079742 50.23225189 -332.47883606 49.13847351 C-332.45722368 41.79387402 -332.45722368 41.79387402 -330.22338867 37.9152832 C-325.94611687 34.23073315 -322.90111736 33.74817333 -317.25735474 33.73257446 C-316.58030074 33.72804335 -315.90324674 33.72351224 -315.20567596 33.71884382 C-312.93799185 33.70618807 -310.67054754 33.70782091 -308.40283203 33.70947266 C-306.7765268 33.70348814 -305.15022442 33.69668277 -303.52392578 33.68911743 C-299.10653011 33.67144257 -294.68921192 33.66676143 -290.27178431 33.66548586 C-286.5839137 33.66358672 -282.89606114 33.65622903 -279.20819747 33.64914167 C-270.50711584 33.63285452 -261.80607559 33.62797302 -253.10498047 33.62939453 C-244.12992771 33.63059613 -235.15511536 33.6094915 -226.18012345 33.5779072 C-218.47384419 33.55175429 -210.76764349 33.54102682 -203.06132019 33.54230535 C-198.45900834 33.54281527 -193.85691013 33.53711571 -189.25464249 33.51594925 C-184.9256647 33.49658336 -180.59710471 33.49643095 -176.26811218 33.51098251 C-174.68064133 33.51307376 -173.09314443 33.50835085 -171.50571823 33.4962616 C-169.33552605 33.48080659 -167.16677408 33.49011682 -164.99661255 33.50552368 C-163.7831975 33.50443415 -162.56978245 33.50334461 -161.31959724 33.50222206 C-157.05918639 34.14107623 -154.05238345 35.94761655 -151 39 C-148.25322785 39.20831425 -145.56278403 39.32470387 -142.8125 39.375 C-141.67844727 39.43107422 -141.67844727 39.43107422 -140.52148438 39.48828125 C-139.77833984 39.49988281 -139.03519531 39.51148438 -138.26953125 39.5234375 C-137.59510986 39.54325684 -136.92068848 39.56307617 -136.22583008 39.58349609 C-133.69129802 39.11090095 -133.69129802 39.11090095 -131.36753845 36.49085999 C-127.79040803 33.4537537 -124.44180875 33.37342036 -119.89355469 33.56274414 C-119.10229187 33.57474854 -118.31102905 33.58675293 -117.49578857 33.59912109 C-115.78343612 33.62699077 -114.0712326 33.66568751 -112.35933685 33.71406746 C-109.63148213 33.78622472 -106.90576512 33.81889955 -104.17706299 33.83995056 C-96.42225046 33.90329577 -88.66954517 34.0079795 -80.91699219 34.20874023 C-55.31041097 36.03115094 -55.31041097 36.03115094 -32.7578125 26.265625 C-30.92089271 24.48484476 -29.21394743 22.67054285 -27.5539856 20.7245636 C-25.04854571 17.94410641 -22.13993218 15.89613979 -19.125 13.6875 C-18.11179687 12.91019531 -17.09859375 12.13289062 -16.0546875 11.33203125 C-12.7909138 8.84037792 -9.525852 6.35075234 -6.25 3.875 C-5.26515625 3.12992188 -4.2803125 2.38484375 -3.265625 1.6171875 C-1 0 -1 0 0 0 Z " fill="#F24B58" transform="translate(471,153)"/>
<path d="M0 0 C22.58313558 -0.07007363 45.16625324 -0.12298013 67.74947548 -0.15543652 C78.23520161 -0.17090697 88.72086019 -0.19199994 99.20654297 -0.22631836 C108.34560738 -0.2562152 117.48462288 -0.27557371 126.62373483 -0.28226548 C131.46306118 -0.28617725 136.30224758 -0.29537423 141.14152908 -0.31719017 C145.69690574 -0.33755977 150.25208487 -0.34383282 154.80750275 -0.33932304 C156.47882791 -0.34014803 158.1501597 -0.34611089 159.82144547 -0.35761642 C162.10545889 -0.37256821 164.38872897 -0.36894419 166.67276001 -0.36076355 C167.95036509 -0.36352893 169.22797016 -0.36629431 170.54429054 -0.36914349 C175.6483723 0.17608132 178.87782448 1.78519454 182.34838867 5.54223633 C184.59601121 10.24779109 184.52126586 14.17620601 184.42578125 19.32421875 C184.42084908 20.79904472 184.42084908 20.79904472 184.41581726 22.30366516 C184.40542596 24.37381652 184.38552639 26.44393943 184.35668945 28.51391602 C184.31250454 31.68717408 184.29523243 34.85967506 184.28320312 38.03320312 C184.26978278 40.04688595 184.25486083 42.06055945 184.23828125 44.07421875 C184.23089432 45.02423264 184.22350739 45.97424652 184.21589661 46.95304871 C184.20306137 47.8343898 184.19022614 48.7157309 184.17700195 49.6237793 C184.16223564 50.78577095 184.16223564 50.78577095 184.14717102 51.97123718 C184 54 184 54 183 57 C181.68352881 57.69937532 180.34977849 58.36729133 179 59 C178.67 59.66 178.34 60.32 178 61 C178.86625 61.226875 179.7325 61.45375 180.625 61.6875 C191.21824047 65.80709352 196.20224826 75.74110305 200.54418945 85.60522461 C202.88361116 91.09979102 205.03714774 96.66004638 207.15625 102.2421875 C207.4355687 102.97750702 207.71488739 103.71282654 208.00267029 104.47042847 C209.4056155 108.17218363 210.79618113 111.87798411 212.16821289 115.59130859 C215.20508775 123.7410194 218.57791134 131.51711831 222.59741211 139.23339844 C224 142 224 142 225 145 C196.68000592 145.11675121 168.36004786 145.20494807 140.03986168 145.25906086 C126.89058772 145.28485311 113.7414632 145.32002344 100.59228516 145.37719727 C89.13276083 145.42700061 77.67334473 145.45928358 66.2137152 145.47044247 C60.14470438 145.47696634 54.0760032 145.49232109 48.00709152 145.52865028 C42.29599914 145.5625609 36.58534426 145.57306275 30.87416077 145.56553841 C28.77710722 145.56691514 26.68003921 145.5768767 24.58307266 145.59602737 C21.72072649 145.62088799 18.86003421 145.61493046 15.99765015 145.60127258 C15.16690047 145.61583679 14.33615079 145.630401 13.48022687 145.64540654 C9.34407314 145.59202265 6.77399835 145.22984671 3.50014687 142.58742046 C0.01390131 138.97947918 -0.12469503 137.41392473 -0.12025452 132.52047729 C-0.12162918 131.35657471 -0.12300385 130.19267212 -0.12442017 128.99349976 C-0.12082489 127.71028839 -0.11722961 126.42707703 -0.11352539 125.10498047 C-0.11324343 123.74509686 -0.11340143 122.38521311 -0.1139679 121.02532959 C-0.11425552 117.3272056 -0.10836435 113.62911385 -0.10139394 109.93099737 C-0.09515468 106.0685934 -0.09455615 102.20618875 -0.09336853 98.34378052 C-0.09025691 91.02690113 -0.08204579 83.71003663 -0.07201904 76.3931638 C-0.06085267 68.0643783 -0.05534613 59.7355921 -0.05032361 51.40680099 C-0.03986304 34.27119203 -0.02226686 17.13559759 0 0 Z " fill="#FEB962" transform="translate(40,263)"/>
<path d="M0 0 C1.95350076 -0.00564971 3.90699357 -0.0151894 5.86045837 -0.02832031 C11.15629119 -0.05223708 16.45042771 -0.01993075 21.74607897 0.02387094 C27.28907052 0.06157547 32.83200058 0.05214562 38.37509155 0.04904175 C47.68117405 0.05096735 56.986597 0.08806574 66.29248047 0.14746094 C77.05305722 0.2158435 87.81283534 0.23512899 98.57360804 0.22669232 C108.92620121 0.21916863 119.2785261 0.24012496 129.63105392 0.2762413 C134.03686958 0.29148071 138.44256671 0.29785036 142.84840775 0.29733658 C148.03448839 0.29846658 153.21984731 0.32487441 158.40571785 0.37089539 C160.30962682 0.38390547 162.21361519 0.38844042 164.11756325 0.38392258 C166.71519069 0.37923038 169.31074356 0.40526024 171.90811157 0.4392395 C172.66307124 0.43081437 173.4180309 0.42238924 174.19586813 0.41370881 C178.12618898 0.50091365 179.86392566 0.9792609 182.97875118 3.45651913 C185.44289185 6.65351278 185.71330182 8.40802887 185.87036133 12.41333008 C185.92808212 13.66911362 185.98580292 14.92489716 186.04527283 16.21873474 C186.07949635 17.58438483 186.11038006 18.95012209 186.13818359 20.31591797 C186.1650056 21.3585036 186.1650056 21.3585036 186.19236946 22.42215157 C186.28477454 26.10817117 186.34618597 29.79324869 186.38305664 33.48022461 C186.41831157 36.50728621 186.50825231 39.52464806 186.6496582 42.54858398 C187.75720167 66.72636458 187.75720167 66.72636458 183.3392334 73.77984619 C179.25918389 78.19507948 174.49888905 81.1654378 169.20108032 83.93313599 C166.3627188 85.45101391 163.90535832 87.32693223 161.38427734 89.31982422 C159.88878803 90.41617956 158.39150869 91.51009921 156.89208984 92.60107422 C155.36841174 93.71532861 153.84497176 94.82990872 152.32177734 95.94482422 C151.68224121 96.41082031 151.04270508 96.87681641 150.38378906 97.35693359 C148.08467567 98.94278985 148.08467567 98.94278985 146.64222336 100.55772209 C139.8747038 106.9681904 131.47641323 105.9300557 122.77246094 105.84570312 C121.01748289 105.85056365 119.26251039 105.85800685 117.5075531 105.86782837 C112.7574777 105.88658774 108.00823071 105.86784789 103.2582202 105.84116411 C98.28157191 105.81847946 93.30496274 105.82675423 88.32827759 105.83065796 C79.97408562 105.83242184 71.62021887 105.81030275 63.26611328 105.7734375 C53.61157106 105.73107725 43.95750462 105.72408943 34.30288827 105.73656142 C25.00700315 105.74795444 15.71128534 105.73665254 6.41542435 105.71421432 C2.46259081 105.70493268 -1.49014025 105.70317009 -5.44298172 105.70738602 C-10.09710335 105.71115619 -14.75074137 105.69491135 -19.40475273 105.66326523 C-21.11152966 105.65478861 -22.8183557 105.6530724 -24.52514458 105.65864563 C-26.85718632 105.66510477 -29.18778996 105.64689285 -31.51968384 105.62246704 C-32.82377008 105.6183613 -34.12785633 105.61425556 -35.47146034 105.61002541 C-40.37155862 104.89980286 -43.41290608 102.71152114 -46.82571411 99.21080017 C-48.32419433 96.47886671 -48.41699435 94.45656167 -48.49804688 91.34545898 C-48.53332489 90.18647598 -48.56860291 89.02749298 -48.60494995 87.83338928 C-48.63348557 85.95688942 -48.63348557 85.95688942 -48.66259766 84.04248047 C-48.68444122 82.74720932 -48.70628479 81.45193817 -48.72879028 80.11741638 C-48.76930698 77.37116041 -48.79484037 74.62514668 -48.81347656 71.87866211 C-48.83549163 69.08299079 -48.89084255 66.29122878 -48.97753906 63.49682617 C-49.79412987 36.62911948 -49.79412987 36.62911948 -42.78759766 29.14404297 C-40.91827419 27.35438702 -38.99001883 25.74381493 -36.98291016 24.10107422 C-35.86264376 22.7975979 -34.77536614 21.46373273 -33.74853516 20.08544922 C-33.31927734 19.53630859 -32.89001953 18.98716797 -32.44775391 18.42138672 C-31.84640625 17.64408203 -31.84640625 17.64408203 -31.23291016 16.85107422 C-30.60835937 16.05056641 -30.60835937 16.05056641 -29.97119141 15.23388672 C-29.54708984 14.68990234 -29.12298828 14.14591797 -28.68603516 13.58544922 C-28.26471502 13.07241304 -27.84339489 12.55937687 -27.40930748 12.03079414 C-25.90970701 10.119494 -25.90970701 10.119494 -24.85505104 7.83076286 C-19.38808074 -1.76872029 -9.72742954 -0.13484998 0 0 Z " fill="#FEB961" transform="translate(285.98291015625,67.89892578125)"/>
<path d="M0 0 C1.61751122 0.00282682 3.23503524 0.00122553 4.85253906 -0.00442505 C9.20821009 -0.00727389 13.56108142 0.05117167 17.91610622 0.12131453 C22.48032047 0.18417751 27.04461152 0.18972901 31.60919189 0.2015686 C40.23673555 0.23254861 48.86299963 0.31446887 57.48998189 0.4150635 C67.3181867 0.52715701 77.14645529 0.58189952 86.97514105 0.63201785 C107.17847524 0.73631344 127.38066065 0.91200426 147.58300781 1.13525391 C146.24009535 3.90305254 144.90514125 6.11583303 142.86035156 8.42041016 C142.32611572 9.02820313 141.79187988 9.63599609 141.24145508 10.26220703 C140.67354248 10.9009375 140.10562988 11.53966797 139.52050781 12.19775391 C138.33961507 13.54174797 137.15993405 14.88680764 135.98144531 16.23291016 C135.40233398 16.89436035 134.82322266 17.55581055 134.2265625 18.23730469 C131.2985304 21.61854675 128.48765064 25.09052801 125.68066406 28.57275391 C123.58300781 31.13525391 123.58300781 31.13525391 122.08900452 32.4630127 C118.3182671 36.0687044 117.15651249 38.83154291 116.87353516 44.05126953 C116.8596621 46.38135552 116.87652932 48.7117627 116.91894531 51.04150391 C116.91472565 52.28017212 116.91050598 53.51884033 116.90615845 54.79504395 C116.89714646 58.07416762 116.91148015 61.35194611 116.94061279 64.63092041 C116.98066404 69.24580799 116.99871881 73.86038206 116.98843384 78.47546387 C116.98386868 80.92741254 116.9984732 83.37949235 117.03475952 85.83117676 C117.03267215 92.45231597 116.84438433 96.91145971 112.58300781 102.13525391 C108.01675303 104.94997894 104.57916542 105.50753996 99.25576782 105.49601746 C98.18227083 105.49986237 98.18227083 105.49986237 97.08708704 105.50378495 C94.7008916 105.50870691 92.31533588 105.49225682 89.92919922 105.47583008 C88.21405044 105.47498346 86.49890058 105.47545963 84.78375244 105.47715759 C80.13540009 105.47801761 75.48728043 105.46039069 70.83898211 105.43943572 C65.97830926 105.42067012 61.11763097 105.41891857 56.25692749 105.4153595 C47.05600761 105.4060387 37.85519479 105.38142441 28.65432203 105.35131103 C18.17797651 105.31776814 7.70162585 105.30128128 -2.77476001 105.28622472 C-24.32223046 105.25487492 -45.86960458 105.2021137 -67.41699219 105.13525391 C-67.50978346 97.39870305 -67.58080329 89.66221011 -67.62424088 81.92522907 C-67.64509189 78.33235798 -67.67336268 74.73986836 -67.71875 71.1472168 C-67.7622986 67.67829339 -67.786148 64.20973626 -67.79650116 60.74056053 C-67.80745939 58.77681258 -67.83867144 56.81321143 -67.87017822 54.84968567 C-67.87048035 53.64881821 -67.87078247 52.44795074 -67.87109375 51.21069336 C-67.8799762 50.15590286 -67.88885864 49.10111237 -67.89801025 48.01435852 C-67.00738845 42.68359543 -63.1646948 39.71754583 -59.04199219 36.57275391 C-54.75106913 33.22343252 -50.5963662 29.75603736 -46.47949219 26.19775391 C-41.47636168 21.8823181 -36.44710121 17.61375749 -31.26716995 13.50996971 C-28.38794674 11.18431368 -28.38794674 11.18431368 -25.84424973 8.56041908 C-17.78220185 0.82084841 -11.01553942 -0.27240013 0 0 Z " fill="#FEB962" transform="translate(107.4169921875,67.86474609375)"/>
<path d="M0 0 C22.58316064 -0.06771406 45.16623912 -0.12298011 67.74947548 -0.15543652 C78.23520161 -0.17090697 88.72086019 -0.19199994 99.20654297 -0.22631836 C108.34560738 -0.2562152 117.48462288 -0.27557371 126.62373483 -0.28226548 C131.46306118 -0.28617725 136.30224758 -0.29537423 141.14152908 -0.31719017 C145.69690574 -0.33755977 150.25208487 -0.34383282 154.80750275 -0.33932304 C156.47882791 -0.34014803 158.1501597 -0.34611089 159.82144547 -0.35761642 C162.10545889 -0.37256821 164.38872897 -0.36894419 166.67276001 -0.36076355 C167.95036509 -0.36352893 169.22797016 -0.36629431 170.54429054 -0.36914349 C175.6483723 0.17608132 178.87782448 1.78519454 182.34838867 5.54223633 C184.59601121 10.24779109 184.52126586 14.17620601 184.42578125 19.32421875 C184.42084908 20.79904472 184.42084908 20.79904472 184.41581726 22.30366516 C184.40542596 24.37381652 184.38552639 26.44393943 184.35668945 28.51391602 C184.31250454 31.68717408 184.29523243 34.85967506 184.28320312 38.03320312 C184.26978278 40.04688595 184.25486083 42.06055945 184.23828125 44.07421875 C184.23089432 45.02423264 184.22350739 45.97424652 184.21589661 46.95304871 C184.20306137 47.8343898 184.19022614 48.7157309 184.17700195 49.6237793 C184.16223564 50.78577095 184.16223564 50.78577095 184.14717102 51.97123718 C184 54 184 54 183 57 C182.360625 57.309375 181.72125 57.61875 181.0625 57.9375 C178.513651 59.25054342 178.21754073 60.48374915 177 63 C173.48828619 64.17057127 170.74111486 64.12292377 167.03352356 64.12025452 C166.32042217 64.12110894 165.60732079 64.12196337 164.87261027 64.12284368 C162.47730401 64.124494 160.08206741 64.11898442 157.68676758 64.11352539 C155.97206117 64.1132434 154.25735465 64.11340149 152.54264832 64.1139679 C147.88180705 64.11425539 143.2209914 64.10836634 138.56015611 64.10139394 C133.69144714 64.09515249 128.82273762 64.09455597 123.95402527 64.09336853 C114.73180161 64.09025756 105.50958978 64.0820473 96.28737134 64.07201904 C85.7893169 64.06085067 75.2912619 64.05534562 64.793203 64.05032361 C43.1954606 64.03986451 21.59773441 64.02152191 0 64 C0 42.88 0 21.76 0 0 Z " fill="#FEB961" transform="translate(40,263)"/>
<path d="M0 0 C0.677054 -0.00453111 1.35410799 -0.00906223 2.05167878 -0.01373065 C4.31936289 -0.0263864 6.58680719 -0.02475355 8.85452271 -0.02310181 C10.48082793 -0.02908633 12.10713031 -0.0358917 13.73342896 -0.04345703 C18.15082462 -0.06113189 22.56814282 -0.06581303 26.98557043 -0.0670886 C30.67344104 -0.06898774 34.3612936 -0.07634543 38.04915726 -0.08343279 C46.7502389 -0.09971994 55.45127914 -0.10460144 64.15237427 -0.10317993 C73.12742703 -0.10197834 82.10223937 -0.12308296 91.07723129 -0.15466726 C98.78351055 -0.18082017 106.48971125 -0.19154764 114.19603455 -0.19026911 C118.7983464 -0.1897592 123.40044461 -0.19545875 128.00271225 -0.21662521 C132.33169004 -0.2359911 136.66025002 -0.23614351 140.98924255 -0.22159195 C142.57671341 -0.2195007 144.1642103 -0.22422361 145.75163651 -0.23631287 C147.92182869 -0.25176788 150.09058066 -0.24245764 152.26074219 -0.22705078 C153.47415724 -0.22814032 154.68757229 -0.22922985 155.93775749 -0.2303524 C159.93564617 0.36913622 162.1200397 1.76483254 165.25735474 4.26742554 C165.58735474 4.92742554 165.91735474 5.58742554 166.25735474 6.26742554 C162.95735474 6.26742554 159.65735474 6.26742554 156.25735474 6.26742554 C158.93097445 10.99903907 158.93097445 10.99903907 161.75344849 15.64242554 C167.02421114 24.05461531 170.9298735 32.13439309 168.85891724 42.20492554 C165.54770103 53.55766682 158.97106658 65.60339742 152.25735474 75.26742554 C151.92735474 75.26742554 151.59735474 75.26742554 151.25735474 75.26742554 C151.25735474 70.97742554 151.25735474 66.68742554 151.25735474 62.26742554 C144.82432154 67.48286928 144.82432154 67.48286928 140.25735474 74.26742554 C139.92735474 74.92742554 139.59735474 75.58742554 139.25735474 76.26742554 C134.63735474 76.26742554 130.01735474 76.26742554 125.25735474 76.26742554 C123.68657566 71.24093251 122.80880745 66.50622631 122.25735474 61.26742554 C121.43035773 61.9977235 121.43035773 61.9977235 120.58665371 62.74277496 C117.79941604 64.56717087 116.29479305 64.64852677 112.98857117 64.66183472 C111.92170074 64.67318451 110.85483032 64.6845343 109.75563049 64.69622803 C108.59032303 64.69329742 107.42501556 64.69036682 106.22439575 64.68734741 C104.99313965 64.69581696 103.76188354 64.7042865 102.49331665 64.7130127 C99.11918025 64.73240466 95.74559686 64.73815972 92.37144208 64.73626518 C89.55332839 64.73614546 86.73526642 64.74471015 83.91716713 64.7530427 C77.26807671 64.77227489 70.61911183 64.77516123 63.97000122 64.7684021 C57.11359221 64.76176044 50.25772105 64.78463044 43.40142113 64.82171583 C37.51168295 64.85241564 31.62211777 64.86377262 25.73230118 64.85987902 C22.21591136 64.85781183 18.69994014 64.86328518 15.18362617 64.88777161 C11.26210586 64.91417799 7.3412898 64.90030853 3.41970825 64.88265991 C1.6747834 64.90255478 1.6747834 64.90255478 -0.10539246 64.92285156 C-8.86311025 64.83108339 -8.86311025 64.83108339 -11.94029236 61.85397339 C-14.35578465 58.38751219 -14.87242424 56.69716594 -14.91964722 52.52987671 C-14.93890007 51.05275459 -14.93890007 51.05275459 -14.95854187 49.54579163 C-14.9659288 48.4781105 -14.97331573 47.41042938 -14.98092651 46.31039429 C-14.98899826 45.2152803 -14.99707001 44.12016632 -15.00538635 42.99186707 C-15.01923431 40.67089424 -15.02995326 38.34990098 -15.03781128 36.02890015 C-15.05502481 32.47976071 -15.09890586 28.93155238 -15.14303589 25.38265991 C-15.15316251 23.12941156 -15.16167871 20.87615529 -15.16842651 18.62289429 C-15.1859346 17.56128586 -15.20344269 16.49967743 -15.22148132 15.40589905 C-15.19986895 8.06129956 -15.19986895 8.06129956 -12.96603394 4.18270874 C-8.68876213 0.49815869 -5.64376263 0.01559886 0 0 Z " fill="#FEB961" transform="translate(153.74264526367188,186.73257446289063)"/>
<path d="M0 0 C5.35501122 1.41750297 7.92945988 4.63905685 11 9 C15.45952239 16.84727907 18.49308354 24.85645671 21 33.5 C21.33467285 34.61987305 21.6693457 35.73974609 22.01416016 36.89355469 C22.69283585 39.1678781 23.36689347 41.44358512 24.03613281 43.72070312 C25.20750428 47.70597707 26.40119757 51.68430956 27.59765625 55.66210938 C28.10002737 57.33457606 28.60018305 59.00771053 29.09765625 60.68164062 C30.32710066 64.81413731 31.6090205 68.91806016 33 73 C43.52570714 63.13028594 44.65783198 45.59828126 46 32 C46.99 32 47.98 32 49 32 C50.5703125 33.86328125 50.5703125 33.86328125 52.125 36.3125 C52.90230469 37.51326172 52.90230469 37.51326172 53.6953125 38.73828125 C57.15419512 44.73436818 56.19466893 51.53450332 56.1875 58.25 C56.1882251 58.93261902 56.1889502 59.61523804 56.18969727 60.31854248 C56.18867504 68.98420877 55.88702536 77.35906775 54.4453125 85.91796875 C53.71982431 90.9391107 53.83038682 95.9398735 54 101 C54.23074219 100.34515625 54.46148437 99.6903125 54.69921875 99.015625 C56.52460855 93.90741954 58.44403345 88.86944539 60.5625 83.875 C62.63376624 78.97811747 64.3951839 74.06784032 66 69 C68.87655138 73.31482707 69.00096909 77.60302554 69.625 82.6875 C69.75543701 83.75025146 69.88587402 84.81300293 70.02026367 85.90795898 C72.52153498 108.08655056 73.42222242 133.61511666 61.6875 153.5 C55.5382407 160.98186641 41.13604375 164.06190554 31.86425781 165.28076172 C17.05675517 166.64866792 3.08356347 165.65407913 -11.25 161.6875 C-11.95334473 161.49913574 -12.65668945 161.31077148 -13.38134766 161.11669922 C-18.12575992 159.68818724 -20.77021502 157.70593445 -24 154 C-24.78697266 153.20916016 -24.78697266 153.20916016 -25.58984375 152.40234375 C-35.44257896 141.69284895 -39.57921206 127.76645522 -39.4375 113.5 C-39.43049072 111.94418213 -39.43049072 111.94418213 -39.42333984 110.35693359 C-38.98148019 86.98148019 -38.98148019 86.98148019 -33 81 C-31.68 82.98 -30.36 84.96 -29 87 C-28.70609375 85.56333984 -28.70609375 85.56333984 -28.40625 84.09765625 C-25.05059164 68.76751402 -18.72460881 54.41827979 -9 42 C-8.01 41.505 -8.01 41.505 -7 41 C-7.63573151 44.45023219 -8.51775253 47.71627986 -9.5625 51.0625 C-11.55836371 58.3380623 -12.29448152 65.52843591 -9.625 72.6875 C-8.20705855 75.094258 -8.20705855 75.094258 -6 76 C4.58481255 54.07676365 5.08897458 31.42943259 0.65625 7.73828125 C0 4 0 4 0 0 Z " fill="#F99579" transform="translate(321,278)"/>
<path d="M0 0 C0.16370543 17.07237701 0.28705027 34.14450821 0.3626852 51.21749115 C0.39874137 59.1452614 0.44787597 67.07254328 0.52807617 75 C0.59796622 81.91165072 0.6430356 88.82294768 0.65861946 95.73494196 C0.66772579 99.39317288 0.68904176 103.05039196 0.7401104 106.70829773 C0.79673476 110.79751981 0.79792173 114.88499628 0.79467773 118.97460938 C0.83242813 120.78291229 0.83242813 120.78291229 0.87094116 122.62774658 C0.82121893 128.4236259 0.51657151 132.13349184 -3.3401947 136.62585449 C-4.52678476 137.78569496 -5.74598065 138.91341759 -7 140 C-7.59465341 140.53852852 -8.18930681 141.07705704 -8.80198002 141.6319046 C-10.37462695 143.03225632 -11.98674424 144.36474565 -13.625 145.6875 C-19.67844654 150.63447931 -24.79662826 155.24883634 -28.75 162.125 C-41.53649408 183.62011679 -61.84860482 202.25733876 -86.36547852 208.92358398 C-96.33599445 211.39653509 -105.74987677 212.17243198 -116 212 C-113.46616337 210.31077558 -111.97034201 209.56493774 -109.15625 208.73828125 C-99.87131409 205.90258183 -91.8213811 202.93936127 -84 197 C-83.113125 196.33226562 -82.22625 195.66453125 -81.3125 194.9765625 C-57.99330577 176.62594658 -42.299064 152.30080059 -37.625 122.6875 C-36.0109071 107.43596916 -36.57329292 92.1235852 -39 77 C-41.68611921 79.68611921 -42.46358681 82.80102024 -43.6875 86.3125 C-47.68608626 97.32380064 -52.69018929 108.51478431 -61 117 C-61.66 117 -62.32 117 -63 117 C-62.27554542 112.74281188 -60.96962658 108.75673034 -59.5625 104.6875 C-55.12093725 91.55606093 -53.81964059 79.58845513 -53.8125 65.75 C-53.79413086 63.89955078 -53.79413086 63.89955078 -53.77539062 62.01171875 C-53.75852738 51.32042139 -54.71283168 40.98581665 -58.125 30.8125 C-60 25.15328467 -60 25.15328467 -60 23 C-57.59940183 21.79970092 -56.10639351 21.88540257 -53.4296875 21.90234375 C-52.53378906 21.90556641 -51.63789063 21.90878906 -50.71484375 21.91210938 C-49.77769531 21.92048828 -48.84054687 21.92886719 -47.875 21.9375 C-46.93011719 21.94201172 -45.98523438 21.94652344 -45.01171875 21.95117188 C-42.67441613 21.96297643 -40.33723939 21.97944241 -38 22 C-37.505 22.99 -37.505 22.99 -37 24 C-32.91352156 22.16884384 -29.35398051 19.60242551 -25.6875 17.0625 C-24.99124512 16.58321045 -24.29499023 16.1039209 -23.57763672 15.61010742 C-17.85788477 11.64983312 -12.24481002 7.55269573 -6.69799805 3.35375977 C-2.2138402 0 -2.2138402 0 0 0 Z " fill="#C7152E" transform="translate(472,231)"/>
<path d="M0 0 C1.27361995 2.53529123 2.42881749 5.06313122 3.49142456 7.69543457 C4.1599646 9.3424939 4.1599646 9.3424939 4.8420105 11.02282715 C5.31026245 12.19482666 5.7785144 13.36682617 6.26095581 14.57434082 C6.7485437 15.78050049 7.23613159 16.98666016 7.73849487 18.22937012 C10.70369308 25.59904609 13.55008049 33.00578469 16.32345581 40.44934082 C19.03598582 47.72870187 22.10773457 54.646154 25.72579956 61.51965332 C27.07345581 64.13684082 27.07345581 64.13684082 28.07345581 67.13684082 C-13.83654419 67.13684082 -55.74654419 67.13684082 -98.92654419 67.13684082 C-98.92654419 10.13684082 -98.92654419 10.13684082 -92.92654419 2.13684082 C-88.30882011 -1.05599488 -83.95857891 -1.32450601 -78.49026489 -1.35900879 C-77.25259872 -1.38393402 -77.25259872 -1.38393402 -75.9899292 -1.40936279 C-73.27740387 -1.45972464 -70.56517742 -1.48857103 -67.85232544 -1.51550293 C-65.96235666 -1.54252154 -64.07239786 -1.57024695 -62.18244934 -1.59864807 C-58.22927917 -1.6544497 -54.27617061 -1.69912793 -50.32278442 -1.7364502 C-45.25128954 -1.78559101 -40.1808585 -1.866405 -35.10993671 -1.95596981 C-31.21108687 -2.02069495 -27.31218479 -2.06674399 -23.41301537 -2.10730171 C-21.54259015 -2.12939607 -19.67222858 -2.15779948 -17.80199623 -2.19257927 C-15.19265305 -2.2386992 -12.58432642 -2.25922289 -9.97463989 -2.27307129 C-9.20003922 -2.29209 -8.42543854 -2.3111087 -7.62736511 -2.33070374 C-2.39919274 -2.32025717 -2.39919274 -2.32025717 0 0 Z " fill="#FEB961" transform="translate(236.92654418945313,340.8631591796875)"/>
<path d="M0 0 C7.14699036 6.65969556 9.84386435 17.27913888 10.30126953 26.74414062 C10.48007348 32.32823551 10.52632134 37.91345063 10.5625 43.5 C10.67680413 57.22804195 10.87452383 70.01102388 15.125 83.1875 C15.47820312 84.29480469 15.83140625 85.40210938 16.1953125 86.54296875 C16.59363281 87.75919922 16.59363281 87.75919922 17 89 C17.65355469 87.65808594 17.65355469 87.65808594 18.3203125 86.2890625 C21.53695848 79.74040368 24.83242818 73.35805189 28.73828125 67.18359375 C31.37013043 62.62878356 32.39028132 58.38301067 33.125 53.1875 C33.29257812 52.02605469 33.46015625 50.86460937 33.6328125 49.66796875 C33.75398438 48.78753906 33.87515625 47.90710938 34 47 C34.99 47 35.98 47 37 47 C46.2005435 63.14561396 49.70834997 77.48897494 51 96 C52.12752649 93.77208002 53.25208139 91.54274113 54.375 89.3125 C54.85066406 88.37374023 54.85066406 88.37374023 55.3359375 87.41601562 C57.05472081 83.99635299 58.64469217 80.57992926 60 77 C69.29738128 88.25338772 66.18649809 111.03035894 66.18530273 124.89892578 C66.18750739 127.75958763 66.20579289 130.61987371 66.22460938 133.48046875 C66.28057272 151.25568294 66.28057272 151.25568294 64 160 C63.83363037 160.6820752 63.66726074 161.36415039 63.49584961 162.06689453 C61.46572415 169.90595388 58.61488508 177.39085165 55.125 184.6875 C54.82190918 185.34645264 54.51881836 186.00540527 54.20654297 186.68432617 C51.70456561 191.66832174 48.70583564 194.03475658 44 197 C44 193.88749809 44.36863436 193.00315993 45.8125 190.375 C57.57821593 167.38404272 53.71249127 138.5656337 50 114 C47.44249722 119.74310552 44.89721743 125.49130888 42.375 131.25 C42.0759375 131.930625 41.776875 132.61125 41.46875 133.3125 C39.91827139 136.85253081 38.40886124 140.40112674 37 144 C36.67 144 36.34 144 36 144 C35.79957044 137.39695943 35.89992503 131.08547972 37 124.5625 C38.04469442 117.28776658 38.32009582 110.0511889 38.40942383 102.70407104 C38.43689597 100.7308845 38.4886839 98.75808416 38.54101562 96.78540039 C38.57788904 88.86939478 37.78781319 82.51643792 33 76 C31.515 75.01 31.515 75.01 30 74 C29.87044922 75.4540625 29.87044922 75.4540625 29.73828125 76.9375 C28.38631708 90.41134119 25.50954949 103.4960093 18 115 C17.34 115 16.68 115 16 115 C11.13454826 104.32977937 8.01142542 93.30317 4.80224609 82.05419922 C-0.62041307 59.98550656 -0.62041307 59.98550656 -14.71875 43.25390625 C-15.4715625 42.84011719 -16.224375 42.42632812 -17 42 C-16.87882812 42.5762915 -16.75765625 43.15258301 -16.6328125 43.74633789 C-11.33865906 69.56297169 -10.34159709 93.85314608 -22 118 C-22.99 118 -23.98 118 -25 118 C-29.27373466 113.23314211 -29.32329817 108.56930048 -29.30078125 102.4296875 C-28.79661377 96.68086875 -26.95205804 91.40301778 -25 86 C-25.33 85.67 -25.66 85.34 -26 85 C-34.32627396 98.14078611 -41.56741377 111.15733035 -44.39453125 126.62109375 C-44.59433594 127.40613281 -44.79414063 128.19117188 -45 129 C-45.66 129.33 -46.32 129.66 -47 130 C-47.99 128.02 -48.98 126.04 -50 124 C-56.2906068 142.65301667 -58.89864395 163.71206005 -50 182 C-46.62693858 188.17754302 -42.68067642 193.75196887 -38 199 C-48.03466558 197.66451771 -59.67153445 188.60085545 -66 181 C-68.84881642 176.17763953 -71.0140021 171.22867972 -73 166 C-73.36931641 165.03489502 -73.36931641 165.03489502 -73.74609375 164.05029297 C-79.79047059 147.91425722 -80.28157101 133.04154369 -80 116 C-78.57627079 118.66015497 -77.6185883 121.09633851 -76.96484375 124.0390625 C-76.79533203 124.78414063 -76.62582031 125.52921875 -76.45117188 126.296875 C-76.1969043 127.44929688 -76.1969043 127.44929688 -75.9375 128.625 C-74.88684918 133.95231048 -74.88684918 133.95231048 -73 139 C-72.98969254 138.32507507 -72.97938507 137.65015015 -72.96876526 136.95477295 C-72.85993355 129.88089798 -72.74540604 122.80713094 -72.62768555 115.73339844 C-72.58458047 113.099307 -72.54289011 110.46519199 -72.50268555 107.83105469 C-72.44438621 104.02792277 -72.38086892 100.22490686 -72.31640625 96.421875 C-72.29969376 95.25887878 -72.28298126 94.09588257 -72.26576233 92.89764404 C-72.13516507 85.56243668 -71.70418157 78.30253931 -71 71 C-67.99253393 72.50373304 -67.90050861 74.68215442 -66.8125 77.8125 C-62.58541369 89.13860479 -56.83824869 99.72102972 -47 107 C-47.00523682 105.97640381 -47.01047363 104.95280762 -47.01586914 103.89819336 C-47.03406262 100.07577398 -47.04548416 96.25335838 -47.05493164 92.4309082 C-47.05993919 90.78116206 -47.06674716 89.1314203 -47.07543945 87.48168945 C-47.08766254 85.10106315 -47.09326422 82.72049587 -47.09765625 80.33984375 C-47.10281754 79.61039047 -47.10797882 78.88093719 -47.11329651 78.12937927 C-47.11377964 73.65058638 -46.73285068 69.41992641 -46 65 C-45.34 65 -44.68 65 -44 65 C-43.01836578 66.93625098 -42.03977546 68.87404539 -41.0625 70.8125 C-40.51722656 71.89144531 -39.97195313 72.97039062 -39.41015625 74.08203125 C-38 77 -38 77 -37 80 C-36.34 80 -35.68 80 -35 80 C-34.979375 78.845 -34.95875 77.69 -34.9375 76.5 C-33.4146613 62.88024546 -24.2584728 48.82903926 -16.4375 38 C-8.74357484 27.11172198 -5.06590094 15.47679663 -1.5690918 2.7590332 C-1 1 -1 1 0 0 Z " fill="#F6766B" transform="translate(338,236)"/>
<path d="M0 0 C1.15400927 0.00129972 1.15400927 0.00129972 2.33133185 0.0026257 C3.1426965 -0.00034542 3.95406114 -0.00331654 4.7900126 -0.0063777 C7.53000236 -0.01510339 10.26994864 -0.01657619 13.00995123 -0.01806521 C14.96579834 -0.02269064 16.92164455 -0.02771492 18.87748969 -0.03311038 C24.20597402 -0.04626263 29.53444573 -0.05268479 34.86294377 -0.05712104 C38.18820965 -0.06004712 41.51347204 -0.06415102 44.83873618 -0.06862521 C55.23180255 -0.08230737 65.624861 -0.0919706 76.01793575 -0.0958271 C88.03553306 -0.10031027 100.05301677 -0.11786718 112.07057953 -0.1468277 C121.34615605 -0.16840838 130.62170053 -0.17852944 139.89730191 -0.17986822 C145.44352614 -0.18091882 150.98964368 -0.18688048 156.53584158 -0.20468783 C161.75113081 -0.22110624 166.96623245 -0.22335448 172.18153822 -0.21454883 C174.09922723 -0.2137751 176.01692607 -0.21816495 177.93458998 -0.22800708 C180.54582378 -0.24062627 183.15638308 -0.23490494 185.76761115 -0.22442508 C186.53248921 -0.23248148 187.29736728 -0.24053789 188.08542347 -0.24883842 C193.22677212 -0.20033713 193.22677212 -0.20033713 195.67075789 1.66603589 C196.00263798 2.15345635 196.33451807 2.64087682 196.67645514 3.1430676 C195.94684577 3.38927854 195.21723639 3.63548947 194.46551764 3.88916135 C191.37488774 5.27864622 189.50500644 6.87920708 187.05145514 9.2055676 C183.51654197 12.48349154 179.93016039 15.61777257 176.17645514 18.6430676 C172.55798556 21.56939672 169.0517583 24.56904296 165.61395514 27.7055676 C162.22776593 30.76284353 158.83917578 33.81207371 155.36395514 36.7680676 C154.19413092 37.77740354 154.19413092 37.77740354 153.00067389 38.8071301 C149.9788872 40.54402262 149.0403262 39.85104204 145.67645514 39.1430676 C143.18905091 39.04240222 140.72895008 38.98839658 138.24168646 38.98484921 C137.50237491 38.97991124 136.76306337 38.97497326 136.00134844 38.96988565 C133.52936472 38.95455378 131.05740689 38.94616175 128.58539069 38.93774533 C126.81127441 38.92816342 125.0371604 38.91815315 123.26304877 38.90774655 C118.4494633 38.88072539 113.63586806 38.85970072 108.82224882 38.83974457 C103.79070741 38.81786782 98.75919605 38.79048739 93.72767889 38.76368833 C84.20096665 38.71378429 74.6742377 38.66883695 65.14749283 38.62566596 C54.30113051 38.57627404 43.45479835 38.52136315 32.60846519 38.46598637 C10.29782331 38.35220146 -12.0128475 38.2453548 -34.32354486 38.1430676 C-33.00336453 35.43349682 -31.67423603 33.16708912 -29.74151361 30.85009885 C-29.22749994 30.22756223 -28.71348627 29.60502561 -28.18389642 28.96362424 C-27.63185541 28.30096555 -27.07981439 27.63830686 -26.51104486 26.9555676 C-20.97709682 20.23879696 -15.63166957 13.40012368 -10.37505853 6.4646008 C-9.85790277 5.78228391 -9.34074701 5.09996701 -8.80791986 4.39697385 C-8.35126947 3.79183957 -7.89461908 3.18670529 -7.4241308 2.56323361 C-5.18732067 -0.32308504 -3.62127707 0.02006219 0 0 Z " fill="#FED375" transform="translate(272.32354485988617,68.8569324016571)"/>
<path d="M0 0 C1.01096207 -0.00512655 1.01096207 -0.00512655 2.04234761 -0.01035666 C4.29365799 -0.01692899 6.54376772 0.00502769 8.79496765 0.0269165 C10.41144787 0.02804513 12.02793015 0.02741082 13.64440918 0.02514648 C18.02845069 0.023999 22.41205429 0.04751376 26.79599404 0.07544231 C31.37905929 0.10045026 35.96213462 0.10279749 40.54525757 0.10754395 C49.22209985 0.11997551 57.89874049 0.15279956 66.57549399 0.1929419 C76.45447451 0.23765399 86.33346467 0.25964524 96.2125212 0.27972364 C116.53267773 0.32153203 136.85265276 0.39188762 157.1726532 0.48101807 C155.82974074 3.2488167 154.49478664 5.46159719 152.44999695 7.76617432 C151.64876404 8.67774292 151.64876404 8.67774292 150.8313446 9.60772705 C149.97935486 10.5659436 149.97935486 10.5659436 149.1101532 11.54351807 C144.41524936 16.88606191 139.82240304 22.27535784 135.3679657 27.82086182 C134.28128601 29.13763916 134.28128601 29.13763916 133.1726532 30.48101807 C132.58536942 31.46518707 132.58536942 31.46518707 131.98622131 32.46923828 C129.39462808 36.27613459 127.46846668 38.21943777 122.86360168 39.14900208 C119.40504484 39.29019307 116.01311643 39.30272992 112.55691528 39.17583656 C110.2240096 39.0927902 107.89572402 39.06363146 105.56144714 39.04820251 C98.93301498 38.99386814 92.30769637 38.83656069 85.68144226 38.66339111 C62.72773178 37.14970103 62.72773178 37.14970103 42.64616394 46.3394928 C40.98348935 47.92047512 40.98348935 47.92047512 39.1726532 50.48101807 C39.1726532 51.47101807 39.1726532 52.46101807 39.1726532 53.48101807 C42.4726532 54.47101807 45.7726532 55.46101807 49.1726532 56.48101807 C49.1726532 56.81101807 49.1726532 57.14101807 49.1726532 57.48101807 C45.2126532 57.15101807 41.2526532 56.82101807 37.1726532 56.48101807 C39.90948312 63.68292792 39.90948312 63.68292792 43.4851532 70.48101807 C44.0420282 71.47101807 44.5989032 72.46101807 45.1726532 73.48101807 C44.8426532 74.14101807 44.5126532 74.80101807 44.1726532 75.48101807 C43.41339539 74.48199463 42.65413757 73.48297119 41.87187195 72.45367432 C40.86833034 71.15000812 39.86440403 69.846638 38.8601532 68.54351807 C38.36064148 67.8841626 37.86112976 67.22480713 37.34648132 66.54547119 C36.85986023 65.91705322 36.37323914 65.28863525 35.87187195 64.64117432 C35.42674255 64.0598877 34.98161316 63.47860107 34.522995 62.87969971 C33.11398278 61.20431127 33.11398278 61.20431127 30.1726532 60.48101807 C29.5126532 63.45101807 28.8526532 66.42101807 28.1726532 69.48101807 C27.8426532 69.48101807 27.5126532 69.48101807 27.1726532 69.48101807 C27.6676532 64.53101807 27.6676532 64.53101807 28.1726532 59.48101807 C22.10137313 61.78981471 16.53486551 64.24617093 10.9851532 67.62554932 C10.0879657 68.04900635 10.0879657 68.04900635 9.1726532 68.48101807 C8.1826532 67.98601807 8.1826532 67.98601807 7.1726532 67.48101807 C7.89968445 66.95145508 7.89968445 66.95145508 8.6414032 66.41119385 C10.82343308 64.81610903 12.99807215 63.2112409 15.1726532 61.60601807 C16.3173407 60.77263916 16.3173407 60.77263916 17.4851532 59.92242432 C18.2070282 59.38746338 18.9289032 58.85250244 19.6726532 58.30133057 C20.3429657 57.80906982 21.0132782 57.31680908 21.7039032 56.80963135 C22.1885907 56.37118896 22.6732782 55.93274658 23.1726532 55.48101807 C23.1726532 54.82101807 23.1726532 54.16101807 23.1726532 53.48101807 C20.5326532 52.49101807 17.8926532 51.50101807 15.1726532 50.48101807 C15.1726532 50.15101807 15.1726532 49.82101807 15.1726532 49.48101807 C18.1426532 49.48101807 21.1126532 49.48101807 24.1726532 49.48101807 C23.60453725 45.50420642 22.70280132 42.63760519 20.1726532 39.48101807 C16.97295635 38.7525707 16.97295635 38.7525707 13.22270203 38.91339111 C12.52000687 38.91266098 11.81731171 38.91193085 11.09332275 38.91117859 C8.77132379 38.91466137 6.45133271 38.95354972 4.12968445 38.99273682 C2.51972551 39.00206262 0.90975237 39.00917983 -0.70022583 39.01417542 C-4.93715104 39.03326391 -9.17321882 39.08237959 -13.4098053 39.13769531 C-17.73311259 39.18884852 -22.05655847 39.21168099 -26.38008118 39.23687744 C-34.86289648 39.2904975 -43.34501498 39.37583148 -51.8273468 39.48101807 C-44.18155374 31.8049541 -36.16193636 24.65384757 -27.7335968 17.84820557 C-23.88624243 14.71447338 -20.10657279 11.50411569 -16.32978821 8.28594971 C-14.83303922 7.01284477 -13.33031228 5.74677811 -11.8273468 4.48101807 C-11.08241376 3.7797794 -10.33748072 3.07854073 -9.56997395 2.3560524 C-6.12965793 0.00403359 -4.14360622 -0.01268127 0 0 Z " fill="#FED475" transform="translate(97.82734680175781,68.51898193359375)"/>
<path d="M0 0 C0.4197361 8.37965209 0.73811523 16.75482741 0.93261909 25.14243603 C1.0260558 29.03911524 1.15231051 32.92854359 1.35791016 36.82104492 C2.64504047 61.84312799 2.64504047 61.84312799 -1.66973877 68.62411499 C-5.76663398 72.85374821 -10.52119312 75.51823152 -15.8324585 77.9670105 C-18.62292113 79.29686674 -20.97556368 81.01317157 -23.4140625 82.90234375 C-25.53471012 84.43096138 -27.65546363 85.95942165 -29.77734375 87.48632812 C-30.48246094 87.99486328 -31.18757813 88.50339844 -31.9140625 89.02734375 C-32.59863525 89.51372314 -33.28320801 90.00010254 -33.98852539 90.5012207 C-36.02206586 91.97371731 -36.02206586 91.97371731 -37.88452148 93.66088867 C-45.10103374 99.84289512 -53.07474234 99.77950412 -62.25 99.2890625 C-66.4815423 98.67275272 -68.80117511 97.89923832 -71.625 94.6484375 C-74.08043479 91.04755504 -75.96054048 87.17406008 -77.83007812 83.24462891 C-79.63653871 79.77872769 -81.99197067 76.92464191 -84.5625 74 C-85.02205078 73.472854 -85.48160156 72.94570801 -85.95507812 72.40258789 C-99.52480106 57.15112653 -116.50812023 46.94667518 -136 41 C-129.24960113 34.06715792 -129.24960113 34.06715792 -124.57139587 33.81573486 C-123.12547287 33.83488032 -121.67967032 33.86490717 -120.23413086 33.90332031 C-118.59431812 33.92912038 -116.95450163 33.95468275 -115.31468201 33.9800415 C-114.44409086 33.99694283 -113.57349972 34.01384415 -112.67652702 34.03125763 C-108.03662786 34.11145131 -103.39632335 34.12661665 -98.75585938 34.15234375 C-92.8632867 34.18780859 -86.97307722 34.24182909 -81.08178711 34.37353516 C-55.37764143 36.09382494 -55.37764143 36.09382494 -32.74609375 26.25390625 C-30.91204354 24.47597305 -29.20797508 22.66472038 -27.55096436 20.72154236 C-25.04697281 17.94215707 -22.13839307 15.8951963 -19.125 13.6875 C-18.11179687 12.91019531 -17.09859375 12.13289062 -16.0546875 11.33203125 C-12.7909138 8.84037792 -9.525852 6.35075234 -6.25 3.875 C-5.26515625 3.12992188 -4.2803125 2.38484375 -3.265625 1.6171875 C-1 0 -1 0 0 0 Z " fill="#FEB963" transform="translate(471,153)"/>
<path d="M0 0 C17.93755084 -0.16043524 17.93755084 -0.16043524 25.60742188 -0.1953125 C30.83276702 -0.21918668 36.05783071 -0.24737277 41.28295898 -0.30175781 C45.49752822 -0.34534805 49.71179546 -0.36916485 53.9265728 -0.37950897 C55.53129261 -0.38687679 57.13599664 -0.40126452 58.74058723 -0.42292023 C60.99546628 -0.45213086 63.24911137 -0.45594886 65.50415039 -0.45410156 C66.78544327 -0.46298401 68.06673615 -0.47186646 69.38685608 -0.48101807 C73.93620574 0.12463713 76.21678374 1.42199565 80 4 C84.18586797 9.47258604 84.58392552 13.90703127 84.49609375 20.66015625 C84.49754898 21.56825546 84.49900421 22.47635468 84.50050354 23.41197205 C84.49885106 25.32228826 84.48736316 27.23261869 84.46655273 29.14282227 C84.43755094 32.05738123 84.4459671 34.97012369 84.45898438 37.88476562 C84.45274738 39.74740462 84.44435674 41.61003791 84.43359375 43.47265625 C84.43652939 44.33842789 84.43946503 45.20419952 84.44248962 46.09620667 C84.36434212 51.13484345 83.78904309 54.63608588 81 59 C76.05475199 63.57435441 72.57140547 64.12490775 65.95825195 64.11352539 C64.88957886 64.11374443 64.88957886 64.11374443 63.79931641 64.1139679 C61.445607 64.11327151 59.09197683 64.10549192 56.73828125 64.09765625 C55.10589135 64.0957911 53.47350089 64.09436765 51.84111023 64.09336853 C47.54538425 64.08955101 43.24969211 64.07972724 38.95397949 64.06866455 C33.79944304 64.05663516 28.64489528 64.05204454 23.49034882 64.04621124 C15.66020902 64.0365151 7.83014344 64.01735319 0 64 C0 42.88 0 21.76 0 0 Z " fill="#FEB962" transform="translate(40,187)"/>
<path d="M0 0 C0.66 0 1.32 0 2 0 C2.38671875 1.03898437 2.7734375 2.07796875 3.171875 3.1484375 C3.42235596 3.81915283 3.67283691 4.48986816 3.9309082 5.1809082 C4.48040832 6.65284787 5.02840471 8.12534972 5.57495117 9.59838867 C7.05144819 13.55648115 8.61319809 17.44360967 10.3125 21.3125 C12.41031987 26.42212765 12.79163355 31.51996242 13 37 C14.45932573 35.06324055 15.91749264 33.12562712 17.375 31.1875 C17.99375 30.36668945 17.99375 30.36668945 18.625 29.52929688 C20.48407032 27.05553395 22.28289972 24.57565041 24 22 C28.20900519 23.40300173 29.13057572 26.33126961 31.0625 30.0625 C31.41376953 30.70638672 31.76503906 31.35027344 32.12695312 32.01367188 C36.80114071 40.87607291 39.27300082 51.25056094 36.38330078 61.10253906 C34.29982453 66.90105159 31.82908947 72.98809685 26.6875 76.64453125 C23.7229786 77.58484038 21.11002119 77.83384323 18 78 C16.55573021 78.14058963 15.11173616 78.28402922 13.66796875 78.4296875 C2.00031727 79.44867527 -13.23337354 80.29181216 -24 75 C-25.57169822 72.64687583 -26.69020728 70.67024584 -27.8125 68.125 C-28.11091797 67.49980469 -28.40933594 66.87460937 -28.71679688 66.23046875 C-32.24191895 58.70278144 -33.65391512 51.21511109 -31.08203125 43.10546875 C-27.29360898 34.80649093 -21.51895301 28.37453839 -15.48535156 21.66210938 C-9.43331035 14.88987128 -4.01736341 8.1760411 0 0 Z " fill="#FEDD9A" transform="translate(337,365)"/>
<path d="M0 0 C6.57689317 3.02537086 10.29522549 7.46755738 14.125 13.4375 C14.125 14.0975 14.125 14.7575 14.125 15.4375 C13.07565781 15.44114563 12.02631561 15.44479126 10.94517517 15.44854736 C1.04320599 15.48553142 -8.85845317 15.54334147 -18.7601862 15.62140274 C-23.8504723 15.66086693 -28.94058568 15.69306067 -34.03100586 15.70849609 C-38.94602898 15.72366955 -43.86057723 15.75812757 -48.77538872 15.80580902 C-50.64796248 15.82061567 -52.52060405 15.8285406 -54.39323616 15.82938385 C-57.02186493 15.83175743 -59.64918552 15.85886771 -62.27758789 15.89160156 C-63.04723373 15.8865712 -63.81687958 15.88154083 -64.60984802 15.87635803 C-71.22373895 16.00330967 -75.55417815 18.08314572 -80.27441406 22.87158203 C-82.72390593 28.32876297 -82.47839529 33.57477745 -82.484375 39.4921875 C-82.50091125 40.74887238 -82.51744751 42.00555725 -82.53448486 43.30032349 C-82.57474148 46.62459509 -82.5981224 49.94810262 -82.61322021 53.27252197 C-82.63284705 56.67142193 -82.67481047 60.07003999 -82.71484375 63.46875 C-82.78873437 70.12496874 -82.83830402 76.78097647 -82.875 83.4375 C-86.835 83.4375 -90.795 83.4375 -94.875 83.4375 C-94.8843457 81.71192871 -94.89369141 79.98635742 -94.90332031 78.20849609 C-94.93891171 72.49264844 -94.99275007 66.77716537 -95.05890274 61.06159019 C-95.09832995 57.59784489 -95.13054121 54.13435196 -95.14599609 50.67041016 C-95.16410553 46.68359063 -95.21407812 42.69747044 -95.265625 38.7109375 C-95.26685364 37.47322601 -95.26808228 36.23551453 -95.26934814 34.96029663 C-95.32428493 26.34114208 -95.32428493 26.34114208 -99.875 19.4375 C-104.52326623 16.61996453 -108.03981642 16.05059077 -113.44091797 16.00512695 C-114.17331192 15.9949353 -114.90570587 15.98474365 -115.66029358 15.97424316 C-118.06267058 15.94423332 -120.46464808 15.93486595 -122.8671875 15.92578125 C-124.54014397 15.9089256 -126.21308784 15.89077416 -127.88601685 15.87138367 C-132.27535058 15.82397359 -136.66463323 15.79410622 -141.05413818 15.76794434 C-145.53879889 15.7380933 -150.02328375 15.69157861 -154.5078125 15.64648438 C-163.29678842 15.56055361 -172.08578051 15.49316305 -180.875 15.4375 C-180.875 11.1475 -180.875 6.8575 -180.875 2.4375 C-179.98193775 2.43418985 -179.0888755 2.43087971 -178.16875076 2.42746925 C-156.4530778 2.34630006 -134.73747505 2.25422764 -113.02190018 2.14997292 C-102.52047436 2.09982021 -92.01905645 2.0533776 -81.51757812 2.015625 C-72.36603878 1.98271604 -63.21456034 1.9428909 -54.06308818 1.89470994 C-49.216065 1.86943407 -44.36908228 1.84765598 -39.5220108 1.83415604 C-34.96169616 1.82134558 -30.40152023 1.79930214 -25.84128189 1.77011681 C-24.16591769 1.76103308 -22.49053114 1.75534895 -20.81514359 1.75328636 C-18.53051444 1.74996942 -16.24627991 1.7345077 -13.96173096 1.7159729 C-12.6822823 1.71044214 -11.40283363 1.70491138 -10.0846138 1.69921303 C-6.10876955 1.3750213 -3.87204055 -0.75757315 0 0 Z " fill="#E3E6EE" transform="translate(220.875,324.5625)"/>
<path d="M0 0 C7.14699036 6.65969556 9.84386435 17.27913888 10.30126953 26.74414062 C10.48007348 32.32823551 10.52632134 37.91345063 10.5625 43.5 C10.67680413 57.22804195 10.87452383 70.01102388 15.125 83.1875 C15.47820312 84.29480469 15.83140625 85.40210938 16.1953125 86.54296875 C16.46085937 87.35378906 16.72640625 88.16460937 17 89 C17.43570312 88.10539062 17.87140625 87.21078125 18.3203125 86.2890625 C21.53695848 79.74040368 24.83242818 73.35805189 28.73828125 67.18359375 C31.37013043 62.62878356 32.39028132 58.38301067 33.125 53.1875 C33.29257812 52.02605469 33.46015625 50.86460937 33.6328125 49.66796875 C33.75398438 48.78753906 33.87515625 47.90710938 34 47 C34.99 47 35.98 47 37 47 C46.2005435 63.14561396 49.70834997 77.48897494 51 96 C52.12752649 93.77208002 53.25208139 91.54274113 54.375 89.3125 C54.85066406 88.37374023 54.85066406 88.37374023 55.3359375 87.41601562 C57.05472081 83.99635299 58.64469217 80.57992926 60 77 C69.29738128 88.25338772 66.18649809 111.03035894 66.18530273 124.89892578 C66.18750739 127.75958763 66.20579289 130.61987371 66.22460938 133.48046875 C66.28057272 151.25568294 66.28057272 151.25568294 64 160 C63.75044556 161.02311279 63.75044556 161.02311279 63.49584961 162.06689453 C61.46572415 169.90595388 58.61488508 177.39085165 55.125 184.6875 C54.82190918 185.34645264 54.51881836 186.00540527 54.20654297 186.68432617 C51.70456561 191.66832174 48.70583564 194.03475658 44 197 C44 193.88749809 44.36863436 193.00315993 45.8125 190.375 C57.57821593 167.38404272 53.71249127 138.5656337 50 114 C47.44249722 119.74310552 44.89721743 125.49130888 42.375 131.25 C42.0759375 131.930625 41.776875 132.61125 41.46875 133.3125 C39.91827139 136.85253081 38.40886124 140.40112674 37 144 C36.67 144 36.34 144 36 144 C35.79957044 137.39695943 35.89992503 131.08547972 37 124.5625 C38.04469442 117.28776658 38.32009582 110.0511889 38.40942383 102.70407104 C38.43689597 100.7308845 38.4886839 98.75808416 38.54101562 96.78540039 C38.57788904 88.86939478 37.78781319 82.51643792 33 76 C32.01 75.34 31.02 74.68 30 74 C29.91363281 74.969375 29.82726562 75.93875 29.73828125 76.9375 C28.38631708 90.41134119 25.50954949 103.4960093 18 115 C17.34 115 16.68 115 16 115 C4.91957981 90.52877413 4.91957981 90.52877413 5.921875 78.2734375 C6.07650949 75.8380795 6.07650949 75.8380795 5.5065918 72.81665039 C5.00387687 69.02920827 4.91752525 65.47754503 4.97265625 61.66015625 C4.98532333 60.25195577 4.9976827 58.84375249 5.00976562 57.43554688 C5.03428338 55.26414761 5.06202499 53.0929042 5.09594727 50.92163086 C5.30123762 36.84065197 5.01373214 23.55686772 -1.01953125 10.5703125 C-2.42733454 6.87973656 -2.15893785 4.72515736 -1 1 C-0.67 0.67 -0.34 0.34 0 0 Z " fill="#F7776C" transform="translate(338,236)"/>
<path d="M0 0 C0.16370543 17.07237701 0.28705027 34.14450821 0.3626852 51.21749115 C0.39874137 59.1452614 0.44787597 67.07254328 0.52807617 75 C0.59796622 81.91165072 0.6430356 88.82294768 0.65861946 95.73494196 C0.66772579 99.39317288 0.68904176 103.05039196 0.7401104 106.70829773 C0.79673476 110.79751981 0.79792173 114.88499628 0.79467773 118.97460938 C0.81984467 120.18014465 0.8450116 121.38567993 0.87094116 122.62774658 C0.82124295 128.42082613 0.51884626 132.13049715 -3.33799744 136.6192627 C-4.52685032 137.77968919 -5.74692784 138.90923376 -7 140 C-7.90032629 140.83283131 -7.90032629 140.83283131 -8.81884098 141.68248749 C-10.40331419 143.1323733 -12.03145782 144.50773386 -13.6875 145.875 C-14.51991211 146.58269531 -14.51991211 146.58269531 -15.36914062 147.3046875 C-18.10529585 149.59511946 -20.70159854 151.60359646 -24 153 C-23.30859354 148.90533727 -22.04041016 145.21131164 -20.625 141.3125 C-13.4303855 120.20777669 -13.35957514 97.84254916 -17 76 C-21.29 75.67 -25.58 75.34 -30 75 C-30.05607422 73.02193359 -30.05607422 73.02193359 -30.11328125 71.00390625 C-30.65766331 55.11717175 -32.88584939 40.37366899 -37 25 C-36.47269287 24.63350342 -35.94538574 24.26700684 -35.40209961 23.8894043 C-32.91253787 22.15738256 -30.4247291 20.4228699 -27.9375 18.6875 C-27.03531738 18.05827637 -26.13313477 17.42905273 -25.20361328 16.78076172 C-18.88717686 12.36026114 -12.64209805 7.85650767 -6.49584961 3.2019043 C-2.2134923 0 -2.2134923 0 0 0 Z " fill="#DC863A" transform="translate(472,231)"/>
<path d="M0 0 C3.511942 7.023884 1.84700866 18.93698603 2.01475048 26.8637352 C2.09707814 30.67412115 2.2130251 34.47653066 2.4128418 38.28271484 C3.6622138 62.70011676 3.6622138 62.70011676 -0.66390991 69.68746948 C-4.73790377 74.11307476 -9.5038126 77.07250827 -14.80874634 79.83184814 C-17.66675736 81.35544668 -20.13404037 83.24533144 -22.66796875 85.25390625 C-24.17260447 86.35932712 -25.67900102 87.46235694 -27.1875 88.5625 C-27.95384766 89.12517578 -28.72019531 89.68785156 -29.50976562 90.26757812 C-31.66916901 91.85064801 -33.83346331 93.42671218 -36 95 C-36.68271973 95.49870605 -37.36543945 95.99741211 -38.06884766 96.51123047 C-42.88259038 100 -42.88259038 100 -44 100 C-44.00808685 99.28669525 -44.01617371 98.5733905 -44.02450562 97.83847046 C-44.1026043 91.10019636 -44.18994051 84.36211177 -44.28752708 77.62409019 C-44.33736909 74.16040387 -44.38369952 70.69674627 -44.421875 67.23291016 C-44.46596918 63.24624767 -44.5255705 59.25988809 -44.5859375 55.2734375 C-44.60326431 53.41687027 -44.60326431 53.41687027 -44.62094116 51.52279663 C-44.64081085 50.3620462 -44.66068054 49.20129578 -44.68115234 48.00537109 C-44.70113785 46.47981094 -44.70113785 46.47981094 -44.7215271 44.9234314 C-45.02745592 41.7117655 -45.8744637 39.01422231 -47 36 C-46.33355469 35.46632812 -45.66710937 34.93265625 -44.98046875 34.3828125 C-40.02291059 30.37516409 -35.19061256 26.31834172 -30.5 22 C-26.01717874 17.87478271 -21.3935917 13.99275707 -16.640625 10.18359375 C-13.30009225 7.42123013 -10.17278799 4.45939209 -7.0703125 1.43359375 C-4.53543765 -0.32168751 -3.01993733 -0.28936682 0 0 Z " fill="#DC8536" transform="translate(470,72)"/>
<path d="M0 0 C0.4197361 8.37965209 0.73811523 16.75482741 0.93261909 25.14243603 C1.0260558 29.03911524 1.15231051 32.92854359 1.35791016 36.82104492 C2.64516934 61.84543124 2.64516934 61.84543124 -1.67074585 68.62411499 C-5.76907983 72.85281252 -10.5245721 75.51711772 -15.83569336 77.9670105 C-18.61767689 79.29480746 -20.95461514 81.0089945 -23.37890625 82.90234375 C-24.09240234 83.41990234 -24.80589844 83.93746094 -25.54101562 84.47070312 C-26.92470053 85.47471024 -28.30746972 86.47998024 -29.68945312 87.48632812 C-33.3339159 90.12680667 -37.01192062 92.69623921 -40.76147461 95.18579102 C-41.55903671 95.71584244 -42.35659882 96.24589386 -43.17832947 96.79200745 C-43.77948074 97.19064499 -44.38063202 97.58928253 -45 98 C-45.3496353 89.86351361 -45.61505255 81.73022577 -45.77718258 73.58805466 C-45.85505998 69.80565566 -45.96035185 66.02843816 -46.1315918 62.24902344 C-47.2982734 35.80720582 -47.2982734 35.80720582 -41.8996582 29.51049805 C-38.83687935 26.76279542 -35.50892382 24.761567 -31.83200073 22.93902588 C-29.3808992 21.68266843 -27.35358129 20.05410351 -25.23828125 18.30078125 C-23.93119809 17.30270612 -22.62265372 16.30654105 -21.3125 15.3125 C-20.61189453 14.77923096 -19.91128906 14.24596191 -19.18945312 13.6965332 C-17.12787676 12.12893501 -15.0640376 10.56435521 -13 9 C-12.05906494 8.28408691 -12.05906494 8.28408691 -11.09912109 7.55371094 C-9.40147132 6.26223041 -7.70133665 4.97411793 -6 3.6875 C-5.05125 2.96949219 -4.1025 2.25148437 -3.125 1.51171875 C-1 0 -1 0 0 0 Z " fill="#DC8536" transform="translate(471,153)"/>
<path d="M0 0 C0.33 0 0.66 0 1 0 C1.20302734 1.12535156 1.20302734 1.12535156 1.41015625 2.2734375 C4.34948386 16.24844424 13.0323692 24.47428386 23 34 C23 31.69 23 29.38 23 27 C34.86585634 36.34120605 44.31127824 48.8752875 47 64 C47.27893804 66.92365915 47.33475482 69.81427196 47.3125 72.75 C47.30686035 73.53133301 47.3012207 74.31266602 47.29541016 75.11767578 C46.96481832 91.03518168 46.96481832 91.03518168 41.375 96.625 C37.30811395 98.2818795 33.32186179 99.27008556 29 100 C29.75796875 98.60201172 29.75796875 98.60201172 30.53125 97.17578125 C35.84591594 86.93456874 37.84791061 78.5118789 34.9375 67 C32.77525657 60.63922563 29.32462143 54.81125609 26 49 C25.34 49 24.68 49 24 49 C22.58183509 50.81704071 22.58183509 50.81704071 21.1875 53.125 C18.68009566 57.01516409 16.09116155 60.55556284 13 64 C12.67 64 12.34 64 12 64 C11.98074463 63.27369385 11.96148926 62.5473877 11.94165039 61.79907227 C11.52784358 53.74694695 9.59543784 47.31246968 6.4375 39.9375 C5.59863771 37.92754013 4.76380023 35.9158943 3.93359375 33.90234375 C3.56290771 33.03085693 3.19222168 32.15937012 2.81030273 31.26147461 C2 29 2 29 2 26 C1.34 26 0.68 26 0 26 C-0.2371875 26.86238281 -0.474375 27.72476562 -0.71875 28.61328125 C-2.15645441 32.41355479 -3.99360071 34.99501357 -6.5 38.1875 C-6.93997314 38.75065918 -7.37994629 39.31381836 -7.83325195 39.89404297 C-10.79172664 43.63012279 -13.92796306 47.14583117 -17.1875 50.625 C-25.13434109 59.1850619 -31.534335 68.05516147 -31.32421875 80.015625 C-30.67128355 86.02577556 -28.48906594 91.54783891 -25.36328125 96.6953125 C-24 99 -24 99 -24 101 C-27.13968669 100.63370322 -29.22463968 100.38768016 -32 99 C-33.96336926 96.20248253 -34.97083953 93.24032704 -36 90 C-36.35449219 89.10667969 -36.70898438 88.21335937 -37.07421875 87.29296875 C-40.65460267 74.55767912 -38.11099755 60.8678657 -33 49 C-32.39696045 47.57445801 -32.39696045 47.57445801 -31.78173828 46.12011719 C-28.9231892 39.38248055 -25.99048051 32.68004569 -23 26 C-22.34 26.33 -21.68 26.66 -21 27 C-20.40644386 29.64860427 -20.25790731 32.29197322 -20 35 C-11.15743362 24.22299935 -3.09471384 13.89257407 0 0 Z " fill="#FEB861" transform="translate(337,339)"/>
<path d="M0 0 C5.63801866 1.21263186 10.8266931 3.50144869 16 6 C16.66918457 6.32145996 17.33836914 6.64291992 18.02783203 6.97412109 C41.19904314 18.4126519 63.27306747 40.24924598 72 65 C72.32883684 67.94362009 71.86984993 70.18971563 71 73 C70.81953125 73.7321875 70.6390625 74.464375 70.453125 75.21875 C68.43964443 82.78157948 65.17473111 89.86969778 62 97 C61.01 97 60.02 97 59 97 C58.78085937 96.1028125 58.56171875 95.205625 58.3359375 94.28125 C52.84991836 72.69398769 44.46363131 53.12798444 30 36 C29.20851563 35.04480469 28.41703125 34.08960938 27.6015625 33.10546875 C14.89240443 18.40150755 -1.73779851 8.41644917 -20 2 C-14.42754143 -1.71497238 -6.50136324 -0.77999851 0 0 Z " fill="#C4152D" transform="translate(335,193)"/>
<path d="M0 0 C3.89543877 -0.14553599 7.79017651 -0.23415059 11.6875 -0.3125 C13.34168945 -0.3753418 13.34168945 -0.3753418 15.02929688 -0.43945312 C23.06855724 -0.5608921 23.06855724 -0.5608921 25.88525391 1.13525391 C27.26953125 2.51953125 27.26953125 2.51953125 29 5 C25.7 5 22.4 5 19 5 C21.67361971 9.73161354 21.67361971 9.73161354 24.49609375 14.375 C29.76685641 22.78718978 33.67251877 30.86696756 31.6015625 40.9375 C28.29034629 52.29024129 21.71371184 64.33597188 15 74 C14.67 74 14.34 74 14 74 C14 69.71 14 65.42 14 61 C7.56696681 66.21544374 7.56696681 66.21544374 3 73 C2.67 73.66 2.34 74.32 2 75 C-2.62 75 -7.24 75 -12 75 C-13.57077907 69.97350697 -14.44854729 65.23880078 -15 60 C-15.78117187 60.73669922 -15.78117187 60.73669922 -16.578125 61.48828125 C-19.78742022 63.49150262 -21.99922336 63.3000233 -25.75 63.1875 C-26.92046875 63.16042969 -28.0909375 63.13335937 -29.296875 63.10546875 C-30.18890625 63.07066406 -31.0809375 63.03585938 -32 63 C-28.38342357 56.23894102 -23.7034753 51.00900533 -18.42382812 45.49560547 C-17.07301983 44.07670087 -15.74666949 42.63462933 -14.421875 41.19140625 C-13.64328125 40.36511719 -12.8646875 39.53882813 -12.0625 38.6875 C-11.37285156 37.94886719 -10.68320312 37.21023437 -9.97265625 36.44921875 C-9.32167969 35.97097656 -8.67070312 35.49273437 -8 35 C-6.68 35.33 -5.36 35.66 -4 36 C-3.67 43.26 -3.34 50.52 -3 58 C0.12362007 56.43818996 2.17921424 55.14524298 4.8125 53 C7.72341966 50.72991713 9.08999905 49.97934448 12.8125 49.125 C16.34354054 48.27189829 16.34354054 48.27189829 17.9375 44.5625 C20.06137741 37.11548682 20.14134733 30.46881106 16.5625 23.5 C12.95998433 17.52718305 8.5270145 12.28426056 4 7 C0 2.25773196 0 2.25773196 0 0 Z " fill="#E7A75C" transform="translate(291,188)"/>
<path d="M0 0 C0.33 0 0.66 0 1 0 C1.39787469 20.00146341 1.69726023 40.00211962 1.88080692 60.00672531 C1.96831476 69.2963598 2.08750662 78.58353002 2.2824707 87.87158203 C2.45240999 95.9713485 2.56170015 104.06933034 2.59950441 112.17083001 C2.62159402 116.45809275 2.67311556 120.74025263 2.79741096 125.02587128 C3.52436665 151.07658765 3.52436665 151.07658765 -0.665308 157.58824921 C-4.54439402 161.58596367 -8.89111381 164.0315731 -14.00895691 166.13285828 C-16.71891942 167.31310474 -18.9269669 168.97241238 -21.23828125 170.796875 C-21.93244141 171.29960937 -22.62660156 171.80234375 -23.34179688 172.3203125 C-24.71116559 173.31374946 -26.07540348 174.31428187 -27.43554688 175.3203125 C-28.11294922 175.80757812 -28.79035156 176.29484375 -29.48828125 176.796875 C-30.36286987 177.43641113 -30.36286987 177.43641113 -31.25512695 178.08886719 C-33 179 -33 179 -37 179 C-37 178.34 -37 177.68 -37 177 C-49.375 177.495 -49.375 177.495 -62 178 C-62.33 179.98 -62.66 181.96 -63 184 C-65.33411133 181.13540882 -66.68753462 178.44094186 -68 175 C-67.35675781 175.03254883 -66.71351563 175.06509766 -66.05078125 175.09863281 C-50.5818642 175.68892316 -41.39476729 174.1862507 -29.94482422 163.69921875 C-26.55137493 160.73431703 -22.83339346 158.23853069 -19.125 155.6875 C-17.16314718 154.31303964 -15.20415463 152.93867637 -13.26780701 151.52845764 C-11 150 -11 150 -8.4432373 148.71075439 C-5.4529903 147.05762376 -3.29769017 145.54246606 -1 143 C0.38477602 138.04976637 0.17004552 133.18886507 -0.0234375 128.09765625 C-0.04211273 126.65039477 -0.05633606 125.20306962 -0.0663147 123.75572205 C-0.10431618 119.96461299 -0.20236092 116.17739799 -0.31335449 112.38781738 C-0.41606122 108.51363816 -0.46140896 104.63882301 -0.51171875 100.76367188 C-0.61864306 93.1740147 -0.78906585 85.58755495 -1 78 C-1.86302734 78.66386719 -2.72605469 79.32773438 -3.61523438 80.01171875 C-10.52148437 85.32421875 -10.52148437 85.32421875 -12.25744629 86.65956116 C-13.42795443 87.55996071 -14.59844572 88.46038218 -15.7689209 89.36082458 C-18.41824632 91.39890711 -21.06795578 93.43648464 -23.71875 95.47265625 C-25.99526614 97.2232423 -28.26498126 98.98226426 -30.53125 100.74609375 C-31.11197266 101.19662109 -31.69269531 101.64714844 -32.29101562 102.11132812 C-33.90373218 103.36279617 -35.514431 104.61686314 -37.125 105.87109375 C-39.67840304 107.76186095 -42.24414084 109.42449963 -45 111 C-46.4114257 105.80236884 -47.11841082 101.04172692 -45 96 C-40.04942871 90.20229423 -33.24620316 86.15699108 -26.94335938 81.97851562 C-22.32347576 78.87304642 -17.89363567 75.52139504 -13.4375 72.1875 C-11.2492922 70.57864839 -9.05742357 68.97491051 -6.86499023 67.37182617 C-6.24954346 66.91912354 -5.63409668 66.4664209 -5 66 C-4.31279373 65.60300903 -3.62558746 65.20601807 -2.91755676 64.79699707 C-0.74052021 63.11119322 -0.74052021 63.11119322 -0.48101807 60.24751282 C-0.4676944 58.57872322 -0.4676944 58.57872322 -0.45410156 56.8762207 C-0.43438293 55.61513992 -0.41466431 54.35405914 -0.39434814 53.05476379 C-0.39268499 51.67843672 -0.39145412 50.30210907 -0.390625 48.92578125 C-0.37564534 47.51757399 -0.35891863 46.10938432 -0.34051514 44.70121765 C-0.29680425 40.99733683 -0.27683464 37.29369299 -0.26177979 33.58959961 C-0.24222185 29.80893926 -0.20025052 26.02853535 -0.16015625 22.24804688 C-0.08481393 14.83210013 -0.03454728 7.41626087 0 0 Z " fill="#B5B5C3" transform="translate(471,76)"/>
<path d="M0 0 C0.16259206 9.24926043 0.28677019 18.49802483 0.3626852 27.74840546 C0.39913162 32.04437436 0.44852028 36.33936163 0.52807617 40.63476562 C0.60444942 44.78456687 0.64605485 48.93342747 0.6641407 53.08387756 C0.67701936 54.6627533 0.70216975 56.24158075 0.7401104 57.8200531 C1.06094207 71.72808138 1.06094207 71.72808138 -3.33105469 76.83837891 C-4.51790142 77.93278698 -5.74031576 78.99028232 -7 80 C-8.13066844 81.03714467 -9.25985499 82.07591027 -10.38671875 83.1171875 C-11.4816631 84.04278391 -12.58188358 84.9621779 -13.6875 85.875 C-14.24244141 86.34679687 -14.79738281 86.81859375 -15.36914062 87.3046875 C-18.10529585 89.59511946 -20.70159854 91.60359646 -24 93 C-23.30859354 88.90533727 -22.04041016 85.21131164 -20.625 81.3125 C-13.72283683 61.06565509 -11.97467947 36.90781502 -17 16 C-17.66 15.34 -18.32 14.68 -19 14 C-16.0238635 11.66278046 -13.04360074 9.3308833 -10.0625 7 C-9.21236328 6.33226562 -8.36222656 5.66453125 -7.48632812 4.9765625 C-6.67744141 4.34492188 -5.86855469 3.71328125 -5.03515625 3.0625 C-4.2862915 2.47597656 -3.53742676 1.88945312 -2.76586914 1.28515625 C-1 0 -1 0 0 0 Z " fill="#C97B39" transform="translate(472,291)"/>
<path d="M0 0 C8.8156658 0.07159932 14.76689472 3.63801884 21.8125 8.5625 C23.359375 9.62597656 23.359375 9.62597656 24.9375 10.7109375 C39.21180249 21.00776508 52.00284462 33.06330967 60.0625 48.875 C61.51938032 51.6116848 61.51938032 51.6116848 63.8125 53.5625 C68.90969125 54.7798977 73.60249055 54.85082742 78.8125 54.5625 C78.8125 57.5325 78.8125 60.5025 78.8125 63.5625 C59.48721629 66.25434905 59.48721629 66.25434905 53.82080078 62.10351562 C50.42985683 58.13757202 48.25848406 53.47820352 45.99853516 48.80712891 C44.17312736 45.35245635 41.81813193 42.48895529 39.25 39.5625 C38.79052979 39.035354 38.33105957 38.50820801 37.85766602 37.96508789 C24.28607622 22.71424006 7.30555473 12.50953365 -12.1875 6.5625 C-5.9345726 0.3095726 -5.9345726 0.3095726 0 0 Z " fill="#E6A65B" transform="translate(347.1875,187.4375)"/>
<path d="M0 0 C5.12444894 4.55506573 8.59062009 9.25133092 9.3515625 16.21923828 C9.46677616 20.00843028 9.4499139 23.77232487 9.375 27.5625 C9.36129984 28.91910138 9.3482818 30.27570982 9.3359375 31.63232422 C9.23252262 39.50897175 8.75451942 47.14570512 7.4453125 54.91796875 C6.71982431 59.9391107 6.83038682 64.9398735 7 70 C7.34611328 69.01773438 7.34611328 69.01773438 7.69921875 68.015625 C9.52460855 62.90741954 11.44403345 57.86944539 13.5625 52.875 C15.63376624 47.97811747 17.3951839 43.06784032 19 38 C21.87655138 42.31482707 22.00096909 46.60302554 22.625 51.6875 C22.75543701 52.75025146 22.88587402 53.81300293 23.02026367 54.90795898 C25.35226526 75.58564824 26.2789799 98.80122668 17 118 C14.8359375 120.39453125 14.8359375 120.39453125 13 122 C13.144375 121.48695313 13.28875 120.97390625 13.4375 120.4453125 C17.33019797 104.38793339 15.54060647 89.84455263 7.5625 75.50390625 C6.21312613 73.34153462 4.81950121 71.63224424 3.125 69.75 C-0.73273382 64.68054209 0.53510297 56.99053028 1 51 C1.32386124 49.33146688 1.65710823 47.66472644 2 46 C3.23584787 32.78710797 4.25734491 19.77203473 0 7 C-0.03954234 4.66700175 -0.04401732 2.33291811 0 0 Z " fill="#FAA882" transform="translate(368,309)"/>
<path d="M0 0 C121.44 0 242.88 0 368 0 C368 0.33 368 0.66 368 1 C367.00000819 0.99224863 366.00001638 0.98449726 364.96972179 0.976511 C340.61458077 0.79094071 316.26010836 0.68621267 291.90425396 0.66578102 C280.12567248 0.65403721 268.34826143 0.61622618 256.57006836 0.51660156 C246.30157963 0.42981324 236.03428678 0.39238977 225.76543266 0.41372812 C220.32975994 0.42331279 214.89666295 0.40853142 209.4614315 0.33458328 C204.33926743 0.2656757 199.22123803 0.26305801 194.09886742 0.31009102 C192.22477329 0.31583326 190.35042435 0.29787391 188.47684097 0.25374794 C178.82193226 -0.20277688 178.82193226 -0.20277688 170.17797494 3.37960577 C166.90262921 6.67506277 164.39721376 10.36355618 162.02376235 14.34089541 C160.62862226 16.60185308 158.97715121 18.60048933 157.2578125 20.62109375 C156.72929687 21.26626953 156.20078125 21.91144531 155.65625 22.57617188 C154.6125413 23.8448637 153.56824616 25.11307325 152.5234375 26.38085938 C152.00265625 27.01701172 151.481875 27.65316406 150.9453125 28.30859375 C150.19302368 29.21992065 150.19302368 29.21992065 149.42553711 30.1496582 C147.96351966 31.98009565 147.96351966 31.98009565 146.76391602 34.01245117 C145.57421875 35.9453125 145.57421875 35.9453125 143 39 C139.44921875 39.68359375 139.44921875 39.68359375 135.6875 39.4375 C134.43324219 39.37433594 133.17898437 39.31117187 131.88671875 39.24609375 C130.93410156 39.16488281 129.98148438 39.08367187 129 39 C133.33701019 32.92818574 138.12133657 27.33935155 143.02563477 21.72705078 C148.90423172 14.99061475 154.63369396 8.15507472 160 1 C107.2 1 54.4 1 0 1 C0 0.67 0 0.34 0 0 Z " fill="#F4F0E8" transform="translate(95,68)"/>
<path d="M0 0 C1.59757617 2.56550361 2.74148531 5.09214541 3.87304688 7.89526367 C4.54158691 9.542323 4.54158691 9.542323 5.22363281 11.22265625 C5.69188477 12.39465576 6.16013672 13.56665527 6.64257812 14.77416992 C7.13016602 15.98032959 7.61775391 17.18648926 8.12011719 18.42919922 C11.08531834 25.79888253 13.93147439 33.20569483 16.70507812 40.64916992 C19.7667584 48.85847608 23.32229362 56.61015976 27.45507812 64.33666992 C27.78507812 64.99666992 28.11507812 65.65666992 28.45507812 66.33666992 C23.83507812 66.33666992 19.21507812 66.33666992 14.45507812 66.33666992 C8.56469855 54.37880707 3.94848805 42.13355756 -0.49536133 29.57788086 C-4.29216398 18.88625171 -8.21069155 8.83801541 -14.54492188 -0.66333008 C-12.44397213 -0.939061 -10.33884553 -1.18311984 -8.23242188 -1.41333008 C-7.06066406 -1.55254883 -5.88890625 -1.69176758 -4.68164062 -1.83520508 C-1.54492188 -1.66333008 -1.54492188 -1.66333008 0 0 Z " fill="#E7A65C" transform="translate(236.544921875,340.663330078125)"/>
<path d="M0 0 C0.83466797 0.01933594 1.66933594 0.03867187 2.52929688 0.05859375 C3.37685547 0.10886719 4.22441406 0.15914063 5.09765625 0.2109375 C5.97228516 0.23800781 6.84691406 0.26507813 7.74804688 0.29296875 C9.88649737 0.36308188 12.0236632 0.47068213 14.16015625 0.5859375 C13.65226562 1.66230469 13.144375 2.73867188 12.62109375 3.84765625 C11.18663933 6.88900743 9.75637458 9.93229303 8.328125 12.9765625 C7.02996077 15.74278685 5.72244614 18.50387454 4.3984375 21.2578125 C-1.31602339 33.29128681 -3.36524326 43.39531699 -3.83984375 56.5859375 C-6.47984375 56.5859375 -9.11984375 56.5859375 -11.83984375 56.5859375 C-12.01759126 49.57541892 -12.14002534 42.56548278 -12.22436523 35.55322266 C-12.25952908 33.16888719 -12.30726991 30.78470224 -12.36791992 28.40087891 C-12.45301259 24.96999981 -12.49257419 21.54111813 -12.5234375 18.109375 C-12.577631 16.51529312 -12.577631 16.51529312 -12.63291931 14.88900757 C-12.63671202 7.71140556 -12.63671202 7.71140556 -10.40504456 4.55947876 C-7.2291554 1.64446017 -4.43218566 -0.18340079 0 0 Z " fill="#E7A65C" transform="translate(249.83984375,262.4140625)"/>
<path d="M0 0 C3.09640769 4.12854359 4.04929405 7.34921191 5.0625 12.25 C5.23168945 13.04124268 5.40087891 13.83248535 5.57519531 14.64770508 C7.64834551 24.66892966 9.15797387 34.74486271 9 45 C9.928125 44.95875 10.85625 44.9175 11.8125 44.875 C15 45 15 45 18 47 C16.75048524 50.74854428 14.37723504 52.83915602 11.21875 55.02734375 C6.99482863 56.87902759 2.51158228 56.36712695 -2 56 C-2.05607422 54.02193359 -2.05607422 54.02193359 -2.11328125 52.00390625 C-2.6582162 36.10103685 -4.90741265 21.39592386 -9 6 C-6.03 4.02 -3.06 2.04 0 0 Z " fill="#CA7B37" transform="translate(444,250)"/>
<path d="M0 0 C7.14699036 6.65969556 9.84386435 17.27913888 10.30126953 26.74414062 C10.48007348 32.32823551 10.52632134 37.91345063 10.5625 43.5 C10.57521357 61.80818211 10.57521357 61.80818211 14.125 79.6875 C15.42500151 84.60893428 15.63267527 89.10197418 14 94 C13.34 94 12.68 94 12 94 C6.47832236 80.26587794 4.56004047 67.30663865 4.9375 52.625 C5.27873379 37.96052079 5.28140077 24.13302249 -1.01953125 10.5703125 C-2.42733454 6.87973656 -2.15893785 4.72515736 -1 1 C-0.67 0.67 -0.34 0.34 0 0 Z " fill="#F89278" transform="translate(338,236)"/>
<path d="M0 0 C0.11598963 9.28390435 0.20476333 18.56755825 0.25906086 27.8520298 C0.28512475 32.16349556 0.32046314 36.47446462 0.37719727 40.78564453 C0.43163307 44.9483565 0.46144467 49.11059154 0.47438622 53.27363205 C0.48360549 54.85966879 0.50160915 56.44568021 0.52865028 58.03151321 C0.56509747 60.25806765 0.56993927 62.4826666 0.56762695 64.70947266 C0.57873001 65.97522125 0.58983307 67.24096985 0.60127258 68.54507446 C-0.19497363 73.1203228 -1.71479652 74.77211583 -5 78 C-5.66 78 -6.32 78 -7 78 C-6.85831863 76.56208484 -6.71148957 75.1246763 -6.5625 73.6875 C-6.48128906 72.88699219 -6.40007812 72.08648437 -6.31640625 71.26171875 C-6 69 -6 69 -5 66 C-3.11741196 50.00962259 -3.34380613 33.86601519 -6 18 C-6.48210937 18.433125 -6.96421875 18.86625 -7.4609375 19.3125 C-8.09257812 19.869375 -8.72421875 20.42625 -9.375 21 C-10.00148438 21.556875 -10.62796875 22.11375 -11.2734375 22.6875 C-13 24 -13 24 -15 24 C-15.68359375 20.97265625 -15.68359375 20.97265625 -16.3671875 17.9453125 C-16.90474428 15.79280036 -16.90474428 15.79280036 -19 14 C-16.0238635 11.66278046 -13.04360074 9.3308833 -10.0625 7 C-9.21236328 6.33226562 -8.36222656 5.66453125 -7.48632812 4.9765625 C-6.67744141 4.34492188 -5.86855469 3.71328125 -5.03515625 3.0625 C-4.2862915 2.47597656 -3.53742676 1.88945312 -2.76586914 1.28515625 C-1 0 -1 0 0 0 Z " fill="#D98D4A" transform="translate(472,291)"/>
<path d="M0 0 C9.29738128 11.25338772 6.18649809 34.03035894 6.18530273 47.89892578 C6.18750739 50.75958763 6.20579289 53.61987371 6.22460938 56.48046875 C6.28057272 74.25568294 6.28057272 74.25568294 4 83 C3.83363037 83.6820752 3.66726074 84.36415039 3.49584961 85.06689453 C0.72964435 95.74822808 -3.80900718 105.31358164 -9 115 C-9.99 115 -10.98 115 -12 115 C-11.54109375 114.06800781 -11.0821875 113.13601563 -10.609375 112.17578125 C-0.49654752 91.31617962 1.50010204 71.8977754 1 49 C0.97534668 47.85160645 0.95069336 46.70321289 0.92529297 45.52001953 C0.84005486 41.95024745 0.7367482 38.38153528 0.625 34.8125 C0.5943042 33.71518555 0.5636084 32.61787109 0.53198242 31.48730469 C0.29678688 25.06933935 -0.38895927 18.9328293 -1.61499023 12.6262207 C-2.25478841 8.26204254 -2.00107815 4.0021563 0 0 Z " fill="#F89278" transform="translate(398,313)"/>
<path d="M0 0 C5.35501122 1.41750297 7.92945988 4.63905685 11 9 C15.45925117 16.84680181 18.49498903 24.85623477 21 33.5 C21.6757723 35.77604432 22.35155365 38.05208596 23.02734375 40.328125 C23.35589355 41.44767578 23.68444336 42.56722656 24.02294922 43.72070312 C24.94039762 46.79995524 25.89894524 49.86202853 26.87890625 52.921875 C27.16443359 53.82615234 27.44996094 54.73042969 27.74414062 55.66210938 C28.27415657 57.33817412 28.81268944 59.01157909 29.36132812 60.68164062 C30.7560513 65.17489008 31.24575856 68.31535104 30 73 C29.01 73 28.02 73 27 73 C23.21650302 65.20634492 20.83599269 57.20842736 18.5625 48.875 C13.43301546 25.41815296 13.43301546 25.41815296 1.32421875 5.46484375 C0 4 0 4 0 0 Z " fill="#FAA882" transform="translate(321,278)"/>
<path d="M0 0 C3.9853282 3.74379316 7.20895265 7.80285582 10.44921875 12.20703125 C10.96097656 12.79871094 11.47273438 13.39039062 12 14 C12.66 14 13.32 14 14 14 C14.66 12.02 15.32 10.04 16 8 C16.33 8 16.66 8 17 8 C17 10.64 17 13.28 17 16 C18.58941406 15.22462891 18.58941406 15.22462891 20.2109375 14.43359375 C21.5987594 13.76781433 22.98679118 13.10247229 24.375 12.4375 C25.07367188 12.09525391 25.77234375 11.75300781 26.4921875 11.40039062 C28.30052216 10.53969288 30.14851956 9.76347564 32 9 C32.66 9.33 33.32 9.66 34 10 C33.13375 10.61488281 32.2675 11.22976562 31.375 11.86328125 C30.24962862 12.6791755 29.12464871 13.49560989 28 14.3125 C27.14148438 14.91868164 27.14148438 14.91868164 26.265625 15.53710938 C24.78791356 16.61900525 23.38745891 17.80455549 22 19 C22 19.99 22 20.98 22 22 C25.3 22.99 28.6 23.98 32 25 C32 25.33 32 25.66 32 26 C28.04 25.67 24.08 25.34 20 25 C22.73682992 32.20190985 22.73682992 32.20190985 26.3125 39 C26.869375 39.99 27.42625 40.98 28 42 C27.505 42.99 27.505 42.99 27 44 C26.24074219 43.00097656 25.48148438 42.00195312 24.69921875 40.97265625 C23.69567715 39.66899005 22.69175083 38.36561994 21.6875 37.0625 C21.18798828 36.40314453 20.68847656 35.74378906 20.17382812 35.06445312 C19.44389648 34.12182617 19.44389648 34.12182617 18.69921875 33.16015625 C18.25408936 32.57886963 17.80895996 31.99758301 17.3503418 31.39868164 C15.94132958 29.72329321 15.94132958 29.72329321 13 29 C12.34 31.97 11.68 34.94 11 38 C10.67 38 10.34 38 10 38 C10.33 34.7 10.66 31.4 11 28 C4.92871993 30.30879665 -0.63778769 32.76515286 -6.1875 36.14453125 C-6.785625 36.42683594 -7.38375 36.70914063 -8 37 C-8.66 36.67 -9.32 36.34 -10 36 C-9.27296875 35.47043701 -9.27296875 35.47043701 -8.53125 34.93017578 C-6.34922012 33.33509096 -4.17458105 31.73022284 -2 30.125 C-1.236875 29.56941406 -0.47375 29.01382813 0.3125 28.44140625 C1.034375 27.90644531 1.75625 27.37148437 2.5 26.8203125 C3.1703125 26.32805176 3.840625 25.83579102 4.53125 25.32861328 C5.0159375 24.8901709 5.500625 24.45172852 6 24 C6 23.34 6 22.68 6 22 C3.36 21.01 0.72 20.02 -2 19 C-2 18.67 -2 18.34 -2 18 C0.97 18 3.94 18 7 18 C6.40662464 13.87641678 5.01236819 10.90795717 2.9375 7.3125 C0 2.20470588 0 2.20470588 0 0 Z " fill="#FFF9F2" transform="translate(115,100)"/>
<path d="M0 0 C0 0.33 0 0.66 0 1 C-0.60328125 1.09796875 -1.2065625 1.1959375 -1.828125 1.296875 C-2.62734375 1.44640625 -3.4265625 1.5959375 -4.25 1.75 C-5.03890625 1.88921875 -5.8278125 2.0284375 -6.640625 2.171875 C-9.15295321 2.83408012 -9.15295321 2.83408012 -10.76953125 5.046875 C-14.04171011 7.91218048 -17.30042951 7.58479051 -21.4375 7.5 C-22.18837891 7.51546875 -22.93925781 7.5309375 -23.71289062 7.546875 C-28.77240261 7.51127597 -31.25078786 6.64409404 -35 3 C-37.46120841 1.76939579 -39.25776866 1.7942277 -42.0078125 1.68359375 C-42.99394531 1.64169922 -43.98007812 1.59980469 -44.99609375 1.55664062 C-46.54490234 1.49766602 -46.54490234 1.49766602 -48.125 1.4375 C-49.68541016 1.37272461 -49.68541016 1.37272461 -51.27734375 1.30664062 C-53.85142528 1.2003712 -56.42560508 1.09833417 -59 1 C-57 -2 -57 -2 -55.22607422 -2.52416992 C-54.5095166 -2.59224854 -53.79295898 -2.66032715 -53.0546875 -2.73046875 C-52.23669678 -2.81151855 -51.41870605 -2.89256836 -50.57592773 -2.97607422 C-49.68462158 -3.04584473 -48.79331543 -3.11561523 -47.875 -3.1875 C-46.48873413 -3.30375732 -46.48873413 -3.30375732 -45.07446289 -3.42236328 C-12.07451527 -5.93134083 -12.07451527 -5.93134083 0 0 Z " fill="#CFCDD5" transform="translate(350,186)"/>
<path d="M0 0 C0.66 0.33 1.32 0.66 2 1 C2.57836914 3.33813477 2.57836914 3.33813477 3.03515625 6.44140625 C3.20474854 7.57505615 3.37434082 8.70870605 3.54907227 9.87670898 C3.71850342 11.09302002 3.88793457 12.30933105 4.0625 13.5625 C4.23515381 14.79363525 4.40780762 16.02477051 4.58569336 17.29321289 C5.07355978 20.86019396 5.54047359 24.42927091 6 28 C6.11859375 28.87495117 6.2371875 29.74990234 6.359375 30.65136719 C7.60921714 40.24308336 6.72052442 47.37565088 2 56 C1.67 56 1.34 56 1 56 C0.26677082 52.62025995 -0.19254159 49.34342968 -0.4296875 45.89453125 C-0.5373645 44.43140503 -0.5373645 44.43140503 -0.6472168 42.9387207 C-0.72238525 41.90706787 -0.79755371 40.87541504 -0.875 39.8125 C-1.52292496 31.31469011 -2.46150712 22.98443162 -4.12255859 14.62231445 C-4.85333525 10.79100926 -5.23378825 7.7420391 -4 4 C-1.9375 1.6875 -1.9375 1.6875 0 0 Z " fill="#E11729" transform="translate(275,247)"/>
<path d="M0 0 C0.33 0 0.66 0 1 0 C2.78188338 10.24582941 3.1928525 20.29561703 3.1875 30.6875 C3.18814453 31.91694336 3.18878906 33.14638672 3.18945312 34.41308594 C3.15902304 39.42160111 3.13001432 44.10176837 2 49 C1.67 49 1.34 49 1 49 C0.78085937 48.04480469 0.56171875 47.08960938 0.3359375 46.10546875 C-1.88414906 36.89157155 -4.6501891 28.41220711 -10.6953125 20.890625 C-12 19 -12 19 -11.8125 15.9375 C-11 13 -11 13 -9 10 C-8.67 13.3 -8.34 16.6 -8 20 C-7.75765625 19.31035156 -7.5153125 18.62070312 -7.265625 17.91015625 C-5.09079497 11.81226743 -2.72592148 5.87233085 0 0 Z " fill="#F99679" transform="translate(383,359)"/>
<path d="M0 0 C0.99 0 1.98 0 3 0 C9.66474478 11.69565649 15.4204804 23.27697591 16 37 C16.06316406 37.969375 16.12632812 38.93875 16.19140625 39.9375 C16.45907224 46.84500946 15.6301938 51.10093507 12 57 C11.67 57 11.34 57 11 57 C10.96261719 55.79085937 10.92523438 54.58171875 10.88671875 53.3359375 C10.36252526 39.22036261 8.76896391 26.99909945 2.3527832 14.28588867 C-0.13951253 9.18699653 -0.68543293 5.58138242 0 0 Z " fill="#F89278" transform="translate(372,283)"/>
<path d="M0 0 C0.33 0.66 0.66 1.32 1 2 C31.03 2 61.06 2 92 2 C92 2.33 92 2.66 92 3 C91.13128769 2.9969838 90.26257538 2.99396759 89.36753845 2.99085999 C81.11613117 2.96846614 72.86558728 2.98010895 64.61427975 3.02846622 C60.37371071 3.05215866 56.13392117 3.0634219 51.89331055 3.04467773 C47.78844274 3.02701763 43.68496358 3.04409768 39.58026314 3.08367729 C38.02688543 3.09285731 36.47338437 3.0902369 34.9200573 3.07469368 C24.68534685 2.98236489 17.21327006 4.51803027 8.1643219 9.40281677 C5.33293078 10.83195406 3.11706177 11.57888426 0 12 C-0.33 10.02 -0.66 8.04 -1 6 C-1.66 7.65 -2.32 9.3 -3 11 C-7.61651485 9.46116172 -9.41265909 5.88101136 -12 2 C-8.04 2 -4.08 2 0 2 C0 1.34 0 0.68 0 0 Z " fill="#FAD088" transform="translate(132,104)"/>
<path d="M0 0 C8.24530048 2.15948346 12.56700661 7.0897456 17 14 C17 14.66 17 15.32 17 16 C10.18755276 16.89001327 4.70165145 17.07839309 -1.10839844 12.97631836 C-8.26792542 7.41628372 -8.26792542 7.41628372 -10 3 C-9.04287109 2.80083984 -9.04287109 2.80083984 -8.06640625 2.59765625 C-7.24011719 2.42105469 -6.41382813 2.24445313 -5.5625 2.0625 C-4.73878906 1.88847656 -3.91507813 1.71445312 -3.06640625 1.53515625 C-1.02338796 1.19247006 -1.02338796 1.19247006 0 0 Z " fill="#CFCDD4" transform="translate(218,324)"/>
<path d="M0 0 C7.92 0 15.84 0 24 0 C22.02 2.31 20.04 4.62 18 7 C17.34 8.65 16.68 10.3 16 12 C11.38 12 6.76 12 2 12 C0.64851459 7.69214025 0 4.58042408 0 0 Z " fill="#CFCBD1" transform="translate(277,251)"/>
<path d="M0 0 C0.82434896 4.88972801 1.09951887 9.14002619 0 14 C-3.3317994 18.40577165 -8.23851763 21.34385174 -13 24 C-13.66 24 -14.32 24 -15 24 C-15.68359375 20.97265625 -15.68359375 20.97265625 -16.3671875 17.9453125 C-16.90474428 15.79280036 -16.90474428 15.79280036 -19 14 C-16.0238635 11.66278046 -13.04360074 9.3308833 -10.0625 7 C-9.21236328 6.33226562 -8.36222656 5.66453125 -7.48632812 4.9765625 C-6.67744141 4.34492188 -5.86855469 3.71328125 -5.03515625 3.0625 C-4.2862915 2.47597656 -3.53742676 1.88945312 -2.76586914 1.28515625 C-1 0 -1 0 0 0 Z " fill="#A4A5B6" transform="translate(472,291)"/>
<path d="M0 0 C0.125 7.625 0.125 7.625 -1 11 C-1.639375 11.309375 -2.27875 11.61875 -2.9375 11.9375 C-5.17443714 12.81008924 -5.17443714 12.81008924 -5.84375 15.015625 C-7 17 -7 17 -9.12890625 17.64453125 C-9.93199219 17.69996094 -10.73507813 17.75539063 -11.5625 17.8125 C-12.77099609 17.91498047 -12.77099609 17.91498047 -14.00390625 18.01953125 C-16 18 -16 18 -17 17 C-17.39449853 12.97611502 -17.23277644 10.49464994 -15.5 6.8125 C-11.41684047 2.21894553 -6.33049834 -0.79131229 0 0 Z " fill="#E7A85D" transform="translate(224,309)"/>
<path d="M0 0 C0.33 0 0.66 0 1 0 C1 15.51 1 31.02 1 47 C-3.95 47.33 -8.9 47.66 -14 48 C-13.67 44.37 -13.34 40.74 -13 37 C-7.555 36.505 -7.555 36.505 -2 36 C-2.020625 34.9275 -2.04125 33.855 -2.0625 32.75 C-2 29 -2 29 -1.51586914 27.13183594 C-0.86631588 24.44754862 -0.7821552 21.90034568 -0.68359375 19.140625 C-0.64169922 18.02558594 -0.59980469 16.91054688 -0.55664062 15.76171875 C-0.51732422 14.60285156 -0.47800781 13.44398438 -0.4375 12.25 C-0.39431641 11.07566406 -0.35113281 9.90132813 -0.30664062 8.69140625 C-0.20065206 5.79438549 -0.09858362 2.89728065 0 0 Z " fill="#D4CDCC" transform="translate(237,272)"/>
<path d="M0 0 C2.92871794 1.32630305 4.76785926 3.53544047 6.92407227 5.87133789 C1.9649442 11.00757767 1.9649442 11.00757767 -1.07592773 12.87133789 C-2.06592773 12.54133789 -3.05592773 12.21133789 -4.07592773 11.87133789 C-4.07592773 11.21133789 -4.07592773 10.55133789 -4.07592773 9.87133789 C-16.45092773 10.36633789 -16.45092773 10.36633789 -29.07592773 10.87133789 C-29.40592773 12.85133789 -29.73592773 14.83133789 -30.07592773 16.87133789 C-32.41003906 14.00674672 -33.76346235 11.31227975 -35.07592773 7.87133789 C-34.39602783 7.87770264 -33.71612793 7.88406738 -33.015625 7.890625 C-29.88881648 7.8993925 -26.76489708 7.85446646 -23.63842773 7.80883789 C-22.03451172 7.82527344 -22.03451172 7.82527344 -20.39819336 7.84204102 C-13.12171227 7.68627537 -9.26610009 6.36710016 -3.99365234 1.27197266 C-2.07592773 -0.12866211 -2.07592773 -0.12866211 0 0 Z " fill="#A5A2B4" transform="translate(438.075927734375,243.128662109375)"/>
<path d="M0 0 C4.62 0 9.24 0 14 0 C10.66666667 8.33333333 7.33333333 16.66666667 4 25 C3.67 25 3.34 25 3 25 C2.49672003 21.39628337 1.99794006 17.79195803 1.5 14.1875 C1.35691406 13.16333984 1.21382813 12.13917969 1.06640625 11.08398438 C0.93105469 10.10107422 0.79570312 9.11816406 0.65625 8.10546875 C0.53056641 7.19949951 0.40488281 6.29353027 0.27539062 5.36010742 C0 3 0 3 0 0 Z " fill="#E6A35B" transform="translate(279,263)"/>
<path d="M0 0 C0.79152906 11.4185396 -0.27881425 18.86194028 -6 29 C-6.67193861 30.33068431 -7.33960642 31.66354852 -8 33 C-8.20437527 28.81322658 -8.32799497 24.6277435 -8.4375 20.4375 C-8.49615234 19.25607422 -8.55480469 18.07464844 -8.61523438 16.85742188 C-8.78473809 8.21273223 -8.78473809 8.21273223 -6.44580078 4.59814453 C-1.91253307 0 -1.91253307 0 0 0 Z " fill="#CE1630" transform="translate(304,249)"/>
<path d="M0 0 C-1.50149389 4.99715935 -3.62029307 9.44535124 -6 14.0625 C-8.18151221 18.31882003 -10.32062811 22.51292822 -12 27 C-12.33 27 -12.66 27 -13 27 C-13.20453151 23.62590441 -13.32801449 20.25341008 -13.4375 16.875 C-13.49615234 15.92367188 -13.55480469 14.97234375 -13.61523438 13.9921875 C-13.78348406 7.06991489 -13.78348406 7.06991489 -11.53149414 3.99462891 C-7.7789085 0.6350388 -5.20797242 -0.76214231 0 0 Z " fill="#FEB963" transform="translate(251,263)"/>
<path d="M0 0 C4.29 0 8.58 0 13 0 C11.12752796 4.43063806 9.19450005 8.376388 6 12 C1.83142914 13.05901427 -1.79195432 12.74625441 -6 12 C-4.35442612 7.70816541 -2.32599824 3.95419701 0 0 Z " fill="#CFCED4" transform="translate(258,251)"/>
<path d="M0 0 C4.18108065 3.50632412 8.23214634 7.04375365 12 11 C12.52207031 11.50402344 13.04414063 12.00804687 13.58203125 12.52734375 C17.80281978 16.88152063 20.6361113 21.63909998 23.375 27 C23.89380737 27.99640503 23.89380737 27.99640503 24.4230957 29.01293945 C26.73013794 33.71306881 27.5922005 37.78016645 28 43 C25.30799587 40.30799587 24.04920785 37.08400613 22.4375 33.6875 C16.98969643 22.5411309 10.26086902 12.91690765 1.65234375 3.92578125 C0 2 0 2 0 0 Z " fill="#FDE4E6" transform="translate(339,215)"/>
<path d="M0 0 C5.61 0 11.22 0 17 0 C14.03650719 2.96349281 11.7149436 4.34368608 8 6.1875 C6.948125 6.71730469 5.89625 7.24710937 4.8125 7.79296875 C2 9 2 9 -1 9 C-1.125 2.25 -1.125 2.25 0 0 Z " fill="#FFBA65" transform="translate(133,107)"/>
<path d="M0 0 C5.28 0 10.56 0 16 0 C16.66 3.63 17.32 7.26 18 11 C16.515 10.071875 15.03 9.14375 13.5 8.1875 C9.09653583 5.53413057 4.86856057 3.62285352 0 2 C0 1.34 0 0.68 0 0 Z " fill="#CF2039" transform="translate(230,319)"/>
<path d="M0 0 C0 4.62 0 9.24 0 14 C-1.65 14.66 -3.3 15.32 -5 16 C-7.97619048 9.80952381 -7.97619048 9.80952381 -8.0625 6.875 C-6.63373417 4.35364854 -3.03439606 0 0 0 Z " fill="#B3BACE" transform="translate(472,291)"/>
<path d="M0 0 C7.59 0 15.18 0 23 0 C23 0.66 23 1.32 23 2 C14.585 2.495 14.585 2.495 6 3 C5.67 4.98 5.34 6.96 5 9 C2.52746322 5.96552304 1.52573205 3.81433013 0 0 Z " fill="#D0C5C7" transform="translate(403,251)"/>
<path d="M0 0 C0.66 0.33 1.32 0.66 2 1 C1.5153125 1.55945313 1.030625 2.11890625 0.53125 2.6953125 C-4.13732391 8.27964514 -7.91299131 13.98433318 -11.38476562 20.35205078 C-12.76308562 22.87590469 -13.9534423 24.9534423 -16 27 C-15.53017629 16.42896661 -9.19301861 8.58781126 -1.7578125 1.58203125 C-1.17773438 1.05996094 -0.59765625 0.53789062 0 0 Z " fill="#FFFAF0" transform="translate(332,396)"/>
<path d="M0 0 C3.96 0 7.92 0 12 0 C8.06449723 3.93550277 4.71160344 6.17303793 0 9 C0 6.03 0 3.06 0 0 Z " fill="#C97C3A" transform="translate(426,242)"/>
<path d="M0 0 C2.97 0 5.94 0 9 0 C8.67 2.31 8.34 4.62 8 7 C6.68 7 5.36 7 4 7 C0 2.77777778 0 2.77777778 0 0 Z " fill="#FFBC68" transform="translate(122,107)"/>
<path d="M0 0 C0.33 0.66 0.66 1.32 1 2 C7.93 2 14.86 2 22 2 C21.01 2.99 20.02 3.98 19 5 C18.34 4.67 17.68 4.34 17 4 C14.28737884 3.7677354 11.59226874 3.58063765 8.875 3.4375 C8.12089844 3.39431641 7.36679688 3.35113281 6.58984375 3.30664062 C4.72678112 3.2005168 2.86341476 3.09974999 1 3 C0.67 3.66 0.34 4.32 0 5 C-0.33 4.67 -0.66 4.34 -1 4 C-2.68608966 3.92794489 -4.37500659 3.91613932 -6.0625 3.9375 C-6.98160156 3.94652344 -7.90070313 3.95554687 -8.84765625 3.96484375 C-9.55792969 3.97644531 -10.26820312 3.98804687 -11 4 C-11.33 3.34 -11.66 2.68 -12 2 C-8.04 2 -4.08 2 0 2 C0 1.34 0 0.68 0 0 Z " fill="#FBD596" transform="translate(132,104)"/>
<path d="M0 0 C1.98 0 3.96 0 6 0 C4.74194623 4.50802601 3.09592835 7.4912812 0 11 C0 7.37 0 3.74 0 0 Z " fill="#D1C9CE" transform="translate(305,251)"/>
<path d="M0 0 C0.66 0.33 1.32 0.66 2 1 C0.510461 5.06963335 -1.7475392 6.32270828 -5.5 8.3125 C-6.4796875 8.84488281 -7.459375 9.37726563 -8.46875 9.92578125 C-9.72171875 10.45751953 -9.72171875 10.45751953 -11 11 C-11.66 10.67 -12.32 10.34 -13 10 C-8.71 6.7 -4.42 3.4 0 0 Z " fill="#FFF2E2" transform="translate(118,126)"/>
</svg>
