<?xml version="1.0" encoding="UTF-8"?>
<svg version="1.1" xmlns="http://www.w3.org/2000/svg" width="512" height="512">
<path d="M0 0 C1.18586763 -0.00623996 2.37173527 -0.01247993 3.59353828 -0.01890898 C6.8541121 -0.03201757 10.11408076 -0.02741684 13.37463856 -0.0149641 C16.90300881 -0.00586155 20.43130129 -0.01990896 23.95965576 -0.03088379 C30.85942096 -0.04861844 37.75901156 -0.0448517 44.65878344 -0.03323323 C50.26913917 -0.02417919 55.87944617 -0.0229834 61.48980713 -0.02732849 C62.28999555 -0.02794142 63.09018397 -0.02855436 63.91462052 -0.02918586 C65.54047061 -0.03046483 67.1663207 -0.03176169 68.79217076 -0.03307623 C84.01787617 -0.04446722 99.24348505 -0.03139162 114.46917462 -0.00987476 C127.51774676 0.00799489 140.56617653 0.00489036 153.61474609 -0.0135498 C168.78803537 -0.03498274 183.96124017 -0.04336872 199.13454247 -0.03110075 C200.7542254 -0.02982663 202.37390835 -0.02856914 203.99359131 -0.02732849 C205.18879023 -0.02640284 205.18879023 -0.02640284 206.40813458 -0.02545848 C212.00813339 -0.02201285 217.60807837 -0.02781693 223.20806885 -0.0372467 C230.03780368 -0.04849505 236.86735476 -0.04536733 243.69706869 -0.02412373 C247.17801869 -0.01365121 250.65866293 -0.00942589 254.13961029 -0.02272034 C257.92117588 -0.03368582 261.70188696 -0.01989808 265.48339844 0 C266.57222887 -0.00892289 267.6610593 -0.01784577 268.7828846 -0.02703905 C280.20934189 0.08920883 289.44313971 3.58586925 297.74169922 11.50793457 C307.44407482 21.67141317 309.33990389 32.38014754 309.28759766 46.06726074 C309.29635159 47.49744785 309.30684365 48.9276252 309.31892395 50.35778809 C309.34658233 54.20626677 309.35019315 58.05442271 309.34920406 61.90298629 C309.35235068 65.9375782 309.37800495 69.97202843 309.40118408 74.00654602 C309.44161454 81.63123566 309.46205417 89.25584005 309.47515798 96.8806203 C309.49107212 105.56760604 309.52950614 114.25444761 309.56975126 122.94134939 C309.65197272 140.79683209 309.7061755 158.65230092 309.74169922 176.50793457 C310.4806543 176.75970459 311.21960938 177.01147461 311.98095703 177.27087402 C312.9590332 177.61336182 313.93710937 177.95584961 314.94482422 178.30871582 C315.9106543 178.64298584 316.87648438 178.97725586 317.87158203 179.32165527 C327.35982574 183.2433443 334.93852286 191.6290193 338.90856934 201.00889587 C341.95026852 209.78770633 341.29926353 219.0703658 341.25927734 228.24255371 C341.26470427 230.33630356 341.27183012 232.43004959 341.28051758 234.52378845 C341.29868473 240.18488103 341.29171096 245.84568059 341.27900124 251.506778 C341.26884064 257.4438117 341.27827527 263.3808211 341.2845459 269.31785583 C341.29181282 279.28498823 341.28225903 289.25200187 341.26318359 299.21911621 C341.24141081 310.72824587 341.24847316 322.23709211 341.27048922 333.74621493 C341.28866325 343.64462486 341.2911919 353.54294967 341.28073454 363.4413709 C341.27451143 369.34593597 341.27363162 375.25036797 341.28688049 381.15492439 C341.29846767 386.70614273 341.29036065 392.25699689 341.26730347 397.80817604 C341.26203198 399.8406387 341.2635033 401.87313221 341.27235413 403.90558243 C341.32962042 418.39599455 340.54999152 428.39164607 330.11279297 439.30871582 C323.11529352 445.79898302 316.05834902 448.75456849 306.44360828 448.76520348 C305.72748708 448.76870955 305.01136589 448.77221563 304.27354404 448.77582794 C301.87343186 448.78513331 299.47356277 448.78022089 297.07344055 448.77536011 C295.33543408 448.77909681 293.59742928 448.78369841 291.85942715 448.78909075 C287.0827366 448.80133384 282.30611601 448.80105874 277.52941334 448.798702 C272.37792004 448.79829416 267.22644926 448.8093299 262.07496643 448.81881714 C251.98147972 448.83543571 241.88801638 448.84092709 231.79451714 448.84204189 C223.58965892 448.84299204 215.3848084 448.84710067 207.17995262 448.85344315 C183.91868291 448.87105853 160.65743165 448.88028165 137.39615522 448.8787822 C136.14192546 448.87870229 134.8876957 448.87862237 133.59545898 448.87854004 C132.33969797 448.87845828 131.08393696 448.87837652 129.79012259 448.87829228 C109.44127816 448.87747948 89.09250776 448.89661491 68.74368475 448.92481677 C47.85063712 448.9535444 26.95762561 448.96735711 6.06455773 448.96562922 C-5.66565407 448.96496524 -17.39578827 448.97046108 -29.12598228 448.99198532 C-39.11419488 449.01019557 -49.1022947 449.01454575 -59.09051671 449.00096647 C-64.18554552 448.99443586 -69.28035797 448.99432311 -74.37536621 449.01167297 C-79.04321825 449.02740456 -83.71068241 449.02453906 -88.378525 449.00710471 C-90.06359251 449.004035 -91.74868898 449.0076661 -93.43372234 449.01882486 C-107.09452706 449.10327013 -118.0251866 447.27678648 -128.25830078 437.50793457 C-140.22844071 424.9689167 -139.84095393 411.30374542 -139.77587891 394.95324707 C-139.78130478 392.66407833 -139.78843005 390.37491308 -139.79711914 388.08575439 C-139.81529979 381.89156219 -139.80830654 375.69763753 -139.7956028 369.50344086 C-139.78544793 363.00900065 -139.79487538 356.51458275 -139.80114746 350.0201416 C-139.80888169 338.41796035 -139.79648181 326.81590075 -139.77611011 315.21373868 C-139.75824114 304.71213457 -139.76134588 294.21070737 -139.77978516 283.70910645 C-139.80123188 271.4891171 -139.80913771 259.2692536 -139.7973361 247.04924583 C-139.79111265 240.5896518 -139.79023403 234.1301794 -139.80348206 227.67059326 C-139.81507009 221.59654919 -139.80696049 215.52283792 -139.78390503 209.44882965 C-139.77863376 207.22489219 -139.78010446 205.00092653 -139.78895569 202.77700043 C-139.84427472 187.46110658 -139.37692035 175.15496379 -128.25830078 163.50793457 C-121.31774376 156.88226104 -113.33403856 152.37969816 -103.57275391 152.46862793 C-102.76422974 152.47430283 -101.95570557 152.47997772 -101.12268066 152.48582458 C-100.5074353 152.49312088 -99.89218994 152.50041718 -99.25830078 152.50793457 C-99.26718323 151.42766998 -99.27606567 150.3474054 -99.28521729 149.23440552 C-99.36651183 139.02457546 -99.42636612 128.81481159 -99.46554947 118.60473061 C-99.48637169 113.35634433 -99.51459096 108.10822058 -99.56005859 102.85998535 C-99.60370813 97.78953873 -99.6274782 92.7193437 -99.63780975 87.6487236 C-99.64516693 85.71993427 -99.65953342 83.79115778 -99.68122101 81.86247635 C-99.81485165 69.47957776 -99.91485668 58.62568634 -90.96142578 49.03918457 C-84.07343045 42.84630804 -76.93916659 40.23848764 -67.67236328 40.31262207 C-66.97057953 40.31545197 -66.26879578 40.31828186 -65.54574585 40.32119751 C-63.3247505 40.33230945 -61.10417233 40.35739623 -58.88330078 40.38293457 C-57.36898373 40.39297603 -55.85466029 40.40209984 -54.34033203 40.41027832 C-50.6461882 40.43221903 -46.95228527 40.46668582 -43.25830078 40.50793457 C-43.28549194 39.62911621 -43.28549194 39.62911621 -43.31323242 38.73254395 C-43.50894403 27.82637499 -39.7984771 19.4064559 -32.25830078 11.50793457 C-22.86981866 2.54539493 -12.73201407 -0.10433794 0 0 Z M-21.50830078 25.94543457 C-25.45012126 30.7953184 -26.34377285 34.2770209 -26.25830078 40.50793457 C-24.42451465 40.51013441 -24.42451465 40.51013441 -22.55368233 40.51237869 C6.48847644 40.54810658 35.53054435 40.60438513 64.57260852 40.68585552 C68.14980501 40.69587258 71.72700196 40.70571677 75.30419922 40.7154541 C76.37239996 40.71836616 76.37239996 40.71836616 77.46218051 40.72133705 C88.98200362 40.75232975 100.50180683 40.76933007 112.02166377 40.78112879 C123.84847851 40.79355453 135.67518905 40.82108794 147.50193799 40.86254764 C154.14217274 40.88539474 160.78229269 40.90084455 167.42257309 40.89981842 C173.67541246 40.8990725 179.9279231 40.9169968 186.18067741 40.9491024 C188.47274336 40.95760564 190.76484616 40.95934848 193.05692101 40.95373726 C196.19359266 40.94708252 199.32922292 40.96505435 202.46578979 40.98895264 C203.36659802 40.98119222 204.26740625 40.9734318 205.1955117 40.96543622 C214.27091064 41.0873113 222.35361774 43.97129306 228.74169922 50.50793457 C235.00603224 58.93599264 236.07495147 66.56235803 236.36669922 76.88293457 C236.40537109 78.00055176 236.44404297 79.11816895 236.48388672 80.26965332 C236.57776477 83.01558618 236.66344833 85.76151933 236.74169922 88.50793457 C237.56412109 88.59430176 238.38654297 88.68066895 239.23388672 88.76965332 C250.66544605 90.20849855 259.89973676 93.80773158 267.74169922 102.50793457 C274.31265904 111.57585913 276.04136323 119.34914734 276.02017212 130.33421326 C276.02596452 131.4141685 276.03175692 132.49412375 276.03772485 133.60680491 C276.054708 137.21963049 276.05759996 140.83232818 276.06054688 144.44519043 C276.06984619 147.03732618 276.08001487 149.62945893 276.09098816 152.22158813 C276.11322919 157.79924417 276.12826142 163.37688194 276.13835526 168.95457268 C276.1529596 177.01890499 276.17850133 185.0831737 276.20668654 193.14746863 C276.25212266 206.23220669 276.2887506 219.31695393 276.31982422 232.4017334 C276.3500228 245.11008311 276.38437907 257.8184104 276.42431641 270.5267334 C276.42800873 271.70234456 276.42800873 271.70234456 276.43177564 272.90170544 C276.4441505 276.83362195 276.45660698 280.7655382 276.46910405 284.69745433 C276.57262422 317.30091733 276.66184317 349.90440489 276.74169922 382.50793457 C283.32824714 379.33559689 287.69288726 375.41930286 291.11669922 368.88293457 C292.35261768 364.18644442 292.86679373 359.64626815 292.87033367 354.79722881 C292.87355812 353.67614623 292.87678256 352.55506364 292.88010472 351.40000886 C292.87855612 350.17852153 292.87700752 348.9570342 292.87541199 347.6985321 C292.87767754 346.39301889 292.8799431 345.08750568 292.88227731 343.74243146 C292.88838784 340.12485311 292.8882626 336.50729789 292.88708293 332.88971555 C292.88687874 328.9857233 292.89239948 325.08173844 292.8971405 321.17774963 C292.9054435 313.53138906 292.90819519 305.8850362 292.90875288 298.2386715 C292.9092282 292.02273843 292.91128377 285.8068079 292.91445351 279.59087563 C292.9232591 261.9639051 292.92787303 244.33694067 292.92712303 226.70996793 C292.92708308 225.75988628 292.92704312 224.80980462 292.92700195 223.83093262 C292.92696107 222.87968969 292.92692019 221.92844677 292.92687807 220.9483783 C292.92647162 205.53216375 292.93604117 190.11597361 292.95014032 174.69976612 C292.96450615 158.86692723 292.97141039 143.03410024 292.97054654 127.20125467 C292.97021465 118.31376222 292.97295853 109.42629539 292.98372459 100.53880882 C292.9928323 92.97187271 292.99500261 85.40497381 292.98821517 77.83803459 C292.98495135 73.97871905 292.98488831 70.11947491 292.99356842 66.26016617 C293.00288932 62.07281946 292.9966538 57.8856379 292.98893738 53.69828796 C292.99665272 51.87609522 292.99665272 51.87609522 293.00452393 50.0170905 C292.96381896 40.02489159 292.54853127 31.27328925 285.10107422 23.87902832 C276.89106331 16.47217065 268.38559737 16.35831101 257.75456238 16.3742218 C256.64505968 16.37195625 255.53555698 16.36969069 254.39243299 16.36735648 C250.67315113 16.3610243 246.95390579 16.36184535 243.23461914 16.3626709 C240.56856653 16.35967892 237.90251678 16.35630461 235.23646545 16.35249329 C228.74515113 16.34419466 222.2538459 16.3414388 215.76252671 16.34088091 C210.4848087 16.34040537 205.20709367 16.33834875 199.9293766 16.33518028 C184.95860722 16.32637584 169.98784499 16.32176058 155.017073 16.32251076 C153.8070142 16.32257069 153.8070142 16.32257069 152.57250977 16.32263184 C151.76481635 16.32267272 150.95712294 16.3227136 150.12495396 16.32275572 C137.03668706 16.32316212 123.94844893 16.3135934 110.86019035 16.29949347 C97.41393734 16.28512243 83.96769835 16.27822369 70.52143747 16.27908725 C62.97533567 16.27941896 55.42926404 16.27668287 47.88316917 16.26590919 C41.45808246 16.25679462 35.0330396 16.2546368 28.60794922 16.26141862 C25.33190114 16.26467901 22.05595441 16.26366657 18.77991104 16.25606537 C15.22312805 16.24834781 11.66656524 16.25298893 8.10978699 16.26069641 C7.08175734 16.25555285 6.0537277 16.25040928 4.99454564 16.24510986 C-5.76442335 16.29655849 -14.01513452 17.6397563 -21.50830078 25.94543457 Z M-79.19580078 62.25793457 C-95.33150867 87.68389852 -83.25830078 122.39413853 -83.25830078 152.50793457 C-27.15830078 152.50793457 28.94169922 152.50793457 86.74169922 152.50793457 C93.3780426 135.26228457 93.3780426 135.26228457 99.99169922 118.00793457 C105.21303377 105.20912007 111.31937329 97.30905609 123.91748047 91.23449707 C128.72529645 89.31960677 133.4322903 89.33781802 138.54931641 89.3026123 C139.43747543 89.29271271 140.32563446 89.28281311 141.2407074 89.27261353 C144.17330265 89.24105269 147.1059141 89.21626247 150.03857422 89.19152832 C152.07310403 89.17095412 154.10762961 89.14995752 156.14215088 89.1285553 C161.49489922 89.07338278 166.84768582 89.02395222 172.20050049 88.97570801 C177.66348676 88.92545781 183.12641752 88.86979011 188.58935547 88.8145752 C199.30675595 88.70705256 210.02420465 88.60559447 220.74169922 88.50793457 C220.77220234 85.94924965 220.79445434 83.39093295 220.81201172 80.83215332 C220.82143799 80.1124939 220.83086426 79.39283447 220.84057617 78.65136719 C220.87216974 72.50641723 220.48254514 66.86339443 216.45263672 61.92980957 C209.96051711 55.88901379 201.9304289 56.21685102 193.63430786 56.24723816 C191.96877218 56.24149984 191.96877218 56.24149984 190.2695893 56.23564559 C186.5533758 56.22533661 182.8373174 56.22930382 179.12109375 56.23327637 C176.45488982 56.22892873 173.78869722 56.22380977 171.12249756 56.2177887 C164.63465353 56.20505253 158.14685091 56.20324666 151.65899648 56.20558896 C146.38415942 56.20737353 141.10933492 56.2056195 135.83449936 56.20136452 C135.08314804 56.20076933 134.33179672 56.20017414 133.55767717 56.19956091 C132.03119549 56.19834913 130.50471381 56.197135 128.97823213 56.19591854 C114.66922339 56.18504712 100.36023822 56.18720357 86.05122815 56.19330338 C72.96947398 56.1984719 59.88779429 56.18721813 46.80605485 56.16820516 C33.36428522 56.14881914 19.92255082 56.14057212 6.48076713 56.14432842 C-1.06197888 56.14623934 -8.6046615 56.14376355 -16.14739609 56.12961388 C-22.56881904 56.11768934 -28.99013959 56.11630716 -35.41156398 56.12840404 C-38.68563541 56.13428534 -41.95948137 56.1337798 -45.23354721 56.12340164 C-48.78818538 56.11294731 -52.34232195 56.12102503 -55.89694214 56.13371277 C-56.92428966 56.12633848 -57.95163719 56.1189642 -59.01011646 56.11136645 C-66.20366127 56.16530604 -74.0517359 56.63434069 -79.19580078 62.25793457 Z M120.83056641 113.5032959 C117.16788045 117.85180298 115.40475511 122.58905941 113.50732422 127.89465332 C113.14322449 128.87408401 112.77912476 129.85351471 112.4039917 130.86262512 C111.25249499 133.96858546 110.12152762 137.0815349 108.99169922 140.19543457 C107.8432141 143.31828446 106.69059214 146.4395752 105.53656006 149.56037903 C104.82228911 151.49649174 104.11204061 153.43409436 103.40631104 155.37333679 C103.08547546 156.25137466 102.76463989 157.12941254 102.43408203 158.03405762 C102.15461731 158.8034819 101.87515259 159.57290619 101.58721924 160.36564636 C99.26655036 166.245509 99.26655036 166.245509 96.74169922 167.50793457 C94.19262974 167.61129551 91.67041959 167.65400618 89.12083435 167.6526947 C87.92723182 167.65798497 87.92723182 167.65798497 86.70951611 167.66338211 C84.02809936 167.67410436 81.34671809 167.67775626 78.6652832 167.68151855 C76.74857939 167.68782134 74.83187706 167.69458683 72.91517639 167.70178223 C68.77909589 167.71647447 64.64302113 167.72819037 60.50692558 167.73773003 C53.96390496 167.75316164 47.42093301 167.77711243 40.87794495 167.80262756 C22.26900306 167.87387993 3.66003287 167.9335485 -14.94897461 167.98474121 C-25.22014447 168.01307242 -35.49126631 168.04847232 -45.76238579 168.09139496 C-52.26287038 168.11813288 -58.76330063 168.13605981 -65.26382935 168.14743221 C-69.31666618 168.15657978 -73.36943729 168.17395248 -77.42223549 168.19361115 C-79.29707553 168.2010641 -81.17193246 168.20516634 -83.04678726 168.20560646 C-85.614171 168.20669546 -88.18122366 168.22000101 -90.74855042 168.2361908 C-91.8511195 168.23226551 -91.8511195 168.23226551 -92.9759627 168.22826093 C-101.75826991 168.31425678 -109.48723781 169.7025474 -115.88720703 176.14855957 C-122.73625027 183.74027015 -123.41075799 191.4821144 -123.39201355 201.36909485 C-123.39427911 202.24991862 -123.39654466 203.13074238 -123.39887887 204.03825778 C-123.40519849 206.98364848 -123.40439082 209.92899293 -123.40356445 212.87438965 C-123.40655722 214.98872436 -123.40996002 217.10305852 -123.41374207 219.21739197 C-123.42257438 224.95713026 -123.42491986 230.69685364 -123.42555785 236.43659806 C-123.4262688 240.02375522 -123.42840396 243.61090859 -123.43105507 247.1980648 C-123.44030596 259.71582657 -123.44439028 272.2335777 -123.44360352 284.75134277 C-123.4430028 296.41424866 -123.45355415 308.07710828 -123.46934718 319.74000245 C-123.48242876 329.75801778 -123.48778715 339.77601801 -123.48714811 349.79404181 C-123.4868933 355.77518985 -123.48973498 361.75629677 -123.50032616 367.73743629 C-123.51001748 373.363988 -123.51007917 378.99045937 -123.50280952 384.61701393 C-123.50176497 386.67892576 -123.50411888 388.74084261 -123.51016998 390.80274582 C-123.51791118 393.62386558 -123.51323099 396.44470936 -123.50553894 399.26582336 C-123.5106825 400.0759599 -123.51582607 400.88609645 -123.5211255 401.72078258 C-123.46726518 410.69945451 -122.2281245 418.5736096 -115.61767578 425.13684082 C-108.72503078 431.35520534 -102.00656721 432.63413507 -92.81967354 432.6309824 C-90.89459502 432.63396897 -90.89459502 432.63396897 -88.93062603 432.63701588 C-87.51373789 432.63416317 -86.09684994 432.63121759 -84.67996216 432.62818909 C-83.16923151 432.62862527 -81.65850093 432.62950106 -80.14777076 432.63077825 C-75.99974274 432.63301388 -71.85174054 432.62901465 -67.7037158 432.62400019 C-63.22934184 432.61968252 -58.75496933 432.62114305 -54.28059387 432.62190247 C-46.5295286 432.62242686 -38.77847175 432.61928883 -31.0274086 432.61366463 C-19.8206663 432.60553827 -8.61392808 432.60293324 2.59281684 432.60167664 C20.77493359 432.59948791 38.95704585 432.59283266 57.13916016 432.58337402 C74.80159482 432.57419528 92.46402827 432.56711671 110.12646484 432.56286621 C111.21514189 432.56260349 112.30381893 432.56234076 113.42548619 432.56207008 C118.88704839 432.56076504 124.34861059 432.55950134 129.8101728 432.55825818 C175.12068471 432.54789114 220.43119173 432.53027767 265.74169922 432.50793457 C265.45881408 431.78633217 265.17592895 431.06472977 264.88447154 430.32126063 C262.09059943 422.69256596 261.16880348 416.12541416 261.23617554 408.03999329 C261.23008542 406.84369299 261.2239953 405.6473927 261.21772063 404.41484088 C261.20490326 401.12986484 261.20968959 397.84548424 261.22221184 394.56052554 C261.23133423 391.00426163 261.21721411 387.44807766 261.20594788 383.89183044 C261.18950443 377.7401994 261.18728751 371.58869841 261.19471359 365.43705177 C261.20526521 356.53320593 261.19179558 347.62951814 261.17224903 338.72569331 C261.14096315 324.2641905 261.12590877 309.80272125 261.12255859 295.34118652 C261.12225261 294.04501747 261.12225261 294.04501747 261.12194045 292.72266319 C261.12173708 291.85746981 261.12153371 290.99227643 261.12132418 290.10086507 C261.11840271 277.82842807 261.11159471 265.55600143 261.10009766 253.28356934 C261.09929236 252.41960794 261.09848707 251.55564654 261.09765737 250.66550449 C261.0838947 236.25176115 261.06210215 221.83803627 261.03622782 207.42430991 C261.02080461 198.54388155 261.01356807 189.66351364 261.01702274 180.78307214 C261.0190655 174.69993866 261.0143906 168.61683525 261.00447939 162.53370956 C260.99905688 159.02674861 260.99695547 155.51986558 261.00365257 152.01290512 C261.00929773 148.20683927 261.00274228 144.40097877 260.99325562 140.59492493 C260.99791883 139.49316903 261.00258204 138.39141314 261.00738657 137.25627071 C260.96012888 127.54067289 260.32362268 119.04998715 253.10107422 111.87902832 C245.31074388 104.85079552 237.331821 104.35746083 227.20727539 104.3626709 C226.26500595 104.35931229 225.32273651 104.35595367 224.35191345 104.35249329 C221.24615143 104.34301776 218.14044353 104.34104185 215.03466797 104.33996582 C212.86761961 104.33675078 210.70057147 104.33338653 208.53352356 104.32987976 C203.99345395 104.32389692 199.45340335 104.32203898 194.91333008 104.32263184 C189.10978574 104.32273339 183.30636394 104.30908457 177.50284863 104.29185963 C173.02716009 104.28071413 168.55150093 104.27871342 164.07579994 104.27924156 C161.93688853 104.27806516 159.79797628 104.27366257 157.6590786 104.26590919 C154.66073521 104.25605824 151.66265471 104.25900753 148.66430664 104.26501465 C147.78971802 104.25939514 146.91512939 104.25377563 146.01403809 104.24798584 C135.97249852 104.29883665 127.87511831 105.83408774 120.83056641 113.5032959 Z M308.74169922 194.50793457 C308.73949938 195.84557971 308.73949938 195.84557971 308.7372551 197.21024799 C308.70015847 218.93675948 308.6411058 240.66311533 308.55779648 262.38950062 C308.51803436 272.89634765 308.48562749 283.40312009 308.47070312 293.91003418 C308.45767197 303.07083974 308.43066991 312.23148097 308.38708615 321.39219397 C308.36450431 326.24005019 308.34878657 331.08770397 308.34981537 335.93561745 C308.35056392 340.50509833 308.33253519 345.07413229 308.30053139 349.64349747 C308.29206098 351.3143033 308.2902629 352.98515944 308.29589653 354.65597725 C308.3353616 368.16743633 306.63587395 379.50025114 296.74169922 389.50793457 C290.68008047 394.65266981 284.23402915 397.94141304 276.74169922 400.50793457 C276.32326216 414.45020142 276.32326216 414.45020142 282.74169922 426.50793457 C289.55040766 431.89088783 296.12155645 433.13986233 304.74169922 432.50793457 C310.89022233 431.594902 316.19290034 429.73182072 320.18701172 424.67980957 C324.53015322 418.17750629 324.89158502 412.12399935 324.87541199 404.40605164 C324.87881032 403.20732256 324.87881032 403.20732256 324.88227731 401.98437673 C324.8885907 399.31537532 324.88778966 396.64642503 324.88696289 393.97741699 C324.88995605 392.06012405 324.89335894 390.14283171 324.8971405 388.22554016 C324.90596889 383.02297452 324.90831813 377.82042533 324.90895629 372.61785293 C324.90966746 369.36571504 324.91180306 366.11358132 324.91445351 362.86144447 C324.92370315 351.51077636 324.92778888 340.16011999 324.92700195 328.80944824 C324.92640129 318.23717185 324.93695185 307.6649465 324.95274562 297.09268302 C324.96583117 288.00884232 324.97118542 278.92501828 324.97054654 269.84116822 C324.97029185 264.41893202 324.97312722 258.99674119 324.98372459 253.57451439 C324.9934226 248.47325657 324.99347305 243.37208733 324.98620796 238.27082634 C324.98516423 236.40242127 324.9875124 234.53401063 324.99356842 232.66561508 C325.00132143 230.10722965 324.9966218 227.54914764 324.98893738 224.99076843 C324.99408094 224.25845086 324.9992245 223.52613328 325.00452393 222.77162427 C324.95262083 214.90551352 323.85025716 207.72104559 318.74169922 201.50793457 C315.60023155 198.45253451 312.93698674 195.90636374 308.74169922 194.50793457 Z " fill="#F78627" transform="translate(155.25830078125,31.4920654296875)"/>
<path d="M0 0 C1.27419296 -0.00852997 2.54838593 -0.01705994 3.8611908 -0.02584839 C5.26078809 -0.02514946 6.66038528 -0.02422645 8.0599823 -0.02310181 C9.54378598 -0.02909059 11.02758655 -0.03589694 12.51138306 -0.04345703 C16.53218172 -0.06108923 20.55289521 -0.06581125 24.5737288 -0.0670886 C27.08883116 -0.0685124 29.60391201 -0.07278634 32.11900902 -0.07808304 C40.90208175 -0.09657451 49.68509387 -0.10475481 58.46818542 -0.10317993 C66.6411616 -0.10197895 74.81387352 -0.12307501 82.98678285 -0.15466726 C90.015449 -0.18086333 97.04402903 -0.19154583 104.07274359 -0.19026911 C108.26544632 -0.18976043 112.45791413 -0.19539126 116.65056801 -0.21662521 C120.59629201 -0.23606382 124.54155833 -0.23609409 128.48729897 -0.22159195 C129.92999443 -0.21950965 131.37271897 -0.22417011 132.81536484 -0.23631287 C144.34050307 -0.32698631 152.25384457 1.41043988 160.77946472 9.34164429 C168.00127095 17.11533528 170.06442226 25.26152641 169.87712097 35.72836304 C169.02189817 45.53636124 164.12309302 52.52189432 156.77165222 58.80258179 C151.29416688 62.95916911 146.04456627 64.51387414 139.13705444 64.53485107 C137.86286148 64.54338104 136.58866852 64.55191101 135.27586365 64.56069946 C133.87626635 64.56000054 132.47666916 64.55907753 131.07707214 64.55795288 C129.59326846 64.56394166 128.10946789 64.57074801 126.62567139 64.57830811 C122.60487272 64.59594031 118.58415924 64.60066232 114.56332564 64.60193968 C112.04822329 64.60336347 109.53314243 64.60763741 107.01804543 64.61293411 C98.23497269 64.63142558 89.45196057 64.63960588 80.66886902 64.63803101 C72.49589284 64.63683002 64.32318092 64.65792608 56.15027159 64.68951833 C49.12160544 64.7157144 42.09302542 64.7263969 35.06431085 64.72512019 C30.87160812 64.72461151 26.67914032 64.73024234 22.48648643 64.75147629 C18.54076244 64.7709149 14.59549611 64.77094516 10.64975548 64.75644302 C9.20706001 64.75436072 7.76433547 64.75902118 6.32168961 64.77116394 C-5.20344863 64.86183738 -13.11679012 63.1244112 -21.64241028 55.19320679 C-28.86421651 47.4195158 -30.92736782 39.27332467 -30.74006653 28.80648804 C-29.88484373 18.99848983 -24.98603858 12.01295675 -17.63459778 5.73226929 C-12.15711244 1.57568196 -6.90751183 0.02097694 0 0 Z M-10.43147278 22.32992554 C-13.85863098 27.36356414 -14.08915938 31.24635105 -13.43147278 37.26742554 C-11.0835462 42.14388844 -8.14386424 44.67080167 -3.43147278 47.26742554 C0.17584734 48.18928019 3.55752961 48.39666723 7.27232361 48.40786743 C8.41051544 48.41357758 9.54870728 48.41928772 10.72138977 48.4251709 C12.58076675 48.42684769 12.58076675 48.42684769 14.47770691 48.42855835 C16.44684555 48.43600571 16.44684555 48.43600571 18.45576477 48.44360352 C22.05099916 48.45669103 25.64621491 48.46316539 29.24146938 48.46761417 C31.490722 48.47055095 33.73996959 48.47465691 35.98921967 48.47911835 C43.03557395 48.49278401 50.08191665 48.50245507 57.12828326 48.50632024 C65.2455892 48.51079808 73.3627265 48.52833706 81.47998118 48.55732083 C87.76552444 48.57898047 94.05102039 48.58902681 100.33660054 48.59036136 C104.08551227 48.59140637 107.83426528 48.59724915 111.58313751 48.61518097 C115.76945121 48.63481655 119.95541463 48.63035568 124.14176941 48.62387085 C125.37325714 48.63308563 126.60474487 48.64230042 127.87355042 48.65179443 C138.76421323 48.67268659 138.76421323 48.67268659 148.1840477 43.81544876 C152.25453267 39.08037651 152.92448389 35.86841765 152.84587097 29.80648804 C152.43476278 26.04282151 151.08566362 24.04952366 148.56852722 21.26742554 C143.09134822 16.95560377 138.68985795 16.14756158 131.86473083 16.12698364 C130.726539 16.1212735 129.58834717 16.11556335 128.41566467 16.10968018 C126.55628769 16.10800339 126.55628769 16.10800339 124.65934753 16.10629272 C122.69020889 16.09884537 122.69020889 16.09884537 120.68128967 16.09124756 C117.08605528 16.07816005 113.49083954 16.07168568 109.89558506 16.0672369 C107.64633244 16.06430012 105.39708485 16.06019417 103.14783478 16.05573273 C96.1014805 16.04206706 89.05513779 16.032396 82.00877118 16.02853084 C73.89146525 16.024053 65.77432794 16.00651401 57.65707326 15.97753024 C51.37153001 15.95587061 45.08603405 15.94582427 38.8004539 15.94448972 C35.05154218 15.9434447 31.30278916 15.93760193 27.55391693 15.9196701 C23.36760323 15.90003453 19.18163981 15.9044954 14.99528503 15.91098022 C13.7637973 15.90176544 12.53230957 15.89255066 11.26350403 15.88305664 C-0.77963957 15.9335462 -0.77963957 15.9335462 -10.43147278 22.32992554 Z " fill="#F67925" transform="translate(94.43147277832031,375.7325744628906)"/>
<path d="M0 0 C1.27866943 -0.0112793 2.55733887 -0.02255859 3.87475586 -0.03417969 C5.28955305 -0.02640266 6.704348 -0.01821 8.11914062 -0.00964355 C9.61076542 -0.01506435 11.10238485 -0.02218677 12.59399414 -0.03088379 C16.6436169 -0.04912547 20.69283223 -0.04204633 24.74246216 -0.02936745 C28.97936099 -0.01924407 33.21622481 -0.02863128 37.453125 -0.03491211 C44.56842312 -0.04219046 51.68355521 -0.03259594 58.79882812 -0.0135498 C67.02641862 0.00821938 75.25361265 0.00116814 83.48119354 -0.02085543 C90.54373317 -0.03900413 97.6061534 -0.04157037 104.6687088 -0.03110075 C108.88752237 -0.02486287 113.10614956 -0.02403817 117.32495117 -0.0372467 C121.29119435 -0.04879699 125.25692611 -0.04079505 129.22311401 -0.01766968 C130.6791804 -0.01237811 132.1352898 -0.01390409 133.59133911 -0.02272034 C135.57780425 -0.03363977 137.56436338 -0.01752243 139.55078125 0 C141.21880798 0.00226215 141.21880798 0.00226215 142.92053223 0.00457001 C146.42748135 0.62291028 147.6037293 1.74310328 149.77539062 4.50793457 C150.30664062 6.50793457 150.30664062 6.50793457 150.27539062 8.50793457 C150.29085937 9.49793457 150.29085937 9.49793457 150.30664062 10.50793457 C149.52474835 13.45152901 148.12782438 14.6039415 145.77539062 16.50793457 C142.92053223 17.01129913 142.92053223 17.01129913 139.55078125 17.01586914 C138.27211182 17.02714844 136.99344238 17.03842773 135.67602539 17.05004883 C134.2612282 17.0422718 132.84643325 17.03407914 131.43164062 17.0255127 C129.94001583 17.03093349 128.4483964 17.03805591 126.95678711 17.04675293 C122.90716435 17.06499461 118.85794902 17.05791547 114.80831909 17.04523659 C110.57142026 17.03511321 106.33455644 17.04450042 102.09765625 17.05078125 C94.98235813 17.0580596 87.86722604 17.04846509 80.75195312 17.02941895 C72.52436263 17.00764976 64.2971686 17.014701 56.06958771 17.03672457 C49.00704808 17.05487327 41.94462785 17.05743951 34.88207245 17.04696989 C30.66325888 17.04073201 26.44463169 17.03990731 22.22583008 17.05311584 C18.2595869 17.06466613 14.29385514 17.05666419 10.32766724 17.03353882 C8.87160085 17.02824725 7.41549145 17.02977323 5.95944214 17.03858948 C3.972977 17.04950891 1.98641787 17.03339157 0 17.01586914 C-1.66802673 17.01360699 -1.66802673 17.01360699 -3.36975098 17.01129913 C-6.8767001 16.39295886 -8.05294805 15.27276586 -10.22460938 12.50793457 C-10.75585938 10.50793457 -10.75585938 10.50793457 -10.72460938 8.50793457 C-10.74007812 7.51793457 -10.74007812 7.51793457 -10.75585938 6.50793457 C-9.2677065 0.9054767 -5.22342768 0.00708394 0 0 Z " fill="#FAB52F" transform="translate(98.224609375,103.4920654296875)"/>
<path d="M0 0 C1.07672974 -0.0112793 2.15345947 -0.02255859 3.26281738 -0.03417969 C5.02716125 -0.0220343 5.02716125 -0.0220343 6.82714844 -0.00964355 C8.69107239 -0.02015747 8.69107239 -0.02015747 10.59265137 -0.03088379 C13.9978753 -0.04547416 17.40212726 -0.04205291 20.80729675 -0.02936745 C24.37154442 -0.01923659 27.9357507 -0.02863335 31.5 -0.03491211 C37.48542738 -0.04218831 43.47065729 -0.0326017 49.45605469 -0.0135498 C56.37491301 0.00821911 63.29329986 0.0011677 70.21214676 -0.02085543 C76.15368306 -0.03901038 82.09507746 -0.04156736 88.03663254 -0.03110075 C91.58476235 -0.02486625 95.13267058 -0.02402872 98.68078613 -0.0372467 C102.63600985 -0.05095221 106.59070592 -0.03195378 110.54589844 -0.00964355 C111.72212769 -0.01774048 112.89835693 -0.0258374 114.11022949 -0.03417969 C115.7253241 -0.01726074 115.7253241 -0.01726074 117.37304688 0 C118.30808044 0.0015081 119.24311401 0.0030162 120.20648193 0.00457001 C123.43531902 0.65991475 124.637185 1.9861788 126.68652344 4.50793457 C127.21777344 6.50793457 127.21777344 6.50793457 127.18652344 8.50793457 C127.20199219 9.49793457 127.20199219 9.49793457 127.21777344 10.50793457 C126.44425138 13.4200176 124.98577122 14.60089121 122.68652344 16.50793457 C120.20648193 17.01129913 120.20648193 17.01129913 117.37304688 17.01586914 C116.29631714 17.02714844 115.2195874 17.03842773 114.11022949 17.05004883 C112.34588562 17.03790344 112.34588562 17.03790344 110.54589844 17.0255127 C108.68197449 17.03602661 108.68197449 17.03602661 106.78039551 17.04675293 C103.37517158 17.0613433 99.97091962 17.05792205 96.56575012 17.04523659 C93.00150246 17.03510573 89.43729618 17.04450249 85.87304688 17.05078125 C79.8876195 17.05805745 73.90238958 17.04847084 67.91699219 17.02941895 C60.99813386 17.00765003 54.07974702 17.01470144 47.16090012 17.03672457 C41.21936382 17.05487952 35.27796941 17.0574365 29.33641434 17.04696989 C25.78828453 17.04073539 22.2403763 17.03989786 18.69226074 17.05311584 C14.73703703 17.06682135 10.78234095 17.04782292 6.82714844 17.0255127 C5.65091919 17.03360962 4.47468994 17.04170654 3.26281738 17.05004883 C1.64772278 17.03312988 1.64772278 17.03312988 0 17.01586914 C-0.93503357 17.01436104 -1.87006714 17.01285294 -2.83343506 17.01129913 C-6.06227215 16.35595439 -7.26413812 15.02969034 -9.31347656 12.50793457 C-9.84472656 10.50793457 -9.84472656 10.50793457 -9.81347656 8.50793457 C-9.82894531 7.51793457 -9.82894531 7.51793457 -9.84472656 6.50793457 C-8.49154751 1.41361344 -4.87144101 0.00785708 0 0 Z " fill="#FAB12E" transform="translate(97.3134765625,135.4920654296875)"/>
<path d="M0 0 C5.23988008 3.17773373 9.18170384 7.85847691 12 13.25 C13.45595008 21.66215601 13.40727994 28.75225744 9.12109375 36.3046875 C5.56988826 41.30663608 1.42164424 44.6230447 -4.4375 46.5 C-12.28153876 47.30595858 -20.04684916 47.61823937 -26.4375 42.5 C-32.84619509 36.51175607 -35.4454926 31.48455614 -35.8125 22.6875 C-35.65902166 15.79802772 -34.28358505 10.60157911 -29.56640625 5.4609375 C-21.52951389 -1.92267249 -10.41997604 -4.61747958 0 0 Z M-16.8125 17.125 C-18.92456506 20.21186432 -19.04945145 21.8282913 -18.4375 25.5 C-16.9375 28 -16.9375 28 -14.4375 29.5 C-10.7657913 30.11195145 -9.14936432 29.98706506 -6.0625 27.875 C-3.95043494 24.78813568 -3.82554855 23.1717087 -4.4375 19.5 C-5.9375 17 -5.9375 17 -8.4375 15.5 C-12.1092087 14.88804855 -13.72563568 15.01293494 -16.8125 17.125 Z " fill="#F67B25" transform="translate(387.4375,153.5)"/>
<path d="M0 0 C5.23988008 3.17773373 9.18170384 7.85847691 12 13.25 C13.45595008 21.66215601 13.40727994 28.75225744 9.12109375 36.3046875 C5.56988826 41.30663608 1.42164424 44.6230447 -4.4375 46.5 C-12.28153876 47.30595858 -20.04684916 47.61823937 -26.4375 42.5 C-32.84619509 36.51175607 -35.4454926 31.48455614 -35.8125 22.6875 C-35.65902166 15.79802772 -34.28358505 10.60157911 -29.56640625 5.4609375 C-21.52951389 -1.92267249 -10.41997604 -4.61747958 0 0 Z M-16.8125 17.125 C-18.92456506 20.21186432 -19.04945145 21.8282913 -18.4375 25.5 C-16.9375 28 -16.9375 28 -14.4375 29.5 C-10.7657913 30.11195145 -9.14936432 29.98706506 -6.0625 27.875 C-3.95043494 24.78813568 -3.82554855 23.1717087 -4.4375 19.5 C-5.9375 17 -5.9375 17 -8.4375 15.5 C-12.1092087 14.88804855 -13.72563568 15.01293494 -16.8125 17.125 Z " fill="#F78727" transform="translate(323.4375,153.5)"/>
</svg>
