<?xml version="1.0" encoding="UTF-8"?>
<svg version="1.1" xmlns="http://www.w3.org/2000/svg" width="512" height="512">
<path d="M0 0 C0.65880157 0.00054382 1.31760315 0.00108765 1.99636841 0.00164795 C12.94884998 0.0431051 23.0324326 0.91979187 33.4375 4.375 C34.0867041 4.58930664 34.7359082 4.80361328 35.40478516 5.02441406 C50.8695932 10.32200725 63.4556548 18.42802402 75.4375 29.375 C76.17613281 30.03113281 76.91476562 30.68726562 77.67578125 31.36328125 C86.83955402 39.93939725 93.52908891 50.59184246 98.66210938 61.95703125 C101.86229088 68.87786335 106.01918971 72.40578273 112.625 76 C118.22058586 79.04962879 118.22058586 79.04962879 120.4375 82.375 C120.88935216 85.91450857 120.85859443 87.70826715 118.9375 90.75 C115.30498926 93.11113198 112.71906703 92.6604378 108.4375 92.375 C108.5096875 93.04144531 108.581875 93.70789063 108.65625 94.39453125 C111.64165037 124.04121549 104.61667636 152.78941077 86.015625 176.3984375 C66.13222919 199.35472175 40.90593444 214.22040366 10.3431797 217.16719627 C4.80503352 217.5632645 -0.73635334 217.54003055 -6.28637695 217.55200195 C-7.63932971 217.55828187 -8.9922808 217.56492997 -10.3452301 217.57191467 C-14.74706873 217.59274596 -19.14890696 217.60328546 -23.55078125 217.61328125 C-25.07308659 217.61733427 -26.59539176 217.62145135 -28.11769676 217.62563133 C-35.26119885 217.64462337 -42.40469089 217.65887635 -49.5482133 217.6672433 C-57.77818724 217.67704526 -66.00789436 217.70346632 -74.23777419 217.74374419 C-80.61592279 217.77388539 -86.99399463 217.78870957 -93.37221307 217.79202431 C-97.17575164 217.79437359 -100.97900311 217.8033207 -104.78246498 217.82848549 C-108.353949 217.85174193 -111.92495611 217.8560097 -115.4964962 217.84572411 C-117.42898006 217.84499215 -119.36143963 217.86409172 -121.29382324 217.88378906 C-123.02418571 217.87337334 -123.02418571 217.87337334 -124.789505 217.86274719 C-126.28959846 217.86632972 -126.28959846 217.86632972 -127.81999683 217.86998463 C-131.36192444 217.23071473 -133.04495461 215.90866456 -135.5625 213.375 C-136.125 209.875 -136.125 209.875 -135.5625 206.375 C-133.49497216 203.68670413 -132.31270052 202.51824944 -128.94698048 201.87557125 C-127.94771377 201.87578053 -126.94844706 201.87598982 -125.91889954 201.87620544 C-124.76840118 201.86662811 -123.61790283 201.85705078 -122.43254089 201.84718323 C-120.54454521 201.86179848 -120.54454521 201.86179848 -118.6184082 201.87670898 C-117.27595416 201.87288459 -115.93350421 201.86726452 -114.59106445 201.85998535 C-111.69957606 201.84803055 -108.80845079 201.84852799 -105.91695595 201.85857964 C-101.3289607 201.8741745 -96.74133581 201.86043369 -92.15336609 201.84254456 C-83.22156495 201.81170529 -74.28987676 201.81022089 -65.35803223 201.81219482 C-54.03693828 201.81358624 -42.71593399 201.80291785 -31.39490384 201.7636171 C-27.58982621 201.75123236 -23.78497341 201.74538569 -19.97988319 201.75512505 C9.76342539 201.82996254 36.74924237 199.55388613 60.4375 179.375 C61.17484375 178.78203125 61.9121875 178.1890625 62.671875 177.578125 C80.53868152 162.66858301 90.60752873 140.00516737 93.234375 117.21484375 C93.58644208 110.55942179 93.08163198 103.99911401 92.4375 97.375 C91.7775 98.035 91.1175 98.695 90.4375 99.375 C83.35465976 99.93713018 83.35465976 99.93713018 80.5 98.1875 C79.08740373 95.77777695 78.65891956 94.18741682 78.4375 91.375 C79.46484598 88.86976805 80.50787942 86.66031909 81.8125 84.3125 C84.7721398 79.08630064 84.7721398 79.08630064 86.4375 73.375 C85.39981582 70.69653315 84.31836443 68.28413356 83 65.75 C82.63237549 65.03432861 82.26475098 64.31865723 81.88598633 63.58129883 C78.70758532 57.56981295 75.05466152 52.38246114 70.4375 47.375 C69.63828125 46.48425781 68.8390625 45.59351563 68.015625 44.67578125 C52.16686146 27.86577613 30.58672637 17.05746108 7.3828125 16.0625 C-19.92913251 15.34392263 -42.99295121 22.13748601 -63.328125 41.2421875 C-64.06546875 41.94601563 -64.8028125 42.64984375 -65.5625 43.375 C-66.17609375 43.91382813 -66.7896875 44.45265625 -67.421875 45.0078125 C-75.39124103 52.28260076 -81.09302997 62.6587608 -85.5625 72.375 C-84.49 72.2925 -83.4175 72.21 -82.3125 72.125 C-78.5625 72.375 -78.5625 72.375 -76.125 74 C-74.06458229 77.13183492 -73.8857455 78.69044773 -74.5625 82.375 C-76.92919221 85.67146414 -78.74048494 87.04294918 -82.53125 88.57421875 C-86.20527881 90.17067174 -88.71661507 91.53343356 -91.5625 94.375 C-97.54504267 110.50552025 -90.21373419 133.46650191 -83.5625 148.375 C-80.06992206 155.75745971 -75.81690074 162.13888532 -70.5625 168.375 C-69.94503906 169.12652344 -69.32757813 169.87804687 -68.69140625 170.65234375 C-65.13310694 174.84068398 -61.54956638 178.22884622 -57.125 181.5 C-53.77839655 184.09374659 -52.70473656 184.99354741 -51.1875 189.0625 C-51.65309666 193.17527053 -52.36303289 194.73543964 -55.5625 197.375 C-59.13159025 198.21478594 -61.32870859 198.06795134 -64.55859375 196.25390625 C-67.04118699 194.42726425 -69.28812883 192.45668617 -71.5625 190.375 C-72.31007568 189.69896729 -72.31007568 189.69896729 -73.07275391 189.00927734 C-95.70695775 168.305496 -107.1176907 140.94044052 -108.7109375 110.54296875 C-108.76723441 107.05818994 -108.63813309 103.81840619 -108.05078125 100.375 C-106.84249184 92.33262571 -108.11247503 87.90546912 -112.66601562 81.39550781 C-115.82811546 76.74683204 -116.02654435 73.81176657 -115.5625 68.375 C-114.5625 66.375 -114.5625 66.375 -112.5625 65.375 C-109.83166397 64.97675308 -107.27306201 64.81758604 -104.5625 65.375 C-103.53240558 66.34397135 -102.52824761 67.3418826 -101.5625 68.375 C-101.31717529 67.87274902 -101.07185059 67.37049805 -100.8190918 66.85302734 C-95.14152225 55.35106585 -89.11869278 44.96482681 -80.5625 35.375 C-80.11793457 34.87532715 -79.67336914 34.3756543 -79.21533203 33.86083984 C-58.92539362 11.480378 -29.85113418 -0.04173127 0 0 Z " fill="#EC5223" transform="translate(255.5625,8.625)"/>
<path d="M0 0 C2.15911865 1.17512512 2.15911865 1.17512512 4 3 C4.48101807 5.52470398 4.48101807 5.52470398 4.45410156 8.57299805 C4.45379944 9.71395432 4.45349731 10.85491058 4.45318604 12.03044128 C4.43254089 13.26176285 4.41189575 14.49308441 4.390625 15.76171875 C4.38496521 17.02264847 4.37930542 18.28357819 4.37347412 19.5827179 C4.35486056 22.93195268 4.31893566 26.28009717 4.2746582 29.62902832 C4.23370857 33.04751163 4.21546388 36.46610764 4.1953125 39.88476562 C4.15116211 46.59014549 4.08418642 53.29500979 4 60 C4.94883151 59.99723462 5.89766302 59.99446924 6.875247 59.99162006 C29.95146137 59.92505176 53.02766329 59.87573715 76.10395336 59.84456348 C87.26342873 59.82908784 98.42284071 59.80798495 109.58227539 59.77368164 C119.30767096 59.74380069 129.03302062 59.72443007 138.75846082 59.71773452 C143.90906634 59.71382006 149.05954052 59.70460597 154.21010399 59.68280983 C159.05684982 59.66246533 163.90341007 59.6561621 168.75019455 59.66067696 C170.52998042 59.65985084 172.30977243 59.65387309 174.08952141 59.64238358 C176.51838023 59.62747121 178.94653713 59.63104159 181.37541199 59.63923645 C182.43330383 59.62612866 182.43330383 59.62612866 183.51256722 59.61275607 C188.23667583 59.65587726 191.60531547 60.60531547 195 64 C195.11527019 66.09507313 195.15969915 68.19406588 195.17700195 70.29223633 C195.18357315 70.94919998 195.19014435 71.60616364 195.19691467 72.28303528 C195.21669076 74.46603498 195.22832042 76.64896572 195.23828125 78.83203125 C195.24235678 79.57633581 195.2464323 80.32064037 195.25063133 81.08749962 C195.27151164 85.0278127 195.28580414 88.96809077 195.29516602 92.90844727 C195.30622771 96.98087473 195.34061849 101.05275533 195.38033772 105.12498951 C195.40647481 108.25368776 195.41485527 111.38225526 195.41844749 114.51105309 C195.42332197 116.01218034 195.43496054 117.51330142 195.45348549 119.01432228 C195.47781447 121.11651578 195.47692436 123.21728913 195.4699707 125.31958008 C195.47877007 127.11375114 195.47877007 127.11375114 195.48774719 128.94416809 C194.90112082 132.61949747 193.95188884 133.79808941 191 136 C187.54761218 136.50347322 185.73217986 136.41556154 182.6875 134.6875 C181 133 181 133 180 130 C180 111.85 180 93.7 180 75 C121.92 75 63.84 75 4 75 C4 93.81 4 112.62 4 132 C0 136 0 136 -3 136.5 C-6 136 -6 136 -10 132 C-10 113.19 -10 94.38 -10 75 C-68.08 75 -126.16 75 -186 75 C-186 93.15 -186 111.3 -186 130 C-189 135 -189 135 -191 136 C-194.4886573 136.37920188 -196.29796262 136.52037109 -199.16395569 134.39601135 C-201.59049816 131.22940842 -201.50115512 129.31807359 -201.50170898 125.35131836 C-201.50711197 124.69231033 -201.51251495 124.03330231 -201.51808167 123.35432434 C-201.53055962 121.18236987 -201.51408817 119.01174335 -201.49609375 116.83984375 C-201.49624874 115.32817007 -201.49773779 113.81649599 -201.50050354 112.30482483 C-201.50188704 109.139805 -201.48933698 105.97523862 -201.46655273 102.81030273 C-201.43814339 98.75245066 -201.44091239 94.69535053 -201.45364285 90.63744259 C-201.46059521 87.51731435 -201.45281633 84.39736013 -201.44038582 81.2772541 C-201.43586868 79.78092681 -201.43553682 78.28458087 -201.43945122 76.78825188 C-201.44235986 74.69820674 -201.42587621 72.60920093 -201.40405273 70.51928711 C-201.39864975 69.33000107 -201.39324677 68.14071503 -201.38768005 66.91539001 C-201 64 -201 64 -199.6622467 62.15504456 C-195.90235039 59.54240724 -191.99020152 59.86182702 -187.61592102 59.87974548 C-186.85790056 59.87889106 -186.0998801 59.87803663 -185.31888932 59.87715632 C-182.77156971 59.87550541 -180.22431553 59.88101654 -177.67700195 59.88647461 C-175.85392254 59.88675659 -174.03084302 59.88659853 -172.20776367 59.8860321 C-167.25147792 59.88574456 -162.29521624 59.89163441 -157.33893609 59.89860606 C-152.16192766 59.90484669 -146.98491871 59.90544396 -141.8079071 59.90663147 C-132.00132033 59.90974269 -122.19474467 59.91795326 -112.38816279 59.92798096 C-101.22506649 59.93914859 -90.06196966 59.94465419 -78.89886916 59.94967639 C-55.93257327 59.96013604 -32.96628726 59.97773144 -10 60 C-10.00888245 59.29256149 -10.01776489 58.58512299 -10.0269165 57.85624695 C-10.10704887 51.19084582 -10.16795709 44.525579 -10.20724869 37.85980511 C-10.22812821 34.43277637 -10.25645083 31.00614546 -10.30175781 27.5793457 C-10.35351325 23.64018508 -10.37294237 19.70118582 -10.390625 15.76171875 C-10.41127014 14.53039719 -10.43191528 13.29907562 -10.45318604 12.03044128 C-10.45348816 10.88948502 -10.45379028 9.74852875 -10.45410156 8.57299805 C-10.46298401 7.567061 -10.47186646 6.56112396 -10.48101807 5.52470398 C-10 3 -10 3 -8.15911865 1.17512512 C-5.22711625 -0.42065086 -3.29301852 -0.41162732 0 0 Z " fill="#EF7020" transform="translate(259,231)"/>
<path d="M0 0 C0.68642578 -0.020625 1.37285156 -0.04125 2.08007812 -0.0625 C7.16678752 -0.10099922 10.6837931 0.84499783 15.1875 3.25 C17.85060202 7.29056859 18.91428209 11.61184903 20.1875 16.25 C21.33037386 17.60445367 21.33037386 17.60445367 24.375 17.5625 C28.25721286 17.57345575 28.25721286 17.57345575 31.0625 15.1875 C34.79003254 12.87642983 36.65036799 12.74434694 40.88671875 13.44921875 C47.78222223 15.84918176 54.94321347 23.76142693 58.1875 30.25 C58.60540727 34.51265412 58.44875435 37.20026491 56.125 40.75 C54.17091487 43.77368962 54.18769549 44.25307901 54.4375 48.1875 C54.685 49.198125 54.9325 50.20875 55.1875 51.25 C55.85136719 51.40855469 56.51523437 51.56710938 57.19921875 51.73046875 C62.80727611 53.2123058 66.50382722 54.49687383 70.1875 59.25 C71.51548292 63.23394876 71.41082082 66.89054275 71.4375 71.0625 C71.4684375 72.25456055 71.4684375 72.25456055 71.5 73.47070312 C71.53320499 78.48880724 70.96795076 81.90177701 68.1875 86.25 C65.26418706 88.58865035 62.51937624 89.47309788 58.9375 90.3125 C57.08125 90.7765625 57.08125 90.7765625 55.1875 91.25 C53.75445936 94.11608129 53.88105845 96.06300783 54.1875 99.25 C55.1775 100.7040625 55.1775 100.7040625 56.1875 102.1875 C58.64798138 105.95511211 58.81967513 107.82477409 58.1875 112.25 C54.8722059 118.88058819 48.18294407 126.54658137 41.1875 129.25 C34.19262821 129.92692308 34.19262821 129.92692308 30.125 127.1875 C27.23252537 124.85590891 27.23252537 124.85590891 23.3125 125.5 C22.28125 125.7475 21.25 125.995 20.1875 126.25 C20.02894531 126.91386719 19.87039063 127.57773438 19.70703125 128.26171875 C18.21916731 133.89258503 16.90577933 137.49957284 12.1875 141.25 C8.5825387 143.05248065 4.40751652 142.5203256 0.4375 142.5625 C-0.45710938 142.59150391 -1.35171875 142.62050781 -2.2734375 142.65039062 C-8.12992951 142.70653693 -11.32876375 142.094229 -15.8125 138.25 C-18.2724279 134.80610094 -18.86399153 130.3150363 -19.8125 126.25 C-23.03229366 125.38345127 -23.03229366 125.38345127 -26.8125 125.25 C-28.8190438 126.57346506 -30.81878175 127.90729179 -32.8125 129.25 C-36.94784729 130.12366492 -39.96792102 129.66330461 -43.75 127.8125 C-57.3475 116.435 -57.3475 116.435 -58.1875 108.875 C-57.74553055 104.6026287 -56.19608835 102.75089538 -53.8125 99.25 C-53.38242437 96.11659186 -53.23272697 94.26460281 -54.8125 91.5 C-57.34399411 89.91781618 -59.92281114 89.54258375 -62.80859375 88.91015625 C-66.0200817 87.85218069 -67.73487762 85.83128841 -69.8125 83.25 C-71.14048292 79.26605124 -71.03582082 75.60945725 -71.0625 71.4375 C-71.083125 70.64279297 -71.10375 69.84808594 -71.125 69.02929688 C-71.1581193 64.02414192 -70.63148104 60.56490258 -67.8125 56.25 C-63.73193531 53.65327702 -59.45057632 52.45589984 -54.8125 51.25 C-53.64522096 46.81301968 -53.64522096 46.81301968 -54.63671875 42.47265625 C-55.00410156 41.90417969 -55.37148437 41.33570313 -55.75 40.75 C-58.07427556 37.12996106 -58.44462529 34.59586135 -57.8125 30.25 C-54.64424806 23.91349612 -48.61279583 17.06455567 -42.2109375 14.0078125 C-39.16152984 13.04431887 -36.99891167 12.85982714 -33.8125 13.25 C-32.3584375 14.24 -32.3584375 14.24 -30.875 15.25 C-27.18792303 17.657887 -25.13669435 17.83210308 -20.8125 17.25 C-18.56978457 14.28908439 -18.56978457 14.28908439 -18 10.375 C-17.01008723 6.14253833 -15.27492725 3.97047855 -11.8125 1.25 C-8.01542741 -0.13960465 -3.994506 0.02950697 0 0 Z M-2.8125 15.25 C-3.17601562 16.06984375 -3.53953125 16.8896875 -3.9140625 17.734375 C-8.94094037 28.50993884 -8.94094037 28.50993884 -14.8125 31.25 C-22.06616114 33.66788705 -30.70415615 32.89496515 -37.8125 30.25 C-39.47871425 31.4145201 -39.47871425 31.4145201 -40.8125 33.25 C-40.55154456 35.92479327 -40.0120243 37.85095141 -38.8125 40.25 C-38.18907981 48.9299273 -38.34438113 54.96585316 -43.9375 61.875 C-47.59124723 64.89331293 -51.42458589 66.53880909 -55.8125 68.25 C-55.8125 70.23 -55.8125 72.21 -55.8125 74.25 C-55.14863281 74.54132813 -54.48476562 74.83265625 -53.80078125 75.1328125 C-46.70889662 78.42510347 -41.83220812 81.75370703 -38.8125 89.25 C-38.19943642 96.1469653 -38.38958366 102.73841232 -40.8125 109.25 C-39.6479799 110.91621425 -39.6479799 110.91621425 -37.8125 112.25 C-34.93881508 111.96263151 -32.55459856 111.16403285 -29.8125 110.25 C-22.65756856 109.54490983 -16.71864171 109.90447888 -10.8125 114.25 C-6.82956699 118.23293301 -4.77845762 122.07642732 -2.8125 127.25 C-0.8325 127.25 1.1475 127.25 3.1875 127.25 C3.47882813 126.58613281 3.77015625 125.92226562 4.0703125 125.23828125 C7.14409974 118.61707289 9.75617924 114.34749182 16.53125 111.140625 C19.40453187 110.17723049 21.66468074 109.98301787 24.6875 110 C25.6053125 109.99484375 26.523125 109.9896875 27.46875 109.984375 C30.36977509 110.26780849 32.52068824 111.11421986 35.1875 112.25 C37.3810345 112.2646239 37.3810345 112.2646239 39.1875 111.25 C40.70367907 109.55136062 40.70367907 109.55136062 41.1875 107.25 C40.87941406 106.50878906 40.57132812 105.76757812 40.25390625 105.00390625 C38.07942694 99.38849265 37.98502761 92.41021669 40.1328125 86.765625 C44.06767961 80.18276555 49.20207766 76.98938131 56.1875 74.25 C56.1875 72.27 56.1875 70.29 56.1875 68.25 C55.59582031 68.01925781 55.00414062 67.78851563 54.39453125 67.55078125 C48.17663668 64.98450503 44.37243574 62.26370447 40.375 56.75 C38.45708628 51.09720166 37.68899611 43.55468539 40.21484375 37.984375 C40.53582031 37.41203125 40.85679687 36.8396875 41.1875 36.25 C41.19228037 34.1022367 41.19228037 34.1022367 40.1875 32.25 C38.48886062 30.73382093 38.48886062 30.73382093 36.1875 30.25 C35.44628906 30.559375 34.70507812 30.86875 33.94140625 31.1875 C27.7754931 33.5664055 19.77594108 33.37092892 13.6875 30.75 C8.05161042 27.40889246 5.25366008 21.26064751 3.1875 15.25 C1.2075 15.25 -0.7725 15.25 -2.8125 15.25 Z " fill="#EC4F24" transform="translate(255.8125,45.75)"/>
<path d="M0 0 C0.84750824 -0.0065712 1.69501648 -0.0131424 2.56820679 -0.01991272 C5.3752247 -0.03963601 8.18218912 -0.05130652 10.98925781 -0.0612793 C12.42832363 -0.06739259 12.42832363 -0.06739259 13.89646149 -0.07362938 C18.97491745 -0.09448656 24.05334642 -0.10878949 29.13183594 -0.11816406 C34.37194038 -0.12922427 39.6116197 -0.16362079 44.85157394 -0.20333576 C48.88540424 -0.22950692 52.91913335 -0.23785638 56.95304108 -0.24144554 C58.8842989 -0.24631065 60.81555223 -0.25792246 62.74672699 -0.27648354 C65.45388778 -0.3008843 68.15994994 -0.29990826 70.8671875 -0.29296875 C72.05666489 -0.31218384 72.05666489 -0.31218384 73.27017212 -0.33178711 C78.8583864 -0.279753 82.07086016 1.01067754 86.69238281 4.17700195 C92.70890637 10.35613426 92.98902712 16.93500818 92.96704102 25.11035156 C92.97215195 26.09484787 92.97726288 27.07934418 92.98252869 28.09367371 C92.99639689 31.33896002 92.99547005 34.58403332 92.99316406 37.8293457 C92.99705234 40.09086689 93.00138728 42.35238735 93.00614929 44.61390686 C93.01360542 49.35070159 93.01332447 54.08742177 93.00805664 58.82421875 C93.00226108 64.88810098 93.01919828 70.95167786 93.04240131 77.01550961 C93.05714694 81.68500038 93.05800924 86.35441775 93.05489159 91.02392769 C93.05540432 93.25939095 93.06063304 95.49485836 93.07070351 97.730299 C93.08306717 100.85848609 93.07627643 103.98607991 93.06469727 107.11425781 C93.072341 108.03343994 93.07998474 108.95262207 93.08786011 109.8996582 C93.03126829 116.83168833 91.91785834 121.60914558 87.25488281 126.98950195 C82.32456563 131.19830931 78.46908656 131.47461585 72.08764648 131.4675293 C71.22048508 131.47424652 70.35332367 131.48096375 69.45988464 131.48788452 C66.5933153 131.506881 63.72697994 131.51078971 60.86035156 131.51293945 C58.86501469 131.51936681 56.86967876 131.52609512 54.87434387 131.53311157 C50.69053971 131.54508887 46.50681814 131.54879198 42.32299805 131.54760742 C36.96967369 131.54740434 31.61688084 131.57469343 26.26368237 131.60915184 C22.14148033 131.63142378 18.01940608 131.63544485 13.89715004 131.63438797 C11.92403649 131.63674398 9.95091941 131.64556751 7.97786522 131.6610527 C5.21330285 131.68071616 2.44988474 131.67487303 -0.31469727 131.6628418 C-1.12481262 131.67408081 -1.93492798 131.68531982 -2.76959229 131.69689941 C-8.40095038 131.6348309 -11.67325577 130.41605328 -16.30761719 127.17700195 C-20.03304417 122.47119946 -21.42424537 118.78641675 -21.44805908 112.87750244 C-21.45376923 112.02532135 -21.45947937 111.17314026 -21.46536255 110.2951355 C-21.46648041 109.36830963 -21.46759827 108.44148376 -21.46875 107.48657227 C-21.4737149 106.5039743 -21.47867981 105.52137634 -21.48379517 104.50900269 C-21.49840198 101.25770365 -21.50521666 98.00645342 -21.51074219 94.75512695 C-21.51649524 92.49314371 -21.52225295 90.23116047 -21.52801514 87.96917725 C-21.53852117 83.22464776 -21.54436632 78.48013519 -21.54785156 73.7355957 C-21.55333278 67.66504878 -21.57735472 61.59472655 -21.60582352 55.52425003 C-21.62447594 50.85043694 -21.62965691 46.17667767 -21.63118744 41.50283051 C-21.63420904 39.26539635 -21.64222087 37.02796303 -21.65537262 34.79056549 C-21.67248582 31.65520799 -21.67053971 28.52039542 -21.6640625 25.38500977 C-21.67327728 24.46628082 -21.68249207 23.54755188 -21.69198608 22.60098267 C-21.65038213 16.15056396 -20.87554359 10.25267744 -16.58886719 5.1184082 C-16.00105469 4.66336914 -15.41324219 4.20833008 -14.80761719 3.73950195 C-13.92589844 3.02987305 -13.92589844 3.02987305 -13.02636719 2.3059082 C-8.95962823 -0.36519988 -4.67082796 0.01567806 0 0 Z M-6.30761719 17.17700195 C-6.511847 20.23447228 -6.5907418 23.20173434 -6.58227539 26.26074219 C-6.58738632 27.20231171 -6.59249725 28.14388123 -6.59776306 29.11398315 C-6.61170516 32.237918 -6.61069881 35.36163337 -6.60839844 38.4855957 C-6.61228286 40.65031517 -6.61661699 42.81503388 -6.62138367 44.97975159 C-6.62885584 49.52184518 -6.6285474 54.06386105 -6.62329102 58.60595703 C-6.61749538 64.43494262 -6.63442498 70.26361056 -6.65763569 76.0925436 C-6.67234698 80.56457895 -6.67324828 85.03653735 -6.67012596 89.50859261 C-6.6706405 91.6580474 -6.67590285 93.80750636 -6.68593788 95.95693779 C-6.69823436 98.95945927 -6.69155139 101.96135618 -6.67993164 104.96386719 C-6.68757538 105.85696091 -6.69521912 106.75005463 -6.70309448 107.67021179 C-6.69608017 108.48761841 -6.68906586 109.30502502 -6.68183899 110.14720154 C-6.68200673 110.85714988 -6.68217447 111.56709822 -6.6823473 112.29856014 C-6.18738255 114.77971247 -5.30834711 115.66490089 -3.30761719 117.17700195 C-0.74254904 117.47295494 1.58005266 117.58700951 4.14550781 117.56518555 C4.90190552 117.5704425 5.65830322 117.57569946 6.43762207 117.58111572 C8.93941867 117.59432609 11.44057967 117.58557428 13.94238281 117.57543945 C15.67968874 117.5774599 17.41699385 117.58037109 19.15429688 117.58413696 C22.79598055 117.58856171 26.43744353 117.58212449 30.07910156 117.56811523 C34.75011766 117.55102317 39.42061665 117.56086356 44.09161377 117.57883263 C47.67923895 117.58966645 51.26674127 117.58622599 54.85437012 117.57844925 C56.57678285 117.57644612 58.29920668 117.57891045 60.02160645 117.58588791 C62.42779136 117.59349591 64.83313561 117.58190808 67.23925781 117.56518555 C67.95311646 117.57125824 68.6669751 117.57733093 69.40246582 117.58358765 C73.14151238 117.57377441 73.14151238 117.57377441 76.37535381 115.90505505 C77.97761632 113.80275155 78.06722376 112.76765839 78.06660461 110.14720154 C78.07361893 109.32979492 78.08063324 108.51238831 78.08786011 107.67021179 C78.08021637 106.77711807 78.07257263 105.88402435 78.06469727 104.96386719 C78.06834793 104.02054535 78.0719986 103.07722351 78.07575989 102.10531616 C78.08387733 98.98189387 78.07024621 95.85898836 78.05566406 92.7355957 C78.05514564 90.56991069 78.05566264 88.4042252 78.05717468 86.23854065 C78.05708491 81.69818097 78.04664394 77.15799867 78.02856445 72.61767578 C78.00586368 66.78754712 78.00533509 60.95767745 78.0120821 55.12751675 C78.01541761 50.65551944 78.00880011 46.18358158 77.99895287 41.71159554 C77.99509437 39.56132378 77.99395532 37.41104543 77.99553871 35.2607708 C77.99590808 32.26063221 77.98332579 29.26083037 77.96704102 26.26074219 C77.96951843 25.36562424 77.97199585 24.47050629 77.97454834 23.54826355 C78.15747756 18.88079658 78.15747756 18.88079658 75.69238281 15.17700195 C73.14350157 14.97868679 70.70328061 14.90421933 68.15332031 14.91821289 C67.3759552 14.91470825 66.59859009 14.91120361 65.79766846 14.90759277 C63.22081649 14.89876989 60.64423771 14.9046265 58.06738281 14.91137695 C56.28141222 14.91003046 54.49544199 14.90809006 52.70947266 14.90557861 C48.96350622 14.9026266 45.21763506 14.90692746 41.47167969 14.91625977 C36.66275448 14.92765436 31.85405251 14.9210953 27.0451355 14.90911484 C23.35634673 14.90189832 19.66761115 14.9041832 15.9788208 14.90937042 C14.20534234 14.9107075 12.43185911 14.90905719 10.65838623 14.90441132 C8.18260856 14.89934946 5.70719571 14.90705133 3.23144531 14.91821289 C2.12485565 14.9121402 2.12485565 14.9121402 0.99591064 14.90594482 C-3.10831474 14.81531143 -3.10831474 14.81531143 -6.30761719 17.17700195 Z " fill="#F2871C" transform="translate(220.3076171875,371.822998046875)"/>
<path d="M0 0 C0.83614838 -0.0065712 1.67229675 -0.0131424 2.53378296 -0.01991272 C5.30352876 -0.03963716 8.0732203 -0.05130761 10.84301758 -0.0612793 C11.79011408 -0.06535482 12.73721058 -0.06943035 13.71300697 -0.07362938 C18.72777717 -0.0944884 23.74252003 -0.10878976 28.75732422 -0.11816406 C33.92783087 -0.12921649 39.09790575 -0.16360346 44.26826 -0.20333576 C48.25151855 -0.22953003 52.23467476 -0.23785849 56.21801186 -0.24144554 C58.12332379 -0.24630574 60.02863133 -0.25790352 61.93385887 -0.27648354 C64.60729138 -0.30093055 67.27961406 -0.29989973 69.953125 -0.29296875 C70.73316391 -0.30577881 71.51320282 -0.31858887 72.31687927 -0.33178711 C77.88580909 -0.27943841 82.14219649 1.08060788 86.80004883 4.17700195 C90.30991051 7.956853 91.91972221 10.40514468 91.94721985 15.51519775 C91.95437515 16.42641891 91.96153046 17.33764008 91.96890259 18.276474 C91.97159149 19.27908768 91.9742804 20.28170135 91.97705078 21.31469727 C91.98362198 22.36849075 91.99019318 23.42228424 91.9969635 24.50801086 C92.01672823 28.00705022 92.02836632 31.5060466 92.03833008 35.00512695 C92.04240561 36.1983532 92.04648113 37.39157944 92.05068016 38.62096405 C92.07155465 44.93667936 92.08585029 51.25237286 92.09521484 57.56811523 C92.10628084 64.09634132 92.14067944 70.6242267 92.18038654 77.15233231 C92.20651576 82.16748698 92.21490343 87.18256004 92.21849632 92.19777679 C92.22337198 94.60434011 92.23501364 97.01089956 92.25353432 99.41739655 C92.27784581 102.78578269 92.27697487 106.15328174 92.27001953 109.52172852 C92.28282959 110.51624527 92.29563965 111.51076202 92.30883789 112.53541565 C92.2656781 118.26928367 91.69115328 121.65906085 87.80004883 126.17700195 C82.5278151 130.82158881 79.29775177 131.33155098 72.42236328 131.35400391 C71.12205925 131.3638607 71.12205925 131.3638607 69.79548645 131.37391663 C66.91810016 131.39367436 64.04076617 131.40531907 61.16333008 131.4152832 C60.18097067 131.41935873 59.19861126 131.42343426 58.18648338 131.42763329 C52.98483871 131.44850676 47.78322049 131.46280171 42.58154297 131.47216797 C37.21249875 131.48322185 31.84387019 131.51760642 26.47497272 131.55733967 C22.34420511 131.58351021 18.21353633 131.59186031 14.0826931 131.59544945 C12.1039875 131.60031598 10.12528634 131.61193187 8.14666176 131.63048744 C5.37234434 131.65488308 2.59909929 131.65391282 -0.17529297 131.64697266 C-1.39517914 131.66618774 -1.39517914 131.66618774 -2.63970947 131.68579102 C-8.2838214 131.63449342 -11.55874366 130.43029466 -16.19995117 127.17700195 C-19.56226143 122.84139135 -21.31607504 119.39806546 -21.34712219 113.92182922 C-21.3542775 113.05419449 -21.3614328 112.18655975 -21.36880493 111.29263306 C-21.37149384 110.34351044 -21.37418274 109.39438782 -21.37695312 108.41650391 C-21.38352432 107.41454483 -21.39009552 106.41258575 -21.39686584 105.38026428 C-21.41660401 102.05860318 -21.42826332 98.73698732 -21.43823242 95.4152832 C-21.44230795 94.28063314 -21.44638348 93.14598309 -21.4505825 91.97694969 C-21.47144654 85.9701493 -21.48574622 79.96337177 -21.49511719 73.95654297 C-21.50617568 67.75698817 -21.54056859 61.55779287 -21.58028889 55.35836506 C-21.60645633 50.58761434 -21.61480922 45.81694921 -21.61839867 41.04613304 C-21.62326511 38.76123823 -21.63488067 36.47634725 -21.65343666 34.1915226 C-21.67782752 30.98888449 -21.67686266 27.78717554 -21.66992188 24.58447266 C-21.68273193 23.64547119 -21.69554199 22.70646973 -21.70874023 21.73901367 C-21.65653096 15.1094204 -20.40168428 9.54690105 -15.71716785 4.61633778 C-10.65940785 0.20813899 -6.42303361 0.02185749 0 0 Z M-6.19995117 17.17700195 C-6.40421609 20.2700163 -6.48307091 23.27386045 -6.47460938 26.3684082 C-6.47972031 27.32133759 -6.48483124 28.27426697 -6.49009705 29.256073 C-6.50403817 32.41727923 -6.50303303 35.57826857 -6.50073242 38.73950195 C-6.50461656 40.92903729 -6.50895064 43.11857187 -6.51371765 45.30810547 C-6.52118938 49.9014734 -6.52088146 54.49476447 -6.515625 59.08813477 C-6.50982592 64.9867195 -6.52676751 70.8849907 -6.54996967 76.78352356 C-6.56467012 81.30613049 -6.56558381 85.82866125 -6.56245995 90.35128784 C-6.56297491 92.52668886 -6.56824527 94.70209395 -6.57827187 96.87747192 C-6.59054904 99.9137232 -6.58389744 102.94935503 -6.57226562 105.9855957 C-6.57990936 106.89163544 -6.5875531 107.79767517 -6.59542847 108.73117065 C-6.60784907 111.47579287 -6.60784907 111.47579287 -6.19995117 115.17700195 C-2.5785961 117.59123867 0.0690659 117.46618093 4.25317383 117.45166016 C5.38777039 117.45932655 5.38777039 117.45932655 6.54528809 117.46714783 C9.04695535 117.48105443 11.5483475 117.48008648 14.05004883 117.4777832 C15.78735456 117.48166917 17.52465935 117.48600363 19.26196289 117.49076843 C22.90359579 117.49823265 26.54513173 117.49793763 30.18676758 117.49267578 C34.8577588 117.48687672 39.52835406 117.50382156 44.19927979 117.52702045 C47.78688891 117.54173726 51.37440218 117.54263238 54.96203613 117.53951073 C56.68445623 117.54002484 58.40688157 117.54527939 60.12927246 117.55532265 C62.5354198 117.56763208 64.94078934 117.56092933 67.34692383 117.54931641 C68.41771179 117.56078201 68.41771179 117.56078201 69.51013184 117.57247925 C73.24995619 117.57203383 73.24995619 117.57203383 76.48301983 115.9026823 C78.07779467 113.81307638 78.17489372 112.79683965 78.17427063 110.19189453 C78.18128494 109.38434723 78.18829926 108.57679993 78.19552612 107.74478149 C78.18788239 106.86260956 78.18023865 105.98043762 78.17236328 105.0715332 C78.17601395 104.13957123 78.17966461 103.20760925 78.1834259 102.24740601 C78.19154377 99.16125366 78.17791088 96.07562432 78.16333008 92.98950195 C78.16281162 90.84863282 78.16332876 88.7077632 78.1648407 86.56689453 C78.16475092 82.07780866 78.15430981 77.58890218 78.13623047 73.09985352 C78.11354321 67.33932463 78.11299863 61.57905797 78.11974812 55.8184967 C78.12308611 51.39707093 78.11646119 46.97570517 78.10661888 42.55429077 C78.10276367 40.42996535 78.10161999 38.30563326 78.10320473 36.18130493 C78.10357468 33.21489694 78.0909747 30.24882789 78.07470703 27.2824707 C78.07718445 26.40029877 78.07966187 25.51812683 78.08221436 24.60922241 C78.05032215 19.59567617 78.05032215 19.59567617 75.80004883 15.17700195 C73.20836281 14.87987639 70.85489483 14.77781147 68.26098633 14.8046875 C67.48362122 14.80103683 66.7062561 14.79738617 65.90533447 14.79362488 C63.32835233 14.7854998 60.75199516 14.79914534 58.17504883 14.8137207 C56.38907878 14.81423908 54.60310815 14.81372226 52.81713867 14.81221008 C49.07112122 14.81229989 45.3253186 14.8227473 41.5793457 14.84082031 C36.77040587 14.86350783 31.96178013 14.86405255 27.15280151 14.85730267 C23.4640014 14.85396594 19.77527329 14.86058716 16.08648682 14.8704319 C14.31301246 14.87428932 12.53953009 14.87542988 10.76605225 14.87384605 C8.29024921 14.87347643 5.81485338 14.88606652 3.33911133 14.90234375 C2.60138489 14.89986633 1.86365845 14.89738892 1.10357666 14.89483643 C-3.00060758 14.81427711 -3.00060758 14.81427711 -6.19995117 17.17700195 Z " fill="#EE6621" transform="translate(411.199951171875,371.822998046875)"/>
<path d="M0 0 C1.25904144 -0.00744736 1.25904144 -0.00744736 2.54351807 -0.01504517 C5.32288429 -0.02966098 8.10219344 -0.03646801 10.8815918 -0.04199219 C12.81349184 -0.04774435 14.74539186 -0.05350207 16.67729187 -0.05926514 C20.73001369 -0.06977363 24.78271569 -0.07561722 28.83544922 -0.07910156 C34.02400932 -0.08458437 39.21230674 -0.10860851 44.40078449 -0.13707352 C48.39254009 -0.15571415 52.38423262 -0.16090627 56.37602806 -0.16243744 C58.28856021 -0.16546154 60.20109131 -0.17348186 62.1135807 -0.18662262 C64.79206846 -0.20371201 67.46991707 -0.20179578 70.1484375 -0.1953125 C70.93566696 -0.20452728 71.72289642 -0.21374207 72.53398132 -0.22323608 C77.34339679 -0.1868415 80.59115108 0.53184494 84.76831055 3.16113281 C91.2590082 9.94686218 92.06750765 15.13877621 92.05883789 24.14868164 C92.06555511 25.15093277 92.07227234 26.1531839 92.07919312 27.18580627 C92.09817908 30.49664275 92.10209772 33.80727655 92.10424805 37.11816406 C92.11067582 39.4235594 92.11740417 41.72895391 92.12442017 44.03434753 C92.13639463 48.86707449 92.14010084 53.69972996 92.13891602 58.5324707 C92.13871288 64.71630142 92.1660088 70.89967227 92.20046043 77.08339405 C92.22273028 81.84557692 92.22675351 86.60764916 92.22569656 91.36987877 C92.22805262 93.64918286 92.23687637 95.92848999 92.2523613 98.20774269 C92.27202113 101.40061995 92.26618249 104.59250617 92.25415039 107.78540039 C92.2653894 108.72125977 92.27662842 109.65711914 92.28820801 110.62133789 C92.2310192 116.61253531 91.18045824 121.1629361 87.76831055 126.16113281 C82.56284238 131.1126757 78.16968353 131.31551826 71.26123047 131.33813477 C69.95829796 131.34799156 69.95829796 131.34799156 68.62904358 131.35804749 C65.75228795 131.37777062 62.87558447 131.38944043 59.9987793 131.39941406 C59.01608881 131.40348959 58.03339832 131.40756512 57.02092934 131.41176414 C51.82043289 131.43261991 46.61996281 131.44692421 41.41943359 131.45629883 C36.04919925 131.46736687 30.67937884 131.50177286 25.30929089 131.54147053 C21.17856578 131.56761788 17.04793964 131.57598896 12.91713905 131.57958031 C10.93760696 131.58445051 8.95807941 131.59607683 6.97862816 131.6146183 C4.20660975 131.63897133 1.4356669 131.63805184 -1.33642578 131.63110352 C-2.5593483 131.6503186 -2.5593483 131.6503186 -3.80697632 131.66992188 C-9.08275557 131.62179431 -12.03029096 130.62584706 -16.23168945 127.16113281 C-19.64906276 123.2819523 -21.35117413 120.9680581 -21.37886047 115.82293701 C-21.38601578 114.91171585 -21.39317108 114.00049469 -21.40054321 113.06166077 C-21.40323212 112.05904709 -21.40592102 111.05643341 -21.40869141 110.0234375 C-21.4152626 108.96964401 -21.4218338 107.91585052 -21.42860413 106.8301239 C-21.44836885 103.33108454 -21.46000694 99.83208817 -21.4699707 96.33300781 C-21.47404623 95.13978157 -21.47812176 93.94655533 -21.48232079 92.71717072 C-21.50319528 86.4014554 -21.51749092 80.08576191 -21.52685547 73.77001953 C-21.53792146 67.24179344 -21.57232007 60.71390807 -21.61202717 54.18580246 C-21.63815639 49.17064779 -21.64654406 44.15557473 -21.65013695 39.14035797 C-21.6550126 36.73379465 -21.66665427 34.32723521 -21.68517494 31.92073822 C-21.70948643 28.55235207 -21.7086155 25.18485302 -21.70166016 21.81640625 C-21.71447021 20.8218895 -21.72728027 19.82737274 -21.74047852 18.80271912 C-21.69740767 13.08066886 -21.14703008 9.64971904 -17.23168945 5.16113281 C-11.40413951 0.76073796 -7.12637087 0.01004192 0 0 Z M-5.23168945 15.16113281 C-7.89087258 19.1499075 -7.51935392 22.63526265 -7.50634766 27.26660156 C-7.51145859 28.19856354 -7.51656952 29.13052551 -7.52183533 30.09072876 C-7.53575566 33.17676177 -7.53477289 36.2625721 -7.5324707 39.34863281 C-7.53635594 41.4895028 -7.54069025 43.63037202 -7.54545593 45.77124023 C-7.55292314 50.26027932 -7.55262297 54.74923976 -7.54736328 59.23828125 C-7.54156425 64.99885824 -7.55850784 70.75911418 -7.58170795 76.51963806 C-7.59641819 80.94105927 -7.59732076 85.36240265 -7.59419823 89.78384399 C-7.59471268 91.90817908 -7.59997355 94.03251839 -7.61001015 96.15682983 C-7.62230638 99.12332216 -7.61562416 102.08918234 -7.60400391 105.05566406 C-7.61164764 105.937836 -7.61929138 106.82000793 -7.62716675 107.72891235 C-7.62015244 108.53645966 -7.61313812 109.34400696 -7.60591125 110.17602539 C-7.606079 110.87730057 -7.60624674 111.57857574 -7.60641956 112.30110168 C-7.1092612 114.76882445 -6.22075211 115.65504529 -4.23168945 117.16113281 C-1.66604183 117.45192376 0.65608301 117.56091612 3.22143555 117.53344727 C4.3560321 117.53892326 4.3560321 117.53892326 5.5135498 117.54450989 C8.01536468 117.55261991 10.51653277 117.53900192 13.01831055 117.52441406 C14.75561523 117.52389551 16.49292051 117.52441303 18.23022461 117.52592468 C21.87191523 117.52583494 25.51338458 117.51540126 29.1550293 117.49731445 C33.82596119 117.47462719 38.49656968 117.47408294 43.1675415 117.4808321 C46.75515626 117.48417159 50.34269711 117.47754238 53.93029785 117.46770287 C55.65270603 117.46385023 57.37512242 117.46270292 59.09753418 117.46428871 C61.50357766 117.46465906 63.90920457 117.45204808 66.31518555 117.43579102 C67.02904419 117.43826843 67.74290283 117.44074585 68.47839355 117.44329834 C72.13324611 117.40383145 73.63878024 117.24748635 76.76831055 115.16113281 C77.06493675 112.03214663 77.16704211 109.10104176 77.140625 105.96972656 C77.14427567 105.01679718 77.14792633 104.0638678 77.15168762 103.08206177 C77.1598176 99.92073952 77.1461626 96.75992593 77.1315918 93.59863281 C77.13107348 91.40909831 77.13159006 89.21956334 77.13310242 87.0300293 C77.13301258 82.43661572 77.12256046 77.84337726 77.10449219 73.25 C77.08180472 67.35146225 77.08125975 61.45318057 77.08800983 55.55461121 C77.09134561 51.03199981 77.08472711 46.50944719 77.0748806 41.98684692 C77.07102155 39.81145536 77.06988329 37.63605726 77.07146645 35.46066284 C77.07183582 32.42449407 77.05925264 29.38865803 77.04296875 26.35253906 C77.04544617 25.44649933 77.04792358 24.54045959 77.05047607 23.60696411 C77.24057585 18.90042883 77.24057585 18.90042883 74.76831055 15.16113281 C72.21973408 14.95758743 69.77935032 14.87791091 67.22924805 14.88647461 C66.45188293 14.88136368 65.67451782 14.87625275 64.87359619 14.87098694 C62.29675662 14.85705447 59.72018337 14.85805026 57.14331055 14.86035156 C55.35733947 14.85646696 53.57136933 14.85213278 51.78540039 14.84736633 C48.03943895 14.8398965 44.29357175 14.84020114 40.54760742 14.84545898 C35.73860996 14.85125811 30.92999707 14.83431574 26.12106323 14.81111431 C22.43226859 14.79640969 18.74356729 14.79550072 15.05474854 14.79862404 C13.28126259 14.79810929 11.50777162 14.7928429 9.73431396 14.78281212 C7.25840981 14.77052648 4.78326433 14.77719107 2.30737305 14.78881836 C1.56964661 14.78117462 0.83192017 14.77353088 0.07183838 14.76565552 C-2.17738881 14.75390205 -2.17738881 14.75390205 -5.23168945 15.16113281 Z " fill="#F5A818" transform="translate(30.231689453125,371.8388671875)"/>
<path d="M0 0 C8.23023566 6.94534655 13.47283689 14.57039814 15.625 25.25 C16.5805924 37.78296182 13.85115511 47.63395149 5.91015625 57.34765625 C-0.47398761 64.33235352 -8.95151633 68.75085031 -18.44140625 69.48828125 C-31.42919594 69.76399969 -40.80854036 66.475268 -50.4375 57.6875 C-58.353156 49.5898749 -60.77428369 39.52696008 -60.65234375 28.51171875 C-59.70007505 17.31250237 -54.57279845 9.07925135 -46.625 1.5 C-33.67188852 -9.38956397 -13.73389474 -9.74148348 0 0 Z M-39.375 15.25 C-44.09455782 21.45284742 -46.31854957 27.40674424 -45.375 35.25 C-43.80701596 41.76693366 -40.78139645 46.95280382 -35.1796875 50.73046875 C-29.28609705 54.02829287 -24.08514096 55.52117577 -17.375 54.25 C-9.95593821 51.85746232 -5.20559979 48.01382131 -1.375 41.25 C1.06846485 35.91880397 1.51722323 30.66919102 0.04296875 25.01953125 C-2.41940705 18.48692696 -6.68688267 14.19311863 -12.375 10.25 C-21.72541017 6.44644332 -32.11197067 7.98697067 -39.375 15.25 Z " fill="#EC4F24" transform="translate(278.375,85.75)"/>
<path d="M0 0 C3.00292577 1.97785701 5.45524115 4.47255244 8 7 C8.97369984 7.94818219 9.94767354 8.89608321 10.921875 9.84375 C19.66985762 18.43080475 19.66985762 18.43080475 20.6328125 23.0078125 C20.55130984 28.07938153 16.93153766 30.92783734 13.5390625 34.3203125 C12.65992188 35.16335937 11.78078125 36.00640625 10.875 36.875 C10.0190625 37.74125 9.163125 38.6075 8.28125 39.5 C1.09080561 46.55769772 1.09080561 46.55769772 -5 47 C-7.63550724 46.19470612 -8.66507222 45.44657038 -10.3125 43.25 C-11.25878885 40.15305467 -10.85736616 38.09970844 -10 35 C-8.44921875 33.31640625 -8.44921875 33.31640625 -7 32 C-8.30670654 31.9906543 -9.61341309 31.98130859 -10.9597168 31.97167969 C-15.81487934 31.93176162 -20.66940944 31.86599725 -25.52416992 31.79248047 C-27.62402208 31.76428148 -29.72398017 31.74306163 -31.82397461 31.72900391 C-34.84544059 31.70755986 -37.86563434 31.66090133 -40.88671875 31.609375 C-41.82335861 31.60814636 -42.75999847 31.60691772 -43.72502136 31.60565186 C-47.93865197 31.51129221 -50.40358348 31.35037414 -54.09692383 29.18066406 C-56 27 -56 27 -56.5625 23.5 C-56 20 -56 20 -54.60449219 17.81933594 C-50.55575921 14.99114339 -46.59423424 15.39678124 -41.765625 15.390625 C-40.77246277 15.37408875 -39.77930054 15.35755249 -38.75604248 15.34051514 C-35.58729914 15.29197231 -32.41903594 15.27064988 -29.25 15.25 C-27.10023618 15.22184563 -24.95049479 15.19191896 -22.80078125 15.16015625 C-17.53394152 15.08621204 -12.26723716 15.03460634 -7 15 C-7.47695313 14.56429687 -7.95390625 14.12859375 -8.4453125 13.6796875 C-10.72226899 11.21965914 -10.86771393 9.30715176 -11 6 C-8.45126691 0.53842909 -6.02256989 -0.89223258 0 0 Z " fill="#EB4F24" transform="translate(372,195)"/>
<path d="M0 0 C1.088004 -0.01268417 2.176008 -0.02536835 3.29698181 -0.03843689 C4.4720076 -0.03550125 5.64703339 -0.03256561 6.85766602 -0.02954102 C8.06471695 -0.03478287 9.27176788 -0.04002472 10.51539612 -0.04542542 C13.06998932 -0.05185361 15.62461209 -0.05049838 18.17919922 -0.04199219 C22.09273915 -0.03348819 26.00481748 -0.06222597 29.91821289 -0.09399414 C32.39803016 -0.0956063 34.87785002 -0.09502833 37.35766602 -0.09204102 C38.53066757 -0.10327499 39.70366913 -0.11450897 40.91221619 -0.12608337 C42.00337234 -0.11670242 43.0945285 -0.10732147 44.21875 -0.09765625 C45.17788803 -0.09749008 46.13702606 -0.09732391 47.12522888 -0.09715271 C50.44105676 0.55487283 51.62653891 1.76046627 53.67407227 4.40405273 C54.23657227 7.90405273 54.23657227 7.90405273 53.67407227 11.40405273 C51.48025182 14.06944206 49.67701589 15.25680975 46.23825073 15.76165771 C43.13514515 15.90168552 40.05744901 15.90560313 36.95141602 15.86499023 C35.81378311 15.86407379 34.67615021 15.86315735 33.50404358 15.86221313 C31.10258809 15.85617884 28.70114007 15.84043815 26.29980469 15.81567383 C22.62154455 15.77915175 18.94429173 15.77465468 15.26586914 15.77514648 C12.93187605 15.76531569 10.59788979 15.75365885 8.26391602 15.73999023 C7.16280991 15.73776459 6.0617038 15.73553894 4.92723083 15.73324585 C3.90259232 15.72048615 2.8779538 15.70772644 1.82226562 15.69458008 C0.92245468 15.68695648 0.02264374 15.67933289 -0.9044342 15.67147827 C-3.49938143 15.38489681 -5.11677976 14.77353643 -7.32592773 13.40405273 C-9.24791888 10.84139788 -9.33621409 9.57206324 -9.13842773 6.34155273 C-7.6546892 0.97726725 -5.39263748 0.03040285 0 0 Z " fill="#EF6A20" transform="translate(424.325927734375,455.595947265625)"/>
<path d="M0 0 C1.02471405 -0.01283524 2.0494281 -0.02567047 3.10519409 -0.03889465 C4.76459518 -0.04997505 4.76459518 -0.04997505 6.45751953 -0.0612793 C7.59561066 -0.06935104 8.73370178 -0.07742279 9.90628052 -0.08573914 C12.31543455 -0.09957489 14.72460814 -0.11029931 17.13378906 -0.11816406 C20.81889861 -0.13539781 24.50311594 -0.17929239 28.18798828 -0.22338867 C30.52782543 -0.23351381 32.86767021 -0.24203047 35.20751953 -0.2487793 C36.30973846 -0.26628738 37.4119574 -0.28379547 38.5475769 -0.30183411 C46.15605803 -0.28024465 46.15605803 -0.28024465 50.16503906 1.98486328 C51.96533203 4.17700195 51.96533203 4.17700195 52.52783203 7.67700195 C51.87390543 11.74587855 51.14607813 12.67659491 47.96533203 15.17700195 C45.41648865 15.6782074 45.41648865 15.6782074 42.51000977 15.67871094 C41.41885361 15.68809189 40.32769745 15.69747284 39.20347595 15.70713806 C38.0304744 15.69590408 36.85747284 15.6846701 35.64892578 15.6730957 C34.44091812 15.67455093 33.23291046 15.67600616 31.98829651 15.67750549 C29.43545112 15.67584585 26.8825958 15.6642775 24.32983398 15.64355469 C20.4142832 15.61458667 16.50008458 15.62294823 12.58447266 15.63598633 C10.10595043 15.62974955 7.62743249 15.6213591 5.14892578 15.6105957 C3.3863871 15.61499916 3.3863871 15.61499916 1.58824158 15.61949158 C0.50023758 15.6068074 -0.58776642 15.59412323 -1.70874023 15.58105469 C-3.14625389 15.57295021 -3.14625389 15.57295021 -4.61280823 15.56468201 C-7.4673912 15.10773363 -8.33577087 14.47743928 -10.03466797 12.17700195 C-11.13730529 8.55405077 -11.3361368 6.85530682 -9.78466797 3.36450195 C-7.01032505 -0.10342669 -4.17953468 0.04561283 0 0 Z " fill="#EE6621" transform="translate(426.03466796875,429.822998046875)"/>
<path d="M0 0 C1.1376329 0.00091644 2.27526581 0.00183289 3.44737244 0.0027771 C5.84882793 0.0088114 8.25027595 0.02455208 10.65161133 0.04931641 C14.32987147 0.08583848 18.00712428 0.09033555 21.68554688 0.08984375 C24.01953997 0.09967455 26.35352623 0.11133138 28.6875 0.125 C29.78860611 0.12722565 30.88971222 0.12945129 32.02418518 0.13174438 C33.0488237 0.14450409 34.07346222 0.15726379 35.12915039 0.17041016 C36.02896133 0.17803375 36.92877228 0.18565735 37.85585022 0.19351196 C40.45079745 0.48009342 42.06819577 1.09145381 44.27734375 2.4609375 C46.19933489 5.02359236 46.28763011 6.29292699 46.08984375 9.5234375 C45.22878977 12.63647883 44.80099304 13.56098878 42.27734375 15.4609375 C39.85548401 15.84861755 39.85548401 15.84861755 36.95141602 15.86499023 C35.86341202 15.87767441 34.77540802 15.89035858 33.6544342 15.90342712 C32.47940842 15.90049149 31.30438263 15.89755585 30.09375 15.89453125 C28.2831736 15.90239403 28.2831736 15.90239403 26.4360199 15.91041565 C23.8814267 15.91684384 21.32680392 15.91548862 18.7722168 15.90698242 C14.85867686 15.89847842 10.94659854 15.9272162 7.03320312 15.95898438 C4.55338586 15.96059654 2.07356599 15.96001857 -0.40625 15.95703125 C-2.16575233 15.97388222 -2.16575233 15.97388222 -3.96080017 15.99107361 C-5.05195633 15.98169266 -6.14311249 15.97231171 -7.26733398 15.96264648 C-8.22647202 15.96248032 -9.18561005 15.96231415 -10.17381287 15.96214294 C-13.48964074 15.3101174 -14.6751229 14.10452396 -16.72265625 11.4609375 C-17.28515625 7.9609375 -17.28515625 7.9609375 -16.72265625 4.4609375 C-12.25984537 -0.96116918 -6.45059503 -0.08434468 0 0 Z " fill="#F5A818" transform="translate(50.72265625,429.5390625)"/>
<path d="M0 0 C1.088004 -0.01268417 2.176008 -0.02536835 3.29698181 -0.03843689 C4.4720076 -0.03550125 5.64703339 -0.03256561 6.85766602 -0.02954102 C8.06471695 -0.03478287 9.27176788 -0.04002472 10.51539612 -0.04542542 C13.06998932 -0.05185361 15.62461209 -0.05049838 18.17919922 -0.04199219 C22.09273915 -0.03348819 26.00481748 -0.06222597 29.91821289 -0.09399414 C32.39803016 -0.0956063 34.87785002 -0.09502833 37.35766602 -0.09204102 C38.53066757 -0.10327499 39.70366913 -0.11450897 40.91221619 -0.12608337 C42.00337234 -0.11670242 43.0945285 -0.10732147 44.21875 -0.09765625 C45.17788803 -0.09749008 46.13702606 -0.09732391 47.12522888 -0.09715271 C50.44105676 0.55487283 51.62653891 1.76046627 53.67407227 4.40405273 C54.23657227 7.90405273 54.23657227 7.90405273 53.67407227 11.40405273 C51.48025182 14.06944206 49.67701589 15.25680975 46.23825073 15.76165771 C43.13514515 15.90168552 40.05744901 15.90560313 36.95141602 15.86499023 C35.81378311 15.86407379 34.67615021 15.86315735 33.50404358 15.86221313 C31.10258809 15.85617884 28.70114007 15.84043815 26.29980469 15.81567383 C22.62154455 15.77915175 18.94429173 15.77465468 15.26586914 15.77514648 C12.93187605 15.76531569 10.59788979 15.75365885 8.26391602 15.73999023 C7.16280991 15.73776459 6.0617038 15.73553894 4.92723083 15.73324585 C3.90259232 15.72048615 2.8779538 15.70772644 1.82226562 15.69458008 C0.92245468 15.68695648 0.02264374 15.67933289 -0.9044342 15.67147827 C-3.49938143 15.38489681 -5.11677976 14.77353643 -7.32592773 13.40405273 C-9.24791888 10.84139788 -9.33621409 9.57206324 -9.13842773 6.34155273 C-7.6546892 0.97726725 -5.39263748 0.03040285 0 0 Z " fill="#ED6121" transform="translate(424.325927734375,404.595947265625)"/>
<path d="M0 0 C1.63673424 -0.01407143 1.63673424 -0.01407143 3.30653381 -0.02842712 C5.06603615 -0.01157616 5.06603615 -0.01157616 6.86108398 0.00561523 C8.06909164 0.00416 9.2770993 0.00270477 10.52171326 0.00120544 C13.07455864 0.00286508 15.62741397 0.01443343 18.18017578 0.03515625 C22.09572656 0.06412427 26.00992518 0.05576271 29.92553711 0.04272461 C32.40405934 0.04896138 34.88257728 0.05735184 37.36108398 0.06811523 C39.12362267 0.06371178 39.12362267 0.06371178 40.92176819 0.05921936 C42.00977219 0.07190353 43.09777618 0.08458771 44.21875 0.09765625 C45.17709244 0.10305923 46.13543488 0.10846222 47.12281799 0.11402893 C49.97740097 0.57097731 50.84578064 1.20127166 52.54467773 3.50170898 C53.64731505 7.12466017 53.84614656 8.82340412 52.29467773 12.31420898 C50.54467773 14.50170898 50.54467773 14.50170898 47.54467773 15.50170898 C45.86884184 15.60888363 44.18916924 15.66038564 42.51000977 15.67871094 C41.48529572 15.69154617 40.46058167 15.70438141 39.40481567 15.71760559 C37.74541458 15.72868599 37.74541458 15.72868599 36.05249023 15.73999023 C34.91439911 15.74806198 33.77630798 15.75613373 32.60372925 15.76445007 C30.19457522 15.77828582 27.78540163 15.78901025 25.3762207 15.796875 C21.69111116 15.81410875 18.00689383 15.85800333 14.32202148 15.90209961 C11.98218433 15.91222474 9.64233956 15.9207414 7.30249023 15.92749023 C6.2002713 15.94499832 5.09805237 15.96250641 3.96243286 15.98054504 C-3.64604826 15.95895559 -3.64604826 15.95895559 -7.6550293 13.69384766 C-9.45532227 11.50170898 -9.45532227 11.50170898 -10.01782227 8.00170898 C-9.03872102 1.90952348 -5.96540634 0.00103349 0 0 Z " fill="#F5A419" transform="translate(43.455322265625,404.498291015625)"/>
<path d="M0 0 C1.63673424 -0.01407143 1.63673424 -0.01407143 3.30653381 -0.02842712 C5.06603615 -0.01157616 5.06603615 -0.01157616 6.86108398 0.00561523 C8.06909164 0.00416 9.2770993 0.00270477 10.52171326 0.00120544 C13.07455864 0.00286508 15.62741397 0.01443343 18.18017578 0.03515625 C22.09572656 0.06412427 26.00992518 0.05576271 29.92553711 0.04272461 C32.40405934 0.04896138 34.88257728 0.05735184 37.36108398 0.06811523 C39.12362267 0.06371178 39.12362267 0.06371178 40.92176819 0.05921936 C42.00977219 0.07190353 43.09777618 0.08458771 44.21875 0.09765625 C45.17709244 0.10305923 46.13543488 0.10846222 47.12281799 0.11402893 C49.97758705 0.5710071 50.85107628 1.19565513 52.54467773 3.50170898 C53.4020439 6.60141742 53.80346658 8.65476366 52.85717773 11.75170898 C51.24742449 13.89804664 50.02576531 14.49499422 47.54467773 15.50170898 C45.1231842 15.76913452 45.1231842 15.76913452 42.39648438 15.79223633 C41.37184586 15.80499603 40.34720734 15.81775574 39.29151917 15.8309021 C37.63986 15.83424057 37.63986 15.83424057 35.95483398 15.83764648 C34.24981972 15.84763168 34.24981972 15.84763168 32.51036072 15.8578186 C30.10718402 15.8679408 27.70397924 15.87263576 25.30078125 15.87231445 C21.62444797 15.87668844 17.94931431 15.91301689 14.27319336 15.95092773 C11.93791101 15.95679576 9.60262295 15.96076525 7.26733398 15.96264648 C6.16825211 15.97701752 5.06917023 15.99138855 3.93678284 16.00619507 C-3.64431347 15.96080796 -3.64431347 15.96080796 -7.65283203 13.69165039 C-9.45532227 11.50170898 -9.45532227 11.50170898 -10.01782227 8.00170898 C-9.03872102 1.90952348 -5.96540634 0.00103349 0 0 Z " fill="#F6AD18" transform="translate(43.455322265625,455.498291015625)"/>
<path d="M0 0 C1.02801727 -0.00637985 2.05603455 -0.0127597 3.11520386 -0.01933289 C4.78705246 -0.02100212 4.78705246 -0.02100212 6.49267578 -0.02270508 C7.63455353 -0.02603348 8.77643127 -0.02936188 9.95291138 -0.03279114 C12.37224931 -0.03786141 14.79159426 -0.04019943 17.2109375 -0.04003906 C20.91564456 -0.04222316 24.6200528 -0.06037149 28.32470703 -0.0793457 C30.67236226 -0.08228005 33.02001891 -0.08426457 35.36767578 -0.08520508 C36.47819305 -0.09239059 37.58871033 -0.09957611 38.73287964 -0.10697937 C40.28436203 -0.10236443 40.28436203 -0.10236443 41.8671875 -0.09765625 C43.23047684 -0.09979378 43.23047684 -0.09979378 44.62130737 -0.10197449 C47.24171623 0.16336119 48.85134285 0.73280202 51.06298828 2.14526367 C52.61759133 5.25446977 52.79019521 8.77609395 52.06298828 12.14526367 C49.00336252 15.03611788 46.86681871 15.52288765 42.71533203 15.53344727 C41.11347046 15.54763199 41.11347046 15.54763199 39.47924805 15.56210327 C38.33125732 15.55603058 37.1832666 15.54995789 36.00048828 15.54370117 C34.81704834 15.54657135 33.6336084 15.54944153 32.41430664 15.55239868 C29.91275555 15.55443974 27.41118851 15.54890705 24.90966797 15.53637695 C21.07759969 15.52032488 17.2465862 15.53622529 13.41455078 15.55541992 C10.98486095 15.5534375 8.55517178 15.54959384 6.12548828 15.54370117 C4.97749756 15.54977386 3.82950684 15.55584656 2.64672852 15.56210327 C1.5788208 15.55264679 0.51091309 15.54319031 -0.58935547 15.53344727 C-1.5277124 15.53106049 -2.46606934 15.52867371 -3.43286133 15.5262146 C-6.39156829 15.07611297 -7.77372222 14.18112919 -9.93701172 12.14526367 C-10.62994165 9.43901763 -10.42341364 6.88628154 -9.93701172 4.14526367 C-7.24906995 0.35770937 -4.43656257 0.01863978 0 0 Z " fill="#F2871C" transform="translate(234.93701171875,429.854736328125)"/>
<path d="M0 0 C1.60186157 -0.01418472 1.60186157 -0.01418472 3.23608398 -0.02865601 C4.38407471 -0.02258331 5.53206543 -0.01651062 6.71484375 -0.01025391 C7.89828369 -0.01312408 9.08172363 -0.01599426 10.30102539 -0.01895142 C12.80257648 -0.02099247 15.30414352 -0.01545978 17.80566406 -0.00292969 C21.63773234 0.01312239 25.46874583 -0.00277803 29.30078125 -0.02197266 C31.73047108 -0.01999023 34.16016026 -0.01614658 36.58984375 -0.01025391 C37.73783447 -0.0163266 38.8858252 -0.02239929 40.06860352 -0.02865601 C41.13651123 -0.01919952 42.20441895 -0.00974304 43.3046875 0 C44.24304443 0.00238678 45.18140137 0.00477356 46.14819336 0.00723267 C49.10690032 0.45733429 50.48905426 1.35231808 52.65234375 3.38818359 C53.34527368 6.09442964 53.13874567 8.64716573 52.65234375 11.38818359 C51.10896284 13.56294761 50.01569102 14.20650996 47.65234375 15.38818359 C46.00902753 15.48862286 44.36170028 15.52653021 42.71533203 15.53344727 C41.68731476 15.53982712 40.65929749 15.54620697 39.60012817 15.55278015 C37.92827957 15.55444939 37.92827957 15.55444939 36.22265625 15.55615234 C35.0807785 15.55948074 33.93890076 15.56280914 32.76242065 15.5662384 C30.34308272 15.57130868 27.92373777 15.5736467 25.50439453 15.57348633 C21.79968748 15.57567042 18.09527923 15.59381875 14.390625 15.61279297 C12.04296977 15.61572731 9.69531312 15.61771183 7.34765625 15.61865234 C6.23713898 15.62583786 5.1266217 15.63302338 3.98245239 15.64042664 C2.9481308 15.63735001 1.9138092 15.63427338 0.84814453 15.63110352 C-0.51514481 15.63324104 -0.51514481 15.63324104 -1.90597534 15.63542175 C-4.5263842 15.37008607 -6.13601081 14.80064524 -8.34765625 13.38818359 C-9.9022593 10.2789775 -10.07486318 6.75735332 -9.34765625 3.38818359 C-6.28803049 0.49732939 -4.15148668 0.01055961 0 0 Z " fill="#F1821D" transform="translate(234.34765625,404.61181640625)"/>
<path d="M0 0 C1.60186157 -0.01418472 1.60186157 -0.01418472 3.23608398 -0.02865601 C4.38407471 -0.02258331 5.53206543 -0.01651062 6.71484375 -0.01025391 C7.89828369 -0.01312408 9.08172363 -0.01599426 10.30102539 -0.01895142 C12.80257648 -0.02099247 15.30414352 -0.01545978 17.80566406 -0.00292969 C21.63773234 0.01312239 25.46874583 -0.00277803 29.30078125 -0.02197266 C31.73047108 -0.01999023 34.16016026 -0.01614658 36.58984375 -0.01025391 C37.73783447 -0.0163266 38.8858252 -0.02239929 40.06860352 -0.02865601 C41.13651123 -0.01919952 42.20441895 -0.00974304 43.3046875 0 C44.24304443 0.00238678 45.18140137 0.00477356 46.14819336 0.00723267 C49.15478185 0.4646184 50.52135358 1.23100338 52.65234375 3.38818359 C53.43389715 8.85905738 53.43389715 8.85905738 52.65234375 11.38818359 C50.43688559 13.9529001 48.60309383 15.24057771 45.22364807 15.76524353 C42.13074402 15.91865184 39.06151999 15.94231207 35.96484375 15.91943359 C34.82958252 15.9232605 33.69432129 15.9270874 32.5246582 15.93103027 C30.12743237 15.93374896 27.73017686 15.92639091 25.33300781 15.90966797 C21.66534233 15.88825947 17.99963586 15.90947294 14.33203125 15.93505859 C12.00129776 15.93241531 9.67056549 15.92729033 7.33984375 15.91943359 C6.24389893 15.92753052 5.1479541 15.93562744 4.01879883 15.94396973 C-3.57355592 15.85053546 -3.57355592 15.85053546 -7.53881836 13.48217773 C-9.50590462 11.20498798 -10.00740997 10.29478244 -9.91015625 7.32568359 C-9.34765625 3.38818359 -9.34765625 3.38818359 -7.64672852 1.66635132 C-4.88547138 0.13123221 -3.14939359 0.00801071 0 0 Z " fill="#F28B1C" transform="translate(234.34765625,455.61181640625)"/>
</svg>
