<?xml version="1.0" encoding="UTF-8"?>
<svg version="1.1" xmlns="http://www.w3.org/2000/svg" width="512" height="512">
<path d="M0 0 C6.01045387 5.70993118 9.20362724 9.83173305 9.5 18.375 C8.54503411 24.50844071 5.95678465 29.12550765 1.5 33.375 C-1.47 34.365 -1.47 34.365 -4.5 35.375 C-4.5 82.235 -4.5 129.095 -4.5 177.375 C1.11 177.375 6.72 177.375 12.5 177.375 C12.41298828 173.37439453 12.41298828 173.37439453 12.32421875 169.29296875 C12.28495016 166.63829504 12.25474808 163.9836567 12.2253418 161.32885742 C12.20057716 159.51848279 12.16675515 157.7082038 12.12280273 155.89819336 C11.73899128 139.65619553 13.66494977 123.87230663 21.5625 109.375 C21.88798828 108.72273438 22.21347656 108.07046875 22.54882812 107.3984375 C24.37378547 103.88584634 26.03086206 101.35736454 29.5 99.375 C30.345625 99.21 31.19125 99.045 32.0625 98.875 C34.49593719 98.52225788 34.49593719 98.52225788 36.3125 97.25 C37.81486382 95.26911169 37.81486382 95.26911169 37.375 92 C37.5 88.375 37.5 88.375 39.875 85.5625 C40.74125 84.840625 41.6075 84.11875 42.5 83.375 C43.16 82.715 43.82 82.055 44.5 81.375 C46.375 81.21484375 46.375 81.21484375 48.5 81.3125 C51.61841564 81.47098803 51.61841564 81.47098803 54.5 80.375 C54.86351562 78.72564453 54.86351562 78.72564453 55.234375 77.04296875 C56.5 73.375 56.5 73.375 59.265625 71.30078125 C60.41546875 70.76839844 61.5653125 70.23601562 62.75 69.6875 C63.3682666 69.39987793 63.9865332 69.11225586 64.62353516 68.81591797 C86.22502051 59.12119319 110.91056483 58.61150507 133.125 66.5625 C156.10786654 76.09128749 174.56064372 92.44492388 184.328125 115.54296875 C188.4714438 125.98078155 190.83654907 135.83639604 190.6953125 147.1015625 C190.69106766 148.41210098 190.69106766 148.41210098 190.68673706 149.74911499 C190.67567303 152.49955814 190.65059581 155.24965774 190.625 158 C190.61495234 159.88150567 190.60582964 161.76301651 190.59765625 163.64453125 C190.577493 168.22158827 190.53831977 172.7979163 190.5 177.375 C196.11 177.375 201.72 177.375 207.5 177.375 C207.5 130.515 207.5 83.655 207.5 35.375 C205.52 34.715 203.54 34.055 201.5 33.375 C196.5502602 29.65211879 194.49331374 24.86992511 193.62890625 18.85546875 C193.30458572 12.6147555 194.87287991 8.78533069 198.875 4 C202.13565388 0.39460738 204.59415525 -1.41074817 209.48828125 -1.9609375 C216.41724993 -2.04235899 220.97819691 -1.97195137 226.5 2.375 C231.57811266 7.72760523 232.99209737 12.55870985 232.80859375 19.8125 C232.21313651 24.75705636 230.43299241 28.56940936 226.78125 31.98046875 C223.92960882 34.13732447 222.13148283 35.375 218.5 35.375 C218.5 44.285 218.5 53.195 218.5 62.375 C241.6 62.375 264.7 62.375 288.5 62.375 C289.16 60.395 289.82 58.415 290.5 56.375 C292.33984375 54.29296875 292.33984375 54.29296875 294.4375 52.5625 C295.47197266 51.68658203 295.47197266 51.68658203 296.52734375 50.79296875 C301.26862199 47.38488162 306.91573003 47.94976105 312.5 48.375 C317.99265353 50.13679453 321.29047735 53.7201954 324.5 58.375 C327.23186828 64.33543989 327.31359875 69.81122214 325.0625 75.9375 C322.46139965 81.21195349 318.97961006 84.25155169 313.5 86.375 C306.83230271 87.58655933 301.19459424 87.33659411 295.375 83.6875 C292.29217382 81.29477436 290.02722848 79.04034836 288.5 75.375 C288.5 74.715 288.5 74.055 288.5 73.375 C265.4 73.375 242.3 73.375 218.5 73.375 C218.5 93.505 218.5 113.635 218.5 134.375 C225.76 134.375 233.02 134.375 240.5 134.375 C240.83 132.725 241.16 131.075 241.5 129.375 C244.4314811 124.567371 248.22296898 122.0705409 253.5 120.375 C260.2732098 119.31063846 265.89940808 120.36902106 271.5 124.375 C276.98244443 130.14599413 277.91259908 134.66768671 277.7421875 142.46875 C277.27346073 148.09347124 275.06551908 151.03454945 271 154.6875 C266.1634897 158.72853163 261.6340994 158.71536569 255.515625 158.65625 C249.99045034 158.14094874 246.94822847 155.89945103 243.125 151.875 C241.5 149.375 241.5 149.375 240.5 145.375 C233.24 145.375 225.98 145.375 218.5 145.375 C218.5 155.935 218.5 166.495 218.5 177.375 C252.16 177.375 285.82 177.375 320.5 177.375 C321.16 175.395 321.82 173.415 322.5 171.375 C324.12109375 169.51171875 324.12109375 169.51171875 325.9375 168.0625 C326.53433594 167.57136719 327.13117188 167.08023438 327.74609375 166.57421875 C332.64394083 163.22535672 338.8329945 163.9761271 344.5 164.375 C350.03027665 166.11601302 353.13605954 169.82765377 356.5 174.375 C358.89046771 179.15593543 358.36406645 186.64192026 356.78125 191.6484375 C354.28021505 196.2672843 350.78832883 199.06738353 346.3125 201.625 C339.64626971 203.40266141 333.31754 203.15816166 327.26171875 199.71875 C324.15849079 197.35176459 322.46210174 194.74736236 320.5 191.375 C320.5 190.385 320.5 189.395 320.5 188.375 C300.7 188.705 280.9 189.035 260.5 189.375 C267.43 196.305 274.36 203.235 281.5 210.375 C282.63606622 212.64713243 282.61892808 213.87314469 282.61010742 216.39404297 C282.61097603 217.6357576 282.61097603 217.6357576 282.61186218 218.90255737 C282.60975235 219.79838531 282.60764252 220.69421326 282.60546875 221.6171875 C282.61892337 223.50652185 282.63394626 225.39584556 282.65039062 227.28515625 C282.67324562 230.27006834 282.68748425 233.25378109 282.67504883 236.23876953 C282.66624696 239.11578946 282.69509641 241.99041526 282.73046875 244.8671875 C282.71212227 246.20485672 282.71212227 246.20485672 282.69340515 247.56954956 C282.74069443 249.98356141 282.83844293 252.05217077 283.5 254.375 C286.2854629 256.89889668 286.2854629 256.89889668 289.5 258.375 C294.63628646 264.08198496 295.91145205 268.09925387 295.75 275.6875 C295.18277746 281.78514228 292.01609202 285.48906035 287.5 289.375 C282.37373782 292.83224658 277.49973317 293.20031105 271.5 292.375 C265.5695318 290.54944718 262.0204554 287.38898193 258.5 282.375 C256.42846463 276.16039389 256.36660345 268.8161618 259.125 262.875 C262.25110313 259.58436512 265.39739873 256.42630063 269.5 254.375 C273.01944698 229.60150658 273.01944698 229.60150658 264.58984375 207.03125 C262.53221969 204.55627996 260.3433317 202.26887234 258.0625 200 C257.54737854 199.45152405 257.03225708 198.9030481 256.50152588 198.33795166 C245.00063656 186.45804602 236.196125 189.082845 218.5 188.375 C218.5 205.205 218.5 222.035 218.5 239.375 C220.15 239.705 221.8 240.035 223.5 240.375 C228.307629 243.3064811 230.8044591 247.09796898 232.5 252.375 C233.56184399 259.13218901 232.54336907 264.81073064 228.5 270.375 C224.98695423 274.06232219 221.74775442 276.19193856 216.57421875 276.61328125 C207.87913619 276.80383093 204.09349992 275.80515901 197.75 269.75 C194.65853355 265.7652202 193.67285056 261.35760519 193.5 256.375 C194.45496589 250.24155929 197.04321535 245.62449235 201.5 241.375 C203.48 240.715 205.46 240.055 207.5 239.375 C207.5 222.545 207.5 205.715 207.5 188.375 C201.89 188.375 196.28 188.375 190.5 188.375 C190.52094727 189.95732422 190.54189453 191.53964844 190.56347656 193.16992188 C190.63656767 199.11139669 190.68204872 205.05283282 190.71972656 210.99462891 C190.7396859 213.5529654 190.76686311 216.11125722 190.80175781 218.66943359 C191.13306824 243.6054154 188.1589309 264.99059291 172.5 285.375 C174.43939453 285.50455078 174.43939453 285.50455078 176.41796875 285.63671875 C193.82083749 286.9683057 207.76431173 291.04263017 220.25 304 C231.2262609 317.40955247 232.80225989 332.01388963 232.75878906 348.61303711 C232.76150229 350.35494126 232.76506509 352.09684427 232.76940918 353.83874512 C232.7784912 358.54690285 232.77500752 363.25497249 232.76865101 367.96313167 C232.76357494 372.89360075 232.7682864 377.82406247 232.77142334 382.75453186 C232.7750559 391.02525178 232.77028001 399.29593591 232.76074219 407.56665039 C232.7498338 417.13655066 232.75340332 426.70636588 232.764395 436.27626413 C232.77345809 444.4955245 232.77475872 452.71475921 232.76951766 460.93402296 C232.7663958 465.84234582 232.76599505 470.7506286 232.77259064 475.6589489 C232.77835012 480.2661299 232.77439303 484.87320054 232.76280212 489.48036957 C232.7601491 491.17433298 232.76093151 492.86830561 232.76532745 494.5622654 C232.77075854 496.86678689 232.76397914 499.1709502 232.75396729 501.47544861 C232.75283621 503.41303748 232.75283621 503.41303748 232.75168228 505.38976955 C232.5 508.375 232.5 508.375 230.5 510.375 C227 510.625 227 510.625 223.5 510.375 C222.84 509.715 222.18 509.055 221.5 508.375 C221.5 507.385 221.5 506.395 221.5 505.375 C211.6 505.375 201.7 505.375 191.5 505.375 C191.17 506.695 190.84 508.015 190.5 509.375 C189.5 510.375 189.5 510.375 185.9375 510.4375 C184.803125 510.416875 183.66875 510.39625 182.5 510.375 C181.84 508.725 181.18 507.075 180.5 505.375 C128.36 505.375 76.22 505.375 22.5 505.375 C21.84 507.025 21.18 508.675 20.5 510.375 C17.125 510.5 17.125 510.5 13.5 510.375 C12.84 509.715 12.18 509.055 11.5 508.375 C11.5 507.385 11.5 506.395 11.5 505.375 C1.6 505.375 -8.3 505.375 -18.5 505.375 C-18.83 506.695 -19.16 508.015 -19.5 509.375 C-20.5 510.375 -20.5 510.375 -23.9375 510.5625 C-27.5 510.375 -27.5 510.375 -29.5 508.375 C-29.75447559 505.39814949 -29.75447559 505.39814949 -29.76069641 501.49563599 C-29.76643473 500.42158974 -29.76643473 500.42158974 -29.77228898 499.3258456 C-29.78265044 496.91393417 -29.77862079 494.50225943 -29.7746582 492.09033203 C-29.7790033 490.3656848 -29.78418576 488.6410395 -29.79014587 486.91639709 C-29.80357804 482.21955698 -29.80410922 477.52279715 -29.80158257 472.82594156 C-29.80051438 468.90263242 -29.80539304 464.97933962 -29.810188 461.05603397 C-29.82130059 451.79092435 -29.82171264 442.52585525 -29.81567383 433.26074219 C-29.80964979 423.71899204 -29.82190097 414.17738994 -29.8432439 404.63566506 C-29.86090371 396.43761862 -29.86685383 388.23961908 -29.86360615 380.04155433 C-29.86179801 375.14843153 -29.86438127 370.25541401 -29.87832069 365.3623085 C-29.89096346 360.75104871 -29.88889433 356.14001748 -29.87590981 351.52876091 C-29.87355736 349.84383884 -29.87623045 348.15890038 -29.88453293 346.47399712 C-29.96672131 328.48446725 -26.68596689 314.07187461 -13.98046875 300.6640625 C-0.9414572 288.6312109 13.53945996 286.63748878 30.5 285.375 C29.84644531 284.51841797 29.84644531 284.51841797 29.1796875 283.64453125 C19.54565209 270.52806312 12.3484408 254.15169151 12.38647461 237.64501953 C12.38655014 236.54433136 12.38662567 235.44364319 12.38670349 234.30960083 C12.39186478 233.13751068 12.39702606 231.96542053 12.40234375 230.7578125 C12.40446617 228.93937332 12.40446617 228.93937332 12.40663147 227.084198 C12.41221655 223.22277327 12.42476639 219.36140712 12.4375 215.5 C12.44251692 212.87760501 12.4470795 210.2552091 12.45117188 207.6328125 C12.46218111 201.2135192 12.47943556 194.79426952 12.5 188.375 C6.89 188.375 1.28 188.375 -4.5 188.375 C-4.5 205.205 -4.5 222.035 -4.5 239.375 C-1.53 240.365 -1.53 240.365 1.5 241.375 C5.84113349 244.55664271 7.87903964 248.57326847 9.0625 253.75 C9.77346843 259.2132311 9.39163232 263.61231147 6.5 268.375 C2.90957077 272.26524104 -0.84685374 276.14864766 -6.29296875 276.61328125 C-13.30606587 276.76661709 -17.90896325 276.77645446 -23.5 272.375 C-28.57811266 267.02239477 -29.99209737 262.19129015 -29.80859375 254.9375 C-29.21313651 249.99294364 -27.43299241 246.18059064 -23.78125 242.76953125 C-20.92960882 240.61267553 -19.13148283 239.375 -15.5 239.375 C-15.5 222.545 -15.5 205.715 -15.5 188.375 C-38.86361915 188.17668873 -38.86361915 188.17668873 -55.0625 200 C-55.61365479 200.55157776 -56.16480957 201.10315552 -56.73266602 201.67144775 C-65.99246866 211.1751247 -68.6047934 220.49044341 -68.55636597 233.60809326 C-68.5377652 234.47992249 -68.51916443 235.35175171 -68.5 236.25 C-68.48180206 237.1197345 -68.46360413 237.98946899 -68.44485474 238.88555908 C-68.35669381 241.38791171 -68.20117822 243.87154118 -68 246.3671875 C-67.94823105 247.11720032 -67.8964621 247.86721313 -67.84312439 248.63995361 C-67.35893361 252.74350234 -66.78029888 254.15023009 -63.5090332 256.7734375 C-62.01956177 257.56621094 -62.01956177 257.56621094 -60.5 258.375 C-56.00931447 262.83368539 -54.31510856 266.19716989 -54.125 272.5 C-54.18027583 278.75307802 -55.17244122 282.79950817 -59.5 287.375 C-65.65328921 292.17456559 -70.87409497 293.16700794 -78.5 292.375 C-84.11273977 290.76303667 -87.41931594 287.88424456 -90.58984375 283.05859375 C-93.25423117 278.13004879 -93.16159182 272.81640689 -92.5 267.375 C-90.17124494 261.53861801 -86.14045783 257.19522892 -80.5 254.375 C-80.50636475 253.14458984 -80.51272949 251.91417969 -80.51928711 250.64648438 C-80.53378586 246.05387176 -80.50226169 241.46250048 -80.45727539 236.87011719 C-80.44418665 234.88773841 -80.4433545 232.90523742 -80.45532227 230.92285156 C-80.4704175 228.06194458 -80.44052453 225.20438368 -80.40234375 222.34375 C-80.41659897 221.46634155 -80.43085419 220.58893311 -80.44554138 219.68493652 C-80.27185624 212.19767572 -77.8336404 209.62749892 -72.5 204.375 C-67.55 199.425 -62.6 194.475 -57.5 189.375 C-87.2 188.88 -87.2 188.88 -117.5 188.375 C-117.83 190.025 -118.16 191.675 -118.5 193.375 C-121.4314811 198.182629 -125.22296898 200.6794591 -130.5 202.375 C-137.25718901 203.43684399 -142.93573064 202.41836907 -148.5 198.375 C-152.18732219 194.86195423 -154.31693856 191.62275442 -154.73828125 186.44921875 C-154.98703495 175.09819468 -154.98703495 175.09819468 -150.5 170.375 C-144.53359295 164.81954446 -140.85827303 164.02236072 -132.7734375 164.09375 C-127.04375074 164.58603812 -124.09269121 166.69848293 -120.125 170.875 C-118.5 173.375 -118.5 173.375 -117.5 177.375 C-83.84 177.375 -50.18 177.375 -15.5 177.375 C-15.5 166.815 -15.5 156.255 -15.5 145.375 C-22.76 145.375 -30.02 145.375 -37.5 145.375 C-38.49 148.345 -38.49 148.345 -39.5 151.375 C-41.12109375 153.23828125 -41.12109375 153.23828125 -42.9375 154.6875 C-43.53433594 155.17863281 -44.13117188 155.66976562 -44.74609375 156.17578125 C-49.64394083 159.52464328 -55.8329945 158.7738729 -61.5 158.375 C-66.95248198 156.65847789 -70.2878009 152.97880327 -73.5 148.375 C-75.33541691 142.86874927 -75.64412545 136.4375082 -73.59375 130.94921875 C-70.44893018 125.59697733 -66.43876543 122.35458848 -60.5 120.375 C-53.64021764 119.63175538 -48.19015687 120.32749812 -42.5 124.375 C-38.9793397 127.8956603 -38.51373198 129.30634009 -37.5 134.375 C-30.24 134.375 -22.98 134.375 -15.5 134.375 C-15.5 114.245 -15.5 94.115 -15.5 73.375 C-38.6 73.375 -61.7 73.375 -85.5 73.375 C-86.16 75.025 -86.82 76.675 -87.5 78.375 C-91.23784259 82.61795646 -94.82384576 85.92781879 -100.515625 86.87890625 C-107.3176876 87.00213202 -112.22121199 86.54173918 -117.6875 82.28125 C-121.70460358 78.0563652 -123.23680305 73.51817514 -123.9375 67.8125 C-122.93802572 59.95948782 -120.55845634 55.81186048 -114.4375 50.72265625 C-109.6721581 47.40805352 -104.06098417 47.95153425 -98.5 48.375 C-93.11917434 50.10092521 -89.57465377 53.71795113 -86.5 58.375 C-86.005 60.355 -86.005 60.355 -85.5 62.375 C-62.4 62.375 -39.3 62.375 -15.5 62.375 C-15.5 53.465 -15.5 44.555 -15.5 35.375 C-17.15 35.045 -18.8 34.715 -20.5 34.375 C-25.307629 31.4435189 -27.8044591 27.65203102 -29.5 22.375 C-30.56184399 15.61781099 -29.54336907 9.93926936 -25.5 4.375 C-18.85363479 -2.60108046 -8.7433847 -4.05942861 0 0 Z " fill="#1D1E22" transform="translate(154.5,1.625)"/>
<path d="M0 0 C3.07660232 2.25566354 5.85041158 4.69659406 8.6953125 7.234375 C28.45916321 19.03778584 51.66391865 22.50458743 74.05078125 17.265625 C86.95197619 13.61512611 99.32082546 8.65582501 109.49951172 -0.36450195 C113.99962209 -3.23598666 119.89168508 -2.2917391 125.0703125 -2.265625 C126.97055176 -2.25813232 126.97055176 -2.25813232 128.90917969 -2.25048828 C138.07160902 -2.07950344 145.56953912 -1.29869739 153.6953125 3.234375 C154.46101562 3.6571875 155.22671875 4.08 156.015625 4.515625 C164.73275162 10.21655952 171.01770001 20.29367923 173.6953125 30.234375 C174.25589438 36.00257202 174.20243105 41.73568705 174.14941406 47.52587891 C174.14828414 49.26132175 174.14892227 50.99676651 174.15118408 52.73220825 C174.1523265 57.41758694 174.12889405 62.10255171 174.10088825 66.78783464 C174.07579552 71.69385176 174.07352641 76.59987954 174.06878662 81.50595093 C174.05637991 90.78469233 174.02358961 100.06324406 173.98338866 109.34190214 C173.93859906 119.91022536 173.91666586 130.47855789 173.89660692 141.04695249 C173.85485486 162.77620185 173.78373715 184.50526976 173.6953125 206.234375 C163.7953125 206.234375 153.8953125 206.234375 143.6953125 206.234375 C143.3653125 207.554375 143.0353125 208.874375 142.6953125 210.234375 C141.6953125 211.234375 141.6953125 211.234375 138.1328125 211.296875 C136.9984375 211.27625 135.8640625 211.255625 134.6953125 211.234375 C133.7053125 208.759375 133.7053125 208.759375 132.6953125 206.234375 C80.5553125 206.234375 28.4153125 206.234375 -25.3046875 206.234375 C-25.9646875 207.884375 -26.6246875 209.534375 -27.3046875 211.234375 C-30.6796875 211.359375 -30.6796875 211.359375 -34.3046875 211.234375 C-34.9646875 210.574375 -35.6246875 209.914375 -36.3046875 209.234375 C-36.3046875 208.244375 -36.3046875 207.254375 -36.3046875 206.234375 C-46.2046875 206.234375 -56.1046875 206.234375 -66.3046875 206.234375 C-66.4205976 183.49412815 -66.50974499 160.75395285 -66.56374836 138.0134697 C-66.58949329 127.45386426 -66.62457275 116.89444613 -66.68188477 106.33496094 C-66.73183347 97.12771832 -66.76400547 87.9206114 -66.77512997 78.71323705 C-66.78162934 73.84119309 -66.79682692 68.96953726 -66.83333778 64.0976181 C-66.8674787 59.50437575 -66.87770421 54.91167842 -66.87022591 50.31832123 C-66.87159241 48.63982168 -66.88141664 46.96130237 -66.90071487 45.28291321 C-67.04608899 31.97791676 -64.82499472 20.2250974 -55.3046875 10.234375 C-41.97336505 -1.68343925 -16.66342762 -8.61754321 0 0 Z " fill="#A9B0B9" transform="translate(202.3046875,300.765625)"/>
<path d="M0 0 C12.83211856 11.21080312 22.29874173 23.49407062 27.34765625 39.90234375 C27.61558487 40.76313034 27.88351349 41.62391693 28.15956116 42.51078796 C31.06204436 53.26809082 30.80209375 63.98037711 30.78125 75.046875 C30.78582179 77.18715071 30.7911303 79.32742497 30.7971344 81.46769714 C30.80602735 85.93661491 30.80368669 90.40535361 30.79370117 94.87426758 C30.78222672 100.55939976 30.80241978 106.24390935 30.83161831 111.92895985 C30.85009675 116.34490286 30.84966462 120.76069994 30.84398079 125.17667198 C30.84382894 127.27072713 30.84975839 129.36479305 30.86227226 131.45881081 C30.97796606 153.99055172 26.97283497 173.97470531 12.34765625 191.90234375 C11.71988281 192.69382812 11.09210938 193.4853125 10.4453125 194.30078125 C-2.39550808 209.68875847 -21.96340281 218.69261393 -41.65234375 220.90234375 C-65.06927443 222.42615464 -85.16651756 214.5775766 -102.90234375 199.71484375 C-117.60805964 185.78311291 -126.76684722 166.10983694 -127.75388527 145.81445694 C-127.8025644 143.45877618 -127.82168573 141.10470815 -127.8293457 138.74853516 C-127.8359169 137.85798431 -127.8424881 136.96743347 -127.84925842 136.04989624 C-127.86888037 133.1178985 -127.88063296 130.18595187 -127.890625 127.25390625 C-127.89470053 126.24448345 -127.89877605 125.23506065 -127.90297508 124.19504929 C-127.92379469 118.84569254 -127.93811073 113.49636108 -127.94750977 108.14697266 C-127.95852905 102.66583876 -127.99288903 97.18511586 -128.03268147 91.70412636 C-128.05903615 87.45200939 -128.06721848 83.19998729 -128.07079124 78.94779587 C-128.07561341 76.92990742 -128.08709973 74.91202192 -128.10582924 72.89421463 C-128.2481215 56.54027182 -127.22911604 39.9235914 -118.25390625 25.68359375 C-115.66456167 21.50630856 -114.27869449 19.00223883 -115.02734375 14.02734375 C-115.20007813 13.30804688 -115.3728125 12.58875 -115.55078125 11.84765625 C-115.58429688 11.20570312 -115.6178125 10.56375 -115.65234375 9.90234375 C-114.67857721 8.87678111 -113.67817033 7.87583224 -112.65234375 6.90234375 C-112.69359375 5.78859375 -112.73484375 4.67484375 -112.77734375 3.52734375 C-112.65234375 -0.09765625 -112.65234375 -0.09765625 -110.27734375 -2.91015625 C-109.41109375 -3.63203125 -108.54484375 -4.35390625 -107.65234375 -5.09765625 C-106.99234375 -5.75765625 -106.33234375 -6.41765625 -105.65234375 -7.09765625 C-103.66563152 -7.1302253 -101.67754518 -7.15543484 -99.69140625 -7.09765625 C-97.2568642 -7.09765625 -95.0266657 -7.5940122 -92.65234375 -8.09765625 C-92.15734375 -7.60265625 -92.15734375 -7.60265625 -91.65234375 -7.09765625 C-86.95967176 -7.30621945 -83.43296712 -8.55475212 -79.15234375 -10.47265625 C-53.43636057 -21.48011803 -21.95907063 -17.36674658 0 0 Z " fill="#F7D97C" transform="translate(304.65234375,90.09765625)"/>
<path d="M0 0 C1.01242264 -0.00902847 2.02484528 -0.01805695 3.06794739 -0.02735901 C5.20876111 -0.04184741 7.34961897 -0.05074474 9.49047852 -0.05444336 C12.74117189 -0.06630279 15.98994335 -0.11547253 19.24023438 -0.16601562 C21.32681372 -0.17548509 23.41340465 -0.18271762 25.5 -0.1875 C26.94115425 -0.21679848 26.94115425 -0.21679848 28.41142273 -0.24668884 C36.44963016 -0.19382117 42.85458857 2.21710379 49.01953125 7.43359375 C49.79296875 8.39265625 49.79296875 8.39265625 50.58203125 9.37109375 C51.11828125 10.01046875 51.65453125 10.64984375 52.20703125 11.30859375 C54.81139474 15.21513899 55.83079407 18.72853659 55.87255859 23.40161133 C55.8853183 24.37644974 55.898078 25.35128815 55.91122437 26.35566711 C55.91345001 27.39845322 55.91567566 28.44123932 55.91796875 29.515625 C55.92795395 31.14125618 55.92795395 31.14125618 55.93814087 32.79972839 C55.94825407 35.09018256 55.9529583 37.38066611 55.95263672 39.67114258 C55.95700275 43.16081786 55.99331851 46.64922079 56.03125 50.13867188 C56.03711996 52.36848528 56.04108815 54.59830466 56.04296875 56.828125 C56.05733978 57.86483841 56.07171082 58.90155182 56.08651733 59.96968079 C56.03680782 67.9213721 54.38579567 73.21685878 49.08203125 79.18359375 C41.69467371 85.6475316 35.64132754 86.68494606 25.99609375 86.70703125 C24.47246719 86.71701645 24.47246719 86.71701645 22.9180603 86.72720337 C20.77481897 86.737303 18.63154636 86.74202122 16.48828125 86.74169922 C13.22472879 86.74607005 9.96253207 86.78241278 6.69921875 86.8203125 C4.61068168 86.82618182 2.52213822 86.83015044 0.43359375 86.83203125 C-0.53436127 86.84640228 -1.50231628 86.86077332 -2.49960327 86.87557983 C-10.21782632 86.82401417 -15.44538592 85.0133896 -21.23046875 79.87109375 C-25.7722719 74.68046158 -28.64505606 70.43894554 -28.70849609 63.34057617 C-28.7212558 62.36573776 -28.7340155 61.39089935 -28.74716187 60.38652039 C-28.74938751 59.34373428 -28.75161316 58.30094818 -28.75390625 57.2265625 C-28.76056305 56.14280838 -28.76721985 55.05905426 -28.77407837 53.94245911 C-28.78419157 51.65200494 -28.7888958 49.36152139 -28.78857422 47.07104492 C-28.79294025 43.58136964 -28.82925601 40.09296671 -28.8671875 36.60351562 C-28.87305746 34.37370222 -28.87702565 32.14388284 -28.87890625 29.9140625 C-28.89327728 28.87734909 -28.90764832 27.84063568 -28.92245483 26.77250671 C-28.87444994 19.09349166 -27.3725378 13.70093007 -22.234375 7.91015625 C-21.11869141 6.96269531 -21.11869141 6.96269531 -19.98046875 5.99609375 C-19.23925781 5.34898437 -18.49804688 4.701875 -17.734375 4.03515625 C-12.06102548 -0.04047089 -6.76250313 0.03735259 0 0 Z " fill="#81DFE3" transform="translate(242.41796875,174.62890625)"/>
<path d="M0 0 C7.57718817 4.64258046 12.93722084 10.42420116 15.44116211 19 C15.9360695 21.30696989 16.01983583 23.35726585 16.00390625 25.71484375 C15.99907227 26.98134766 15.99907227 26.98134766 15.99414062 28.2734375 C15.98157227 29.58248047 15.98157227 29.58248047 15.96875 30.91796875 C15.96423828 31.80613281 15.95972656 32.69429687 15.95507812 33.609375 C15.943324 35.79564204 15.92689249 37.98177054 15.90625 40.16796875 C16.64101563 40.28140625 17.37578125 40.39484375 18.1328125 40.51171875 C25.60502943 42.27979262 30.8372013 47.7455726 35.3984375 53.62890625 C39.88988204 61.19221959 40.36269775 67.78028029 40.33984375 76.41015625 C40.3450856 77.57370636 40.35032745 78.73725647 40.35572815 79.93606567 C40.36212936 82.38852137 40.36083611 84.84100785 40.35229492 87.29345703 C40.34379249 91.02432548 40.37256389 94.75365776 40.40429688 98.484375 C40.4059094 100.87630163 40.40533038 103.26823094 40.40234375 105.66015625 C40.41357773 106.76463104 40.42481171 107.86910583 40.43638611 109.00704956 C40.33747256 120.12624942 37.06854107 127.9130563 29.421875 135.96484375 C23.64499999 141.02409454 16.63498055 144.25979939 8.93505859 144.3449707 C7.92325531 144.35780594 6.91145203 144.37064117 5.86898804 144.38386536 C4.22840927 144.39494576 4.22840927 144.39494576 2.5546875 144.40625 C1.42608307 144.41432175 0.29747864 144.42239349 -0.86532593 144.43070984 C-3.25769516 144.44454996 -5.65008413 144.45527243 -8.04248047 144.46313477 C-11.68365497 144.48030327 -15.32391106 144.52418648 -18.96484375 144.56835938 C-21.29166 144.57849043 -23.61848397 144.58700524 -25.9453125 144.59375 C-27.02688629 144.61125809 -28.10846008 144.62876617 -29.22280884 144.64680481 C-39.55578449 144.61747587 -47.48311074 141.13635997 -55.09375 134.16796875 C-62.9961906 125.55037515 -64.55420303 117.23999732 -64.4921875 105.85546875 C-64.49505768 104.68717529 -64.49792786 103.51888184 -64.50088501 102.31518555 C-64.50291915 99.85432447 -64.49743498 97.39344699 -64.48486328 94.93261719 C-64.46880136 91.17996846 -64.48473517 87.42839674 -64.50390625 83.67578125 C-64.5019237 81.27734139 -64.4980798 78.87890219 -64.4921875 76.48046875 C-64.49826019 75.36567139 -64.50433289 74.25087402 -64.5105896 73.10229492 C-64.46040422 67.50504793 -63.99986066 63.19541924 -61.77209473 58.06628418 C-60.51621793 54.55177274 -60.69327846 50.97034573 -60.72265625 47.27734375 C-60.7052672 45.58072722 -60.68768289 43.88411268 -60.66992188 42.1875 C-60.65989707 39.55708985 -60.65624423 36.9268151 -60.65795898 34.29638672 C-60.62652113 11.96712544 -60.62652113 11.96712544 -54.09375 2.16796875 C-50.90415219 1.76078605 -48.93374753 1.65313156 -46.15625 3.35546875 C-45.09375 5.16796875 -45.09375 5.16796875 -45.21875 7.29296875 C-46.09375 10.16796875 -46.09375 10.16796875 -46.82885742 11.97583008 C-49.39318409 18.59937193 -49.44666688 24.69388923 -49.28125 31.73046875 C-49.26771484 32.83455078 -49.25417969 33.93863281 -49.24023438 35.07617188 C-49.20519815 37.77396147 -49.15607591 40.47069511 -49.09375 43.16796875 C-46.45375 41.84796875 -43.81375 40.52796875 -41.09375 39.16796875 C-41.06796875 37.98460937 -41.0421875 36.80125 -41.015625 35.58203125 C-40.64099792 23.70207848 -39.72258467 13.90979183 -31.125 4.9296875 C-22.54689513 -2.51016883 -10.59123515 -4.77951925 0 0 Z M-47.90625 55.48046875 C-48.44894531 56.01285156 -48.99164063 56.54523438 -49.55078125 57.09375 C-54.37770139 63.58259708 -54.54961289 69.67576124 -54.52734375 77.5078125 C-54.5325856 78.58873672 -54.53782745 79.66966095 -54.54322815 80.78334045 C-54.54963137 83.06185042 -54.54833347 85.34039352 -54.53979492 87.61889648 C-54.53128562 91.09093502 -54.56007115 94.56132685 -54.59179688 98.03320312 C-54.59340918 100.25390576 -54.5928308 102.47461129 -54.58984375 104.6953125 C-54.60107773 105.7257518 -54.61231171 106.7561911 -54.62388611 107.81785583 C-54.54848186 115.67774746 -52.87090645 120.95231391 -47.71875 126.91796875 C-42.62131623 131.2871977 -38.38320083 134.26139387 -31.58154297 134.3449707 C-30.66984344 134.35780594 -29.75814392 134.37064117 -28.81881714 134.38386536 C-27.34229172 134.39494576 -27.34229172 134.39494576 -25.8359375 134.40625 C-24.30950119 134.41835762 -24.30950119 134.41835762 -22.75222778 134.43070984 C-20.59525249 134.44454679 -18.43825534 134.45527068 -16.28125 134.46313477 C-13.00217376 134.48029385 -9.72411998 134.52417791 -6.4453125 134.56835938 C-4.34636156 134.57849144 -2.24740206 134.58700593 -0.1484375 134.59375 C1.30986984 134.62001213 1.30986984 134.62001213 2.79763794 134.64680481 C10.67066083 134.62205438 16.77798633 132.88819803 22.78125 127.66796875 C27.23866875 122.4239467 30.13335483 118.23386089 30.19677734 111.13745117 C30.20953705 110.16261276 30.22229675 109.18777435 30.23544312 108.18339539 C30.23766876 107.14060928 30.23989441 106.09782318 30.2421875 105.0234375 C30.2488443 103.93968338 30.2555011 102.85592926 30.26235962 101.73933411 C30.27247282 99.44887994 30.27717705 97.15839639 30.27685547 94.86791992 C30.2812215 91.37824464 30.31753726 87.88984171 30.35546875 84.40039062 C30.36133871 82.17057722 30.3653069 79.94075784 30.3671875 77.7109375 C30.38155853 76.67422409 30.39592957 75.63751068 30.41073608 74.56938171 C30.36393029 67.08217774 28.9329675 61.69393862 24.01171875 55.9609375 C23.37878906 55.43113281 22.74585938 54.90132812 22.09375 54.35546875 C21.15595703 53.54142578 21.15595703 53.54142578 20.19921875 52.7109375 C13.58012173 48.25686029 8.03267826 47.71066131 0.22265625 47.734375 C-0.79167984 47.72913315 -1.80601593 47.7238913 -2.85108948 47.7184906 C-4.98836353 47.71209001 -7.12567289 47.71338185 -9.26293945 47.72192383 C-12.51773311 47.73043341 -15.77077001 47.70164428 -19.02539062 47.66992188 C-21.10937448 47.66830954 -23.19336141 47.668888 -25.27734375 47.671875 C-26.72457069 47.65502403 -26.72457069 47.65502403 -28.20103455 47.63783264 C-36.04499777 47.71800878 -42.31242836 49.77776494 -47.90625 55.48046875 Z " fill="#1F2023" transform="translate(268.09375,126.83203125)"/>
<path d="M0 0 C5.00330085 2.84163131 8.92457418 6.96122253 10.75 12.4375 C11.70585973 26.20555649 11.70585973 26.20555649 7.75 31.4375 C3.99769374 35.34731047 1.21849684 37.63883637 -4.25 38.4375 C-4.19779297 40.33435547 -4.19779297 40.33435547 -4.14453125 42.26953125 C-4.11639323 43.92967423 -4.08909309 45.58983156 -4.0625 47.25 C-4.03736328 48.08337891 -4.01222656 48.91675781 -3.98632812 49.77539062 C-3.97666016 50.57783203 -3.96699219 51.38027344 -3.95703125 52.20703125 C-3.9413208 52.94542236 -3.92561035 53.68381348 -3.90942383 54.44458008 C-4.34733764 57.00708216 -5.1866345 57.89941059 -7.25 59.4375 C-10.59192692 59.19296876 -11.85543557 58.83206443 -14.25 56.4375 C-14.40931969 52.85836467 -14.4700765 49.31511885 -14.37695312 45.734375 C-14.41843915 43.45066799 -14.52657743 41.60748557 -15.25 39.4375 C-16.91063603 37.98566533 -18.5028809 37.16071398 -20.50610352 36.24804688 C-22.76611393 35.19761504 -24.06772715 33.79793084 -25.625 31.875 C-26.34816406 31.00681641 -26.34816406 31.00681641 -27.0859375 30.12109375 C-30.57647732 25.07269555 -29.73702429 18.27473313 -29.25 12.4375 C-27.54575409 6.32609586 -22.45553095 2.62281463 -17.25 -0.5625 C-11.56978516 -2.45590495 -5.50898331 -2.48381907 0 0 Z " fill="#1E2024" transform="translate(265.25,188.5625)"/>
<path d="M0 0 C3.5625 0.25 3.5625 0.25 7 1 C8.3303385 3.66067699 8.12895592 5.67522571 8.13371277 8.65588379 C8.13797775 9.85896683 8.14224274 11.06204987 8.14663696 12.30158997 C8.14628742 13.64181522 8.14582588 14.98204045 8.14526367 16.32226562 C8.14825451 17.72816558 8.15165686 19.13406472 8.15544128 20.53996277 C8.16429214 24.3642412 8.16661982 28.18849727 8.16725707 32.01278496 C8.16820517 35.20137536 8.17188224 38.38996052 8.17542917 41.57854891 C8.18357748 49.09810431 8.18601302 56.61764773 8.18530273 64.13720703 C8.1847015 71.90457905 8.19526157 79.67188171 8.2110464 87.43923616 C8.22410203 94.09997781 8.22948748 100.76069674 8.22884732 107.42145109 C8.2285918 111.40320998 8.23147304 115.38490725 8.24202538 119.36665344 C8.25167346 123.1094629 8.25180834 126.85215138 8.24450874 130.59496498 C8.24345886 131.97125232 8.24584958 133.34754706 8.2518692 134.72382164 C8.25953476 136.59723812 8.25376975 138.47069544 8.24723816 140.34411621 C8.24778293 141.39420616 8.24832769 142.44429611 8.24888897 143.52620697 C8 146 8 146 6 148 C2.375 148.125 2.375 148.125 -1 148 C-2.76420507 144.1931343 -3.24281915 141.24176649 -3.21600342 137.0592804 C-3.21322891 135.86890167 -3.21045441 134.67852295 -3.20759583 133.45207214 C-3.18749702 131.50606865 -3.18749702 131.50606865 -3.16699219 129.52075195 C-3.15983608 128.13411868 -3.15354616 126.74748071 -3.14805603 125.36083984 C-3.13045851 121.6027518 -3.10002201 117.8448692 -3.06672192 114.08689141 C-3.03349333 110.15474448 -3.01024233 106.22253621 -2.9854126 102.29032898 C-2.94207911 95.6904718 -2.89020538 89.09072166 -2.83349609 82.4909668 C-2.76800789 74.85482788 -2.71702574 67.21869324 -2.67355418 59.58239967 C-2.63587042 53.02769573 -2.59046772 46.47307871 -2.53855062 39.91847199 C-2.50753747 36.0027461 -2.47920578 32.08705013 -2.45778656 28.17125893 C-2.43723024 24.49317542 -2.40700314 20.81529747 -2.36920357 17.13735199 C-2.35101962 15.13873133 -2.34264911 13.14002901 -2.33451843 11.14134216 C-2.32046463 9.95942291 -2.30641083 8.77750366 -2.29193115 7.55976868 C-2.28380276 6.52832387 -2.27567436 5.49687906 -2.26729965 4.43417835 C-2 2 -2 2 0 0 Z " fill="#1E1F23" transform="translate(338,364)"/>
<path d="M0 0 C2.66048692 2.66048692 2.2631107 3.93050794 2.29193115 7.64915466 C2.30598495 8.85079254 2.32003876 10.05243042 2.33451843 11.29048157 C2.34007354 12.62911906 2.34542241 13.96775742 2.35058594 15.30639648 C2.3631533 16.71068064 2.37656561 18.11495745 2.39076233 19.51922607 C2.42670164 23.33940437 2.45001909 27.15956505 2.4705801 30.97985339 C2.49361645 34.97302799 2.52629301 38.96612573 2.55743408 42.95924377 C2.60811738 49.66688741 2.65038623 56.37454657 2.68798828 63.08227539 C2.73161504 70.84176721 2.78967671 78.60105214 2.85523582 86.36038727 C2.91108451 93.01600288 2.95907159 99.67164145 3.0004847 106.3273626 C3.02524849 110.30526374 3.05277185 114.28309471 3.08739471 118.26092339 C3.11951745 122.00122169 3.14178669 125.74145087 3.15640068 129.4818573 C3.16339069 130.85613272 3.17383551 132.23039547 3.18795204 133.60461617 C3.20663465 135.47762817 3.21168867 137.35076148 3.21600342 139.22386169 C3.22262371 140.27302985 3.229244 141.32219801 3.23606491 142.40315914 C3 145 3 145 1 148 C-2.5 148.3125 -2.5 148.3125 -6 148 C-8.6643857 145.3356143 -8.25340882 144.07400703 -8.26069641 140.35084534 C-8.26778122 139.14920746 -8.27486603 137.94756958 -8.28216553 136.70951843 C-8.2798715 135.37087975 -8.27736178 134.03224143 -8.2746582 132.69360352 C-8.27900353 131.28932422 -8.28418607 129.8850473 -8.29014587 128.48077393 C-8.30356684 124.66053824 -8.30411111 120.84040129 -8.30158257 117.02014661 C-8.30051491 113.83413006 -8.30539098 110.64813367 -8.310188 107.46212143 C-8.32129398 99.94730724 -8.32171453 92.43254304 -8.31567383 84.91772461 C-8.30963251 77.15828325 -8.32194649 69.39902316 -8.3432439 61.63961273 C-8.36084195 54.9839425 -8.36686409 48.32833005 -8.36360615 41.6726374 C-8.36179021 37.69473372 -8.36446026 33.7169593 -8.37832069 29.73907661 C-8.39086528 25.99866942 -8.38898723 22.25854537 -8.37590981 18.5181427 C-8.37353704 17.14388879 -8.37630368 15.76961516 -8.38453293 14.39538383 C-8.39494203 12.52232776 -8.38512977 10.64919154 -8.3742218 8.77613831 C-8.37438954 7.72697015 -8.37455729 6.67780199 -8.37473011 5.59684086 C-8 3 -8 3 -6.63676739 1.15852261 C-4.33077081 -0.47368805 -2.75757544 -0.35353531 0 0 Z " fill="#1E1F23" transform="translate(174,364)"/>
<path d="M0 0 C2 2 2 2 2.125 5.125 C2.08375 6.07375 2.0425 7.0225 2 8 C1.03320312 8.42410156 0.06640625 8.84820312 -0.9296875 9.28515625 C-18.12871799 16.97246751 -31.69944649 26.68675259 -39.10766602 44.69213867 C-42.44608849 54.16575876 -42.56971292 63.15298363 -42.5625 73.0625 C-42.56611945 75.43082891 -42.57566669 77.79843369 -42.60325623 80.16661072 C-42.61993696 81.62563384 -42.6230052 83.08489789 -42.61024475 84.54396057 C-42.65316836 88.65002594 -43.10791143 91.0122894 -46 94 C-51.875 93.125 -51.875 93.125 -53 92 C-53.13868728 89.26757371 -53.21325699 86.5624049 -53.23828125 83.828125 C-53.246353 82.99472595 -53.25442474 82.1613269 -53.26274109 81.30267334 C-53.2766126 79.52716159 -53.28732094 77.75162282 -53.29516602 75.97607422 C-53.3121661 73.30251213 -53.35599394 70.63025722 -53.40039062 67.95703125 C-53.58118651 48.26651633 -47.76803107 31.59801876 -34 17 C-28.20889059 11.34136695 -21.90955029 7.1314177 -14.75 3.4375 C-14.08871094 3.09058105 -13.42742187 2.74366211 -12.74609375 2.38623047 C-8.37814419 0.2514936 -4.95605051 -0.53628905 0 0 Z " fill="#222223" transform="translate(241,87)"/>
<path d="M0 0 C9.14003871 6.43545658 17.74029115 16.74291829 20 28 C20.26294601 31.68620537 20.33657203 35.31712528 20 39 C19 40 19 40 15.5625 40.25 C14.386875 40.1675 13.21125 40.085 12 40 C9.92728886 36.89093329 9.4774437 34.98423987 8.75 31.375 C6.42205172 21.77366107 1.15476914 14.57957889 -7 9 C-16.80899956 3.13834368 -28.02528696 2.08769636 -39.0625 4.734375 C-43.11085048 6.2401639 -46.38931667 8.19949439 -49.8125 10.8125 C-53 13 -53 13 -55.8125 12.9375 C-58 12 -58 12 -60 10 C-59.87583124 6.45641448 -59.5878939 4.61208706 -57.1015625 2.0234375 C-54.44375394 0.25435988 -51.77558558 -1.42105118 -49 -3 C-48.22914063 -3.43957031 -47.45828125 -3.87914063 -46.6640625 -4.33203125 C-32.04720118 -11.02551305 -13.24048912 -8.50088512 0 0 Z " fill="#222223" transform="translate(283,112)"/>
<path d="M0 0 C4.47870656 2.15937638 7.18198188 4.92952939 10 9 C12.11081869 15.33245608 11 22.3250052 11 29 C-0.22 29 -11.44 29 -23 29 C-23 9.21374046 -23 9.21374046 -18.46484375 4.35546875 C-12.23631242 -0.4075258 -7.7938532 -0.73449925 0 0 Z " fill="#FBDD7E" transform="translate(262,136)"/>
<path d="M0 0 C2.875 0.75 2.875 0.75 3.875 1.75 C3.98071371 4.32562419 4.02178123 6.87457175 4.02026367 9.45092773 C4.02530159 10.66064743 4.02530159 10.66064743 4.03044128 11.89480591 C4.03998015 14.5744173 4.04189586 17.25396641 4.04296875 19.93359375 C4.04617928 21.78825405 4.04954319 23.6429141 4.05305481 25.49757385 C4.05905343 29.39072253 4.06089396 33.28384898 4.06030273 37.17700195 C4.06020107 42.17538678 4.07385475 47.17362969 4.09107494 52.17198086 C4.10217182 56.00401977 4.10422266 59.83602413 4.10369301 63.66807747 C4.10487657 65.51133781 4.10931924 67.35459894 4.11702538 69.19784355 C4.12677886 71.77189052 4.12396576 74.34562618 4.11791992 76.91967773 C4.12353943 77.68702744 4.12915894 78.45437714 4.13494873 79.24497986 C4.10331554 84.52168446 4.10331554 84.52168446 1.875 86.75 C-0.81392663 87.09473418 -2.43979869 87.18414191 -4.76089478 85.71350098 C-6.85944078 82.69284168 -6.54222975 79.5701014 -6.51318359 76.02148438 C-6.51844055 75.23582596 -6.52369751 74.45016754 -6.52911377 73.64070129 C-6.54232666 71.04151579 -6.53357134 68.44294182 -6.5234375 65.84375 C-6.52545787 64.03918337 -6.528369 62.23461754 -6.53213501 60.43005371 C-6.5365601 56.64713776 -6.53012139 52.86443424 -6.51611328 49.08154297 C-6.49902125 44.22893108 -6.50886144 39.37681694 -6.52683067 34.52422333 C-6.53766353 30.7976302 -6.53422447 27.07115537 -6.5264473 23.34455872 C-6.52444391 21.55515993 -6.52690942 19.76575045 -6.53388596 17.97636414 C-6.54149232 15.47679127 -6.52990821 12.97802808 -6.51318359 10.47851562 C-6.51925629 9.73660477 -6.52532898 8.99469391 -6.53158569 8.2303009 C-6.4951121 5.29267877 -6.44821541 3.23609602 -4.79605103 0.75134277 C-3.125 -0.25 -3.125 -0.25 0 0 Z " fill="#212123" transform="translate(320.125,150.25)"/>
<path d="M0 0 C3.51530169 0.29682885 5.86069181 1.17083249 9.05078125 2.6484375 C22.69419998 8.55779555 37.47399566 9.34675553 51.53125 4.02734375 C53.75093477 3.14197796 55.96167974 2.23366425 58.16015625 1.296875 C61.42325589 0.21193578 63.82471455 -0.06791917 67.23828125 0.2734375 C69.23828125 2.2734375 69.23828125 2.2734375 69.67578125 4.6484375 C69.23828125 7.2734375 69.23828125 7.2734375 67.1015625 9.2734375 C64.12099231 11.35536375 61.38805785 12.62557428 57.98828125 13.8984375 C56.40273438 14.50558594 56.40273438 14.50558594 54.78515625 15.125 C38.15275553 20.51038085 19.407915 20.32532681 3.390625 12.96484375 C0.28257614 11.30491908 -2.26556892 9.76958733 -4.76171875 7.2734375 C-5.01171875 4.7734375 -5.01171875 4.7734375 -4.76171875 2.2734375 C-2.76171875 0.2734375 -2.76171875 0.2734375 0 0 Z " fill="#202123" transform="translate(223.76171875,281.7265625)"/>
<path d="M0 0 C6.3648287 0.67122883 10.2710923 6.14874832 14.2578125 10.78515625 C18.1944234 15.88138896 21.33583986 21.24672141 24.1484375 27.01953125 C24.45152832 27.62482666 24.75461914 28.23012207 25.06689453 28.85375977 C27.25867849 33.60477002 27.67188294 37.21208059 27.1484375 42.33203125 C24.1484375 44.33203125 24.1484375 44.33203125 21.6484375 44.26953125 C18.2947365 43.01189338 17.79148588 41.46312345 16.1484375 38.33203125 C15.54887438 36.63635053 14.98716145 34.92688513 14.4609375 33.20703125 C10.99949673 23.4520618 4.47922125 16.19350465 -3.1640625 9.40234375 C-4.8515625 7.33203125 -4.8515625 7.33203125 -5.2265625 4.69921875 C-4.65367733 1.08288114 -3.58114207 0.4169823 0 0 Z " fill="#222223" transform="translate(294.8515625,97.66796875)"/>
<path d="M0 0 C3.05276514 0.37228843 3.69220735 0.94290754 5.5625 3.3125 C5.86097993 6.36112525 5.98271845 9.20110095 5.9609375 12.25 C5.96524277 13.5647229 5.96524277 13.5647229 5.96963501 14.90600586 C5.97167598 16.75863288 5.96614378 18.61128142 5.95361328 20.46386719 C5.93755984 23.30192179 5.95346055 26.13855227 5.97265625 28.9765625 C5.97067382 30.77604481 5.96683016 32.57552624 5.9609375 34.375 C5.97004654 35.65008423 5.97004654 35.65008423 5.9793396 36.95092773 C5.90852031 42.8741049 5.90852031 42.8741049 4.19839478 45.04077148 C2.5625 46.3125 2.5625 46.3125 0 46.625 C-2.4375 46.3125 -2.4375 46.3125 -4.4375 44.3125 C-4.69146729 42.4909668 -4.69146729 42.4909668 -4.69628906 40.26171875 C-4.70259338 39.42745361 -4.70889771 38.59318848 -4.71539307 37.73364258 C-4.7113446 36.83154053 -4.70729614 35.92943848 -4.703125 35 C-4.70503845 34.07533936 -4.7069519 33.15067871 -4.70892334 32.19799805 C-4.71028566 30.24104541 -4.70658596 28.28408376 -4.69824219 26.32714844 C-4.68754334 23.3246641 -4.69813591 20.32277813 -4.7109375 17.3203125 C-4.70961591 15.42187367 -4.70705354 13.52343522 -4.703125 11.625 C-4.70717346 10.72289795 -4.71122192 9.8207959 -4.71539307 8.89135742 C-4.70908875 8.05709229 -4.70278442 7.22282715 -4.69628906 6.36328125 C-4.69469788 5.62762939 -4.69310669 4.89197754 -4.69146729 4.1340332 C-4.26288241 1.06008773 -2.94569973 0.37765381 0 0 Z " fill="#222223" transform="translate(192.4375,190.6875)"/>
<path d="M0 0 C7.60731619 2.65809744 7.60731619 2.65809744 9.99609375 5.046875 C9.62109375 8.671875 9.62109375 8.671875 8.99609375 12.046875 C4.71657583 13.43482676 2.13767434 12.87614474 -1.87890625 11.234375 C-7.4549025 8.98859444 -12.75274562 8.28025493 -18.69677734 7.8190918 C-20.47705224 7.65663573 -22.24398296 7.36062756 -24.00390625 7.046875 C-26.00390625 4.046875 -26.00390625 4.046875 -25.75390625 0.921875 C-25.38265625 -0.50125 -25.38265625 -0.50125 -25.00390625 -1.953125 C-17.88694098 -5.51160763 -7.15025174 -2.26874047 0 0 Z " fill="#212123" transform="translate(277.00390625,86.953125)"/>
<path d="M0 0 C2.93078588 1.58404824 5.06089029 3.27746774 7 6 C7.82957397 9.17353799 7.75063796 11.81565303 7 15 C4.88608123 18.49890004 3.88263941 19.70578686 0 21 C-4.19987818 21.38887761 -6.29607238 21.45908323 -9.875 19.125 C-12.66321503 16.33678497 -13.23802412 14.60104548 -13.5 10.75 C-13.47225048 7.88717476 -13.30467161 6.43411302 -11.6484375 4.07421875 C-8.02094611 0.72637978 -5.02966074 -1.25741518 0 0 Z " fill="#A5ACB5" transform="translate(259,197)"/>
<path d="M0 0 C3.44652326 2.44128731 4.78056289 3.82966874 5.5625 8 C4.87642343 11.65907504 3.57265686 13.35167676 1 16 C-1.88861709 17.44430855 -3.79647701 17.37688506 -7 17 C-9.86972996 15.00366611 -11.65210765 13.52770117 -12.44921875 10.02734375 C-12.63063966 6.6804408 -12.22262069 4.37103449 -10.5 1.5 C-7.01402996 -0.59158203 -3.89784294 -0.8876276 0 0 Z " fill="#F3D77B" transform="translate(148,251)"/>
<path d="M0 0 C3.80470451 0.7133821 5.41196019 1.67868421 8 4.5625 C9.1659741 8.57053597 9.43240501 10.61532711 7.6875 14.4375 C6 16.5625 6 16.5625 4 17.5625 C-3.0521327 18.13122038 -3.0521327 18.13122038 -6.5 16.0625 C-8.59158203 12.57652996 -8.8876276 9.46034294 -8 5.5625 C-5.55871269 2.11597674 -4.17033126 0.78193711 0 0 Z " fill="#F3D67B" transform="translate(493,175.4375)"/>
<path d="M0 0 C3.80470451 0.7133821 5.41196019 1.67868421 8 4.5625 C8.93605213 8.05709462 9.3742539 10.40855048 8.25 13.875 C7 15.5625 7 15.5625 4 17.5625 C-2.90410959 18.22003425 -2.90410959 18.22003425 -6.5 16.0625 C-8.59158203 12.57652996 -8.8876276 9.46034294 -8 5.5625 C-5.55871269 2.11597674 -4.17033126 0.78193711 0 0 Z " fill="#F4D77B" transform="translate(81,265.4375)"/>
<path d="M0 0 C2.5 1.5 2.5 1.5 4 4 C4.79126072 8.02224201 4.66872394 10.95679065 2.4375 14.4375 C-0.83565762 16.53567796 -3.11417724 17 -7 17 C-9.80189446 15.23358828 -11.51524911 13.96950178 -13 11 C-13.52981019 7.02642355 -13.31881474 5.45829619 -11 2.125 C-6.85436985 -0.81148802 -5.00671711 -0.7152453 0 0 Z " fill="#F4D77B" transform="translate(372,251)"/>
<path d="M0 0 C2.4375 1.5625 2.4375 1.5625 4 4 C4.79990863 8.01603612 4.61840725 10.96932124 2.5 14.5 C-1.03067876 16.61840725 -3.98396388 16.79990863 -8 16 C-11.33219018 13.86398066 -11.89315459 12.3672811 -13 8.5625 C-13 5 -13 5 -11.1875 2.125 C-7.34864131 -1.60417702 -5.15505453 -1.15544326 0 0 Z " fill="#F4D77B" transform="translate(23,177)"/>
<path d="M0 0 C2.5 2.125 2.5 2.125 4 5 C4 8.88582276 3.53567796 11.16434238 1.4375 14.4375 C-1.55675314 16.35689304 -3.57979374 16.64198916 -7.09375 16.4453125 C-9 16 -9 16 -11.5 13.9375 C-13.37276489 10.27000208 -13.59172793 8.06812955 -13 4 C-9.01693752 -1.04521248 -6.191012 -1.49438221 0 0 Z " fill="#F4D77B" transform="translate(149,11)"/>
<path d="M0 0 C2.4375 1.625 2.4375 1.625 4 4 C4.72125695 8.40768137 4.52001338 10.25937488 1.9375 13.9375 C-1.74062512 16.52001338 -3.59231863 16.72125695 -8 16 C-11.27522945 13.84524379 -11.90229594 12.3358577 -13 8.5625 C-13 5 -13 5 -11.1875 2.125 C-7.34864131 -1.60417702 -5.15505453 -1.15544326 0 0 Z " fill="#F6D97C" transform="translate(435,267)"/>
<path d="M0 0 C2.5 1.5 2.5 1.5 4 4 C4.79126072 8.02224201 4.66872394 10.95679065 2.4375 14.4375 C-0.86357636 16.55357459 -3.07466612 17.06886551 -7 17 C-9.875 14.625 -9.875 14.625 -12 12 C-12.33 11.67 -12.66 11.34 -13 11 C-12.79055915 7.29987825 -12.45352732 4.70750262 -10.4375 1.5625 C-6.95679065 -0.66872394 -4.02224201 -0.79126072 0 0 Z " fill="#F4D77B" transform="translate(103,133)"/>
<path d="M0 0 C4.4297642 0.79102932 5.89210172 1.98974785 8.5 5.625 C9.21235686 9.4242366 8.81263988 11.06224821 6.9375 14.4375 C3.73003157 17.31599731 1.7850666 17.70017661 -2.5 17.625 C-5.30189446 15.85858828 -7.01524911 14.59450178 -8.5 11.625 C-9.03507099 7.6119676 -8.83051628 6.08571967 -6.4375 2.75 C-3.5 0.625 -3.5 0.625 0 0 Z " fill="#F6D97C" transform="translate(461.5,60.375)"/>
<path d="M0 0 C4.4297642 0.79102932 5.89210172 1.98974785 8.5 5.625 C9.21235686 9.4242366 8.81263988 11.06224821 6.9375 14.4375 C3.73003157 17.31599731 1.7850666 17.70017661 -2.5 17.625 C-5.30189446 15.85858828 -7.01524911 14.59450178 -8.5 11.625 C-9.03507099 7.6119676 -8.83051628 6.08571967 -6.4375 2.75 C-3.5 0.625 -3.5 0.625 0 0 Z " fill="#F6D97C" transform="translate(50.5,60.375)"/>
<path d="M0 0 C2.4375 1.625 2.4375 1.625 4 4 C4.72125695 8.40768137 4.52001338 10.25937488 1.9375 13.9375 C-1.74062512 16.52001338 -3.59231863 16.72125695 -8 16 C-11.27522945 13.84524379 -11.90229594 12.3358577 -13 8.5625 C-13 5 -13 5 -11.1875 2.125 C-7.34864131 -1.60417702 -5.15505453 -1.15544326 0 0 Z " fill="#F5D87B" transform="translate(372,11)"/>
<path d="M0 0 C3.79436208 0.99930724 4.98119894 3.22118008 6.97265625 6.51953125 C7.59765625 9.08203125 7.59765625 9.08203125 6.97265625 11.51953125 C4.3838181 14.97131544 2.59284917 16.32018353 -1.52734375 17.64453125 C-5.02734375 17.51953125 -5.02734375 17.51953125 -7.96484375 15.58203125 C-10.79355024 11.38183071 -10.74107878 9.51567644 -10.02734375 4.51953125 C-7.58276926 0.44524043 -4.70748532 -0.23757403 0 0 Z " fill="#F5D87B" transform="translate(415.02734375,132.48046875)"/>
<path d="M0 0 C3.625 0.375 3.625 0.375 7 1 C7.9375 4.125 7.9375 4.125 8 8 C6.12621248 10.76075277 3.98185897 12.51755778 1 14 C-2.9375 13.875 -2.9375 13.875 -6 13 C-6.8125 10.3125 -6.8125 10.3125 -7 7 C-4.6875 4.25 -4.6875 4.25 -2 2 C-1.34 1.34 -0.68 0.68 0 0 Z " fill="#202022" transform="translate(199,83)"/>
</svg>
