<?xml version="1.0" encoding="UTF-8"?>
<svg version="1.1" xmlns="http://www.w3.org/2000/svg" width="512" height="512">
<path d="M0 0 C0.66773438 0.5671875 1.33546875 1.134375 2.0234375 1.71875 C3.08691406 2.60046875 3.08691406 2.60046875 4.171875 3.5 C10.40905859 9.15751969 14.41494342 16.41752185 16.0234375 24.71875 C16.10642425 27.26510479 16.13983008 29.78268883 16.12109375 32.328125 C16.11897133 33.41833954 16.11897133 33.41833954 16.11680603 34.53057861 C16.11122542 36.84334494 16.09867654 39.15601312 16.0859375 41.46875 C16.08091999 43.04036318 16.07635752 44.61197789 16.07226562 46.18359375 C16.06126235 50.02868343 16.04401111 53.8737001 16.0234375 57.71875 C16.96342811 57.71598462 17.90341871 57.71321924 18.87189388 57.71037006 C41.75757152 57.64373317 64.64323654 57.59445456 87.52899075 57.56331348 C98.59642932 57.54785312 109.66380376 57.52677942 120.73120117 57.49243164 C130.37899366 57.46250392 140.02673968 57.44316896 149.6745773 57.43648452 C154.78171577 57.43257799 159.88872135 57.4234143 164.99581718 57.40155983 C169.8064617 57.38114145 174.61691903 57.37492703 179.42760277 57.37942696 C181.18958301 57.37860415 182.95156976 57.37267047 184.71351242 57.36113358 C205.98602614 57.22872058 205.98602614 57.22872058 213.3984375 64.03125 C214.02492188 64.58425781 214.65140625 65.13726562 215.296875 65.70703125 C220.85439449 72.18242161 220.45277901 78.58404249 220.41784668 86.72470093 C220.42273777 88.06474303 220.42892858 89.40478092 220.43630457 90.74481165 C220.45269979 94.42138568 220.45038707 98.09774522 220.4449296 101.77434301 C220.44225888 105.74173454 220.45679198 109.70906896 220.46902466 113.67643738 C220.49007903 121.44680559 220.49461951 129.21709918 220.49283677 136.98749255 C220.49152916 143.30355675 220.49533326 149.61959768 220.50276184 155.9356575 C220.50486104 157.75498124 220.50695864 159.57430498 220.50905466 161.39362872 C220.51061995 162.75192166 220.51061995 162.75192166 220.51221687 164.13765486 C220.53111924 181.26364068 220.53006904 198.38958367 220.52324754 215.5155756 C220.51767197 231.18148375 220.53849808 246.84722836 220.57160801 262.51309828 C220.60534423 278.6001975 220.62051343 294.68721837 220.61589098 310.77435362 C220.61364623 319.80550493 220.61889022 328.8365051 220.64378357 337.86762619 C220.66479581 345.55615904 220.66838951 353.24445786 220.64948398 360.93300031 C220.6403256 364.85510593 220.63918575 368.77677519 220.65983963 372.69884682 C220.67854985 376.29158835 220.67404677 379.88353619 220.65129381 383.4762475 C220.6451299 385.38678725 220.66350002 387.29735791 220.68283033 389.20780981 C220.58949554 398.25506968 218.54224664 403.11996792 212.2734375 409.53125 C202.82512631 415.89069022 192.67385861 415.14344186 181.76611328 415.09970093 C179.89209788 415.10315959 178.01808452 415.10792555 176.14407539 415.11388266 C171.00541499 415.1263936 165.86692196 415.12022178 160.72826099 415.11092401 C155.18217147 415.10413428 149.63611067 415.11461438 144.09002686 415.12286377 C133.22958051 415.13620408 122.36919636 415.13332201 111.50874758 415.12462585 C102.68227916 415.1178509 93.85582818 415.11693177 85.02935791 415.1201973 C83.77316182 415.120657 82.51696573 415.12111669 81.2227031 415.12159032 C78.67077048 415.1225495 76.11883787 415.12352214 73.56690526 415.1245081 C50.3192157 415.13281899 27.07156255 415.12420005 3.8238807 415.10848031 C-17.39151957 415.09424384 -38.60686582 415.09551774 -59.82226562 415.10986328 C-83.66646374 415.12593255 -107.51063206 415.13223888 -131.35483742 415.12302649 C-133.89738591 415.12207084 -136.43993441 415.12112773 -138.98248291 415.1201973 C-140.85896005 415.11950306 -140.85896005 415.11950306 -142.77334583 415.11879479 C-151.58928139 415.11620445 -160.40519778 415.12057687 -169.22113037 415.12763596 C-179.96469604 415.13604943 -190.70819596 415.13377398 -201.45175409 415.11779372 C-206.9333397 415.10990901 -212.41481566 415.10682292 -217.89640045 415.11674118 C-222.91493601 415.12568428 -227.93326033 415.1207614 -232.95177674 415.10480852 C-234.76659316 415.10145912 -236.58142745 415.10315838 -238.39623237 415.11043589 C-259.95932179 415.19026837 -259.95932179 415.19026837 -267.3515625 408.40625 C-267.97804688 407.85324219 -268.60453125 407.30023438 -269.25 406.73046875 C-274.80751949 400.25507839 -274.40590401 393.85345751 -274.37097168 385.71279907 C-274.37586277 384.37275697 -274.38205358 383.03271908 -274.38942957 381.69268835 C-274.40582479 378.01611432 -274.40351207 374.33975478 -274.3980546 370.66315699 C-274.39538388 366.69576546 -274.40991698 362.72843104 -274.42214966 358.76106262 C-274.44320403 350.99069441 -274.44774451 343.22040082 -274.44596177 335.45000745 C-274.44465416 329.13394325 -274.44845826 322.81790232 -274.45588684 316.5018425 C-274.45798604 314.68251876 -274.46008364 312.86319502 -274.46217966 311.04387128 C-274.46322319 310.13834266 -274.46426672 309.23281403 -274.46534187 308.29984514 C-274.48424424 291.17385932 -274.48319404 274.04791633 -274.47637254 256.9219244 C-274.47079697 241.25601625 -274.49162308 225.59027164 -274.52473301 209.92440172 C-274.55846923 193.8373025 -274.57363843 177.75028163 -274.56901598 161.66314638 C-274.56677123 152.63199507 -274.57201522 143.6009949 -274.59690857 134.56987381 C-274.61792081 126.88134096 -274.62151451 119.19304214 -274.60260898 111.50449969 C-274.5934506 107.58239407 -274.59231075 103.66072481 -274.61296463 99.73865318 C-274.63167485 96.14591165 -274.62717177 92.55396381 -274.60441881 88.9612525 C-274.5982549 87.05071275 -274.61662502 85.14014209 -274.63595533 83.22969019 C-274.54844193 74.74671785 -272.73285905 70.00456854 -267.203125 63.6953125 C-266.67460937 63.24929687 -266.14609375 62.80328125 -265.6015625 62.34375 C-264.81652344 61.65152344 -264.81652344 61.65152344 -264.015625 60.9453125 C-258.78135244 57.79672709 -253.07364187 57.42858128 -247.11146545 57.47824097 C-246.35002729 57.47653212 -245.58858913 57.47482327 -244.80407709 57.47306263 C-242.26910797 57.46978533 -239.73440736 57.48074218 -237.19946289 57.49169922 C-235.37579352 57.49226371 -233.5521237 57.49194602 -231.72845459 57.49081421 C-226.78890399 57.49024119 -221.84945083 57.50198731 -216.90992284 57.51596212 C-211.74361877 57.52847793 -206.57731238 57.52964066 -201.41099548 57.53201294 C-191.63285853 57.5382252 -181.85476637 57.55463261 -172.07664913 57.57471192 C-160.94248484 57.59707879 -149.8083184 57.60806634 -138.67413723 57.61810279 C-115.77492083 57.63899904 -92.87574418 57.67417012 -69.9765625 57.71875 C-69.99750977 56.77668701 -70.01845703 55.83462402 -70.04003906 54.86401367 C-70.10883739 51.31719886 -70.15866064 47.77110865 -70.19628906 44.22387695 C-70.21621561 42.69837141 -70.24336735 41.17294032 -70.27832031 39.64770508 C-70.59795741 25.32514279 -68.43069166 14.54494777 -58.3515625 3.65625 C-44.0246421 -10.19398913 -16.00682403 -12.13900409 0 0 Z M-48.32929993 14.82217407 C-55.54130163 23.12571295 -55.65679075 32.10526932 -55.46484375 42.5703125 C-55.45549862 44.08058492 -55.44839056 45.59087267 -55.44340515 47.10116577 C-55.4244684 51.04375306 -55.37548706 54.98539443 -55.31988525 58.9276123 C-55.25932295 63.67497718 -55.23671278 68.42266136 -55.20761871 73.17030334 C-55.15940974 80.35377335 -55.06350733 87.53517491 -54.9765625 94.71875 C-36.4965625 94.71875 -18.0165625 94.71875 1.0234375 94.71875 C1.16909453 82.87701204 1.16909453 82.87701204 1.26757812 71.03515625 C1.29735947 66.19844818 1.33242211 61.36221759 1.40063477 56.52587891 C1.45533834 52.62249936 1.48493767 48.71963246 1.49782372 44.8158989 C1.50699549 43.33364171 1.52490467 41.85140961 1.55208778 40.36937332 C1.71933019 30.86509713 1.23804207 22.50692303 -5.41972351 15.11685181 C-12.71499824 8.59652264 -20.43719039 7.3922528 -29.84375 7.5078125 C-36.8571281 7.98003497 -43.25754396 9.7481571 -48.32929993 14.82217407 Z M-257.9765625 75.71875 C-262.82996909 90.27896978 -259.9765625 106.37093076 -259.9765625 121.71875 C-106.1965625 121.71875 47.5834375 121.71875 206.0234375 121.71875 C207.61541823 97.58409714 207.61541823 97.58409714 203.0234375 74.71875 C199.72608316 71.99688685 195.68672938 72.44420727 191.59503174 72.47824097 C190.84432396 72.47653212 190.09361618 72.47482327 189.32015967 72.47306263 C186.80351209 72.46976716 184.28713085 72.4807723 181.77050781 72.49169922 C179.96698513 72.49226332 178.16346199 72.49194679 176.35993958 72.49081421 C171.4615322 72.49023966 166.56322249 72.5020106 161.66483784 72.51596212 C156.54656276 72.52845236 151.42828552 72.52963864 146.30999756 72.53201294 C136.61675889 72.53823273 126.92356526 72.5546503 117.23034644 72.57471192 C106.19540343 72.59705539 95.16045829 72.60806045 84.12549829 72.61810279 C61.42478638 72.63901609 38.72411446 72.67420177 16.0234375 72.71875 C16.01932861 73.70270752 16.01521973 74.68666504 16.01098633 75.70043945 C15.98921088 79.35185095 15.9349403 83.00218233 15.87084961 86.65307617 C15.84765526 88.23304897 15.83327046 89.8131767 15.82788086 91.39331055 C15.81860065 93.66553439 15.77764003 95.93531715 15.73046875 98.20703125 C15.7344014 98.91338211 15.73833405 99.61973297 15.74238586 100.3474884 C15.68286133 102.34887695 15.68286133 102.34887695 15.0234375 105.71875 C11.07868147 109.00841052 7.78868452 109.09758501 2.7421875 109.10693359 C1.67049316 109.11481903 1.67049316 109.11481903 0.57714844 109.12286377 C-1.77431379 109.1360207 -4.1250939 109.12734142 -6.4765625 109.1171875 C-8.11653777 109.11920948 -9.75651217 109.12212196 -11.39648438 109.12588501 C-14.82951437 109.13030251 -18.26230982 109.12389591 -21.6953125 109.10986328 C-26.09031851 109.09277159 -30.48477488 109.10261587 -34.87976074 109.12058067 C-38.2650159 109.1314341 -41.65014127 109.12796505 -45.03540039 109.1201973 C-46.655681 109.11819959 -48.27597349 109.12063945 -49.89624023 109.12763596 C-52.16291402 109.13527631 -54.42870432 109.12361111 -56.6953125 109.10693359 C-57.98373047 109.10454681 -59.27214844 109.10216003 -60.59960938 109.09970093 C-64.38518292 108.67265391 -66.05770892 108.15287706 -68.9765625 105.71875 C-69.50519744 103.01725124 -69.69866783 100.91451821 -69.68359375 98.20703125 C-69.69871506 97.47880661 -69.71383636 96.75058197 -69.72941589 96.00028992 C-69.77236516 93.67696345 -69.78113676 91.35493422 -69.7890625 89.03125 C-69.81220156 87.45504346 -69.83756568 85.87886791 -69.86523438 84.30273438 C-69.92815676 80.44129125 -69.96043563 76.58066067 -69.9765625 72.71875 C-93.75042369 72.64869987 -117.52426943 72.5957814 -141.29821301 72.56331348 C-152.33662044 72.54783804 -163.37496378 72.52673555 -174.41333008 72.49243164 C-184.03325023 72.46255006 -193.65312396 72.44317993 -203.27308923 72.43648452 C-208.36780403 72.43257016 -213.46238605 72.42335675 -218.55705833 72.40155983 C-223.35127505 72.38121434 -228.14530415 72.3749123 -232.93955994 72.37942696 C-234.69999524 72.37860089 -236.46043674 72.37262372 -238.22083473 72.36113358 C-240.62342165 72.34621963 -243.02529908 72.34979214 -245.42790222 72.35798645 C-246.12538155 72.34924793 -246.82286088 72.3405094 -247.54147595 72.33150607 C-251.84238705 72.37118681 -254.68193484 72.8843102 -257.9765625 75.71875 Z M-259.9765625 136.71875 C-260.0384375 178.484375 -260.1003125 220.25 -260.1640625 263.28125 C-260.19137451 276.47810791 -260.21868652 289.67496582 -260.24682617 303.27172852 C-260.25685829 315.08171727 -260.25685829 315.08171727 -260.26289368 326.89170837 C-260.26569324 332.15977526 -260.27670601 337.42774979 -260.29328918 342.69578552 C-260.31440086 349.41233603 -260.32004076 356.1287315 -260.31577933 362.84532154 C-260.31667064 365.31227189 -260.32263481 367.77922677 -260.33420789 370.24615014 C-260.34910387 373.57564935 -260.34554205 376.9046354 -260.33732605 380.23414612 C-260.34606404 381.20177855 -260.35480204 382.16941099 -260.36380482 383.16636562 C-260.32664614 388.75949302 -259.81544478 392.83834687 -256.9765625 397.71875 C-253.43163306 400.25192097 -249.6256075 399.99903098 -245.43928623 399.97322559 C-244.67302393 399.97643207 -243.90676163 399.97963855 -243.11727926 399.98294219 C-240.53461839 399.99128215 -237.95218701 399.985304 -235.36952209 399.97944641 C-233.50522201 399.98246527 -231.64092317 399.98635341 -229.77662653 399.99103898 C-224.64178443 400.0013619 -219.50701181 399.99912627 -214.37216389 399.99485838 C-208.83901846 399.99239894 -203.3058901 400.00139556 -197.77275085 400.00889587 C-186.92834908 400.02166656 -176.08397204 400.02343363 -165.23956401 400.02109561 C-156.42819955 400.01931499 -147.61684261 400.02105658 -138.80547905 400.02532005 C-137.55300134 400.02591524 -136.30052364 400.02651043 -135.01009206 400.02712366 C-132.46596285 400.02833536 -129.92183364 400.0295495 -127.37770443 400.03076603 C-110.28735332 400.03855709 -93.19700471 400.04246966 -76.10665226 400.03844929 C-75.43808958 400.03829291 -74.7695269 400.03813654 -74.08070474 400.03797542 C-70.69202758 400.03716962 -67.30335043 400.03632385 -63.91467328 400.03546212 C-62.9051382 400.03520549 -62.9051382 400.03520549 -61.87520848 400.03494367 C-60.51419136 400.03459702 -59.15317425 400.03424849 -57.79215713 400.03389808 C-36.61117749 400.02853998 -15.43023946 400.03647293 5.75073242 400.05493164 C29.53808535 400.07563738 53.3254161 400.08634601 77.11278063 400.08235615 C89.7113657 400.08044062 102.30991285 400.08296587 114.90849113 400.09707069 C125.63325726 400.10895582 136.35796211 400.11042169 147.08272903 400.09828053 C152.55771151 400.09237173 158.03258176 400.09134745 163.50755692 400.10328293 C168.51559238 400.11407389 173.52342101 400.11111986 178.53144652 400.09702124 C180.34701617 400.0943555 182.16260168 400.09679916 183.97815584 400.10475711 C186.43912988 400.11479869 188.8993759 400.10649693 191.36032009 400.09348011 C192.07120577 400.10078946 192.78209145 400.1080988 193.51451913 400.11562964 C197.84288203 400.06791865 200.59012674 399.38960783 204.0234375 396.71875 C206.66708043 391.54395306 206.29800851 386.02939129 206.26394653 380.35440063 C206.26565857 379.31456024 206.26737061 378.27471985 206.26913452 377.20336914 C206.27244402 373.7092401 206.26139917 370.21530292 206.25048828 366.72119141 C206.24987562 364.17733453 206.25014258 361.63347731 206.2512188 359.08962059 C206.25162473 352.96493192 206.24305585 346.84031411 206.23021614 340.71564075 C206.2158064 333.62968013 206.2142261 326.54374001 206.21264648 319.45776367 C206.20214923 300.75308315 206.17422697 282.04841569 206.1484375 263.34375 C206.0865625 200.664375 206.0865625 200.664375 206.0234375 136.71875 C52.2434375 136.71875 -101.5365625 136.71875 -259.9765625 136.71875 Z " fill="#F28319" transform="translate(282.9765625,52.28125)"/>
<path d="M0 0 C0.70281758 -0.00467997 1.40563517 -0.00935994 2.12975025 -0.01418173 C4.4905807 -0.02617138 6.85083491 -0.01665939 9.21166992 -0.00723267 C10.90180806 -0.01129662 12.59194355 -0.0166375 14.28207397 -0.02316284 C18.87705854 -0.03686328 23.4718415 -0.03152658 28.06682968 -0.02202559 C32.87007958 -0.01444309 37.67331194 -0.02147067 42.4765625 -0.02618408 C50.54357002 -0.03164575 58.61049521 -0.02443924 66.67749023 -0.01016235 C76.01098001 0.00616495 85.34427321 0.00087673 94.67775822 -0.01564157 C102.68376126 -0.02924472 110.68970504 -0.03118184 118.6957159 -0.02332556 C123.48065858 -0.01864259 128.26550878 -0.01804128 133.05044556 -0.02793503 C137.54844006 -0.03658541 142.04618051 -0.03061823 146.54414749 -0.01325226 C148.19736941 -0.00927707 149.85061262 -0.01043903 151.50382614 -0.01704025 C153.75593427 -0.02520541 156.00722188 -0.01499615 158.25927734 0 C160.15186531 0.00169662 160.15186531 0.00169662 162.08268738 0.00342751 C165.12963867 0.38095093 165.12963867 0.38095093 166.99653625 1.77976036 C169.52950198 5.35910215 169.27232774 8.57210753 169.26335144 12.80767822 C169.265617 13.58243976 169.26788255 14.35720129 169.27021676 15.15544045 C169.27657428 17.76561902 169.27572628 20.37574591 169.27490234 22.9859314 C169.27789276 24.8516344 169.28129501 26.71733677 169.28507996 28.58303833 C169.29393645 33.66154221 169.29625877 38.74002925 169.29689574 43.8185401 C169.29784359 48.05326457 169.30152047 52.2879851 169.30506784 56.52270806 C169.31321877 66.51142776 169.3156515 76.50013844 169.31494141 86.48886108 C169.31434053 96.80326512 169.3248929 107.11761687 169.34068507 117.43200767 C169.35374775 126.27789967 169.35912583 135.12377456 169.358486 143.96967614 C169.35823062 149.25711472 169.36110345 154.54450687 169.37166405 159.83193588 C169.38132358 164.80426411 169.38143898 169.77650132 169.37414742 174.7488327 C169.37309888 176.57579557 169.37548033 178.40276403 169.38150787 180.22971725 C169.38919291 182.72000502 169.38460625 185.20997571 169.37687683 187.70025635 C169.38202039 188.42652092 169.38716396 189.15278549 169.39246339 189.90105808 C169.34659567 196.56933632 169.34659567 196.56933632 167.12963867 199.38095093 C163.22254987 201.57629387 159.68033407 201.63416666 155.26000977 201.64164734 C154.24208879 201.64738566 154.24208879 201.64738566 153.20360374 201.65323991 C150.93668172 201.66353339 148.67001471 201.65958481 146.40307617 201.65560913 C144.77500169 201.65995758 143.14692926 201.66514117 141.51885986 201.6710968 C137.10158265 201.68448239 132.68439102 201.68506606 128.26709747 201.6825335 C124.57908375 201.6814637 120.89108733 201.6863473 117.20307732 201.69113892 C108.50345438 201.70223215 99.80387463 201.70267226 91.10424805 201.69662476 C82.12862579 201.69058139 73.15316015 201.70290559 64.17756462 201.72419482 C56.47043292 201.74180338 48.76335111 201.74781344 41.05620003 201.74455708 C36.45341864 201.74274321 31.85074902 201.74539093 27.24798584 201.75927162 C22.92069104 201.77183356 18.59364077 201.76992143 14.26634979 201.75686073 C12.67846342 201.75449199 11.09055992 201.75724029 9.50269318 201.76548386 C7.33460004 201.77592807 5.16733101 201.76787032 2.99926758 201.75517273 C1.17971054 201.75542434 1.17971054 201.75542434 -0.67660522 201.75568104 C-4.47239971 201.3103125 -7.14859287 200.10271938 -9.87036133 197.38095093 C-9.97473842 194.88370648 -10.01368961 192.41387714 -10.01080322 189.91589355 C-10.01377434 189.12494667 -10.01674547 188.33399978 -10.01980662 187.51908481 C-10.02853193 184.84819246 -10.03000508 182.17734472 -10.03149414 179.50643921 C-10.0361196 177.59985253 -10.04114388 175.69326678 -10.04653931 173.78668213 C-10.05969132 168.59249105 -10.06611367 163.3983129 -10.07054996 158.20410776 C-10.0734761 154.96259669 -10.07758001 151.7210892 -10.08205414 148.47957993 C-10.09573625 138.34814219 -10.10539949 128.21671257 -10.10925603 118.08526623 C-10.11373913 106.37047036 -10.13129576 94.65579104 -10.16025662 82.94103062 C-10.18183791 73.89899775 -10.1919584 64.85699775 -10.19329715 55.81493938 C-10.1943477 50.40844239 -10.20030852 45.00205485 -10.21811676 39.59558487 C-10.23453621 34.51161831 -10.23678291 29.42784417 -10.22797775 24.34386063 C-10.22720409 22.4745482 -10.23159317 20.6052257 -10.241436 18.73593903 C-10.25405697 16.19038535 -10.24833296 13.6455234 -10.237854 11.09997559 C-10.24591041 10.35455226 -10.25396681 9.60912894 -10.26226735 8.84111702 C-10.23531766 6.05556029 -10.15086232 3.8833396 -8.77679062 1.42232132 C-5.84528129 -0.17899011 -3.32529227 0.00298097 0 0 Z M5.12963867 14.38095093 C5.12963867 71.14095093 5.12963867 127.90095093 5.12963867 186.38095093 C7.43963867 186.38095093 9.74963867 186.38095093 12.12963867 186.38095093 C12.13898438 185.76800171 12.14833008 185.15505249 12.15795898 184.52352905 C12.82614917 149.48940055 12.82614917 149.48940055 23.12963867 138.38095093 C34.23503063 127.73105356 47.87226163 123.82012251 62.94213867 123.98251343 C67.52771966 124.55571105 69.08667125 126.00901405 72.12963867 129.38095093 C75.85331159 130.62217523 78.20296833 130.83155244 82.12963867 130.38095093 C83.92666603 129.0376236 83.92666603 129.0376236 85.69213867 127.38095093 C90.39017782 123.53710071 94.65089915 123.7092688 100.54760742 123.99813843 C112.95590964 125.32421653 124.94765541 129.47609114 133.69213867 138.75595093 C142.2815788 149.44302274 143.36725166 161.72180475 143.75463867 175.00595093 C143.79331055 176.10552124 143.83198242 177.20509155 143.87182617 178.33798218 C143.96506949 181.01872761 144.04839213 183.69981509 144.12963867 186.38095093 C147.42963867 186.38095093 150.72963867 186.38095093 154.12963867 186.38095093 C154.12963867 129.62095093 154.12963867 72.86095093 154.12963867 14.38095093 C104.95963867 14.38095093 55.78963867 14.38095093 5.12963867 14.38095093 Z M31.45385742 151.24813843 C25.01489457 161.61885736 27.12963867 174.90414499 27.12963867 186.38095093 C60.78963867 186.38095093 94.44963867 186.38095093 129.12963867 186.38095093 C130.40137336 165.61619826 130.40137336 165.61619826 122.12963867 147.38095093 C114.67215339 141.90225687 105.61121316 137.1286675 96.12963867 138.38095093 C93.03670298 140.22068328 93.03670298 140.22068328 90.12963867 142.38095093 C83.88063039 145.35666915 76.04290421 145.5938344 69.45776367 143.55282593 C66.10390504 142.08414274 63.17933689 140.41408308 60.12963867 138.38095093 C49.43743396 137.04442534 38.03247089 142.99465487 31.45385742 151.24813843 Z " fill="#EE5E1D" transform="translate(66.870361328125,213.61904907226563)"/>
<path d="M0 0 C7.85022113 7.60960132 11.11013975 16.68730489 11.4140625 27.4765625 C11.10649603 37.97073049 8.09049655 46.09165688 1.0390625 53.9765625 C-8.39926178 62.27604765 -17.65322565 64.7855982 -30.0234375 64.3125 C-40.70955718 63.40078741 -47.8630183 58.91976805 -54.9609375 50.9765625 C-61.72323711 41.91816116 -63.96229934 33.19494435 -62.9609375 21.9765625 C-60.81292528 10.61559163 -54.9612809 2.34970741 -45.5234375 -4.2109375 C-30.84114742 -13.67555425 -13.06638711 -10.85018011 0 0 Z M-41.609375 11.3359375 C-45.30318023 15.81974731 -48.20567072 21.21882362 -48.4609375 27.1015625 C-47.60362159 33.74576084 -45.70598699 39.09594017 -40.9609375 43.9765625 C-34.02090197 49.07536411 -28.41826008 49.73858014 -19.9609375 48.9765625 C-14.05954786 47.28907363 -10.43287393 44.03566987 -6.9609375 38.9765625 C-4.03878543 33.63607768 -2.93010785 28.95731943 -3.9609375 22.9765625 C-6.52517727 15.62355016 -10.05040082 10.72127304 -16.8828125 6.90234375 C-25.23741481 3.18046265 -34.92890396 5.14064033 -41.609375 11.3359375 Z " fill="#EF661C" transform="translate(170.9609375,264.0234375)"/>
<path d="M0 0 C0.71027912 -0.00538554 1.42055824 -0.01077108 2.15236098 -0.01631981 C4.53848089 -0.03065662 6.92405051 -0.02348185 9.31019592 -0.01637268 C11.01841683 -0.02207329 12.72663392 -0.02903634 14.43484497 -0.03717041 C19.07947055 -0.05515149 23.72390772 -0.05392414 28.36855769 -0.04822803 C32.24297185 -0.04514323 36.11734944 -0.05122073 39.99175841 -0.05726677 C49.13048711 -0.07132672 58.26912236 -0.06973858 67.40785217 -0.05836487 C76.84247279 -0.04688252 86.27680919 -0.06095792 95.71139234 -0.08776134 C103.80573626 -0.10989799 111.89999084 -0.11656031 119.99436289 -0.11068493 C124.83135281 -0.10730922 129.66816052 -0.10977101 134.50512505 -0.12693596 C139.0532424 -0.14237061 143.60093784 -0.13848847 148.14903831 -0.11963081 C149.81958178 -0.11593521 151.49015627 -0.11908159 153.16067123 -0.1295166 C155.4389034 -0.14266271 157.71572566 -0.13123768 159.99389648 -0.11352539 C161.26944869 -0.11331611 162.5450009 -0.11310682 163.8592062 -0.1128912 C167.06044006 0.38768005 167.06044006 0.38768005 169.46694279 2.20025539 C171.06044006 4.38768005 171.06044006 4.38768005 171.62294006 7.88768005 C171.06044006 11.38768005 171.06044006 11.38768005 168.96887207 13.57426357 C165.36574239 15.82082623 163.19327474 15.89289961 158.96302795 15.90234375 C158.25991265 15.90928928 157.55679735 15.91623481 156.83237553 15.92339081 C154.48229074 15.94165053 152.13321663 15.93140017 149.78309631 15.92112732 C148.09590398 15.92818631 146.40871799 15.93693124 144.72154236 15.94723511 C140.1430326 15.9697399 135.56486833 15.96678707 130.98632431 15.95791364 C127.16408598 15.95280465 123.34191262 15.96009549 119.51968098 15.96738571 C110.5035872 15.9843878 101.48766266 15.9808153 92.47157288 15.96409607 C83.16864889 15.94716811 73.86619389 15.9630178 64.56332111 15.99531895 C56.57591179 16.02200236 48.58864857 16.02929442 40.60119915 16.02080387 C35.83068113 16.01587176 31.06044542 16.01810577 26.28996277 16.03859138 C21.80492444 16.05692935 17.32056173 16.05101322 12.83555984 16.02639198 C11.18962568 16.02137834 9.54364021 16.02488825 7.89774704 16.03754044 C5.65033665 16.05344999 3.40515699 16.0385443 1.15785217 16.01586914 C-0.09943192 16.01528283 -1.356716 16.01469652 -2.65209961 16.01409245 C-6.85249227 15.21372446 -8.36858164 13.74741175 -10.93955994 10.38768005 C-10.93955994 6.93934072 -10.75146954 4.60089879 -8.81078243 1.70097256 C-5.93784428 -0.31536069 -3.47826894 0.00662798 0 0 Z " fill="#F49817" transform="translate(299.93955993652344,278.61231994628906)"/>
<path d="M0 0 C1.84021477 -0.01485695 1.84021477 -0.01485695 3.71760559 -0.03001404 C5.07936196 -0.02577578 6.44111736 -0.0212179 7.8028717 -0.01637268 C9.23523492 -0.02207416 10.66759359 -0.02903755 12.09994507 -0.03717041 C15.99253913 -0.05514223 19.88490827 -0.0539259 23.77753139 -0.04822803 C27.02564549 -0.04514182 30.27371603 -0.05122231 33.52182394 -0.05726677 C41.18390262 -0.07132373 48.84586983 -0.06974115 56.50794983 -0.05836487 C64.41570708 -0.04688335 72.32312521 -0.06095704 80.23083776 -0.08776134 C87.01734081 -0.10990489 93.8037373 -0.11655875 100.59027392 -0.11068493 C104.64479824 -0.10731078 108.69910517 -0.10976049 112.75359917 -0.12693596 C116.56632947 -0.14238169 120.37855676 -0.13847652 124.19126701 -0.11963081 C125.5909007 -0.11593821 126.99057146 -0.119073 128.39017105 -0.1295166 C130.30003379 -0.14268007 132.21002602 -0.12879966 134.11987305 -0.11352539 C135.72347891 -0.11321146 135.72347891 -0.11321146 137.35948086 -0.1128912 C140.83232844 0.51606708 142.0108239 1.60373627 144.12342834 4.38768005 C144.68592834 7.88768005 144.68592834 7.88768005 144.12342834 11.38768005 C141.56711104 13.97785103 139.88181067 15.25300014 136.27325439 15.89383793 C135.22245193 15.89664485 134.17164948 15.89945177 133.08900452 15.90234375 C131.27207596 15.92143044 131.27207596 15.92143044 129.41844177 15.94090271 C128.08442492 15.93472092 126.75040997 15.92811494 125.41639709 15.92112732 C124.00506184 15.92818813 122.59373415 15.93693384 121.18241882 15.94723511 C117.35593064 15.96971969 113.52985624 15.96679196 109.70332718 15.95791364 C106.50738694 15.95280081 103.31152425 15.96009858 100.115592 15.96738571 C92.57614286 15.98438133 85.03689613 15.98082187 77.49745178 15.96409607 C69.72137782 15.94716835 61.94586495 15.96301858 54.16985226 15.99531895 C47.49028083 16.02201288 40.81088409 16.02929163 34.13126469 16.02080387 C30.14320482 16.01587481 26.15548268 16.01808894 22.16746521 16.03859138 C18.41779574 16.05694621 14.66893377 16.0509935 10.91930771 16.02639198 C9.54428383 16.0213836 8.16919845 16.0248748 6.79422379 16.03754044 C-4.88843952 16.13663309 -4.88843952 16.13663309 -8.23326111 13.07479858 C-9.87657166 10.38768005 -9.87657166 10.38768005 -9.87657166 6.76268005 C-8.12513672 0.85158716 -6.02561958 0.01370049 0 0 Z " fill="#F38B18" transform="translate(298.87657165527344,329.61231994628906)"/>
<path d="M0 0 C1.05852676 -0.00990463 2.11705353 -0.01980927 3.20765686 -0.03001404 C4.36877991 -0.02551239 5.52990295 -0.02101074 6.72621155 -0.01637268 C7.94917435 -0.02323593 9.17213715 -0.03009918 10.43215942 -0.03717041 C13.78770233 -0.05235279 17.14269054 -0.05392777 20.49822688 -0.04822803 C23.29898453 -0.04514042 26.09969171 -0.05122387 28.90044218 -0.05726677 C35.50777247 -0.07132078 42.11497349 -0.06974369 48.7223053 -0.05836487 C55.53945155 -0.04688416 62.35620438 -0.06095615 69.17329878 -0.08776134 C75.02563084 -0.10991171 80.87783935 -0.11655722 86.73021036 -0.11068493 C90.22583437 -0.10731232 93.7212062 -0.10975008 97.21679497 -0.12693596 C101.11462221 -0.14526245 105.01196497 -0.13122474 108.9098053 -0.11402893 C110.64845352 -0.12853088 110.64845352 -0.12853088 112.42222595 -0.14332581 C113.48357254 -0.13349167 114.54491913 -0.12365753 115.63842773 -0.11352539 C117.02080328 -0.11321146 117.02080328 -0.11321146 118.43110561 -0.1128912 C121.67533352 0.54951995 122.86772795 1.80618731 124.88270569 4.38768005 C125.44520569 7.88768005 125.44520569 7.88768005 124.88270569 11.38768005 C122.69823053 14.04992551 120.88320763 15.23525084 117.45695496 15.75724983 C114.30211309 15.91789735 111.17055923 15.9393117 108.01161194 15.92112732 C106.20839981 15.93405067 106.20839981 15.93405067 104.36875916 15.94723511 C101.07936434 15.96602746 97.79060535 15.96679695 94.50118637 15.95791364 C91.75260064 15.95279698 89.00410491 15.96010165 86.25552845 15.96738571 C79.77082231 15.98437491 73.28635154 15.98082841 66.801651 15.96409607 C60.11617468 15.94716856 53.431351 15.96301933 46.74594593 15.99531895 C41.00054252 16.02202334 35.25534216 16.02928886 29.50988293 16.02080387 C26.08071592 16.01587783 22.6519417 16.01807216 19.2228241 16.03859138 C15.39932939 16.05597771 11.57723726 16.04154117 7.75379944 16.01878357 C6.05330948 16.03632187 6.05330948 16.03632187 4.31846619 16.05421448 C-3.31279403 15.96163017 -3.31279403 15.96163017 -7.35923767 13.07479858 C-9.11729431 10.38768005 -9.11729431 10.38768005 -9.11729431 6.76268005 C-7.4954418 1.28892783 -5.64605884 0.01489278 0 0 Z " fill="#F27F1A" transform="translate(298.11729431152344,380.61231994628906)"/>
<path d="M0 0 C0.83975876 -0.00990463 1.67951752 -0.01980927 2.54472351 -0.03001404 C3.46272736 -0.02551239 4.3807312 -0.02101074 5.32655334 -0.01637268 C6.29592331 -0.02323593 7.26529327 -0.03009918 8.26403809 -0.03717041 C11.47521016 -0.05550365 14.6858967 -0.05159151 17.89710999 -0.0459137 C20.12526611 -0.05047243 22.35342083 -0.05577708 24.58157349 -0.0617981 C29.25476284 -0.07074209 33.92778143 -0.06829145 38.60096741 -0.05836487 C44.59471191 -0.046875 50.5878673 -0.06708084 56.58153439 -0.09628201 C61.18401851 -0.11461346 65.78636069 -0.1143576 70.38887215 -0.10864449 C72.59890634 -0.10849089 74.80894993 -0.11456667 77.01894951 -0.12693596 C80.10753888 -0.14178578 83.19502999 -0.13121257 86.28358459 -0.11402893 C87.65755402 -0.12853088 87.65755402 -0.12853088 89.0592804 -0.14332581 C95.22036152 -0.07141689 95.22036152 -0.07141689 98.43374634 2.20028687 C100.56877034 5.45242631 100.47979914 7.59191977 99.86976624 11.38768005 C97.0317013 14.58083753 94.73813516 15.63757065 90.5816803 15.90234375 C88.849779 15.92908068 87.1174524 15.93381986 85.38539124 15.92112732 C84.43684265 15.92974289 83.48829407 15.93835846 82.51100159 15.94723511 C79.38031105 15.96990981 76.25051446 15.96315369 73.11976624 15.9540863 C70.94170363 15.95932095 68.7636433 15.96559684 66.58558655 15.97286987 C62.02265244 15.98327669 57.46003015 15.97870799 52.89710999 15.96409607 C47.04911025 15.94690205 41.20209244 15.97041037 35.35420227 16.00558567 C30.85716742 16.02754222 26.3603682 16.02612245 21.86329651 16.01782036 C19.70711693 16.017 17.55092019 16.0238794 15.39479065 16.03859138 C12.38062593 16.05600597 9.36823449 16.04152015 6.35414124 16.01878357 C5.01833008 16.03632187 5.01833008 16.03632187 3.65553284 16.05421448 C-0.7444856 15.98666373 -2.59558443 15.78750906 -6.2230072 13.07479858 C-8.13023376 10.38768005 -8.13023376 10.38768005 -8.13023376 6.76268005 C-6.70062796 1.93776047 -5.11005802 0.01702173 0 0 Z " fill="#F49B17" transform="translate(297.13023376464844,227.61231994628906)"/>
</svg>
