<?xml version="1.0" encoding="UTF-8"?>
<svg version="1.1" xmlns="http://www.w3.org/2000/svg" width="512" height="512">
<path d="M0 0 C0.70298721 -0.00029205 1.40597443 -0.00058411 2.13026428 -0.00088501 C4.44073067 0.00050201 6.75086964 0.01603329 9.0612793 0.03173828 C10.66838912 0.03547065 12.27550122 0.03831657 13.88261414 0.04031372 C18.10273575 0.04793257 22.32271865 0.06756595 26.54278564 0.08972168 C30.85296757 0.11021785 35.16317201 0.11932349 39.47338867 0.12939453 C47.92332906 0.15081359 56.37313029 0.1859814 64.82299805 0.22705078 C64.82299805 5.17705078 64.82299805 10.12705078 64.82299805 15.22705078 C62.88013916 15.24687012 60.93728027 15.26668945 58.93554688 15.28710938 C52.50932582 15.354938 46.08326024 15.43171779 39.65721607 15.51457787 C35.7619106 15.56447891 31.86663143 15.61080933 27.97119141 15.64892578 C24.21039418 15.68585705 20.44982036 15.73223796 16.68921471 15.78511429 C15.25597753 15.80361666 13.82269253 15.81873992 12.38938332 15.83039474 C10.37863353 15.84732772 8.36800848 15.8774955 6.35742188 15.90820312 C4.64199944 15.92818863 4.64199944 15.92818863 2.891922 15.94857788 C-0.28636602 16.23697443 -2.41784226 16.61809336 -5.17700195 18.22705078 C-7.9787879 22.60696025 -7.45839088 27.77972717 -7.43579102 32.80322266 C-7.43929565 33.76152481 -7.44280029 34.71982697 -7.44641113 35.70716858 C-7.45520278 38.87011999 -7.44938828 42.03284715 -7.44262695 45.19580078 C-7.44397434 47.39628136 -7.44591549 49.59676165 -7.44842529 51.79724121 C-7.45137308 56.40717404 -7.44708995 61.01702932 -7.43774414 65.62695312 C-7.42634987 71.53518598 -7.43291118 77.44323713 -7.44488907 83.35146332 C-7.45211694 87.89476897 -7.44981546 92.43803155 -7.44463348 96.9813385 C-7.44329956 99.15983603 -7.44493571 101.33833748 -7.44959259 103.51683044 C-7.45467296 106.56161859 -7.44692613 109.60611266 -7.43579102 112.65087891 C-7.43983948 113.55077042 -7.44388794 114.45066193 -7.44805908 115.37782288 C-7.48246172 121.58392199 -7.48246172 121.58392199 -5.17700195 127.22705078 C-0.79709249 130.02883673 4.37567444 129.50843971 9.39916992 129.48583984 C10.83662315 129.4910968 10.83662315 129.4910968 12.30311584 129.49645996 C15.46606726 129.5052516 18.62879441 129.49943711 21.79174805 129.49267578 C23.99222863 129.49402317 26.19270892 129.49596431 28.39318848 129.49847412 C33.0031213 129.50142191 37.61297658 129.49713878 42.22290039 129.48779297 C48.13113325 129.4763987 54.03918439 129.48296001 59.94741058 129.4949379 C64.49071623 129.50216577 69.03397882 129.49986428 73.57728577 129.49468231 C75.7557833 129.49334839 77.93428475 129.49498454 80.11277771 129.49964142 C83.15756585 129.50472179 86.20205992 129.49697496 89.24682617 129.48583984 C90.14671768 129.48988831 91.04660919 129.49393677 91.97377014 129.49810791 C98.17986925 129.53251055 98.17986925 129.53251055 103.82299805 127.22705078 C106.624784 122.84714131 106.10438698 117.67437439 106.08178711 112.65087891 C106.08529175 111.69257675 106.08879639 110.7342746 106.09240723 109.74693298 C106.10119887 106.58398157 106.09538437 103.42125441 106.08862305 100.25830078 C106.08997043 98.0578202 106.09191158 95.85733991 106.09442139 93.65686035 C106.09736917 89.04692753 106.09308604 84.43707225 106.08374023 79.82714844 C106.07234597 73.91891558 106.07890727 68.01086444 106.09088516 62.10263824 C106.09811303 57.5593326 106.09581155 53.01607001 106.09062958 48.47276306 C106.08929565 46.29426553 106.0909318 44.11576408 106.09558868 41.93727112 C106.10066906 38.89248298 106.09292223 35.84798891 106.08178711 32.80322266 C106.0878598 31.45338539 106.0878598 31.45338539 106.09405518 30.07627869 C106.06460376 25.72801453 106.00156794 22.123674 103.82299805 18.22705078 C99.3511295 15.35164812 93.66723097 15.77697882 88.51049805 15.60205078 C87.57915039 15.56337891 86.64780273 15.52470703 85.68823242 15.48486328 C83.40013266 15.39099252 81.11159316 15.30794996 78.82299805 15.22705078 C78.82299805 10.27705078 78.82299805 5.32705078 78.82299805 0.22705078 C83.15700822 0.11870053 87.48828478 0.03954922 91.82299805 -0.02294922 C93.04374023 -0.05646484 94.26448242 -0.08998047 95.5222168 -0.12451172 C103.83489199 -0.21437848 109.37625029 0.38979934 115.84643555 5.97314453 C116.51545898 6.81039063 116.51545898 6.81039063 117.19799805 7.66455078 C117.89022461 8.49792969 117.89022461 8.49792969 118.59643555 9.34814453 C121.06053074 13.12276169 122.07204849 16.57820156 122.09042358 21.06440735 C122.10321854 22.48357452 122.10321854 22.48357452 122.11627197 23.93141174 C122.11491241 25.47054482 122.11491241 25.47054482 122.11352539 27.04077148 C122.12024261 28.13080475 122.12695984 29.22083801 122.13388062 30.34390259 C122.1528763 33.94692546 122.1567857 37.5497622 122.15893555 41.15283203 C122.16536258 43.66000953 122.17209087 46.16718627 122.17910767 48.67436218 C122.19108451 53.93078822 122.19487379 59.18716711 122.19360352 64.44360352 C122.19240302 70.50522289 122.21348994 76.56648567 122.24509084 82.62801486 C122.27447436 88.47408742 122.28157744 94.32001974 122.28038406 100.16615868 C122.2827414 102.64641971 122.29157234 105.12668349 122.3070488 107.60689735 C122.32669042 111.0799461 122.32087685 114.55208238 122.30883789 118.02514648 C122.3200769 119.04516251 122.33131592 120.06517853 122.34289551 121.11610413 C122.2795053 128.3291949 120.84530201 133.72469406 116.0769043 139.25048828 C115.51874023 139.69650391 114.96057617 140.14251953 114.38549805 140.60205078 C113.82991211 141.06353516 113.27432617 141.52501953 112.7019043 142.00048828 C108.82904721 144.52871515 105.35722027 145.47787364 100.75732422 145.45410156 C99.77668503 145.4539505 98.79604584 145.45379944 97.78569031 145.4536438 C96.73968155 145.44332123 95.69367279 145.43299866 94.6159668 145.42236328 C92.9951696 145.41811844 92.9951696 145.41811844 91.34162903 145.41378784 C87.89780504 145.4026121 84.45424315 145.37751196 81.01049805 145.35205078 C78.67261118 145.34201763 76.33472024 145.33289236 73.99682617 145.32470703 C68.27212769 145.30268129 62.5475816 145.26922946 56.82299805 145.22705078 C56.90768893 153.67710236 57.00268139 162.12695076 57.11052513 170.5767355 C57.16029376 174.5010728 57.20662407 178.42538569 57.24487305 182.34985352 C57.28197319 186.14308332 57.32839709 189.93609864 57.38106155 193.72914314 C57.39947508 195.17023995 57.41463018 196.61138251 57.42634201 198.05254936 C57.52529629 214.51764787 57.52529629 214.51764787 65.82299805 228.22705078 C70.87685972 231.95728202 75.15955794 232.35279369 81.33862305 232.32470703 C82.58901367 232.32148438 83.8394043 232.31826172 85.12768555 232.31494141 C86.42963867 232.3065625 87.7315918 232.29818359 89.07299805 232.28955078 C90.39041992 232.28503906 91.7078418 232.28052734 93.06518555 232.27587891 C96.31783546 232.26409394 99.57039389 232.24764089 102.82299805 232.22705078 C102.14237305 231.69080078 101.46174805 231.15455078 100.76049805 230.60205078 C98.82299805 228.22705078 98.82299805 228.22705078 98.86621094 225.51293945 C100.05110077 221.44367886 101.51860606 217.5695335 103.1315918 213.65283203 C103.45837418 212.84718307 103.78515656 212.04153412 104.12184143 211.21147156 C104.81072176 209.51682246 105.5025874 207.82338417 106.19726562 206.13110352 C107.26016852 203.54035397 108.31280074 200.94560939 109.36401367 198.35009766 C110.03593909 196.7007643 110.70844518 195.05166736 111.3815918 193.40283203 C111.69623886 192.62780838 112.01088593 191.85278473 112.33506775 191.05427551 C113.63643375 187.89358193 114.92084614 185.08027865 116.82299805 182.22705078 C119.29052734 182.12451172 119.29052734 182.12451172 122.3972168 182.46142578 C137.52028392 183.90623666 137.52028392 183.90623666 151.08569336 178.23608398 C157.9077079 171.78009077 159.55500347 165.82860327 159.81835938 156.51538086 C159.73360906 151.058104 159.39956281 145.65385575 158.82299805 140.22705078 C166.30408633 136.41522088 173.92944258 133.11272952 181.67822266 129.88891602 C183.24084041 129.23609413 184.80105856 128.57750029 186.35888672 127.91333008 C188.6269502 126.94653266 190.90159303 125.99709919 193.1784668 125.05126953 C193.87127243 124.75242355 194.56407806 124.45357758 195.27787781 124.14567566 C199.16214689 122.55842097 201.82778211 121.68774744 205.82299805 123.22705078 C207.44458008 124.47045898 207.44458008 124.47045898 208.83081055 126.02783203 C209.34256836 126.59308594 209.85432617 127.15833984 210.3815918 127.74072266 C210.89850586 128.33433594 211.41541992 128.92794922 211.94799805 129.53955078 C212.47264648 130.1215625 212.99729492 130.70357422 213.5378418 131.30322266 C217.5406108 135.77720371 217.5406108 135.77720371 219.17211914 138.3762207 C221.3793752 140.85081523 222.70854685 140.84243774 225.97924805 141.03955078 C237.96383715 142.0350123 237.96383715 142.0350123 248.6784668 137.75048828 C252.00267562 134.39200927 254.42431974 130.42592572 256.95043945 126.45458984 C258.1550293 124.76611328 258.1550293 124.76611328 260.82299805 122.22705078 C266.64857617 122.44954437 271.51375624 124.51572747 276.78393555 126.78955078 C277.61510895 127.14090088 278.44628235 127.49225098 279.30264282 127.85424805 C281.04723736 128.5934625 282.79016835 129.33661419 284.53149414 130.08349609 C287.20716435 131.23098184 289.88757715 132.36673625 292.5690918 133.50048828 C294.26599131 134.22117193 295.96261601 134.94250307 297.65893555 135.66455078 C298.46301849 136.00623291 299.26710144 136.34791504 300.09555054 136.69995117 C305.70536324 139.10941598 305.70536324 139.10941598 306.82299805 140.22705078 C306.72627815 142.05562568 306.57142314 143.88116525 306.39331055 145.70361328 C305.08230634 160.88635622 305.08230634 160.88635622 310.81835938 174.49194336 C317.26803373 181.31596399 323.22651904 182.95919967 332.53466797 183.22241211 C337.99194483 183.13766179 343.39619308 182.80361555 348.82299805 182.22705078 C352.63482795 189.70813907 355.93731931 197.33349531 359.16113281 205.08227539 C359.8139547 206.64489314 360.47254854 208.20511129 361.13671875 209.76293945 C362.10351617 212.03100294 363.05294964 214.30564577 363.9987793 216.58251953 C364.29762527 217.27532516 364.59647125 217.9681308 364.90437317 218.68193054 C366.48963277 222.56131732 367.38178592 225.2404475 365.82299805 229.22705078 C364.26049805 231.03955078 364.26049805 231.03955078 362.82299805 232.22705078 C367.34370826 232.31456577 371.86419874 232.36761688 376.38549805 232.41455078 C377.66231445 232.4396875 378.93913086 232.46482422 380.25463867 232.49072266 C388.52085889 232.55513476 393.50942 231.93557653 400.51049805 227.53955078 C406.94786882 221.10218001 407.91035995 213.28377742 408.02832031 204.48730469 C408.03821991 203.84269287 408.04811951 203.19808105 408.05831909 202.53393555 C408.08966145 200.42386424 408.11458239 198.31377049 408.1394043 196.20361328 C408.15999745 194.73244677 408.18099451 193.26128586 408.20237732 191.79013062 C408.25735437 187.93345704 408.30687023 184.07673224 408.35522461 180.2199707 C408.4056185 176.27827439 408.46121084 172.33665171 408.51635742 168.39501953 C408.62364057 160.67242578 408.72515074 152.94977046 408.82299805 145.22705078 C408.22688721 145.23593323 407.63077637 145.24481567 407.01660156 145.25396729 C400.78696322 145.34277151 394.55750603 145.40292184 388.32739258 145.44677734 C386.00537812 145.46683655 383.68341382 145.49409069 381.36157227 145.52880859 C378.0152546 145.57757619 374.66960746 145.60007721 371.32299805 145.61767578 C370.29247314 145.63832092 369.26194824 145.65896606 368.20019531 145.68023682 C360.81420831 145.68251288 355.50717837 144.47026743 349.79956055 139.44580078 C349.35354492 138.87861328 348.9075293 138.31142578 348.44799805 137.72705078 C347.98651367 137.15986328 347.5250293 136.59267578 347.04956055 136.00830078 C344.59307456 132.44091985 343.57315365 129.79356232 343.54884338 125.434021 C343.53886826 124.4724559 343.52889313 123.51089081 343.51861572 122.52018738 C343.51795105 121.47180191 343.51728638 120.42341644 343.51660156 119.34326172 C343.50827805 118.23386734 343.49995453 117.12447296 343.49137878 115.98146057 C343.46725238 112.30808009 343.45850282 108.63487714 343.4519043 104.96142578 C343.44293919 102.40797878 343.43381736 99.85453233 343.42454529 97.30108643 C343.40804497 91.94452304 343.4003204 86.5880262 343.39746094 81.23144531 C343.3938297 75.0533314 343.36396299 68.8757155 343.32205635 62.69775367 C343.28308432 56.74224616 343.27186644 50.78688714 343.27073479 44.83124542 C343.2665319 42.30352328 343.25409503 39.77580073 343.23321724 37.24816132 C343.20630562 33.70780867 343.21112944 30.16882132 343.22363281 26.62841797 C343.20138138 25.06798515 343.20138138 25.06798515 343.17868042 23.47602844 C343.25370254 16.0008611 345.06511354 11.09490088 350.30112553 5.7056694 C355.67728201 0.9238855 360.44987721 -0.07179083 367.45898438 0 C368.58661697 -0.00043808 368.58661697 -0.00043808 369.73703003 -0.00088501 C372.20981585 0.00050293 374.68229643 0.01603867 377.1550293 0.03173828 C378.87424047 0.03547032 380.59345378 0.03831639 382.31266785 0.04031372 C386.82870396 0.04793514 391.3446106 0.0675708 395.8605957 0.08972168 C400.4723943 0.11021225 405.08421389 0.1193223 409.69604492 0.12939453 C418.73842855 0.15081815 427.78068225 0.18598811 436.82299805 0.22705078 C436.82299805 5.17705078 436.82299805 10.12705078 436.82299805 15.22705078 C433.68151245 15.25677979 433.68151245 15.25677979 430.4765625 15.28710938 C423.55142046 15.35406201 416.62642779 15.43170087 409.70145893 15.51457787 C405.5034801 15.56449115 401.30552582 15.61082156 397.10742188 15.64892578 C393.05486079 15.68584144 389.00250765 15.73221832 384.95012474 15.78511429 C383.4052413 15.8036249 381.86031334 15.81874515 380.31536293 15.83039474 C378.14882814 15.84731454 375.98276612 15.87636249 373.81640625 15.90820312 C371.96774712 15.92818863 371.96774712 15.92818863 370.08174133 15.94857788 C366.81424314 16.22779892 364.64562922 16.55950012 361.82299805 18.22705078 C359.0212121 22.60696025 359.54160912 27.77972717 359.56420898 32.80322266 C359.56070435 33.76152481 359.55719971 34.71982697 359.55358887 35.70716858 C359.54479722 38.87011999 359.55061172 42.03284715 359.55737305 45.19580078 C359.55602566 47.39628136 359.55408451 49.59676165 359.55157471 51.79724121 C359.54862692 56.40717404 359.55291005 61.01702932 359.56225586 65.62695312 C359.57365013 71.53518598 359.56708882 77.44323713 359.55511093 83.35146332 C359.54788306 87.89476897 359.55018454 92.43803155 359.55536652 96.9813385 C359.55670044 99.15983603 359.55506429 101.33833748 359.55040741 103.51683044 C359.54532704 106.56161859 359.55307387 109.60611266 359.56420898 112.65087891 C359.55813629 114.00071617 359.55813629 114.00071617 359.55194092 115.37782288 C359.51753828 121.58392199 359.51753828 121.58392199 361.82299805 127.22705078 C366.20290751 130.02883673 371.37567444 129.50843971 376.39916992 129.48583984 C377.35747208 129.48934448 378.31577423 129.49284912 379.30311584 129.49645996 C382.46606726 129.5052516 385.62879441 129.49943711 388.79174805 129.49267578 C390.99222863 129.49402317 393.19270892 129.49596431 395.39318848 129.49847412 C400.0031213 129.50142191 404.61297658 129.49713878 409.22290039 129.48779297 C415.13113325 129.4763987 421.03918439 129.48296001 426.94741058 129.4949379 C431.49071623 129.50216577 436.03397882 129.49986428 440.57728577 129.49468231 C442.7557833 129.49334839 444.93428475 129.49498454 447.11277771 129.49964142 C450.15756585 129.50472179 453.20205992 129.49697496 456.24682617 129.48583984 C457.14671768 129.48988831 458.04660919 129.49393677 458.97377014 129.49810791 C465.17986925 129.53251055 465.17986925 129.53251055 470.82299805 127.22705078 C473.624784 122.84714131 473.10438698 117.67437439 473.08178711 112.65087891 C473.08529175 111.69257675 473.08879639 110.7342746 473.09240723 109.74693298 C473.10119887 106.58398157 473.09538437 103.42125441 473.08862305 100.25830078 C473.08997043 98.0578202 473.09191158 95.85733991 473.09442139 93.65686035 C473.09736917 89.04692753 473.09308604 84.43707225 473.08374023 79.82714844 C473.07234597 73.91891558 473.07890727 68.01086444 473.09088516 62.10263824 C473.09811303 57.5593326 473.09581155 53.01607001 473.09062958 48.47276306 C473.08929565 46.29426553 473.0909318 44.11576408 473.09558868 41.93727112 C473.10066906 38.89248298 473.09292223 35.84798891 473.08178711 32.80322266 C473.0878598 31.45338539 473.0878598 31.45338539 473.09405518 30.07627869 C473.06465163 25.7350808 473.01647896 22.10926919 470.82299805 18.22705078 C466.93384264 15.94260995 462.948107 15.85088867 458.51049805 15.60205078 C456.30362305 15.47830078 454.09674805 15.35455078 451.82299805 15.22705078 C451.82299805 10.27705078 451.82299805 5.32705078 451.82299805 0.22705078 C455.15722243 0.11832607 458.48784464 0.0393901 461.82299805 -0.02294922 C462.75756836 -0.05646484 463.69213867 -0.08998047 464.6550293 -0.12451172 C472.00093367 -0.22725164 477.2305888 1.1270374 482.84643555 5.97314453 C483.29245117 6.53130859 483.7384668 7.08947266 484.19799805 7.66455078 C484.89022461 8.49792969 484.89022461 8.49792969 485.59643555 9.34814453 C488.06053074 13.12276169 489.07204849 16.57820156 489.09042358 21.06440735 C489.09895355 22.0105188 489.10748352 22.95663025 489.11627197 23.93141174 C489.1153656 24.95750046 489.11445923 25.98358917 489.11352539 27.04077148 C489.12360123 28.67582138 489.12360123 28.67582138 489.13388062 30.34390259 C489.1528763 33.94692546 489.1567857 37.5497622 489.15893555 41.15283203 C489.16536258 43.66000953 489.17209087 46.16718627 489.17910767 48.67436218 C489.19108451 53.93078822 489.19487379 59.18716711 489.19360352 64.44360352 C489.19240302 70.50522289 489.21348994 76.56648567 489.24509084 82.62801486 C489.27447436 88.47408742 489.28157744 94.32001974 489.28038406 100.16615868 C489.2827414 102.64641971 489.29157234 105.12668349 489.3070488 107.60689735 C489.32669042 111.0799461 489.32087685 114.55208238 489.30883789 118.02514648 C489.3200769 119.04516251 489.33131592 120.06517853 489.34289551 121.11610413 C489.2795053 128.3291949 487.84530201 133.72469406 483.0769043 139.25048828 C482.51874023 139.69650391 481.96057617 140.14251953 481.38549805 140.60205078 C480.82991211 141.06353516 480.27432617 141.52501953 479.7019043 142.00048828 C475.82904721 144.52871515 472.35722027 145.47787364 467.75732422 145.45410156 C466.77668503 145.4539505 465.79604584 145.45379944 464.78569031 145.4536438 C463.73968155 145.44332123 462.69367279 145.43299866 461.6159668 145.42236328 C460.53543533 145.41953339 459.45490387 145.41670349 458.34162903 145.41378784 C454.89780504 145.4026121 451.45424315 145.37751196 448.01049805 145.35205078 C445.67261118 145.34201763 443.33472024 145.33289236 440.99682617 145.32470703 C435.27212769 145.30268129 429.5475816 145.26922946 423.82299805 145.22705078 C423.8341011 146.14000916 423.84520416 147.05296753 423.85664368 147.99359131 C423.95727834 156.6428636 424.03318135 165.29193622 424.08205891 173.94166183 C424.10803324 178.38747097 424.14320531 182.832792 424.20019531 187.27832031 C424.25495391 191.57721936 424.28450979 195.87565216 424.29738426 200.17487335 C424.30654623 201.80618875 424.32443532 203.43748175 424.35164833 205.06859589 C424.57219989 218.84982691 422.28248566 229.77767171 412.4284668 240.02783203 C405.43087995 245.93434087 397.28821495 249.36638942 388.12451172 249.34057617 C387.22395554 249.34050064 386.32339935 249.34042511 385.39555359 249.34034729 C384.43703995 249.335186 383.47852631 249.33002472 382.4909668 249.32470703 C381.00334587 249.32258461 381.00334587 249.32258461 379.485672 249.32041931 C376.32724962 249.31483497 373.16889889 249.3022853 370.01049805 249.28955078 C367.86531678 249.28453376 365.7201344 249.27997121 363.57495117 249.27587891 C358.32427265 249.26487065 353.07364748 249.24761675 347.82299805 249.22705078 C347.82299805 253.84705078 347.82299805 258.46705078 347.82299805 263.22705078 C349.08781006 263.20610352 350.35262207 263.18515625 351.65576172 263.16357422 C356.40629486 263.0904676 361.15677964 263.04499716 365.90771484 263.00732422 C367.95304766 262.98736818 369.99832463 262.9601934 372.04345703 262.92529297 C400.45870766 262.45297885 400.45870766 262.45297885 411.89331055 272.31689453 C419.93367024 280.27587407 424.10945032 288.83662547 424.27709961 300.24707031 C424.2912516 303.36878648 424.25500805 306.48846285 424.21362305 309.60986328 C424.20614895 311.27708249 424.20046155 312.94431056 424.19647217 314.61154175 C424.18130764 318.96823007 424.14210701 323.32437238 424.09765625 327.68084717 C424.0565036 332.13888161 424.03841875 336.59700554 424.01831055 341.05517578 C423.97560215 349.77938276 423.90746461 358.50314857 423.82299805 367.22705078 C424.41910889 367.21816833 425.01521973 367.20928589 425.62939453 367.20013428 C431.85903288 367.11133006 438.08849007 367.05117973 444.31860352 367.00732422 C446.64061798 366.98726502 448.96258228 366.96001087 451.28442383 366.92529297 C454.6307415 366.87652537 457.97638863 366.85402435 461.32299805 366.83642578 C462.35352295 366.81578064 463.38404785 366.7951355 464.44580078 366.77386475 C471.84119574 366.77158578 477.09234824 368.00774486 482.84643555 372.97314453 C483.29245117 373.53130859 483.7384668 374.08947266 484.19799805 374.66455078 C484.65948242 375.22013672 485.1209668 375.77572266 485.59643555 376.34814453 C488.06053074 380.12276169 489.07204849 383.57820156 489.09042358 388.06440735 C489.09895355 389.0105188 489.10748352 389.95663025 489.11627197 390.93141174 C489.1153656 391.95750046 489.11445923 392.98358917 489.11352539 394.04077148 C489.12360123 395.67582138 489.12360123 395.67582138 489.13388062 397.34390259 C489.1528763 400.94692546 489.1567857 404.5497622 489.15893555 408.15283203 C489.16536258 410.66000953 489.17209087 413.16718627 489.17910767 415.67436218 C489.19108451 420.93078822 489.19487379 426.18716711 489.19360352 431.44360352 C489.19240302 437.50522289 489.21348994 443.56648567 489.24509084 449.62801486 C489.27447436 455.47408742 489.28157744 461.32001974 489.28038406 467.16615868 C489.2827414 469.64641971 489.29157234 472.12668349 489.3070488 474.60689735 C489.32669042 478.0799461 489.32087685 481.55208238 489.30883789 485.02514648 C489.3200769 486.04516251 489.33131592 487.06517853 489.34289551 488.11610413 C489.2795053 495.3291949 487.84530201 500.72469406 483.0769043 506.25048828 C482.51874023 506.69650391 481.96057617 507.14251953 481.38549805 507.60205078 C480.82991211 508.06353516 480.27432617 508.52501953 479.7019043 509.00048828 C475.81621607 511.53709141 472.35749111 512.47900775 467.7409668 512.42236328 C466.80961914 512.41591797 465.87827148 512.40947266 464.91870117 512.40283203 C463.95899414 512.38607422 462.99928711 512.36931641 462.01049805 512.35205078 C461.03145508 512.34302734 460.05241211 512.33400391 459.04370117 512.32470703 C456.63669456 512.30122404 454.22981441 512.26535555 451.82299805 512.22705078 C451.82299805 507.27705078 451.82299805 502.32705078 451.82299805 497.22705078 C455.30607096 497.03173828 458.78914388 496.83642578 462.2722168 496.64111328 C465.60558147 496.25240409 467.93662689 495.92246879 470.82299805 494.22705078 C473.44113561 489.5932371 473.10502468 484.8161218 473.08178711 479.65087891 C473.08529175 478.69257675 473.08879639 477.7342746 473.09240723 476.74693298 C473.10119887 473.58398157 473.09538437 470.42125441 473.08862305 467.25830078 C473.08997043 465.0578202 473.09191158 462.85733991 473.09442139 460.65686035 C473.09736917 456.04692753 473.09308604 451.43707225 473.08374023 446.82714844 C473.07234597 440.91891558 473.07890727 435.01086444 473.09088516 429.10263824 C473.09811303 424.5593326 473.09581155 420.01607001 473.09062958 415.47276306 C473.08929565 413.29426553 473.0909318 411.11576408 473.09558868 408.93727112 C473.10066906 405.89248298 473.09292223 402.84798891 473.08178711 399.80322266 C473.0878598 398.45338539 473.0878598 398.45338539 473.09405518 397.07627869 C473.12845781 390.87017957 473.12845781 390.87017957 470.82299805 385.22705078 C466.44308858 382.42526483 461.27032166 382.94566185 456.24682617 382.96826172 C455.28852402 382.96475708 454.33022186 382.96125244 453.34288025 382.9576416 C450.17992884 382.94884996 447.01720168 382.95466445 443.85424805 382.96142578 C441.65376747 382.9600784 439.45328718 382.95813725 437.25280762 382.95562744 C432.64287479 382.95267965 428.03301951 382.95696278 423.4230957 382.96630859 C417.51486285 382.97770286 411.6068117 382.97114155 405.69858551 382.95916367 C401.15527986 382.95193579 396.61201727 382.95423728 392.06871033 382.95941925 C389.89021279 382.96075318 387.71171135 382.95911703 385.53321838 382.95446014 C382.48843024 382.94937977 379.44393617 382.9571266 376.39916992 382.96826172 C375.49927841 382.96421326 374.5993869 382.96016479 373.67222595 382.95599365 C367.46612684 382.92159101 367.46612684 382.92159101 361.82299805 385.22705078 C359.0212121 389.60696025 359.54160912 394.77972717 359.56420898 399.80322266 C359.56070435 400.76152481 359.55719971 401.71982697 359.55358887 402.70716858 C359.54479722 405.87011999 359.55061172 409.03284715 359.55737305 412.19580078 C359.55602566 414.39628136 359.55408451 416.59676165 359.55157471 418.79724121 C359.54862692 423.40717404 359.55291005 428.01702932 359.56225586 432.62695312 C359.57365013 438.53518598 359.56708882 444.44323713 359.55511093 450.35146332 C359.54788306 454.89476897 359.55018454 459.43803155 359.55536652 463.9813385 C359.55670044 466.15983603 359.55506429 468.33833748 359.55040741 470.51683044 C359.54532704 473.56161859 359.55307387 476.60611266 359.56420898 479.65087891 C359.55813629 481.00071617 359.55813629 481.00071617 359.55194092 482.37782288 C359.51753828 488.58392199 359.51753828 488.58392199 361.82299805 494.22705078 C365.68939029 496.51123336 369.39825284 496.49813462 373.81640625 496.54589844 C374.49988632 496.55594406 375.18336639 496.56598969 375.88755798 496.57633972 C378.13295701 496.60707983 380.37823731 496.62418092 382.6237793 496.64111328 C384.18606074 496.65983235 385.74833215 496.67940632 387.31059265 496.69979858 C391.41222205 496.75104787 395.51388421 496.79071199 399.61566162 496.82794189 C403.8052984 496.86802683 407.99479979 496.91909866 412.18432617 496.96923828 C420.39713097 497.06591231 428.60999201 497.14932816 436.82299805 497.22705078 C436.82299805 502.17705078 436.82299805 507.12705078 436.82299805 512.22705078 C426.92162517 512.31759513 417.02052946 512.39090675 407.11883545 512.43429947 C402.52055418 512.45513093 397.92257204 512.48336687 393.32446289 512.52880859 C388.88295572 512.57242554 384.44173541 512.59622127 380.00003052 512.60655975 C378.30961596 512.61392278 376.61921625 512.628301 374.92892456 512.64997101 C357.09653701 512.86939396 357.09653701 512.86939396 349.79956055 506.44580078 C349.35354492 505.87861328 348.9075293 505.31142578 348.44799805 504.72705078 C347.98651367 504.15986328 347.5250293 503.59267578 347.04956055 503.00830078 C344.59307456 499.44091985 343.57315365 496.79356232 343.54884338 492.434021 C343.53886826 491.4724559 343.52889313 490.51089081 343.51861572 489.52018738 C343.51795105 488.47180191 343.51728638 487.42341644 343.51660156 486.34326172 C343.50827805 485.23386734 343.49995453 484.12447296 343.49137878 482.98146057 C343.46725238 479.30808009 343.45850282 475.63487714 343.4519043 471.96142578 C343.44293919 469.40797878 343.43381736 466.85453233 343.42454529 464.30108643 C343.40804497 458.94452304 343.4003204 453.5880262 343.39746094 448.23144531 C343.3938297 442.0533314 343.36396299 435.8757155 343.32205635 429.69775367 C343.28308432 423.74224616 343.27186644 417.78688714 343.27073479 411.83124542 C343.2665319 409.30352328 343.25409503 406.77580073 343.23321724 404.24816132 C343.20630562 400.70780867 343.21112944 397.16882132 343.22363281 393.62841797 C343.20879852 392.58812943 343.19396423 391.54784088 343.17868042 390.47602844 C343.25370254 383.0008611 345.06511354 378.09490088 350.30112553 372.7056694 C354.77521773 368.72622011 358.94188049 366.96926723 364.88867188 367 C365.86931107 367.00015106 366.84995026 367.00030212 367.86030579 367.00045776 C368.90631454 367.01078033 369.9523233 367.02110291 371.0300293 367.03173828 C372.11056076 367.03456818 373.19109222 367.03739807 374.30436707 367.04031372 C377.74819105 367.05148946 381.19175294 367.0765896 384.63549805 367.10205078 C386.97338491 367.11208394 389.31127586 367.1212092 391.64916992 367.12939453 C397.3738684 367.15142028 403.09841449 367.18487211 408.82299805 367.22705078 C408.73830716 358.7769992 408.64331471 350.3271508 408.53547096 341.87736607 C408.48570233 337.95302876 408.43937202 334.02871587 408.40112305 330.10424805 C408.36402291 326.31101824 408.31759901 322.51800292 408.26493454 318.72495842 C408.24652102 317.28386161 408.23136591 315.84271906 408.21965408 314.4015522 C408.42388768 299.75397787 408.42388768 299.75397787 402.46508789 286.78540039 C395.96396121 280.61580604 388.64098028 279.67437758 379.9909668 279.78759766 C378.73928711 279.82949219 377.48760742 279.87138672 376.19799805 279.91455078 C374.90764648 279.93710937 373.61729492 279.95966797 372.2878418 279.98291016 C369.13165565 280.04135805 365.977963 280.12324803 362.82299805 280.22705078 C363.50362305 280.76330078 364.18424805 281.29955078 364.88549805 281.85205078 C366.82299805 284.22705078 366.82299805 284.22705078 366.77978516 286.94116211 C365.59489532 291.0104227 364.12739003 294.88456807 362.5144043 298.80126953 C362.18762192 299.60691849 361.86083954 300.41256744 361.52415466 301.24263 C360.83527434 302.9372791 360.1434087 304.63071739 359.44873047 306.32299805 C358.38582757 308.91374759 357.33319535 311.50849218 356.28198242 314.10400391 C355.610057 315.75333726 354.93755091 317.4024342 354.2644043 319.05126953 C353.7924337 320.21380501 353.7924337 320.21380501 353.31092834 321.39982605 C352.00956235 324.56051963 350.72514996 327.37382291 348.82299805 330.22705078 C346.35546875 330.32958984 346.35546875 330.32958984 343.2487793 329.99267578 C328.12571218 328.54786491 328.12571218 328.54786491 314.56030273 334.21801758 C307.73828819 340.67401079 306.09099262 346.62549829 305.82763672 355.9387207 C305.91238704 361.39599756 306.24643328 366.80024581 306.82299805 372.22705078 C299.34190976 376.03888069 291.71655352 379.34137205 283.96777344 382.56518555 C282.40515569 383.21800743 280.84493754 383.87660127 279.28710938 384.54077148 C277.01904589 385.50756891 274.74440306 386.45700238 272.4675293 387.40283203 C271.77472366 387.70167801 271.08191803 388.00052399 270.36811829 388.3084259 C266.4838492 389.8956806 263.81821398 390.76635413 259.82299805 389.22705078 C258.20141602 387.98364258 258.20141602 387.98364258 256.81518555 386.42626953 C256.30342773 385.86101562 255.79166992 385.29576172 255.2644043 384.71337891 C254.74749023 384.11976563 254.23057617 383.52615234 253.69799805 382.91455078 C253.17334961 382.33253906 252.64870117 381.75052734 252.1081543 381.15087891 C248.10538529 376.67689786 248.10538529 376.67689786 246.47387695 374.07788086 C244.26662089 371.60328633 242.93744924 371.61166382 239.66674805 371.41455078 C227.68215895 370.41908926 227.68215895 370.41908926 216.9675293 374.70361328 C214.13220604 377.56816667 211.98951728 380.83490066 209.82299805 384.22705078 C208.27335255 386.58959305 206.88735679 388.21530688 204.82299805 390.22705078 C199.62281105 389.96075868 195.00615901 387.87765297 190.2487793 385.91845703 C189.44313034 385.59167465 188.63748138 385.26489227 187.80741882 384.9282074 C186.11276973 384.23932707 184.41933144 383.54746143 182.72705078 382.8527832 C180.13630124 381.7898803 177.54155665 380.73724809 174.94604492 379.68603516 C173.29671156 379.01410974 171.64761462 378.34160364 169.9987793 377.66845703 C169.22375565 377.35380997 168.44873199 377.0391629 167.65022278 376.71498108 C164.4895292 375.41361508 161.67622591 374.12920269 158.82299805 372.22705078 C158.72045898 369.75952148 158.72045898 369.75952148 159.05737305 366.65283203 C160.50218392 351.52976491 160.50218392 351.52976491 154.83203125 337.96435547 C148.37603804 331.14234093 142.42455054 329.49504536 133.11132812 329.23168945 C127.65405126 329.31643977 122.24980301 329.65048602 116.82299805 330.22705078 C113.01116814 322.7459625 109.70867678 315.12060625 106.48486328 307.37182617 C105.8320414 305.80920842 105.17344756 304.24899027 104.50927734 302.69116211 C103.54247992 300.42309862 102.59304645 298.1484558 101.6472168 295.87158203 C101.19894783 294.83237358 101.19894783 294.83237358 100.74162292 293.77217102 C99.15636332 289.89278425 98.26421018 287.21365406 99.82299805 283.22705078 C101.38549805 281.41455078 101.38549805 281.41455078 102.82299805 280.22705078 C98.36501761 280.080377 93.90766751 279.99251703 89.44799805 279.91455078 C88.19631836 279.87265625 86.94463867 279.83076172 85.6550293 279.78759766 C77.00501581 279.67437758 69.68203488 280.61580604 63.1809082 286.78540039 C56.51559782 295.08887677 57.49067919 306.48471674 57.40893555 316.54345703 C57.39019253 318.01034089 57.37061687 319.47721432 57.35025024 320.94407654 C57.29925348 324.77602956 57.25945573 328.60801741 57.22210693 332.44012451 C57.18186195 336.36202378 57.13086388 340.28378223 57.08081055 344.20556641 C56.9844364 351.8792974 56.89991047 359.55309741 56.82299805 367.22705078 C57.41910889 367.21816833 58.01521973 367.20928589 58.62939453 367.20013428 C64.85903288 367.11133006 71.08849007 367.05117973 77.31860352 367.00732422 C79.64061798 366.98726502 81.96258228 366.96001087 84.28442383 366.92529297 C87.6307415 366.87652537 90.97638863 366.85402435 94.32299805 366.83642578 C95.35352295 366.81578064 96.38404785 366.7951355 97.44580078 366.77386475 C104.84119574 366.77158578 110.09234824 368.00774486 115.84643555 372.97314453 C116.29245117 373.53130859 116.7384668 374.08947266 117.19799805 374.66455078 C117.65948242 375.22013672 118.1209668 375.77572266 118.59643555 376.34814453 C121.06053074 380.12276169 122.07204849 383.57820156 122.09042358 388.06440735 C122.10321854 389.48357452 122.10321854 389.48357452 122.11627197 390.93141174 C122.11491241 392.47054482 122.11491241 392.47054482 122.11352539 394.04077148 C122.12024261 395.13080475 122.12695984 396.22083801 122.13388062 397.34390259 C122.1528763 400.94692546 122.1567857 404.5497622 122.15893555 408.15283203 C122.16536258 410.66000953 122.17209087 413.16718627 122.17910767 415.67436218 C122.19108451 420.93078822 122.19487379 426.18716711 122.19360352 431.44360352 C122.19240302 437.50522289 122.21348994 443.56648567 122.24509084 449.62801486 C122.27447436 455.47408742 122.28157744 461.32001974 122.28038406 467.16615868 C122.2827414 469.64641971 122.29157234 472.12668349 122.3070488 474.60689735 C122.32669042 478.0799461 122.32087685 481.55208238 122.30883789 485.02514648 C122.3200769 486.04516251 122.33131592 487.06517853 122.34289551 488.11610413 C122.2795053 495.3291949 120.84530201 500.72469406 116.0769043 506.25048828 C115.51874023 506.69650391 114.96057617 507.14251953 114.38549805 507.60205078 C113.82991211 508.06353516 113.27432617 508.52501953 112.7019043 509.00048828 C108.33353974 511.85218573 104.60290287 512.47141007 99.4284668 512.42236328 C98.22641602 512.41591797 97.02436523 512.40947266 95.78588867 512.40283203 C94.54000977 512.38607422 93.29413086 512.36931641 92.01049805 512.35205078 C90.7452832 512.34302734 89.48006836 512.33400391 88.17651367 512.32470703 C85.058594 512.30117556 81.94077183 512.26530567 78.82299805 512.22705078 C78.82299805 507.27705078 78.82299805 502.32705078 78.82299805 497.22705078 C80.20874023 497.17806641 81.59448242 497.12908203 83.0222168 497.07861328 C84.85166308 497.00355907 86.68108921 496.92801239 88.51049805 496.85205078 C89.87851563 496.80564453 89.87851563 496.80564453 91.27416992 496.75830078 C97.84717185 496.62191394 97.84717185 496.62191394 103.82299805 494.22705078 C106.8535347 488.13893768 107.71536382 480.79900502 105.82299805 474.22705078 C102.77235972 468.85548594 97.87673052 464.85734805 93.32299805 460.78955078 C92.11516444 459.65710545 90.91069961 458.52105583 89.7097168 457.38134766 C86.78466542 454.6201557 83.81836025 451.91172382 80.82299805 449.22705078 C76.63564931 451.5737289 72.60257821 453.97004844 68.6706543 456.73095703 C67.73801758 457.38322266 66.80538086 458.03548828 65.84448242 458.70751953 C64.86801758 459.39458984 63.89155273 460.08166016 62.88549805 460.78955078 C60.81412787 462.23911884 58.74251267 463.68833683 56.6706543 465.13720703 C55.66534668 465.84119629 54.66003906 466.54518555 53.62426758 467.27050781 C50.03728372 469.77583191 46.43337188 472.25560974 42.82299805 474.72705078 C32.45004962 481.83652179 22.14245922 489.04028318 11.82299805 496.22705078 C29.31299805 496.55705078 46.80299805 496.88705078 64.82299805 497.22705078 C64.82299805 502.17705078 64.82299805 507.12705078 64.82299805 512.22705078 C55.57354519 512.3176224 46.32438956 512.3909222 37.07459259 512.43429947 C32.77897084 512.45512431 28.48366969 512.48334773 24.18823242 512.52880859 C20.03849664 512.57244976 15.88906814 512.59622623 11.73912048 512.60655975 C10.16034614 512.61391851 8.58158754 512.6282883 7.00294495 512.64997101 C-9.89962034 512.87277668 -9.89962034 512.87277668 -17.20043945 506.44580078 C-17.64645508 505.87861328 -18.0924707 505.31142578 -18.55200195 504.72705078 C-19.01348633 504.15986328 -19.4749707 503.59267578 -19.95043945 503.00830078 C-22.40692544 499.44091985 -23.42684635 496.79356232 -23.45115662 492.434021 C-23.46113174 491.4724559 -23.47110687 490.51089081 -23.48138428 489.52018738 C-23.48204895 488.47180191 -23.48271362 487.42341644 -23.48339844 486.34326172 C-23.49172195 485.23386734 -23.50004547 484.12447296 -23.50862122 482.98146057 C-23.53274762 479.30808009 -23.54149718 475.63487714 -23.5480957 471.96142578 C-23.55706081 469.40797878 -23.56618264 466.85453233 -23.57545471 464.30108643 C-23.59195503 458.94452304 -23.5996796 453.5880262 -23.60253906 448.23144531 C-23.6061703 442.0533314 -23.63603701 435.8757155 -23.67794365 429.69775367 C-23.71691568 423.74224616 -23.72813356 417.78688714 -23.72926521 411.83124542 C-23.7334681 409.30352328 -23.74590497 406.77580073 -23.76678276 404.24816132 C-23.79369438 400.70780867 -23.78887056 397.16882132 -23.77636719 393.62841797 C-23.79120148 392.58812943 -23.80603577 391.54784088 -23.82131958 390.47602844 C-23.74629746 383.0008611 -21.93488646 378.09490088 -16.69887447 372.7056694 C-12.22478227 368.72622011 -8.05811951 366.96926723 -2.11132812 367 C-1.13068893 367.00015106 -0.15004974 367.00030212 0.86030579 367.00045776 C1.90631454 367.01078033 2.9523233 367.02110291 4.0300293 367.03173828 C5.65082649 367.03598312 5.65082649 367.03598312 7.30436707 367.04031372 C10.74819105 367.05148946 14.19175294 367.0765896 17.63549805 367.10205078 C19.97338491 367.11208394 22.31127586 367.1212092 24.64916992 367.12939453 C30.3738684 367.15142028 36.09841449 367.18487211 41.82299805 367.22705078 C41.81189499 366.31409241 41.80079193 365.40113403 41.78935242 364.46051025 C41.68871775 355.81123796 41.61281475 347.16216534 41.56393719 338.51243973 C41.53796285 334.06663059 41.50279078 329.62130956 41.44580078 325.17578125 C41.39104218 320.8768822 41.3614863 316.5784494 41.34861183 312.27922821 C41.33944987 310.64791281 41.32156077 309.01661981 41.29434776 307.38550568 C41.09725086 295.06984611 42.57472614 285.12080437 50.63549805 275.28955078 C59.43645182 266.20946228 69.1057559 263.14027784 81.62504578 262.94415283 C86.58774472 262.92690209 91.54826425 262.97657727 96.51049805 263.03955078 C98.58014979 263.05462224 100.64981212 263.06830629 102.71948242 263.08056641 C107.75425231 263.11338289 112.78850668 263.16503007 117.82299805 263.22705078 C117.82299805 258.60705078 117.82299805 253.98705078 117.82299805 249.22705078 C115.8567749 249.25061646 115.8567749 249.25061646 113.85083008 249.2746582 C108.94936358 249.32929573 104.04792357 249.36352319 99.14624023 249.3918457 C97.03193624 249.40685565 94.91766298 249.42726998 92.8034668 249.45336914 C89.75000384 249.49009711 86.69695547 249.50685552 83.64331055 249.52001953 C82.24424973 249.54324532 82.24424973 249.54324532 80.81692505 249.56694031 C69.48411383 249.569793 60.08934812 246.20856676 51.84643555 238.34033203 C44.74622034 230.65095003 41.65498523 223.29871647 41.70947266 212.88818359 C41.70932663 212.1560817 41.7091806 211.4239798 41.70903015 210.66969299 C41.70972528 208.25649016 41.71749897 205.84336508 41.7253418 203.43017578 C41.72720739 201.75437462 41.72863063 200.0785729 41.72962952 198.402771 C41.73344352 193.99691252 41.74326428 189.59108713 41.7543335 185.1852417 C41.76457161 180.68746386 41.76913228 176.18968067 41.77416992 171.69189453 C41.78488755 162.87026543 41.80195058 154.04866086 41.82299805 145.22705078 C41.22688721 145.23593323 40.63077637 145.24481567 40.01660156 145.25396729 C33.78696322 145.34277151 27.55750603 145.40292184 21.32739258 145.44677734 C19.00537812 145.46683655 16.68341382 145.49409069 14.36157227 145.52880859 C11.0152546 145.57757619 7.66960746 145.60007721 4.32299805 145.61767578 C3.29247314 145.63832092 2.26194824 145.65896606 1.20019531 145.68023682 C-6.18579169 145.68251288 -11.49282163 144.47026743 -17.20043945 139.44580078 C-17.64645508 138.87861328 -18.0924707 138.31142578 -18.55200195 137.72705078 C-19.01348633 137.15986328 -19.4749707 136.59267578 -19.95043945 136.00830078 C-22.40692544 132.44091985 -23.42684635 129.79356232 -23.45115662 125.434021 C-23.46113174 124.4724559 -23.47110687 123.51089081 -23.48138428 122.52018738 C-23.48204895 121.47180191 -23.48271362 120.42341644 -23.48339844 119.34326172 C-23.49172195 118.23386734 -23.50004547 117.12447296 -23.50862122 115.98146057 C-23.53274762 112.30808009 -23.54149718 108.63487714 -23.5480957 104.96142578 C-23.55706081 102.40797878 -23.56618264 99.85453233 -23.57545471 97.30108643 C-23.59195503 91.94452304 -23.5996796 86.5880262 -23.60253906 81.23144531 C-23.6061703 75.0533314 -23.63603701 68.8757155 -23.67794365 62.69775367 C-23.71691568 56.74224616 -23.72813356 50.78688714 -23.72926521 44.83124542 C-23.7334681 42.30352328 -23.74590497 39.77580073 -23.76678276 37.24816132 C-23.79369438 33.70780867 -23.78887056 30.16882132 -23.77636719 26.62841797 C-23.79861862 25.06798515 -23.79861862 25.06798515 -23.82131958 23.47602844 C-23.74629746 16.0008611 -21.93488646 11.09490088 -16.69887447 5.7056694 C-11.40971454 1.00126395 -6.95382103 -0.02435664 0 0 Z M191.97143555 143.16064453 C191.0381543 143.5621875 190.10487305 143.96373047 189.14331055 144.37744141 C188.17135742 144.8021875 187.1994043 145.22693359 186.19799805 145.66455078 C185.21831055 146.08542969 184.23862305 146.50630859 183.22924805 146.93994141 C178.72085699 148.59838261 178.72085699 148.59838261 174.82299805 151.22705078 C175.03101959 152.6619245 175.29005859 154.08943649 175.5690918 155.51220703 C176.80732825 164.28362933 176.93787525 171.88794817 171.62388611 179.38728333 C164.68372283 188.28016497 155.7185563 198.09378963 144.1081543 199.73095703 C138.57205788 199.96122281 133.22990544 199.41705862 127.82299805 198.22705078 C123.71950516 206.3356039 123.71950516 206.3356039 119.94799805 214.60205078 C119.30217773 216.06771484 119.30217773 216.06771484 118.64331055 217.56298828 C117.72800358 220.53555663 117.78610451 221.36680214 118.82299805 224.22705078 C121.31259909 228.30820124 124.43723759 231.30319488 128.82299805 233.22705078 C135.87438388 234.83476881 143.13915054 234.7314194 150.33544922 234.67504883 C153.7542319 234.66456999 157.15466528 234.77668972 160.57104492 234.89697266 C172.49109129 235.41090608 172.49109129 235.41090608 182.67211914 230.2043457 C185.1293677 227.34314942 187.02749723 224.28038591 188.81137085 220.96659851 C190.39601512 218.2417169 192.46493402 215.99325562 194.57299805 213.66455078 C196.5843562 211.5279445 196.5843562 211.5279445 197.82299805 209.22705078 C197.62717147 206.41871968 196.88061578 204.36286401 195.78393555 201.77783203 C193.56491306 195.88749998 193.80498864 188.60005241 196.38549805 182.85205078 C199.35908969 177.80850312 203.45050079 174.36172338 208.69799805 171.85205078 C216.82637129 170.22637613 223.52605246 171.11213576 230.82299805 175.22705078 C236.37524836 179.70595437 238.48855424 186.2648342 239.26049805 193.10205078 C239.00473627 198.73992986 237.08096723 204.49406215 233.4675293 208.86767578 C229.71046299 212.21176698 224.73953631 215.38936248 219.5769043 215.10205078 C215.94347901 214.91601941 213.19493329 215.00796078 210.36352539 217.52392578 C207.03608914 221.16924231 204.16180588 225.15816986 201.30004883 229.17285156 C199.45202851 231.74297436 197.5174178 234.23793345 195.57104492 236.73388672 C191.85893514 241.41762723 191.85893514 241.41762723 188.5196991 246.36212158 C186.82299805 248.22705078 186.82299805 248.22705078 184.45014954 248.74603271 C183.51527206 248.75491516 182.58039459 248.76379761 181.6171875 248.77294922 C180.55631424 248.79266785 179.49544098 248.81238647 178.40242004 248.83270264 C176.68668037 248.83454559 176.68668037 248.83454559 174.9362793 248.83642578 C173.76413376 248.85296204 172.59198822 248.86949829 171.38432312 248.88653564 C167.63466235 248.93518246 163.88540762 248.95642448 160.13549805 248.97705078 C157.59576389 249.00519636 155.05604879 249.03512178 152.51635742 249.06689453 C146.28527103 249.14094647 140.05441227 249.19041955 133.82299805 249.22705078 C133.82299805 253.84705078 133.82299805 258.46705078 133.82299805 263.22705078 C135.20374512 263.14737061 136.58449219 263.06769043 138.00708008 262.9855957 C177.71990981 260.95192269 177.71990981 260.95192269 185.4543457 266.31933594 C190.88209862 271.69886895 193.56224524 278.0383941 195.82299805 285.22705078 C197.54277287 286.94682561 200.03798548 286.68324445 202.38549805 286.97705078 C209.05454616 288.07007767 214.04906249 289.80124036 218.38549805 295.15673828 C220.73624557 298.69621608 222.49245846 301.9300361 222.82299805 306.22705078 C222.92612305 307.27892578 223.02924805 308.33080078 223.13549805 309.41455078 C222.58391297 316.1438887 220.53733847 322.11166224 215.44799805 326.72705078 C209.15181223 331.4292655 202.50963097 332.2165225 194.82299805 331.22705078 C188.15675021 329.19696114 184.00866517 326.21435648 180.6628418 320.09423828 C178.20525825 314.63040137 178.18596349 309.12332412 178.82299805 303.22705078 C180.03393555 300.93017578 180.03393555 300.93017578 181.38549805 298.85205078 C182.6786276 296.76236427 182.6786276 296.76236427 182.82299805 294.22705078 C180.73458556 288.89166845 176.86047598 283.26452871 172.82299805 279.22705078 C166.73750948 278.81062021 160.65101204 278.69852876 154.55297852 278.60229492 C152.50039216 278.56081712 150.4480995 278.49962844 148.39672852 278.41772461 C135.0344127 277.46971036 135.0344127 277.46971036 123.34481812 282.8535614 C121.32153315 284.84947563 119.51945617 286.94873683 117.82299805 289.22705078 C121.08947836 302.63518049 121.08947836 302.63518049 127.82299805 314.22705078 C129.25787177 314.01902924 130.68538375 313.75999024 132.1081543 313.48095703 C140.87957659 312.24272058 148.48389544 312.11217358 155.98323059 317.42616272 C164.87611223 324.366326 174.68973689 333.33149252 176.3269043 344.94189453 C176.55717008 350.47799095 176.01300588 355.82014338 174.82299805 361.22705078 C182.93155117 365.33054366 182.93155117 365.33054366 191.19799805 369.10205078 C192.66366211 369.74787109 192.66366211 369.74787109 194.15893555 370.40673828 C197.05393512 371.29816044 198.05174042 371.29001316 200.82299805 370.22705078 C201.8380724 368.53734882 202.85305614 366.8475923 203.86743164 365.1574707 C206.93339749 360.56527269 210.22658177 357.03551669 215.8137207 355.77954102 C221.59110699 354.93798321 227.36989654 354.88250282 233.19799805 354.91455078 C234.05431824 354.90938446 234.91063843 354.90421814 235.79290771 354.89889526 C251.55024852 354.90960687 251.55024852 354.90960687 256.2409668 359.53173828 C257.66967773 361.43383789 257.66967773 361.43383789 258.82299805 363.22705078 C259.55389648 364.03013672 260.28479492 364.83322266 261.0378418 365.66064453 C261.89055664 366.65257812 261.89055664 366.65257812 262.76049805 367.66455078 C263.34702148 368.34388672 263.93354492 369.02322266 264.5378418 369.72314453 C264.96194336 370.21943359 265.38604492 370.71572266 265.82299805 371.22705078 C269.23693324 370.63017734 272.24363107 369.76596359 275.43237305 368.41455078 C276.68727539 367.88474609 276.68727539 367.88474609 277.9675293 367.34423828 C278.82733398 366.97556641 279.68713867 366.60689453 280.57299805 366.22705078 C281.44827148 365.85837891 282.32354492 365.48970703 283.2253418 365.10986328 C287.30916193 363.62223794 287.30916193 363.62223794 290.82299805 361.22705078 C290.6149765 359.79217706 290.3559375 358.36466508 290.0769043 356.94189453 C288.83866785 348.17047224 288.70812084 340.56615339 294.02210999 333.06681824 C300.96227327 324.1739366 309.92743979 314.36031194 321.5378418 312.72314453 C327.07393821 312.49287875 332.41609065 313.03704295 337.82299805 314.22705078 C341.92649093 306.11849766 341.92649093 306.11849766 345.69799805 297.85205078 C346.34381836 296.38638672 346.34381836 296.38638672 347.00268555 294.89111328 C347.91846893 291.91699773 347.88087683 291.08430909 346.82299805 288.22705078 C343.75478052 283.68653309 339.96967443 280.11686574 334.64538574 278.61126709 C328.44724004 277.48593022 322.23148885 277.39160507 315.94799805 277.41455078 C314.99856323 277.40646393 314.04912842 277.39837708 313.07092285 277.39004517 C301.9006063 277.30126806 301.9006063 277.30126806 291.66772461 281.14892578 C286.96394151 285.96081923 283.41107404 292.43173601 282.82299805 299.22705078 C283.62928354 301.87089548 283.62928354 301.87089548 284.82299805 304.22705078 C287.70188626 310.67125251 288.00090309 317.26052403 285.9831543 324.05517578 C283.27527339 330.14562846 279.88772175 333.49919388 273.82299805 336.22705078 C267.9817114 338.17414633 261.84310427 337.8562642 256.01049805 336.03955078 C248.313937 331.66307489 245.20875234 327.7861128 242.82299805 319.22705078 C241.98411261 312.39612653 243.97643711 306.19473799 247.57299805 300.41455078 C252.49722755 295.62710543 256.05491317 294.22926126 262.76049805 293.78955078 C266.74279776 293.21499013 268.33724292 292.76715613 271.05737305 289.74267578 C273.90707191 285.06916964 276.40989557 280.39983092 278.33569336 275.28222656 C280.14346843 270.96913712 282.06385438 267.13817445 285.82299805 264.22705078 C293.27954244 261.61640709 301.61888807 262.49781129 309.38549805 262.78955078 C311.56055371 262.81659928 313.73570518 262.8368493 315.91088867 262.85009766 C321.21926626 262.89717317 326.51789705 263.03689128 331.82299805 263.22705078 C331.82299805 258.60705078 331.82299805 253.98705078 331.82299805 249.22705078 C330.79529297 249.27007324 329.76758789 249.3130957 328.70874023 249.35742188 C297.50492272 250.48208292 297.50492272 250.48208292 290.8659668 245.14892578 C287.81246163 241.85873495 285.81435956 238.22860464 283.82299805 234.22705078 C282.22790311 232.3589534 282.22790311 232.3589534 280.82299805 231.22705078 C279.83299805 231.55705078 278.84299805 231.88705078 277.82299805 232.22705078 C271.49424988 232.8115888 265.32926397 232.669892 259.82299805 229.22705078 C254.88823662 224.73028593 251.29112479 220.17346807 250.48706055 213.39501953 C250.38631316 205.7079939 251.12486669 200.2385831 256.4362793 194.47705078 C262.03587498 189.31201352 267.59701791 187.65465975 275.16674805 187.85986328 C280.99306054 188.6652653 285.85173518 190.97989108 289.7487793 195.42236328 C294.07193111 201.67494084 295.26359637 206.62025026 294.82299805 214.22705078 C294.56518555 215.34724609 294.30737305 216.46744141 294.04174805 217.62158203 C293.47690268 221.30396139 293.47690268 221.30396139 295.65893555 224.28173828 C296.49682617 225.21244141 297.3347168 226.14314453 298.19799805 227.10205078 C299.03073242 228.04822266 299.8634668 228.99439453 300.72143555 229.96923828 C304.20266712 233.70929748 305.47956929 233.44065944 310.75268555 233.67626953 C312.96614643 233.74629295 315.17923697 233.80481425 317.39331055 233.85180664 C318.91254811 233.89316724 320.43139511 233.95424331 321.94897461 234.03637695 C329.42890523 234.43433289 335.90030103 234.73908635 341.97537231 229.84468079 C344.26623532 227.75860283 346.14061804 225.84111791 347.82299805 223.22705078 C347.66730602 219.74937208 346.36151072 216.80547362 345.01049805 213.61767578 C344.48069336 212.36277344 344.48069336 212.36277344 343.94018555 211.08251953 C343.57151367 210.22271484 343.2028418 209.36291016 342.82299805 208.47705078 C342.45432617 207.60177734 342.0856543 206.72650391 341.70581055 205.82470703 C340.2181852 201.7408869 340.2181852 201.7408869 337.82299805 198.22705078 C336.38812433 198.43507233 334.96061234 198.69411132 333.5378418 198.97314453 C324.7664195 200.21138098 317.16210066 200.34192798 309.6627655 195.02793884 C300.76988386 188.08777556 290.9562592 179.12260904 289.3190918 167.51220703 C289.08882601 161.97611062 289.63299021 156.63395818 290.82299805 151.22705078 C282.71444492 147.1235579 282.71444492 147.1235579 274.44799805 143.35205078 C272.98233398 142.70623047 272.98233398 142.70623047 271.48706055 142.04736328 C268.59206097 141.15594112 267.59425568 141.16408841 264.82299805 142.22705078 C263.80792369 143.91675274 262.79293995 145.60650926 261.77856445 147.29663086 C258.71259861 151.88882888 255.41941433 155.41858487 249.83227539 156.67456055 C244.0548891 157.51611835 238.27609955 157.57159874 232.44799805 157.53955078 C231.59167786 157.5447171 230.73535767 157.54988342 229.85308838 157.5552063 C214.09712363 157.54449563 214.09712363 157.54449563 209.39331055 152.92236328 C207.96313477 151.02026367 207.96313477 151.02026367 206.82299805 149.22705078 C206.1269043 148.42396484 205.43081055 147.62087891 204.71362305 146.79345703 C203.60675537 145.44149722 202.50264773 144.08727364 201.40112305 142.73095703 C198.34446794 139.8180555 195.37713823 141.6887642 191.97143555 143.16064453 Z M212.07299805 187.85205078 C209.58295068 190.06402118 209.58295068 190.06402118 209.19799805 193.22705078 C209.59729809 196.36969927 209.59729809 196.36969927 211.94799805 198.66455078 C214.73525497 200.47575564 214.73525497 200.47575564 217.94799805 200.22705078 C220.84489097 199.41957118 220.84489097 199.41957118 222.76049805 197.53955078 C224.23625396 194.32761144 223.88744017 192.56230276 222.82299805 189.22705078 C221.11207694 187.25606652 221.11207694 187.25606652 218.82299805 186.22705078 C214.86457688 185.88789791 214.86457688 185.88789791 212.07299805 187.85205078 Z M268.07299805 204.85205078 C265.57361857 207.06043106 265.57361857 207.06043106 265.26049805 210.22705078 C265.6373915 213.2730622 265.6373915 213.2730622 267.38549805 215.66455078 C269.8404635 217.53906233 269.8404635 217.53906233 273.38549805 217.28955078 C276.90396282 216.52707726 276.90396282 216.52707726 278.82299805 213.97705078 C279.98831607 210.77242621 280.07130532 209.3894292 278.82299805 206.22705078 C277.09261733 204.32503336 277.09261733 204.32503336 274.82299805 203.22705078 C270.86457688 202.88789791 270.86457688 202.88789791 268.07299805 204.85205078 Z M196.07299805 304.41455078 C193.67855612 306.98215447 193.67855612 306.98215447 193.26049805 309.78955078 C194.03117299 313.12914219 194.96729478 314.3232486 197.82299805 316.22705078 C201.67021709 316.22705078 203.88965646 316.04372467 206.82299805 313.47705078 C208.13665079 310.5213321 207.9541439 309.24343972 206.82299805 306.22705078 C205.11418041 303.8512506 205.11418041 303.8512506 202.82299805 302.22705078 C198.75907822 301.81203507 198.75907822 301.81203507 196.07299805 304.41455078 Z M260.63549805 309.41455078 C258.32751569 311.72253314 257.90051396 312.97138255 257.82299805 316.22705078 C258.67045438 319.08406785 258.67045438 319.08406785 260.82299805 321.22705078 C264.228288 322.47543459 264.228288 322.47543459 267.82299805 322.22705078 C270.40633138 320.81038411 270.40633138 320.81038411 271.82299805 318.22705078 C272.57299805 315.22705078 272.57299805 315.22705078 271.82299805 312.22705078 C269.67629117 309.74296377 269.67629117 309.74296377 266.82299805 308.22705078 C262.99406059 307.90898954 262.99406059 307.90898954 260.63549805 309.41455078 Z M-7.17700195 386.22705078 C-8.31493981 389.47930702 -8.30374071 392.59330211 -8.30639648 396.01660156 C-8.30950836 397.18893341 -8.31262024 398.36126526 -8.31582642 399.56912231 C-8.31384247 400.84069183 -8.31185852 402.11226135 -8.30981445 403.42236328 C-8.31082934 404.76056953 -8.31216835 406.09877557 -8.31381226 407.4369812 C-8.31650524 411.00660836 -8.31206489 414.57619194 -8.30557251 418.14581299 C-8.3020111 420.34639618 -8.30038622 422.54697288 -8.29931641 424.74755859 C-8.28649302 445.91933747 -8.09933723 467.0722119 -7.17700195 488.22705078 C-2.92210568 486.61715071 0.49670221 484.4839937 4.13549805 481.78955078 C5.39239707 480.87553288 6.65024452 479.96281808 7.90893555 479.05126953 C8.55701172 478.58124512 9.20508789 478.1112207 9.87280273 477.62695312 C12.96939001 475.40413998 16.11318881 473.25216883 19.26049805 471.10205078 C25.97097315 466.50979593 32.65124627 461.87537563 39.32299805 457.22705078 C45.99475779 452.57872038 52.67557193 447.94511527 59.38549805 443.35205078 C66.60288463 438.4095889 73.72534347 433.33958009 80.82299805 428.22705078 C84.58745571 429.78719425 86.93697877 432.12487254 89.7722168 435.01611328 C90.45934502 435.71104385 90.45934502 435.71104385 91.16035461 436.42001343 C92.61526255 437.8926632 94.06326802 439.37185807 95.51049805 440.85205078 C97.42791702 442.80573076 99.34932711 444.75529917 101.2722168 446.70361328 C102.12130615 447.57066895 102.97039551 448.43772461 103.84521484 449.33105469 C105.48667955 451.34238802 105.48667955 451.34238802 106.82299805 451.22705078 C106.86939137 443.36001548 106.90490277 435.49301238 106.92662239 427.62587452 C106.93704809 423.97262035 106.951185 420.31945997 106.97387695 416.66625977 C106.99564881 413.1390103 107.00757581 409.6118509 107.01275253 406.08453941 C107.01823217 404.08764549 107.03383821 402.09078767 107.04959106 400.09394836 C107.04974213 398.87306015 107.04989319 397.65217194 107.05004883 396.39428711 C107.05449005 395.32173172 107.05893127 394.24917633 107.06350708 393.14411926 C106.71964651 388.97352819 105.793015 386.19706773 102.82299805 383.22705078 C100.05514936 382.3104836 97.5198159 382.10009516 94.61720276 382.09333801 C93.78592865 382.08907303 92.95465454 382.08480804 92.09819031 382.08041382 C90.74296013 382.0810936 90.74296013 382.0810936 89.36035156 382.08178711 C88.40219543 382.0784285 87.44403931 382.07506989 86.45684814 382.0716095 C83.28852035 382.06210808 80.12024545 382.06015687 76.9519043 382.05908203 C74.74999469 382.05586918 72.5480853 382.05250509 70.34617615 382.04899597 C65.73029078 382.04300693 61.11442413 382.04115587 56.49853516 382.04174805 C50.5824399 382.04184972 44.66646451 382.02819086 38.75039768 382.01097584 C34.20280912 381.99986108 29.6552496 381.99782867 25.10764885 381.99835777 C22.92635624 381.99717712 20.74506289 381.9927506 18.56378365 381.98502541 C15.51411646 381.97523509 12.46471039 381.97809973 9.41503906 381.98413086 C8.06284523 381.9757016 8.06284523 381.9757016 6.68333435 381.96710205 C1.18777292 381.99473811 -3.09776536 382.14781419 -7.17700195 386.22705078 Z " fill="#000000" transform="translate(23.177001953125,-0.22705078125)"/>
<path d="M0 0 C4.11970379 1.64788152 7.73071618 3.48903138 11.50390625 5.75390625 C12.13163437 6.12695389 12.75936249 6.50000153 13.40611267 6.88435364 C15.46045744 8.10672725 17.51155114 9.33443851 19.5625 10.5625 C20.990781 11.41440035 22.4191677 12.2661235 23.84765625 13.11767578 C40.31046854 22.94264784 56.76863454 32.79630181 73 43 C70.35593627 46.01127859 67.11582061 47.86133823 63.69140625 49.8515625 C63.06084824 50.22319519 62.43029022 50.59482788 61.78062439 50.97772217 C60.41981698 51.77927875 59.05783995 52.57885231 57.69482422 53.37664795 C54.07346413 55.49674406 50.46102281 57.6319435 46.84765625 59.765625 C46.11064484 60.20035126 45.37363342 60.63507751 44.61428833 61.08297729 C37.2080108 65.45643458 29.8480941 69.90465855 22.5 74.375 C21.92089874 74.72685364 21.34179749 75.07870728 20.74514771 75.44122314 C15.5833796 78.57789129 10.43010701 81.71882845 5.34375 84.9765625 C2 87 2 87 0 87 C0 58.29 0 29.58 0 0 Z M15 28 C15 38.23 15 48.46 15 59 C18.77840168 57.48863933 21.85129635 56.01852498 25.30078125 53.9609375 C26.27724609 53.38085938 27.25371094 52.80078125 28.25976562 52.203125 C29.26716797 51.59984375 30.27457031 50.9965625 31.3125 50.375 C32.33923828 49.76398438 33.36597656 49.15296875 34.42382812 48.5234375 C36.95113875 47.01880606 39.47643399 45.5109006 42 44 C37.31849337 39.95643453 32.10583391 36.90862038 26.8125 33.75 C25.89791016 33.19570313 24.98332031 32.64140625 24.04101562 32.0703125 C23.16767578 31.54695313 22.29433594 31.02359375 21.39453125 30.484375 C20.59893799 30.00709961 19.80334473 29.52982422 18.98364258 29.03808594 C17.07780587 27.84544375 17.07780587 27.84544375 15 28 Z " fill="#000000" transform="translate(410,29)"/>
<path d="M0 0 C12.54 0 25.08 0 38 0 C38 5.28 38 10.56 38 16 C30.41 16 22.82 16 15 16 C15.04640625 19.733125 15.0928125 23.46625 15.140625 27.3125 C15.17185367 30.9431828 15.19612274 34.57385041 15.21972656 38.20458984 C15.23979516 40.72060891 15.2670563 43.23658161 15.30175781 45.75244141 C15.35048312 49.37674428 15.37301722 53.00042841 15.390625 56.625 C15.41127014 57.74302002 15.43191528 58.86104004 15.45318604 60.01293945 C15.45504464 66.53688062 14.86048904 71.59768006 11 77 C5.66188548 82.33811452 0.23612677 85.10662086 -7.3125 85.5 C-14.25030462 85.27128117 -20.07483207 83.05596813 -24.921875 77.9921875 C-30.55123567 70.72763159 -30.7062427 64.03785948 -30 55 C-28.31952084 48.88819361 -22.97764784 44.59011637 -18 41 C-12.43340335 38.27592079 -5.86194338 38.04601887 0 40 C0 26.8 0 13.6 0 0 Z M-13 57 C-14.42041821 59.84083641 -14.31452272 61.85477278 -14 65 C-12.58333333 67.58333333 -12.58333333 67.58333333 -10 69 C-6.37350049 69.08916154 -6.37350049 69.08916154 -3 68 C-0.68717413 64.53076119 -0.57521414 63.07794425 -1 59 C-2.57172691 56.6010484 -3.71800513 56.09399829 -6.4375 55.1875 C-9.35246093 54.97421018 -10.60288704 55.37338763 -13 57 Z " fill="#000000" transform="translate(432,397)"/>
<path d="M0 0 C5.49142255 4.63026765 8.20099401 9.3271327 8.9375 16.61328125 C9.1993262 22.96256665 8.15338286 28.3099893 4.20703125 33.3984375 C-1.15703518 39.14823455 -6.3153972 41.56899602 -14.21875 41.88671875 C-20.949304 41.67691345 -25.31953688 40.20566462 -30.25390625 35.61328125 C-35.66303347 29.81540772 -37.75359917 24.67834247 -37.52734375 16.74609375 C-36.76937988 9.67176432 -33.49175577 4.21708446 -28.28125 -0.55078125 C-19.43333776 -5.96787038 -8.54307117 -6.10969639 0 0 Z M-19.09375 13.57421875 C-21.59662595 16.26161511 -21.59662595 16.26161511 -21.28125 19.57421875 C-20.07706731 23.15934944 -20.07706731 23.15934944 -17.28125 25.44921875 C-14.32404372 26.11602243 -14.32404372 26.11602243 -11.28125 25.44921875 C-8.69003096 23.43938305 -8.69003096 23.43938305 -7.28125 20.44921875 C-7.28125 16.85059778 -7.57658331 15.17818429 -10.09375 12.57421875 C-13.88380582 10.62504719 -15.77029611 11.0631647 -19.09375 13.57421875 Z " fill="#000000" transform="translate(66.28125,398.55078125)"/>
<path d="M0 0 C23.43 0 46.86 0 71 0 C71 5.28 71 10.56 71 16 C47.57 16 24.14 16 0 16 C0 10.72 0 5.44 0 0 Z " fill="#000000" transform="translate(37,36)"/>
<path d="M0 0 C23.43 0 46.86 0 71 0 C71 4.95 71 9.9 71 15 C47.57 15 24.14 15 0 15 C0 10.05 0 5.1 0 0 Z " fill="#000000" transform="translate(37,65)"/>
<path d="M0 0 C16.83 0 33.66 0 51 0 C51 5.28 51 10.56 51 16 C34.17 16 17.34 16 0 16 C0 10.72 0 5.44 0 0 Z " fill="#000000" transform="translate(37,93)"/>
<path d="M0 0 C5.28 0 10.56 0 16 0 C16 5.28 16 10.56 16 16 C10.72 16 5.44 16 0 16 C0 10.72 0 5.44 0 0 Z " fill="#000000" transform="translate(263,248)"/>
<path d="M0 0 C5.28 0 10.56 0 16 0 C16 5.28 16 10.56 16 16 C10.72 16 5.44 16 0 16 C0 10.72 0 5.44 0 0 Z " fill="#000000" transform="translate(233,248)"/>
</svg>
