<?xml version="1.0" encoding="UTF-8"?>
<svg version="1.1" xmlns="http://www.w3.org/2000/svg" width="512" height="512">
<path d="M0 0 C1.57183044 -0.01407143 1.57183044 -0.01407143 3.17541504 -0.02842712 C4.30153198 -0.01719315 5.42764893 -0.00595917 6.58789062 0.00561523 C7.74913452 0.00416 8.91037842 0.00270477 10.10681152 0.00120544 C12.56130483 0.002865 15.01580847 0.01443244 17.47021484 0.03515625 C21.22994126 0.06409967 24.9882571 0.05576747 28.74804688 0.04272461 C31.13216832 0.04896225 33.51628531 0.05735339 35.90039062 0.06811523 C37.02650757 0.0651796 38.15262451 0.06224396 39.31286621 0.05921936 C40.36075317 0.07190353 41.40864014 0.08458771 42.48828125 0.09765625 C43.40887329 0.10305923 44.32946533 0.10846222 45.2779541 0.11402893 C48.23594073 0.57901907 49.59285103 1.44361605 51.74414062 3.50170898 C52.86230469 6.56103516 52.86230469 6.56103516 53.75976562 10.29467773 C54.11475024 11.65908735 54.47420188 13.02234099 54.83764648 14.38452148 C55.02455048 15.08996094 55.21145447 15.79540039 55.40402222 16.5222168 C58.26322346 28.62767937 58.26322346 28.62767937 65.56835938 38.08374023 C68.83544328 39.84492712 72.25563304 40.93759538 75.83154297 41.89770508 C78.87825305 42.85986499 81.35272784 44.5497311 83.99414062 46.31420898 C84.82429688 46.8569043 85.65445312 47.39959961 86.50976562 47.95874023 C88.74414062 49.50170898 88.74414062 49.50170898 90.75195312 51.23608398 C92.65520925 52.69582623 92.65520925 52.69582623 94.90820312 52.49780273 C95.7203125 52.3134668 96.53242188 52.12913086 97.36914062 51.93920898 C98.32691406 51.73553711 99.2846875 51.53186523 100.27148438 51.32202148 C102.14355145 50.87980091 104.01532379 50.4362787 105.88525391 49.98510742 C107.44114654 49.61058349 108.99815552 49.24067196 110.55615234 48.875 C112.10664824 48.50896824 113.65412138 48.12981371 115.19775391 47.73583984 C125.05816214 45.38869305 125.05816214 45.38869305 129.74414062 47.50170898 C132.34065185 50.15476408 133.96854334 53.26215891 135.74414062 56.50170898 C136.71413693 58.16192374 137.68419165 59.82210488 138.65557861 61.48150635 C140.41953831 64.51509215 142.14182544 67.57216411 143.86914062 70.62670898 C144.92627001 72.48793404 145.98430315 74.3486422 147.04266357 76.20916748 C148.0361356 77.95962709 149.02353024 79.71353155 150.01074219 81.4675293 C151.37084961 83.84829197 152.78496094 86.16941132 154.23632812 88.49389648 C155.95225519 91.91685979 156.39872568 93.73150202 155.74414062 97.50170898 C154.02148438 100.24780273 154.02148438 100.24780273 151.68164062 102.93920898 C150.86050781 103.89053711 150.039375 104.84186523 149.19335938 105.82202148 C146.68919832 108.5618213 144.14916654 111.2262679 141.44726562 113.77124023 C140.88523437 114.34229492 140.32320313 114.91334961 139.74414062 115.50170898 C138.89045898 116.27216553 138.03677734 117.04262207 137.15722656 117.83642578 C133.30230152 122.48702164 134.21254802 128.15333596 134.43164062 133.87670898 C134.45419922 134.99432617 134.47675781 136.11194336 134.5 137.26342773 C134.55870684 140.01090788 134.64077217 142.7556066 134.74414062 145.50170898 C135.80379028 145.49504715 136.86343994 145.48838531 137.9552002 145.48152161 C147.95965355 145.42060771 157.96406909 145.37568703 167.96866608 145.34627247 C173.11167656 145.33064159 178.25453687 145.3094504 183.39746094 145.27539062 C188.3641456 145.24270526 193.33068615 145.22483659 198.29747009 145.21707726 C200.18882006 145.21155021 202.08016247 145.20075728 203.97145081 145.18451881 C206.62827367 145.16262247 209.28450713 145.15974714 211.94140625 145.16113281 C212.71680756 145.15034698 213.49220886 145.13956116 214.29110718 145.12844849 C219.98183563 145.1603952 225.82678937 145.93807972 230.27567291 149.84754658 C234.47711341 154.62971201 236.24837444 159.01189678 236.05648237 165.40015966 C235.30152611 170.47978103 232.75570586 174.99026631 228.76491642 178.20592213 C227.6252467 179.0427099 226.47950504 179.87127482 225.32862854 180.69258118 C213.76295074 189.71551984 203.32752744 198.97368254 201.23873901 214.14096069 C200.02822895 225.66559174 200.4224529 237.29306918 200.80197597 248.85332274 C200.96230246 254.69132569 200.95740509 260.52935992 200.97084045 266.36921692 C201.01998471 277.39298333 201.20849446 288.40946366 201.45185047 299.43047553 C201.74949626 313.19206292 201.87677575 326.95439796 201.99609375 340.71850586 C202.03802866 345.54992021 202.08063556 350.38132689 202.12464905 355.21272278 C202.13521586 356.38289375 202.14578266 357.55306472 202.15666968 358.75869542 C202.22365849 365.6864914 202.32364186 372.61283948 202.4551686 379.53970754 C202.536486 383.83930821 202.60728413 388.13905653 202.67765045 392.4388485 C202.71348833 394.42671134 202.75487293 396.41448335 202.80230141 398.40210342 C202.86701902 401.12117892 202.9126904 403.8399834 202.95445251 406.55949402 C202.99037291 407.72884319 202.99037291 407.72884319 203.02701896 408.92181557 C203.10138758 415.95907216 201.44441627 421.92700586 197.55664062 427.81420898 C189.94037181 435.09197697 182.58223182 435.07945597 172.53321838 435.00964355 C171.08649361 435.01425663 169.63977353 435.02061228 168.1930632 435.02855253 C164.23047606 435.04521513 160.2682754 435.03701344 156.30568707 435.02460766 C152.02663596 435.01554611 147.74765065 435.02953287 143.46861267 435.04052734 C135.08853489 435.05830947 126.70860047 435.05447275 118.32851709 435.04287678 C111.51200316 435.03383611 104.69552936 435.03262123 97.87901115 435.03697205 C96.90807621 435.03758498 95.93714126 435.03819791 94.93678404 435.03882942 C92.96410973 435.04010837 90.99143544 435.04140522 89.01876115 435.04271978 C70.5195003 435.05412609 52.02031873 435.04101391 33.52107089 435.01951832 C17.67326851 435.00167269 1.82558343 435.0047304 -14.0222168 435.02319336 C-32.44220331 435.04464304 -50.86212017 435.05300074 -69.28211743 435.0407443 C-71.25020761 435.03947018 -73.21829781 435.0382127 -75.18638802 435.03697205 C-76.15460282 435.03635494 -77.12281763 435.03573784 -78.12037228 435.03510204 C-84.91826717 435.03165951 -91.71611765 435.03745427 -98.51400566 435.04689026 C-106.81412921 435.05815835 -115.11410162 435.05497084 -123.41420805 435.03376728 C-127.64318562 435.02331724 -131.87191207 435.0190302 -136.1008873 435.03236389 C-156.72564735 435.09195205 -175.27667914 434.68258542 -194.25585938 425.50170898 C-195.63837891 424.84041992 -195.63837891 424.84041992 -197.04882812 424.16577148 C-204.22868509 420.49989247 -210.24279501 415.84461503 -216.25585938 410.50170898 C-216.96613281 409.87522461 -217.67640625 409.24874023 -218.40820312 408.60327148 C-235.84491084 392.23693593 -245.38358344 368.15723756 -246.25585938 344.50170898 C-246.65261596 318.88611202 -240.46174376 293.77686068 -222.44042969 274.72924805 C-207.96860223 259.82395537 -188.59606693 247.27704034 -167.25585938 245.50170898 C-164.58896243 245.47646462 -161.92294532 245.49343502 -159.25585938 245.50170898 C-156.02946301 220.34577831 -156.02946301 220.34577831 -164.79710388 197.67958069 C-170.66980533 191.05829703 -177.3558969 185.12782276 -184.40713501 179.78250122 C-189.24527656 176.01601169 -192.57153065 171.55454688 -193.61372375 165.38230896 C-194.01302542 160.09913854 -192.19992119 155.81710904 -189.25585938 151.50170898 C-184.2735268 146.51937641 -178.99599079 145.27895574 -172.05166626 145.25286865 C-170.87777847 145.26365448 -170.87777847 145.26365448 -169.68017578 145.2746582 C-168.84049255 145.27436615 -168.00080933 145.2740741 -167.13568115 145.27377319 C-164.37615417 145.27516013 -161.61690136 145.29069125 -158.85742188 145.30639648 C-156.93785754 145.31012888 -155.01829129 145.31297478 -153.09872437 145.31497192 C-148.05827531 145.32259055 -143.01794239 145.34222383 -137.97753906 145.36437988 C-132.82944306 145.38487648 -127.68132821 145.39398179 -122.53320312 145.40405273 C-112.44070432 145.42547139 -102.34829152 145.45958594 -92.25585938 145.50170898 C-92.27036133 144.6212793 -92.28486328 143.74084961 -92.29980469 142.83374023 C-92.31108398 141.67229492 -92.32236328 140.51084961 -92.33398438 139.31420898 C-92.34848633 138.1656543 -92.36298828 137.01709961 -92.37792969 135.83374023 C-92.26760959 132.82244285 -91.83180029 130.38081138 -91.00585938 127.50170898 C-90.54305047 123.6491376 -91.21110203 122.56342219 -93.54492188 119.34545898 C-96.11664804 116.45476232 -98.85353086 113.7417674 -101.64013672 111.05932617 C-111.32844856 101.7194305 -111.32844856 101.7194305 -113.69335938 96.06420898 C-113.24741982 92.43298692 -112.47194623 90.77135891 -110.70117188 87.63842773 C-110.15614014 86.66446045 -109.6111084 85.69049316 -109.04956055 84.68701172 C-108.16167847 83.11028687 -108.16167847 83.11028687 -107.25585938 81.50170898 C-106.02356831 79.25791717 -104.79315575 77.01309284 -103.56445312 74.76733398 C-102.59980277 73.01823193 -101.63514484 71.26913363 -100.66918945 69.52075195 C-100.01518898 68.33514088 -99.36286135 67.1486056 -98.7121582 65.96118164 C-96.60388322 62.11522483 -94.44936284 58.29964338 -92.25585938 54.50170898 C-91.82805176 53.72633789 -91.40024414 52.9509668 -90.95947266 52.15209961 C-88.92418639 48.8146724 -87.54664314 47.59644397 -83.80273438 46.37670898 C-77.59199934 46.12011524 -71.4808923 48.01595589 -65.50585938 49.50170898 C-63.09639835 50.09323804 -60.68499746 50.6769363 -58.27148438 51.25170898 C-57.21219727 51.51467773 -56.15291016 51.77764648 -55.06152344 52.04858398 C-51.15096928 52.68015277 -49.23477285 52.18797525 -46.02148438 49.93530273 C-45.19132813 49.2765918 -44.36117187 48.61788086 -43.50585938 47.93920898 C-38.80418551 44.42566081 -34.00496499 41.62329418 -28.75585938 39.00170898 C-28.06137695 38.65164795 -27.36689453 38.30158691 -26.65136719 37.94091797 C-23.67970138 36.49119146 -21.60411511 35.50170898 -18.25585938 35.50170898 C-17.99546875 34.2500293 -17.73507813 32.99834961 -17.46679688 31.70874023 C-16.21950077 26.11125235 -14.59255117 20.65998254 -12.88085938 15.18920898 C-12.44386719 13.72644531 -12.44386719 13.72644531 -11.99804688 12.23413086 C-11.70414063 11.29504883 -11.41023437 10.3559668 -11.10742188 9.38842773 C-10.84783691 8.54497803 -10.58825195 7.70152832 -10.32080078 6.83251953 C-8.05649314 1.87668619 -5.4061141 0.00097581 0 0 Z " fill="#010100" transform="translate(261.255859375,38.498291015625)"/>
<path d="M0 0 C60.06 0 120.12 0 182 0 C182.1209091 51.78939897 182.1209091 51.78939897 182.14648438 73.43554688 C182.16430866 88.40164257 182.18530061 103.36768773 182.22631836 118.33374023 C182.2561727 129.23179813 182.27556357 140.12981515 182.28226548 151.0279128 C182.28618447 156.80107791 182.29542715 162.57412608 182.31719017 168.3472538 C182.33749269 173.77673899 182.34384646 179.20605862 182.33932304 184.63557816 C182.34015104 186.63228567 182.34615365 188.62899851 182.35761642 190.62567329 C182.37246304 193.34422684 182.36898241 196.06214888 182.36076355 198.78071594 C182.36950207 199.57740372 182.3782406 200.37409149 182.38724393 201.19492131 C182.3635157 204.08306 182.31454364 206.41754112 180.92472076 208.99115753 C177.9022086 210.57540741 175.23867346 210.36789085 171.84370422 210.36076355 C171.1119548 210.3633316 170.38020538 210.36589966 169.62628174 210.36854553 C167.15989454 210.37352192 164.6941148 210.35692424 162.2277832 210.34057617 C160.43521488 210.33965745 158.64264546 210.34005716 156.85007763 210.34167194 C152.04135538 210.34235037 147.23285623 210.32493902 142.42418671 210.30384064 C137.91506736 210.28677982 133.4060028 210.2859526 128.89685059 210.28381348 C115.7020374 210.26805958 102.5072659 210.22617626 89.3125 210.1875 C45.1028125 210.0946875 45.1028125 210.0946875 0 210 C0 140.7 0 71.4 0 0 Z " fill="#FAB43F" transform="translate(265,247)"/>
<path d="M0 0 C1.17618394 0.9677137 2.34319316 1.94670416 3.5 2.9375 C4.45712891 3.66453125 4.45712891 3.66453125 5.43359375 4.40625 C18.61477537 14.88952895 28.37090697 33.39582619 30.5 49.9375 C32.26858435 74.0768384 28.49387365 96.39984263 13.1796875 115.890625 C-0.76676536 131.89188439 -20.46266369 140.99704828 -41.5 142.9375 C-61.96800354 144.32019011 -81.47929949 138.61207036 -97.19921875 125.05859375 C-97.95847656 124.35863281 -98.71773437 123.65867187 -99.5 122.9375 C-100.35207031 122.16535156 -101.20414063 121.39320313 -102.08203125 120.59765625 C-115.99460346 107.39427063 -125.05013823 89.04966776 -125.73828125 69.78515625 C-126.18768443 46.43835884 -120.6499632 26.48162439 -104.5 8.9375 C-76.94282221 -19.44860359 -31.98487724 -23.12085118 0 0 Z " fill="#010202" transform="translate(157.5,314.0625)"/>
<path d="M0 0 C42.9 0 85.8 0 130 0 C130 69.3 130 138.6 130 210 C102.28 210 74.56 210 46 210 C48.57893831 207.42106169 51.05807902 205.03801404 53.8125 202.6875 C55.20981819 201.46002159 56.60568966 200.23089401 58 199 C58.56847656 198.51144531 59.13695312 198.02289063 59.72265625 197.51953125 C75.41662312 183.08701798 84.97640805 159.67803931 86.12426758 138.73242188 C87.00097281 112.48012149 79.91492913 86.77277364 62 67 C60.89398438 65.75476563 60.89398438 65.75476563 59.765625 64.484375 C43.90853154 47.5908702 22.56678638 39.8208483 0 37 C0 24.79 0 12.58 0 0 Z " fill="#F9B43F" transform="translate(118,247)"/>
<path d="M0 0 C1.43352212 0.00015908 2.86704998 0.00585132 4.30053711 0.01586914 C5.43041298 0.01799156 5.43041298 0.01799156 6.58311462 0.02015686 C8.99807646 0.02577163 11.41294687 0.03832656 13.82788086 0.05102539 C15.46134307 0.05603849 17.09480672 0.06060173 18.72827148 0.06469727 C22.74067671 0.07574585 26.75301326 0.09302033 30.76538086 0.11352539 C30.95648438 0.73283936 31.14758789 1.35215332 31.34448242 1.99023438 C32.22912224 4.84561962 33.12219593 7.69830211 34.01538086 10.55102539 C34.4659082 12.01185547 34.4659082 12.01185547 34.92553711 13.50219727 C37.7836201 24.58466082 37.7836201 24.58466082 44.61303711 33.09399414 C45.67393555 33.49231445 46.73483398 33.89063477 47.82788086 34.30102539 C48.98288086 34.77282227 50.13788086 35.24461914 51.32788086 35.73071289 C52.46225586 36.18704102 53.59663086 36.64336914 54.76538086 37.11352539 C63.21958906 41.17981575 72.07559988 46.42374441 78.76538086 53.11352539 C85.80142714 53.51619069 91.74476162 52.37165553 98.51538086 50.55102539 C100.34089307 50.06072302 102.16898288 49.57989729 103.99975586 49.10961914 C104.79607422 48.89490967 105.59239258 48.6802002 106.4128418 48.45898438 C109.297755 48.03534882 111.01933453 48.08368933 113.76538086 49.11352539 C115.72583008 51.55029297 115.72583008 51.55029297 117.57006836 54.75805664 C117.89830597 55.32425217 118.22654358 55.89044769 118.56472778 56.47380066 C119.25325298 57.67049265 119.93359144 58.87192746 120.60620117 60.07763672 C121.63770261 61.92123856 122.69900799 63.7449977 123.76538086 65.56860352 C124.43129353 66.73486676 125.09541822 67.9021531 125.75756836 69.07055664 C126.66031494 70.66347534 126.66031494 70.66347534 127.58129883 72.28857422 C128.76538086 75.11352539 128.76538086 75.11352539 128.64208984 77.27270508 C127.6080562 79.44385898 126.41701762 80.87886172 124.74584961 82.60961914 C124.13547852 83.25092773 123.52510742 83.89223633 122.89624023 84.55297852 C122.25493164 85.21233398 121.61362305 85.87168945 120.95288086 86.55102539 C118.54331938 89.05923831 116.14860742 91.58029554 113.76538086 94.11352539 C112.96358398 94.95270508 112.16178711 95.79188477 111.33569336 96.65649414 C109.24892835 99.92160655 109.33089191 102.1437702 109.45288086 105.98852539 C109.48768555 107.22731445 109.52249023 108.46610352 109.55834961 109.74243164 C109.77331674 113.24274552 110.22210155 116.65011979 110.76538086 120.11352539 C110.89356623 123.1160212 110.98418669 126.11459844 110.76538086 129.11352539 C109.76538086 130.11352539 109.76538086 130.11352539 107.44873047 130.22705078 C106.44849854 130.22181396 105.4482666 130.21657715 104.41772461 130.21118164 C103.33813477 130.20795898 102.25854492 130.20473633 101.14624023 130.20141602 C100.00993164 130.19303711 98.87362305 130.1846582 97.70288086 130.17602539 C96.56270508 130.17151367 95.4225293 130.16700195 94.24780273 130.16235352 C91.42027735 130.15052287 88.59285446 130.13403949 85.76538086 130.11352539 C85.75120117 128.99977539 85.73702148 127.88602539 85.72241211 126.73852539 C85.15293814 104.68722799 77.76341045 86.56539181 61.76538086 71.11352539 C47.05125369 57.43743189 28.17258508 52.50539984 8.53491211 52.84008789 C-10.74370793 53.62601751 -27.65883569 62.99801655 -40.85961914 76.73852539 C-54.86162862 92.94616115 -57.61751154 110.36064447 -59.23461914 131.11352539 C-67.15461914 130.78352539 -75.07461914 130.45352539 -83.23461914 130.11352539 C-83.13020508 127.99172852 -83.02579102 125.86993164 -82.91821289 123.68383789 C-82.84773401 121.59541899 -82.7932588 119.50713958 -82.74023438 117.41821289 C-82.69536442 115.98237441 -82.6342359 114.54693787 -82.55566406 113.11254883 C-82.14748483 105.46118909 -82.00320523 99.5133256 -87.41821289 93.47290039 C-88.99527328 91.98899247 -90.59866957 90.53224707 -92.23461914 89.11352539 C-93.28133016 88.04524359 -94.31757524 86.9664502 -95.33618164 85.87133789 C-97.03875644 84.09496728 -98.74724279 82.32424637 -100.46118164 80.55883789 C-102.23461914 78.11352539 -102.23461914 78.11352539 -102.04077148 76.32470703 C-100.99822339 73.46511949 -99.60443973 70.94148201 -98.10961914 68.28930664 C-97.48571289 67.1787793 -96.86180664 66.06825195 -96.21899414 64.92407227 C-95.73076172 64.0635022 -95.73076172 64.0635022 -95.23266602 63.18554688 C-94.23351617 61.4240809 -93.24131598 59.65884359 -92.25024414 57.89282227 C-87.3861128 49.26501905 -87.3861128 49.26501905 -86.23461914 48.11352539 C-81.06766762 48.38547021 -76.34171277 49.29376397 -71.33691406 50.61962891 C-61.85513724 53.63489961 -61.85513724 53.63489961 -52.23461914 53.11352539 C-49.64449375 51.3838031 -47.36380252 49.45315876 -45.01977539 47.40258789 C-42.00693308 44.92639491 -38.86148409 42.91464867 -35.48461914 40.98852539 C-34.43790039 40.38782227 -33.39118164 39.78711914 -32.31274414 39.16821289 C-29.83955227 37.79212341 -27.59226158 36.91539336 -24.86669922 36.07470703 C-17.35063934 33.5661003 -17.35063934 33.5661003 -12.1862793 27.8371582 C-10.54377185 23.93426978 -9.47371299 19.89447476 -8.42211914 15.80102539 C-8.01783759 14.39001303 -7.60836501 12.98047722 -7.19360352 11.57250977 C-6.44363703 9.01624314 -5.73266229 6.46026846 -5.04394531 3.88574219 C-3.95000733 0.13863336 -3.95000733 0.13863336 0 0 Z " fill="#1E6A8A" transform="translate(269.234619140625,54.886474609375)"/>
<path d="M0 0 C0.928125 1.485 0.928125 1.485 1.875 3 C3.60769183 6.08047383 3.60769183 6.08047383 5.8828125 6.609375 C8.16353251 6.76086194 9.81896923 6.69721476 12 6 C14.56680314 3.15269289 14.56680314 3.15269289 16 0 C25.96706356 0.23782581 33.60683418 3.84656605 42 9 C41.91621094 9.68707031 41.83242187 10.37414062 41.74609375 11.08203125 C41.64425781 11.98308594 41.54242188 12.88414062 41.4375 13.8125 C41.33308594 14.70582031 41.22867188 15.59914063 41.12109375 16.51953125 C40.84341291 19.13375572 40.84341291 19.13375572 42 22 C43.41543415 22.19658808 44.83244031 22.38187546 46.25 22.5625 C47.03890625 22.66691406 47.8278125 22.77132813 48.640625 22.87890625 C51.00532874 23.00027349 52.7511037 22.69633257 55 22 C65.60043089 40.35349685 65.60043089 40.35349685 64 48 C63.01 48.639375 62.02 49.27875 61 49.9375 C60.01 50.618125 59.02 51.29875 58 52 C57.16666667 55.5 57.16666667 55.5 58 59 C59.86708505 61.36497439 61.32061431 62.66030715 64 64 C64 74.03035476 59.68314721 81.40178439 55 90 C54.32453125 89.88140625 53.6490625 89.7628125 52.953125 89.640625 C47.43468108 88.70629703 47.43468108 88.70629703 42.375 90.5625 C39.98381993 94.80141013 40.80498233 98.49196588 42 103 C33.42492846 107.74419638 25.93188734 111.10867678 16 112 C15.34 110.02 14.68 108.04 14 106 C10.59961015 105.64957815 7.3854069 105.4587594 4 106 C1.28963084 108.80996083 1.28963084 108.80996083 0 112 C-9.65293157 111.51735342 -17.83625696 108.09489073 -26 103 C-25.835 102.484375 -25.67 101.96875 -25.5 101.4375 C-24.82777261 98.16039147 -24.6967181 95.33610088 -25 92 C-26.51894806 89.90235835 -26.51894806 89.90235835 -29 89 C-32.5969067 88.70025778 -35.54316039 89.07618941 -39 90 C-48 73.31067961 -48 73.31067961 -48 64 C-47.01 63.443125 -46.02 62.88625 -45 62.3125 C-41.93060594 60.39848416 -41.93060594 60.39848416 -41.390625 58.10546875 C-41.23861411 55.82952793 -41.30416995 54.17669914 -42 52 C-44.84730711 49.43319686 -44.84730711 49.43319686 -48 48 C-47.67739301 38.64439721 -44.18526809 29.77790214 -39 22 C-38.32453125 22.11859375 -37.6490625 22.2371875 -36.953125 22.359375 C-31.43468108 23.29370297 -31.43468108 23.29370297 -26.375 21.4375 C-23.98381993 17.19858987 -24.80498233 13.50803412 -26 9 C-23.98407347 7.8662308 -21.96200253 6.74338359 -19.9375 5.625 C-18.81214844 4.99851562 -17.68679687 4.37203125 -16.52734375 3.7265625 C-11.373707 1.20396289 -5.7786967 -1.02732386 0 0 Z " fill="#B1E2E6" transform="translate(102,322)"/>
<path d="M0 0 C1.44632812 -0.01836914 1.44632812 -0.01836914 2.921875 -0.03710938 C17.36969372 -0.06655466 30.90273974 4.90991826 41.25 15.1875 C51.06171274 26.83254315 56.49770957 38.68308598 56.328125 54.08984375 C56.32248535 54.77622925 56.3168457 55.46261475 56.31103516 56.1697998 C56.29647158 57.84242687 56.27405923 59.51498257 56.25 61.1875 C55.20658447 61.19160889 54.16316895 61.19571777 53.08813477 61.19995117 C49.179444 61.22188949 45.27173903 61.27632806 41.36352539 61.34008789 C39.67905193 61.36314079 37.99443693 61.37763351 36.30981445 61.38305664 C33.87362759 61.39244047 31.43962798 61.43362885 29.00390625 61.48046875 C28.26290176 61.4765361 27.52189728 61.47260345 26.75843811 61.46855164 C16.10610326 61.75914232 9.35640121 68.49889913 2.27734375 75.76953125 C1.46882462 76.58371017 0.66030548 77.3978891 -0.17271423 78.23674011 C-2.72893415 80.8151809 -5.27081649 83.40723706 -7.8125 86 C-9.55310433 87.76068761 -11.29463205 89.52046287 -13.03710938 91.27929688 C-17.28547407 95.57153924 -21.5221849 99.87502013 -25.75 104.1875 C-54.60981509 79.61349113 -54.60981509 79.61349113 -56.55078125 66.9765625 C-56.61652344 65.72617188 -56.68226563 64.47578125 -56.75 63.1875 C-56.79946777 62.45756836 -56.84893555 61.72763672 -56.89990234 60.97558594 C-57.46937379 51.71244291 -57.19294415 42.92082174 -53.75 34.1875 C-53.43289062 33.3625 -53.11578125 32.5375 -52.7890625 31.6875 C-46.59292301 17.62533946 -34.76129566 8.80464326 -20.8125 3.3125 C-13.55333442 0.64874787 -7.70395829 0.00506839 0 0 Z " fill="#D9D9D9" transform="translate(282.75,123.8125)"/>
<path d="M0 0 C0.71224696 -0.00085442 1.42449392 -0.00170885 2.15832412 -0.00258917 C4.55673631 -0.00424277 6.95507931 0.00127545 9.35348511 0.00672913 C11.06804401 0.00701105 12.78260303 0.00685316 14.49716187 0.00628662 C19.16219442 0.00599885 23.82720143 0.01189233 28.49222803 0.01886058 C33.36361214 0.02509746 38.23499679 0.02569818 43.10638428 0.02688599 C52.33572442 0.02999831 61.56505276 0.03821038 70.7943877 0.04823548 C81.29967396 0.05939967 91.80496077 0.06490784 102.31025147 0.06993091 C123.92476693 0.08039307 145.53927176 0.09799061 167.15377808 0.12025452 C167.15377808 0.78025452 167.15377808 1.44025452 167.15377808 2.12025452 C165.70187664 3.46680164 165.70187664 3.46680164 163.68373108 5.06967163 C160.33495793 7.89356761 157.78369647 10.79467626 155.19670105 14.32550049 C148.82226553 22.53275134 142.39258689 29.83507527 131.80620819 31.68327802 C121.4919121 32.97392039 111.05067557 32.58214146 100.68691421 32.24952722 C95.83896948 32.11671745 90.99064219 32.10579769 86.14115906 32.08099365 C76.99133865 32.0161554 67.84689433 31.84446547 58.69942409 31.63265437 C48.27184735 31.39653282 37.84399024 31.28212482 27.41439855 31.17705023 C5.99121009 30.95853721 -15.42716513 30.59005767 -36.84622192 30.12025452 C-35.90282252 29.01103738 -34.95818185 27.90287589 -34.01303101 26.79515076 C-33.48711994 26.17792837 -32.96120888 25.56070599 -32.41936111 24.92477989 C-30.21843544 22.40012966 -27.88448399 20.02874571 -25.51809692 17.65931702 C-25.04301697 17.18328033 -24.56793701 16.70724365 -24.07846069 16.21678162 C-23.08821143 15.22585954 -22.09672933 14.23616797 -21.10403442 13.24769592 C-19.58201181 11.73109502 -18.0654858 10.20914128 -16.54934692 8.68666077 C-15.58091792 7.71889153 -14.6121793 6.75143199 -13.64309692 5.78431702 C-12.77007935 4.91242737 -11.89706177 4.04053772 -10.99758911 3.14222717 C-7.33038362 -0.30441331 -4.96372311 -0.00357102 0 0 Z " fill="#F9B33F" transform="translate(313.8462219238281,200.87974548339844)"/>
<path d="M0 0 C15.6381376 -0.16374783 31.27604259 -0.28707081 46.91482544 -0.3626852 C54.17674471 -0.39873259 61.43813035 -0.44784968 68.69970703 -0.52807617 C75.03124325 -0.59799397 81.36239291 -0.643042 87.69430447 -0.65861946 C91.04541024 -0.66772197 94.39453772 -0.69271089 97.74545288 -0.7401104 C101.4924244 -0.79099978 105.23711298 -0.79792013 108.984375 -0.79467773 C110.63839073 -0.83242813 110.63839073 -0.83242813 112.32582092 -0.87094116 C119.08216918 -0.80776621 122.60810565 0.36585628 127.38651276 5.22341251 C127.91896355 5.80968638 128.45141434 6.39596025 129 7 C129.9712764 7.93760534 130.94685235 8.8707882 131.92773438 9.79833984 C132.80751953 10.67699707 133.68730469 11.5556543 134.59375 12.4609375 C135.30924011 13.17499252 135.30924011 13.17499252 136.03918457 13.9034729 C137.02832562 14.89194281 138.01624307 15.88163867 139.00292969 16.87255859 C140.52163266 18.39671027 142.04572512 19.91533044 143.5703125 21.43359375 C144.53677987 22.40072046 145.50293779 23.36815653 146.46875 24.3359375 C147.33951172 25.20782715 148.21027344 26.0797168 149.10742188 26.97802734 C151 29 151 29 151 30 C135.44860905 30.66006465 119.901111 31.15061042 104.33911514 31.45074081 C97.10909836 31.59394747 89.88795547 31.78898396 82.66357422 32.11230469 C30.14569732 34.41799097 30.14569732 34.41799097 15.66550827 21.86323929 C9.5354849 16.00656734 4.17654306 9.38376103 0 2 C0 1.34 0 0.68 0 0 Z " fill="#FAB43F" transform="translate(85,201)"/>
<path d="M0 0 C1.17618394 0.9677137 2.34319316 1.94670416 3.5 2.9375 C4.45712891 3.66453125 4.45712891 3.66453125 5.43359375 4.40625 C18.61477537 14.88952895 28.37090697 33.39582619 30.5 49.9375 C32.26858435 74.0768384 28.49387365 96.39984263 13.1796875 115.890625 C-0.76676536 131.89188439 -20.46266369 140.99704828 -41.5 142.9375 C-61.96800354 144.32019011 -81.47929949 138.61207036 -97.19921875 125.05859375 C-97.95847656 124.35863281 -98.71773437 123.65867187 -99.5 122.9375 C-100.35207031 122.16535156 -101.20414063 121.39320313 -102.08203125 120.59765625 C-115.99460346 107.39427063 -125.05013823 89.04966776 -125.73828125 69.78515625 C-126.18768443 46.43835884 -120.6499632 26.48162439 -104.5 8.9375 C-76.94282221 -19.44860359 -31.98487724 -23.12085118 0 0 Z M-80.5 -2.0625 C-81.90378906 -1.43214844 -81.90378906 -1.43214844 -83.3359375 -0.7890625 C-99.85660484 7.40026544 -110.58025169 21.86260963 -116.57421875 39 C-120.93700892 52.84311479 -121.36932975 66.72830417 -118.5 80.9375 C-118.31566406 81.86949219 -118.13132812 82.80148437 -117.94140625 83.76171875 C-113.87386381 101.0677223 -103.21983861 116.06216524 -88.5 125.9375 C-68.85549993 137.17989943 -47.33647415 139.53019583 -25.46875 133.93359375 C-7.96969068 129.12428369 5.95349233 118.45827376 15.5 102.9375 C26.12547799 83.18037539 28.53350199 61.53108609 22.5 39.9375 C17.06718205 22.80814459 5.39057863 8.74593478 -10.04296875 -0.2734375 C-32.0512814 -11.66305015 -57.976615 -12.26929978 -80.5 -2.0625 Z " fill="#1D6684" transform="translate(157.5,314.0625)"/>
<path d="M0 0 C4.13239988 0.86091664 5.41998892 2.29838347 8 5.625 C8.70351052 8.6651772 8.65468035 11.6135801 8.59375 14.72265625 C8.59379028 15.59393661 8.59383057 16.46521698 8.59387207 17.36289978 C8.58852446 19.19944497 8.57097407 21.03599017 8.54199219 22.87231445 C8.50008407 25.68186373 8.50092993 28.48901851 8.5078125 31.29882812 C8.49732113 33.08595414 8.48438331 34.87306782 8.46875 36.66015625 C8.46854858 37.49877701 8.46834717 38.33739777 8.46813965 39.20143127 C8.39748466 42.68443139 8.32551886 45.01903504 6.65820312 48.12280273 C1.99095752 52.35094794 -5.99285895 50.93523168 -11.875 51 C-13.15503906 51.03738281 -14.43507813 51.07476562 -15.75390625 51.11328125 C-26.27106833 51.21218873 -26.27106833 51.21218873 -29.34375 48.32421875 C-31.53498974 44.75311814 -31.74798582 42.73892203 -31 38.625 C-28.85190402 36.21107179 -27.15541367 34.79941475 -23.90234375 34.30834961 C-21.48518312 34.23154595 -19.1037209 34.27583387 -16.6875 34.375 C-15.85154297 34.39304687 -15.01558594 34.41109375 -14.15429688 34.4296875 C-12.10236772 34.47658874 -10.05103244 34.54832589 -8 34.625 C-8.02618408 33.77268799 -8.05236816 32.92037598 -8.0793457 32.04223633 C-8.16481492 28.86472873 -8.22736789 25.6878089 -8.2746582 22.50952148 C-8.29972617 21.13692898 -8.33379082 19.76446898 -8.37719727 18.39233398 C-8.43817531 16.41449304 -8.46361009 14.43565816 -8.48828125 12.45703125 C-8.51446533 11.26827393 -8.54064941 10.0795166 -8.56762695 8.85473633 C-7.6836632 3.82507765 -4.99734079 1.04111267 0 0 Z " fill="#020303" transform="translate(110,335.375)"/>
<path d="M0 0 C1.22404541 -0.00478363 2.44809082 -0.00956726 3.70922852 -0.01449585 C6.2947722 -0.01789528 8.88035884 -0.00869013 11.46582031 0.01220703 C15.42350096 0.03896784 19.37834508 0.01245625 23.3359375 -0.01953125 C25.84896459 -0.01622716 28.36198992 -0.00982097 30.875 0 C32.05843994 -0.01012115 33.24187988 -0.02024231 34.46118164 -0.03067017 C43.58952758 0.09957071 43.58952758 0.09957071 46.71484375 2.98291016 C48.4375 5.6640625 48.4375 5.6640625 48.5625 9.2265625 C47.15790062 13.51839395 46.36635677 14.42966005 42.4375 16.6640625 C38.32556798 17.27594775 34.24493523 17.24819425 30.09375 17.23046875 C28.29097595 17.23976662 28.29097595 17.23976662 26.45178223 17.24925232 C23.91333831 17.25634933 21.37484784 17.25317866 18.83642578 17.24047852 C14.95127822 17.22661168 11.06853799 17.26069219 7.18359375 17.29882812 C4.71614524 17.2997793 2.24869372 17.29792059 -0.21875 17.29296875 C-1.96109924 17.31285606 -1.96109924 17.31285606 -3.73864746 17.33314514 C-11.77044585 17.24033573 -11.77044585 17.24033573 -15.79492188 14.31225586 C-17.5625 11.6640625 -17.5625 11.6640625 -18.1875 8.6640625 C-17.54400013 5.5752631 -16.72804859 3.88497284 -14.42773438 1.71612549 C-10.13269046 -0.70644231 -4.78994887 -0.04096517 0 0 Z " fill="#030200" transform="translate(301.5625,397.3359375)"/>
<path d="M0 0 C1.20422104 0.00233139 2.40844208 0.00466278 3.64915466 0.00706482 C6.19187516 0.01679836 8.73457408 0.03857603 11.27709961 0.0715332 C15.17268918 0.12095541 19.0670158 0.13301534 22.96289062 0.13867188 C25.43360721 0.15275742 27.90431281 0.16896165 30.375 0.1875 C32.12509117 0.19554405 32.12509117 0.19554405 33.91053772 0.20375061 C35.53758888 0.2277317 35.53758888 0.2277317 37.19750977 0.25219727 C38.6271682 0.26815697 38.6271682 0.26815697 40.08570862 0.28443909 C42.77225577 0.57493911 44.36752441 1.08439448 46.62109375 2.55859375 C48.62109375 5.55859375 48.62109375 5.55859375 48.43359375 9.05859375 C47.64950215 12.43621909 47.35284396 13.5917336 44.62109375 15.55859375 C42.08334498 16.82746814 40.26568784 16.71330685 37.42456055 16.75146484 C35.79728279 16.77555923 35.79728279 16.77555923 34.13713074 16.80014038 C29.1735389 16.84451978 24.21008163 16.88565201 19.24633789 16.90869141 C16.62645592 16.92525957 14.0066193 16.95256044 11.38696289 16.99072266 C7.61450693 17.04541316 3.84311121 17.06735446 0.0703125 17.08203125 C-1.68615349 17.11603531 -1.68615349 17.11603531 -3.47810364 17.15072632 C-11.59028204 17.12959881 -11.59028204 17.12959881 -15.61791992 14.21337891 C-17.37890625 11.55859375 -17.37890625 11.55859375 -18.00390625 8.55859375 C-16.01092421 -1.00772003 -7.95695555 -0.13343982 0 0 Z " fill="#010100" transform="translate(301.37890625,424.44140625)"/>
</svg>
