<?xml version="1.0" encoding="UTF-8"?>
<svg version="1.1" xmlns="http://www.w3.org/2000/svg" width="512" height="512">
<path d="M0 0 C1.57183044 -0.01407143 1.57183044 -0.01407143 3.17541504 -0.02842712 C4.30153198 -0.01719315 5.42764893 -0.00595917 6.58789062 0.00561523 C7.74913452 0.00416 8.91037842 0.00270477 10.10681152 0.00120544 C12.56130483 0.002865 15.01580847 0.01443244 17.47021484 0.03515625 C21.22994126 0.06409967 24.9882571 0.05576747 28.74804688 0.04272461 C31.13216832 0.04896225 33.51628531 0.05735339 35.90039062 0.06811523 C37.02650757 0.0651796 38.15262451 0.06224396 39.31286621 0.05921936 C40.36075317 0.07190353 41.40864014 0.08458771 42.48828125 0.09765625 C43.40887329 0.10305923 44.32946533 0.10846222 45.2779541 0.11402893 C48.23594073 0.57901907 49.59285103 1.44361605 51.74414062 3.50170898 C52.86230469 6.56103516 52.86230469 6.56103516 53.75976562 10.29467773 C54.11475024 11.65908735 54.47420188 13.02234099 54.83764648 14.38452148 C55.02455048 15.08996094 55.21145447 15.79540039 55.40402222 16.5222168 C58.26322346 28.62767937 58.26322346 28.62767937 65.56835938 38.08374023 C68.83544328 39.84492712 72.25563304 40.93759538 75.83154297 41.89770508 C78.87825305 42.85986499 81.35272784 44.5497311 83.99414062 46.31420898 C84.82429688 46.8569043 85.65445312 47.39959961 86.50976562 47.95874023 C88.74414062 49.50170898 88.74414062 49.50170898 90.75195312 51.23608398 C92.65520925 52.69582623 92.65520925 52.69582623 94.90820312 52.49780273 C95.7203125 52.3134668 96.53242188 52.12913086 97.36914062 51.93920898 C98.32691406 51.73553711 99.2846875 51.53186523 100.27148438 51.32202148 C102.14355145 50.87980091 104.01532379 50.4362787 105.88525391 49.98510742 C107.44114654 49.61058349 108.99815552 49.24067196 110.55615234 48.875 C112.10664824 48.50896824 113.65412138 48.12981371 115.19775391 47.73583984 C125.05816214 45.38869305 125.05816214 45.38869305 129.74414062 47.50170898 C132.34065185 50.15476408 133.96854334 53.26215891 135.74414062 56.50170898 C136.71413693 58.16192374 137.68419165 59.82210488 138.65557861 61.48150635 C140.41953831 64.51509215 142.14182544 67.57216411 143.86914062 70.62670898 C144.92627001 72.48793404 145.98430315 74.3486422 147.04266357 76.20916748 C148.0361356 77.95962709 149.02353024 79.71353155 150.01074219 81.4675293 C151.37084961 83.84829197 152.78496094 86.16941132 154.23632812 88.49389648 C155.95225519 91.91685979 156.39872568 93.73150202 155.74414062 97.50170898 C154.02148438 100.24780273 154.02148438 100.24780273 151.68164062 102.93920898 C150.86050781 103.89053711 150.039375 104.84186523 149.19335938 105.82202148 C146.68919832 108.5618213 144.14916654 111.2262679 141.44726562 113.77124023 C140.88523437 114.34229492 140.32320313 114.91334961 139.74414062 115.50170898 C138.89045898 116.27216553 138.03677734 117.04262207 137.15722656 117.83642578 C133.30230152 122.48702164 134.21254802 128.15333596 134.43164062 133.87670898 C134.45419922 134.99432617 134.47675781 136.11194336 134.5 137.26342773 C134.55870684 140.01090788 134.64077217 142.7556066 134.74414062 145.50170898 C135.80379028 145.49504715 136.86343994 145.48838531 137.9552002 145.48152161 C147.95965355 145.42060771 157.96406909 145.37568703 167.96866608 145.34627247 C173.11167656 145.33064159 178.25453687 145.3094504 183.39746094 145.27539062 C188.3641456 145.24270526 193.33068615 145.22483659 198.29747009 145.21707726 C200.18882006 145.21155021 202.08016247 145.20075728 203.97145081 145.18451881 C206.62827367 145.16262247 209.28450713 145.15974714 211.94140625 145.16113281 C212.71680756 145.15034698 213.49220886 145.13956116 214.29110718 145.12844849 C220.35029026 145.16246364 226.01168046 146.22033807 230.80273438 150.22045898 C231.25777344 150.80827148 231.7128125 151.39608398 232.18164062 152.00170898 C232.65472656 152.58952148 233.1278125 153.17733398 233.61523438 153.78295898 C235.60225103 156.80817465 235.97490837 159.65551872 236.11914062 163.18920898 C236.168125 163.99745117 236.21710938 164.80569336 236.26757812 165.63842773 C234.90899848 173.07006116 230.19560911 177.13331953 224.44628906 181.4772644 C213.12318023 190.29338411 203.31544525 199.2243285 201.33203125 214.05157471 C200.15632942 225.57483512 200.53913559 237.19491413 200.9033699 248.75192881 C201.05726068 254.59266656 201.05195035 260.43340452 201.06420898 266.27584839 C201.11028331 277.3064764 201.2906708 288.33036218 201.52386951 299.35845649 C201.83441922 314.35049258 201.9514971 329.34380639 202.07518387 344.3383348 C202.10514414 347.94902225 202.13579769 351.55970264 202.16699219 355.17037964 C202.18201436 356.92646414 202.18201436 356.92646414 202.19734001 358.71802509 C202.26092396 365.64995693 202.35675662 372.58051449 202.48329639 379.51157975 C202.56142367 383.81446305 202.62895814 388.11748585 202.69594383 392.42055511 C202.73018862 394.41002463 202.76996211 396.39940808 202.81575966 398.38864517 C202.8782252 401.10997528 202.92166747 403.83101904 202.96118164 406.55276489 C202.98444645 407.33301313 203.00771126 408.11326136 203.03168106 408.91715348 C203.10012943 415.95527746 201.44511729 421.92594432 197.55664062 427.81420898 C189.96191884 435.07138758 182.63687401 435.07970575 172.61587524 435.00964355 C171.17811273 435.01425671 169.74035493 435.02061241 168.30260694 435.02855253 C164.36475274 435.0452143 160.42728749 435.0370138 156.4894321 435.02460766 C152.23694682 435.01554568 147.98452773 435.02953314 143.73205566 435.04052734 C135.40377954 435.05830949 127.07564767 435.0544726 118.74736591 435.04287678 C111.97233648 435.03383548 105.19734742 435.0326215 98.42231369 435.03697205 C97.45721819 435.03758498 96.49212269 435.03819791 95.49778187 435.03882942 C93.53694729 435.04010837 91.57611272 435.04140523 89.61527817 435.04271978 C71.22662602 435.05412626 52.83805361 435.04101397 34.44941454 435.01951832 C18.69914644 435.00167567 2.94899639 435.0047279 -12.80126953 435.02319336 C-31.10956439 435.04464792 -49.41778916 435.05299777 -67.72609484 435.0407443 C-69.68268815 435.03947019 -71.63928146 435.03821271 -73.59587479 435.03697205 C-74.55842066 435.03635494 -75.52096653 435.03573784 -76.51268046 435.03510204 C-83.26802667 435.03166075 -90.02332817 435.03745166 -96.77866745 435.04689026 C-105.02862374 435.05816393 -113.27842799 435.05495944 -121.52836709 435.03376728 C-125.73114059 435.02332416 -129.93366157 435.01901802 -134.13643265 435.03236389 C-167.3510469 435.12882029 -194.65333177 430.69825429 -219.25585938 406.50170898 C-220.01640625 405.75405273 -220.77695313 405.00639648 -221.56054688 404.23608398 C-238.81749667 386.20287001 -246.86297254 361.92964381 -246.60742188 337.23706055 C-245.7774391 310.57386381 -235.09086243 288.10322027 -216.25585938 269.50170898 C-215.5675 268.81463867 -214.87914062 268.12756836 -214.16992188 267.41967773 C-200.17393293 254.33903828 -178.69888636 244.50170898 -159.25585938 244.50170898 C-156.10505103 221.23941754 -156.10505103 221.23941754 -163.19921875 199.77563477 C-169.55271024 191.85828224 -177.3534026 185.04493228 -185.36798096 178.84718323 C-190.26742444 174.9702959 -192.48977225 171.37683303 -193.72460938 165.13061523 C-193.81572494 159.10559834 -192.21085495 155.06595975 -188.25585938 150.50170898 C-182.19712543 145.67945135 -177.43356609 145.35392192 -169.90722656 145.38818359 C-168.6481398 145.38796455 -168.6481398 145.38796455 -167.36361694 145.38774109 C-164.59329633 145.38843692 -161.82304322 145.39621391 -159.05273438 145.40405273 C-157.13031043 145.40591808 -155.20788601 145.40734144 -153.28546143 145.40834045 C-148.22858363 145.41215641 -143.1717346 145.42197886 -138.11486816 145.43304443 C-132.95353586 145.44327834 -127.7921989 145.44784232 -122.63085938 145.45288086 C-112.50584674 145.46360194 -102.38085545 145.48066733 -92.25585938 145.50170898 C-92.27036133 144.6212793 -92.28486328 143.74084961 -92.29980469 142.83374023 C-92.31108398 141.67229492 -92.32236328 140.51084961 -92.33398438 139.31420898 C-92.34848633 138.1656543 -92.36298828 137.01709961 -92.37792969 135.83374023 C-92.26760959 132.82244285 -91.83180029 130.38081138 -91.00585938 127.50170898 C-90.54305047 123.6491376 -91.21110203 122.56342219 -93.54492188 119.34545898 C-96.11664804 116.45476232 -98.85353086 113.7417674 -101.64013672 111.05932617 C-111.32844856 101.7194305 -111.32844856 101.7194305 -113.69335938 96.06420898 C-113.24741982 92.43298692 -112.47194623 90.77135891 -110.70117188 87.63842773 C-110.15614014 86.66446045 -109.6111084 85.69049316 -109.04956055 84.68701172 C-108.16167847 83.11028687 -108.16167847 83.11028687 -107.25585938 81.50170898 C-106.02356831 79.25791717 -104.79315575 77.01309284 -103.56445312 74.76733398 C-102.59980277 73.01823193 -101.63514484 71.26913363 -100.66918945 69.52075195 C-100.01518898 68.33514088 -99.36286135 67.1486056 -98.7121582 65.96118164 C-96.60388322 62.11522483 -94.44936284 58.29964338 -92.25585938 54.50170898 C-91.82805176 53.72633789 -91.40024414 52.9509668 -90.95947266 52.15209961 C-88.92418639 48.8146724 -87.54664314 47.59644397 -83.80273438 46.37670898 C-77.59199934 46.12011524 -71.4808923 48.01595589 -65.50585938 49.50170898 C-63.09639835 50.09323804 -60.68499746 50.6769363 -58.27148438 51.25170898 C-57.21219727 51.51467773 -56.15291016 51.77764648 -55.06152344 52.04858398 C-51.15096928 52.68015277 -49.23477285 52.18797525 -46.02148438 49.93530273 C-45.19132813 49.2765918 -44.36117187 48.61788086 -43.50585938 47.93920898 C-38.80418551 44.42566081 -34.00496499 41.62329418 -28.75585938 39.00170898 C-28.06137695 38.65164795 -27.36689453 38.30158691 -26.65136719 37.94091797 C-23.67970138 36.49119146 -21.60411511 35.50170898 -18.25585938 35.50170898 C-17.99546875 34.2500293 -17.73507813 32.99834961 -17.46679688 31.70874023 C-16.21950077 26.11125235 -14.59255117 20.65998254 -12.88085938 15.18920898 C-12.44386719 13.72644531 -12.44386719 13.72644531 -11.99804688 12.23413086 C-11.70414063 11.29504883 -11.41023437 10.3559668 -11.10742188 9.38842773 C-10.84783691 8.54497803 -10.58825195 7.70152832 -10.32080078 6.83251953 C-8.05649314 1.87668619 -5.4061141 0.00097581 0 0 Z M4.74414062 17.50170898 C3.63736855 20.79250523 2.53421829 24.08450526 1.43164062 27.37670898 C1.12291016 28.29452148 0.81417969 29.21233398 0.49609375 30.15795898 C0.18994141 31.07319336 -0.11621094 31.98842773 -0.43164062 32.93139648 C-0.89437378 34.30884033 -0.89437378 34.30884033 -1.36645508 35.71411133 C-2.5069503 39.28868569 -3.45852806 42.90708063 -4.36914062 46.54663086 C-5.25585938 48.50170898 -5.25585938 48.50170898 -7.04321289 49.55419922 C-8.46369728 49.9821879 -9.90173448 50.35266734 -11.34570312 50.69311523 C-15.12686951 51.7437212 -18.49502377 53.32793968 -22.00585938 55.06420898 C-22.69309082 55.40347412 -23.38032227 55.74273926 -24.08837891 56.09228516 C-30.1192829 59.19669687 -35.16292371 63.08400483 -40.29101562 67.49780273 C-44.50946479 70.34900751 -47.73455966 70.90592782 -52.77612305 70.09765625 C-55.64299368 69.48377887 -58.47827625 68.79180219 -61.31835938 68.06420898 C-63.24522345 67.58024646 -65.17358487 67.10219996 -67.10351562 66.63061523 C-67.94922119 66.41477783 -68.79492676 66.19894043 -69.66625977 65.9765625 C-72.57418146 65.44333843 -75.30576771 65.42398298 -78.25585938 65.50170898 C-80.42631229 69.12204728 -82.580265 72.75154067 -84.71948242 76.39038086 C-85.44939936 77.6267476 -86.18375138 78.86050716 -86.92260742 80.09155273 C-87.98428948 81.86221278 -89.02963568 83.64165575 -90.07226562 85.42358398 C-91.0227478 87.0260498 -91.0227478 87.0260498 -91.99243164 88.66088867 C-93.42470827 91.31144026 -93.42470827 91.31144026 -93.15942383 93.64941406 C-92.05505537 95.91335449 -90.74501019 97.41470699 -88.98242188 99.21655273 C-88.32242188 99.90297852 -87.66242188 100.5894043 -86.98242188 101.29663086 C-86.28890625 102.00368164 -85.59539062 102.71073242 -84.88085938 103.43920898 C-74.53693801 114.04561707 -74.53693801 114.04561707 -73.92773438 119.36889648 C-73.95351562 120.36147461 -73.97929687 121.35405273 -74.00585938 122.37670898 C-74.03164062 123.43374023 -74.05742187 124.49077148 -74.08398438 125.57983398 C-74.28078135 128.92538262 -74.76488596 132.18763842 -75.25585938 135.50170898 C-75.25585938 138.80170898 -75.25585938 142.10170898 -75.25585938 145.50170898 C-67.33585937 145.83170898 -59.41585937 146.16170898 -51.25585938 146.50170898 C-51.17335937 143.84108398 -51.09085938 141.18045898 -51.00585938 138.43920898 C-50.07099902 119.58647667 -43.7110607 101.50565411 -30.12304688 88.06030273 C-25.8266555 84.22632951 -21.300709 81.25274065 -16.25585938 78.50170898 C-15.26005859 77.92356445 -15.26005859 77.92356445 -14.24414062 77.33374023 C3.14476974 67.81905343 25.77040091 66.72581606 44.64648438 72.12280273 C62.86508579 77.96092769 76.76265319 89.15860112 85.86914062 106.06420898 C91.93372423 118.74903176 93.45920289 131.68862833 94.74414062 145.50170898 C102.33414063 145.50170898 109.92414063 145.50170898 117.74414062 145.50170898 C117.74414062 138.62192482 117.59540317 133.09899374 116.74414062 126.50170898 C116.62835822 124.94127791 116.54566853 123.37808096 116.49414062 121.81420898 C116.45546875 120.7565332 116.45546875 120.7565332 116.41601562 119.67749023 C117.15746147 114.76099814 120.66851376 111.2862818 123.93164062 107.75170898 C124.71796875 106.89319336 125.50429688 106.03467773 126.31445312 105.15014648 C127.11625 104.27616211 127.91804687 103.40217773 128.74414062 102.50170898 C130.26835908 100.79639526 131.78944728 99.08827586 133.30664062 97.37670898 C133.96792969 96.63163086 134.62921875 95.88655273 135.31054688 95.11889648 C135.78363281 94.58522461 136.25671875 94.05155273 136.74414062 93.50170898 C131.76303116 83.92367136 126.5266476 74.62146067 120.74414062 65.50170898 C113.5191914 65.96043592 106.79775993 67.32019889 99.81079102 69.12963867 C91.90619984 71.12016758 91.90619984 71.12016758 87.74414062 70.50170898 C85.24983467 68.91468859 83.08350623 67.35253161 80.80664062 65.50170898 C75.69787458 61.55182282 70.59435137 58.06056737 64.86914062 55.06420898 C64.24362305 54.73469238 63.61810547 54.40517578 62.97363281 54.06567383 C59.5685276 52.31600428 56.15857304 50.90595503 52.55664062 49.62670898 C49.20327451 48.14397061 47.99602461 46.8113142 46.55664062 43.43920898 C45.91650411 41.47138193 45.31998499 39.48930082 44.74414062 37.50170898 C43.96561367 35.01883922 43.17527091 32.5398604 42.38549805 30.06054688 C41.83598519 28.32266187 41.29438012 26.58225527 40.76098633 24.83935547 C40.51437256 24.03570557 40.26775879 23.23205566 40.01367188 22.40405273 C39.68266479 21.31338501 39.68266479 21.31338501 39.3449707 20.20068359 C38.87793334 18.4918708 38.87793334 18.4918708 37.74414062 17.50170898 C35.29583636 17.41327105 32.87593464 17.38642147 30.42773438 17.40405273 C29.69667984 17.40546768 28.96562531 17.40688263 28.2124176 17.40834045 C25.8687843 17.4139549 23.52524523 17.42650977 21.18164062 17.43920898 C19.59635554 17.44422213 18.01106897 17.44878536 16.42578125 17.45288086 C12.53186453 17.46392902 8.63801857 17.48120327 4.74414062 17.50170898 Z M-22.953125 104.99438477 C-31.35438637 114.71503463 -34.83552207 126.24258859 -34.63085938 138.87670898 C-34.61998291 139.79282959 -34.60910645 140.7089502 -34.59790039 141.65283203 C-34.17093246 159.86100028 -26.8278676 167.11586891 -14.31835938 179.50170898 C-13.44373047 180.37182617 -12.56910156 181.24194336 -11.66796875 182.13842773 C-9.53288488 184.26184448 -7.39548732 186.38287276 -5.25585938 188.50170898 C-0.25137176 184.32175846 4.38494626 179.94835365 8.92773438 175.27514648 C10.2808003 173.89970396 11.63433004 172.52471757 12.98828125 171.15014648 C15.09048708 169.01084435 17.18943947 166.8686897 19.28051758 164.71850586 C21.320348 162.6239197 23.37288906 160.54249106 25.42773438 158.46264648 C26.04257187 157.82402679 26.65740936 157.1854071 27.2908783 156.5274353 C35.03960087 148.73293186 42.37174701 146.48819008 53.23242188 146.18530273 C53.93562057 146.16452164 54.63881927 146.14374054 55.36332703 146.12232971 C57.5943388 146.05730784 59.82546131 145.99817122 62.05664062 145.93920898 C63.57553197 145.89597863 65.09441239 145.85236294 66.61328125 145.80834961 C70.32345182 145.70167565 74.03374484 145.60027677 77.74414062 145.50170898 C77.62034705 143.1534226 77.48748384 140.80620884 77.34960938 138.45874023 C77.27637451 137.15138916 77.20313965 135.84403809 77.12768555 134.49707031 C76.00824561 120.03957797 69.28098695 107.32635946 58.74414062 97.50170898 C34.02201003 78.22682751 -1.86597715 82.57642319 -22.953125 104.99438477 Z M-175.25585938 162.50170898 C-169.19079101 174.81105423 -160.20092801 186.95006942 -147.25585938 192.50170898 C-129.48388749 197.19581895 -109.30281597 195.13710947 -91.04654717 194.37440467 C-83.86048179 194.07955483 -76.67365658 193.93979248 -69.48301578 193.81012273 C-54.73447797 193.54082952 -39.99538387 193.08580808 -25.25585938 192.50170898 C-26.20733216 191.38606142 -27.15960575 190.27109678 -28.11221313 189.15641785 C-28.6424238 188.53544818 -29.17263447 187.91447851 -29.71891212 187.27469158 C-33.17751133 183.28494099 -36.92083013 179.56798857 -40.63085938 175.81420898 C-41.44296875 174.9730957 -42.25507813 174.13198242 -43.09179688 173.26538086 C-44.29835937 172.04625 -44.29835937 172.04625 -45.52929688 170.80249023 C-46.24520996 170.07199463 -46.96112305 169.34149902 -47.69873047 168.58886719 C-54.76862291 162.81833916 -60.91927891 161.92631051 -69.90429688 162.04760742 C-71.04663284 162.04702332 -72.18896881 162.04643921 -73.36592102 162.0458374 C-77.12121544 162.04861197 -80.87570454 162.07967602 -84.63085938 162.11108398 C-87.24258999 162.11854856 -89.85432622 162.12424047 -92.46606445 162.12823486 C-98.62477216 162.1406308 -104.78319336 162.17340592 -110.94177532 162.21363282 C-117.95750623 162.25845654 -124.97325134 162.28036409 -131.98908997 162.30041456 C-146.41149373 162.34214205 -160.83367254 162.41242762 -175.25585938 162.50170898 Z M38.67626953 168.21313477 C38.15618317 168.73022003 37.6360968 169.2473053 37.10025024 169.78005981 C36.29362442 170.60520584 36.29362442 170.60520584 35.47070312 171.44702148 C34.90209564 172.01750214 34.33348816 172.58798279 33.74765015 173.17575073 C32.55593052 174.37415723 31.367796 175.57613853 30.18310547 176.78149414 C28.36102138 178.6349681 26.52826085 180.47733738 24.69335938 182.31811523 C23.53517696 183.48545894 22.37760257 184.65340628 21.22070312 185.82202148 C20.67080719 186.3761673 20.12091125 186.93031311 19.55435181 187.50125122 C16.93226259 189.65132279 16.93226259 189.65132279 15.74414062 192.50170898 C38.07567928 193.15960899 60.40559357 193.65135745 82.74489975 193.9524498 C93.12117615 194.09605955 103.49139023 194.29129068 113.86376953 194.61401367 C122.91885608 194.89561331 131.96955194 195.07429926 141.02889562 195.13618684 C145.81627665 195.17231092 150.59111575 195.25525052 155.37441254 195.46215057 C173.01461047 196.1965509 187.91595422 196.68210259 201.55775762 184.21376729 C207.838685 178.11637892 213.45413978 171.46597034 218.74414062 164.50170898 C218.41414062 163.84170898 218.08414063 163.18170898 217.74414062 162.50170898 C195.68254082 162.43163269 173.62095937 162.37872755 151.55927086 162.34627247 C141.31568049 162.33080258 131.07215927 162.30971069 120.82861328 162.27539062 C111.90049971 162.24549205 102.97243622 162.22613487 94.04427397 162.2194435 C89.31672887 162.21553203 84.58932704 162.20633692 79.86182785 162.18451881 C75.41150927 162.16414647 70.96139289 162.15787671 66.5110321 162.16238594 C64.87840806 162.16156108 63.24577721 162.15559984 61.61319351 162.14409256 C59.38172326 162.12913642 57.1510135 162.1327663 54.91952515 162.14094543 C53.67141745 162.13818006 52.42330975 162.13541468 51.1373806 162.1325655 C46.13644837 162.67660647 42.21024341 164.65043906 38.67626953 168.21313477 Z M-142.25585938 209.50170898 C-142.25585938 221.05170898 -142.25585938 232.60170898 -142.25585938 244.50170898 C-139.22398437 245.05858398 -136.19210938 245.61545898 -133.06835938 246.18920898 C-109.72494648 250.7365043 -88.43935728 262.404225 -74.70996094 282.3815918 C-59.43877074 305.72600316 -53.5798023 333.79531016 -58.77758789 361.28759766 C-63.30314628 382.58390302 -74.83461697 402.00869348 -92.41992188 415.07592773 C-93.02578125 415.54643555 -93.63164062 416.01694336 -94.25585938 416.50170898 C-94.25585938 416.83170898 -94.25585938 417.16170898 -94.25585938 417.50170898 C-67.52585937 417.50170898 -40.79585937 417.50170898 -13.25585938 417.50170898 C-13.25585938 348.86170898 -13.25585938 280.22170898 -13.25585938 209.50170898 C-55.82585937 209.50170898 -98.39585937 209.50170898 -142.25585938 209.50170898 Z M3.74414062 209.50170898 C3.74414062 278.14170898 3.74414062 346.78170898 3.74414062 417.50170898 C33.21726562 417.58420898 62.69039063 417.66670898 93.05664062 417.75170898 C102.37438721 417.788125 111.69213379 417.82454102 121.29223633 417.86206055 C129.62019815 417.8754355 129.62019815 417.8754355 137.94816589 417.88348389 C141.66729714 417.88722146 145.38620168 417.90225432 149.10527039 417.92401123 C153.84347756 417.95136475 158.58135313 417.95968922 163.31963193 417.95399809 C165.06212382 417.95518883 166.80462683 417.96316997 168.54705107 417.97856951 C170.89440702 417.99835812 173.24046134 417.99371115 175.58784485 417.98272705 C176.90508702 417.98641422 178.2223292 417.99010139 179.5794878 417.9939003 C182.72829583 417.7692335 182.72829583 417.7692335 184.66886139 415.98574829 C186.20457486 412.43804413 186.14732288 409.07255631 186.10490417 405.27606201 C186.10746745 404.43959963 186.11003072 403.60313725 186.11267167 402.74132752 C186.11761888 399.93437147 186.10110123 397.12795154 186.0847168 394.32104492 C186.08387073 392.31062838 186.08434527 390.30021092 186.08604431 388.28979492 C186.08690647 382.82731517 186.06924489 377.3650323 186.04832244 371.90259838 C186.02959248 366.19575684 186.0278081 360.48891099 186.02424622 354.78204346 C186.01491493 343.97317983 185.99028645 333.16440703 185.96019775 322.35558343 C185.9204239 307.75111164 185.90420762 293.14661509 185.88669109 278.54210281 C185.85846617 255.52857015 185.79870377 232.51522916 185.74414062 209.50170898 C125.68414062 209.50170898 65.62414062 209.50170898 3.74414062 209.50170898 Z M-201.25585938 279.50170898 C-202.26712891 280.29834961 -202.26712891 280.29834961 -203.29882812 281.11108398 C-216.47143583 291.81223531 -225.27763344 308.94174579 -228.25585938 325.50170898 C-228.48273438 326.61545898 -228.70960938 327.72920898 -228.94335938 328.87670898 C-230.8784831 351.32414415 -225.07752016 370.30694215 -212.25585938 388.50170898 C-211.55203125 389.5168457 -211.55203125 389.5168457 -210.83398438 390.55249023 C-199.72804079 404.91480616 -180.04488283 415.09290418 -162.25585938 417.50170898 C-140.1809831 419.34454174 -120.24206704 414.80511702 -102.25585938 401.50170898 C-101.61132812 401.04280273 -100.96679688 400.58389648 -100.30273438 400.11108398 C-85.98467601 389.00455273 -77.37234943 370.44415214 -74.55322266 352.89575195 C-71.78830051 330.63563165 -76.03702205 309.1991969 -89.38085938 290.93920898 C-90.32841867 289.78445005 -91.28616492 288.63794376 -92.25585938 287.50170898 C-92.90748047 286.63739258 -92.90748047 286.63739258 -93.57226562 285.75561523 C-104.32891328 271.99568703 -123.23535158 263.65981165 -140.25585938 261.50170898 C-163.31521062 260.0793611 -183.3562746 264.06983396 -201.25585938 279.50170898 Z " fill="#000000" transform="translate(261.255859375,38.498291015625)"/>
<path d="M0 0 C13.70384191 10.88543595 24.61225306 26.96362112 27.05273438 44.55175781 C29.3751973 68.1134338 25.69527849 89.76853778 10.89306641 108.73632812 C-2.25508321 123.69878799 -20.86778199 132.43376081 -40.73193359 133.73632812 C-62.02470646 135.02484691 -80.58492359 128.29413912 -96.57568359 114.23632812 C-111.31145188 100.31021744 -118.69418201 82.82610953 -119.91552734 62.71289062 C-120.39113218 41.39460327 -113.31946323 22.2932822 -98.73193359 6.73632812 C-72.97386116 -18.14724185 -29.13125365 -21.25505623 0 0 Z M-77.73193359 12.73632812 C-78.98203639 15.60937881 -78.98203639 15.60937881 -78.16943359 18.11132812 C-77.63489169 21.31857955 -78.23025407 22.89104061 -79.73193359 25.73632812 C-82.8959524 27.31833753 -86.27068196 26.7980138 -89.73193359 26.73632812 C-90.72193359 26.73632812 -91.71193359 26.73632812 -92.73193359 26.73632812 C-99.28414344 38.60793527 -99.28414344 38.60793527 -101.73193359 51.73632812 C-100.94818359 52.00445312 -100.16443359 52.27257812 -99.35693359 52.54882812 C-96.73193359 53.73632812 -96.73193359 53.73632812 -94.73193359 56.73632812 C-94.37565382 60.08535803 -94.36888389 62.06468616 -95.98193359 65.04882812 C-97.94075736 66.9376939 -99.12623617 67.19257722 -101.73193359 67.73632812 C-99.4905865 81.62871916 -99.4905865 81.62871916 -91.73193359 92.73632812 C-89.12088563 92.94280309 -86.67924383 92.86224276 -84.07177734 92.61914062 C-81.73193359 92.73632812 -81.73193359 92.73632812 -79.97021484 94.08007812 C-78.30843132 96.30277911 -77.99427499 97.98174343 -77.73193359 100.73632812 C-78.16943359 103.54882812 -78.16943359 103.54882812 -78.73193359 105.73632812 C-71.23183791 110.97994803 -62.91146402 114.74394646 -53.73193359 115.73632812 C-53.27818359 114.76695312 -52.82443359 113.79757812 -52.35693359 112.79882812 C-50.73193359 109.73632812 -50.73193359 109.73632812 -48.73193359 108.73632812 C-45.38273496 108.44509346 -43.37436524 108.37170476 -40.41943359 110.04882812 C-38.73193359 111.73632812 -38.73193359 111.73632812 -37.73193359 114.73632812 C-27.70157884 114.73632812 -20.3301492 110.41947533 -11.73193359 105.73632812 C-12.06193359 105.07632813 -12.39193359 104.41632813 -12.73193359 103.73632812 C-13.19565645 96.43269309 -13.19565645 96.43269309 -11.57177734 93.99414062 C-8.99672912 92.23370426 -7.12974193 92.43993489 -4.04443359 92.54882812 C-3.05056641 92.57589844 -2.05669922 92.60296875 -1.03271484 92.63085938 C-0.27345703 92.66566406 0.48580078 92.70046875 1.26806641 92.73632812 C2.40083909 90.55256047 3.52429429 88.36475684 4.64306641 86.17382812 C5.11873047 85.26020508 5.11873047 85.26020508 5.60400391 84.328125 C8.34948923 78.92295076 10.26806641 73.88917093 10.26806641 67.73632812 C8.81400391 67.21039063 8.81400391 67.21039063 7.33056641 66.67382812 C4.26806641 64.73632812 4.26806641 64.73632812 3.20556641 61.36132812 C3.27405143 57.38919651 3.70661272 55.73941175 6.26806641 52.73632812 C8.45556641 51.92382812 8.45556641 51.92382812 10.26806641 51.73632812 C9.57649873 42.40016453 6.09713884 34.66980426 1.26806641 26.73632812 C0.50880859 26.77113281 -0.25044922 26.8059375 -1.03271484 26.84179688 C-2.02658203 26.86886719 -3.02044922 26.8959375 -4.04443359 26.92382812 C-5.03056641 26.95863281 -6.01669922 26.9934375 -7.03271484 27.02929688 C-9.73193359 26.73632812 -9.73193359 26.73632812 -11.57568359 25.58007812 C-13.19682426 22.99501598 -13.0261334 21.07198932 -12.91943359 18.04882812 C-12.87882812 16.55802734 -12.87882812 16.55802734 -12.83740234 15.03710938 C-12.80259766 14.27785156 -12.76779297 13.51859375 -12.73193359 12.73632812 C-24.55845375 6.02034037 -24.55845375 6.02034037 -37.73193359 4.73632812 C-38.20630859 5.54070312 -38.68068359 6.34507812 -39.16943359 7.17382812 C-40.73193359 9.73632812 -40.73193359 9.73632812 -44.16943359 10.67382812 C-49.24481416 10.76286989 -49.24481416 10.76286989 -51.73193359 8.73632812 C-52.98193359 6.11132812 -52.98193359 6.11132812 -53.73193359 3.73632812 C-61.98246169 3.73632812 -71.1799667 8.01596173 -77.73193359 12.73632812 Z " fill="#000000" transform="translate(155.73193359375,318.263671875)"/>
<path d="M0 0 C2.90000514 0.60739327 4.18543046 2.06343542 5.90234375 4.3984375 C7.51927439 7.63229877 7.08671043 11.17645606 7.10546875 14.73046875 C7.11116882 15.55923019 7.1168689 16.38799164 7.1227417 17.24186707 C7.13219623 18.99790163 7.13872748 20.75395397 7.14257812 22.51000977 C7.15226781 25.18993346 7.18327965 27.86908503 7.21484375 30.54882812 C7.22137548 32.25520378 7.22662529 33.96158492 7.23046875 35.66796875 C7.24281555 36.46709183 7.25516235 37.2662149 7.2678833 38.08955383 C7.24960421 42.68174649 6.87412482 45.6629105 3.90234375 49.3984375 C-0.48476161 51.59199018 -6.39721991 50.62554023 -11.2734375 50.63867188 C-13.45741979 50.64836984 -15.6404577 50.67938881 -17.82421875 50.7109375 C-19.21483817 50.71746858 -20.60546431 50.72271864 -21.99609375 50.7265625 C-23.26114746 50.7359082 -24.52620117 50.74525391 -25.82958984 50.75488281 C-29.31244614 50.37501054 -30.69923692 49.9092714 -33.09765625 47.3984375 C-34.16761521 43.54658526 -34.46766725 41.32346499 -32.97265625 37.5859375 C-30.71256286 34.94916188 -29.41980002 34.39552776 -26.09765625 33.3984375 C-23.2877168 33.26083028 -20.58763701 33.20832177 -17.78515625 33.2734375 C-17.04458984 33.28246094 -16.30402344 33.29148437 -15.54101562 33.30078125 C-13.72642158 33.32419537 -11.91199554 33.36006135 -10.09765625 33.3984375 C-10.11860352 32.54088867 -10.13955078 31.68333984 -10.16113281 30.79980469 C-10.22942152 27.60925278 -10.27951138 24.41907404 -10.31738281 21.22802734 C-10.33746267 19.8486707 -10.36473291 18.46939881 -10.39941406 17.09033203 C-10.44808442 15.10486771 -10.46852043 13.11877496 -10.48828125 11.1328125 C-10.50922852 9.93881836 -10.53017578 8.74482422 -10.55175781 7.51464844 C-9.62828904 1.17746813 -5.77080865 -0.27940601 0 0 Z " fill="#000000" transform="translate(112.09765625,335.6015625)"/>
<path d="M0 0 C1.0213353 -0.00953201 2.04267059 -0.01906403 3.09495544 -0.02888489 C4.7341671 -0.02751778 4.7341671 -0.02751778 6.40649414 -0.02612305 C7.5393837 -0.03040817 8.67227325 -0.0346933 9.8394928 -0.03910828 C12.23250664 -0.0448447 14.62553791 -0.04535692 17.01855469 -0.04101562 C20.6748638 -0.0378563 24.33036317 -0.06132231 27.98657227 -0.08666992 C30.3140452 -0.08894307 32.64152032 -0.08964634 34.96899414 -0.08862305 C36.05977768 -0.09783279 37.15056122 -0.10704254 38.2743988 -0.11653137 C43.81084155 -0.08287031 48.03067514 0.02073062 52.75415039 3.2746582 C54.31886272 6.40408286 54.45116997 9.88548044 53.75415039 13.2746582 C51.65114729 15.91632903 50.45740744 17.14016732 47.09814453 17.78259277 C45.58401978 17.78736633 45.58401978 17.78736633 44.03930664 17.79223633 C42.31732056 17.81114929 42.31732056 17.81114929 40.56054688 17.83044434 C39.32506104 17.82234741 38.0895752 17.81425049 36.81665039 17.8059082 C35.54442627 17.80973511 34.27220215 17.81356201 32.96142578 17.81750488 C30.27101212 17.82022747 27.58205168 17.81485634 24.8918457 17.79614258 C21.44820294 17.77335182 18.00580712 17.78647789 14.56221008 17.81043243 C11.27197911 17.82838372 7.98189765 17.81580541 4.69165039 17.8059082 C3.45616455 17.81400513 2.22067871 17.82210205 0.94775391 17.83044434 C-0.20023682 17.81783569 -1.34822754 17.80522705 -2.53100586 17.79223633 C-3.54042236 17.78905396 -4.54983887 17.78587158 -5.58984375 17.78259277 C-8.95671256 17.13871277 -10.12542327 15.91187951 -12.24584961 13.2746582 C-13.57958847 9.89585309 -13.34129273 8.54508038 -12.12084961 5.0871582 C-9.06891505 0.50925636 -5.27809858 0.02718418 0 0 Z " fill="#000000" transform="translate(296.245849609375,396.725341796875)"/>
<path d="M0 0 C1.14814178 -0.01283524 2.29628357 -0.02567047 3.47921753 -0.03889465 C4.72502594 -0.04628159 5.97083435 -0.05366852 7.25439453 -0.0612793 C8.52944855 -0.06935104 9.80450256 -0.07742279 11.11819458 -0.08573914 C13.82004439 -0.09958932 16.52177178 -0.11060332 19.22363281 -0.11816406 C22.6828862 -0.12923189 26.14149689 -0.16363637 29.60052299 -0.20333576 C32.9017499 -0.23577697 36.20303251 -0.24027848 39.50439453 -0.2487793 C41.36703445 -0.27504143 41.36703445 -0.27504143 43.26730347 -0.30183411 C44.99897263 -0.29744576 44.99897263 -0.29744576 46.765625 -0.29296875 C47.78107391 -0.29883499 48.79652283 -0.30470123 49.84274292 -0.31074524 C53.22196557 0.30668444 54.39688474 1.52896396 56.51220703 4.17700195 C57.04345703 6.17700195 57.04345703 6.17700195 57.01220703 8.17700195 C57.02767578 9.16700195 57.02767578 9.16700195 57.04345703 10.17700195 C56.2663706 13.10250379 54.83416298 14.27131009 52.51220703 16.17700195 C49.85620117 16.68493652 49.85620117 16.68493652 46.79736328 16.69458008 C45.0753772 16.71349304 45.0753772 16.71349304 43.31860352 16.73278809 C42.08311768 16.72469116 40.84763184 16.71659424 39.57470703 16.70825195 C38.30248291 16.71207886 37.03025879 16.71590576 35.71948242 16.71984863 C33.02906876 16.72257122 30.34010832 16.71720009 27.64990234 16.69848633 C24.20625958 16.67569557 20.76386376 16.68882164 17.32026672 16.71277618 C14.03003575 16.73072747 10.73995429 16.71814916 7.44970703 16.70825195 C6.21422119 16.71634888 4.97873535 16.7244458 3.70581055 16.73278809 C2.55781982 16.72017944 1.4098291 16.7075708 0.22705078 16.69458008 C-0.78236572 16.69139771 -1.79178223 16.68821533 -2.83178711 16.68493652 C-6.19865592 16.04105652 -7.36736663 14.81422326 -9.48779297 12.17700195 C-10.86528351 8.68735925 -10.59894126 7.45222629 -9.17529297 3.92700195 C-6.59153689 -0.28356351 -4.69429505 0.04557998 0 0 Z " fill="#000000" transform="translate(293.48779296875,424.822998046875)"/>
</svg>
