<?xml version="1.0" encoding="UTF-8"?>
<svg version="1.1" xmlns="http://www.w3.org/2000/svg" width="512" height="512">
<path d="M0 0 C1.32268101 -0.00551503 1.32268101 -0.00551503 2.67208284 -0.01114148 C5.63282978 -0.02217228 8.59354162 -0.02602117 11.55430603 -0.02983093 C13.67495332 -0.03609611 15.79559952 -0.04274296 17.91624451 -0.04974365 C24.88665503 -0.07078256 31.85706576 -0.0811469 38.82749939 -0.09111023 C41.22817433 -0.09515806 43.62884915 -0.09927499 46.02952385 -0.10346031 C57.30999606 -0.12251277 68.59046173 -0.13674286 79.87094694 -0.14507228 C92.88516032 -0.15484082 105.89920344 -0.18115027 118.91335684 -0.22157317 C128.9763726 -0.25175501 139.03933963 -0.26654319 149.10239977 -0.26985329 C155.11052945 -0.27220169 161.11847725 -0.28113492 167.1265583 -0.30631447 C172.78270033 -0.32963573 178.43854125 -0.33381195 184.09471893 -0.32355309 C186.16547333 -0.32305858 188.23624275 -0.32935369 190.30695152 -0.34310913 C205.17410775 -0.43630659 217.07912556 0.34038688 228.35484314 11.14717102 C236.0008253 19.42905665 240.48997174 28.3397865 240.46836853 39.65986633 C240.46851456 40.3041861 240.46866058 40.94850586 240.46881104 41.61235046 C240.46811664 43.73336705 240.4603465 45.85429485 240.45249939 47.97529602 C240.45063353 49.4493149 240.44921042 50.9233344 240.44821167 52.39735413 C240.44439975 56.27056094 240.43458079 60.14373005 240.42350769 64.016922 C240.41326507 67.97179148 240.40870794 71.92666708 240.40367126 75.88154602 C240.39295732 83.63677151 240.37589683 91.39196598 240.35484314 99.14717102 C242.04589597 99.14164026 242.04589597 99.14164026 243.77111149 99.13599777 C271.19586681 99.0472201 298.62060351 98.98147775 326.04547215 98.93992233 C339.30790881 98.91929257 352.57025058 98.89116389 365.83262634 98.84541321 C377.39140938 98.80555833 388.9501237 98.77974122 400.50897354 98.77081704 C406.62994546 98.76560006 412.75072077 98.75332928 418.87162971 98.72425079 C424.63275033 98.69710326 430.3935933 98.68872482 436.1547718 98.6947403 C438.26913461 98.69363978 440.38350669 98.68568215 442.49781418 98.67034912 C445.38588708 98.6504319 448.27291335 98.65523847 451.16101074 98.66615295 C452.41443884 98.64867591 452.41443884 98.64867591 453.69318873 98.63084579 C459.3798699 98.68888851 462.67701419 99.87052702 467.35484314 103.14717102 C472.3207814 109.23727385 471.90093807 115.26047926 471.8089447 122.8754425 C471.80952881 124.14442886 471.81011292 125.41341522 471.81071472 126.72085571 C471.81185775 130.18337032 471.78841628 133.64532548 471.76041889 137.1077106 C471.73533587 140.7324936 471.73305783 144.35729082 471.72831726 147.98214722 C471.71590765 154.83856844 471.68311363 161.69473316 471.6429193 168.55104166 C471.59813858 176.35996711 471.57619877 184.16890511 471.55613756 191.97792709 C471.51437894 208.0344959 471.44325641 224.09079054 471.35484314 240.14717102 C465.74484314 240.14717102 460.13484314 240.14717102 454.35484314 240.14717102 C454.35484314 210.11717102 454.35484314 180.08717102 454.35484314 149.14717102 C443.79484314 149.14717102 433.23484314 149.14717102 422.35484314 149.14717102 C422.35484314 162.01717102 422.35484314 174.88717102 422.35484314 188.14717102 C416.41484314 190.45717102 410.47484314 192.76717102 404.35484314 195.14717102 C399.35098006 197.13778576 399.35098006 197.13778576 394.35484314 199.14717102 C394.81374939 199.72982727 395.27265564 200.31248352 395.74546814 200.91279602 C402.93072532 210.5132657 405.61033932 218.17737422 405.06016541 230.14985657 C404.20376841 239.63386601 404.20376841 239.63386601 407.50718689 248.08857727 C410.32628501 250.01240474 410.32628501 250.01240474 413.39390564 251.52607727 C422.61742529 256.57589344 426.83843627 268.50116553 429.96421814 277.99873352 C432.53595318 292.14327624 429.63189822 305.99162963 421.85093689 318.00263977 C417.82388922 323.77509191 413.37785721 328.39774504 407.35484314 332.14717102 C406.69484314 332.14717102 406.03484314 332.14717102 405.35484314 332.14717102 C405.38964783 333.1139679 405.42445251 334.08076477 405.46031189 335.07685852 C405.75294227 349.15098611 403.22660921 358.59307427 393.50718689 369.15498352 C387.75616024 374.61078293 380.41716477 379.14717102 372.35484314 379.14717102 C372.40124939 379.74142883 372.44765564 380.33568665 372.49546814 380.94795227 C372.93974497 391.15045245 369.82184489 399.28694979 363.26890564 407.08076477 C355.16883021 415.82554008 346.39443441 421.0276096 334.35484314 422.14717102 C321.04131892 422.2963886 311.39588181 418.71684957 301.35484314 410.14717102 C300.0284379 409.13799962 298.69713101 408.13511892 297.35484314 407.14717102 C296.48085876 408.03469055 296.48085876 408.03469055 295.58921814 408.94013977 C286.48750623 417.71270172 277.584565 421.7922454 264.88609314 422.28388977 C255.94261717 421.93762687 248.96915789 419.59199005 241.35484314 415.14717102 C241.35119751 415.92454117 241.34755188 416.70191132 241.34379578 417.50283813 C241.30573778 424.87247361 241.24868617 432.24161345 241.1709404 439.61092854 C241.13163448 443.39849754 241.09936428 447.18583994 241.08384705 450.97358704 C241.06856774 454.63731682 241.03392728 458.30042288 240.98653412 461.96387291 C240.97183525 463.35306018 240.96380882 464.74233656 240.96295929 466.13160133 C240.94636496 479.67682948 238.01531471 491.12115827 228.47203064 501.11982727 C224.19948084 505.06565268 219.75301571 507.98174438 214.35484314 510.14717102 C213.50573207 510.48865488 212.656621 510.83013874 211.78177929 511.1819706 C207.5751469 512.36677334 203.8149456 512.43102378 199.46917725 512.41459656 C198.58568106 512.41912767 197.70218487 512.42365878 196.79191607 512.4283272 C193.83733373 512.44096721 190.88293582 512.43935107 187.92832947 512.43769836 C185.8073859 512.44368394 183.68644451 512.45048956 181.56550598 512.45805359 C175.80703023 512.47571987 170.04861392 512.4804093 164.29011369 512.48168516 C160.69020549 512.4831072 157.09031239 512.48737787 153.49040794 512.4926796 C140.92494625 512.51118345 128.35952699 512.51934995 115.79405212 512.51777649 C104.09250172 512.51657568 92.39113594 512.53766527 80.68963224 512.56926382 C70.6350613 512.59544465 60.58055059 512.60614299 50.52594584 512.60486567 C44.5245637 512.60435648 38.52334556 512.61001586 32.52199745 512.63122177 C26.87402235 512.65063389 21.22636719 512.65070806 15.57838058 512.63618851 C13.51085504 512.63410287 11.44330931 512.63878658 9.37581825 512.65090942 C-6.83752276 512.73978362 -18.25862021 511.17881462 -30.36000061 499.49092102 C-37.52351799 491.76234248 -40.80123594 483.07717291 -40.77937794 472.68912411 C-40.78173017 471.93141288 -40.7840824 471.17370165 -40.78650591 470.39302948 C-40.79319326 467.83945897 -40.79273776 465.28593937 -40.79232788 462.73236084 C-40.79562667 460.88883689 -40.79935227 459.04531365 -40.80346936 457.20179135 C-40.81349578 452.12415934 -40.81720719 447.04653916 -40.81985867 441.96889865 C-40.82375982 436.49699136 -40.83333831 431.02509345 -40.84207153 425.55319214 C-40.86184144 412.33259385 -40.87190289 399.11199479 -40.88079932 385.89138541 C-40.88518142 379.66707201 -40.89054844 373.44275946 -40.89578819 367.21844673 C-40.91280111 346.52987949 -40.92732039 325.8413127 -40.93453693 305.15273952 C-40.93501169 303.81477773 -40.93548758 302.47681594 -40.9359646 301.13885415 C-40.93620097 300.47534936 -40.93643735 299.81184456 -40.93668089 299.12823357 C-40.93788208 295.76662612 -40.93909753 292.40501869 -40.94032288 289.04341125 C-40.9406831 288.04273181 -40.9406831 288.04273181 -40.9410506 287.02183661 C-40.94894194 265.39661948 -40.97237017 243.77145723 -41.00487882 222.14626406 C-41.03919095 199.27958617 -41.05888825 176.41293223 -41.06218117 153.54622704 C-41.064347 141.08268783 -41.0731063 128.61922926 -41.09864235 116.15571404 C-41.12033878 105.54163814 -41.12840494 94.92766247 -41.11867557 84.31356692 C-41.11412783 78.89856049 -41.11604488 73.48376092 -41.13543701 68.06878281 C-41.15304728 63.10849846 -41.15208813 58.14857221 -41.13653972 53.18828417 C-41.13416042 51.39682925 -41.13850388 49.60534968 -41.15036837 47.81393247 C-41.24528468 32.53208905 -38.86820421 21.69650543 -27.98890686 10.43232727 C-19.81484633 2.85589853 -10.91456869 -0.00243854 0 0 Z M-18.64515686 26.14717102 C-22.63853756 31.737904 -23.77056334 36.48140163 -23.76820469 43.24599838 C-23.77019574 44.50450159 -23.77218679 45.76300479 -23.77423817 47.05964446 C-23.77138512 48.45883563 -23.76843952 49.85802661 -23.76541138 51.25721741 C-23.76584733 52.74147315 -23.76672267 54.22572881 -23.76800054 55.70998406 C-23.77024086 59.79412147 -23.76623052 63.87823274 -23.76122248 67.96236682 C-23.75691155 72.36451896 -23.75836486 76.76666958 -23.75912476 81.16882324 C-23.75964958 88.79769491 -23.75650709 96.42655803 -23.75088692 104.05542755 C-23.74276634 115.08554731 -23.74015612 126.11566294 -23.73889893 137.14578536 C-23.73670929 155.04061808 -23.73005158 172.93544624 -23.72059631 190.83027649 C-23.71141992 208.21536741 -23.70435166 225.60045708 -23.7000885 242.98554993 C-23.6998205 244.06776152 -23.69955251 245.14997312 -23.69927639 246.264979 C-23.69719701 254.72834903 -23.69524007 263.19171908 -23.69332182 271.65508914 C-23.68388495 313.15245395 -23.6637674 354.64980736 -23.64515686 396.14717102 C57.86484314 396.14717102 139.37484314 396.14717102 223.35484314 396.14717102 C223.35484314 390.53717102 223.35484314 384.92717102 223.35484314 379.14717102 C221.72546814 378.61092102 220.09609314 378.07467102 218.41734314 377.52217102 C207.81561015 373.61626939 200.39524767 367.81043068 195.06968689 357.70967102 C192.19302704 351.44082088 191.34081481 346.71054475 191.29234314 339.77217102 C191.10639438 334.59411017 191.10639438 334.59411017 188.75718689 330.07685852 C186.68626158 328.6164372 184.56664511 327.38166514 182.35484314 326.14717102 C174.52878832 320.16547307 168.41994307 309.15659986 166.56968689 299.44795227 C165.16234038 284.37655052 166.91926103 270.5840494 176.35484314 258.14717102 C178.69081439 255.6200401 181.08848255 253.21740069 183.59703064 250.86201477 C184.17710876 250.29611633 184.75718689 249.7302179 185.35484314 249.14717102 C185.35484314 248.81717102 185.35484314 248.48717102 185.35484314 248.14717102 C121.66484314 248.14717102 57.97484314 248.14717102 -7.64515686 248.14717102 C-7.64515686 188.08717102 -7.64515686 128.02717102 -7.64515686 66.14717102 C63.30484314 66.14717102 134.25484314 66.14717102 207.35484314 66.14717102 C207.35484314 77.03717102 207.35484314 87.92717102 207.35484314 99.14717102 C212.63484314 99.14717102 217.91484314 99.14717102 223.35484314 99.14717102 C223.42287598 91.34921216 223.4778065 83.55141829 223.51027966 75.75324345 C223.52587262 72.13142854 223.54699267 68.50982888 223.5811615 64.88813782 C223.61398463 61.38679352 223.63174394 57.88565502 223.63947487 54.38416862 C223.64763819 52.41179485 223.67102025 50.43950276 223.69473267 48.46725464 C223.69651232 38.88080726 222.82651161 30.89367504 216.10484314 23.65107727 C210.65528517 18.96786339 204.40214383 17.01928603 197.32286072 17.03364563 C195.46127068 17.03375893 195.46127068 17.03375893 193.56207275 17.03387451 C192.20783956 17.03898111 190.85360677 17.04419711 189.49937439 17.04951477 C188.11360729 17.05138019 186.72783953 17.05280351 185.34207153 17.05380249 C181.69736404 17.05761792 178.05269649 17.06743989 174.40800476 17.07850647 C170.68781576 17.08874152 166.96762029 17.0933046 163.24742126 17.0983429 C155.94987703 17.10906304 148.65236568 17.12612777 141.35484314 17.14717102 C141.30803406 18.09326233 141.26122498 19.03935364 141.21299744 20.01411438 C141.13992371 21.26329651 141.06684998 22.51247864 140.99156189 23.79951477 C140.92412781 25.03435608 140.85669373 26.26919739 140.78721619 27.54145813 C140.01159293 34.00965681 137.3593121 39.63621334 132.54234314 44.08467102 C125.53765985 48.61711315 119.45865558 49.61407422 111.30015564 49.61592102 C110.35856598 49.62353455 109.41697632 49.63114807 108.44685364 49.63899231 C106.46520117 49.64974354 104.48349227 49.6526668 102.5018158 49.64814758 C99.49481767 49.64717586 96.49037969 49.68884274 93.48374939 49.73310852 C73.35468136 49.85954581 73.35468136 49.85954581 65.44908142 42.3327179 C60.35952439 36.95166097 59.06563153 31.64506421 58.72984314 24.33467102 C58.69117126 23.64179993 58.65249939 22.94892883 58.61265564 22.23506165 C58.51910746 20.53950087 58.4359195 18.8433739 58.35484314 17.14717102 C50.40924663 17.07742934 42.46377963 17.0242379 34.51795197 16.9917345 C30.82772959 16.97612856 27.13771779 16.9549842 23.44761658 16.92085266 C19.88143872 16.8880766 16.31546246 16.87027993 12.74914551 16.86253929 C10.73739467 16.85436003 8.72572407 16.83097009 6.71409607 16.80728149 C-3.6525997 16.80538816 -11.4176894 18.25932582 -18.64515686 26.14717102 Z M75.35484314 17.14717102 C74.52794491 26.28797208 74.52794491 26.28797208 77.10484314 30.20967102 C81.17015979 33.71036036 85.58296697 33.31809459 90.75328064 33.35029602 C91.46586029 33.35599609 92.17843994 33.36169617 92.91261292 33.36756897 C94.41710436 33.37699326 95.9216162 33.38354271 97.4261322 33.3874054 C99.71523912 33.39710911 102.00344673 33.42815437 104.29234314 33.45967102 C105.75848368 33.46620225 107.22463059 33.47145225 108.69078064 33.47529602 C109.36909943 33.48764282 110.04741821 33.49998962 110.74629211 33.51271057 C115.3389495 33.49141817 118.50560402 32.66313429 122.35484314 30.14717102 C125.02566353 25.55088623 125.02566353 25.55088623 124.35484314 17.14717102 C108.18484314 17.14717102 92.01484314 17.14717102 75.35484314 17.14717102 Z M9.35484314 83.14717102 C9.35484314 131.98717102 9.35484314 180.82717102 9.35484314 231.14717102 C69.08484314 231.14717102 128.81484314 231.14717102 190.35484314 231.14717102 C191.34484314 224.71217102 191.34484314 224.71217102 192.35484314 218.14717102 C193.46812439 214.53388977 193.46812439 214.53388977 194.66734314 211.83467102 C195.24935486 210.4792218 195.24935486 210.4792218 195.84312439 209.09638977 C197.79008128 205.29806302 200.0435778 201.73237103 202.35484314 198.14717102 C198.54779315 196.7188625 194.73918157 195.29481047 190.92906189 193.87471008 C189.63272508 193.39085691 188.33682344 192.90583617 187.04136658 192.41963196 C185.18085809 191.72158513 183.31865449 191.02806155 181.45640564 190.33467102 C180.33572693 189.91572571 179.21504822 189.4967804 178.06040955 189.06513977 C175.51535951 188.04007133 175.51535951 188.04007133 173.35484314 188.14717102 C173.35484314 175.27717102 173.35484314 162.40717102 173.35484314 149.14717102 C161.44858977 148.93741499 161.44858977 148.93741499 149.54185486 148.75923157 C148.03938861 148.72691962 146.53694472 148.69354279 145.03453064 148.65888977 C144.26632996 148.65264587 143.49812927 148.64640198 142.70664978 148.63996887 C137.88340667 148.51181507 134.54825982 147.7711057 130.35484314 145.14717102 C124.37020203 138.51554169 125.10710755 133.04969596 125.04234314 124.39717102 C124.99883728 122.48291321 124.99883728 122.48291321 124.95445251 120.52998352 C124.89097298 111.17407599 124.89097298 111.17407599 126.99937439 106.50654602 C133.73216477 99.76259015 138.6070105 99.54761286 147.97203064 99.53779602 C149.79046982 99.51299164 149.79046982 99.51299164 151.64564514 99.48768616 C155.50709604 99.43920916 159.36815307 99.41783462 163.22984314 99.39717102 C165.85225878 99.36901129 168.47465609 99.33908387 171.09703064 99.30732727 C177.51626906 99.23344943 183.93528886 99.18387227 190.35484314 99.14717102 C190.35484314 93.86717102 190.35484314 88.58717102 190.35484314 83.14717102 C130.62484314 83.14717102 70.89484314 83.14717102 9.35484314 83.14717102 Z M141.35484314 116.14717102 C141.35484314 121.42717102 141.35484314 126.70717102 141.35484314 132.14717102 C244.64484314 132.14717102 347.93484314 132.14717102 454.35484314 132.14717102 C454.35484314 126.86717102 454.35484314 121.58717102 454.35484314 116.14717102 C351.06484314 116.14717102 247.77484314 116.14717102 141.35484314 116.14717102 Z M191.35484314 149.14717102 C191.35484314 158.05717102 191.35484314 166.96717102 191.35484314 176.14717102 C195.31999939 177.54967102 199.28515564 178.95217102 203.37046814 180.39717102 C205.96955275 181.31891943 208.56859793 182.24077903 211.16758728 183.16279602 C216.10966814 184.91533094 221.05551819 186.6564618 226.00653553 188.3835907 C229.5866325 189.63313382 233.16468766 190.88843422 236.74156189 192.14717102 C237.45536451 192.39835693 238.16916714 192.64954285 238.90460014 192.90834045 C248.14706563 196.17207625 257.23439849 199.66485953 266.24937439 203.52217102 C288.08860411 213.57905127 288.08860411 213.57905127 311.10484314 211.39717102 C313.98998757 210.089547 316.83660363 208.72842206 319.66087341 207.29405212 C329.10297013 202.59676308 339.20064567 199.4418099 349.14505196 195.98901367 C355.77148831 193.68812757 362.37432864 191.32284272 368.97593689 188.95185852 C370.66633591 188.34609985 370.66633591 188.34609985 372.3908844 187.72810364 C383.05841287 183.90295548 393.70795134 180.02936399 404.35484314 176.14717102 C404.35484314 167.23717102 404.35484314 158.32717102 404.35484314 149.14717102 C334.06484314 149.14717102 263.77484314 149.14717102 191.35484314 149.14717102 Z M216.97984314 208.14717102 C210.88590483 214.43114899 207.31415424 222.50969237 207.16734314 231.33467102 C207.30996404 234.23462941 207.59581305 236.40859047 208.35484314 239.14717102 C209.65937439 239.23353821 210.96390564 239.3199054 212.30796814 239.40888977 C229.92354993 240.75147911 242.05026226 245.2273611 254.35484314 258.14717102 C253.04258505 262.08394528 251.15870374 262.97434922 247.79234314 265.33467102 C246.78042908 266.05010071 245.76851501 266.7655304 244.72593689 267.50263977 C243.94347595 268.04533508 243.16101501 268.5880304 242.35484314 269.14717102 C240.99359314 267.84779602 240.99359314 267.84779602 239.60484314 266.52217102 C231.06724472 259.36490288 222.43571511 255.84769284 211.26499939 256.56513977 C202.91639212 257.80783955 195.49283165 261.82074365 189.81968689 268.10420227 C183.89932161 276.36113838 181.39204794 285.14251971 182.97984314 295.14717102 C184.93879727 303.51488899 189.3718839 311.02877157 196.35484314 316.14717102 C203.49432538 320.34542295 203.49432538 320.34542295 211.35484314 322.14717102 C211.06609314 323.00439758 210.77734314 323.86162415 210.47984314 324.74482727 C207.00863452 335.43566771 206.37385752 341.95958023 211.35484314 352.14717102 C214.39122717 357.20781106 219.02728201 359.8415046 224.35484314 362.14717102 C225.34484314 362.14717102 226.33484314 362.14717102 227.35484314 362.14717102 C228.7370636 360.41241296 228.7370636 360.41241296 229.97984314 358.14717102 C236.35005232 348.22584278 244.59386867 343.53804778 255.35484314 339.14717102 C257.46646045 350.66881111 257.46646045 350.66881111 258.35484314 356.14717102 C257.17921814 356.64217102 256.00359314 357.13717102 254.79234314 357.64717102 C248.40796584 360.87331912 243.96391623 365.85191629 241.35484314 372.52217102 C239.35967276 379.72213369 240.42930877 386.8393569 244.06187439 393.33076477 C247.88739166 398.70498087 253.05668795 402.25772446 259.35484314 404.14717102 C267.42546969 405.26636422 273.65657695 403.78895198 280.35484314 399.14717102 C286.3581677 394.04307862 288.98829105 387.64921496 289.62155724 379.87135124 C289.72358694 375.90848987 289.72654573 371.95214083 289.69541931 367.98872375 C289.69457181 366.47017433 289.69505059 364.95162367 289.69674683 363.43307495 C289.6976034 359.33445577 289.68003282 355.23610293 289.65902495 351.13754535 C289.64020144 346.84544415 289.63850326 342.55333606 289.63494873 338.26119995 C289.62564488 330.14410144 289.60105369 322.02712494 289.57090026 313.91008002 C289.53730444 304.66459891 289.52085724 295.41911182 289.50581396 286.17358482 C289.47450256 267.16471119 289.42177452 248.15595094 289.35484314 229.14717102 C284.55072808 227.41103907 279.74649141 225.67524415 274.94215393 223.93972778 C273.31651218 223.35243269 271.69090058 222.76505413 270.06532288 222.17758179 C242.36678741 209.39091327 242.36678741 209.39091327 216.97984314 208.14717102 Z M367.19273376 207.24263 C366.56167221 207.46535583 365.93061066 207.68808167 365.28042603 207.91755676 C363.18955333 208.65640486 361.10031561 209.39976443 359.01109314 210.14326477 C357.56151073 210.65677182 356.11184325 211.17003878 354.66209412 211.68307495 C351.62165227 212.75975559 348.58196085 213.83852003 345.54283142 214.91889954 C341.64307232 216.30516865 337.74195283 217.68755877 333.8403244 219.06855679 C330.8460096 220.12864072 327.85219354 221.19012681 324.85855103 222.25210762 C323.42010528 222.76233771 321.98155767 223.27228071 320.54290771 223.78193474 C318.53378105 224.49406697 316.52527682 225.20792614 314.51695251 225.9223175 C312.80058594 226.53187538 312.80058594 226.53187538 311.04954529 227.15374756 C308.43330075 228.06201547 308.43330075 228.06201547 306.35484314 229.14717102 C306.28466748 248.92316214 306.23181309 268.69912788 306.19940662 288.47521782 C306.18395776 297.65822901 306.16290622 306.84116271 306.12852478 316.02412415 C306.09856166 324.03083129 306.07925374 332.03748228 306.07257766 340.04424393 C306.06867708 344.28119811 306.05955174 348.5179917 306.03765297 352.75489426 C306.01717842 356.74888 306.01103133 360.74264011 306.0155201 364.73667336 C306.01469977 366.19668749 306.00879969 367.65670974 305.99722672 369.11667824 C305.91984847 379.38844632 305.97759396 389.78584306 313.50328064 397.60810852 C319.52135013 402.61047008 325.76768678 405.03840127 333.61656189 404.62763977 C340.81550217 403.36448762 346.73695239 399.83351103 351.17124939 394.02998352 C354.6502847 388.49567653 356.41238802 382.72077386 355.35484314 376.14717102 C353.46505825 369.00423409 350.314058 363.59803689 344.35484314 359.14717102 C342.03452979 357.8831871 339.86380555 357.01762737 337.35484314 356.14717102 C337.57140564 355.25513977 337.78796814 354.36310852 338.01109314 353.44404602 C338.28953064 352.27357727 338.56796814 351.10310852 338.85484314 349.89717102 C339.13328064 348.73701477 339.41171814 347.57685852 339.69859314 346.38154602 C340.48740766 343.0438639 340.48740766 343.0438639 340.35484314 339.14717102 C346.36960818 341.75856367 351.99845285 344.35850472 357.35484314 348.14717102 C358.09734314 348.47717102 358.83984314 348.80717102 359.60484314 349.14717102 C361.8945104 350.45555231 362.22337409 351.78365789 363.35484314 354.14717102 C364.21382743 355.57360554 365.08892608 356.99045988 365.97984314 358.39717102 C366.42585876 359.10357727 366.87187439 359.80998352 367.33140564 360.53779602 C367.66914001 361.06888977 368.00687439 361.59998352 368.35484314 362.14717102 C374.3668604 361.84657016 378.0558237 359.08793884 382.35484314 355.14717102 C386.84864256 349.4707928 388.81375396 343.93095412 388.69078064 336.73701477 C388.03232798 331.66080417 386.1613609 326.91347457 384.35484314 322.14717102 C384.98390564 322.0002179 385.61296814 321.85326477 386.26109314 321.70185852 C392.76664194 319.99709122 397.38517065 317.67256926 402.35484314 313.14717102 C402.9851947 312.58256165 403.61554626 312.01795227 404.26499939 311.43623352 C410.31155521 305.35116461 413.06165704 297.7103772 413.51109314 289.18232727 C412.94110333 279.02225889 408.7774253 271.02883627 401.35484314 264.14717102 C392.44840128 257.47580582 384.30193614 256.26779589 373.35484314 257.14717102 C365.59297715 258.80667688 359.50223429 263.18756825 354.35484314 269.14717102 C348.85364295 278.00948636 347.5207233 285.76942032 348.35484314 296.14717102 C349.37233905 299.97722112 350.70841867 303.54561749 352.35484314 307.14717102 C350.42538286 308.51424598 348.48773837 309.86562056 346.54234314 311.20967102 C344.92392517 312.34082336 344.92392517 312.34082336 343.27281189 313.49482727 C342.3098822 314.04010071 341.34695251 314.58537415 340.35484314 315.14717102 C339.36484314 314.81717102 338.37484314 314.48717102 337.35484314 314.14717102 C336.00328064 311.41670227 336.00328064 311.41670227 334.72984314 307.95967102 C334.30445251 306.83174133 333.87906189 305.70381165 333.44078064 304.54170227 C329.30433492 291.61158958 330.94768174 278.27332428 336.47984314 266.02217102 C342.88489489 254.14613758 353.36785065 245.5348988 366.28453064 241.65498352 C371.09093814 240.47605338 375.72189789 239.90820482 380.66734314 239.58467102 C381.92160095 239.50088196 383.17585876 239.4170929 384.46812439 239.33076477 C385.42074158 239.27017883 386.37335876 239.2095929 387.35484314 239.14717102 C389.80737408 231.7895782 388.38675531 224.14649243 385.35484314 217.14717102 C382.63342023 212.71818864 379.30984698 208.53717431 375.35484314 205.14717102 C372.38823883 205.14717102 369.98684895 206.25225856 367.19273376 207.24263 Z M-23.64515686 413.14717102 C-28.71023682 450.51411389 -28.71023682 450.51411389 -16.32484436 488.60810852 C-10.01234357 494.39212087 -3.62530541 495.29627526 4.63381958 495.29434204 C5.47618253 495.29801873 6.31854547 495.30169542 7.18643457 495.30548352 C10.01365439 495.31651083 12.84083745 495.32036259 15.66807556 495.32417297 C17.69344703 495.33043833 19.71881734 495.3370852 21.7441864 495.34408569 C28.39955343 495.3651195 35.05492068 495.37548731 41.71031189 495.38545227 C44.00206832 495.38950005 46.29382464 495.39361698 48.58558083 495.39780235 C59.3524024 495.41685236 70.11921712 495.43108391 80.88605231 495.43941432 C93.31166399 495.44918706 105.73709755 495.47550845 118.16264647 495.51591522 C127.76873462 495.54608067 137.37477172 495.56088361 146.98090631 495.56419533 C152.71734381 495.56654528 158.45359098 495.57549878 164.18997765 495.60065651 C169.58839409 495.62394965 174.98649504 495.62816532 180.38494873 495.61789513 C182.36301536 495.61739997 184.34109759 495.62371454 186.31911659 495.63745117 C189.02676957 495.65519823 191.73329367 495.64805026 194.44094849 495.63491821 C195.60567185 495.65137208 195.60567185 495.65137208 196.79392499 495.66815835 C203.7755158 495.5868182 209.21665548 493.07287708 215.10484314 489.45967102 C233.40701286 470.6491077 223.35484314 431.19405601 223.35484314 413.14717102 C141.84484314 413.14717102 60.33484314 413.14717102 -23.64515686 413.14717102 Z " fill="#000000" transform="translate(40.64515686035156,-0.1471710205078125)"/>
<path d="M0 0 C3.88475543 1.29491848 7.0962949 2.42356669 10.66976929 4.21463013 C11.55308929 4.65491547 12.4364093 5.09520081 13.34649658 5.54882812 C14.29740173 6.02787598 15.24830688 6.50692383 16.22802734 7.00048828 C17.24327484 7.507966 18.25852234 8.01544373 19.30453491 8.53829956 C22.65024668 10.21185052 25.99309118 11.89104625 29.3359375 13.5703125 C31.65889304 14.73365589 33.98202579 15.89664549 36.30532837 17.05929565 C41.78900393 19.80455775 47.27088382 22.5533743 52.75190413 25.30393302 C58.99459367 28.43647302 65.23956795 31.5644451 71.4847343 34.69204354 C84.32569706 41.12296449 97.16379362 47.55959092 110 54 C110 54.66 110 55.32 110 56 C95.95551831 63.04557727 81.90876394 70.08660087 67.8592701 77.12217712 C61.33624244 80.38885232 54.81397381 83.65702633 48.29345703 86.92871094 C42.61171082 89.77953572 36.92857489 92.62756714 31.24373615 95.47222042 C28.23232732 96.97923112 25.22164418 98.48765336 22.21261978 99.99942017 C18.85728701 101.68429962 15.49952158 103.36423003 12.14111328 105.04296875 C11.13842407 105.54790863 10.13573486 106.05284851 9.10266113 106.5730896 C8.19118317 107.02745392 7.2797052 107.48181824 6.34060669 107.94995117 C5.54602114 108.34816574 4.75143559 108.74638031 3.93277168 109.15666199 C2 110 2 110 0 110 C0 73.7 0 37.4 0 0 Z M17 28 C17 45.82 17 63.64 17 82 C29.46570677 76.09519153 41.86859946 70.13272571 54.1875 63.9375 C55.73883562 63.15931247 57.2902677 62.38131719 58.84179688 61.60351562 C62.56230406 59.73787249 66.28152966 57.8696993 70 56 C70 55.34 70 54.68 70 54 C63.23848522 50.60767931 56.47590379 47.21749354 49.7119379 43.83006287 C46.57150559 42.25723264 43.43145124 40.68365727 40.29223633 39.10839844 C36.68680822 37.29923404 33.07978227 35.49327674 29.47265625 33.6875 C28.34038101 33.11878174 27.20810577 32.55006348 26.04151917 31.96411133 C25.00051559 31.44357178 23.95951202 30.92303223 22.88696289 30.38671875 C21.96540909 29.92483154 21.04385529 29.46294434 20.09437561 28.98706055 C18.23512408 27.92894709 18.23512408 27.92894709 17 28 Z " fill="#000000" transform="translate(66,102)"/>
<path d="M0 0 C1.15840393 -0.01283524 2.31680786 -0.02567047 3.51031494 -0.03889465 C4.76342468 -0.04628159 6.01653442 -0.05366852 7.30761719 -0.0612793 C9.24069733 -0.07338692 9.24069733 -0.07338692 11.21282959 -0.08573914 C13.94315458 -0.10075365 16.67345368 -0.11059694 19.40380859 -0.11816406 C22.88852002 -0.12920991 26.37258962 -0.16359298 29.85707474 -0.20333576 C33.19472899 -0.23588893 36.5323165 -0.24028825 39.87011719 -0.2487793 C41.11513 -0.26628738 42.36014282 -0.28379547 43.6428833 -0.30183411 C50.44255805 -0.28484632 54.87471081 0.00994579 60.35449219 4.17700195 C66.29582047 10.58738246 65.56836787 16.66736309 65.60449219 24.98950195 C65.62511719 26.16577148 65.64574219 27.34204102 65.66699219 28.55395508 C65.69781498 35.36964604 65.69689567 40.59646285 60.81933594 45.8215332 C56.31918459 49.26282541 54.26640823 50.30164779 48.63891602 50.35400391 C47.44039505 50.36683914 46.24187408 50.37967438 45.0070343 50.39289856 C43.05400642 50.40397896 43.05400642 50.40397896 41.06152344 50.4152832 C40.39910833 50.41935873 39.73669323 50.42343426 39.05420494 50.42763329 C35.54484748 50.4484991 32.03552913 50.46279584 28.52612305 50.47216797 C24.91247723 50.48320494 21.29945189 50.5175707 17.68602467 50.55733967 C14.89862478 50.58357724 12.11137075 50.59186628 9.32385826 50.59544945 C7.34804367 50.60265011 5.37232904 50.62906361 3.39668274 50.65583801 C-3.49052934 50.63924466 -8.1205539 50.45848922 -13.64550781 46.17700195 C-18.91012917 39.89535147 -18.24325442 33.01161313 -18.14550781 25.11450195 C-18.16097656 23.86088867 -18.17644531 22.60727539 -18.19238281 21.31567383 C-18.14417616 9.98108448 -18.14417616 9.98108448 -13.64550781 5.17700195 C-9.12742748 1.09970995 -6.01043161 0.05798769 0 0 Z M-0.64550781 17.17700195 C-0.64550781 22.45700195 -0.64550781 27.73700195 -0.64550781 33.17700195 C15.52449219 33.17700195 31.69449219 33.17700195 48.35449219 33.17700195 C48.35449219 27.89700195 48.35449219 22.61700195 48.35449219 17.17700195 C32.18449219 17.17700195 16.01449219 17.17700195 -0.64550781 17.17700195 Z " fill="#000000" transform="translate(116.6455078125,428.822998046875)"/>
<path d="M0 0 C16.5 0 33 0 50 0 C50 16.5 50 33 50 50 C33.5 50 17 50 0 50 C0 33.5 0 17 0 0 Z M17 17 C17 22.28 17 27.56 17 33 C22.28 33 27.56 33 33 33 C33 27.72 33 22.44 33 17 C27.72 17 22.44 17 17 17 Z " fill="#000000" transform="translate(165,330)"/>
<path d="M0 0 C16.5 0 33 0 50 0 C50 16.5 50 33 50 50 C33.5 50 17 50 0 50 C0 33.5 0 17 0 0 Z M17 17 C17 22.28 17 27.56 17 33 C22.28 33 27.56 33 33 33 C33 27.72 33 22.44 33 17 C27.72 17 22.44 17 17 17 Z " fill="#000000" transform="translate(99,330)"/>
<path d="M0 0 C16.5 0 33 0 50 0 C50 16.5 50 33 50 50 C33.5 50 17 50 0 50 C0 33.5 0 17 0 0 Z M17 17 C17 22.28 17 27.56 17 33 C22.28 33 27.56 33 33 33 C33 27.72 33 22.44 33 17 C27.72 17 22.44 17 17 17 Z " fill="#000000" transform="translate(33,330)"/>
<path d="M0 0 C40.92 0 81.84 0 124 0 C124 5.61 124 11.22 124 17 C83.08 17 42.16 17 0 17 C0 11.39 0 5.78 0 0 Z " fill="#000000" transform="translate(66,297)"/>
<path d="M0 0 C40.92 0 81.84 0 124 0 C124 5.61 124 11.22 124 17 C83.08 17 42.16 17 0 17 C0 11.39 0 5.78 0 0 Z " fill="#000000" transform="translate(66,264)"/>
<path d="M0 0 C5.61 0 11.22 0 17 0 C17 5.61 17 11.22 17 17 C11.39 17 5.78 17 0 17 C0 11.39 0 5.78 0 0 Z " fill="#000000" transform="translate(33,297)"/>
<path d="M0 0 C5.61 0 11.22 0 17 0 C17 5.61 17 11.22 17 17 C11.39 17 5.78 17 0 17 C0 11.39 0 5.78 0 0 Z " fill="#000000" transform="translate(33,264)"/>
<path d="M0 0 C5.61 0 11.22 0 17 0 C17 5.61 17 11.22 17 17 C11.39 17 5.78 17 0 17 C0 11.39 0 5.78 0 0 Z " fill="#000000" transform="translate(495,256)"/>
<path d="M0 0 C3.31578076 2.66879915 3.89008359 4.31607564 4.5625 8.5 C4 12 4 12 1.9375 14.9375 C-1 17 -1 17 -4.5 17.625 C-8 17 -8 17 -10.9375 15 C-13.79117716 10.84919686 -13.7099846 8.9698922 -13 4 C-10.11972098 -1.0091809 -5.24678994 -1.09749368 0 0 Z " fill="#000000" transform="translate(79,33)"/>
<path d="M0 0 C3.31578076 2.66879915 3.89008359 4.31607564 4.5625 8.5 C4 12 4 12 1.9375 14.9375 C-1.7595073 17.53327109 -3.56644342 17.71253588 -8 17 C-10.9375 15.5625 -10.9375 15.5625 -13 13 C-13.89487669 8.72186143 -13.70907738 5.26400751 -11.5625 1.4375 C-7.73599249 -0.70907738 -4.27813857 -0.89487669 0 0 Z " fill="#000000" transform="translate(46,33)"/>
</svg>
