<?xml version="1.0" encoding="UTF-8"?>
<svg version="1.1" xmlns="http://www.w3.org/2000/svg" width="512" height="512">
<path d="M0 0 C4.0237671 4.1421132 6.125 8.41272056 6.125 14.1875 C7.01251953 14.19136719 7.01251953 14.19136719 7.91796875 14.1953125 C14.20973333 14.5032292 14.20973333 14.5032292 16.765625 16.4140625 C23.89507128 24.78901446 23.82386787 35.73085435 23.125 46.1875 C22.46496997 49.68142043 21.36354345 52.18828862 18.5078125 54.4921875 C15.15564055 56.57830309 13.10636088 57.1875 9.125 57.1875 C9.14071045 57.74099121 9.1564209 58.29448242 9.17260742 58.86474609 C9.53916877 73.72826755 8.94132528 84.67474667 0.125 97.1875 C-0.3903833 97.64366699 -0.9057666 98.09983398 -1.43676758 98.56982422 C-3.20438725 100.55798378 -3.28797517 101.57263944 -3.38671875 104.19921875 C-3.42216797 104.95654297 -3.45761719 105.71386719 -3.49414062 106.49414062 C-3.51669922 107.27982422 -3.53925781 108.06550781 -3.5625 108.875 C-3.59666016 109.67228516 -3.63082031 110.46957031 -3.66601562 111.29101562 C-3.74838104 113.25601904 -3.81337067 115.22173696 -3.875 117.1875 C-2.85188721 117.33989136 -2.85188721 117.33989136 -1.80810547 117.49536133 C6.19994635 118.75247788 14.06620747 120.43909904 21.93310547 122.37182617 C23.30561862 122.70595677 24.67999605 123.03252461 26.05615234 123.35131836 C42.47455027 127.15567671 57.95565246 133.39577332 67.625 148.0625 C77.6260672 164.28516133 72.125 203.85307731 72.125 213.1875 C39.785 213.1875 7.445 213.1875 -25.875 213.1875 C-32.72399624 254.45737934 -32.72399624 254.45737934 -18.02050781 291.40869141 C-9.50152939 302.08976815 0.17635696 311.66170798 10.0625 321.0625 C10.89030598 321.85736439 11.71811195 322.65222878 12.57100296 323.47117996 C18.17063114 328.83640459 23.86469879 334.08065978 29.65234375 339.2421875 C30.41071407 339.927987 31.1690844 340.61378651 31.95043564 341.32036781 C34.10055612 343.24283569 36.28419544 345.1156365 38.48803711 346.97607422 C39.42757532 347.82269041 39.42757532 347.82269041 40.38609409 348.68640995 C43.22142412 350.99399058 44.96583407 352.23342777 48.70204449 352.08539391 C51.24083069 351.58999251 53.65476167 350.94955408 56.125 350.1875 C57.27154053 349.93081543 58.41808105 349.67413086 59.59936523 349.40966797 C61.12605835 349.04832764 61.12605835 349.04832764 62.68359375 348.6796875 C63.81087891 348.41542969 64.93816406 348.15117187 66.09960938 347.87890625 C68.43585232 347.32811688 70.77178336 346.77600312 73.10742188 346.22265625 C74.22568359 345.96097656 75.34394531 345.69929688 76.49609375 345.4296875 C78.0109436 345.07173096 78.0109436 345.07173096 79.55639648 344.70654297 C82.125 344.1875 82.125 344.1875 85.125 344.1875 C85.10242391 336.1504129 85.07189887 330.31198522 79.69140625 324.140625 C72.76252652 315.50112408 73.6857551 304.59516397 74.125 294.1875 C73.19429688 294.06632812 72.26359375 293.94515625 71.3046875 293.8203125 C67.89947993 293.14261763 66.13270259 292.25372 64.04296875 289.43359375 C60.58169058 280.96450887 62.95839022 270.43587533 65.86328125 262.12890625 C70.61533781 251.05058245 77.61564423 244.97602569 88.4765625 240.16796875 C100.51861482 235.70992283 115.5353489 237.21560826 127.125 242.1875 C131.94564289 244.76998726 135.03806798 247.73868621 138.125 252.1875 C138.4375 255.0625 138.4375 255.0625 138.125 257.1875 C139.02992188 257.31705078 139.02992188 257.31705078 139.953125 257.44921875 C143.81953462 258.12895851 146.48717136 258.66415343 149.5625 261.1875 C153.37204655 268.50182938 154.56313398 278.21025565 152.625 286.265625 C151.49120157 289.3320344 150.24442122 291.09257544 147.6875 293.125 C145.125 294.1875 145.125 294.1875 141.125 294.1875 C141.15980469 295.38246094 141.19460938 296.57742188 141.23046875 297.80859375 C141.63847775 317.31306414 141.63847775 317.31306414 134.5 325.375 C129.77595967 330.96428561 130.05481297 337.13871637 130.125 344.1875 C130.85348145 344.3006958 131.58196289 344.4138916 132.33251953 344.53051758 C175.723778 351.48687189 175.723778 351.48687189 187.125 365.1875 C199.47259544 384.01677284 193.125 395.52569618 193.125 424.1875 C136.695 424.1875 80.265 424.1875 22.125 424.1875 C22.125 371.1875 22.125 371.1875 35.125 358.1875 C2.95 326.0125 2.95 326.0125 -29.875 293.1875 C-34.10173922 295.30086961 -36.84707071 297.89166696 -40.11230469 301.19775391 C-40.72736374 301.8125209 -41.34242279 302.4272879 -41.97612 303.0606842 C-44.00448258 305.09043824 -46.02567226 307.12718075 -48.046875 309.1640625 C-49.45319697 310.57411525 -50.85996164 311.98372658 -52.26715088 313.39291382 C-55.96722618 317.10062042 -59.66125567 320.81429424 -63.35406494 324.52923584 C-67.12434253 328.31998259 -70.90029761 332.10506457 -74.67578125 335.890625 C-82.0810936 343.31737841 -89.48003232 350.75044714 -96.875 358.1875 C-95.9209307 359.30369133 -94.96641754 360.41950329 -94.01171875 361.53515625 C-93.21447388 362.46726929 -93.21447388 362.46726929 -92.40112305 363.41821289 C-91.17941448 364.83458178 -89.93680775 366.23291422 -88.6875 367.625 C-77.51920835 383.41465371 -83.875 408.21621934 -83.875 424.1875 C-140.305 424.1875 -196.735 424.1875 -254.875 424.1875 C-254.875 371.66754332 -254.875 371.66754332 -246.609375 362.80859375 C-234.08557255 351.10278741 -208.71059521 344.1875 -191.875 344.1875 C-191.78767677 335.41775296 -192.27261297 329.86691554 -198.15234375 323.2265625 C-204.88158529 315.26133782 -203.15919116 303.94472992 -202.875 294.1875 C-203.80699219 294.06375 -204.73898438 293.94 -205.69921875 293.8125 C-209.95987247 292.97399496 -211.32532058 291.6842032 -213.875 288.1875 C-216.81817975 279.01395274 -214.10808505 267.47751347 -209.9296875 259.10546875 C-204.30367675 248.87446401 -196.34756387 242.36863824 -185.16796875 239.10546875 C-172.81961542 236.14900173 -158.45655471 237.23138059 -147.40625 243.61328125 C-143.6441026 246.25087372 -140.69357088 248.86839416 -138.875 253.1875 C-138.875 254.5075 -138.875 255.8275 -138.875 257.1875 C-137.9675 257.31125 -137.06 257.435 -136.125 257.5625 C-132.54728184 258.25052272 -129.91694345 258.84357059 -127.62915039 261.79443359 C-124.89202419 267.20799888 -124.23117069 271.78456275 -124.3125 277.8125 C-124.28865234 278.63234375 -124.26480469 279.4521875 -124.24023438 280.296875 C-124.25012007 284.39614311 -124.54555617 287.36419655 -127.03515625 290.7109375 C-130.13568469 293.41483713 -131.82040596 293.99891423 -135.875 294.1875 C-135.82859375 295.28707031 -135.7821875 296.38664062 -135.734375 297.51953125 C-135.4161818 308.23729849 -135.67609956 317.52788769 -143.0625 326 C-147.39407442 331.20443576 -146.85679288 337.70576394 -146.875 344.1875 C-146.15376953 344.29489502 -145.43253906 344.40229004 -144.68945312 344.51293945 C-136.01387986 345.87251295 -127.64246236 347.95214279 -119.171875 350.24023438 C-117.64820313 350.63758789 -117.64820313 350.63758789 -116.09375 351.04296875 C-115.18560547 351.28684326 -114.27746094 351.53071777 -113.34179688 351.78198242 C-110.69514232 352.21706687 -109.39476186 352.0148732 -106.875 351.1875 C-104.49821206 349.42667144 -102.25768284 347.6421993 -100.01098633 345.72729492 C-99.32943419 345.1522843 -98.64788204 344.57727367 -97.9456768 343.98483849 C-88.97659671 336.35334802 -80.27531516 328.43129407 -71.6875 320.375 C-70.86250755 319.60319145 -70.03751511 318.8313829 -69.18752289 318.03618622 C-48.71391996 298.74203163 -32.49068347 281.88793377 -31.46411133 252.72241211 C-32.18011714 239.4816869 -34.15521002 226.33557175 -35.875 213.1875 C-68.215 213.1875 -100.555 213.1875 -133.875 213.1875 C-133.875 151.71301956 -133.875 151.71301956 -122.75 139.5 C-109.64112383 127.36215169 -91.85518323 124.32049335 -75.0625 120.375 C-74.38503723 120.21580078 -73.70757446 120.05660156 -73.00958252 119.89257812 C-61.42986985 117.1875 -61.42986985 117.1875 -57.875 117.1875 C-57.56824311 104.0738266 -57.56824311 104.0738266 -64.08984375 93.171875 C-69.19536862 87.49658696 -71.02085113 79.79442579 -70.97265625 72.32421875 C-70.96943359 71.43798828 -70.96621094 70.55175781 -70.96289062 69.63867188 C-70.95451172 68.72666016 -70.94613281 67.81464844 -70.9375 66.875 C-70.93298828 65.94365234 -70.92847656 65.01230469 -70.92382812 64.05273438 C-70.91209234 61.76425627 -70.89567363 59.47591192 -70.875 57.1875 C-72.52048828 57.00960937 -72.52048828 57.00960937 -74.19921875 56.828125 C-78.71532627 56.04104569 -80.05645943 54.73080814 -82.875 51.1875 C-87.04844186 43.15398052 -84.57019066 31.70674909 -82.1875 23.3125 C-77.87851726 10.81799451 -70.8802236 1.36534849 -59 -4.6875 C-39.76971278 -13.89494329 -17.77513483 -11.20606326 0 0 Z " fill="#5BA5F6" transform="translate(286.875,48.8125)"/>
<path d="M0 0 C4.0237671 4.1421132 6.125 8.41272056 6.125 14.1875 C7.01251953 14.19136719 7.01251953 14.19136719 7.91796875 14.1953125 C14.20973333 14.5032292 14.20973333 14.5032292 16.765625 16.4140625 C23.89507128 24.78901446 23.82386787 35.73085435 23.125 46.1875 C22.46496997 49.68142043 21.36354345 52.18828862 18.5078125 54.4921875 C15.15564055 56.57830309 13.10636088 57.1875 9.125 57.1875 C9.14856567 58.01773682 9.14856567 58.01773682 9.17260742 58.86474609 C9.53916877 73.72826755 8.94132528 84.67474667 0.125 97.1875 C-0.3903833 97.64366699 -0.9057666 98.09983398 -1.43676758 98.56982422 C-3.20438725 100.55798378 -3.28797517 101.57263944 -3.38671875 104.19921875 C-3.42216797 104.95654297 -3.45761719 105.71386719 -3.49414062 106.49414062 C-3.51669922 107.27982422 -3.53925781 108.06550781 -3.5625 108.875 C-3.59666016 109.67228516 -3.63082031 110.46957031 -3.66601562 111.29101562 C-3.74838104 113.25601904 -3.81337067 115.22173696 -3.875 117.1875 C-2.85188721 117.33989136 -2.85188721 117.33989136 -1.80810547 117.49536133 C6.19994635 118.75247788 14.06620747 120.43909904 21.93310547 122.37182617 C23.30561862 122.70595677 24.67999605 123.03252461 26.05615234 123.35131836 C42.47455027 127.15567671 57.95565246 133.39577332 67.625 148.0625 C77.6260672 164.28516133 72.125 203.85307731 72.125 213.1875 C4.145 213.1875 -63.835 213.1875 -133.875 213.1875 C-133.875 151.71301956 -133.875 151.71301956 -122.75 139.5 C-109.64112383 127.36215169 -91.85518323 124.32049335 -75.0625 120.375 C-74.38503723 120.21580078 -73.70757446 120.05660156 -73.00958252 119.89257812 C-61.42986985 117.1875 -61.42986985 117.1875 -57.875 117.1875 C-57.56824311 104.0738266 -57.56824311 104.0738266 -64.08984375 93.171875 C-69.19536862 87.49658696 -71.02085113 79.79442579 -70.97265625 72.32421875 C-70.96943359 71.43798828 -70.96621094 70.55175781 -70.96289062 69.63867188 C-70.95032227 68.2706543 -70.95032227 68.2706543 -70.9375 66.875 C-70.93298828 65.94365234 -70.92847656 65.01230469 -70.92382812 64.05273438 C-70.91209234 61.76425627 -70.89567363 59.47591192 -70.875 57.1875 C-72.52048828 57.00960937 -72.52048828 57.00960937 -74.19921875 56.828125 C-78.71532627 56.04104569 -80.05645943 54.73080814 -82.875 51.1875 C-87.04844186 43.15398052 -84.57019066 31.70674909 -82.1875 23.3125 C-77.87851726 10.81799451 -70.8802236 1.36534849 -59 -4.6875 C-39.76971278 -13.89494329 -17.77513483 -11.20606326 0 0 Z " fill="#FDC8A2" transform="translate(286.875,48.8125)"/>
<path d="M0 0 C3.7621474 2.63759247 6.71267912 5.25511291 8.53125 9.57421875 C8.53125 10.89421875 8.53125 12.21421875 8.53125 13.57421875 C9.43875 13.69796875 10.34625 13.82171875 11.28125 13.94921875 C14.85896816 14.63724147 17.48930655 15.23028934 19.77709961 18.18115234 C22.51422581 23.59471763 23.17507931 28.1712815 23.09375 34.19921875 C23.11759766 35.0190625 23.14144531 35.83890625 23.16601562 36.68359375 C23.15612993 40.78286186 22.86069383 43.7509153 20.37109375 47.09765625 C17.27056531 49.80155588 15.58584404 50.38563298 11.53125 50.57421875 C11.57765625 51.67378906 11.6240625 52.77335937 11.671875 53.90625 C11.9900682 64.62401724 11.73015044 73.91460644 4.34375 82.38671875 C0.01217558 87.59115451 0.54945712 94.09248269 0.53125 100.57421875 C1.26045654 100.68813965 1.98966309 100.80206055 2.7409668 100.91943359 C23.48677374 104.2550925 43.90938921 107.83866436 58.65625 123.88671875 C69.86391367 139.95103667 63.53125 163.55350435 63.53125 180.57421875 C7.10125 180.57421875 -49.32875 180.57421875 -107.46875 180.57421875 C-107.46875 128.05426207 -107.46875 128.05426207 -99.203125 119.1953125 C-86.67932255 107.48950616 -61.30434521 100.57421875 -44.46875 100.57421875 C-44.38142677 91.80447171 -44.86636297 86.25363429 -50.74609375 79.61328125 C-57.47533529 71.64805657 -55.75294116 60.33144867 -55.46875 50.57421875 C-56.86673828 50.38859375 -56.86673828 50.38859375 -58.29296875 50.19921875 C-62.55362247 49.36071371 -63.91907058 48.07092195 -66.46875 44.57421875 C-69.41192975 35.40067149 -66.70183505 23.86423222 -62.5234375 15.4921875 C-56.89742675 5.26118276 -48.94131387 -1.24464301 -37.76171875 -4.5078125 C-25.41336542 -7.46427952 -11.05030471 -6.38190066 0 0 Z " fill="#F29C1F" transform="translate(139.46875,292.42578125)"/>
<path d="M0 0 C1.06521378 0.24288506 1.06521378 0.24288506 2.15194702 0.49067688 C3.64659306 0.83382506 5.14069959 1.17933107 6.63427734 1.52709961 C8.86946395 2.04407991 11.10824962 2.54268477 13.34765625 3.04101562 C30.04368857 6.85708021 46.09744921 12.6675683 56.2734375 27.36328125 C61.07883068 36.65273434 61.42240974 45.51252762 61.37109375 55.765625 C61.37008667 56.72182739 61.36907959 57.67802979 61.36804199 58.66320801 C61.36284009 62.20907809 61.34887898 65.75493097 61.3359375 69.30078125 C61.3153125 77.24140625 61.2946875 85.18203125 61.2734375 93.36328125 C33.5534375 93.36328125 5.8334375 93.36328125 -22.7265625 93.36328125 C-24.54358672 86.09518438 -25.86574041 78.91169819 -27.01367188 71.52734375 C-27.35093621 69.36729237 -27.69860377 67.20908182 -28.046875 65.05078125 C-28.26626008 63.65504759 -28.48503069 62.25921718 -28.703125 60.86328125 C-28.99823975 58.9915625 -28.99823975 58.9915625 -29.29931641 57.08203125 C-30.07694271 50.31357192 -29.60743753 44.94634384 -27.7265625 38.36328125 C-26.97987404 33.18470509 -26.97987404 33.18470509 -28.94921875 28.59179688 C-30.6317447 26.89508094 -32.37448053 25.3726703 -34.2265625 23.86328125 C-34.84660156 23.32703125 -35.46664063 22.79078125 -36.10546875 22.23828125 C-37.62845553 20.92616956 -39.17527795 19.64181247 -40.7265625 18.36328125 C-39.5524304 14.84088495 -38.60220976 14.27095177 -35.6484375 12.1484375 C-34.81699219 11.54451172 -33.98554688 10.94058594 -33.12890625 10.31835938 C-32.25363281 9.69380859 -31.37835938 9.06925781 -30.4765625 8.42578125 C-28.76240639 7.18835072 -27.0488477 5.95009211 -25.3359375 4.7109375 C-24.52318359 4.13359863 -23.71042969 3.55625977 -22.87304688 2.96142578 C-20.56492825 1.31214165 -20.56492825 1.31214165 -18.1171875 -1.140625 C-13.21271845 -4.20992508 -5.40882756 -1.24034846 0 0 Z " fill="#A890E7" transform="translate(297.7265625,168.63671875)"/>
<path d="M0 0 C0.83450684 0.65234619 1.66901367 1.30469238 2.52880859 1.97680664 C3.90552734 3.04125 3.90552734 3.04125 5.31005859 4.12719727 C6.25623047 4.87291992 7.20240234 5.61864258 8.17724609 6.38696289 C10.06484492 7.8549536 11.95284789 9.32242484 13.84130859 10.78930664 C14.67355957 11.44278076 15.50581055 12.09625488 16.36328125 12.76953125 C18.04545343 14.06052242 19.7879146 15.2732419 21.55224609 16.44946289 C20.24746804 20.1196773 18.03752245 21.65797035 14.95581055 23.8984375 C12.0459238 26.10455309 9.40451205 28.26005285 7.55224609 31.44946289 C7.45217664 35.93894239 8.20772897 38.89558568 9.57177734 43.16430664 C12.3178631 52.83238241 8.94996974 64.16400485 7.39550781 73.91674805 C7.04736267 76.1051597 6.70761005 78.29476755 6.36865234 80.48461914 C6.14908843 81.88183136 5.92905437 83.2789698 5.70849609 84.67602539 C5.510625 85.9297998 5.31275391 87.18357422 5.10888672 88.4753418 C4.55224609 91.44946289 4.55224609 91.44946289 3.55224609 93.44946289 C-24.16775391 93.44946289 -51.88775391 93.44946289 -80.44775391 93.44946289 C-80.48900391 85.59133789 -80.53025391 77.73321289 -80.57275391 69.63696289 C-80.59096191 67.1789624 -80.60916992 64.72096191 -80.62792969 62.18847656 C-80.63377936 60.2064638 -80.63887379 58.2244486 -80.64306641 56.24243164 C-80.65329834 55.24070923 -80.66353027 54.23898682 -80.67407227 53.20690918 C-80.67728519 40.00019318 -78.38259839 29.70785574 -69.32275391 19.76196289 C-56.25750319 7.66450852 -38.48593077 4.59504391 -21.76025391 0.57446289 C-20.75686981 0.32925903 -20.75686981 0.32925903 -19.73321533 0.07910156 C-17.80351316 -0.38940089 -15.8698122 -0.84133636 -13.93603516 -1.29272461 C-12.80721924 -1.55939941 -11.67840332 -1.82607422 -10.51538086 -2.10083008 C-6.18386291 -2.73582061 -3.70576632 -2.34742887 0 0 Z " fill="#A890E7" transform="translate(233.44775390625,168.550537109375)"/>
<path d="M0 0 C7.29041916 6.19685629 7.29041916 6.19685629 7.8125 11 C7.709375 11.70125 7.60625 12.4025 7.5 13.125 C8.10328125 13.21136719 8.7065625 13.29773438 9.328125 13.38671875 C13.19453462 14.06645851 15.86217136 14.60165343 18.9375 17.125 C22.74704655 24.43932938 23.93813398 34.14775565 22 42.203125 C20.86620157 45.2695344 19.61942122 47.03007544 17.0625 49.0625 C14.5 50.125 14.5 50.125 10.5 50.125 C10.55220703 51.91744141 10.55220703 51.91744141 10.60546875 53.74609375 C11.0142976 73.28975647 11.0142976 73.28975647 3.875 81.25 C0.38584942 85.35865283 0.287966 87.86991036 0.5 93.1875 C0.37937311 101.75200892 -3.6548711 105.68211092 -9.6015625 111.49438477 C-10.90601403 112.73785189 -12.21619275 113.9753406 -13.53222656 115.20654297 C-16.73252387 118.32663432 -19.61666489 121.71359593 -22.5 125.125 C-23.6282554 123.9967446 -24.75614956 122.86812686 -25.8828125 121.73828125 C-27.03917449 120.5847124 -28.20129744 119.43690691 -29.3671875 118.29296875 C-33.96780808 113.75500253 -38.37183973 109.0996944 -42.5 104.125 C-43.05429687 103.526875 -43.60859375 102.92875 -44.1796875 102.3125 C-46.00749946 99.28417249 -45.80099511 96.88782547 -45.8125 93.375 C-46.11053375 87.35844362 -47.04325352 84.54029837 -50.93359375 80.078125 C-57.86247348 71.43862408 -56.9392449 60.53266397 -56.5 50.125 C-57.89605469 49.94324219 -57.89605469 49.94324219 -59.3203125 49.7578125 C-62.72552007 49.08011763 -64.49229741 48.19122 -66.58203125 45.37109375 C-70.04330942 36.90200887 -67.66660978 26.37337533 -64.76171875 18.06640625 C-60.00966219 6.98808245 -53.00935577 0.91352569 -42.1484375 -3.89453125 C-28.76249819 -8.85009285 -12.32506825 -6.60271513 0 0 Z " fill="#FDC8A2" transform="translate(417.5,292.875)"/>
<path d="M0 0 C3.7621474 2.63759247 6.71267912 5.25511291 8.53125 9.57421875 C8.53125 10.89421875 8.53125 12.21421875 8.53125 13.57421875 C9.43875 13.69796875 10.34625 13.82171875 11.28125 13.94921875 C14.85896816 14.63724147 17.48930655 15.23028934 19.77709961 18.18115234 C22.51422581 23.59471763 23.17507931 28.1712815 23.09375 34.19921875 C23.12952148 35.42898438 23.12952148 35.42898438 23.16601562 36.68359375 C23.15612993 40.78286186 22.86069383 43.7509153 20.37109375 47.09765625 C17.27056531 49.80155588 15.58584404 50.38563298 11.53125 50.57421875 C11.57765625 51.67378906 11.6240625 52.77335937 11.671875 53.90625 C11.9900682 64.62401724 11.73015044 73.91460644 4.34375 82.38671875 C1.29030131 86.05236879 1.19395292 88.85967152 1.09375 93.57421875 C0.88260276 99.60151262 0.10056114 102.36096243 -4.234375 106.5078125 C-5.34039062 107.53068359 -5.34039062 107.53068359 -6.46875 108.57421875 C-8.37552329 110.60806346 -10.2304419 112.68808793 -12.09375 114.76171875 C-15.46186259 118.46151228 -18.90890207 122.05935085 -22.46875 125.57421875 C-24.82523224 123.07639302 -27.17849016 120.5755506 -29.53125 118.07421875 C-30.51641602 117.03007812 -30.51641602 117.03007812 -31.52148438 115.96484375 C-32.84997237 114.55128016 -34.17170969 113.13134355 -35.48681641 111.70532227 C-36.80467736 110.28827271 -38.14574418 108.8924456 -39.50927734 107.51928711 C-42.67010618 104.21529463 -44.31959778 102.42562932 -45.125 97.828125 C-45.0734375 96.60996094 -45.021875 95.39179688 -44.96875 94.13671875 C-45.08905821 87.39277513 -46.31745952 84.5160067 -50.74609375 79.578125 C-57.51693619 71.7018389 -55.75117964 60.27096986 -55.46875 50.57421875 C-56.86673828 50.38859375 -56.86673828 50.38859375 -58.29296875 50.19921875 C-62.55362247 49.36071371 -63.91907058 48.07092195 -66.46875 44.57421875 C-69.41192975 35.40067149 -66.70183505 23.86423222 -62.5234375 15.4921875 C-56.89742675 5.26118276 -48.94131387 -1.24464301 -37.76171875 -4.5078125 C-25.41336542 -7.46427952 -11.05030471 -6.38190066 0 0 Z " fill="#FDC8A2" transform="translate(139.46875,292.42578125)"/>
<path d="M0 0 C4.0237671 4.1421132 6.125 8.41272056 6.125 14.1875 C7.01251953 14.19136719 7.01251953 14.19136719 7.91796875 14.1953125 C14.20973333 14.5032292 14.20973333 14.5032292 16.765625 16.4140625 C23.89507128 24.78901446 23.82386787 35.73085435 23.125 46.1875 C22.46496997 49.68142043 21.36354345 52.18828862 18.5078125 54.4921875 C15.15564055 56.57830309 13.10636088 57.1875 9.125 57.1875 C9.125 52.5675 9.125 47.9475 9.125 43.1875 C7.475 43.125625 5.825 43.06375 4.125 43 C-1.64249786 42.43803867 -5.61395568 41.1799911 -9.875 37.1875 C-12.43860926 33.98788081 -14.71205087 30.66849625 -16.875 27.1875 C-17.40722168 27.57784424 -17.93944336 27.96818848 -18.48779297 28.37036133 C-24.09866103 32.31935759 -29.47069508 34.83140763 -36 36.875 C-36.91362305 37.16898682 -37.82724609 37.46297363 -38.76855469 37.76586914 C-49.29324837 41.07028357 -59.76209206 43.77238989 -70.875 43.1875 C-70.875 47.8075 -70.875 52.4275 -70.875 57.1875 C-75.08435149 56.93989109 -77.35127827 56.60647739 -80.6875 53.9375 C-86.02742775 47.22444798 -85.08026354 40.35765422 -84.16845703 32.24902344 C-82.34366929 19.42996547 -76.25326868 7.14417266 -65.875 -0.8125 C-44.91423606 -13.49401231 -20.77401359 -13.09666074 0 0 Z " fill="#BE694F" transform="translate(286.875,48.8125)"/>
<path d="M0 0 C7.29041916 6.19685629 7.29041916 6.19685629 7.8125 11 C7.709375 11.70125 7.60625 12.4025 7.5 13.125 C8.10328125 13.21136719 8.7065625 13.29773438 9.328125 13.38671875 C13.19453462 14.06645851 15.86217136 14.60165343 18.9375 17.125 C22.74704655 24.43932938 23.93813398 34.14775565 22 42.203125 C20.86620157 45.2695344 19.61942122 47.03007544 17.0625 49.0625 C14.5 50.125 14.5 50.125 10.5 50.125 C10.5 46.165 10.5 42.205 10.5 38.125 C8.97375 38.0425 7.4475 37.96 5.875 37.875 C0.26942313 37.28993274 -3.25862635 35.78848912 -6.97265625 31.375 C-10.5 26.65877437 -10.5 26.65877437 -10.5 24.125 C-10.98726563 24.50011719 -11.47453125 24.87523437 -11.9765625 25.26171875 C-24.31617238 34.16867351 -40.40156003 38.125 -55.5 38.125 C-55.5 42.085 -55.5 46.045 -55.5 50.125 C-59.67424863 49.96130398 -62.02474534 49.46880124 -65.4375 47 C-69.3089805 41.65428023 -68.15447489 34.32110335 -67.5 28.125 C-65.42539686 17.58972483 -61.06223531 8.27178168 -52.55859375 1.47265625 C-36.8501121 -8.81088486 -16.37461172 -8.77211342 0 0 Z " fill="#BE694F" transform="translate(417.5,292.875)"/>
<path d="M0 0 C3.7621474 2.63759247 6.71267912 5.25511291 8.53125 9.57421875 C8.53125 10.89421875 8.53125 12.21421875 8.53125 13.57421875 C9.43875 13.69796875 10.34625 13.82171875 11.28125 13.94921875 C14.85896816 14.63724147 17.48930655 15.23028934 19.77709961 18.18115234 C22.51422581 23.59471763 23.17507931 28.1712815 23.09375 34.19921875 C23.12952148 35.42898438 23.12952148 35.42898438 23.16601562 36.68359375 C23.15592015 40.86985206 22.85274128 43.74335641 20.234375 47.10546875 C16.97315101 50.08392766 14.87973835 50.40368979 10.53125 50.57421875 C10.53125 46.61421875 10.53125 42.65421875 10.53125 38.57421875 C9.17 38.49171875 7.80875 38.40921875 6.40625 38.32421875 C0.86920204 37.67433049 -2.54329128 35.88919555 -6.16796875 31.53125 C-7.65251581 29.57607729 -9.08231334 27.59979288 -10.46875 25.57421875 C-11.45875 26.29609375 -12.44875 27.01796875 -13.46875 27.76171875 C-24.86950678 34.87208473 -42.22205139 38.89160497 -55.46875 38.57421875 C-55.46875 42.53421875 -55.46875 46.49421875 -55.46875 50.57421875 C-59.18365235 50.31503952 -61.21903844 49.75179141 -64.28125 47.57421875 C-68.49283868 41.7983257 -67.66228879 35.9303024 -66.78125 29.07421875 C-64.69985256 17.10269117 -59.21873244 7.88670558 -49.46875 0.57421875 C-35.2870246 -8.30310161 -14.40535048 -8.31954577 0 0 Z " fill="#BE694F" transform="translate(139.46875,292.42578125)"/>
<path d="M0 0 C3.3 0 6.6 0 10 0 C9.77896606 1.05682983 9.77896606 1.05682983 9.5534668 2.13500977 C7.72482926 11.38459091 6.61167853 20.5991919 6 30 C5.95024395 30.757897 5.9004879 31.51579399 5.84922409 32.29665756 C4.68793117 53.01629707 8.78835378 68.5855259 22.4425354 84.49539185 C30.23572723 93.19686982 38.51993525 101.35199377 47.0625 109.3125 C48.35266022 110.51534637 48.35266022 110.51534637 49.66888428 111.74249268 C60.51717317 121.80489087 71.62722851 131.53576916 83 141 C76.77522936 145.68176606 76.77522936 145.68176606 74 147 C69.67806053 145.66365518 66.76579821 142.0309509 63.67089844 138.89794922 C63.04608582 138.27342865 62.42127319 137.64890808 61.77752686 137.00546265 C59.71669931 134.9432435 57.66304347 132.8740341 55.609375 130.8046875 C54.18063275 129.37221453 52.75144785 127.94018293 51.32183838 126.50857544 C47.56257983 122.74168516 43.80936643 118.96882707 40.05737305 115.19470215 C36.22677183 111.34363269 32.39049405 107.49822729 28.5546875 103.65234375 C21.03088622 96.10710066 13.51345798 88.55554189 6 81 C1.70494237 82.65604887 -1.16153042 85.89548306 -4.32910156 89.10205078 C-4.95391418 89.72657135 -5.57872681 90.35109192 -6.22247314 90.99453735 C-8.28330069 93.0567565 -10.33695653 95.1259659 -12.390625 97.1953125 C-13.81936725 98.62778547 -15.24855215 100.05981707 -16.67816162 101.49142456 C-20.43742017 105.25831484 -24.19063357 109.03117293 -27.94262695 112.80529785 C-31.77322817 116.65636731 -35.60950595 120.50177271 -39.4453125 124.34765625 C-46.96911378 131.89289934 -54.48654202 139.44445811 -62 147 C-65.77948596 145.51911112 -69.3850182 143.84952557 -73 142 C-69.11849259 137.20702614 -65.05226703 133.13130248 -60.27612305 129.24169922 C-17.52146005 96.21286816 -17.52146005 96.21286816 3.58203125 49.28125 C4.81287479 32.88562444 3.00861819 16.11415813 0 0 Z " fill="#35BEA7" transform="translate(251,261)"/>
<path d="M0 0 C3.34618826 1.61929689 6.00905238 3.76417959 8.7421875 6.23828125 C9.29197266 6.69138672 9.84175781 7.14449219 10.40820312 7.61132812 C12.58370945 9.56523008 14.25828191 11.27821965 14.81787109 14.20849609 C14.88268095 18.8206205 13.68396644 22.78580495 12.4296875 27.17578125 C12.19061654 33.1687087 12.811369 38.79441954 13.7421875 44.70703125 C13.87536377 45.58355347 14.00854004 46.46007568 14.14575195 47.36315918 C14.56817868 50.13491694 14.99879248 52.90532869 15.4296875 55.67578125 C15.71929413 57.56632298 16.00836198 59.45694732 16.296875 61.34765625 C17.00058891 65.95819569 17.71538372 70.56682116 18.4296875 75.17578125 C5.8896875 75.17578125 -6.6503125 75.17578125 -19.5703125 75.17578125 C-19.12558594 72.41589844 -18.68085938 69.65601563 -18.22265625 66.8125 C-17.79588197 64.10554839 -17.37368365 61.39791939 -16.9519043 58.69018555 C-16.65881834 56.8245218 -16.36106248 54.95958492 -16.05834961 53.09545898 C-13.09436156 35.7854562 -13.09436156 35.7854562 -16.5078125 18.80078125 C-17.0703125 16.10546875 -17.0703125 16.10546875 -16.5703125 13.17578125 C-13.05474865 8.0194307 -6.53240797 0.44674523 0 0 Z " fill="#FDD533" transform="translate(256.5703125,186.82421875)"/>
<path d="M0 0 C1.24716797 0.63228516 1.24716797 0.63228516 2.51953125 1.27734375 C4.14955078 2.09912109 4.14955078 2.09912109 5.8125 2.9375 C7.43091797 3.75541016 7.43091797 3.75541016 9.08203125 4.58984375 C16.05734989 7.96078087 24.7075141 8.6867342 32.16943359 6.30859375 C36.60886574 4.51390829 40.81820184 2.32519841 45 0 C46.05621153 11.93686681 46.05621153 11.93686681 43.828125 16.2890625 C41.99567678 18.33965932 40.03373091 20.14828975 38 22 C36.08978228 24.03078926 34.23681264 26.11237763 32.375 28.1875 C29.0072211 31.88758233 25.55983249 35.48514734 22 39 C19.64351776 36.50217427 17.29025984 34.00133185 14.9375 31.5 C14.28072266 30.80390625 13.62394531 30.1078125 12.94726562 29.390625 C11.61844842 27.97671112 10.29679658 26.55603096 8.98217773 25.12890625 C7.66670982 23.71606228 6.32483099 22.32733251 4.95727539 20.96484375 C-0.38016449 15.43322904 -0.38016449 15.43322904 -0.68359375 10.9375 C-0.60238281 9.638125 -0.52117187 8.33875 -0.4375 7 C-0.40591797 6.32066406 -0.37433594 5.64132812 -0.34179688 4.94140625 C-0.26050476 3.29233765 -0.13498602 1.64554381 0 0 Z " fill="#FDC8A0" transform="translate(95,379)"/>
<path d="M0 0 C1.25176025 0.97851929 1.25176025 0.97851929 2.52880859 1.97680664 C3.44662109 2.68643555 4.36443359 3.39606445 5.31005859 4.12719727 C6.25623047 4.87291992 7.20240234 5.61864258 8.17724609 6.38696289 C10.06484492 7.8549536 11.95284789 9.32242484 13.84130859 10.78930664 C15.08968506 11.76951782 15.08968506 11.76951782 16.36328125 12.76953125 C18.04545343 14.06052242 19.7879146 15.2732419 21.55224609 16.44946289 C19.44029816 21.20865407 16.0090531 24.08902171 12.23974609 27.57446289 C11.57523438 28.20739258 10.91072266 28.84032227 10.22607422 29.49243164 C6.86931961 32.62009024 4.07287392 35.17284459 -0.44775391 36.44946289 C-6.30146651 29.51643234 -12.03311016 22.51034997 -17.60327148 15.34741211 C-18.032771 14.79585449 -18.46227051 14.24429688 -18.90478516 13.67602539 C-19.32066895 13.14138672 -19.73655273 12.60674805 -20.16503906 12.0559082 C-21.49609353 10.38892335 -22.87965189 8.77637339 -24.27197266 7.16040039 C-26.44775391 4.44946289 -26.44775391 4.44946289 -26.44775391 2.44946289 C-24.03119015 1.80324248 -21.61450745 1.15747285 -19.19775391 0.51196289 C-18.51583984 0.32956055 -17.83392578 0.1471582 -17.13134766 -0.04077148 C-15.23745446 -0.54642258 -13.34263363 -1.04859557 -11.44775391 -1.55053711 C-10.73103516 -1.77870117 -10.01431641 -2.00686523 -9.27587891 -2.24194336 C-5.69498516 -2.84641047 -3.02754432 -1.9178071 0 0 Z " fill="#CCBCF1" transform="translate(233.44775390625,168.550537109375)"/>
<path d="M0 0 C6.62491397 1.21499387 13.14183294 3.18505089 19.625 5 C18.32734874 7.78454333 16.89815368 10.07241613 14.9375 12.43359375 C14.40825928 13.07683594 13.87901855 13.72007812 13.33374023 14.3828125 C12.76985596 15.06085938 12.20597168 15.73890625 11.625 16.4375 C8.22772713 20.54657792 4.84538887 24.64689775 1.68359375 28.94140625 C1.23822266 29.543479 0.79285156 30.14555176 0.33398438 30.76586914 C-0.87145491 32.40992352 -2.06309739 34.06406788 -3.25390625 35.71875 C-3.95386719 36.4715625 -4.65382813 37.224375 -5.375 38 C-9.26018739 38 -11.02667209 37.8029458 -14.375 36 C-14.80296875 35.2575 -15.2309375 34.515 -15.671875 33.75 C-17.72266707 30.43862932 -20.14641521 28.26051599 -23.0625 25.6875 C-23.57361328 25.23310547 -24.08472656 24.77871094 -24.61132812 24.31054688 C-25.86076335 23.20123522 -27.11717823 22.09979322 -28.375 21 C-27.2008679 17.4776037 -26.25064726 16.90767052 -23.296875 14.78515625 C-22.46542969 14.18123047 -21.63398438 13.57730469 -20.77734375 12.95507812 C-19.90207031 12.33052734 -19.02679688 11.70597656 -18.125 11.0625 C-16.41084389 9.82506947 -14.6972852 8.58681086 -12.984375 7.34765625 C-12.17758301 6.76902832 -11.37079102 6.19040039 -10.53955078 5.59423828 C-8.80181677 4.31435974 -7.12721746 2.94897023 -5.4765625 1.55859375 C-3.375 0 -3.375 0 0 0 Z " fill="#CCBCF1" transform="translate(285.375,166)"/>
<path d="M0 0 C0.99966797 0.59748047 0.99966797 0.59748047 2.01953125 1.20703125 C13.49323086 7.80240263 24.34335153 10.99530772 37.4375 7.875 C43.41947139 6.1060456 48.66628831 3.18784702 54 0 C54.55640981 3.475844 54.73524915 6.54122231 54 10 C51.46737159 12.91191092 48.46567832 14.38335705 45 16 C44.15695312 16.4125 43.31390625 16.825 42.4453125 17.25 C33.23113676 21.18721456 23.48320103 21.49696557 14 18.25 C9.95200916 16.57127439 6.50007937 14.62505953 3 12 C2.01 11.34 1.02 10.68 0 10 C-0.29296875 7.6171875 -0.29296875 7.6171875 -0.1875 4.875 C-0.16042969 3.96492187 -0.13335937 3.05484375 -0.10546875 2.1171875 C-0.07066406 1.41851562 -0.03585938 0.71984375 0 0 Z " fill="#F1B28A" transform="translate(229,149)"/>
<path d="M0 0 C1.21236328 0.63228516 1.21236328 0.63228516 2.44921875 1.27734375 C3.51785156 1.82519531 4.58648437 2.37304688 5.6875 2.9375 C6.74324219 3.48277344 7.79898437 4.02804687 8.88671875 4.58984375 C16.18577079 7.89593884 25.17530543 8.31523388 32.89453125 6.2109375 C37.1603377 4.53531338 41.17917931 2.5472138 45 0 C45.56823284 3.15684909 45.75207454 5.86379801 45 9 C40.12160184 14.0697079 33.35762126 16.68233726 26.44921875 17.3359375 C18.62399033 17.41719636 12.75730128 17.04030306 6 13 C4.824375 12.443125 3.64875 11.88625 2.4375 11.3125 C0 9 0 9 -0.36328125 6.74609375 C-0.37399265 4.46456572 -0.26138646 2.26534932 0 0 Z " fill="#F1B289" transform="translate(372,379)"/>
<path d="M0 0 C1.24716797 0.63228516 1.24716797 0.63228516 2.51953125 1.27734375 C4.14955078 2.09912109 4.14955078 2.09912109 5.8125 2.9375 C7.43091797 3.75541016 7.43091797 3.75541016 9.08203125 4.58984375 C16.05734989 7.96078087 24.7075141 8.6867342 32.16943359 6.30859375 C36.60886574 4.51390829 40.81820184 2.32519841 45 0 C45.63703352 3.18516762 45.8499396 5.84234561 45 9 C42.00889994 11.71762805 38.67389988 13.36417597 35 15 C34.21367187 15.37511719 33.42734375 15.75023437 32.6171875 16.13671875 C24.52264127 18.80671086 14.61993754 17.77631158 7.03125 14.12109375 C6.02578125 13.56615234 6.02578125 13.56615234 5 13 C3.96875 12.443125 2.9375 11.88625 1.875 11.3125 C-0.97648007 7.79567458 -0.41898525 4.3574466 0 0 Z " fill="#F1B289" transform="translate(95,379)"/>
</svg>
