<?xml version="1.0" encoding="UTF-8"?>
<svg version="1.1" xmlns="http://www.w3.org/2000/svg" width="512" height="512">
<path d="M0 0 C0.75846605 -0.0060911 1.51693211 -0.01218221 2.29838198 -0.01845789 C4.82388811 -0.03502297 7.34888645 -0.03032148 9.87443542 -0.0255127 C11.69173707 -0.03285687 13.50903405 -0.04144411 15.32632446 -0.05117798 C20.25208556 -0.07336759 25.17767923 -0.07632588 30.10348344 -0.07443047 C34.22109604 -0.07431063 38.33867335 -0.08288021 42.45627612 -0.09120798 C52.17446262 -0.11043341 61.89256324 -0.11332922 71.61076355 -0.10656738 C81.62251465 -0.09992919 91.63389709 -0.12278408 101.64557344 -0.15988111 C110.25303986 -0.19061295 118.86038792 -0.2019343 127.46790808 -0.1980443 C132.60353337 -0.19598017 137.73887182 -0.201404 142.87444496 -0.22593689 C147.70667439 -0.24825861 152.53830614 -0.24628112 157.37053871 -0.22600937 C159.13854948 -0.22260876 160.9066009 -0.22764732 162.67455673 -0.24199295 C172.97214476 -0.31974878 181.78362615 -0.08333456 189.978055 6.95157623 C196.9620609 14.2330536 197.60942772 23.16953942 197.55241394 32.81408691 C197.56029938 34.4744548 197.56029938 34.4744548 197.56834412 36.16836548 C197.58148144 39.80505746 197.57282731 43.44130696 197.56266785 47.07800293 C197.56469052 49.61951277 197.56760356 52.16102205 197.57136536 54.70252991 C197.57578037 60.02086465 197.56967382 65.33904288 197.55534363 70.65734863 C197.53902845 76.78258529 197.54430356 82.90752213 197.56082284 89.0327515 C197.57614432 94.95357694 197.57443701 100.87431027 197.56567764 106.79515266 C197.56368336 109.30165716 197.56610764 111.80816935 197.5731163 114.31466484 C197.58077827 117.82509171 197.56905915 121.33495198 197.55241394 124.84533691 C197.55848663 125.87057968 197.56455933 126.89582245 197.57081604 127.95213318 C197.4930232 136.8571906 196.2251882 145.24859589 189.9103241 151.92565918 C184.41653746 156.54683094 178.21574615 158.5258524 171.12028503 158.50793457 C170.11954956 158.50785904 169.11881409 158.50778351 168.0877533 158.50770569 C167.01470947 158.5025444 165.94166565 158.49738312 164.83610535 158.49206543 C163.17989166 158.48994301 163.17989166 158.48994301 161.49021912 158.48777771 C157.96486193 158.48218176 154.43956833 158.46962997 150.91423035 158.45690918 C148.52360626 158.45189366 146.13298119 158.44733084 143.74235535 158.4432373 C137.88295866 158.43221365 132.02359905 158.41547951 126.16423035 158.39440918 C126.16423035 161.03440918 126.16423035 163.67440918 126.16423035 166.39440918 C126.75325134 166.37346191 127.34227234 166.35251465 127.94914246 166.33093262 C130.66649195 166.24682228 133.38356643 166.19545451 136.10173035 166.14440918 C137.49101746 166.09413574 137.49101746 166.09413574 138.90837097 166.04284668 C146.16468218 165.94100372 152.50235826 167.1058877 158.04875183 172.08679199 C163.91860488 178.21041168 164.51044748 185.38683655 164.47673035 193.51940918 C164.49284363 194.30444824 164.50895691 195.0894873 164.52555847 195.89831543 C164.52950666 200.58086232 164.13493812 203.56356947 161.16423035 207.39440918 C158.46919178 210.08944774 157.10267049 209.65017981 153.33198547 209.66183472 C151.46859024 209.67462967 151.46859024 209.67462967 149.56755066 209.68768311 C148.18327319 209.68698402 146.79899582 209.68606092 145.41471863 209.68493652 C143.96280063 209.69091819 142.51088581 209.6977229 141.05897522 209.70529175 C137.10852092 209.72299679 133.15815319 209.72764904 129.20766306 209.72892332 C125.91238513 209.73081986 122.61712748 209.73817463 119.32185733 209.74526751 C111.54811319 209.76156651 103.77441539 209.76643512 96.00065613 209.76501465 C87.97648772 209.7638131 79.95258824 209.78491396 71.9284879 209.81650198 C65.0443527 209.84263856 58.16030547 209.85338304 51.27612102 209.85210383 C47.16232351 209.85159338 43.04876482 209.85732183 38.93501663 209.87845993 C35.06568995 209.89779826 31.19683095 209.89799743 27.32748795 209.88342667 C25.90688394 209.88133188 24.48625101 209.8860793 23.06569672 209.89814758 C21.12733737 209.91354887 19.18881924 209.90191616 17.2504425 209.8888855 C15.62276538 209.8905198 15.62276538 209.8905198 13.96220589 209.89218712 C10.47173151 209.27120916 9.31942744 208.15753583 7.16423035 205.39440918 C5.80095957 201.30459684 5.94037225 197.49091395 5.91423035 193.20690918 C5.89360535 192.38126465 5.87298035 191.55562012 5.85173035 190.70495605 C5.80993117 184.07456128 6.71184003 178.3958421 10.9962616 173.15222168 C11.64981628 172.61339355 12.30337097 172.07456543 12.97673035 171.51940918 C13.62255066 170.9651123 14.26837097 170.41081543 14.9337616 169.83972168 C21.02826504 165.89056883 27.03172476 166.14597073 34.03923035 166.26940918 C35.0137616 166.27843262 35.98829285 166.28745605 36.99235535 166.29675293 C39.38323762 166.32019295 41.77360296 166.35300476 44.16423035 166.39440918 C44.16423035 163.75440918 44.16423035 161.11440918 44.16423035 158.39440918 C43.25460289 158.40440193 43.25460289 158.40440193 42.32659912 158.41459656 C35.98322379 158.48125413 29.63994888 158.52633551 23.29631042 158.5592041 C20.9326625 158.57423859 18.56904223 158.5946716 16.20549011 158.62072754 C12.79713594 158.65734563 9.38915243 158.67418949 5.9806366 158.68737793 C4.9333992 158.70286179 3.8861618 158.71834564 2.80718994 158.73429871 C-6.09559995 158.73631529 -13.65463176 157.36454824 -20.3318634 151.13659668 C-25.24208353 145.44839362 -26.94480026 138.90142951 -26.98294067 131.50131226 C-26.99009598 130.54270798 -26.99725128 129.5841037 -27.00462341 128.59645081 C-27.00731232 127.55637375 -27.01000122 126.51629669 -27.01277161 125.44470215 C-27.0193428 124.33998062 -27.025914 123.23525909 -27.03268433 122.09706116 C-27.05238301 118.44357227 -27.06407297 114.79012444 -27.0740509 111.13659668 C-27.07812643 109.88616703 -27.08220196 108.63573738 -27.08640099 107.34741592 C-27.1051008 101.40951145 -27.11966891 95.47161995 -27.12801296 89.53369319 C-27.13776985 82.7050855 -27.16405543 75.87680329 -27.20451385 69.04831016 C-27.23845572 63.11364609 -27.25016968 57.17906059 -27.25421715 51.24429703 C-27.25907528 48.73022379 -27.27066704 46.21615384 -27.28925514 43.70214462 C-27.31371353 40.17466388 -27.31266869 36.64802373 -27.30574036 33.1204834 C-27.31855042 32.09255173 -27.33136047 31.06462006 -27.34455872 30.00553894 C-27.28936017 22.25080343 -26.15978918 14.21898273 -20.9098711 8.17849541 C-14.72861253 2.33311757 -8.44303795 -0.06458512 0 0 Z M-8.83576965 21.39440918 C-21.50769838 46.73826664 -9.83576965 78.05911513 -9.83576965 106.39440918 C52.86423035 106.39440918 115.56423035 106.39440918 180.16423035 106.39440918 C186.21455173 60.30309123 186.21455173 60.30309123 177.16423035 18.39440918 C174.245262 16.93492501 171.31683466 17.24638547 168.11714172 17.24723816 C167.01625271 17.24172313 167.01625271 17.24172313 165.89312351 17.23609668 C163.42114823 17.22503809 160.94921496 17.22121236 158.47721863 17.21740723 C156.71003586 17.21114431 154.94285442 17.20449766 153.17567444 17.19749451 C148.36576493 17.18007096 143.55586536 17.16952946 138.7459321 17.16128898 C135.74310921 17.15614261 132.74028942 17.15006677 129.73746872 17.14377785 C120.3487397 17.1247236 110.96001857 17.1104919 101.57127392 17.10216588 C90.72128474 17.09238593 79.87149917 17.06604764 69.02158177 17.02566499 C60.64277791 16.99554591 52.26403255 16.98070109 43.88517559 16.97738487 C38.87712066 16.97502992 33.86928319 16.96601175 28.86128616 16.94092369 C24.15152902 16.9177109 19.44213357 16.91338221 14.73233414 16.92368507 C13.00211385 16.92418218 11.27187616 16.91781062 9.5417099 16.90412903 C7.18246423 16.8865141 4.82453133 16.89346363 2.46528625 16.90666199 C1.77793117 16.89569274 1.09057608 16.8847235 0.38239205 16.87342185 C-4.11579662 16.93432751 -6.0975635 17.82369995 -8.83576965 21.39440918 Z M-9.83576965 123.39440918 C-10.84980991 134.28688709 -10.84980991 134.28688709 -7.96076965 138.58190918 C-4.21688922 141.77521896 -1.75066645 141.52559324 3.12866211 141.5415802 C3.85371545 141.54525689 4.57876879 141.54893358 5.32579345 141.55272168 C7.76779575 141.56377987 10.20975555 141.56760595 12.65177917 141.57141113 C14.39763525 141.57767414 16.14348999 141.58432079 17.88934326 141.59132385 C22.64147046 141.60874787 27.3935876 141.61928927 32.14573884 141.62752938 C35.11305749 141.6326762 38.080373 141.63875205 41.04768944 141.64504051 C50.32696362 141.66409586 59.60622981 141.67832669 68.8855198 141.68665248 C79.60588897 141.69642944 90.32605191 141.72275949 101.04634839 141.76315337 C109.32665492 141.79328553 117.60690222 141.80811857 125.88726252 141.81143349 C130.83554676 141.81378716 135.78361077 141.82278861 140.73183632 141.84789467 C145.38660581 141.87112995 150.04100937 141.875427 154.69582176 141.86513329 C156.40465892 141.86463672 158.11351381 141.87099273 159.82229614 141.88468933 C162.1549209 141.90234078 164.48622273 141.89533657 166.81884766 141.88215637 C168.12427426 141.88454473 169.42970087 141.88693308 170.77468586 141.88939381 C174.72557225 141.31243486 176.36367593 140.1831168 179.16423035 137.39440918 C181.25654432 133.20978123 180.16423035 128.07296546 180.16423035 123.39440918 C117.46423035 123.39440918 54.76423035 123.39440918 -9.83576965 123.39440918 Z M61.16423035 158.39440918 C61.16423035 161.03440918 61.16423035 163.67440918 61.16423035 166.39440918 C77.00423035 166.39440918 92.84423035 166.39440918 109.16423035 166.39440918 C109.16423035 163.75440918 109.16423035 161.11440918 109.16423035 158.39440918 C93.32423035 158.39440918 77.48423035 158.39440918 61.16423035 158.39440918 Z M23.16423035 185.39440918 C23.16423035 187.70440918 23.16423035 190.01440918 23.16423035 192.39440918 C64.08423035 192.39440918 105.00423035 192.39440918 147.16423035 192.39440918 C147.16423035 190.08440918 147.16423035 187.77440918 147.16423035 185.39440918 C143.93052501 183.23860562 143.07081348 183.14369636 139.34391785 183.14044189 C138.35125916 183.13480225 137.35860046 183.1291626 136.33586121 183.12335205 C135.24797302 183.12740051 134.16008484 183.13144897 133.03923035 183.13562012 C131.89268982 183.13211548 130.74614929 183.12861084 129.56486511 183.125 C125.76459243 183.1161778 121.96450501 183.12203368 118.16423035 183.12878418 C115.5301154 183.12743767 112.89600069 183.12549726 110.2618866 183.12298584 C104.73712649 183.11934649 99.21241984 183.12414447 93.68766785 183.13366699 C87.29890661 183.14455152 80.91027303 183.14102592 74.52151489 183.13001418 C68.37750046 183.11984785 62.23354266 183.1209198 56.08952332 183.12677765 C53.47396324 183.12811467 50.85839992 183.12646461 48.24284363 183.12181854 C44.59155059 183.11675653 40.9405049 183.12445924 37.28923035 183.13562012 C35.65739807 183.12954742 35.65739807 183.12954742 33.99259949 183.12335205 C32.9999408 183.1289917 32.0072821 183.13463135 30.98454285 183.14044189 C29.68927673 183.14157297 29.68927673 183.14157297 28.36784363 183.1427269 C25.87475951 183.25755103 25.87475951 183.25755103 23.16423035 185.39440918 Z " fill="#EE5C20" transform="translate(170.8357696533203,14.6055908203125)"/>
<path d="M0 0 C0.80752213 -0.0066568 1.61504425 -0.0133136 2.44703674 -0.02017212 C4.15420251 -0.03029266 5.86140778 -0.03498932 7.56860352 -0.03466797 C10.17856078 -0.03904098 12.78682636 -0.07536377 15.39648438 -0.11328125 C17.0559838 -0.11914963 18.71549126 -0.12311888 20.375 -0.125 C21.54391029 -0.14655655 21.54391029 -0.14655655 22.73643494 -0.16854858 C26.26568299 -0.13883198 28.32548631 0.01323492 31.18481445 2.16699219 C33.20269654 4.95629738 34.32251151 7.73033336 35.50390625 10.9609375 C35.931875 12.10820312 36.35984375 13.25546875 36.80078125 14.4375 C37.75390625 17.3359375 37.75390625 17.3359375 37.75390625 19.3359375 C38.45515625 19.50609375 39.15640625 19.67625 39.87890625 19.8515625 C44.54397888 21.04318431 48.79949161 22.20233235 53.00390625 24.5859375 C56.95059577 26.66735591 59.37851245 26.56411821 63.75390625 25.3359375 C65.28335014 24.66781201 66.80391403 23.97909859 68.31640625 23.2734375 C74.66355759 20.37862186 74.66355759 20.37862186 78.75390625 21.3359375 C80.45678711 22.62011719 80.45678711 22.62011719 82.34375 24.3203125 C83.04814209 24.95493408 83.75253418 25.58955566 84.47827148 26.2434082 C85.22923096 26.93394287 85.98019043 27.62447754 86.75390625 28.3359375 C87.52484619 29.04000732 88.29578613 29.74407715 89.09008789 30.46948242 C91.5076497 32.70818578 93.88295165 34.98550492 96.25390625 37.2734375 C97.07632813 38.03333984 97.89875 38.79324219 98.74609375 39.57617188 C105.27976858 45.93076758 105.27976858 45.93076758 105.4453125 50.546875 C104.78361487 54.17312757 103.9233528 56.79078522 102.19140625 60.0234375 C100.20298737 63.66465317 100.20298737 63.66465317 99.91015625 67.69140625 C101.25053127 71.89248906 102.95798907 75.92587984 104.66992188 79.984375 C105.88715931 82.93168114 106.75390625 85.11322129 106.75390625 88.3359375 C107.32238281 88.51769531 107.89085937 88.69945312 108.4765625 88.88671875 C123.24355935 93.69400487 123.24355935 93.69400487 125.75390625 97.3359375 C126.07663745 100.22982312 126.22192986 102.90421018 126.22265625 105.80078125 C126.23026978 106.63049942 126.2378833 107.46021759 126.24572754 108.31507874 C126.25652925 110.06931551 126.25938134 111.8236166 126.25488281 113.57788086 C126.25391087 116.26069534 126.29551875 118.94064583 126.33984375 121.62304688 C126.34505115 123.32811904 126.34773894 125.03320114 126.34765625 126.73828125 C126.36405151 127.53942856 126.38044678 128.34057587 126.39733887 129.16600037 C126.34871258 133.08938899 126.15321959 134.91352202 123.41186523 137.81347656 C120.42047989 139.52692187 117.64908641 140.28877089 114.31640625 141.1484375 C110.09917664 142.65595397 107.66597588 143.87042817 105.64453125 147.8515625 C104.06616073 151.5945293 102.92216037 155.44899536 101.75390625 159.3359375 C101.37363281 160.09390625 100.99335938 160.851875 100.6015625 161.6328125 C99.20275443 164.44332088 99.96456074 166.34770091 100.75390625 169.3359375 C101.42416757 170.82299501 102.11308841 172.30172615 102.81640625 173.7734375 C104.67640977 177.89300085 105.66750819 180.7679278 104.75390625 185.3359375 C103.4543457 187.10742188 103.4543457 187.10742188 101.7421875 188.9921875 C100.79049683 190.04224976 100.79049683 190.04224976 99.81958008 191.11352539 C98.79707153 192.21361938 98.79707153 192.21361938 97.75390625 193.3359375 C97.07545654 194.06997803 96.39700684 194.80401855 95.69799805 195.56030273 C93.57567234 197.82423195 91.4198745 200.05128582 89.25390625 202.2734375 C88.53332031 203.03978516 87.81273437 203.80613281 87.0703125 204.59570312 C83.83771727 207.89552231 81.58114474 210.05659855 77.15625 211.55078125 C73.76033111 211.3363432 71.58985053 210.54667586 68.61645508 208.93383789 C64.74609863 206.84196614 61.04089567 204.93586763 56.56835938 205.71826172 C51.67342089 207.35821786 47.26855675 209.86625064 42.75390625 212.3359375 C42.05604004 212.47209473 41.35817383 212.60825195 40.63916016 212.74853516 C39.70595947 213.03929932 39.70595947 213.03929932 38.75390625 213.3359375 C37.59404411 215.79508256 36.67207537 218.08622381 35.81640625 220.6484375 C34.06981038 225.878273 32.58023197 229.33412888 27.75390625 232.3359375 C24.94652859 232.70287882 22.54679102 232.85214349 19.75 232.796875 C18.60954979 232.79550034 18.60954979 232.79550034 17.44606018 232.7940979 C15.84491704 232.7880766 14.2437844 232.77237472 12.64282227 232.74755859 C10.19570315 232.71100169 7.75009839 232.70653986 5.30273438 232.70703125 C3.74347654 232.69720073 2.18422891 232.68554401 0.625 232.671875 C-0.46887779 232.66853653 -0.46887779 232.66853653 -1.58485413 232.66513062 C-5.25052624 232.59677775 -8.22347253 232.5376563 -11.24609375 230.3359375 C-12.50542674 228.00501613 -13.52748472 225.84219854 -14.49609375 223.3984375 C-14.89828125 222.44807617 -14.89828125 222.44807617 -15.30859375 221.47851562 C-16.4919626 218.60763863 -17.24609375 216.46931728 -17.24609375 213.3359375 C-17.82875 213.17738281 -18.41140625 213.01882813 -19.01171875 212.85546875 C-19.8315625 212.62214844 -20.65140625 212.38882813 -21.49609375 212.1484375 C-22.41390625 211.88804687 -23.33171875 211.62765625 -24.27734375 211.359375 C-27.24609375 210.3359375 -27.24609375 210.3359375 -30.08984375 208.8125 C-34.79818446 206.31910452 -37.59706013 204.85844553 -42.875 206.38671875 C-45.33051634 207.44253916 -47.57213186 208.64626751 -49.921875 209.9453125 C-53.93860414 211.62563632 -56.07165333 211.43265439 -60.24609375 210.3359375 C-62.15234375 209.234375 -62.15234375 209.234375 -63.74609375 207.7109375 C-64.72449219 206.7828125 -64.72449219 206.7828125 -65.72265625 205.8359375 C-66.55539062 205.0109375 -67.388125 204.1859375 -68.24609375 203.3359375 C-69.50355386 202.12723745 -70.76140129 200.91894029 -72.01953125 199.7109375 C-73.38827194 198.37919865 -74.75544307 197.04584486 -76.12109375 195.7109375 C-76.78818359 195.06560059 -77.45527344 194.42026367 -78.14257812 193.75537109 C-84.12802453 187.8082144 -84.12802453 187.8082144 -85.24609375 183.3359375 C-85.11882403 177.99060922 -82.57237683 173.73780548 -80.109375 169.1171875 C-78.96678152 165.43607187 -79.8093359 163.87526782 -81.24609375 160.3359375 C-81.73142578 158.4178125 -81.73142578 158.4178125 -82.2265625 156.4609375 C-84.15642734 148.90898807 -84.15642734 148.90898807 -88.9453125 143.06396484 C-92.14639244 141.40579894 -95.42047812 140.34900778 -98.8828125 139.37890625 C-102.02987184 138.40298889 -103.32859895 137.91744111 -105.24609375 135.3359375 C-106.75478432 132.31855636 -106.42961266 129.18989577 -106.44921875 125.87890625 C-106.45491882 125.13892899 -106.4606189 124.39895172 -106.4664917 123.6365509 C-106.47594393 122.06883169 -106.48247657 120.50109259 -106.48632812 118.93334961 C-106.49601407 116.54310043 -106.5270257 114.15371845 -106.55859375 111.76367188 C-106.56512598 110.23958843 -106.57037559 108.71549885 -106.57421875 107.19140625 C-106.58656555 106.47977829 -106.59891235 105.76815033 -106.6116333 105.03495789 C-106.59203661 100.63467815 -106.0333355 97.78761264 -103.24609375 94.3359375 C-100.76134725 93.32775875 -98.42520304 92.52827706 -95.87109375 91.7734375 C-91.65199639 90.3229824 -88.91626412 89.28434227 -86.2890625 85.56640625 C-85.08303775 82.52262949 -84.16299531 79.47663651 -83.24609375 76.3359375 C-82.44405886 74.92188829 -81.61387789 73.52311777 -80.74609375 72.1484375 C-79.53637153 69.80672621 -79.19102661 68.7261664 -79.5625 66.09375 C-80.53291195 63.07581963 -81.79503665 60.27643954 -83.1640625 57.421875 C-84.4631855 54.65285226 -85.24038726 52.47004005 -85.37109375 49.3984375 C-82.54272853 41.69899885 -74.65741787 35.59043313 -68.93359375 29.8984375 C-68.21880859 29.17978516 -67.50402344 28.46113281 -66.76757812 27.72070312 C-66.08373047 27.03814453 -65.39988281 26.35558594 -64.6953125 25.65234375 C-64.08002686 25.03818604 -63.46474121 24.42402832 -62.83081055 23.79125977 C-60.45659208 21.61089984 -59.33366449 21.34331525 -56.046875 21.06640625 C-51.71651374 21.37349251 -49.24121558 22.61625533 -45.43359375 24.6484375 C-41.96887553 26.32091714 -39.29820754 27.56108119 -35.3984375 26.7265625 C-32.88736578 25.40698849 -30.59473261 23.92340571 -28.24609375 22.3359375 C-24.61061782 20.70774144 -21.27634175 19.3359375 -17.24609375 19.3359375 C-17.13007813 18.63855469 -17.0140625 17.94117188 -16.89453125 17.22265625 C-16.17692206 14.02799846 -15.11274753 11.17732021 -13.87109375 8.1484375 C-13.45085937 7.10300781 -13.030625 6.05757813 -12.59765625 4.98046875 C-9.77945126 -0.5337647 -5.49638091 0.01565729 0 0 Z M0.75390625 17.3359375 C-0.39078125 20.9246875 -0.39078125 20.9246875 -1.55859375 24.5859375 C-3.01645335 28.53898791 -4.1647147 31.5732257 -7.671875 34.046875 C-10.50683431 35.00690464 -13.32765656 35.6755889 -16.24609375 36.3359375 C-18.32493435 37.12762711 -20.38803071 37.96185367 -22.43359375 38.8359375 C-23.43132812 39.25101562 -24.4290625 39.66609375 -25.45703125 40.09375 C-27.91351463 41.18781403 -30.21487984 42.39881968 -32.55859375 43.7109375 C-36.46339702 45.68744286 -38.96617768 45.53731745 -43.24609375 44.3359375 C-45.57969013 43.27629425 -47.86911876 42.1826791 -50.1328125 40.98046875 C-52.21499637 40.13447776 -52.21499637 40.13447776 -54.1875 40.90234375 C-56.93957556 42.81887455 -59.15683174 45.06011596 -61.49609375 47.4609375 C-62.83414063 48.82605469 -62.83414063 48.82605469 -64.19921875 50.21875 C-64.8746875 50.91742188 -65.55015625 51.61609375 -66.24609375 52.3359375 C-65.88515625 53.12097656 -65.52421875 53.90601563 -65.15234375 54.71484375 C-64.68828125 55.76542969 -64.22421875 56.81601562 -63.74609375 57.8984375 C-63.28203125 58.93097656 -62.81796875 59.96351563 -62.33984375 61.02734375 C-60.67719918 66.05684359 -60.55242308 69.67072809 -62.6015625 74.58984375 C-63.20613281 75.68167969 -63.81070313 76.77351563 -64.43359375 77.8984375 C-70.63352578 89.11321764 -70.63352578 89.11321764 -73.24609375 101.3359375 C-73.81457031 101.51769531 -74.38304687 101.69945312 -74.96875 101.88671875 C-75.74089844 102.13808594 -76.51304687 102.38945312 -77.30859375 102.6484375 C-78.06269531 102.89207031 -78.81679688 103.13570313 -79.59375 103.38671875 C-82.86679511 104.55807363 -86.05083884 105.96654254 -89.24609375 107.3359375 C-89.24609375 113.2759375 -89.24609375 119.2159375 -89.24609375 125.3359375 C-84.45462149 127.02439235 -84.45462149 127.02439235 -79.64331055 128.65454102 C-75.75831103 130.11499282 -74.49878882 130.87796136 -72.4140625 134.65625 C-71.83591797 136.47769531 -71.83591797 136.47769531 -71.24609375 138.3359375 C-70.64667969 139.90794922 -70.64667969 139.90794922 -70.03515625 141.51171875 C-69.65101563 142.54683594 -69.266875 143.58195312 -68.87109375 144.6484375 C-67.28866693 148.83778023 -65.55733819 152.77027855 -63.43359375 156.7109375 C-61.3211403 160.89560719 -60.42596783 163.57920714 -61.24609375 168.3359375 C-62.74517083 172.43513792 -64.45389583 176.34829712 -66.24609375 180.3359375 C-62.28609375 184.2959375 -58.32609375 188.2559375 -54.24609375 192.3359375 C-48.59202941 190.57644921 -48.59202941 190.57644921 -44.74609375 188.7109375 C-39.95674662 186.82940827 -36.89195212 186.62115295 -32.125 188.69140625 C-31.03058594 189.29597656 -29.93617188 189.90054688 -28.80859375 190.5234375 C-24.33048404 192.95364966 -20.08117799 194.77533568 -15.16088867 196.10839844 C-7.11032908 198.30716839 -7.11032908 198.30716839 -4.296875 201.65625 C-3.03842531 204.1882659 -2.13314037 206.65463749 -1.24609375 209.3359375 C-0.25609375 211.3159375 0.73390625 213.2959375 1.75390625 215.3359375 C7.36390625 215.3359375 12.97390625 215.3359375 18.75390625 215.3359375 C19.47578125 213.4590625 20.19765625 211.5821875 20.94140625 209.6484375 C22.80563394 204.80144551 24.70237836 201.64354078 28.75390625 198.3359375 C32.1015625 196.96484375 32.1015625 196.96484375 35.81640625 195.8984375 C41.98140217 194.04704414 47.43876247 191.6438979 53.0703125 188.47265625 C56.26612491 187.11897152 58.3094573 186.95619929 61.75390625 187.3359375 C64.67667882 188.52906931 67.37942316 189.96121116 70.16796875 191.4375 C72.64887608 192.57801193 72.64887608 192.57801193 74.7890625 191.75 C77.21891495 190.00127915 79.39438002 188.14918698 81.56640625 186.0859375 C82.37722656 185.33828125 83.18804687 184.590625 84.0234375 183.8203125 C86.07423381 181.41275829 86.07423381 181.41275829 85.61328125 178.21484375 C84.8437056 175.25983572 84.8437056 175.25983572 83.19140625 172.5234375 C81.23170796 168.17801956 80.78039503 165.02524505 81.75390625 160.3359375 C83.04543204 157.41412505 84.45250844 154.59878782 85.97973633 151.79345703 C88.19190692 147.68204894 89.61697884 143.75344983 90.81640625 139.2109375 C92.43179087 133.65805288 92.43179087 133.65805288 95.31640625 130.7734375 C100.08021145 128.78130078 104.86581741 127.00504101 109.75390625 125.3359375 C109.75390625 119.3959375 109.75390625 113.4559375 109.75390625 107.3359375 C107.36140625 106.5315625 104.96890625 105.7271875 102.50390625 104.8984375 C95.5842034 102.27997399 95.5842034 102.27997399 93.04296875 99.390625 C92.03850511 97.06404684 91.3883148 94.78971311 90.75390625 92.3359375 C89.94253426 90.11944116 89.10781566 87.91139638 88.25390625 85.7109375 C87.83753906 84.59976563 87.42117188 83.48859375 86.9921875 82.34375 C85.97026064 79.86146709 84.90714873 77.81303738 83.44140625 75.5859375 C81.22857391 71.32418633 80.92832312 68.04569268 81.75390625 63.3359375 C82.69042273 60.91498411 83.74177123 58.6613992 84.9765625 56.37890625 C85.96896533 53.77073197 85.88511172 52.88716686 84.75390625 50.3359375 C82.64066621 47.63304691 82.64066621 47.63304691 80.00390625 45.0234375 C79.1428125 44.11980469 78.28171875 43.21617187 77.39453125 42.28515625 C74.95799106 40.06707867 74.95799106 40.06707867 72.19921875 40.41015625 C69.07746745 41.59203334 66.18010081 43.03848946 63.23046875 44.59375 C58.58936869 45.98461595 54.77752888 44.79912066 50.46484375 42.84765625 C49.36398437 42.24566406 48.263125 41.64367187 47.12890625 41.0234375 C41.37801084 37.95904627 35.74685595 35.94453033 29.3984375 34.35546875 C25.19644155 32.7354969 24.19895264 30.3037567 22.3671875 26.3203125 C21.16276042 23.32552083 19.95833333 20.33072917 18.75390625 17.3359375 C12.81390625 17.3359375 6.87390625 17.3359375 0.75390625 17.3359375 Z " fill="#F1731C" transform="translate(378.24609375,264.6640625)"/>
<path d="M0 0 C0.80752213 -0.00524185 1.61504425 -0.0104837 2.44703674 -0.0158844 C4.15421398 -0.02230511 5.86143545 -0.02096693 7.56860352 -0.01245117 C10.1787005 -0.00394764 12.78660405 -0.03268838 15.39648438 -0.06445312 C17.05598893 -0.06606543 18.71549735 -0.06548704 20.375 -0.0625 C21.15427353 -0.07373398 21.93354706 -0.08496796 22.73643494 -0.09654236 C26.27354564 -0.05113698 28.32913981 0.11048628 31.18481445 2.28271484 C33.09634742 4.9030051 34.29570966 7.48678928 35.50390625 10.49609375 C35.931875 11.53894531 36.35984375 12.58179688 36.80078125 13.65625 C37.75390625 16.43359375 37.75390625 16.43359375 37.75390625 19.43359375 C38.59953125 19.53414063 39.44515625 19.6346875 40.31640625 19.73828125 C45.36168417 20.75880337 49.68828827 23.05149046 54.31640625 25.25390625 C58.87721291 26.81909217 61.68905697 26.30355563 66.0625 24.4609375 C67.11630859 23.92146484 67.11630859 23.92146484 68.19140625 23.37109375 C72.3109696 21.51109023 75.18589655 20.51999181 79.75390625 21.43359375 C81.54516602 22.74633789 81.54516602 22.74633789 83.4453125 24.46875 C84.14551514 25.10288818 84.84571777 25.73702637 85.56713867 26.39038086 C89.14025769 29.7289354 92.65808814 33.11382306 96.12890625 36.55859375 C96.83917969 37.24824219 97.54945313 37.93789063 98.28125 38.6484375 C98.96058594 39.32261719 99.63992187 39.99679687 100.33984375 40.69140625 C100.94876465 41.29098145 101.55768555 41.89055664 102.18505859 42.50830078 C104.61626132 45.4918776 105.78319267 48.20356407 105.69140625 52.05859375 C104.53251283 56.23061005 102.65037923 59.83805414 100.6171875 63.65234375 C99.47397381 67.33545753 100.29101807 68.90415569 101.75390625 72.43359375 C102.30884766 74.26083984 102.30884766 74.26083984 102.875 76.125 C105.24643088 83.64976953 105.24643088 83.64976953 110.3828125 89.4140625 C113.14520217 90.63552732 115.85727826 91.58569522 118.75390625 92.43359375 C124.37736256 94.90002196 124.37736256 94.90002196 125.88964844 97.04296875 C127.09813817 100.38577425 127.03952267 103.61255 127.01953125 107.12109375 C127.0214447 107.86061279 127.02335815 108.60013184 127.02532959 109.36206055 C127.0266876 110.92204123 127.02301801 112.48203336 127.01464844 114.04199219 C127.0039431 116.42538922 127.01455636 118.80803257 127.02734375 121.19140625 C127.02602209 122.70963707 127.02345955 124.22786743 127.01953125 125.74609375 C127.02357971 126.45660889 127.02762817 127.16712402 127.03179932 127.89916992 C126.99741906 131.53930363 126.93586404 134.43210435 124.75390625 137.43359375 C122.42405668 138.66636422 120.25454987 139.67196807 117.81640625 140.62109375 C117.18283203 140.88083984 116.54925781 141.14058594 115.89648438 141.40820312 C113.20578215 142.50315766 110.5100842 143.51486777 107.75390625 144.43359375 C106.59082354 146.9994785 105.609795 149.4692756 104.69140625 152.12109375 C104.43552734 152.82943359 104.17964844 153.53777344 103.91601562 154.26757812 C103.41302598 155.66793234 102.92233226 157.07276953 102.44458008 158.48193359 C101.83983575 160.19077989 101.12175552 161.8586421 100.38671875 163.515625 C99.49316732 167.63588992 100.8272818 169.71350294 102.69140625 173.43359375 C105.11511365 178.29166221 106.38699808 181.13163809 104.75390625 186.43359375 C103.65234375 188.2421875 103.65234375 188.2421875 102.12890625 189.87109375 C101.51144531 190.53238281 100.89398438 191.19367188 100.2578125 191.875 C99.43152344 192.71933594 98.60523438 193.56367188 97.75390625 194.43359375 C97.18140137 195.0251123 96.60889648 195.61663086 96.01904297 196.22607422 C94.04373047 198.26250468 92.05747033 200.28756542 90.06640625 202.30859375 C89.41269043 202.97560303 88.75897461 203.6426123 88.08544922 204.32983398 C87.45654785 204.95962158 86.82764648 205.58940918 86.1796875 206.23828125 C85.61677002 206.80530762 85.05385254 207.37233398 84.47387695 207.95654297 C81.34246338 210.6456916 79.42323313 211.44554602 75.25390625 211.37109375 C72.45643223 210.99569742 70.62834198 210.36501922 68.12890625 209 C62.74431489 205.9481362 62.74431489 205.9481362 56.73095703 205.87207031 C53.10186041 207.16193497 49.7245016 208.83830278 46.3203125 210.62890625 C43.3037316 212.15536888 41.06670156 213.01231342 37.75390625 213.43359375 C37.625 214.15417969 37.49609375 214.87476563 37.36328125 215.6171875 C36.76888356 218.36437171 35.99508978 220.86783251 35.00390625 223.49609375 C34.6996875 224.33269531 34.39546875 225.16929687 34.08203125 226.03125 C32.36119738 229.1439348 30.75179198 230.49701982 27.75390625 232.43359375 C24.96031534 232.82425422 22.57184942 232.9960051 19.78515625 232.96484375 C19.02722778 232.96867065 18.26929932 232.97249756 17.48840332 232.97644043 C15.89150661 232.9791533 14.29456499 232.97183578 12.69775391 232.95507812 C10.26103131 232.93365639 7.82725649 232.95489764 5.390625 232.98046875 C3.83462895 232.97782536 2.27863472 232.97270014 0.72265625 232.96484375 C-0.00143433 232.97294067 -0.7255249 232.9810376 -1.47155762 232.98937988 C-5.03840335 232.92364996 -7.1140882 232.51571239 -10.16674805 230.61669922 C-12.43958734 228.23044479 -13.15080084 226.20096465 -14.00610352 223.05151367 C-15.17012649 218.85269814 -16.32658418 214.80260852 -19.99804688 212.18408203 C-24.54475116 209.93388236 -29.35359576 208.70351826 -34.24609375 207.43359375 C-35.51646484 206.78003906 -35.51646484 206.78003906 -36.8125 206.11328125 C-40.57038078 205.06372867 -42.70893232 206.66501304 -46.12109375 208.37109375 C-51.46917334 211.04513354 -54.39911742 211.87686459 -60.24609375 210.43359375 C-63.13623047 208.24047852 -63.13623047 208.24047852 -65.92578125 205.375 C-66.42401398 204.87064926 -66.9222467 204.36629852 -67.43557739 203.84666443 C-69.01205778 202.2433976 -70.56613922 200.62021628 -72.12109375 198.99609375 C-73.18745916 197.90818724 -74.25515586 196.82158398 -75.32421875 195.73632812 C-84.62890635 186.23051417 -84.62890635 186.23051417 -84.6171875 180.62890625 C-84.13055561 177.75009445 -82.97017386 175.48702118 -81.68359375 172.87109375 C-79.73881687 168.82386838 -79.73881687 168.82386838 -79.12109375 164.43359375 C-80.55818637 160.60134676 -82.2172984 156.90237455 -83.9921875 153.21484375 C-85.24609375 150.43359375 -85.24609375 150.43359375 -85.94140625 147.2890625 C-87.04860082 144.10047646 -87.04860082 144.10047646 -90.6171875 142.640625 C-91.96452925 142.15272598 -93.32062076 141.68845093 -94.68359375 141.24609375 C-103.33118214 138.27629755 -103.33118214 138.27629755 -105.24609375 135.43359375 C-105.55667913 132.53923829 -105.69027158 129.86448393 -105.6796875 126.96875 C-105.68492935 126.13903183 -105.6901712 125.30931366 -105.6955719 124.45445251 C-105.70199321 122.70019652 -105.70065365 120.94589747 -105.69213867 119.19165039 C-105.68363513 116.50914675 -105.71237566 113.8287772 -105.74414062 111.14648438 C-105.74575292 109.44140689 -105.74517456 107.73632563 -105.7421875 106.03125 C-105.75342148 105.23010269 -105.76465546 104.42895538 -105.77622986 103.60353088 C-105.73159051 100.03082527 -105.58783187 97.88929008 -103.4128418 94.98901367 C-100.62223858 92.98575361 -97.84481169 91.86247029 -94.62109375 90.68359375 C-93.47382812 90.255625 -92.3265625 89.82765625 -91.14453125 89.38671875 C-88.24609375 88.43359375 -88.24609375 88.43359375 -86.24609375 88.43359375 C-86.09527344 87.1496875 -86.09527344 87.1496875 -85.94140625 85.83984375 C-84.95269682 80.99627845 -82.6825259 77.02023661 -80.42578125 72.65234375 C-78.80865484 68.24005183 -79.40083375 65.40926169 -81.21875 61.16015625 C-81.94373912 59.76214856 -82.67289421 58.36629322 -83.40625 56.97265625 C-84.58106835 53.42087984 -84.86366163 50.10519665 -84.24609375 46.43359375 C-82.55386955 44.02121342 -81.17694988 42.39280055 -79.06640625 40.4375 C-78.53844452 39.91848618 -78.01048279 39.39947235 -77.46652222 38.86473083 C-75.78596714 37.22211298 -74.07943491 35.60974125 -72.37109375 33.99609375 C-71.23000194 32.88658197 -70.09065827 31.77526927 -68.953125 30.66210938 C-59.56723482 21.53921092 -59.56723482 21.53921092 -55.4609375 21.2109375 C-51.92250347 21.45600523 -49.9180269 22.33983546 -46.80859375 23.99609375 C-42.01855765 26.25590917 -39.46139102 27.08052973 -34.24609375 25.43359375 C-31.1736115 24.20789132 -28.13363722 22.93919759 -25.11328125 21.58984375 C-22.46787341 20.52303078 -20.05368918 19.88609997 -17.24609375 19.43359375 C-17.06433594 18.78132813 -16.88257812 18.1290625 -16.6953125 17.45703125 C-11.66188235 -0.04381821 -11.66188235 -0.04381821 0 0 Z M1.75390625 17.43359375 C0.60921875 20.27984375 0.60921875 20.27984375 -0.55859375 23.18359375 C-3.62791193 30.81541193 -3.62791193 30.81541193 -6.24609375 33.43359375 C-9.29296875 34.671875 -9.29296875 34.671875 -12.99609375 35.74609375 C-19.38820712 37.67368726 -25.25070439 40.14859283 -31.14550781 43.28637695 C-35.28958337 45.37967524 -37.79110422 45.72560166 -42.24609375 44.43359375 C-44.59755559 43.45191551 -46.82750114 42.33077245 -49.09765625 41.17578125 C-51.76020879 40.25599037 -52.67275099 40.29097097 -55.24609375 41.43359375 C-57.94898434 43.54683379 -57.94898434 43.54683379 -60.55859375 46.18359375 C-61.46222656 47.0446875 -62.36585937 47.90578125 -63.296875 48.79296875 C-65.52891841 51.23934163 -65.52891841 51.23934163 -65.13671875 54.05859375 C-64.21823843 56.61533746 -64.21823843 56.61533746 -62.68359375 59.68359375 C-60.8188044 64.05975771 -60.26395232 67.73881842 -61.24609375 72.43359375 C-62.5119936 75.334171 -63.8920717 78.12710235 -65.40600586 80.90600586 C-67.73872089 85.21778308 -69.25736035 89.36472287 -70.68359375 94.05859375 C-73.08731972 101.08909945 -73.08731972 101.08909945 -77.05859375 103.12109375 C-78.44031417 103.60130788 -79.84002616 104.03019459 -81.24609375 104.43359375 C-83.88609375 105.42359375 -86.52609375 106.41359375 -89.24609375 107.43359375 C-89.24609375 113.37359375 -89.24609375 119.31359375 -89.24609375 125.43359375 C-84.45150323 127.20183026 -84.45150323 127.20183026 -79.64331055 128.93237305 C-76.3999212 130.17856081 -74.57523965 131.01768554 -72.37890625 133.79296875 C-71.21684725 136.50176835 -70.27529427 139.17120844 -69.43359375 141.99609375 C-68.01040179 146.50379124 -66.25223705 150.46979007 -63.99609375 154.62109375 C-61.37021939 159.73954935 -59.97876144 163.72544661 -61.24609375 169.43359375 C-62.19431451 171.84511815 -63.23589539 174.11171194 -64.46875 176.390625 C-65.37252844 178.37083006 -65.37252844 178.37083006 -65.18359375 180.3671875 C-63.78693531 183.44565549 -61.60760224 185.35163621 -59.18359375 187.68359375 C-57.80494141 189.02164063 -57.80494141 189.02164063 -56.3984375 190.38671875 C-55.68816406 191.0621875 -54.97789063 191.73765625 -54.24609375 192.43359375 C-52.82817967 191.97913411 -51.41181329 191.51984431 -49.99609375 191.05859375 C-49.2071875 190.80335938 -48.41828125 190.548125 -47.60546875 190.28515625 C-45.2615267 189.5161454 -45.2615267 189.5161454 -43.32421875 188.33203125 C-39.87882079 186.8424795 -36.90800611 186.82062867 -33.36621094 188.12695312 C-31.25404587 189.09292623 -29.18758075 190.12349759 -27.12109375 191.18359375 C-21.04519449 194.19715541 -15.13369084 196.65647811 -8.56640625 198.44921875 C-4.66972247 200.10235733 -3.58214509 202.70280041 -1.859375 206.44921875 C-0.65494792 209.44401042 0.54947917 212.43880208 1.75390625 215.43359375 C7.69390625 215.43359375 13.63390625 215.43359375 19.75390625 215.43359375 C21.4423611 210.64212149 21.4423611 210.64212149 23.07250977 205.83081055 C24.50669222 202.01569107 25.28208555 200.69730884 28.96875 198.63671875 C30.84240234 198.04117188 30.84240234 198.04117188 32.75390625 197.43359375 C34.06868104 196.95147128 35.38116159 196.46305128 36.69140625 195.96875 C38.72292197 195.22948221 40.75592092 194.49537781 42.79296875 193.77148438 C46.2189507 192.518157 49.27927812 191.1760489 52.37890625 189.2421875 C56.01527244 187.29353293 57.71267558 186.85937063 61.75390625 187.43359375 C64.67667882 188.62672556 67.37942316 190.05886741 70.16796875 191.53515625 C72.63980245 192.66390311 72.63980245 192.66390311 74.76171875 191.90234375 C77.43832851 189.92900008 79.68378243 187.68977346 82.00390625 185.30859375 C82.8959375 184.39851562 83.78796875 183.4884375 84.70703125 182.55078125 C85.3825 181.85210937 86.05796875 181.1534375 86.75390625 180.43359375 C86.39296875 179.64855469 86.03203125 178.86351562 85.66015625 178.0546875 C85.19609375 177.00410156 84.73203125 175.95351563 84.25390625 174.87109375 C83.78984375 173.83855469 83.32578125 172.80601562 82.84765625 171.7421875 C80.77117542 165.46083298 81.536107 161.12347858 84.39453125 155.3815918 C84.94367188 154.32452026 84.94367188 154.32452026 85.50390625 153.24609375 C88.09540831 148.08839726 90.2406601 143.22010449 91.75390625 137.62109375 C93.22599178 132.89492441 93.22599178 132.89492441 95.48828125 130.91796875 C97.56776441 129.83792711 99.51570754 129.13211655 101.75390625 128.43359375 C105.71390625 126.94859375 105.71390625 126.94859375 109.75390625 125.43359375 C109.75390625 119.49359375 109.75390625 113.55359375 109.75390625 107.43359375 C107.48515625 106.44359375 105.21640625 105.45359375 102.87890625 104.43359375 C102.16621582 104.12035156 101.45352539 103.80710937 100.71923828 103.484375 C97.36005227 101.94662618 97.36005227 101.94662618 93.75390625 101.43359375 C93.59535156 100.86253906 93.43679687 100.29148437 93.2734375 99.703125 C89.5247754 86.63567773 89.5247754 86.63567773 83.44140625 74.55859375 C81.32141242 70.63267925 81.10056676 68.8617836 81.75390625 64.43359375 C83.24371866 60.33016581 84.961373 56.42198024 86.75390625 52.43359375 C82.79390625 48.47359375 78.83390625 44.51359375 74.75390625 40.43359375 C73.37203125 40.88734375 71.99015625 41.34109375 70.56640625 41.80859375 C69.74011719 42.07929688 68.91382813 42.35 68.0625 42.62890625 C65.6642231 43.41790079 65.6642231 43.41790079 63.12890625 44.68359375 C58.67450135 46.09024793 54.66264615 44.83941757 50.5 42.98046875 C49.40816406 42.3875 48.31632813 41.79453125 47.19140625 41.18359375 C42.26324251 38.51105376 37.72095146 36.84519061 32.25390625 35.43359375 C27.90375924 34.01124231 25.63321593 32.81653877 23.54296875 28.7890625 C21.87139998 25.07116217 20.93028317 21.41251568 19.75390625 17.43359375 C13.81390625 17.43359375 7.87390625 17.43359375 1.75390625 17.43359375 Z " fill="#F8A613" transform="translate(113.24609375,264.56640625)"/>
<path d="M0 0 C0.92683594 0.40089844 1.85367188 0.80179687 2.80859375 1.21484375 C17.27591733 8.29459784 27.32901115 20.21490121 32.875 35.1875 C38.13380256 51.3807134 36.62857738 67.80606549 29 83 C27.18959044 86.16571616 25.19753359 89.09182121 23 92 C22.52304687 92.66515625 22.04609375 93.3303125 21.5546875 94.015625 C13.1059352 104.79945959 -0.59995178 111.81035228 -14 114 C-31.09948188 115.76178603 -47.61638749 112.34624413 -61.3125 101.484375 C-70.77045961 93.4588661 -77.14311266 83.78385681 -81 72 C-81.22558594 71.319375 -81.45117188 70.63875 -81.68359375 69.9375 C-85.67260892 55.4119827 -82.99342642 39.43769391 -76.3125 26.1875 C-68.07674822 12.26121622 -55.42572909 2.36320182 -40.1875 -2.8125 C-27.24200711 -6.0166476 -12.19697071 -5.35190324 0 0 Z M-57.43359375 28.796875 C-64.51626547 38.75853797 -67.00237603 48.893177 -66 61 C-63.84895118 72.51147221 -57.76073428 82.59534093 -48.4375 89.625 C-38.30627603 96.3642065 -28.06752859 98.27850573 -16 97 C-4.30085307 94.36064873 4.93224039 87.55227773 12 78 C18.36770087 67.86662831 20.07292775 57.75167129 18 46 C15.04550674 34.26231212 8.92506815 25.4278234 -1.1328125 18.6953125 C-20.02839614 7.52271945 -43.43870037 11.78220184 -57.43359375 28.796875 Z " fill="#F1731C" transform="translate(412,326)"/>
<path d="M0 0 C14.69230895 10.89215655 24.53987553 24.42022988 27.37109375 42.7578125 C28.76308143 59.22400817 25.33468816 74.66974482 14.92578125 87.85546875 C5.28886166 99.20044081 -7.65567294 107.56553822 -22.62890625 109.7578125 C-39.86021571 111.15268612 -54.58844353 108.37992727 -68.62890625 97.7578125 C-69.71945313 96.93990234 -69.71945313 96.93990234 -70.83203125 96.10546875 C-81.91595098 87.11564836 -89.29755409 73.09726515 -91.11328125 58.99609375 C-92.35744602 40.60807036 -88.64138335 25.21468901 -76.62890625 10.7578125 C-75.84773438 9.78908203 -75.84773438 9.78908203 -75.05078125 8.80078125 C-56.96043069 -11.43665637 -22.26028288 -14.54777108 0 0 Z M-64.59375 23.04296875 C-72.13863492 33.10813236 -75.68820083 44.44717064 -74.2578125 57.01953125 C-72.71991055 65.09112845 -69.60930212 71.26345981 -64.62890625 77.7578125 C-64.12746094 78.41523438 -63.62601563 79.07265625 -63.109375 79.75 C-56.84975762 86.88120968 -45.82750142 92.30334819 -36.37890625 92.99609375 C-22.48981668 93.27098198 -12.18662283 90.09864941 -1.62890625 80.7578125 C6.99157431 71.82684852 10.79448142 60.28406878 10.64453125 48.078125 C9.65125933 36.01696594 4.29296933 26.20847263 -4.37890625 17.9453125 C-14.46942989 9.60880566 -25.80513504 7.88663356 -38.44873047 8.53564453 C-48.74512282 9.58488496 -57.95514551 15.32212655 -64.59375 23.04296875 Z " fill="#F8A613" transform="translate(155.62890625,330.2421875)"/>
<path d="M0 0 C1.29063354 -0.00241196 2.58126709 -0.00482391 3.91101074 -0.00730896 C6.6380984 -0.01016184 9.36436241 0.00448161 12.09130859 0.03198242 C15.57857942 0.06606662 19.06437834 0.06004343 22.55171967 0.04131985 C25.88879153 0.02818122 29.22543838 0.04647296 32.5625 0.0625 C34.43609192 0.0550602 34.43609192 0.0550602 36.34753418 0.04747009 C37.51224243 0.06330643 38.67695068 0.07914276 39.87695312 0.09545898 C41.40987 0.10475685 41.40987 0.10475685 42.97375488 0.11424255 C46.6706632 0.79195148 48.16860874 1.92736244 50.78125 4.62890625 C51.28480535 7.376108 51.45865633 9.51159412 51.41616821 12.25817871 C51.42396817 13.03056554 51.43176812 13.80295238 51.43980443 14.59874487 C51.45976358 17.18936064 51.44394554 19.77851372 51.42822266 22.36914062 C51.43499707 24.22529458 51.4438992 26.08144182 51.45477295 27.93757629 C51.47759387 32.98100277 51.46871839 38.02391864 51.45287752 43.0673542 C51.44023302 48.341263 51.4519546 53.6151276 51.45980835 58.88903809 C51.46890913 67.74625512 51.45690571 76.60326381 51.43310547 85.46044922 C51.40589344 95.70574245 51.41470729 105.95053821 51.4422375 116.19581938 C51.4649153 124.98659132 51.46813514 133.77721335 51.45504415 142.56800508 C51.44724235 147.82082558 51.44622811 153.07341212 51.46272659 158.32621765 C51.47715273 163.26430781 51.46718359 168.20175559 51.43825531 173.13977623 C51.43163456 174.95382812 51.43355902 176.76793393 51.44456863 178.58196449 C51.45819732 181.05525474 51.44114341 183.52647607 51.41616821 185.99963379 C51.42732182 186.72064317 51.43847543 187.44165256 51.44996703 188.18451071 C51.37712612 191.89316036 51.03984023 193.36004829 48.42906761 196.07448578 C45.16732458 197.98931561 43.50646579 198.24977555 39.78125 197.62890625 C35.20788199 194.78325504 35.20788199 194.78325504 34.15204716 191.92645645 C33.64788733 188.80255841 33.65868857 185.78318137 33.66099548 182.61810303 C33.66014106 181.91231432 33.65928663 181.20652562 33.65840632 180.47934937 C33.65675942 178.11478781 33.66225995 175.75029721 33.66772461 173.38574219 C33.66800668 171.69059246 33.66784836 169.99544262 33.6672821 168.30029297 C33.6669949 163.69736017 33.6728793 159.09445336 33.67985606 154.4915266 C33.6861023 149.68154723 33.68669441 144.87156728 33.68788147 140.06158447 C33.69099103 130.95272514 33.69919938 121.84387779 33.70923096 112.73502374 C33.72040372 102.36511782 33.72590548 91.99521133 33.73092639 81.62530088 C33.74138229 60.29316265 33.7589745 38.9610352 33.78125 17.62890625 C33.20353348 17.64000931 32.62581696 17.65111237 32.03059387 17.66255188 C26.01233394 17.77325436 19.99436364 17.8486183 13.9753418 17.90356445 C11.72977956 17.92869348 9.484299 17.9628024 7.23901367 18.00610352 C4.00939782 18.06682401 0.78086416 18.09513256 -2.44921875 18.1171875 C-3.45147995 18.14299393 -4.45374115 18.16880035 -5.4863739 18.19538879 C-10.19823464 18.19728063 -12.47063569 18.18074035 -16.3527832 15.31713867 C-18.8243182 11.75648554 -18.97754951 9.87818348 -18.21875 5.62890625 C-13.85738806 -1.19349216 -7.45353538 -0.07911584 0 0 Z " fill="#EB3F25" transform="translate(399.21875,74.37109375)"/>
<path d="M0 0 C1.16470825 -0.01583633 2.3294165 -0.03167267 3.52941895 -0.04798889 C4.77848022 -0.04302902 6.0275415 -0.03806915 7.31445312 -0.03295898 C9.25040344 -0.04225685 9.25040344 -0.04225685 11.22546387 -0.05174255 C13.9524118 -0.06212993 16.67883736 -0.05760965 19.40576172 -0.04296875 C22.89317546 -0.02577333 26.3789427 -0.0492902 29.86617279 -0.08445835 C33.20319613 -0.11174943 36.53982337 -0.10169547 39.87695312 -0.09545898 C41.1260144 -0.10871719 42.37507568 -0.1219754 43.6619873 -0.13563538 C53.28775955 -0.03205504 53.28775955 -0.03205504 56.3828125 2.85400391 C58.66596695 6.4255005 58.83907649 8.37055642 58.09570312 12.53344727 C56.04728507 15.48453077 54.44770491 17.27528146 50.82675171 17.96670532 C47.98009059 18.11308262 45.17568503 18.09509837 42.32617188 18.02172852 C41.2900325 18.01465378 40.25389313 18.00757904 39.18635559 18.00028992 C35.88456316 17.97235334 32.58448097 17.90961357 29.28320312 17.84594727 C27.0416912 17.82086356 24.80015263 17.79805053 22.55859375 17.77758789 C17.07038232 17.72252933 11.58316492 17.63891007 6.09570312 17.53344727 C6.09754671 18.41528026 6.0993903 19.29711325 6.10128975 20.20566845 C6.14544285 41.65458031 6.17854707 63.10348434 6.19932747 84.55243206 C6.2096436 94.92494526 6.2237104 105.29742814 6.24658203 115.66992188 C6.26650556 124.70972695 6.27941711 133.74951008 6.28388011 142.7893365 C6.28648925 147.57661806 6.29262889 152.36383681 6.30716324 157.15109825 C6.32073074 161.65637578 6.32492744 166.16156456 6.32191849 170.66686058 C6.32246902 172.32086163 6.32645142 173.97486563 6.33411407 175.62884903 C6.34406235 177.88680502 6.34167251 180.1444258 6.33621216 182.40238953 C6.33805574 183.66616771 6.33989933 184.92994589 6.34179878 186.23202038 C6.03084459 190.40353863 5.2732601 193.31383468 2.34570312 196.34594727 C-0.68324616 197.94455939 -2.51831739 198.01715862 -5.90429688 197.53344727 C-8.55602074 195.98293304 -8.55602074 195.98293304 -10.90429688 193.53344727 C-11.40785223 190.78624552 -11.5817032 188.6507594 -11.53921509 185.9041748 C-11.54701504 185.13178797 -11.55481499 184.35940114 -11.56285131 183.56360865 C-11.58281046 180.97299288 -11.56699242 178.38383979 -11.55126953 175.79321289 C-11.55804394 173.93705893 -11.56694608 172.08091169 -11.57781982 170.22477722 C-11.60064074 165.18135074 -11.59176527 160.13843488 -11.5759244 155.09499931 C-11.56327989 149.82109052 -11.57500147 144.54722591 -11.58285522 139.27331543 C-11.59195601 130.4160984 -11.57995258 121.55908971 -11.55615234 112.7019043 C-11.52894031 102.45661107 -11.53775417 92.21181531 -11.56528437 81.96653414 C-11.58796218 73.1757622 -11.59118201 64.38514016 -11.57809103 55.59434843 C-11.57028922 50.34152794 -11.56927499 45.0889414 -11.58577347 39.83613586 C-11.6001996 34.89804571 -11.59023046 29.96059792 -11.56130219 25.02257729 C-11.55468143 23.20852539 -11.5566059 21.39441959 -11.56761551 19.58038902 C-11.58124419 17.10709878 -11.56419029 14.63587744 -11.53921509 12.16271973 C-11.5503687 11.44171034 -11.56152231 10.72070096 -11.5730139 9.97784281 C-11.50000559 6.26067015 -11.16493259 4.80295185 -8.54008293 2.08878422 C-5.44063177 0.25984559 -3.5823853 0.02172886 0 0 Z " fill="#F38319" transform="translate(72.904296875,74.466552734375)"/>
</svg>
