<?xml version="1.0" encoding="UTF-8"?>
<svg version="1.1" xmlns="http://www.w3.org/2000/svg" width="512" height="512">
<path d="M0 0 C0.75045593 0.00182281 1.50091187 0.00364563 2.27410889 0.00552368 C13.20093885 0.05023057 23.64715403 0.42916919 34.25 3.3125 C34.9207959 3.49474121 35.5915918 3.67698242 36.28271484 3.86474609 C62.20636899 11.06609537 83.97318008 23.75928443 103.25 42.3125 C103.88164062 42.88097656 104.51328125 43.44945312 105.1640625 44.03515625 C123.28465829 60.82461823 135.62754402 86.55308926 141.25 110.3125 C141.25 111.6325 141.25 112.9525 141.25 114.3125 C142.1678125 113.99023438 143.085625 113.66796875 144.03125 113.3359375 C161.31506375 108.43365097 181.40722255 112.51237039 196.82275391 120.90087891 C213.90718403 130.87544321 225.30662858 147.09059956 231.1875 165.75 C235.56914019 185.96031537 232.37968046 207.06151039 221.44775391 224.54882812 C210.53314551 240.62039988 194.48983365 251.10520454 175.77023315 255.6789093 C169.28179671 256.84673336 162.7689501 256.67825995 156.203125 256.60546875 C154.6957034 256.59985837 153.18827625 256.59559511 151.68084717 256.59260559 C147.75500809 256.58127003 143.82951357 256.55190348 139.90380859 256.51849365 C135.88123228 256.48754604 131.8585991 256.47404805 127.8359375 256.45898438 C119.97380199 256.42702013 112.11194412 256.37596467 104.25 256.3125 C104.2814209 257.99206787 104.2814209 257.99206787 104.31347656 259.70556641 C104.38610426 263.87633377 104.43188211 268.04704568 104.46972656 272.21826172 C104.48979033 274.02044081 104.51704813 275.82255521 104.55175781 277.62451172 C104.60050829 280.22119136 104.62302082 282.81700729 104.640625 285.4140625 C104.66127014 286.2142984 104.68191528 287.0145343 104.70318604 287.83901978 C104.70529431 293.14476241 103.75436805 296.0975725 100.25 300.3125 C95.67788179 304.08946721 94.49601419 304.3125 88.25 304.3125 C88.25 317.5125 88.25 330.7125 88.25 344.3125 C120.26 344.3125 152.27 344.3125 185.25 344.3125 C185.91 342.3325 186.57 340.3525 187.25 338.3125 C190.73133562 333.58192521 195.38429656 329.47320457 201.25 328.3125 C209.13977562 327.55929946 216.81539726 327.14466469 223.25 332.3125 C228.29521222 337.11698639 231.85562995 341.47427055 232.5859375 348.58203125 C232.67983204 357.09826573 232.3677288 362.98845494 226.37890625 369.27734375 C219.47505269 375.6591668 214.04832071 376.79292252 204.6953125 376.6171875 C196.77790117 375.91700827 192.64427507 372.198306 187.59765625 366.3125 C186.21431314 364.25953863 185.77957463 362.70071676 185.25 360.3125 C184.69193035 360.31618717 184.1338607 360.31987434 183.55887985 360.32367325 C169.97989271 360.41201014 156.40095591 360.47794726 142.82174301 360.51974869 C136.25491394 360.54064196 129.68829192 360.56899195 123.12158203 360.61425781 C116.7868165 360.65765259 110.45225039 360.68162399 104.11734772 360.69200897 C101.69795847 360.69941172 99.27858039 360.71386716 96.85927582 360.73542023 C93.47592908 360.76436866 90.09341117 360.76845947 86.70996094 360.76660156 C85.70511154 360.78098267 84.70026215 360.79536377 83.66496277 360.81018066 C76.95614888 360.77019821 76.95614888 360.77019821 73.62463379 358.61083984 C71.98168026 355.86387874 71.76491681 354.27606854 71.79589844 351.08496094 C71.79635162 349.52379547 71.79635162 349.52379547 71.79681396 347.93109131 C71.81745911 346.81429993 71.83810425 345.69750854 71.859375 344.546875 C71.86503479 343.39834045 71.87069458 342.24980591 71.87652588 341.06646729 C71.89891669 337.39805426 71.94912058 333.73061783 72 330.0625 C72.02006139 327.57553494 72.03831278 325.08855457 72.0546875 322.6015625 C72.09879076 316.50483203 72.1678392 310.40883159 72.25 304.3125 C66.97 304.3125 61.69 304.3125 56.25 304.3125 C56.25 328.0725 56.25 351.8325 56.25 376.3125 C78.44892486 376.15420075 78.44892486 376.15420075 100.64746094 375.95214844 C104.94580078 375.93408203 104.94580078 375.93408203 106.95953369 375.9307251 C108.36274287 375.92459201 109.76593126 375.9105424 111.16900635 375.89019775 C113.29761231 375.86088201 115.42493311 375.85687679 117.55371094 375.85839844 C118.75284119 375.84951599 119.95197144 375.84063354 121.18743896 375.83148193 C124.25 376.3125 124.25 376.3125 126.64013672 378.10021973 C129.07934683 381.45219158 128.74480786 384.8168866 128.640625 388.796875 C128.63496521 389.61246887 128.62930542 390.42806274 128.62347412 391.26837158 C128.60112727 393.86701772 128.55093622 396.46427242 128.5 399.0625 C128.47993271 400.82680297 128.46168234 402.5911276 128.4453125 404.35546875 C128.4012683 408.67501328 128.33225422 412.99352093 128.25 417.3125 C129.1985083 417.61196533 130.1470166 417.91143066 131.12426758 418.2199707 C136.78556268 420.19874877 140.04531823 424.40832558 143.1875 429.375 C145.61666915 436.08557977 145.62591485 445.20569598 142.75 451.75 C139.23003218 457.57485779 133.76037066 462.29466582 127.25 464.3125 C119.41391792 465.11764105 111.63077423 465.43710392 105.25 460.3125 C100.20478778 455.50801361 96.64437005 451.15072945 95.9140625 444.04296875 C95.81980312 435.49364273 96.14498446 429.61940155 102.15625 423.3125 C105.59232923 420.13284459 107.61724364 418.47068909 112.25 417.3125 C112.25 409.0625 112.25 400.8125 112.25 392.3125 C110.21102539 392.33344727 108.17205078 392.35439453 106.07128906 392.37597656 C99.33392794 392.44226058 92.5965524 392.48644087 85.85895157 392.51974869 C81.7739563 392.54062211 77.68929515 392.56893463 73.60449219 392.61425781 C69.66225655 392.6577253 65.72034223 392.68163895 61.77788544 392.69200897 C60.27395316 392.69939882 58.77003843 392.71382967 57.26624298 392.73542023 C55.15920541 392.76446812 53.05349471 392.76845571 50.94628906 392.76660156 C49.74715881 392.77548401 48.54802856 392.78436646 47.31256104 392.79351807 C44.25 392.3125 44.25 392.3125 41.85986328 390.79443359 C39.60354611 387.31585907 39.72111148 384.15736149 39.79589844 380.14746094 C39.79531433 379.3275769 39.79473022 378.50769287 39.79412842 377.66296387 C39.7969117 374.95716789 39.82801451 372.25247815 39.859375 369.546875 C39.86683654 367.6692973 39.87252988 365.79171181 39.87652588 363.91412354 C39.89178909 358.97540742 39.93107687 354.0371628 39.9753418 349.09863281 C40.01627965 344.05800759 40.03453372 339.01730609 40.0546875 333.9765625 C40.09757056 324.08830131 40.16792608 314.20051365 40.25 304.3125 C29.69 304.3125 19.13 304.3125 8.25 304.3125 C8.25 336.3225 8.25 368.3325 8.25 401.3125 C10.23 401.9725 12.21 402.6325 14.25 403.3125 C18.98057479 406.79383562 23.08929543 411.44679656 24.25 417.3125 C25.00320054 425.20227562 25.41783531 432.87789726 20.25 439.3125 C15.44551361 444.35771222 11.08822945 447.91812995 3.98046875 448.6484375 C-4.53576573 448.74233204 -10.42595494 448.4302288 -16.71484375 442.44140625 C-23.0966668 435.53755269 -24.23042252 430.11082071 -24.0546875 420.7578125 C-23.35450827 412.84040117 -19.635806 408.70677507 -13.75 403.66015625 C-11.75 402.3125 -11.75 402.3125 -7.75 401.3125 C-7.75 369.3025 -7.75 337.2925 -7.75 304.3125 C-18.31 304.3125 -28.87 304.3125 -39.75 304.3125 C-39.72905273 306.83616211 -39.70810547 309.35982422 -39.68652344 311.95996094 C-39.62027347 320.29389603 -39.57607262 328.6278427 -39.54275131 336.96197128 C-39.52186786 342.0154792 -39.49353629 347.06871755 -39.44824219 352.12207031 C-39.40481161 356.99797468 -39.3808686 361.8736196 -39.37049103 366.74970245 C-39.36309465 368.61088394 -39.34865134 370.47205108 -39.32707977 372.33312225 C-39.29808256 374.93821504 -39.29404241 377.54223298 -39.29589844 380.14746094 C-39.28151733 380.91854187 -39.26713623 381.6896228 -39.25231934 382.48406982 C-39.27815054 385.83020433 -39.52176553 387.96062987 -41.35986328 390.79443359 C-44.54975805 392.82045665 -46.67581454 392.794531 -50.44628906 392.76660156 C-51.11011597 392.76718567 -51.77394287 392.76776978 -52.45788574 392.76837158 C-54.64433738 392.76559265 -56.82941262 392.73451328 -59.015625 392.703125 C-60.53447729 392.69566184 -62.05333922 392.68996926 -63.57220459 392.68597412 C-67.56403325 392.67072341 -71.55527697 392.63144723 -75.546875 392.5871582 C-79.62231534 392.54619289 -83.69785048 392.52796046 -87.7734375 392.5078125 C-95.76592296 392.46495159 -103.75782126 392.3946071 -111.75 392.3125 C-111.75 400.5625 -111.75 408.8125 -111.75 417.3125 C-109.77 417.9725 -107.79 418.6325 -105.75 419.3125 C-101.01942521 422.79383562 -96.91070457 427.44679656 -95.75 433.3125 C-94.99679946 441.20227562 -94.58216469 448.87789726 -99.75 455.3125 C-104.55448639 460.35771222 -108.91177055 463.91812995 -116.01953125 464.6484375 C-124.53576573 464.74233204 -130.42595494 464.4302288 -136.71484375 458.44140625 C-143.0966668 451.53755269 -144.23042252 446.11082071 -144.0546875 436.7578125 C-143.35450827 428.84040117 -139.635806 424.70677507 -133.75 419.66015625 C-131.69703863 418.27681314 -130.13821676 417.84207463 -127.75 417.3125 C-127.7814209 415.66266113 -127.7814209 415.66266113 -127.81347656 413.97949219 C-127.88593635 409.89450119 -127.93182115 405.80956686 -127.96972656 401.72412109 C-127.9898285 399.95677128 -128.01711472 398.18948787 -128.05175781 396.42236328 C-128.10034009 393.88036715 -128.12298226 391.33925104 -128.140625 388.796875 C-128.16127014 388.00819031 -128.18191528 387.21950562 -128.20318604 386.40692139 C-128.2045512 383.06107379 -128.14069341 380.84939238 -126.14013672 378.10021973 C-122.9581563 375.72023489 -121.0058715 375.82912317 -117.05371094 375.85839844 C-116.37920017 375.8579163 -115.70468941 375.85743416 -115.00973892 375.85693741 C-112.83407406 375.85991461 -110.65979341 375.89033134 -108.484375 375.921875 C-107.1381903 375.92775885 -105.79199647 375.9318379 -104.44580078 375.93408203 C-99.4637273 375.95502225 -94.48184993 376.01086751 -89.5 376.0625 C-78.3625 376.145 -67.225 376.2275 -55.75 376.3125 C-55.75 352.5525 -55.75 328.7925 -55.75 304.3125 C-61.03 304.3125 -66.31 304.3125 -71.75 304.3125 C-71.72905273 305.86678711 -71.70810547 307.42107422 -71.68652344 309.02246094 C-71.61416622 314.78473714 -71.56821522 320.54697313 -71.53027344 326.30957031 C-71.51014836 328.80443065 -71.48284548 331.29924378 -71.44824219 333.79394531 C-71.39976543 337.37837368 -71.3770398 340.96217885 -71.359375 344.546875 C-71.33872986 345.66366638 -71.31808472 346.78045776 -71.29681396 347.93109131 C-71.29651184 348.97186829 -71.29620972 350.01264526 -71.29589844 351.08496094 C-71.28701599 351.99985291 -71.27813354 352.91474487 -71.26898193 353.85736084 C-71.75 356.3125 -71.75 356.3125 -73.12463379 358.61083984 C-77.2822164 361.30562301 -81.36029932 360.83600847 -86.20996094 360.76660156 C-87.80554588 360.76747772 -87.80554588 360.76747772 -89.43336487 360.76837158 C-92.95069974 360.76558401 -96.46718809 360.73445886 -99.984375 360.703125 C-102.4224603 360.69566504 -104.86055159 360.68997095 -107.29864502 360.68597412 C-113.71690412 360.67069867 -120.13480138 360.63139977 -126.55291748 360.5871582 C-133.10163477 360.54624707 -139.65041051 360.52797196 -146.19921875 360.5078125 C-159.04963358 360.46490789 -171.89979755 360.39740142 -184.75 360.3125 C-185.04946533 361.2610083 -185.34893066 362.2095166 -185.6574707 363.18676758 C-187.63624877 368.84806268 -191.84582558 372.10781823 -196.8125 375.25 C-203.52307977 377.67916915 -212.64319598 377.68841485 -219.1875 374.8125 C-225.01235779 371.29253218 -229.73216582 365.82287066 -231.75 359.3125 C-232.55514105 351.47641792 -232.87460392 343.69327423 -227.75 337.3125 C-222.94551361 332.26728778 -218.58822945 328.70687005 -211.48046875 327.9765625 C-202.93114273 327.88230312 -197.05690155 328.20748446 -190.75 334.21875 C-187.57034459 337.65482923 -185.90818909 339.67974364 -184.75 344.3125 C-152.74 344.3125 -120.73 344.3125 -87.75 344.3125 C-87.75 331.1125 -87.75 317.9125 -87.75 304.3125 C-89.73 304.3125 -91.71 304.3125 -93.75 304.3125 C-98.57270654 301.8046926 -101.17464524 299.06988509 -103.75 294.3125 C-104.26558475 291.33175861 -104.21847387 288.43159868 -104.140625 285.4140625 C-104.13496521 284.57910248 -104.12930542 283.74414246 -104.12347412 282.88388062 C-104.10120223 280.23448734 -104.05102523 277.58647984 -104 274.9375 C-103.97992302 273.13413421 -103.96167435 271.33074708 -103.9453125 269.52734375 C-103.90136786 265.12186731 -103.83240601 260.71741806 -103.75 256.3125 C-104.37845825 256.32138245 -105.0069165 256.33026489 -105.65441895 256.3394165 C-112.2745644 256.42882952 -118.89453473 256.48861833 -125.51513672 256.53222656 C-127.97647077 256.55217724 -130.43775845 256.57934764 -132.89892578 256.61425781 C-161.6264864 257.01114406 -185.87990574 251.33338543 -207.2265625 230.95703125 C-225.81875633 211.47264236 -232.31436841 188.31342975 -232.03125 161.94140625 C-231.80338635 153.88528701 -230.4143499 146.9199201 -227.75 139.3125 C-227.399375 138.27609375 -227.04875 137.2396875 -226.6875 136.171875 C-218.67156934 114.90739229 -202.55226617 97.76368392 -182.1875 87.9375 C-171.90219318 83.49897517 -161.52673413 80.16118222 -150.2578125 80.21484375 C-149.05898437 80.21806641 -147.86015625 80.22128906 -146.625 80.22460938 C-144.76875 80.23717773 -144.76875 80.23717773 -142.875 80.25 C-141.61429687 80.25451172 -140.35359375 80.25902344 -139.0546875 80.26367188 C-135.95307614 80.2754204 -132.85156275 80.29184833 -129.75 80.3125 C-129.28851563 79.38050781 -128.82703125 78.44851562 -128.3515625 77.48828125 C-121.59145572 64.15296251 -113.00179511 53.2050323 -102.75 42.3125 C-102.151875 41.64992187 -101.55375 40.98734375 -100.9375 40.3046875 C-91.07702882 29.80668585 -78.41896794 21.95064374 -65.75 15.3125 C-64.60402344 14.70664062 -63.45804688 14.10078125 -62.27734375 13.4765625 C-55.12454789 9.84515817 -47.82691074 7.23169782 -40.125 5 C-39.290896 4.75749512 -38.45679199 4.51499023 -37.59741211 4.26513672 C-25.13875229 0.83770333 -12.85396386 -0.06481139 0 0 Z " fill="#FED547" transform="translate(255.75,23.6875)"/>
<path d="M0 0 C0.75045593 0.00182281 1.50091187 0.00364563 2.27410889 0.00552368 C13.20093885 0.05023057 23.64715403 0.42916919 34.25 3.3125 C34.9207959 3.49474121 35.5915918 3.67698242 36.28271484 3.86474609 C62.20636899 11.06609537 83.97318008 23.75928443 103.25 42.3125 C103.88164062 42.88097656 104.51328125 43.44945312 105.1640625 44.03515625 C123.28465829 60.82461823 135.62754402 86.55308926 141.25 110.3125 C141.25 111.6325 141.25 112.9525 141.25 114.3125 C142.1678125 113.99023438 143.085625 113.66796875 144.03125 113.3359375 C161.31506375 108.43365097 181.40722255 112.51237039 196.82275391 120.90087891 C213.90718403 130.87544321 225.30662858 147.09059956 231.1875 165.75 C235.56914019 185.96031537 232.37968046 207.06151039 221.44775391 224.54882812 C210.53314551 240.62039988 194.48983365 251.10520454 175.77023315 255.6789093 C169.28179671 256.84673336 162.7689501 256.67825995 156.203125 256.60546875 C154.6957034 256.59985837 153.18827625 256.59559511 151.68084717 256.59260559 C147.75500809 256.58127003 143.82951357 256.55190348 139.90380859 256.51849365 C135.88123228 256.48754604 131.8585991 256.47404805 127.8359375 256.45898438 C119.97380199 256.42702013 112.11194412 256.37596467 104.25 256.3125 C103.99605469 255.620354 103.74210937 254.92820801 103.48046875 254.21508789 C103.13628906 253.31008545 102.79210937 252.40508301 102.4375 251.47265625 C102.10105469 250.57426025 101.76460938 249.67586426 101.41796875 248.75024414 C99.75786465 245.28533204 97.6649068 243.94880951 94.25 242.3125 C92.02397385 241.54310319 92.02397385 241.54310319 90.25 241.3125 C90.25 240.6525 90.25 239.9925 90.25 239.3125 C91.4875 238.94125 92.725 238.57 94 238.1875 C98.362013 236.55850046 100.10740306 234.51199 102.25 230.3125 C103.6214207 226.36198105 103.44829205 222.24306423 103.48828125 218.109375 C103.496353 217.31275452 103.50442474 216.51613403 103.51274109 215.69537354 C103.52654888 214.01096756 103.53728576 212.32653398 103.54516602 210.64208984 C103.55667445 208.92944062 103.5771084 207.21682694 103.60668945 205.50439453 C103.6496026 203.01830899 103.66556745 200.53328607 103.67578125 198.046875 C103.70204338 196.913638 103.70204338 196.913638 103.72883606 195.75750732 C103.70655766 190.21942673 102.37120225 185.92613235 99.25 181.3125 C96.3824209 179.0901262 93.80631158 177.97107622 90.25 177.3125 C90.25 176.6525 90.25 175.9925 90.25 175.3125 C91.4875 174.94125 92.725 174.57 94 174.1875 C98.362013 172.55850046 100.10740306 170.51199 102.25 166.3125 C103.6214207 162.36198105 103.44829205 158.24306423 103.48828125 154.109375 C103.496353 153.31275452 103.50442474 152.51613403 103.51274109 151.69537354 C103.52654888 150.01096756 103.53728576 148.32653398 103.54516602 146.64208984 C103.55667445 144.92944062 103.5771084 143.21682694 103.60668945 141.50439453 C103.6496026 139.01830899 103.66556745 136.53328607 103.67578125 134.046875 C103.70204338 132.913638 103.70204338 132.913638 103.72883606 131.75750732 C103.70655766 126.21942673 102.37120225 121.92613235 99.25 117.3125 C94.13849731 113.35108541 89.18042428 113.16365686 82.90666199 113.16532898 C82.16497672 113.16165229 81.42329145 113.1579756 80.65913087 113.1541875 C78.17273061 113.1431704 75.68637217 113.13931021 73.19995117 113.13549805 C71.4176368 113.129232 69.63532373 113.12258508 67.85301208 113.11558533 C61.99967353 113.09456277 56.14633476 113.08418598 50.29296875 113.07421875 C48.27729084 113.0701708 46.26161307 113.06605386 44.24593544 113.06186867 C34.7776506 113.04282253 25.30937353 113.02858917 15.84107322 113.0202567 C4.91246403 113.01048007 -6.01594284 112.984147 -16.94448072 112.94375581 C-25.39301024 112.91360202 -33.84148174 112.8987886 -42.29006404 112.89547569 C-47.33563159 112.89312475 -52.38098287 112.88415825 -57.42649269 112.85901451 C-62.17321966 112.83574113 -66.91958781 112.83149761 -71.66635704 112.84177589 C-73.40660673 112.84227151 -75.14687405 112.83594345 -76.8870697 112.82221985 C-79.26704576 112.80450363 -81.64573354 112.81160472 -84.02571106 112.82475281 C-84.71074528 112.81378356 -85.3957795 112.80281432 -86.10157233 112.79151267 C-91.44914867 112.86260583 -94.43962354 114.36225411 -98.75 117.3125 C-102.80233992 122.66514396 -103.34657316 126.90983514 -103.28125 133.5 C-103.2850769 134.36133545 -103.28890381 135.2226709 -103.29284668 136.11010742 C-103.29555548 137.92204973 -103.28826689 139.73403183 -103.27148438 141.54589844 C-103.25005878 144.304931 -103.27132004 147.06136004 -103.296875 149.8203125 C-103.29423154 151.58854736 -103.28910618 153.35678062 -103.28125 155.125 C-103.28934692 155.94186279 -103.29744385 156.75872559 -103.30578613 157.6003418 C-103.2135691 163.28833581 -101.99138464 166.61689097 -98.75 171.3125 C-96.93722885 172.90534477 -96.93722885 172.90534477 -95 173.75 C-93.9275 174.265625 -92.855 174.78125 -91.75 175.3125 C-91.75 175.9725 -91.75 176.6325 -91.75 177.3125 C-93.44270833 178.12630208 -95.13541667 178.94010417 -96.828125 179.75390625 C-100.21988279 182.50453909 -102.36637406 186.15375899 -103.12750244 190.43678284 C-103.27586294 192.79993288 -103.30471897 195.13231941 -103.28125 197.5 C-103.2850769 198.36133545 -103.28890381 199.2226709 -103.29284668 200.11010742 C-103.29555548 201.92204973 -103.28826689 203.73403183 -103.27148438 205.54589844 C-103.25005878 208.304931 -103.27132004 211.06136004 -103.296875 213.8203125 C-103.29423154 215.58854736 -103.28910618 217.35678062 -103.28125 219.125 C-103.28934692 219.94186279 -103.29744385 220.75872559 -103.30578613 221.6003418 C-103.2135691 227.28833581 -101.99138464 230.61689097 -98.75 235.3125 C-96.93722885 236.90534477 -96.93722885 236.90534477 -95 237.75 C-93.9275 238.265625 -92.855 238.78125 -91.75 239.3125 C-91.75 239.9725 -91.75 240.6325 -91.75 241.3125 C-92.8225 241.828125 -93.895 242.34375 -95 242.875 C-99.25815525 245.29714904 -100.70379824 247.90529621 -102.75 252.3125 C-103.10964382 253.6389785 -103.44998931 254.97127575 -103.75 256.3125 C-111.00492085 256.41503894 -118.2596507 256.48443651 -125.51513672 256.53222656 C-127.97647077 256.55217724 -130.43775845 256.57934764 -132.89892578 256.61425781 C-161.6264864 257.01114406 -185.87990574 251.33338543 -207.2265625 230.95703125 C-225.81875633 211.47264236 -232.31436841 188.31342975 -232.03125 161.94140625 C-231.80338635 153.88528701 -230.4143499 146.9199201 -227.75 139.3125 C-227.399375 138.27609375 -227.04875 137.2396875 -226.6875 136.171875 C-218.67156934 114.90739229 -202.55226617 97.76368392 -182.1875 87.9375 C-171.90219318 83.49897517 -161.52673413 80.16118222 -150.2578125 80.21484375 C-149.05898437 80.21806641 -147.86015625 80.22128906 -146.625 80.22460938 C-144.76875 80.23717773 -144.76875 80.23717773 -142.875 80.25 C-141.61429687 80.25451172 -140.35359375 80.25902344 -139.0546875 80.26367188 C-135.95307614 80.2754204 -132.85156275 80.29184833 -129.75 80.3125 C-129.28851563 79.38050781 -128.82703125 78.44851562 -128.3515625 77.48828125 C-121.59145572 64.15296251 -113.00179511 53.2050323 -102.75 42.3125 C-102.151875 41.64992187 -101.55375 40.98734375 -100.9375 40.3046875 C-91.07702882 29.80668585 -78.41896794 21.95064374 -65.75 15.3125 C-64.60402344 14.70664062 -63.45804688 14.10078125 -62.27734375 13.4765625 C-55.12454789 9.84515817 -47.82691074 7.23169782 -40.125 5 C-39.290896 4.75749512 -38.45679199 4.51499023 -37.59741211 4.26513672 C-25.13875229 0.83770333 -12.85396386 -0.06481139 0 0 Z " fill="#00CFCD" transform="translate(255.75,23.6875)"/>
<path d="M0 0 C1.10091476 0.00007553 2.20182953 0.00015106 3.33610535 0.00022888 C4.52367935 0.00539017 5.71125336 0.01055145 6.93481445 0.01586914 C8.7596209 0.01799156 8.7596209 0.01799156 10.62129211 0.02015686 C14.51358481 0.02576227 18.40582035 0.03831572 22.2980957 0.05102539 C24.93416258 0.05603969 27.57023036 0.06060272 30.20629883 0.06469727 C36.67441734 0.07573346 43.14250244 0.09247689 49.6105957 0.11352539 C48.83200195 0.71938477 48.0534082 1.32524414 47.2512207 1.94946289 C44.03643129 4.58406842 41.47741219 7.37989241 39.6105957 11.11352539 C39.2805957 15.40352539 38.9505957 19.69352539 38.6105957 24.11352539 C28.0505957 24.11352539 17.4905957 24.11352539 6.6105957 24.11352539 C6.6105957 29.39352539 6.6105957 34.67352539 6.6105957 40.11352539 C17.1705957 40.11352539 27.7305957 40.11352539 38.6105957 40.11352539 C38.9405957 44.40352539 39.2705957 48.69352539 39.6105957 53.11352539 C41.61510455 57.12254308 43.74632126 59.81911244 47.6105957 62.11352539 C49.75793497 62.81867385 49.75793497 62.81867385 51.6105957 63.11352539 C51.6105957 63.77352539 51.6105957 64.43352539 51.6105957 65.11352539 C50.5380957 65.50540039 49.4655957 65.89727539 48.3605957 66.30102539 C44.02861026 68.14255766 41.7100083 70.9147002 39.6105957 75.11352539 C39.2805957 79.40352539 38.9505957 83.69352539 38.6105957 88.11352539 C28.0505957 88.11352539 17.4905957 88.11352539 6.6105957 88.11352539 C6.6105957 93.39352539 6.6105957 98.67352539 6.6105957 104.11352539 C17.1705957 104.11352539 27.7305957 104.11352539 38.6105957 104.11352539 C38.9405957 108.40352539 39.2705957 112.69352539 39.6105957 117.11352539 C41.61510455 121.12254308 43.74632126 123.81911244 47.6105957 126.11352539 C49.75793497 126.81867385 49.75793497 126.81867385 51.6105957 127.11352539 C51.6105957 127.77352539 51.6105957 128.43352539 51.6105957 129.11352539 C50.5380957 129.50540039 49.4655957 129.89727539 48.3605957 130.30102539 C44.02861026 132.14255766 41.7100083 134.9147002 39.6105957 139.11352539 C39.2805957 143.40352539 38.9505957 147.69352539 38.6105957 152.11352539 C28.0505957 152.11352539 17.4905957 152.11352539 6.6105957 152.11352539 C6.6105957 157.39352539 6.6105957 162.67352539 6.6105957 168.11352539 C17.1705957 168.11352539 27.7305957 168.11352539 38.6105957 168.11352539 C38.9405957 172.40352539 39.2705957 176.69352539 39.6105957 181.11352539 C41.98331492 186.12259929 44.97328984 188.3732992 49.6105957 191.11352539 C48.6205957 191.44352539 47.6305957 191.77352539 46.6105957 192.11352539 C46.61947815 193.15700134 46.6283606 194.20047729 46.63751221 195.27557373 C46.71856454 205.1046512 46.77854498 214.93366096 46.81784439 224.76299667 C46.83872784 229.81650459 46.86705941 234.86974294 46.91235352 239.9230957 C46.9557841 244.79900007 46.9797271 249.67464499 46.99010468 254.55072784 C46.99750105 256.41190933 47.01194436 258.27307647 47.03351593 260.13414764 C47.06251314 262.73924043 47.0665533 265.34325837 47.06469727 267.94848633 C47.07907837 268.71956726 47.09345947 269.49064819 47.10827637 270.28509521 C47.08244516 273.63122972 46.83883017 275.76165527 45.00073242 278.59545898 C41.81083765 280.62148204 39.68478116 280.59555639 35.91430664 280.56762695 C35.25047974 280.56821106 34.58665283 280.56879517 33.90270996 280.56939697 C31.71625832 280.56661804 29.53118308 280.53553867 27.3449707 280.50415039 C25.82611842 280.49668723 24.30725648 280.49099465 22.78839111 280.48699951 C18.79656245 280.4717488 14.80531873 280.43247262 10.8137207 280.38818359 C6.73828036 280.34721828 2.66274522 280.32898585 -1.4128418 280.30883789 C-9.40532726 280.26597698 -17.39722555 280.19563249 -25.3894043 280.11352539 C-25.3894043 288.36352539 -25.3894043 296.61352539 -25.3894043 305.11352539 C-23.4094043 305.77352539 -21.4294043 306.43352539 -19.3894043 307.11352539 C-14.65882951 310.59486101 -10.55010886 315.24782195 -9.3894043 321.11352539 C-8.63620376 329.00330101 -8.22156899 336.67892265 -13.3894043 343.11352539 C-18.19389069 348.15873761 -22.55117485 351.71915534 -29.65893555 352.44946289 C-38.17517002 352.54335743 -44.06535924 352.23125419 -50.35424805 346.24243164 C-56.73607109 339.33857808 -57.86982682 333.9118461 -57.6940918 324.55883789 C-56.99391256 316.64142656 -53.2752103 312.50780046 -47.3894043 307.46118164 C-45.33644293 306.07783853 -43.77762106 305.64310002 -41.3894043 305.11352539 C-41.4208252 303.46368652 -41.4208252 303.46368652 -41.45288086 301.78051758 C-41.52534064 297.69552658 -41.57122544 293.61059225 -41.60913086 289.52514648 C-41.6292328 287.75779667 -41.65651902 285.99051326 -41.69116211 284.22338867 C-41.73974439 281.68139254 -41.76238655 279.14027643 -41.7800293 276.59790039 C-41.80067444 275.8092157 -41.82131958 275.02053101 -41.84259033 274.20794678 C-41.8439555 270.86209918 -41.78009771 268.65041777 -39.77954102 265.90124512 C-36.5975606 263.52126028 -34.64527579 263.63014856 -30.69311523 263.65942383 C-30.01860447 263.65894169 -29.3440937 263.65845955 -28.64914322 263.6579628 C-26.47347835 263.66094 -24.29919771 263.69135673 -22.1237793 263.72290039 C-20.7775946 263.72878424 -19.43140076 263.73286329 -18.08520508 263.73510742 C-13.10313159 263.75604764 -8.12125423 263.8118929 -3.1394043 263.86352539 C7.9980957 263.94602539 19.1355957 264.02852539 30.6105957 264.11352539 C30.6105957 240.35352539 30.6105957 216.59352539 30.6105957 192.11352539 C25.3305957 192.11352539 20.0505957 192.11352539 14.6105957 192.11352539 C14.63154297 193.6678125 14.65249023 195.22209961 14.67407227 196.82348633 C14.74642949 202.58576254 14.79238049 208.34799853 14.83032227 214.1105957 C14.85044734 216.60545604 14.87775022 219.10026917 14.91235352 221.5949707 C14.96083027 225.17939907 14.98355591 228.76320424 15.0012207 232.34790039 C15.02186584 233.46469177 15.04251099 234.58148315 15.06378174 235.7321167 C15.06408386 236.77289368 15.06438599 237.81367065 15.06469727 238.88598633 C15.07357971 239.8008783 15.08246216 240.71577026 15.09161377 241.65838623 C14.6105957 244.11352539 14.6105957 244.11352539 13.23596191 246.41186523 C9.0783793 249.1066484 5.00029638 248.63703386 0.15063477 248.56762695 C-1.44495018 248.56850311 -1.44495018 248.56850311 -3.07276917 248.56939697 C-6.59010404 248.5666094 -10.10659239 248.53548425 -13.6237793 248.50415039 C-16.06186459 248.49669043 -18.49995588 248.49099634 -20.93804932 248.48699951 C-27.35630842 248.47172406 -33.77420568 248.43242516 -40.19232178 248.38818359 C-46.74103907 248.34727246 -53.28981481 248.32899735 -59.83862305 248.30883789 C-72.68903788 248.26593328 -85.53920185 248.19842681 -98.3894043 248.11352539 C-98.83860229 249.53628784 -98.83860229 249.53628784 -99.296875 250.98779297 C-101.27565307 256.64908807 -105.48522988 259.90884362 -110.4519043 263.05102539 C-117.16248407 265.48019454 -126.28260028 265.48944024 -132.8269043 262.61352539 C-138.65176208 259.09355757 -143.37157012 253.62389605 -145.3894043 247.11352539 C-146.19454535 239.27744331 -146.51400821 231.49429963 -141.3894043 225.11352539 C-136.58491791 220.06831317 -132.22763375 216.50789544 -125.11987305 215.77758789 C-116.57054702 215.68332851 -110.69630585 216.00850985 -104.3894043 222.01977539 C-101.20974889 225.45585462 -99.54759339 227.48076903 -98.3894043 232.11352539 C-66.3794043 232.11352539 -34.3694043 232.11352539 -1.3894043 232.11352539 C-1.3894043 218.91352539 -1.3894043 205.71352539 -1.3894043 192.11352539 C-3.3694043 192.11352539 -5.3494043 192.11352539 -7.3894043 192.11352539 C-12.21538397 189.60401596 -14.82524839 186.88213936 -17.3894043 182.11352539 C-17.95334076 178.93106913 -17.95082326 175.81202851 -17.9206543 172.58618164 C-17.92639465 171.22546791 -17.92639465 171.22546791 -17.93225098 169.83726501 C-17.93496409 167.92519008 -17.92764509 166.01307765 -17.91088867 164.10107422 C-17.88949489 161.18835893 -17.91069747 158.27811698 -17.9362793 155.36547852 C-17.93363543 153.50154082 -17.92850923 151.63760466 -17.9206543 149.77368164 C-17.92875122 148.90993423 -17.93684814 148.04618683 -17.94519043 147.15626526 C-17.85553048 141.31830662 -16.74270073 137.91983996 -13.3894043 133.11352539 C-9.18427609 129.11352539 -9.18427609 129.11352539 -5.3894043 129.11352539 C-5.3894043 128.45352539 -5.3894043 127.79352539 -5.3894043 127.11352539 C-5.9462793 127.03102539 -6.5031543 126.94852539 -7.0769043 126.86352539 C-11.21207314 125.52238955 -13.71489831 123.18278506 -16.01464844 119.53710938 C-17.74743918 115.22190344 -17.83943866 111.6273058 -17.82299805 107.02368164 C-17.8282399 106.16093124 -17.83348175 105.29818085 -17.83888245 104.4092865 C-17.8452828 102.59139071 -17.84399147 100.77345339 -17.83544922 98.95556641 C-17.8269405 96.18780114 -17.85572492 93.4221027 -17.88745117 90.65454102 C-17.88906355 88.88175517 -17.88848495 87.1089657 -17.88549805 85.33618164 C-17.89673203 84.51618179 -17.907966 83.69618195 -17.91954041 82.85133362 C-17.85084621 77.13275403 -16.65446629 73.83047482 -13.3894043 69.11352539 C-9.18427609 65.11352539 -9.18427609 65.11352539 -5.3894043 65.11352539 C-5.3894043 64.45352539 -5.3894043 63.79352539 -5.3894043 63.11352539 C-5.9462793 63.03102539 -6.5031543 62.94852539 -7.0769043 62.86352539 C-11.21207314 61.52238955 -13.71489831 59.18278506 -16.01464844 55.53710938 C-17.74743918 51.22190344 -17.83943866 47.6273058 -17.82299805 43.02368164 C-17.8282399 42.16093124 -17.83348175 41.29818085 -17.83888245 40.4092865 C-17.8452828 38.59139071 -17.84399147 36.77345339 -17.83544922 34.95556641 C-17.8269405 32.18780114 -17.85572492 29.4221027 -17.88745117 26.65454102 C-17.88906355 24.88175517 -17.88848495 23.1089657 -17.88549805 21.33618164 C-17.89673203 20.51618179 -17.907966 19.69618195 -17.91954041 18.85133362 C-17.8508613 13.13400993 -16.65686882 9.82795104 -13.3894043 5.11352539 C-9.01465716 1.0588817 -5.88172578 -0.01345933 0 0 Z " fill="#FEB300" transform="translate(169.389404296875,135.886474609375)"/>
<path d="M0 0 C2.20470666 0.01073087 4.40859891 0.00003154 6.61328125 -0.01269531 C15.16925305 -0.0217791 23.88627998 0.04534216 32.20703125 2.26074219 C32.53703125 2.92074219 32.86703125 3.58074219 33.20703125 4.26074219 C32.38634155 4.51597656 32.38634155 4.51597656 31.54907227 4.77636719 C-8.91300727 17.48493305 -39.7324405 39.90553799 -60.79296875 77.26074219 C-61.46582558 78.59096244 -62.13393397 79.92362014 -62.79296875 81.26074219 C-63.51137939 81.23455811 -64.22979004 81.20837402 -64.9699707 81.18139648 C-93.54950467 80.28109216 -115.82288729 85.52704667 -137.79296875 104.26074219 C-138.45554687 104.80988281 -139.118125 105.35902344 -139.80078125 105.92480469 C-153.90335364 118.71550988 -163.56479752 140.03660026 -164.98828125 158.84082031 C-165.41204559 168.66509029 -165.49498685 178.7449393 -162.79296875 188.26074219 C-162.61523926 188.90543457 -162.43750977 189.55012695 -162.25439453 190.21435547 C-155.81308763 213.043331 -142.70564624 232.34253605 -121.79296875 244.26074219 C-117.67878788 246.34346319 -113.46559043 248.15942147 -109.19140625 249.88574219 C-106.64486665 250.91606625 -104.21810911 251.98046504 -101.79296875 253.26074219 C-101.79296875 254.25074219 -101.79296875 255.24074219 -101.79296875 256.26074219 C-109.0478896 256.36328113 -116.30261945 256.4326787 -123.55810547 256.48046875 C-126.01943952 256.50041942 -128.4807272 256.52758983 -130.94189453 256.5625 C-159.66945515 256.95938625 -183.92287449 251.28162761 -205.26953125 230.90527344 C-223.86172508 211.42088454 -230.35733716 188.26167194 -230.07421875 161.88964844 C-229.8463551 153.8335292 -228.45731865 146.86816228 -225.79296875 139.26074219 C-225.44234375 138.22433594 -225.09171875 137.18792969 -224.73046875 136.12011719 C-216.71453809 114.85563448 -200.59523492 97.7119261 -180.23046875 87.88574219 C-169.94516193 83.44721736 -159.56970288 80.10942441 -148.30078125 80.16308594 C-147.10195312 80.16630859 -145.903125 80.16953125 -144.66796875 80.17285156 C-142.81171875 80.18541992 -142.81171875 80.18541992 -140.91796875 80.19824219 C-139.65726562 80.20275391 -138.3965625 80.20726563 -137.09765625 80.21191406 C-133.99604489 80.22366259 -130.8945315 80.24009052 -127.79296875 80.26074219 C-127.33148438 79.32875 -126.87 78.39675781 -126.39453125 77.43652344 C-119.63442447 64.1012047 -111.04476386 53.15327449 -100.79296875 42.26074219 C-100.19484375 41.59816406 -99.59671875 40.93558594 -98.98046875 40.25292969 C-89.11999757 29.75492804 -76.46193669 21.89888592 -63.79296875 15.26074219 C-62.64699219 14.65488281 -61.50101563 14.04902344 -60.3203125 13.42480469 C-53.16751664 9.79340036 -45.86987949 7.17994 -38.16796875 4.94824219 C-37.33386475 4.7057373 -36.49976074 4.46323242 -35.64038086 4.21337891 C-23.80061236 0.9562053 -12.21610371 -0.07051925 0 0 Z " fill="#00A5AB" transform="translate(253.79296875,23.7392578125)"/>
<path d="M0 0 C5.87155408 -0.07433795 11.74283219 -0.12869117 17.61474609 -0.16479492 C19.61088841 -0.17985098 21.60699781 -0.20030027 23.60302734 -0.22631836 C26.47762185 -0.26284161 29.35177772 -0.27975837 32.2265625 -0.29296875 C33.55815903 -0.31619453 33.55815903 -0.31619453 34.91665649 -0.33988953 C40.75354616 -0.34146326 45.15387568 0.40401012 49.64453125 4.5 C53.91211066 9.98077089 54.16900961 14.08385388 54.203125 20.83203125 C54.20882507 21.70139816 54.21452515 22.57076508 54.22039795 23.46647644 C54.22984278 25.30649602 54.23637988 27.14653248 54.24023438 28.98657227 C54.24992737 31.79148144 54.2809501 34.59565379 54.3125 37.40039062 C54.31903168 39.19009983 54.3242815 40.97981426 54.328125 42.76953125 C54.3404718 43.60410355 54.3528186 44.43867584 54.36553955 45.29853821 C54.34389178 51.00203589 53.41324615 55.23281108 49.53515625 59.6796875 C46.31342847 62.29467079 45.28843946 63 41 63 C41 63.66 41 64.32 41 65 C41.86625 65.020625 42.7325 65.04125 43.625 65.0625 C48.24124645 66.34479068 50.4651244 69.01190581 53 73 C54.2648664 77.19114266 54.18044387 81.36879179 54.203125 85.7109375 C54.20882507 86.55669342 54.21452515 87.40244934 54.22039795 88.27383423 C54.22983001 90.0607987 54.2363748 91.84778043 54.24023438 93.63476562 C54.24994078 96.35838347 54.28098097 99.08124658 54.3125 101.8046875 C54.31903066 103.54426637 54.32428088 105.28385062 54.328125 107.0234375 C54.3404718 107.83299896 54.3528186 108.64256042 54.36553955 109.47665405 C54.34352884 115.10526555 53.35811756 119.2960252 49.53515625 123.6796875 C46.31342847 126.29467079 45.28843946 127 41 127 C41 127.66 41 128.32 41 129 C41.721875 129.0825 42.44375 129.165 43.1875 129.25 C47.61368638 130.43031637 50.11255399 132.80653812 52.8125 136.4375 C54 139 54 139 54 144 C40.8 144 27.6 144 14 144 C12.68 140.7 11.36 137.4 10 134 C6.85808099 131.31627751 4.10644595 129.63176092 0 129 C0 128.34 0 127.68 0 127 C1.2375 126.62875 2.475 126.2575 3.75 125.875 C8.112013 124.24600046 9.85740306 122.19949 12 118 C13.3714207 114.04948105 13.19829205 109.93056423 13.23828125 105.796875 C13.246353 105.00025452 13.25442474 104.20363403 13.26274109 103.38287354 C13.27654888 101.69846756 13.28728576 100.01403398 13.29516602 98.32958984 C13.30667445 96.61694062 13.3271084 94.90432694 13.35668945 93.19189453 C13.3996026 90.70580899 13.41556745 88.22078607 13.42578125 85.734375 C13.44328934 84.97888367 13.46079742 84.22339233 13.47883606 83.44500732 C13.45655766 77.90692673 12.12120225 73.61363235 9 69 C6.1324209 66.7776262 3.55631158 65.65857622 0 65 C0 64.34 0 63.68 0 63 C1.2375 62.62875 2.475 62.2575 3.75 61.875 C8.112013 60.24600046 9.85740306 58.19949 12 54 C13.3714207 50.04948105 13.19829205 45.93056423 13.23828125 41.796875 C13.246353 41.00025452 13.25442474 40.20363403 13.26274109 39.38287354 C13.27654888 37.69846756 13.28728576 36.01403398 13.29516602 34.32958984 C13.30667445 32.61694062 13.3271084 30.90432694 13.35668945 29.19189453 C13.3996026 26.70580899 13.41556745 24.22078607 13.42578125 21.734375 C13.44328934 20.97888367 13.46079742 20.22339233 13.47883606 19.44500732 C13.4565757 13.91141174 12.1279083 9.60625485 9 5 C6.60943058 3.0645852 6.60943058 3.0645852 4 2 C2.66473712 1.33720647 1.33106965 0.67117495 0 0 Z " fill="#00A5AB" transform="translate(346,136)"/>
<path d="M0 0 C5.28 0 10.56 0 16 0 C16 23.76 16 47.52 16 72 C38.19892486 71.84170075 38.19892486 71.84170075 60.39746094 71.63964844 C64.69580078 71.62158203 64.69580078 71.62158203 66.70953369 71.6182251 C68.11274287 71.61209201 69.51593126 71.5980424 70.91900635 71.57769775 C73.04761231 71.54838201 75.17493311 71.54437679 77.30371094 71.54589844 C79.10240631 71.53257477 79.10240631 71.53257477 80.93743896 71.51898193 C84 72 84 72 86.39013672 73.78771973 C88.82934683 77.13969158 88.49480786 80.5043866 88.390625 84.484375 C88.38496521 85.29996887 88.37930542 86.11556274 88.37347412 86.95587158 C88.35112727 89.55451772 88.30093622 92.15177242 88.25 94.75 C88.22993271 96.51430297 88.21168234 98.2786276 88.1953125 100.04296875 C88.1512683 104.36251328 88.08225422 108.68102093 88 113 C88.9485083 113.29946533 89.8970166 113.59893066 90.87426758 113.9074707 C96.53556268 115.88624877 99.79531823 120.09582558 102.9375 125.0625 C105.36666915 131.77307977 105.37591485 140.89319598 102.5 147.4375 C98.98003218 153.26235779 93.51037066 157.98216582 87 160 C79.16391792 160.80514105 71.38077423 161.12460392 65 156 C59.95478778 151.19551361 56.39437005 146.83822945 55.6640625 139.73046875 C55.56980312 131.18114273 55.89498446 125.30690155 61.90625 119 C65.34232923 115.82034459 67.36724364 114.15818909 72 113 C72 104.75 72 96.5 72 88 C68.94153809 88.0314209 68.94153809 88.0314209 65.82128906 88.06347656 C59.08392794 88.12976058 52.3465524 88.17394087 45.60895157 88.20724869 C41.5239563 88.22812211 37.43929515 88.25643463 33.35449219 88.30175781 C29.41225655 88.3452253 25.47034223 88.36913895 21.52788544 88.37950897 C20.02395316 88.38689882 18.52003843 88.40132967 17.01624298 88.42292023 C14.90920541 88.45196812 12.80349471 88.45595571 10.69628906 88.45410156 C9.49715881 88.46298401 8.29802856 88.47186646 7.06256104 88.48101807 C4 88 4 88 1.60986328 86.48193359 C-0.64645389 83.00335907 -0.52888852 79.84486149 -0.45410156 75.83496094 C-0.45468567 75.0150769 -0.45526978 74.19519287 -0.45587158 73.35046387 C-0.4530883 70.64466789 -0.42198549 67.93997815 -0.390625 65.234375 C-0.38316346 63.3567973 -0.37747012 61.47921181 -0.37347412 59.60162354 C-0.35821091 54.66290742 -0.31892313 49.7246628 -0.2746582 44.78613281 C-0.23372035 39.74550759 -0.21546628 34.70480609 -0.1953125 29.6640625 C-0.15242944 19.77580131 -0.08207392 9.88801365 0 0 Z " fill="#007D92" transform="translate(296,328)"/>
<path d="M0 0 C5.28 0 10.56 0 16 0 C16.09033384 10.88314332 16.16373481 21.76603805 16.20724869 32.64947128 C16.22813214 37.7029792 16.25646371 42.75621755 16.30175781 47.80957031 C16.34518839 52.68547468 16.3691314 57.5611196 16.37950897 62.43720245 C16.38690535 64.29838394 16.40134866 66.15955108 16.42292023 68.02062225 C16.45191744 70.62571504 16.45595759 73.22973298 16.45410156 75.83496094 C16.46848267 76.60604187 16.48286377 77.3771228 16.49768066 78.17156982 C16.47184946 81.51770433 16.22823447 83.64812987 14.39013672 86.48193359 C11.20024195 88.50795665 9.07418546 88.482031 5.30371094 88.45410156 C4.63988403 88.45468567 3.97605713 88.45526978 3.29211426 88.45587158 C1.10566262 88.45309265 -1.07941262 88.42201328 -3.265625 88.390625 C-4.78447729 88.38316184 -6.30333922 88.37746926 -7.82220459 88.37347412 C-11.81403325 88.35822341 -15.80527697 88.31894723 -19.796875 88.2746582 C-23.87231534 88.23369289 -27.94785048 88.21546046 -32.0234375 88.1953125 C-40.01592296 88.15245159 -48.00782126 88.0821071 -56 88 C-56 96.25 -56 104.5 -56 113 C-53.03 113.99 -53.03 113.99 -50 115 C-45.26942521 118.48133562 -41.16070457 123.13429656 -40 129 C-39.24679946 136.88977562 -38.83216469 144.56539726 -44 151 C-48.80448639 156.04521222 -53.16177055 159.60562995 -60.26953125 160.3359375 C-68.78576573 160.42983204 -74.67595494 160.1177288 -80.96484375 154.12890625 C-87.3466668 147.22505269 -88.48042252 141.79832071 -88.3046875 132.4453125 C-87.60450827 124.52790117 -83.885806 120.39427507 -78 115.34765625 C-75.94703863 113.96431314 -74.38821676 113.52957463 -72 113 C-72.02094727 111.90010742 -72.04189453 110.80021484 -72.06347656 109.66699219 C-72.13593635 105.58200119 -72.18182115 101.49706686 -72.21972656 97.41162109 C-72.2398285 95.64427128 -72.26711472 93.87698787 -72.30175781 92.10986328 C-72.35034009 89.56786715 -72.37298226 87.02675104 -72.390625 84.484375 C-72.41127014 83.69569031 -72.43191528 82.90700562 -72.45318604 82.09442139 C-72.4545512 78.74857379 -72.39069341 76.53689238 -70.39013672 73.78771973 C-67.2081563 71.40773489 -65.2558715 71.51662317 -61.30371094 71.54589844 C-60.62920017 71.5454163 -59.95468941 71.54493416 -59.25973892 71.54443741 C-57.08407406 71.54741461 -54.90979341 71.57783134 -52.734375 71.609375 C-51.3881903 71.61525885 -50.04199647 71.6193379 -48.69580078 71.62158203 C-43.7137273 71.64252225 -38.73184993 71.69836751 -33.75 71.75 C-22.6125 71.8325 -11.475 71.915 0 72 C0 48.24 0 24.48 0 0 Z " fill="#007C93" transform="translate(200,328)"/>
<path d="M0 0 C5.28 0 10.56 0 16 0 C16 13.2 16 26.4 16 40 C48.01 40 80.02 40 113 40 C113.99 37.03 113.99 37.03 115 34 C118.48133562 29.26942521 123.13429656 25.16070457 129 24 C136.88977562 23.24679946 144.56539726 22.83216469 151 28 C156.04521222 32.80448639 159.60562995 37.16177055 160.3359375 44.26953125 C160.42983204 52.78576573 160.1177288 58.67595494 154.12890625 64.96484375 C147.22505269 71.3466668 141.79832071 72.48042252 132.4453125 72.3046875 C124.52790117 71.60450827 120.39427507 67.885806 115.34765625 62 C113.96431314 59.94703863 113.52957463 58.38821676 113 56 C112.16289553 56.00553076 112.16289553 56.00553076 111.30887985 56.01117325 C97.72989271 56.09951014 84.15095591 56.16544726 70.57174301 56.20724869 C64.00491394 56.22814196 57.43829192 56.25649195 50.87158203 56.30175781 C44.5368165 56.34515259 38.20225039 56.36912399 31.86734772 56.37950897 C29.44795847 56.38691172 27.02858039 56.40136716 24.60927582 56.42292023 C21.22592908 56.45186866 17.84341117 56.45595947 14.45996094 56.45410156 C12.95268684 56.47567322 12.95268684 56.47567322 11.41496277 56.49768066 C4.70614888 56.45769821 4.70614888 56.45769821 1.37463379 54.29833984 C-0.26831974 51.55137874 -0.48508319 49.96356854 -0.45410156 46.77246094 C-0.45379944 45.73168396 -0.45349731 44.69090698 -0.45318604 43.61859131 C-0.43254089 42.50179993 -0.41189575 41.38500854 -0.390625 40.234375 C-0.38496521 39.08584045 -0.37930542 37.93730591 -0.37347412 36.75396729 C-0.35108331 33.08555426 -0.30087942 29.41811783 -0.25 25.75 C-0.22993861 23.26303494 -0.21168722 20.77605457 -0.1953125 18.2890625 C-0.15120924 12.19233203 -0.0821608 6.09633159 0 0 Z " fill="#007D92" transform="translate(328,328)"/>
<path d="M0 0 C5.28 0 10.56 0 16 0 C16.09881828 7.33231665 16.17144618 14.66424638 16.21972656 21.99707031 C16.23985164 24.49193065 16.26715452 26.98674378 16.30175781 29.48144531 C16.35023457 33.06587368 16.3729602 36.64967885 16.390625 40.234375 C16.41127014 41.35116638 16.43191528 42.46795776 16.45318604 43.61859131 C16.45348816 44.65936829 16.45379028 45.70014526 16.45410156 46.77246094 C16.46298401 47.68735291 16.47186646 48.60224487 16.48101807 49.54486084 C16 52 16 52 14.62536621 54.29833984 C10.4677836 56.99312301 6.38970068 56.52350847 1.54003906 56.45410156 C-0.05554588 56.45497772 -0.05554588 56.45497772 -1.68336487 56.45587158 C-5.20069974 56.45308401 -8.71718809 56.42195886 -12.234375 56.390625 C-14.6724603 56.38316504 -17.11055159 56.37747095 -19.54864502 56.37347412 C-25.96690412 56.35819867 -32.38480138 56.31889977 -38.80291748 56.2746582 C-45.35163477 56.23374707 -51.90041051 56.21547196 -58.44921875 56.1953125 C-71.29963358 56.15240789 -84.14979755 56.08490142 -97 56 C-97.29946533 56.9485083 -97.59893066 57.8970166 -97.9074707 58.87426758 C-99.88624877 64.53556268 -104.09582558 67.79531823 -109.0625 70.9375 C-115.77307977 73.36666915 -124.89319598 73.37591485 -131.4375 70.5 C-137.26235779 66.98003218 -141.98216582 61.51037066 -144 55 C-144.80514105 47.16391792 -145.12460392 39.38077423 -140 33 C-135.19551361 27.95478778 -130.83822945 24.39437005 -123.73046875 23.6640625 C-115.18114273 23.56980312 -109.30690155 23.89498446 -103 29.90625 C-99.82034459 33.34232923 -98.15818909 35.36724364 -97 40 C-64.99 40 -32.98 40 0 40 C0 26.8 0 13.6 0 0 Z " fill="#007D93" transform="translate(168,328)"/>
<path d="M0 0 C5.28 0 10.56 0 16 0 C16 32.01 16 64.02 16 97 C18.97 97.99 18.97 97.99 22 99 C26.73057479 102.48133562 30.83929543 107.13429656 32 113 C32.75320054 120.88977562 33.16783531 128.56539726 28 135 C23.19551361 140.04521222 18.83822945 143.60562995 11.73046875 144.3359375 C3.21423427 144.42983204 -2.67595494 144.1177288 -8.96484375 138.12890625 C-15.3466668 131.22505269 -16.48042252 125.79832071 -16.3046875 116.4453125 C-15.60450827 108.52790117 -11.885806 104.39427507 -6 99.34765625 C-4 98 -4 98 0 97 C0 64.99 0 32.98 0 0 Z " fill="#00CFCD" transform="translate(248,328)"/>
<path d="M0 0 C4.75302522 3.57863961 8.81845044 8.02895492 10 14 C10.75320054 21.88977562 11.16783531 29.56539726 6 36 C1.19551361 41.04521222 -3.16177055 44.60562995 -10.26953125 45.3359375 C-18.78576573 45.42983204 -24.67595494 45.1177288 -30.96484375 39.12890625 C-37.3466668 32.22505269 -38.48042252 26.79832071 -38.3046875 17.4453125 C-37.69738871 10.57816465 -35.08152961 6.76818579 -30.125 2.125 C-21.64943689 -4.70210497 -9.62183708 -5.13769791 0 0 Z " fill="#00CFCD" transform="translate(390,443)"/>
<path d="M0 0 C4.75302522 3.57863961 8.81845044 8.02895492 10 14 C10.75320054 21.88977562 11.16783531 29.56539726 6 36 C1.19551361 41.04521222 -3.16177055 44.60562995 -10.26953125 45.3359375 C-18.78576573 45.42983204 -24.67595494 45.1177288 -30.96484375 39.12890625 C-37.3466668 32.22505269 -38.48042252 26.79832071 -38.3046875 17.4453125 C-37.69738871 10.57816465 -35.08152961 6.76818579 -30.125 2.125 C-21.64943689 -4.70210497 -9.62183708 -5.13769791 0 0 Z " fill="#00CFCD" transform="translate(150,443)"/>
<path d="M0 0 C4.88201639 3.92090354 8.8728567 8.35850344 10.74609375 14.40234375 C11.5512348 22.23842583 11.87069767 30.02156952 6.74609375 36.40234375 C1.94160736 41.44755597 -2.4156768 45.0079737 -9.5234375 45.73828125 C-18.06716779 45.83247894 -23.82697453 45.45963107 -30.21875 39.6015625 C-36.36979376 33.12346937 -37.71244629 26.89569204 -37.49609375 18.109375 C-36.87240988 11.13819882 -34.2901706 6.56993441 -29.1171875 1.87890625 C-21.30354932 -4.31303344 -8.65048184 -5.22749548 0 0 Z " fill="#00CFCD" transform="translate(477.25390625,354.59765625)"/>
<path d="M0 0 C5.25495606 3.18687658 9.2224526 7.87816813 12 13.3125 C13.39393635 21.21147263 13.41520876 29.28467971 9.5625 36.5 C5.98386039 41.25302522 1.53354508 45.31845044 -4.4375 46.5 C-12.32727562 47.25320054 -20.00289726 47.66783531 -26.4375 42.5 C-31.48271222 37.69551361 -35.04312995 33.33822945 -35.7734375 26.23046875 C-35.86733204 17.71423427 -35.5552288 11.82404506 -29.56640625 5.53515625 C-21.52363185 -1.89946886 -10.4806088 -4.64434821 0 0 Z " fill="#00CFCD" transform="translate(59.4375,353.5)"/>
<path d="M0 0 C5.28 0 10.56 0 16 0 C16 32.01 16 64.02 16 97 C10.72 97 5.44 97 0 97 C0 64.99 0 32.98 0 0 Z " fill="#007D93" transform="translate(248,328)"/>
<path d="M0 0 C31.68 0 63.36 0 96 0 C96 5.28 96 10.56 96 16 C64.32 16 32.64 16 0 16 C0 10.72 0 5.44 0 0 Z " fill="#007D93" transform="translate(176,288)"/>
<path d="M0 0 C31.68 0 63.36 0 96 0 C96 5.28 96 10.56 96 16 C64.32 16 32.64 16 0 16 C0 10.72 0 5.44 0 0 Z " fill="#007D93" transform="translate(176,224)"/>
<path d="M0 0 C31.68 0 63.36 0 96 0 C96 5.28 96 10.56 96 16 C64.32 16 32.64 16 0 16 C0 10.72 0 5.44 0 0 Z " fill="#007D93" transform="translate(176,160)"/>
<path d="M0 0 C5.28 0 10.56 0 16 0 C16 5.28 16 10.56 16 16 C10.72 16 5.44 16 0 16 C0 10.72 0 5.44 0 0 Z " fill="#007D93" transform="translate(320,288)"/>
<path d="M0 0 C5.28 0 10.56 0 16 0 C16 5.28 16 10.56 16 16 C10.72 16 5.44 16 0 16 C0 10.72 0 5.44 0 0 Z " fill="#007D93" transform="translate(288,288)"/>
<path d="M0 0 C5.28 0 10.56 0 16 0 C16 5.28 16 10.56 16 16 C10.72 16 5.44 16 0 16 C0 10.72 0 5.44 0 0 Z " fill="#007D93" transform="translate(320,224)"/>
<path d="M0 0 C5.28 0 10.56 0 16 0 C16 5.28 16 10.56 16 16 C10.72 16 5.44 16 0 16 C0 10.72 0 5.44 0 0 Z " fill="#007D93" transform="translate(288,224)"/>
<path d="M0 0 C5.28 0 10.56 0 16 0 C16 5.28 16 10.56 16 16 C10.72 16 5.44 16 0 16 C0 10.72 0 5.44 0 0 Z " fill="#007D93" transform="translate(320,160)"/>
<path d="M0 0 C5.28 0 10.56 0 16 0 C16 5.28 16 10.56 16 16 C10.72 16 5.44 16 0 16 C0 10.72 0 5.44 0 0 Z " fill="#007D93" transform="translate(288,160)"/>
<path d="M0 0 C0.66 0.33 1.32 0.66 2 1 C-3.28 6.28 -8.56 11.56 -14 17 C-14.66 16.67 -15.32 16.34 -16 16 C-14.27538679 14.07906479 -12.54557391 12.163278 -10.8125 10.25 C-10.32974609 9.71117187 -9.84699219 9.17234375 -9.34960938 8.6171875 C-6.43837795 5.41287909 -3.47293499 2.6158121 0 0 Z " fill="#00B3B6" transform="translate(58,121)"/>
</svg>
