<?xml version="1.0" encoding="UTF-8"?>
<svg version="1.1" xmlns="http://www.w3.org/2000/svg" width="512" height="512">
<path d="M0 0 C1.23838547 -0.00307895 1.23838547 -0.00307895 2.50178882 -0.0062201 C5.29223911 -0.01191354 8.08264041 -0.01042997 10.87309551 -0.00901413 C12.88431168 -0.01159642 14.89552734 -0.0146092 16.90674227 -0.01801753 C22.45235113 -0.02610671 27.99794705 -0.02787817 33.5435611 -0.028615 C39.51709761 -0.03046221 45.49062735 -0.03800783 51.46415997 -0.04475021 C65.2160203 -0.05905667 78.96787884 -0.06486169 92.71974479 -0.06944216 C99.51318032 -0.07177708 106.306615 -0.0753796 113.10004988 -0.07913754 C136.34795146 -0.09197339 159.59585258 -0.10269289 182.84375763 -0.10614014 C184.30343395 -0.10636177 185.76311027 -0.10658355 187.22278659 -0.10680549 C188.68601645 -0.10702613 190.14924631 -0.10724661 191.61247617 -0.10746694 C194.54803805 -0.10790949 197.48359992 -0.10835661 200.4191618 -0.10880661 C201.14701182 -0.108916 201.87486184 -0.10902539 202.62476792 -0.1091381 C226.23167725 -0.1127697 249.83855589 -0.12869344 273.44545346 -0.15199697 C298.39554981 -0.17658148 323.34562862 -0.19031232 348.29573745 -0.19150805 C351.03351574 -0.19167951 353.77129402 -0.19189494 356.5090723 -0.19214249 C357.1832057 -0.19219826 357.85733909 -0.19225402 358.55190077 -0.19231148 C369.4100861 -0.19346309 380.26823997 -0.20449433 391.12641467 -0.21902954 C402.03586463 -0.23338111 412.94527227 -0.23638617 423.85472897 -0.22858956 C429.76728576 -0.22467242 435.67973652 -0.22566444 441.59228039 -0.23964691 C447.00132308 -0.25232204 452.41017938 -0.25124479 457.81922158 -0.2390562 C459.77952355 -0.23708808 461.73983844 -0.24022863 463.70012221 -0.24890056 C466.35869516 -0.25992009 469.01660179 -0.25255694 471.67515564 -0.24050903 C472.44145659 -0.24810423 473.20775754 -0.25569942 473.99727973 -0.26352477 C479.44375372 -0.21000921 483.63287813 0.89715145 487.67087078 4.66658401 C491.5892211 9.79058058 492.18119579 12.64202491 492.20334148 18.9742012 C492.21319828 20.18913254 492.21319828 20.18913254 492.2232542 21.42860794 C492.24300609 24.11600711 492.25465473 26.80335032 492.26462078 29.49080276 C492.26869631 30.40821495 492.27277184 31.32562714 492.27697086 32.27083969 C492.29784088 37.12768708 492.31213787 41.98450615 492.32150555 46.8413887 C492.33256459 51.85630753 492.36695594 56.87078199 492.40667725 61.88554382 C492.43283562 65.74262181 492.44119675 69.59959388 492.44478703 73.45675278 C492.44965596 75.30510581 492.46127872 77.15345403 492.47982502 79.00172043 C492.50419739 81.59186242 492.503255 84.18085442 492.49631023 86.7710762 C492.50912029 87.53182449 492.52193035 88.29257278 492.53512859 89.07637405 C492.48468728 94.2495531 491.27488865 97.14127998 488.02633953 101.13142776 C484.06987133 104.61688785 481.77696214 106.25754703 476.53387737 106.25168228 C475.58874279 106.25305695 474.64360821 106.25443161 473.66983318 106.25584793 C472.62974102 106.25225266 471.58964886 106.24865738 470.51803875 106.24495316 C469.42534679 106.24509918 468.33265484 106.24524521 467.20685101 106.24539566 C463.58155641 106.2446969 459.95631269 106.23690619 456.33102703 106.22908401 C453.82281809 106.22721971 451.31460878 106.22579586 448.80639935 106.2247963 C442.87074154 106.22136337 436.93510016 106.2134754 430.9994508 106.20344681 C423.58003156 106.19118282 416.16061006 106.18580406 408.74118328 106.18025589 C395.50289087 106.16952036 382.26462043 106.15192436 369.02633953 106.13142776 C369.02633953 120.65142776 369.02633953 135.17142776 369.02633953 150.13142776 C372.35220135 150.1104805 375.67806316 150.08953323 379.10470867 150.0679512 C390.09690811 150.00165364 401.0891164 149.95748121 412.08146286 149.92417908 C418.74574517 149.90331009 425.40978268 149.8750044 432.07394695 149.82966995 C438.50598381 149.78618873 444.93782358 149.76228545 451.36999607 149.75191879 C453.8231895 149.74453161 456.27637223 149.73010624 458.7294817 149.70850754 C462.16729394 149.67944442 465.60429322 149.67547314 469.04220867 149.6773262 C470.56135624 149.65575455 470.56135624 149.65575455 472.11119366 149.6337471 C478.30728963 149.66985396 481.96523265 150.48882207 487.02633953 154.13142776 C491.75139981 159.22951912 492.17944971 163.27952267 492.20334148 169.99592972 C492.21319828 171.19644974 492.21319828 171.19644974 492.2232542 172.42122269 C492.24297015 175.07071909 492.25464564 177.72015888 492.26462078 180.36970901 C492.26869631 181.27517157 492.27277184 182.18063412 492.27697086 183.11353493 C492.29782377 187.90554831 492.31212918 192.69753313 492.32150555 197.48958206 C492.33257179 202.43609338 492.36697635 207.38215507 492.40667725 212.32850742 C492.43283442 216.13497117 492.44119655 219.94132759 492.44478703 223.74787331 C492.44965486 225.57110699 492.46127449 227.39433581 492.47982502 229.21748161 C492.50419897 231.77159685 492.50325498 234.32454604 492.49631023 236.87874222 C492.50912029 237.62856873 492.52193035 238.37839523 492.53512859 239.15094376 C492.4724122 245.4939856 490.15740837 249.00035893 485.77633953 253.38142776 C478.66805921 257.90487888 470.59254447 257.40894359 462.45993328 257.35847855 C461.22006161 257.3587706 459.98018993 257.35906265 458.70274639 257.35936356 C455.32513117 257.35821418 451.94776456 257.34822768 448.57019329 257.33421564 C445.03214542 257.32165923 441.49409375 257.32053393 437.95602703 257.31816483 C431.26618564 257.31196442 424.57641011 257.29557322 417.88659763 257.27546585 C410.266252 257.25306187 402.64590312 257.24210213 395.02553272 257.23207498 C379.35909693 257.21120562 363.69272675 257.17605783 348.02633953 257.13142776 C347.73299725 258.04875687 347.43965496 258.96608597 347.13742352 259.91121292 C345.83619865 263.68250627 344.05363781 267.05199248 342.08883953 270.50642776 C341.49885174 271.54537186 341.49885174 271.54537186 340.896945 272.60530472 C337.99293075 277.63200699 334.91160144 282.51613195 331.65133953 287.31892776 C331.25438885 287.91044632 330.85743816 288.50196487 330.44845867 289.11140823 C327.33521529 293.59791034 323.86599112 297.74162473 320.32858562 301.89436722 C319.81821255 302.49542534 319.30783947 303.09648346 318.78200054 303.71575546 C317.53116506 305.18853993 316.27889635 306.66010696 315.02633953 308.13142776 C316.23174735 308.13362761 316.23174735 308.13362761 317.46150684 308.13587189 C337.01652483 308.17292625 356.57136398 308.23192276 376.12624073 308.31533051 C385.58285207 308.35513701 395.03938001 308.38752131 404.49606609 308.40242386 C412.73868449 308.41543203 420.98111949 308.4423753 429.2236346 308.48604083 C433.58787699 308.50867449 437.95189301 308.52433731 442.3161993 308.52331161 C446.42523192 308.52256612 450.53376376 308.54047202 454.64266682 308.5725956 C456.14947698 308.58110441 457.65634325 308.58283783 459.163167 308.57723045 C461.22418977 308.57058318 463.28362257 308.58852446 465.34448528 308.61244583 C466.49672651 308.616133 467.64896774 308.61982018 468.83612537 308.62361908 C473.79066238 309.41226736 476.88430747 311.92594948 480.27633953 315.50642776 C483.70791943 320.65379761 484.44420127 324.86249243 483.56149578 330.88924026 C482.35572669 335.94114874 480.15082071 339.2412135 476.02633953 342.50642776 C471.03634384 345.2093421 466.74659748 345.26617825 461.1428709 345.22235489 C460.34290446 345.22023721 459.54293801 345.21811953 458.71873015 345.21593767 C456.03452721 345.20787176 453.35040584 345.192834 450.66623211 345.17805862 C448.74251271 345.17126843 446.81879118 345.16505705 444.89506817 345.15938187 C440.7481157 345.14692092 436.60117769 345.13232664 432.45423603 345.11670113 C425.88367404 345.09396369 419.31316926 345.08830338 412.74257183 345.08737564 C411.07779402 345.08710299 411.07779402 345.08710299 409.37938434 345.08682483 C404.79923794 345.08637486 400.21909164 345.08645727 395.63894522 345.08666027 C382.65368983 345.08639597 369.66891662 345.06981239 356.68381023 345.00471878 C346.36626388 344.95311343 336.04934216 344.93716186 325.73168772 344.9621802 C320.27738197 344.9740746 314.82440911 344.96845607 309.37028217 344.91949654 C304.22732988 344.87372362 299.08648702 344.87562872 293.9434824 344.91224289 C292.06873248 344.91746186 290.1938396 344.90599506 288.31933117 344.87545586 C275.13563315 344.67408562 266.64735773 347.37844991 255.80672586 354.91957486 C249.1071417 359.47977082 241.93927771 363.449048 233.63962078 363.05330276 C224.48996683 360.71890457 214.97876719 355.4247409 207.32619429 349.90516239 C202.19718103 346.33637062 198.44125264 345.41244085 192.2596159 345.51910782 C191.41312969 345.51357441 190.56664348 345.50804099 189.69450617 345.5023399 C186.87687784 345.48982634 184.06068314 345.51269084 181.24313641 345.5354805 C179.21555035 345.53357546 177.18796535 345.52941759 175.16038799 345.52318192 C170.80327004 345.51440429 166.44655088 345.52112113 162.08946514 345.53984261 C155.19751048 345.56897076 148.30589824 345.56113192 141.41391277 345.54794693 C128.02842482 345.52729653 114.64310312 345.54287623 101.25762463 345.56341934 C84.2195554 345.58857231 67.18157877 345.60141366 50.14350653 345.57346302 C43.29469531 345.56351582 36.44629559 345.57362302 29.59752941 345.59937084 C25.33496247 345.61155305 21.07252365 345.60733382 16.80995274 345.59879303 C14.83630035 345.59825855 12.86263213 345.6045796 10.8890276 345.61833382 C8.19000335 345.63622766 5.49209244 345.62943336 2.79306316 345.61676407 C2.01639656 345.62793508 1.23972995 345.6391061 0.43952799 345.65061563 C-5.67373531 345.58076879 -11.06270588 343.95145475 -15.54073381 339.61330408 C-20.63919149 333.63517249 -20.51435825 328.7712871 -19.97366047 321.13142776 C-18.23975167 315.83337311 -15.36178244 313.33110004 -10.97366047 310.13142776 C-7.56579899 308.99547394 -4.94372013 308.99231646 -1.34885883 308.97320938 C-0.67250942 308.9682714 0.00383999 308.96333343 0.70068485 308.95824581 C2.97158743 308.942863 5.24246173 308.93450809 7.51340008 308.9261055 C9.13944021 308.91652759 10.76547785 308.90651756 12.39151287 308.89610672 C16.81059983 308.86904215 21.22969749 308.84804098 25.64882159 308.82810473 C30.26530681 308.80625476 34.881759 308.77886124 39.49821758 308.75204849 C48.24230194 308.70210823 56.98640462 308.65717434 65.73052484 308.61402613 C75.6844776 308.56466515 85.63839722 308.5097428 95.59231794 308.45434654 C116.07029427 308.34050601 136.54830223 308.23367147 157.02633953 308.13142776 C156.21324825 307.22650589 156.21324825 307.22650589 155.38373089 306.30330276 C154.66879467 305.50408401 153.95385845 304.70486526 153.2172575 303.88142776 C152.51019665 303.09252151 151.8031358 302.30361526 151.07464886 301.49080276 C148.20649043 298.18707261 145.65036598 294.71856568 143.15133953 291.13142776 C142.64739666 290.41301712 142.14345379 289.69460648 141.62423992 288.95442581 C124.02633953 263.50392173 124.02633953 263.50392173 124.02633953 257.13142776 C123.37918987 257.13327135 122.73204021 257.13511494 122.06527996 257.13701439 C106.29839683 257.18123681 90.53153535 257.21430541 74.76460552 257.23505211 C67.13975067 257.24535244 59.51493729 257.25938894 51.89010906 257.28230667 C45.24215001 257.30227868 38.59422101 257.31515324 31.9462328 257.31960475 C28.42813808 257.32220569 24.91012929 257.32829298 21.39206219 257.34288788 C17.45894068 257.35907139 13.52590225 257.35940501 9.59274578 257.35847855 C7.8545734 257.36926437 7.8545734 257.36926437 6.08128643 257.3802681 C-9.34258097 257.34098921 -9.34258097 257.34098921 -14.84866047 252.25642776 C-15.40295734 251.76400589 -15.95725422 251.27158401 -16.52834797 250.76424026 C-20.2214196 246.59206745 -20.27068987 242.55481165 -20.26418781 237.16926956 C-20.27090504 236.37038315 -20.27762226 235.57149673 -20.28454304 234.74840164 C-20.30353012 232.10908652 -20.30744776 229.47002567 -20.30959797 226.83064651 C-20.31602607 224.99225129 -20.32275444 223.1538571 -20.32977009 221.31546402 C-20.3417451 217.46120712 -20.34545075 213.60703985 -20.34426594 209.75276566 C-20.34406289 204.8231615 -20.37134934 199.89413475 -20.40581036 194.96466732 C-20.42809203 191.16672522 -20.43210307 187.36892171 -20.43104649 183.57092094 C-20.43340114 181.75410665 -20.442217 179.93728846 -20.45771122 178.12053871 C-20.47739444 175.57387617 -20.47152426 173.02845376 -20.45950031 170.48176956 C-20.47073933 169.73710937 -20.48197834 168.99244919 -20.49355793 168.22522354 C-20.42707954 162.66051129 -19.02897364 159.61663835 -15.97366047 155.13142776 C-11.90942417 151.36457461 -8.89575255 150.00496212 -3.39890766 150.01117325 C-2.46081257 150.00979858 -1.52271748 150.00842392 -0.55619526 150.0070076 C0.98452396 150.01240051 0.98452396 150.01240051 2.55636883 150.01790237 C4.18099545 150.01768333 4.18099545 150.01768333 5.8384428 150.01745987 C9.42583486 150.01815769 13.01317527 150.02594405 16.60055828 150.03377151 C19.08491773 150.03563616 21.56927755 150.03705984 24.0536375 150.03805923 C29.92905556 150.04148997 35.80445449 150.04937506 41.6798647 150.05940872 C49.02517102 150.07168042 56.37047843 150.07705315 63.71579266 150.08259964 C76.81931958 150.09333055 89.92282425 150.11092444 103.02633953 150.13142776 C103.02633953 135.61142776 103.02633953 121.09142776 103.02633953 106.13142776 C97.98425213 106.16284866 97.98425213 106.16284866 92.84030437 106.19490433 C81.73633847 106.26117276 70.63236385 106.30536267 59.5282526 106.33867645 C52.79557866 106.35928617 46.06309229 106.38737594 39.33053875 106.43318558 C32.83369558 106.47737025 26.33697411 106.50056352 19.83998775 106.51093674 C17.36084837 106.51832953 14.88171969 106.53276577 12.40266323 106.55434799 C8.93112134 106.58336959 5.46038549 106.58738413 1.98874187 106.58552933 C0.45017529 106.60710098 0.45017529 106.60710098 -1.11947346 106.62910843 C-7.07712795 106.59464814 -10.42726416 106.0794344 -14.97366047 102.13142776 C-19.45633834 97.04298262 -20.1250303 94.01360498 -20.13479328 87.3804512 C-20.14224064 86.18015022 -20.14224064 86.18015022 -20.14983845 84.95560074 C-20.16447725 82.30065941 -20.17126577 79.64577787 -20.17678547 76.99080276 C-20.18253658 75.14715447 -20.18829432 73.3035062 -20.19405842 71.45985794 C-20.20457403 67.58947343 -20.21041267 63.71910972 -20.21389484 59.84871292 C-20.21937336 54.89440802 -20.24338526 49.94037882 -20.2718668 44.98616028 C-20.29051352 41.17540568 -20.29569992 37.36471711 -20.29723072 33.55392075 C-20.30025441 31.7279116 -20.30827337 29.90190353 -20.3214159 28.07593918 C-20.33851504 25.51707553 -20.33658655 22.95888042 -20.33010578 20.39998245 C-20.33932056 19.6485849 -20.34853535 18.89718735 -20.35802937 18.12302017 C-20.31503169 12.68972391 -19.17937444 8.54967147 -15.47366047 4.48689651 C-10.21896897 0.39535287 -6.46364152 -0.01478969 0 0 Z " fill="#BCC3C7" transform="translate(19.973660469055176,149.86857223510742)"/>
<path d="M0 0 C0.82781322 -0.00235223 1.65562643 -0.00470446 2.50852489 -0.00712797 C5.31255677 -0.01384239 8.11654256 -0.01335902 10.92058182 -0.01294994 C12.93918467 -0.01624705 14.95778687 -0.01997229 16.97638822 -0.02409142 C22.54705799 -0.03413696 28.11771699 -0.03783231 33.68839455 -0.04048073 C39.68717154 -0.04437622 45.68593993 -0.05395503 51.68471146 -0.0626936 C65.49762841 -0.08154361 79.31054602 -0.09171708 93.12347218 -0.10015428 C99.94656956 -0.10435846 106.76966606 -0.10958075 113.59276269 -0.11483881 C136.9404205 -0.13273013 160.28807855 -0.14772709 183.63574219 -0.155159 C185.10195421 -0.15563376 186.56816623 -0.15610965 188.03437825 -0.15658666 C189.12506259 -0.15694122 189.12506259 -0.15694122 190.23778096 -0.15730295 C193.92186318 -0.15850417 197.6059454 -0.15971961 201.29002762 -0.16094494 C202.38671151 -0.16130516 202.38671151 -0.16130516 203.50555063 -0.16167267 C227.21615642 -0.16956753 250.92671221 -0.19300262 274.63729617 -0.22550088 C299.69447068 -0.25978223 324.75161593 -0.27950856 349.80881429 -0.28280324 C352.55840382 -0.28322079 355.30799334 -0.28370036 358.05758286 -0.28422642 C359.07315215 -0.28441121 359.07315215 -0.28441121 360.109238 -0.28459973 C371.01491196 -0.28693385 381.92052795 -0.30260564 392.82618124 -0.32306826 C403.78392485 -0.34330276 414.74160816 -0.34848084 425.69936845 -0.33929763 C431.6382785 -0.33473807 437.57699995 -0.3367351 443.5158844 -0.35605907 C448.94906842 -0.37358544 454.38192479 -0.37277905 459.81511179 -0.35716178 C461.78419409 -0.35476963 463.75329846 -0.3591917 465.72234687 -0.37099043 C468.39294703 -0.386006 471.06237064 -0.37650894 473.73294067 -0.36076355 C474.50273616 -0.37098576 475.27253165 -0.38120796 476.06565428 -0.39173993 C481.23122862 -0.3249781 484.13224617 0.88957887 488.11815262 4.13422108 C492.62224382 9.24697325 493.27184306 12.31147395 493.29515457 18.97699451 C493.30501137 20.19192585 493.30501137 20.19192585 493.31506729 21.43140125 C493.33481917 24.11880042 493.34646782 26.80614363 493.35643387 29.49359608 C493.3605094 30.41100826 493.36458492 31.32842045 493.36878395 32.273633 C493.38965397 37.13048039 493.40395096 41.98729946 493.41331863 46.84418201 C493.42437767 51.85910085 493.45876903 56.8735753 493.49849033 61.88833714 C493.52464871 65.74541513 493.53300984 69.6023872 493.53660011 73.45954609 C493.54146905 75.30789913 493.5530918 77.15624734 493.57163811 79.00451374 C493.59601047 81.59465573 493.59506809 84.18364773 493.58812332 86.77386951 C493.60093338 87.53461781 493.61374344 88.2953661 493.62694168 89.07916737 C493.57649566 94.25282936 492.36293494 97.14139355 489.11815262 101.13422108 C483.90475669 105.83899301 479.9492709 106.2812191 473.14449215 106.26564884 C471.90610668 106.26872779 471.90610668 106.26872779 470.64270332 106.27186894 C467.85225304 106.27756238 465.06185174 106.27607882 462.27139664 106.27466297 C460.26018047 106.27724526 458.24896481 106.28025804 456.23774987 106.28366637 C450.69214102 106.29175556 445.1465451 106.29352701 439.60093105 106.29426384 C433.62739454 106.29611105 427.6538648 106.30365667 421.68033218 106.31039906 C407.92847185 106.32470551 394.17661331 106.33051053 380.42474736 106.335091 C373.63131183 106.33742592 366.83787715 106.34102844 360.04444227 106.34478638 C336.79654069 106.35762224 313.54863957 106.36834173 290.30073452 106.37178898 C288.8410582 106.37201061 287.38138188 106.3722324 285.92170556 106.37245433 C284.4584757 106.37267497 282.99524584 106.37289545 281.53201598 106.37311578 C278.5964541 106.37355833 275.66089223 106.37400545 272.72533035 106.37445545 C271.99748033 106.37456484 271.26963031 106.37467423 270.51972423 106.37478694 C246.9128149 106.37841854 223.30593626 106.39434228 199.69903869 106.41764582 C174.74894234 106.44223033 149.79886353 106.45596116 124.8487547 106.4571569 C122.11097641 106.45732836 119.37319813 106.45754379 116.63541985 106.45779133 C115.96128645 106.4578471 115.28715305 106.45790287 114.59259137 106.45796032 C103.73440605 106.45911193 92.87625218 106.47014318 82.01807748 106.48467838 C71.10862752 106.49902995 60.19921988 106.50203501 49.28976317 106.49423841 C43.37720639 106.49032126 37.46475563 106.49131328 31.55221176 106.50529575 C26.14316907 106.51797089 20.73431277 106.51689363 15.32527057 106.50470504 C13.3649686 106.50273692 11.40465371 106.50587747 9.44436993 106.5145494 C6.78579699 106.52556894 4.12789036 106.51820578 1.46933651 106.50615788 C0.70303556 106.51375307 -0.06326539 106.52134826 -0.85278758 106.52917361 C-6.2991724 106.47565893 -10.45218034 105.35035444 -14.52637863 101.63422108 C-18.58230569 96.42527128 -19.03604355 92.68083589 -19.05884933 86.26971912 C-19.06542053 85.46937244 -19.07199173 84.66902576 -19.07876205 83.84442616 C-19.098478 81.19492975 -19.11015349 78.54548997 -19.12012863 75.89593983 C-19.12420416 74.99047728 -19.12827969 74.08501472 -19.13247871 73.15211391 C-19.15333162 68.36010053 -19.16763703 63.56811572 -19.1770134 58.77606678 C-19.18807965 53.82955547 -19.2224842 48.88349377 -19.2621851 43.93714142 C-19.28834227 40.13067767 -19.2967044 36.32432125 -19.30029488 32.51777554 C-19.30516271 30.69454186 -19.31678234 28.87131303 -19.33533287 27.04816723 C-19.35970682 24.49405199 -19.35876283 21.9411028 -19.35181808 19.38690662 C-19.36462814 18.63708012 -19.3774382 17.88725361 -19.39063644 17.11470509 C-19.33979514 11.97269127 -18.10384525 9.10191297 -14.88184738 5.13422108 C-9.74543269 0.60928433 -6.69385607 -0.01274598 0 0 Z " fill="#3A96D2" transform="translate(18.881847381591797,-0.13422107696533203)"/>
<path d="M0 0 C1.23838547 -0.00307895 1.23838547 -0.00307895 2.50178882 -0.0062201 C5.29223911 -0.01191354 8.08264041 -0.01042997 10.87309551 -0.00901413 C12.88431168 -0.01159642 14.89552734 -0.0146092 16.90674227 -0.01801753 C22.45235113 -0.02610671 27.99794705 -0.02787817 33.5435611 -0.028615 C39.51709761 -0.03046221 45.49062735 -0.03800783 51.46415997 -0.04475021 C65.2160203 -0.05905667 78.96787884 -0.06486169 92.71974479 -0.06944216 C99.51318032 -0.07177708 106.306615 -0.0753796 113.10004988 -0.07913754 C136.34795146 -0.09197339 159.59585258 -0.10269289 182.84375763 -0.10614014 C184.30343395 -0.10636177 185.76311027 -0.10658355 187.22278659 -0.10680549 C188.68601645 -0.10702613 190.14924631 -0.10724661 191.61247617 -0.10746694 C194.54803805 -0.10790949 197.48359992 -0.10835661 200.4191618 -0.10880661 C201.14701182 -0.108916 201.87486184 -0.10902539 202.62476792 -0.1091381 C226.23167725 -0.1127697 249.83855589 -0.12869344 273.44545346 -0.15199697 C298.39554981 -0.17658148 323.34562862 -0.19031232 348.29573745 -0.19150805 C351.03351574 -0.19167951 353.77129402 -0.19189494 356.5090723 -0.19214249 C357.1832057 -0.19219826 357.85733909 -0.19225402 358.55190077 -0.19231148 C369.4100861 -0.19346309 380.26823997 -0.20449433 391.12641467 -0.21902954 C402.03586463 -0.23338111 412.94527227 -0.23638617 423.85472897 -0.22858956 C429.76728576 -0.22467242 435.67973652 -0.22566444 441.59228039 -0.23964691 C447.00132308 -0.25232204 452.41017938 -0.25124479 457.81922158 -0.2390562 C459.77952355 -0.23708808 461.73983844 -0.24022863 463.70012221 -0.24890056 C466.35869516 -0.25992009 469.01660179 -0.25255694 471.67515564 -0.24050903 C472.44145659 -0.24810423 473.20775754 -0.25569942 473.99727973 -0.26352477 C479.44375372 -0.21000921 483.63287813 0.89715145 487.67087078 4.66658401 C491.5892211 9.79058058 492.18119579 12.64202491 492.20334148 18.9742012 C492.21319828 20.18913254 492.21319828 20.18913254 492.2232542 21.42860794 C492.24300609 24.11600711 492.25465473 26.80335032 492.26462078 29.49080276 C492.26869631 30.40821495 492.27277184 31.32562714 492.27697086 32.27083969 C492.29784088 37.12768708 492.31213787 41.98450615 492.32150555 46.8413887 C492.33256459 51.85630753 492.36695594 56.87078199 492.40667725 61.88554382 C492.43283562 65.74262181 492.44119675 69.59959388 492.44478703 73.45675278 C492.44965596 75.30510581 492.46127872 77.15345403 492.47982502 79.00172043 C492.50419739 81.59186242 492.503255 84.18085442 492.49631023 86.7710762 C492.50912029 87.53182449 492.52193035 88.29257278 492.53512859 89.07637405 C492.48468728 94.2495531 491.27488865 97.14127998 488.02633953 101.13142776 C484.05228271 104.63238258 481.76097786 106.25751938 476.49591351 106.25168228 C475.54236477 106.25305695 474.58881603 106.25443161 473.60637188 106.25584793 C472.03220753 106.25045502 472.03220753 106.25045502 470.42624187 106.24495316 C469.32379635 106.24509918 468.22135082 106.24524521 467.08549786 106.24539566 C463.42773783 106.24469688 459.77002821 106.2369061 456.11227703 106.22908401 C453.58164784 106.22721971 451.05101829 106.22579587 448.5203886 106.2247963 C442.53160497 106.22136333 436.54284311 106.21347532 430.55406821 106.20344681 C423.73674173 106.1922781 416.9194144 106.18677331 410.10208106 106.18175137 C396.07682379 106.17129251 382.05158266 106.15369778 368.02633953 106.13142776 C368.01215984 104.97384964 367.99798016 103.81627151 367.98337078 102.62361526 C367.93644696 101.08451404 367.88819971 99.54545278 367.83883953 98.00642776 C367.83303875 97.24588089 367.82723797 96.48533401 367.82126141 95.70174026 C367.59461074 89.85918973 366.25273818 87.19873619 362.02633953 83.13142776 C357.63688498 81.08985609 353.27181852 80.70665061 348.47946453 80.27205276 C346.99239219 80.12872913 345.50541638 79.98440123 344.01852703 79.83919144 C343.24476727 79.76526169 342.4710075 79.69133194 341.67380047 79.6151619 C307.34654134 76.2685163 273.56914652 68.21159684 245.00290203 48.13533401 C241.48878782 45.76953272 238.43321585 44.59122941 234.15524578 44.66267776 C229.24410297 45.74403031 225.13197394 49.36275636 221.02633953 52.13142776 C190.93817508 71.18726525 153.34764896 80.04126975 117.94430828 80.76033401 C113.34059281 81.34581323 110.22181243 82.97592717 106.89425945 86.19221878 C104.38348892 90.14296593 104.36100849 93.35256107 104.27633953 97.94392776 C104.24669109 98.73218948 104.21704266 99.5204512 104.18649578 100.33259964 C104.1162266 102.26500223 104.06896819 104.19821792 104.02633953 106.13142776 C89.39665963 106.22494079 74.76701939 106.295441 60.13710117 106.33867645 C53.34389399 106.35928661 46.5508727 106.38737723 39.75778484 106.43318558 C33.20258691 106.4773686 26.64750959 106.50056319 20.09216976 106.51093674 C17.59070196 106.51832981 15.08924478 106.53276659 12.58785915 106.55434799 C9.08518631 106.58336749 5.58331239 106.58738421 2.08053875 106.58552933 C1.04547695 106.59991043 0.01041515 106.61429153 -1.05601215 106.62910843 C-7.03474442 106.59482962 -10.41429297 106.09995622 -14.97366047 102.13142776 C-19.45633834 97.04298262 -20.1250303 94.01360498 -20.13479328 87.3804512 C-20.14224064 86.18015022 -20.14224064 86.18015022 -20.14983845 84.95560074 C-20.16447725 82.30065941 -20.17126577 79.64577787 -20.17678547 76.99080276 C-20.18253658 75.14715447 -20.18829432 73.3035062 -20.19405842 71.45985794 C-20.20457403 67.58947343 -20.21041267 63.71910972 -20.21389484 59.84871292 C-20.21937336 54.89440802 -20.24338526 49.94037882 -20.2718668 44.98616028 C-20.29051352 41.17540568 -20.29569992 37.36471711 -20.29723072 33.55392075 C-20.30025441 31.7279116 -20.30827337 29.90190353 -20.3214159 28.07593918 C-20.33851504 25.51707553 -20.33658655 22.95888042 -20.33010578 20.39998245 C-20.33932056 19.6485849 -20.34853535 18.89718735 -20.35802937 18.12302017 C-20.31503169 12.68972391 -19.17937444 8.54967147 -15.47366047 4.48689651 C-10.21896897 0.39535287 -6.46364152 -0.01478969 0 0 Z " fill="#3B96D2" transform="translate(19.973660469055176,149.86857223510742)"/>
<path d="M0 0 C1.74796875 0.82371094 1.74796875 0.82371094 3.53125 1.6640625 C4.16530762 1.97754639 4.79936523 2.29103027 5.45263672 2.61401367 C26.29421764 12.90556943 48.17862025 19.59334244 71.10546875 23.140625 C72.82848206 23.41156982 72.82848206 23.41156982 74.58630371 23.68798828 C77.3903922 24.12847448 80.19494126 24.56574312 83 25 C83.05121227 32.8246782 83.08594591 40.64931231 83.10986328 48.47412109 C83.11870509 51.129476 83.13343775 53.78460755 83.15087891 56.43994141 C83.24055525 70.45582659 83.29576281 84.14811338 81 98 C80.76744324 99.89542047 80.53768683 101.79118983 80.3125 103.6875 C76.26807311 126.67851135 65.46815613 149.13124661 52 168 C51.57525391 168.59973633 51.15050781 169.19947266 50.71289062 169.81738281 C39.8558452 184.92466695 26.26643201 198.38229881 11 209 C10.39462402 209.42845215 9.78924805 209.8569043 9.16552734 210.29833984 C7.29079322 211.61627937 5.40018111 212.90657991 3.5 214.1875 C2.92419189 214.58710938 2.34838379 214.98671875 1.75512695 215.3984375 C-0.7382328 217.02232735 -2.49345045 218.00395124 -5.50390625 217.98046875 C-8.7303061 216.71313485 -11.56070911 215.03124374 -14.4375 213.125 C-15.04875732 212.7228125 -15.66001465 212.320625 -16.28979492 211.90625 C-50.43435562 189.08779662 -74.46635137 156.72278481 -86.8125 117.625 C-87.09053467 116.76567871 -87.36856934 115.90635742 -87.6550293 115.02099609 C-93.43542 95.78118121 -93.400386 76.24107587 -93.20599365 56.34942627 C-93.17474485 52.80201737 -93.16148596 49.25453947 -93.14648438 45.70703125 C-93.11475864 38.80452475 -93.06388141 31.90228219 -93 25 C-92.29864426 24.89322937 -91.59728851 24.78645874 -90.87467957 24.67645264 C-87.63822826 24.18049552 -84.40312124 23.67623212 -81.16796875 23.171875 C-79.51371887 22.92026611 -79.51371887 22.92026611 -77.8260498 22.66357422 C-55.20007038 19.11276662 -32.33791047 11.47242957 -12.16357422 0.61791992 C-7.37332465 -1.83901454 -5.06833176 -2.53416588 0 0 Z " fill="#4FBA6F" transform="translate(261,246)"/>
<path d="M0 0 C14.48202712 -0.09355458 28.96400719 -0.16376738 43.44627476 -0.20724869 C50.17107321 -0.22785006 56.8956836 -0.2559238 63.62036133 -0.30175781 C70.11075269 -0.34523717 76.60094876 -0.36914193 83.09147453 -0.37950897 C85.56699637 -0.38689648 88.0425076 -0.4013225 90.51794624 -0.42292023 C93.9868894 -0.45198084 97.45502685 -0.45595473 100.92407227 -0.45410156 C101.94618805 -0.46848267 102.96830383 -0.48286377 104.02139282 -0.49768066 C110.24090503 -0.46175768 113.92229322 0.33835427 119 4 C123.72506028 9.09809135 124.15311018 13.1480949 124.17700195 19.86450195 C124.18357315 20.66484863 124.19014435 21.46519531 124.19691467 22.28979492 C124.21663062 24.93929133 124.22830611 27.58873111 124.23828125 30.23828125 C124.24235678 31.1437438 124.2464323 32.04920635 124.25063133 32.98210716 C124.27148424 37.77412055 124.28578965 42.56610536 124.29516602 47.3581543 C124.30623226 52.30466561 124.34063682 57.25072731 124.38033772 62.19707966 C124.40649489 66.0035434 124.41485702 69.80989983 124.41844749 73.61644554 C124.42331533 75.43967922 124.43493496 77.26290804 124.45348549 79.08605385 C124.47785944 81.64016909 124.47691544 84.19311828 124.4699707 86.74731445 C124.48918579 87.87205421 124.48918579 87.87205421 124.50878906 89.01951599 C124.44607267 95.36255783 122.13106884 98.86893116 117.75 103.25 C110.64171968 107.77345111 102.56620494 107.27751582 94.43359375 107.22705078 C93.19372208 107.22734283 91.9538504 107.22763489 90.67640686 107.22793579 C87.29879164 107.22678641 83.92142503 107.21679992 80.54385376 107.20278788 C77.00580589 107.19023147 73.46775422 107.18910616 69.9296875 107.18673706 C63.23984611 107.18053666 56.55007058 107.16414546 49.8602581 107.14403808 C42.23991247 107.12163411 34.61956359 107.11067437 26.99919319 107.10064721 C11.3327574 107.07977785 -4.33361278 107.04463007 -20 107 C-19.53581653 105.58667321 -19.06979496 104.17395006 -18.60302734 102.76147461 C-18.34371429 101.97469833 -18.08440125 101.18792206 -17.81723022 100.37730408 C-16.81107251 97.45041426 -15.66770262 94.59309618 -14.5012207 91.72729492 C-4.55252086 67.14799107 -0.99148001 41.92831653 -0.390625 15.53515625 C-0.35103522 14.01564962 -0.31083596 12.49615874 -0.27001953 10.97668457 C-0.17302746 7.31794328 -0.0841408 3.65906215 0 0 Z " fill="#3B96D2" transform="translate(388,300)"/>
<path d="M0 0 C0.94650925 -0.00137466 1.89301849 -0.00274933 2.86820984 -0.00416565 C3.90470673 -0.00057037 4.94120361 0.0030249 6.0091095 0.00672913 C7.10194748 0.0065831 8.19478546 0.00643707 9.32073975 0.00628662 C12.94059723 0.00698447 16.56040355 0.01477094 20.18025208 0.02259827 C22.68703178 0.0244629 25.19381184 0.02588659 27.70059204 0.02688599 C33.62913337 0.03031678 39.55765823 0.03820195 45.48619109 0.04823548 C52.89788002 0.06050697 60.30957122 0.06587986 67.7212677 0.07142639 C80.94328227 0.08215742 94.16528163 0.09903789 107.38728333 0.12025452 C107.40808456 1.070354 107.4288858 2.02045349 107.45031738 2.99934387 C107.53117784 6.60273173 107.6217712 10.20582603 107.71496582 13.80891418 C107.75363826 15.35369271 107.78984316 16.89853545 107.82330322 18.44343567 C108.24817114 37.87432512 109.92167302 57.66807447 116.38728333 76.12025452 C116.95551653 77.79585786 117.52317584 79.47165589 118.09040833 81.14759827 C121.29612903 90.67397901 121.29612903 90.67397901 125.10212708 99.96791077 C126.38728333 103.12025452 126.38728333 103.12025452 126.38728333 107.12025452 C110.09709883 107.16703418 93.80693623 107.20227256 77.51670074 107.22387886 C69.95237987 107.23417896 62.3881008 107.24821501 54.82380676 107.27113342 C48.22858543 107.29110615 41.63339438 107.30398016 35.03814363 107.30843151 C31.54799429 107.31103233 28.05793157 107.31711883 24.56781006 107.33171463 C20.66582144 107.34789958 16.76391656 107.34823171 12.8618927 107.3473053 C11.71246185 107.35449585 10.56303101 107.3616864 9.37876892 107.36909485 C-5.98179535 107.32966991 -5.98179535 107.32966991 -11.48771667 102.24525452 C-12.04201355 101.75283264 -12.59631042 101.26041077 -13.16740417 100.75306702 C-16.8604758 96.58089421 -16.90974607 92.5436384 -16.90324402 87.15809631 C-16.90996124 86.3592099 -16.91667847 85.56032349 -16.92359924 84.73722839 C-16.94258632 82.09791328 -16.94650397 79.45885242 -16.94865417 76.81947327 C-16.95508228 74.98107804 -16.96181065 73.14268385 -16.96882629 71.30429077 C-16.98080131 67.45003387 -16.98450695 63.5958666 -16.98332214 59.74159241 C-16.9831191 54.81198825 -17.01040554 49.8829615 -17.04486656 44.95349407 C-17.06714823 41.15555197 -17.07115927 37.35774846 -17.07010269 33.5597477 C-17.07245734 31.7429334 -17.08127321 29.92611521 -17.09676743 28.10936546 C-17.11645065 25.56270292 -17.11058046 23.01728051 -17.09855652 20.47059631 C-17.10979553 19.72593613 -17.12103455 18.98127594 -17.13261414 18.21405029 C-17.06613574 12.64933804 -15.66802984 9.6054651 -12.61271667 5.12025452 C-8.53359034 1.33960084 -5.51491826 -0.00617572 0 0 Z " fill="#3B97D2" transform="translate(16.612716674804688,299.87974548339844)"/>
<path d="M0 0 C0.74596436 0.35827881 1.49192871 0.71655762 2.26049805 1.08569336 C3.86964221 1.82708001 5.47901939 2.56796109 7.08862305 3.30834961 C7.8755957 3.67589355 8.66256836 4.0434375 9.47338867 4.42211914 C18.2736642 8.53058842 27.12348954 12.05614766 36.32299805 15.14819336 C37.16967041 15.43380127 38.01634277 15.71940918 38.88867188 16.01367188 C51.10664894 20.03065384 63.48023593 22.42730537 76.15893555 24.47827148 C83.88817233 25.82305423 89.52339318 27.15363249 94.31884766 33.75 C97.84363475 39.55261536 97.35909696 45.56748675 97.2565918 52.17163086 C97.25232725 53.50712621 97.25001151 54.84262903 97.24952698 56.1781311 C97.24338279 58.97399719 97.22081651 61.76905559 97.18505859 64.56469727 C97.14022176 68.09239884 97.12524158 71.61936997 97.12104225 75.14732838 C97.09325436 93.68454148 96.98403481 112.04157975 91.94799805 130.02319336 C91.68341797 130.99369629 91.41883789 131.96419922 91.14624023 132.96411133 C85.15218802 154.52634542 76.65072979 175.09761704 63.69799805 193.46069336 C62.97999023 194.48291992 62.26198242 195.50514648 61.5222168 196.55834961 C56.51111545 203.45640208 51.01119786 209.81179262 45.1262207 215.96508789 C44.18284003 216.95297678 43.24488013 217.94607417 42.31274414 218.94458008 C29.4598631 232.69512265 9.34385517 251.96836763 -10.19262695 253.83178711 C-14.84747577 253.69806519 -18.13668481 251.90182504 -22.05200195 249.52319336 C-22.74447021 249.11713867 -23.43693848 248.71108398 -24.15039062 248.29272461 C-30.5610702 244.45918407 -36.46865222 240.12737314 -42.30200195 235.46069336 C-43.58204102 234.48616211 -43.58204102 234.48616211 -44.88793945 233.49194336 C-64.41407315 218.24631345 -80.45232786 199.17282912 -92.30200195 177.46069336 C-92.64569824 176.83372559 -92.98939453 176.20675781 -93.34350586 175.56079102 C-110.5533325 143.73351424 -115.86971252 110.38307534 -115.80297852 74.62036133 C-115.79701154 70.91517981 -115.82805755 67.21127681 -115.8680954 63.50634384 C-115.89401419 60.61508299 -115.89684783 57.7241323 -115.89320374 54.8327713 C-115.89568771 52.80988856 -115.92026834 50.78707098 -115.94543457 48.76434326 C-115.89037055 41.44929105 -115.50058619 35.92156041 -110.30200195 30.46069336 C-106.20980545 27.05519751 -102.73904375 25.82541902 -97.5324707 24.93334961 C-96.24026611 24.70156006 -94.94806152 24.46977051 -93.61669922 24.23095703 C-92.94261017 24.11577728 -92.26852112 24.00059753 -91.57400513 23.88192749 C-88.05201478 23.27580793 -84.54051378 22.61435004 -81.02856445 21.95288086 C-80.34353348 21.82433212 -79.6585025 21.69578339 -78.95271301 21.56333923 C-71.18495963 20.08755298 -63.75478664 18.07923933 -56.30200195 15.46069336 C-55.40497559 15.1476123 -54.50794922 14.83453125 -53.58374023 14.51196289 C-41.88943286 10.38150195 -30.45838296 5.95219356 -19.45288086 0.20385742 C-12.35346281 -3.39009226 -7.20962597 -3.31848529 0 0 Z M-16.01293945 18.20385742 C-38.18898609 29.17525913 -60.97146658 36.80989669 -85.3996582 40.59741211 C-86.54889771 40.77832397 -87.69813721 40.95923584 -88.88220215 41.14562988 C-91.68835281 41.58694029 -94.49493915 42.02522939 -97.30200195 42.46069336 C-97.39619402 49.99947591 -97.46650066 57.53819493 -97.50925064 65.07743835 C-97.52980619 68.58122057 -97.5575056 72.08459009 -97.60375977 75.58813477 C-97.88475291 97.4859713 -97.08571016 119.06858063 -89.55200195 139.89819336 C-89.20766113 140.8849707 -88.86332031 141.87174805 -88.50854492 142.88842773 C-74.67643034 181.61080035 -47.99451829 213.33487002 -12.75512695 234.44897461 C-9.8986757 235.62703332 -9.15673048 235.40301778 -6.30200195 234.46069336 C4.76915325 228.39064619 14.48957091 221.06080161 23.69799805 212.46069336 C24.31562012 211.88689941 24.93324219 211.31310547 25.56958008 210.72192383 C56.53532395 181.65252559 75.88378222 141.97373421 78.69799805 99.46069336 C78.82129959 94.94549583 78.81524324 90.43432419 78.7956543 85.91772461 C78.79423935 84.66811447 78.7928244 83.41850433 78.79136658 82.13102722 C78.78675406 78.84811155 78.77780843 75.56524734 78.7666626 72.28234863 C78.75633593 68.91667299 78.75184513 65.55098974 78.74682617 62.18530273 C78.73585895 55.61041324 78.7191678 49.0355575 78.69799805 42.46069336 C78.00613403 42.35588654 77.31427002 42.25107971 76.60144043 42.14309692 C51.02651804 38.24032651 51.02651804 38.24032651 41.19799805 35.33569336 C40.1922876 35.04637939 39.18657715 34.75706543 38.15039062 34.45898438 C22.9364798 29.92274278 8.18620803 23.92168357 -5.89257812 16.59960938 C-10.07222374 14.62392321 -12.01940433 16.22656188 -16.01293945 18.20385742 Z " fill="#EAEFEF" transform="translate(265.302001953125,228.539306640625)"/>
<path d="M0 0 C0.68224998 -0.00791008 1.36449996 -0.01582017 2.06742418 -0.02396995 C4.35876055 -0.04907722 6.65009315 -0.0669585 8.9414978 -0.08467102 C10.58249185 -0.1007567 12.22348304 -0.11713652 13.86447144 -0.13378906 C28.84765139 -0.27844527 43.83165879 -0.35354156 58.81539345 -0.41270733 C69.88870362 -0.45727833 80.96077536 -0.53442136 92.03353179 -0.65429181 C99.82218055 -0.73576369 107.61049031 -0.77885556 115.39954698 -0.79400951 C120.05006747 -0.80416576 124.69902747 -0.83137793 129.34907913 -0.90032005 C133.7278114 -0.96452468 138.10420159 -0.98107752 142.4833374 -0.96182442 C144.08577553 -0.96297439 145.68831042 -0.98111577 147.29032516 -1.01796722 C159.38339293 -1.28167464 159.38339293 -1.28167464 164.20460129 2.37244225 C166.46226879 4.87373897 168.38264174 7.43736448 170.3218689 10.18754578 C178.74532695 18.53923766 188.72482105 25.83885539 198.2593689 32.87504578 C199.7753064 34.01973328 199.7753064 34.01973328 201.3218689 35.18754578 C201.3218689 35.51754578 201.3218689 35.84754578 201.3218689 36.18754578 C174.60100529 36.28099634 147.88016618 36.35152862 121.15917206 36.39479446 C108.75208574 36.4154177 96.34510097 36.44353392 83.93807983 36.48930359 C73.12384107 36.52917844 62.30967586 36.55498032 51.49536562 36.56389976 C45.76950761 36.56911335 40.04386002 36.5813626 34.31806946 36.610466 C28.92711061 36.63764512 23.53644856 36.64598561 18.1454277 36.6399765 C16.16855124 36.64107561 14.19166471 36.64901448 12.21484756 36.66436768 C9.5110234 36.68433463 6.8083128 36.67946058 4.10446167 36.66856384 C3.32622905 36.68021521 2.54799644 36.69186657 1.74618101 36.70387101 C-4.37289571 36.63743203 -9.76267133 35.01208032 -14.24514246 30.66940522 C-19.34376048 24.69141878 -19.21882403 19.82733652 -18.6781311 12.18754578 C-16.94422231 6.88949112 -14.06625308 4.38721805 -9.6781311 1.18754578 C-6.26240958 0.04897193 -3.6036314 0.03551257 0 0 Z " fill="#EFC319" transform="translate(18.678131103515625,458.8124542236328)"/>
<path d="M0 0 C1.05840088 0.00858032 1.05840088 0.00858032 2.13818359 0.01733398 C9.3260642 0.26276978 13.82102671 2.29738161 18.953125 7.1796875 C20.53023773 8.90226208 21.895258 10.55380523 23.1875 12.5 C23.73277344 13.28761719 24.27804687 14.07523437 24.83984375 14.88671875 C26.92582836 20.47957603 26.49990963 25.96261073 26.375 31.875 C26.35469727 33.69451172 26.35469727 33.69451172 26.33398438 35.55078125 C26.29874582 38.53431206 26.24947525 41.51692458 26.1875 44.5 C27.115625 44.5825 28.04375 44.665 29 44.75 C32.1875 45.5 32.1875 45.5 33.86047363 47.17921448 C35.5261792 50.09230306 35.58036508 52.03411153 35.60742188 55.38256836 C35.63128967 57.15977516 35.63128967 57.15977516 35.65563965 58.97288513 C35.65584106 60.24898148 35.65604248 61.52507782 35.65625 62.83984375 C35.66767029 64.81121056 35.66767029 64.81121056 35.67932129 66.82240295 C35.69275526 69.60231058 35.69433994 72.38193427 35.68847656 75.16186523 C35.68258096 78.71762212 35.71316785 82.2720133 35.75359344 85.82750607 C35.78571832 89.2274952 35.78135414 92.62720332 35.78125 96.02734375 C35.79764526 97.30141586 35.81404053 98.57548798 35.83093262 99.88816833 C35.79262048 104.77920616 35.74509755 108.41568451 33.49023438 112.80053711 C28.09453922 115.5769589 22.7285335 115.21167285 16.75 115.1640625 C14.78075562 115.17123795 14.78075562 115.17123795 12.77172852 115.17855835 C9.99758373 115.18591486 7.22424598 115.17526586 4.45019531 115.15185547 C0.90220402 115.12336572 -2.64389627 115.13977664 -6.19181824 115.16971779 C-9.58636196 115.19217705 -12.98040261 115.17643158 -16.375 115.1640625 C-18.28140259 115.17924423 -18.28140259 115.17924423 -20.22631836 115.19473267 C-25.10550053 115.12982345 -28.7401621 115.05323428 -33.11083984 112.79833984 C-35.89257843 107.40647638 -35.52416116 102.03956591 -35.4765625 96.0625 C-35.48134613 94.74967041 -35.48612976 93.43684082 -35.49105835 92.08422852 C-35.49841486 89.31008373 -35.48776586 86.53674598 -35.46435547 83.76269531 C-35.43586572 80.21470402 -35.45227664 76.66860373 -35.48221779 73.12068176 C-35.50467705 69.72613804 -35.48893158 66.33209739 -35.4765625 62.9375 C-35.48668365 61.66656494 -35.49680481 60.39562988 -35.50723267 59.08618164 C-35.37697388 49.29471598 -35.37697388 49.29471598 -32.52099609 46.16015625 C-29.8125 44.5 -29.8125 44.5 -25.8125 44.5 C-25.83868408 43.75951416 -25.86486816 43.01902832 -25.8918457 42.25610352 C-25.99662129 38.85845679 -26.06108125 35.46115113 -26.125 32.0625 C-26.1878418 30.31549805 -26.1878418 30.31549805 -26.25195312 28.53320312 C-26.37218531 19.99671777 -25.07220706 13.90179435 -19.02661133 7.65454102 C-13.37113326 2.41705837 -7.77137877 -0.0730358 0 0 Z " fill="#F2D45B" transform="translate(255.8125,282.5)"/>
<path d="M0 0 C20.75774083 -0.09344463 41.51544698 -0.16397987 62.27335548 -0.20724869 C71.91163794 -0.22787323 81.54978971 -0.25599179 91.18798828 -0.30175781 C99.58872514 -0.34162886 107.98936735 -0.3674336 116.3901962 -0.37635398 C120.83834066 -0.38156828 125.28621434 -0.39382148 129.734272 -0.42292023 C133.92198974 -0.4500936 138.10932543 -0.45844116 142.29712296 -0.45243073 C143.83300351 -0.45353011 145.36889699 -0.46147277 146.90470123 -0.4768219 C149.00501886 -0.49678119 151.103902 -0.49191925 153.20425415 -0.48101807 C154.96580054 -0.48654882 154.96580054 -0.48654882 156.76293373 -0.49219131 C161.75752519 0.2672292 164.8356417 2.77095513 168.25 6.375 C171.68157989 11.52236984 172.41786174 15.73106466 171.53515625 21.7578125 C170.32938715 26.80972097 168.12448118 30.10978573 164 33.375 C158.99573733 36.08564228 154.66042834 36.14194199 149.0401001 36.12025452 C148.23222258 36.12110894 147.42434507 36.12196337 146.59198642 36.12284368 C143.88193982 36.12449225 141.17195497 36.11898727 138.46191406 36.11352539 C136.52046205 36.11324336 134.57900993 36.11340157 132.63755798 36.1139679 C127.36316036 36.11425524 122.08878539 36.10836855 116.81439304 36.10139394 C111.30373308 36.09515005 105.79307262 36.09455578 100.28240967 36.09336853 C89.8454523 36.09025828 79.40850538 36.08204899 68.97155261 36.07201904 C57.09018792 36.06084843 45.20882273 36.05534506 33.32745409 36.05032361 C8.88496359 36.03986614 -15.55751762 36.02227259 -40 36 C-36.68129604 32.6292733 -33.40285756 29.70191827 -29.5625 26.9375 C-12.7195463 15.29810092 -12.7195463 15.29810092 0 0 Z " fill="#EFC419" transform="translate(332,459)"/>
<path d="M0 0 C11.25699785 -0.06951197 22.51394463 -0.12281744 33.7711134 -0.15543652 C38.99828358 -0.17109208 44.22530691 -0.19232852 49.45239258 -0.22631836 C54.49686947 -0.25891546 59.54120511 -0.27685384 64.58577919 -0.28463173 C66.51031022 -0.29017459 68.43483353 -0.30099841 70.35930443 -0.31719017 C73.05505451 -0.33896904 75.75022101 -0.34196673 78.44604492 -0.34057617 C79.24158279 -0.351362 80.03712067 -0.36214783 80.85676575 -0.3732605 C85.4219698 -0.34778107 88.3957506 0.12709791 92 3 C94 6 94 6 93.875 9.4375 C92.93034068 13.28361296 92.05957584 14.5894251 89 17 C85.70452197 18.64773901 82.04092836 18.12895725 78.41943359 18.11352539 C77.53156662 18.11367142 76.64369965 18.11381744 75.72892761 18.1139679 C72.78540631 18.11326955 69.84194779 18.10548081 66.8984375 18.09765625 C64.86105382 18.09579179 62.82366969 18.09436802 60.7862854 18.09336853 C55.41702034 18.08954555 50.04778223 18.07971711 44.67852783 18.06866455 C39.2023556 18.05844574 33.72617902 18.0538699 28.25 18.04882812 C17.49998815 18.03809467 6.74999631 18.02102085 -4 18 C-3.48501739 13.32015802 -2.87483582 8.99948605 -1.4375 4.5 C-1.16808594 3.6440625 -0.89867187 2.788125 -0.62109375 1.90625 C-0.31365234 0.96265625 -0.31365234 0.96265625 0 0 Z " fill="#285782" transform="translate(383,362)"/>
<path d="M0 0 C0.81053833 -0.0087616 1.62107666 -0.01752319 2.45617676 -0.02655029 C5.12237865 -0.04846903 7.7869077 -0.03401923 10.453125 -0.01708984 C12.31347978 -0.02046016 14.17383242 -0.02531458 16.03417969 -0.03158569 C19.92794821 -0.0389468 23.82114216 -0.02827622 27.71484375 -0.00488281 C32.69852433 0.02360466 37.68085854 0.00719658 42.66448975 -0.02274513 C46.50449717 -0.04083881 50.34418695 -0.03505062 54.1842041 -0.02210617 C56.02136394 -0.01877787 57.85855289 -0.02283894 59.69567871 -0.03450394 C62.26664275 -0.04724713 64.83544634 -0.02778936 67.40625 0 C68.53794617 -0.01518173 68.53794617 -0.01518173 69.69250488 -0.03067017 C73.56228181 0.04657089 76.14082967 0.60574941 79.15136719 2.96865845 C81.703125 5.64697266 81.703125 5.64697266 82.828125 9.14697266 C82.67716924 13.37373402 81.6944049 14.7411579 78.703125 17.64697266 C75.54066703 19.22820164 72.13502532 18.82108908 68.66088867 18.83984375 C67.41428719 18.85210999 67.41428719 18.85210999 66.14250183 18.86462402 C63.38537318 18.88948734 60.62829603 18.9059961 57.87109375 18.92041016 C56.93036829 18.92573383 55.98964283 18.93105751 55.02041054 18.93654251 C50.04152872 18.96327774 45.06267201 18.98265174 40.08374023 18.99707031 C34.93859292 19.01372226 29.79408563 19.05850348 24.64918041 19.10944176 C20.69520829 19.14308129 16.74138872 19.1546441 12.78728676 19.16029739 C10.89063944 19.16701863 8.99400245 19.18226332 7.09749413 19.2061882 C4.44231223 19.23777357 1.78886501 19.23788687 -0.86645508 19.23046875 C-1.64950012 19.24687408 -2.43254517 19.26327942 -3.23931885 19.28018188 C-7.29730128 19.23378793 -9.07981788 18.82214647 -12.28007507 16.2394104 C-14.21948132 13.74645615 -15.00306525 12.73709319 -14.984375 9.64697266 C-15.00886719 9.00759766 -15.03335937 8.36822266 -15.05859375 7.70947266 C-12.55928416 0.9421113 -6.40409518 -0.0859111 0 0 Z " fill="#285782" transform="translate(394.296875,25.35302734375)"/>
<path d="M0 0 C1.27630028 -0.01533279 1.27630028 -0.01533279 2.5783844 -0.03097534 C5.38986375 -0.05876633 8.20036255 -0.05685458 11.01196289 -0.05224609 C12.96725326 -0.06002002 14.92254026 -0.06868936 16.87782288 -0.07821655 C20.97595162 -0.09314056 25.07373578 -0.09255906 29.171875 -0.08203125 C34.42259303 -0.07044004 39.67190047 -0.10430456 44.92238522 -0.1507206 C48.96049743 -0.18019105 52.99826971 -0.18193952 57.03647041 -0.17570114 C58.9721716 -0.17672777 60.90789177 -0.18720747 62.84348869 -0.20732498 C65.55153811 -0.23201686 68.25683803 -0.21850227 70.96484375 -0.1953125 C72.1627504 -0.21824371 72.1627504 -0.21824371 73.38485718 -0.24163818 C76.34219796 -0.18569039 78.78573605 -0.0362356 81.18289375 1.80733109 C83.7525706 4.68909675 84.53791185 6.28230503 84.67211914 10.17431641 C83.30140595 14.28645597 82.21147075 15.28838223 78.54711914 17.54931641 C75.62545101 17.94166314 73.0823392 18.10722975 70.16430664 18.08276367 C69.3328009 18.09137924 68.50129517 18.09999481 67.64459229 18.10887146 C64.90344883 18.13152423 62.16332821 18.12479449 59.42211914 18.11572266 C57.51309913 18.12095828 55.6040817 18.12723453 53.69506836 18.13450623 C49.69706028 18.14490894 45.69940816 18.14035039 41.70141602 18.12573242 C36.5797746 18.10853819 31.45925436 18.13204834 26.33773804 18.16722202 C22.39657162 18.18918838 18.45567384 18.18775651 14.51446533 18.17945671 C12.62622853 18.1786369 10.73797207 18.185506 8.84979248 18.20022774 C6.20913865 18.21766143 3.57050443 18.20314268 0.92993164 18.18041992 C0.15159973 18.19211212 -0.62673218 18.20380432 -1.4286499 18.21585083 C-5.46937075 18.14515594 -7.25110715 17.71213107 -10.4375 15.14097595 C-12.41767238 12.59459241 -13.12180107 11.6356025 -13.01538086 8.48681641 C-12.45288086 4.54931641 -12.45288086 4.54931641 -10.94602966 2.33755493 C-7.42883309 -0.18519317 -4.171446 -0.02581574 0 0 Z " fill="#285680" transform="translate(392.452880859375,176.45068359375)"/>
<path d="M0 0 C0.83150574 -0.0071553 1.66301147 -0.01431061 2.51971436 -0.02168274 C5.26110211 -0.03855535 8.00085116 -0.01917635 10.7421875 0.00219727 C12.6512058 0.00136843 14.56022403 -0.0010915 16.46923828 -0.00511169 C20.46734129 -0.00796871 24.46488379 0.00672207 28.46289062 0.03417969 C33.58443469 0.06826227 38.70497657 0.06224333 43.8265686 0.04351711 C47.76774428 0.03294207 51.70868726 0.04188954 55.64984131 0.05690193 C57.53805856 0.0620805 59.42630015 0.06160589 61.31451416 0.05535698 C63.95499817 0.04989867 66.59405381 0.07029881 69.234375 0.09765625 C70.01270691 0.09113037 70.79103882 0.08460449 71.59295654 0.07788086 C75.24930039 0.14220722 77.43267677 0.51725892 80.57080078 2.45350647 C82.6171875 4.63110352 82.6171875 4.63110352 83.7421875 8.00610352 C83.60797613 11.89823337 82.82259683 13.49036731 80.25296211 16.37211037 C77.21115945 18.71326952 73.69553724 18.45447463 70.03491211 18.39160156 C69.18229294 18.40050919 68.32967377 18.40941681 67.45121765 18.41859436 C64.63987133 18.43986227 61.83082085 18.4175815 59.01953125 18.39282227 C57.06327582 18.39432476 55.10702099 18.39775498 53.15077209 18.4030304 C49.05422976 18.40736082 44.95847492 18.39052999 40.86206055 18.35839844 C35.61022386 18.31859097 30.35986158 18.32792748 25.10797787 18.35263348 C21.069869 18.36681177 17.03210491 18.35673411 12.99402046 18.33912086 C11.05752956 18.33326974 9.12100341 18.33457535 7.18452263 18.34314537 C4.47890592 18.35113258 1.77545477 18.32691069 -0.92993164 18.29394531 C-1.7305603 18.30249542 -2.53118896 18.31104553 -3.3560791 18.31985474 C-7.22156468 18.23851631 -9.00220638 17.98568536 -11.8759613 15.3084259 C-13.88083392 11.74623585 -14.03024484 9.65957139 -13.3828125 5.63110352 C-9.52966169 0.49804176 -6.10317487 -0.09168266 0 0 Z " fill="#285680" transform="translate(393.3828125,61.368896484375)"/>
<path d="M0 0 C1.05840088 0.00858032 1.05840088 0.00858032 2.13818359 0.01733398 C9.3260642 0.26276978 13.82102671 2.29738161 18.953125 7.1796875 C20.53023773 8.90226208 21.895258 10.55380523 23.1875 12.5 C23.73277344 13.28761719 24.27804687 14.07523437 24.83984375 14.88671875 C26.92582836 20.47957603 26.49990963 25.96261073 26.375 31.875 C26.35469727 33.69451172 26.35469727 33.69451172 26.33398438 35.55078125 C26.29874897 38.53404568 26.24494567 41.51708059 26.1875 44.5 C20.5775 44.5 14.9675 44.5 9.1875 44.5 C9.17332031 43.04207031 9.15914063 41.58414063 9.14453125 40.08203125 C9.09762373 38.15882278 9.04937638 36.23564667 9 34.3125 C8.99419922 33.35279297 8.98839844 32.39308594 8.98242188 31.40429688 C8.83496983 26.669448 8.74035175 24.23378504 5.82421875 20.36328125 C3.29719529 18.31499822 3.29719529 18.31499822 0.1875 17.875 C-4.00588145 18.74862114 -5.23080381 20.07338506 -7.8125 23.5 C-8.56121714 27.10093772 -8.60282208 30.64328657 -8.625 34.3125 C-8.65013672 35.29154297 -8.67527344 36.27058594 -8.70117188 37.27929688 C-8.7598663 39.68576829 -8.78908903 42.09292674 -8.8125 44.5 C-14.4225 44.5 -20.0325 44.5 -25.8125 44.5 C-25.94821825 40.35305346 -26.04698619 36.21060579 -26.125 32.0625 C-26.1878418 30.31549805 -26.1878418 30.31549805 -26.25195312 28.53320312 C-26.37218531 19.99671777 -25.07220706 13.90179435 -19.02661133 7.65454102 C-13.37113326 2.41705837 -7.77137877 -0.0730358 0 0 Z " fill="#D0D3CF" transform="translate(255.8125,282.5)"/>
<path d="M0 0 C10.86572078 -0.13903532 21.73122989 -0.24563899 32.59765911 -0.31087303 C37.64346935 -0.34218284 42.68867094 -0.38464934 47.73413086 -0.45263672 C52.60358978 -0.51784167 57.47246341 -0.55370868 62.34232521 -0.56926346 C64.19994128 -0.58034778 66.0575254 -0.60199355 67.9148922 -0.63438034 C70.51777662 -0.67796056 73.11824484 -0.68393372 75.72143555 -0.68115234 C76.4889212 -0.702724 77.25640686 -0.72429565 78.04714966 -0.746521 C80.93917023 -0.71309714 83.28303543 -0.55595881 85.61728859 1.2541008 C88.19128264 4.14163741 88.99047521 5.72378108 89.125 9.625 C87.75535116 13.73394651 86.66151802 14.74198079 83 17 C80.10706338 17.36714185 77.60628754 17.50815776 74.72143555 17.45410156 C73.49139046 17.45497772 73.49139046 17.45497772 72.23649597 17.45587158 C69.536134 17.45309317 66.83688698 17.42201345 64.13671875 17.390625 C62.2605703 17.38316173 60.38441404 17.3774692 58.508255 17.37347412 C53.57777261 17.35822458 48.64776391 17.31894857 43.71746826 17.2746582 C38.68345548 17.23369087 33.64936592 17.21545998 28.61523438 17.1953125 C18.74328183 17.1524537 8.87168035 17.08421054 -1 17 C-1.02735618 15.29175867 -1.04655506 13.58338595 -1.0625 11.875 C-1.07410156 10.92367188 -1.08570313 9.97234375 -1.09765625 8.9921875 C-0.99720599 5.91439143 -0.56963767 3.02311643 0 0 Z " fill="#285680" transform="translate(388,327)"/>
<path d="M0 0 C1.31282959 -0.00099701 2.62565918 -0.00199402 3.97827148 -0.00302124 C6.75258571 -0.00284218 9.52573281 0.0179297 12.29980469 0.05419922 C15.84764019 0.09957733 19.39377236 0.10065949 22.94181824 0.08716393 C26.33640485 0.07885621 29.73047193 0.10284026 33.125 0.125 C35.03140259 0.12226578 35.03140259 0.12226578 36.97631836 0.11947632 C38.16104736 0.13854034 39.34577637 0.15760437 40.56640625 0.17724609 C41.60611572 0.18646088 42.6458252 0.19567566 43.71704102 0.20516968 C47.3099697 0.86352646 48.98783663 2.17412289 51.5625 4.7265625 C52.6875 8.1015625 52.6875 8.1015625 52.5625 11.7265625 C50.83872791 14.75499346 48.72202697 17.14679901 45.5625 18.7265625 C43.77145998 18.83266029 41.97651042 18.87535953 40.18237305 18.88769531 C39.05747971 18.89730286 37.93258636 18.9069104 36.77360535 18.91680908 C34.94240898 18.9231839 34.94240898 18.9231839 33.07421875 18.9296875 C31.1984893 18.93823761 31.1984893 18.93823761 29.28486633 18.94696045 C26.63429116 18.95642159 23.98382952 18.96331253 21.33325195 18.96679688 C17.9437128 18.97227402 14.5545769 18.99628487 11.16516399 19.02476883 C7.92654621 19.04792456 4.68790772 19.04984721 1.44921875 19.0546875 C0.23449387 19.0670343 -0.98023102 19.0793811 -2.23176575 19.09210205 C-3.36611557 19.08910095 -4.50046539 19.08609985 -5.66918945 19.08300781 C-6.66465286 19.08665344 -7.66011627 19.09029907 -8.68574524 19.09405518 C-11.9516073 18.65790425 -13.79488579 17.6698513 -16.4375 15.7265625 C-18.79836122 12.18527066 -19.01019578 10.89906032 -18.4375 6.7265625 C-14.24468304 -1.10949211 -8.18813577 -0.11866957 0 0 Z " fill="#285782" transform="translate(424.4375,211.2734375)"/>
<path d="M0 0 C4.303813 2.43219684 6.95389643 6.56583387 8.859375 11.05078125 C9.86554517 17.27844504 9.10905178 22.21982185 5.40234375 27.359375 C1.22113717 31.94282424 -3.73409889 33.7822888 -9.87109375 34.2109375 C-15.32948546 33.82574979 -19.50813387 31.07085722 -23.078125 27.05078125 C-26.67348079 21.82117283 -26.84923837 16.27083192 -26.140625 10.05078125 C-20.73060191 -0.76926492 -11.09274144 -4.53598536 0 0 Z " fill="#64DBB9" transform="translate(141.140625,36.94921875)"/>
<path d="M0 0 C5.03359633 2.3843351 8.49996787 5.99993573 11 11 C11.52779267 17.2117137 11.74403643 22.758349 8 28 C3.47230949 32.3308344 -0.09292097 34.67089671 -6.3125 35.375 C-11.94132861 34.80257675 -15.88434184 33.20549502 -19.83984375 29.08203125 C-23.34350686 24.4242203 -24.96461628 20.3553423 -24.58984375 14.49609375 C-23.29303358 9.00826794 -20.17610112 4.63023169 -15.6953125 1.2734375 C-10.69691608 -1.08812371 -5.39763071 -0.61182212 0 0 Z " fill="#64DBB9" transform="translate(68,186)"/>
<path d="M0 0 C4.77718009 2.79553502 8.34867177 6.02546855 10.859375 11.046875 C11.38716767 17.2585887 11.60341143 22.805224 7.859375 28.046875 C2.09252714 33.69069677 -1.93084102 34.45588714 -9.86328125 34.39453125 C-14.44755116 33.90823802 -17.07366685 32.42791923 -20.140625 29.046875 C-23.53014678 24.41452857 -24.63987679 20.03017576 -24.54296875 14.26953125 C-23.60342325 9.07922652 -20.37660988 4.76297039 -16.2421875 1.58984375 C-10.98601967 -1.34987067 -5.63486189 -2.5089531 0 0 Z " fill="#64DBB9" transform="translate(68.140625,35.953125)"/>
<path d="M0 0 C3.66864538 2.68437467 6.50666083 5.76332166 8.5625 9.875 C9.09029267 16.0867137 9.30653643 21.633349 5.5625 26.875 C1.03480949 31.2058344 -2.53042097 33.54589671 -8.75 34.25 C-14.38445187 33.67700489 -18.35130818 32.089641 -22.27734375 27.921875 C-25.59497521 23.45673337 -27.32725654 19.68373322 -26.88671875 14.07421875 C-25.79570973 8.73301809 -23.57517673 4.47649858 -19.4375 0.875 C-13.64905968 -2.82560116 -6.26866059 -2.05156165 0 0 Z " fill="#64DBB9" transform="translate(70.4375,337.125)"/>
<path d="M0 0 C5.66903861 3.0444837 9.08390172 6.78329401 11.375 12.8125 C12.14075588 18.71975968 10.68764874 22.99501997 7.375 27.8125 C3.09082014 32.23875726 -0.25453033 33.98036204 -6.375 34.125 C-11.65599209 34.07446419 -14.63139067 33.50658863 -18.625 29.8125 C-23.54953088 24.22249198 -24.15063032 20.54913436 -24.1015625 13.15625 C-23.34298904 7.83380016 -20.74731142 5.06695639 -16.625 1.8125 C-11.01474855 -1.92766763 -6.35062489 -2.08037712 0 0 Z " fill="#64DCB9" transform="translate(209.625,36.1875)"/>
<path d="M0 0 C0.98033203 -0.00257812 1.96066406 -0.00515625 2.97070312 -0.0078125 C11.968959 0.11436341 11.968959 0.11436341 15.9375 3.5 C18.27918764 7.01253146 18.43373677 8.36469356 17.9375 12.5 C16.13756226 15.19990662 14.853727 17.0418865 11.9375 18.5 C8.00680842 18.82248898 4.06728381 18.82442843 0.125 18.875 C-0.96876953 18.91238281 -2.06253906 18.94976562 -3.18945312 18.98828125 C-11.24606942 19.07665364 -11.24606942 19.07665364 -15.28125 16.2265625 C-17.76766494 12.42060279 -17.76766494 12.42060279 -17.75 9.5 C-17.77449219 8.860625 -17.79898437 8.22125 -17.82421875 7.5625 C-14.82208253 -0.56636114 -7.33517153 -0.21303468 0 0 Z " fill="#285782" transform="translate(344.0625,25.5)"/>
<path d="M0 0 C1.77020508 -0.03577148 1.77020508 -0.03577148 3.57617188 -0.07226562 C13.21675147 -0.05589792 13.21675147 -0.05589792 16.34375 2.91015625 C18.46767198 6.18775404 18.78147352 7.72797453 18.0625 11.5625 C16.26256226 14.26240662 14.978727 16.1043865 12.0625 17.5625 C8.13180842 17.88498898 4.19228381 17.88692843 0.25 17.9375 C-0.84376953 17.97488281 -1.93753906 18.01226562 -3.06445312 18.05078125 C-11.11773122 18.13911702 -11.11773122 18.13911702 -15.1640625 15.29296875 C-17.85248695 11.15374256 -17.63207249 9.42450742 -16.9375 4.5625 C-12.52984297 -1.28531457 -6.73427139 -0.06232042 0 0 Z " fill="#285680" transform="translate(343.9375,176.4375)"/>
<path d="M0 0 C1.12792969 -0.02771484 2.25585938 -0.05542969 3.41796875 -0.08398438 C11.37386731 -0.06044621 11.37386731 -0.06044621 14.39233398 1.94433594 C16.90808466 4.77716078 17.49713337 6.52123569 17.5625 10.3125 C16.39329863 14.02643377 15.51580951 15.30009063 12.5 17.6875 C8.20616656 18.512221 3.86419485 18.2902339 -0.5 18.25 C-1.68851562 18.27384766 -2.87703125 18.29769531 -4.1015625 18.32226562 C-5.24367188 18.32033203 -6.38578125 18.31839844 -7.5625 18.31640625 C-8.60535156 18.31713135 -9.64820313 18.31785645 -10.72265625 18.31860352 C-13.5 17.6875 -13.5 17.6875 -15.8359375 15.36694336 C-18.04249619 11.81398245 -18.1611347 9.801227 -17.5 5.6875 C-13.16048913 -0.9329119 -7.1706175 -0.0942424 0 0 Z " fill="#285680" transform="translate(344.5,61.3125)"/>
<path d="M0 0 C2.69990662 1.79993774 4.5418865 3.083773 6 6 C6.08400529 7.59447464 6.10727467 9.19240545 6.09765625 10.7890625 C6.09443359 11.73007812 6.09121094 12.67109375 6.08789062 13.640625 C6.07951172 14.62546875 6.07113281 15.6103125 6.0625 16.625 C6.05798828 17.61757813 6.05347656 18.61015625 6.04882812 19.6328125 C6.03702161 22.08856722 6.01908582 24.54429106 6 27 C0.06 27 -5.88 27 -12 27 C-12.1081174 23.60331164 -12.18737188 20.21007561 -12.25 16.8125 C-12.28351563 15.85279297 -12.31703125 14.89308594 -12.3515625 13.90429688 C-12.45069252 6.74215277 -12.45069252 6.74215277 -10.109375 2.88671875 C-6.7094618 -0.15431472 -4.53413958 -0.44452349 0 0 Z " fill="#55BB71" transform="translate(259,300)"/>
<path d="M0 0 C3.74785043 2.08213913 4.79482295 3.2947039 6 7.4375 C6 11.4184894 5.5177436 12.96134393 3 16 C0.28562321 18.13272462 -1.04826833 17.99745956 -4.5625 17.8125 C-8 17 -8 17 -9.875 15.9375 C-11.70006784 12.79432761 -12.25113651 9.57869527 -12 6 C-8.74238589 0.72041851 -6.13812058 -0.60177653 0 0 Z " fill="#A86F44" transform="translate(259,353)"/>
</svg>
