<?xml version="1.0" encoding="UTF-8"?>
<svg version="1.1" xmlns="http://www.w3.org/2000/svg" width="512" height="512">
<path d="M0 0 C0.74606654 -0.00226556 1.49213308 -0.00453111 2.26080769 -0.00686532 C4.75015624 -0.01317393 7.23944991 -0.01237798 9.72880554 -0.0115509 C11.51802134 -0.01454436 13.3072365 -0.01794732 15.09645081 -0.02172852 C19.94985426 -0.03055388 24.80324008 -0.03290602 29.65665078 -0.0335443 C32.69102616 -0.03425565 35.72539708 -0.03639159 38.75977135 -0.03904152 C49.3518286 -0.0482902 59.94387329 -0.05237702 70.53593445 -0.05158997 C80.39930191 -0.05098935 90.26261466 -0.0615393 100.12596828 -0.07733363 C108.6025955 -0.09042223 117.07920486 -0.0957733 125.5558421 -0.09513456 C130.61478582 -0.09487995 135.67368089 -0.09771046 140.73261452 -0.10831261 C145.49243163 -0.11801575 150.25215382 -0.11805757 155.01197433 -0.11079597 C156.75460003 -0.10975288 158.49723171 -0.11209663 160.23984718 -0.11815643 C184.78260294 -0.19794473 184.78260294 -0.19794473 193.53227234 8.18449402 C199.50987684 14.58139092 201.63532795 19.45813855 201.65907288 28.33119202 C201.66360399 29.03304505 201.6681351 29.73489807 201.67280352 30.45801938 C201.6854118 32.79773899 201.6838295 35.13722477 201.68217468 37.47697449 C201.68816213 39.15944211 201.69496818 40.841907 201.70252991 42.52436829 C201.72017408 47.08640286 201.72488459 51.64836237 201.72616148 56.21042776 C201.72758442 59.06255083 201.73185669 61.91465489 201.73715591 64.76677322 C201.75565022 74.72226928 201.76382718 84.67771182 201.76225281 94.63322449 C201.76105124 103.90479141 201.78215817 113.1761256 201.81374013 122.44763362 C201.83991188 130.41555304 201.85061974 138.38339647 201.84934199 146.35135853 C201.84883266 151.10684402 201.85449965 155.86212258 201.87569809 160.61756516 C201.89509588 165.09102774 201.89519448 169.56408629 201.88066483 174.03756332 C201.87857761 175.67579744 201.88327245 177.31405696 201.89538574 178.95224762 C201.96415823 188.90019829 201.77120632 196.06264448 195.01664734 203.88371277 C188.32550692 209.61897598 183.64365659 211.28562554 174.97294617 211.24723816 C173.68481773 211.2474572 173.68481773 211.2474572 172.3706665 211.24768066 C169.52997824 211.24698356 166.68935541 211.2392006 163.84867859 211.23136902 C161.8799849 211.22950412 159.91129075 211.22808056 157.94259644 211.2270813 C152.75911683 211.22326178 147.5756652 211.21343629 142.39219666 211.20237732 C136.1738925 211.19035334 129.95557899 211.18575827 123.73726654 211.17992401 C114.28870734 211.17022426 104.84020955 211.15106373 95.39164734 211.13371277 C95.39164734 234.56371277 95.39164734 257.99371277 95.39164734 282.13371277 C103.97164734 282.13371277 112.55164734 282.13371277 121.39164734 282.13371277 C124.74304489 286.60224283 124.74304489 286.60224283 125.42680359 290.32121277 C127.08378117 299.01036492 127.08378117 299.01036492 131.41117859 306.52043152 C134.42654239 308.18563242 135.945924 308.51657092 139.39164734 308.13371277 C143.55778327 306.40802846 147.19991008 303.91988095 150.87602234 301.34074402 C154.12375131 299.20338725 156.37443507 297.81954617 160.39164734 298.13371277 C163.39509813 300.12507536 165.84590492 302.59684466 168.39164734 305.13371277 C169.80625871 306.44702455 171.22162469 307.75952397 172.63774109 309.07121277 C174.03748167 310.42268643 175.43461255 311.7768681 176.82914734 313.13371277 C177.54779968 313.80660339 178.26645203 314.47949402 179.00688171 315.17277527 C182.1639634 318.26128955 184.15007584 320.45415183 185.64555359 324.66105652 C185.3058404 329.30728768 183.52260729 331.94920422 180.89164734 335.69621277 C177.38700959 340.51692621 177.38700959 340.51692621 176.42289734 346.22355652 C176.74258484 347.18390808 177.06227234 348.14425964 177.39164734 349.13371277 C177.71004578 350.19074402 178.02844421 351.24777527 178.35649109 352.33683777 C181.41196214 356.53591123 185.03034807 356.87202304 189.95414734 357.88371277 C191.68591253 358.26854948 193.41645973 358.65892113 195.14555359 359.05558777 C195.91198181 359.21639832 196.67841003 359.37720886 197.46806335 359.54289246 C199.39164734 360.13371277 199.39164734 360.13371277 201.39164734 362.13371277 C201.6159997 364.89513209 201.71979408 367.55336699 201.72758484 370.31730652 C201.73424164 371.12861526 201.74089844 371.93992401 201.74775696 372.77581787 C201.75788984 374.49315623 201.76257378 376.210534 201.76225281 377.92790222 C201.76662489 380.55771159 201.80293214 383.18584133 201.84086609 385.81535339 C201.84673433 387.48266535 201.85070367 389.1499853 201.85258484 390.81730652 C201.86695587 391.60487839 201.8813269 392.39245026 201.89613342 393.20388794 C201.85068549 398.62584077 201.85068549 398.62584077 199.6245575 401.08879089 C197.43843841 402.11181623 195.57345288 402.73325558 193.20414734 403.16886902 C184.52374848 404.84553686 184.52374848 404.84553686 176.96977234 409.11808777 C175.22593672 412.17492903 174.92420338 413.61675344 175.39164734 417.13371277 C177.09415396 420.79733461 179.29519458 424.10893302 181.71488953 427.33610535 C182.19216492 427.98474548 182.66944031 428.63338562 183.16117859 429.30168152 C183.83564026 430.1566925 183.83564026 430.1566925 184.52372742 431.02897644 C185.90330653 434.3745043 185.28445156 436.67933548 184.39164734 440.13371277 C182.36967468 442.93205261 182.36967468 442.93205261 179.72758484 445.59465027 C179.02214035 446.30870529 179.02214035 446.30870529 178.30244446 447.03718567 C177.30942735 448.0342647 176.30887627 449.02389136 175.30131531 450.00627136 C173.77032712 451.50511026 172.27402875 453.03330613 170.77836609 454.56730652 C169.80502348 455.5366839 168.82982106 456.50419819 167.85258484 457.46965027 C166.97392761 458.34153992 166.09527039 459.21342957 165.18998718 460.11174011 C161.8058271 462.55700392 159.540411 463.02446408 155.39164734 463.13371277 C153.31523132 462.40519714 153.31523132 462.40519714 151.63774109 461.22746277 C151.01061218 460.81367371 150.38348328 460.39988464 149.73735046 459.97355652 C148.79278992 459.31033386 148.79278992 459.31033386 147.82914734 458.63371277 C143.0084339 455.12907502 143.0084339 455.12907502 137.30180359 454.16496277 C136.34145203 454.48465027 135.38110046 454.80433777 134.39164734 455.13371277 C133.32301453 455.47531433 132.25438171 455.81691589 131.15336609 456.16886902 C127.69920324 458.62635687 127.39203582 460.22241242 126.58891296 464.24504089 C126.46194031 465.01267761 126.33496765 465.78031433 126.20414734 466.57121277 C125.92814529 468.09243339 125.64324343 469.61207108 125.34867859 471.12980652 C125.23499939 471.80197205 125.12132019 472.47413757 125.00419617 473.16667175 C124.16574012 475.85915495 123.50435305 477.2096462 121.39164734 479.13371277 C118.50302035 479.53894631 115.99992108 479.69478839 113.11039734 479.66496277 C112.30050354 479.66878967 111.49060974 479.67261658 110.65617371 479.67655945 C108.94477596 479.67928001 107.23333674 479.67190861 105.52201843 479.65519714 C102.90079647 479.6337875 100.2823152 479.65499169 97.66117859 479.68058777 C95.99841212 479.67794452 94.33564735 479.67281958 92.67289734 479.66496277 C91.88846252 479.67305969 91.10402771 479.68115662 90.29582214 479.6894989 C84.90175848 479.59644142 84.90175848 479.59644142 82.43876648 477.36222839 C81.41212895 475.17730246 80.7921783 473.31591956 80.35649109 470.94621277 C78.67982324 462.26581391 78.67982324 462.26581391 74.40727234 454.71183777 C71.35043107 452.96800215 69.90860666 452.66626881 66.39164734 453.13371277 C62.72802549 454.83621939 59.41642709 457.03726001 56.18925476 459.45695496 C55.54061462 459.93423035 54.89197449 460.41150574 54.22367859 460.90324402 C53.3686676 461.57770569 53.3686676 461.57770569 52.49638367 462.26579285 C49.15085581 463.64537196 46.84602463 463.02651699 43.39164734 462.13371277 C40.5933075 460.11174011 40.5933075 460.11174011 37.93070984 457.46965027 C37.21665482 456.76420578 37.21665482 456.76420578 36.48817444 456.04450989 C35.49109541 455.05149278 34.50146875 454.0509417 33.51908875 453.04338074 C32.02024985 451.51239255 30.49205398 450.01609418 28.95805359 448.52043152 C27.9886762 447.54708891 27.02116192 446.57188649 26.05570984 445.59465027 C25.18382019 444.71599304 24.31193054 443.83733582 23.41362 442.93205261 C20.96835619 439.54789253 20.50089603 437.28247643 20.39164734 433.13371277 C21.12016296 431.05729675 21.12016296 431.05729675 22.29789734 429.37980652 C22.7116864 428.75267761 23.12547546 428.12554871 23.55180359 427.47941589 C24.21502625 426.53485535 24.21502625 426.53485535 24.89164734 425.57121277 C28.46365649 420.68466701 28.46365649 420.68466701 29.23930359 414.87199402 C28.20884216 411.54317622 27.41583005 409.0067463 25.39164734 406.13371277 C19.70866076 404.29448557 14.52890398 403.8451248 8.59127808 403.87542725 C7.31625702 403.86991369 7.31625702 403.86991369 6.01547796 403.86428875 C3.18662254 403.85436264 0.35796578 403.85844867 -2.47090149 403.86247253 C-4.506599 403.85808262 -6.54229471 403.85277949 -8.57798767 403.84663391 C-12.95135407 403.83515745 -17.32467216 403.82967625 -21.69805336 403.82875252 C-28.60957868 403.82680948 -35.52100409 403.80874577 -42.43249512 403.78799438 C-59.59207926 403.73884819 -76.75169034 403.70787818 -93.91133118 403.68669128 C-107.26147811 403.67018697 -120.61153897 403.64744366 -133.96162814 403.60367054 C-140.83680993 403.58184636 -147.71182839 403.57384062 -154.58704245 403.57606328 C-158.85483627 403.57440141 -163.12252252 403.56038402 -167.39027786 403.54285049 C-169.37407464 403.53723246 -171.35789355 403.53678267 -173.34169197 403.5417881 C-176.04234346 403.54788988 -178.74230995 403.53577039 -181.44290161 403.51898193 C-182.23413243 403.52519375 -183.02536324 403.53140556 -183.84057075 403.53780562 C-186.74029739 403.50478417 -189.03800714 403.45629158 -191.59614563 402.0094471 C-193.10603357 399.21145365 -192.97661125 396.90709399 -192.96911621 393.73669434 C-192.97167949 393.08484624 -192.97424276 392.43299814 -192.97688371 391.76139706 C-192.9818324 389.57315901 -192.96531174 387.38560815 -192.94892883 385.19743347 C-192.94808279 383.63050859 -192.94855726 382.06358252 -192.95025635 380.49665833 C-192.95111862 376.23860355 -192.9334554 371.98080126 -192.91253448 367.72280526 C-192.8938063 363.27451618 -192.89202029 358.82622159 -192.88845825 354.37789917 C-192.87912642 345.95248451 -192.85449727 337.52718635 -192.82440978 329.10182303 C-192.79090115 319.51065853 -192.77438867 309.91948853 -192.75932348 300.32828009 C-192.72794868 280.59669082 -192.67456323 260.86521323 -192.60835266 241.13371277 C-199.86835266 241.13371277 -207.12835266 241.13371277 -214.60835266 241.13371277 C-214.60169083 243.19196289 -214.59502899 245.25021301 -214.58816528 247.37083435 C-214.52691596 266.73601871 -214.48224076 286.10119032 -214.45291615 305.46644974 C-214.43743855 315.42312185 -214.41633197 325.37972295 -214.3820343 335.33634949 C-214.35215927 344.01320719 -214.33278416 352.69001348 -214.32608718 361.36692119 C-214.3221717 365.96250062 -214.31295127 370.55793293 -214.29116249 375.15346527 C-214.27082728 379.47737971 -214.26451283 383.80108615 -214.26902962 388.12504387 C-214.26820308 389.7133567 -214.26221973 391.30167636 -214.25073624 392.88994789 C-214.23583811 395.05644093 -214.23938868 397.22214583 -214.24758911 399.38865662 C-214.24482373 400.60173618 -214.24205835 401.81481575 -214.23920918 403.0646553 C-214.64087052 406.4040661 -215.20245419 407.81332302 -217.60835266 410.13371277 C-220.65067465 410.57738473 -222.61478642 410.75364807 -225.2709322 409.09634686 C-227.35068731 406.04435357 -227.02990111 402.86147543 -227.00708008 399.29406738 C-227.0137269 398.48704429 -227.02037373 397.6800212 -227.02722198 396.84854287 C-227.04592429 394.13528568 -227.04324187 391.42246666 -227.04072571 388.70915222 C-227.04973846 386.76784132 -227.06006447 384.82653614 -227.0716095 382.88523865 C-227.09926279 377.60664413 -227.10847531 372.32815734 -227.11446357 367.04949975 C-227.1238256 361.53611979 -227.15002717 356.02282099 -227.17446899 350.50949097 C-227.21819755 340.06543815 -227.24670545 329.62140103 -227.26979238 319.17728442 C-227.29681002 307.28863996 -227.34072361 295.4000769 -227.3860811 283.51149046 C-227.4790184 259.05227531 -227.55065749 234.59303463 -227.60835266 210.13371277 C-228.99667297 209.70638855 -228.99667297 209.70638855 -230.41304016 209.27043152 C-237.29976556 206.82050842 -240.50844439 202.44834072 -243.60835266 196.13371277 C-245.78380354 188.94464 -245.14004458 181.75215904 -241.60835266 175.13371277 C-239.64794837 172.29790782 -237.75065786 169.70486537 -234.60835266 168.13371277 C-235.91676265 158.60101145 -243.9175002 151.69241175 -250.54585266 145.32121277 C-264.69644102 131.56520993 -274.19600107 113.1234009 -274.94429016 93.12980652 C-275.30597415 67.21043124 -269.46106696 45.50464358 -250.97944641 26.41886902 C-232.00161092 8.46686247 -210.48508525 2.21055615 -184.94038391 2.79386902 C-167.26193457 3.52840166 -150.93082823 10.53925705 -137.60835266 22.13371277 C-137.03343079 22.56683777 -136.45850891 22.99996277 -135.86616516 23.44621277 C-120.31705714 35.48423188 -111.06702143 56.08477436 -108.60835266 75.13371277 C-107.03143556 100.45746829 -112.44943074 121.28132298 -128.60835266 141.13371277 C-133.22835266 145.75371277 -137.84835266 150.37371277 -142.60835266 155.13371277 C-105.97835266 155.46371277 -69.34835266 155.79371277 -31.60835266 156.13371277 C-31.65475891 146.42062683 -31.70116516 136.70754089 -31.74897766 126.70011902 C-31.76941805 120.54321371 -31.78883974 114.38633304 -31.80366516 108.22941589 C-31.82738106 98.45890383 -31.85523069 88.68852996 -31.91011047 78.9181366 C-31.95006366 71.80175368 -31.97580567 64.68548309 -31.98470664 57.56899112 C-31.98990712 53.80316217 -32.00207141 50.03765447 -32.03127289 46.27192879 C-32.05857652 42.72192652 -32.06676787 39.17237552 -32.06078339 35.62227821 C-32.06239546 33.70953721 -32.08383972 31.79684449 -32.10603333 29.88423157 C-32.06702585 21.67862306 -30.79785299 15.52020506 -25.93257141 8.82902527 C-18.27212533 1.47938487 -10.49097927 -0.02359922 0 0 Z M-16.98335266 17.69621277 C-22.48025244 25.94156243 -19.60835266 25.65603923 -19.60835266 41.13371277 C49.69164734 41.13371277 118.99164734 41.13371277 190.39164734 41.13371277 C191.20839334 28.41294472 191.20839334 28.41294472 186.06742859 17.61418152 C180.65257604 12.68254415 174.82681648 11.83435162 167.76983643 11.87301636 C167.02235876 11.86919081 166.27488109 11.86536526 165.50475258 11.86142379 C163.01067959 11.85113991 160.5168388 11.8550771 158.02275085 11.85905457 C156.23028857 11.85470556 154.43782815 11.84952177 152.64537048 11.84356689 C147.78381959 11.83018649 142.92234648 11.82959713 138.06078076 11.83213019 C134.00010679 11.83320048 129.93944853 11.82831509 125.87877792 11.82352477 C116.29833896 11.81243306 106.71793922 11.8119904 97.13749695 11.81803894 C87.25815195 11.82408032 77.37894931 11.81176276 67.4996286 11.79046887 C59.01283503 11.77284989 50.52608677 11.76685196 42.03927559 11.77010661 C36.97255102 11.77191902 31.90592803 11.7692874 26.83922005 11.75539207 C22.07443993 11.74281344 17.30988171 11.74475821 12.54510498 11.75780296 C10.79841474 11.76016815 9.05170888 11.75743612 7.30503654 11.74917984 C4.91658163 11.73870569 2.5288704 11.74681793 0.14044189 11.75949097 C-0.8908995 11.74842954 -0.8908995 11.74842954 -1.94307607 11.73714465 C-8.01833947 11.80474037 -12.77884972 13.15977538 -16.98335266 17.69621277 Z M-232.60835266 27.13371277 C-233.83811829 27.97675964 -233.83811829 27.97675964 -235.09272766 28.83683777 C-249.49754345 39.48387552 -259.74252086 56.48740986 -262.60835266 74.13371277 C-265.22386155 93.07966788 -261.08138894 111.11499123 -250.60835266 127.13371277 C-246.64368468 132.18675099 -242.11795835 136.77784869 -237.44038391 141.16886902 C-230.90601734 147.31195616 -224.47351901 155.53821371 -221.60835266 164.13371277 C-213.68835266 164.13371277 -205.76835266 164.13371277 -197.60835266 164.13371277 C-197.60835266 151.26371277 -197.60835266 138.39371277 -197.60835266 125.13371277 C-200.90835266 123.48371277 -204.20835266 121.83371277 -207.60835266 120.13371277 C-213.45277644 115.18843111 -216.31914083 109.88913152 -217.35835266 102.38371277 C-217.96102225 94.86150342 -216.52861111 88.30480746 -212.29975891 81.99308777 C-207.67168874 76.90541709 -201.18188395 73.54446169 -194.34663391 72.93058777 C-186.70656061 72.7829535 -180.79336755 74.05120303 -174.35835266 78.25871277 C-168.09809886 84.80352356 -165.23962819 91.87896884 -165.39350891 100.95793152 C-166.08431296 107.95389249 -168.88014168 114.01952538 -173.60835266 119.13371277 C-177.56835266 121.11371277 -181.52835266 123.09371277 -185.60835266 125.13371277 C-185.60835266 138.00371277 -185.60835266 150.87371277 -185.60835266 164.13371277 C-171.92995131 166.06721646 -171.92995131 166.06721646 -159.61616516 161.59074402 C-157.69137551 158.1844254 -156.17203929 154.71749203 -154.60835266 151.13371277 C-150.73108035 146.10165719 -146.20102358 141.69518507 -141.60835266 137.32121277 C-133.30167929 129.08086015 -127.36142051 119.18686554 -123.60835266 108.13371277 C-123.28995422 107.23781433 -122.97155579 106.34191589 -122.64350891 105.41886902 C-117.34194789 87.99945425 -119.95734207 68.42156513 -128.17085266 52.38371277 C-137.66285841 35.05775273 -153.69845812 22.71021849 -172.42085266 16.82121277 C-193.30519676 11.3301696 -214.8177774 14.76278295 -232.60835266 27.13371277 Z M-19.60835266 53.13371277 C-19.69085266 75.61496277 -19.77335266 98.09621277 -19.85835266 121.25871277 C-19.89476868 128.35645203 -19.93118469 135.45419128 -19.96870422 142.76701355 C-19.9820822 149.13100808 -19.9820822 149.13100808 -19.99012756 155.49501038 C-19.99385331 158.32904086 -20.00883906 161.16277145 -20.03065491 163.99671936 C-20.05813087 167.61395978 -20.06631027 171.23076533 -20.06064177 174.84810042 C-20.06238496 176.79887769 -20.08381936 178.74960708 -20.10606766 180.70025826 C-20.07374262 189.22204945 -20.07374262 189.22204945 -15.60835266 196.13371277 C-10.30275667 199.98026986 -5.62423859 200.28166713 0.77294922 200.26742554 C1.51871804 200.26969109 2.26448686 200.27195665 3.03285474 200.27429086 C5.53308323 200.28062352 8.03325741 200.27980196 10.53349304 200.27897644 C12.32565888 200.28196841 14.11782406 200.28537103 15.9099884 200.28915405 C20.77990439 200.29799494 25.64980281 200.30033222 30.51972604 200.30096984 C34.58526584 200.3019192 38.65080154 200.30559785 42.71633977 200.30914193 C52.30920156 200.31728703 61.90205397 200.31972614 71.49491882 200.3190155 C81.38895829 200.31841486 91.28294321 200.32896396 101.17696887 200.34475917 C109.672208 200.3578378 118.1674293 200.36319925 126.66267842 200.36256009 C131.73611981 200.36230518 136.80951275 200.36515277 141.88294411 200.37573814 C146.65586084 200.3854244 151.42868285 200.38549465 156.20160294 200.37822151 C157.95151724 200.37717629 159.70143746 200.37953485 161.45134163 200.38558197 C163.84413694 200.39331386 166.23660611 200.38864924 168.62939453 200.38095093 C169.3183197 200.38609449 170.00724487 200.39123805 170.71704656 200.39653748 C175.91358887 200.35971107 181.1710142 199.88987085 185.35258484 196.58293152 C185.81922546 196.00156433 186.28586609 195.42019714 186.76664734 194.82121277 C187.24875671 194.24757996 187.73086609 193.67394714 188.22758484 193.08293152 C190.55350191 189.18819119 190.51609172 184.92031019 190.51190186 180.48324585 C190.51327935 179.35961986 190.51465685 178.23599386 190.51607609 177.0783186 C190.51247798 175.85031693 190.50887987 174.62231527 190.50517273 173.35710144 C190.50529326 172.03817807 190.5054138 170.7192547 190.50553799 169.36036396 C190.50576335 165.79910478 190.49997582 162.23787934 190.49292755 158.67662811 C190.48722427 155.33244928 190.48696397 151.98827187 190.48625183 148.64408875 C190.48100864 138.8697923 190.46704745 129.09550211 190.45414734 119.32121277 C190.43352234 97.47933777 190.41289734 75.63746277 190.39164734 53.13371277 C121.09164734 53.13371277 51.79164734 53.13371277 -19.60835266 53.13371277 Z M-203.92085266 90.38371277 C-206.08787522 93.91515694 -206.92526504 97.03648846 -206.60835266 101.13371277 C-205.01014936 106.3137717 -202.4144979 110.46363208 -197.60835266 113.13371277 C-193.18417823 114.31349262 -189.73138267 114.5008572 -185.35835266 113.07121277 C-181.34991386 110.24708543 -178.35976041 107.7060166 -176.97163391 102.95402527 C-176.17233763 97.84884259 -176.5513295 94.47271338 -179.60835266 90.13371277 C-183.27653712 86.53381898 -186.15214973 84.25506301 -191.35835266 83.82121277 C-196.9400666 83.90210717 -200.01918522 86.5874958 -203.92085266 90.38371277 Z M-149.60835266 167.13371277 C-147.95835266 168.78371277 -146.30835266 170.43371277 -144.60835266 172.13371277 C-143.06147766 174.56340027 -143.06147766 174.56340027 -141.85835266 177.00871277 C-141.45100891 177.81050964 -141.04366516 178.61230652 -140.62397766 179.43840027 C-139.60835266 182.13371277 -139.60835266 182.13371277 -138.60835266 189.13371277 C-103.29835266 189.13371277 -67.98835266 189.13371277 -31.60835266 189.13371277 C-31.60835266 181.87371277 -31.60835266 174.61371277 -31.60835266 167.13371277 C-70.54835266 167.13371277 -109.48835266 167.13371277 -149.60835266 167.13371277 Z M-228.60835266 179.13371277 C-229.18585266 179.52558777 -229.76335266 179.91746277 -230.35835266 180.32121277 C-232.43034774 183.32560564 -232.71611604 186.57752142 -232.60835266 190.13371277 C-231.39840164 193.69634632 -230.41991635 195.53019605 -227.39935303 197.77642822 C-224.06817711 199.39640422 -221.77366966 199.52029723 -218.0773468 199.5377655 C-216.77572098 199.55044968 -215.47409515 199.56313385 -214.13302612 199.57620239 C-212.7198521 199.57415075 -211.30667917 199.57116257 -209.89350891 199.56730652 C-208.43529009 199.57187088 -206.97707343 199.57717722 -205.51885986 199.58319092 C-202.46665188 199.5921123 -199.41470569 199.58971035 -196.36250305 199.57975769 C-192.46068536 199.56827129 -188.55977315 199.58847819 -184.65807438 199.61767483 C-181.647637 199.63606562 -178.63741545 199.63573869 -175.62693596 199.63003731 C-174.18889026 199.62988443 -172.75082961 199.635901 -171.3128376 199.64832878 C-169.29819369 199.66328777 -167.28340043 199.64990645 -165.26875305 199.63542175 C-163.55263573 199.6351725 -163.55263573 199.6351725 -161.80184937 199.63491821 C-157.33295715 198.93354498 -153.98338189 196.9462513 -151.23335266 193.32121277 C-150.01498509 189.05692627 -150.03414171 185.46346443 -151.79585266 181.38371277 C-154.58167532 177.92545016 -157.20624629 176.30968797 -161.64363098 175.75276184 C-162.77216492 175.75037506 -163.90069885 175.74798828 -165.06343079 175.74552917 C-166.34826355 175.73607269 -167.63309631 175.72661621 -168.9568634 175.71687317 C-170.35111297 175.7222432 -171.74535972 175.72839623 -173.13960266 175.73527527 C-174.57779589 175.73325279 -176.01598812 175.73033989 -177.45417786 175.72657776 C-180.46351416 175.72216257 -183.47258272 175.7285592 -186.48188782 175.74259949 C-190.33211327 175.75969125 -194.1817113 175.7498457 -198.03191376 175.7318821 C-201.00026648 175.72102227 -203.96847135 175.7245006 -206.93682861 175.73226547 C-208.35615107 175.73426142 -209.77548711 175.73182952 -211.1947937 175.72482681 C-213.18095124 175.71717702 -215.16715606 175.73091117 -217.15327454 175.74552917 C-218.28180847 175.74791595 -219.41034241 175.75030273 -220.57307434 175.75276184 C-223.96882624 176.17895499 -225.8310123 177.18226653 -228.60835266 179.13371277 Z M-148.14091682 205.66484356 C-150.29737719 207.82341032 -152.84267462 208.91951265 -155.60835266 210.13371277 C-155.61769836 210.70815125 -155.62704407 211.28258972 -155.63667297 211.87443542 C-155.69070298 214.5033658 -155.7742816 217.13057844 -155.85835266 219.75871277 C-155.87962219 221.11416199 -155.87962219 221.11416199 -155.90132141 222.49699402 C-156.11388774 228.32131141 -156.82017625 231.64902362 -160.60835266 236.13371277 C-166.77700591 241.55465047 -171.65159989 240.44473179 -180.60835266 241.13371277 C-180.60835266 290.63371277 -180.60835266 340.13371277 -180.60835266 391.13371277 C-119.55835266 391.13371277 -58.50835266 391.13371277 4.39164734 391.13371277 C4.72164734 381.56371277 5.05164734 371.99371277 5.39164734 362.13371277 C10.53500696 359.92941579 14.23128223 358.68055863 19.51664734 357.57121277 C24.37849416 356.17838755 27.42882695 355.05056489 30.26664734 350.75871277 C31.78994033 346.87228845 31.49952871 345.40914831 29.95805359 341.47355652 C28.02354658 337.84132542 25.76382831 334.49321031 23.39164734 331.13371277 C21.39164734 328.13371277 21.39164734 328.13371277 21.48881531 324.77165222 C22.52823925 320.58331903 23.81059866 318.95451152 26.83695984 315.92668152 C27.74961609 315.01080261 28.66227234 314.09492371 29.60258484 313.15129089 C30.08179382 312.68666443 30.56100281 312.22203796 31.05473328 311.74333191 C32.51139416 310.32632295 33.93643166 308.88232086 35.36039734 307.43254089 C40.63883926 302.21693757 42.91709452 300.26929929 50.39164734 298.13371277 C50.39164734 269.42371277 50.39164734 240.71371277 50.39164734 211.13371277 C29.68963569 210.96336026 29.68963569 210.96336026 8.98735046 210.83586121 C6.38251485 210.80648336 3.77769501 210.77565613 1.17289734 210.74308777 C0.50544495 210.74278564 -0.16200745 210.74248352 -0.84968567 210.74217224 C-15.72928649 210.72392762 -15.72928649 210.72392762 -21.60835266 206.13371277 C-22.2742038 205.27547409 -22.94005493 204.41723541 -23.62608337 203.5329895 C-28.09630046 199.93663826 -32.13084832 200.42565896 -37.71333313 200.47087097 C-38.8342334 200.46050308 -39.95513367 200.45013519 -41.11000061 200.43945312 C-44.81555289 200.41234821 -48.51992439 200.42205412 -52.22554016 200.43449402 C-54.80237661 200.42858623 -57.37921032 200.42134 -59.95603943 200.41281128 C-65.35804593 200.40092383 -70.75960316 200.40722501 -76.16157532 200.42692566 C-82.39499109 200.44927311 -88.62737033 200.43170969 -94.86068809 200.39387637 C-100.86919157 200.35880815 -106.87717309 200.35746542 -112.88579178 200.3697567 C-115.43665303 200.37124302 -117.98753683 200.3635578 -120.53834152 200.34650612 C-124.10784399 200.32652143 -127.67518016 200.34493763 -131.24458313 200.37321472 C-132.29624664 200.35949829 -133.34791016 200.34578186 -134.43144226 200.33164978 C-140.50986876 200.42777871 -143.86690597 201.21395563 -148.14091682 205.66484356 Z M-215.60835266 211.13371277 C-215.60835266 216.08371277 -215.60835266 221.03371277 -215.60835266 226.13371277 C-213.07032211 229.23172689 -213.07032211 229.23172689 -210.67329407 229.50793457 C-209.94287903 229.50730515 -209.21246399 229.50667572 -208.45991516 229.50602722 C-207.21347229 229.51537041 -207.21347229 229.51537041 -205.94184875 229.52490234 C-205.04804504 229.5156926 -204.15424133 229.50648285 -203.23335266 229.49699402 C-202.31247864 229.49749252 -201.39160461 229.49799103 -200.44282532 229.49850464 C-198.49602602 229.49616434 -196.54922369 229.48643841 -194.60249329 229.46989441 C-191.61979666 229.44630328 -188.63799386 229.44933362 -185.65522766 229.45597839 C-183.76459732 229.45040158 -181.87397076 229.44329168 -179.98335266 229.43449402 C-179.08954895 229.43540543 -178.19574524 229.43631683 -177.27485657 229.43725586 C-176.0284137 229.42295784 -176.0284137 229.42295784 -174.75679016 229.40837097 C-174.02637512 229.40376358 -173.29596008 229.39915619 -172.54341125 229.39440918 C-170.28357643 229.23399176 -170.28357643 229.23399176 -167.60835266 227.13371277 C-167.60835266 221.85371277 -167.60835266 216.57371277 -167.60835266 211.13371277 C-183.44835266 211.13371277 -199.28835266 211.13371277 -215.60835266 211.13371277 Z M61.39164734 211.13371277 C61.30137149 223.3379663 61.22794597 235.54199901 61.18439865 247.74651051 C61.16350087 253.41322012 61.13514301 259.07968999 61.08988953 264.7462616 C61.04651029 270.21218925 61.02252675 275.67788593 61.01213837 281.1439724 C61.00473276 283.23205389 60.9902718 285.32012238 60.96872711 287.40810585 C60.93979864 290.32709453 60.93568693 293.24512199 60.93754578 296.16423035 C60.92316467 297.03241394 60.90878357 297.90059753 60.89396667 298.79508972 C60.875086 303.41366668 60.875086 303.41366668 63.24034119 307.20602417 C66.31792067 308.53314137 68.1786256 307.96909842 71.39164734 307.13371277 C72.86963806 306.86917297 72.86963806 306.86917297 74.37748718 306.59928894 C77.71492746 305.33706419 77.71492746 305.33706419 79.27690125 301.67399597 C79.8093045 300.08730814 80.29408246 298.48423349 80.74320984 296.87199402 C80.99672211 295.96661392 81.25023437 295.06123383 81.51142883 294.12841797 C85.06905765 279.40834328 84.0471803 263.88281242 83.80363464 248.85173035 C83.74130193 244.58718501 83.71465321 240.32241429 83.68461609 236.05754089 C83.62103294 227.74892572 83.51586973 219.44164264 83.39164734 211.13371277 C76.13164734 211.13371277 68.87164734 211.13371277 61.39164734 211.13371277 Z M92.39164734 293.13371277 C90.94910225 299.24641038 90.94910225 299.24641038 89.55107117 305.36930847 C87.98912719 311.63227451 87.98912719 311.63227451 85.08305359 314.07121277 C84.19488953 314.42183777 83.30672546 314.77246277 82.39164734 315.13371277 C81.44547546 315.59132996 80.49930359 316.04894714 79.52445984 316.52043152 C78.53188171 316.94968933 77.53930359 317.37894714 76.51664734 317.82121277 C75.52922546 318.25820496 74.54180359 318.69519714 73.52445984 319.14543152 C69.83988724 320.30777175 67.23815254 320.57149181 63.39164734 320.13371277 C60.97231132 318.83335454 58.90821874 317.5931342 56.70414734 316.00871277 C54.61707858 314.51067736 52.69170669 313.33034496 50.39164734 312.13371277 C46.21811194 312.91472524 43.01607298 317.29489112 40.14164734 320.25871277 C39.58735046 320.82203308 39.03305359 321.38535339 38.46195984 321.96574402 C37.10060249 323.35057304 35.74549875 324.74154481 34.39164734 326.13371277 C35.13894636 327.65587511 35.88965132 329.1763654 36.64164734 330.69621277 C37.09024109 331.61402527 37.53883484 332.53183777 38.00102234 333.47746277 C39.17182946 335.71383593 40.43992172 337.64444056 41.89164734 339.69621277 C43.48222752 343.34129234 43.57763264 343.77937775 42.45414734 347.32121277 C41.77601261 348.92936084 41.08744668 350.53312843 40.39164734 352.13371277 C40.05778015 353.16882996 39.72391296 354.20394714 39.37992859 355.27043152 C36.61521735 363.31234597 36.61521735 363.31234597 33.41899109 365.45793152 C31.20414734 366.19621277 31.20414734 366.19621277 26.39164734 367.13371277 C23.09164734 368.12371277 19.79164734 369.11371277 16.39164734 370.13371277 C16.39164734 377.06371277 16.39164734 383.99371277 16.39164734 391.13371277 C22.17503187 392.57593153 22.17503187 392.57593153 27.96903992 393.97428894 C33.89806147 395.53594792 33.89806147 395.53594792 36.29789734 398.44230652 C36.65883484 399.33047058 37.01977234 400.21863464 37.39164734 401.13371277 C37.84926453 402.07988464 38.30688171 403.02605652 38.77836609 404.00090027 C39.2076239 404.99347839 39.63688171 405.98605652 40.07914734 407.00871277 C40.51613953 407.99613464 40.95313171 408.98355652 41.40336609 410.00090027 C42.56570632 413.68547287 42.82942638 416.28720757 42.39164734 420.13371277 C41.09128911 422.55304879 39.85106877 424.61714137 38.26664734 426.82121277 C36.76861193 428.90828152 35.58827953 430.83365341 34.39164734 433.13371277 C35.17265981 437.30724817 39.55282569 440.50928713 42.51664734 443.38371277 C43.36162781 444.21515808 43.36162781 444.21515808 44.22367859 445.06340027 C45.60850762 446.42475762 46.99947938 447.77986136 48.39164734 449.13371277 C49.95543026 448.36548543 51.51761334 447.59400113 53.07914734 446.82121277 C53.99695984 446.36746277 54.91477234 445.91371277 55.86039734 445.44621277 C58.47727972 444.15073359 58.47727972 444.15073359 61.07914734 442.32121277 C64.52712141 440.55063149 66.51672845 440.64165958 70.39164734 441.13371277 C74.50889729 442.56080737 78.46955926 444.23679006 82.39164734 446.13371277 C83.2798114 446.48433777 84.16797546 446.83496277 85.08305359 447.19621277 C88.75884374 450.28113987 89.18727935 454.26982571 90.20414734 458.82121277 C91.28695984 463.43090027 91.28695984 463.43090027 92.39164734 468.13371277 C99.32164734 468.13371277 106.25164734 468.13371277 113.39164734 468.13371277 C114.83419243 462.02101516 114.83419243 462.02101516 116.23222351 455.89811707 C117.79416748 449.63515102 117.79416748 449.63515102 120.70024109 447.19621277 C121.58840515 446.84558777 122.47656921 446.49496277 123.39164734 446.13371277 C124.81090515 445.44728699 124.81090515 445.44728699 126.25883484 444.74699402 C127.25141296 444.31773621 128.24399109 443.88847839 129.26664734 443.44621277 C130.25406921 443.00922058 131.24149109 442.57222839 132.25883484 442.12199402 C135.94340744 440.95965378 138.54514214 440.69593372 142.39164734 441.13371277 C144.81098336 442.434071 146.87507594 443.67429134 149.07914734 445.25871277 C151.16621609 446.75674818 153.09158798 447.93708058 155.39164734 449.13371277 C159.56518274 448.3527003 162.7672217 443.97253442 165.64164734 441.00871277 C166.47309265 440.1637323 166.47309265 440.1637323 167.32133484 439.30168152 C168.68269219 437.91685249 170.03779593 436.52588073 171.39164734 435.13371277 C171.07711609 434.50465027 170.76258484 433.87558777 170.43852234 433.22746277 C169.54239892 431.43521594 168.66183044 429.63513732 167.79399109 427.82902527 C166.51636914 425.18671535 166.51636914 425.18671535 164.95805359 423.25090027 C163.38944342 421.0714606 162.74398376 419.8250536 162.39164734 417.13371277 C163.57302307 411.54552391 166.03035411 406.30393775 168.39164734 401.13371277 C168.71004578 400.34609558 169.02844421 399.55847839 169.35649109 398.74699402 C170.74499513 396.58302356 171.88014853 396.27535528 174.32914734 395.57121277 C175.12063171 395.33660339 175.91211609 395.10199402 176.72758484 394.86027527 C177.60672546 394.62050964 178.48586609 394.38074402 179.39164734 394.13371277 C180.39453796 393.85269714 181.39742859 393.57168152 182.43070984 393.28215027 C185.07989823 392.54968733 187.73531446 391.83982657 190.39164734 391.13371277 C190.39164734 384.20371277 190.39164734 377.27371277 190.39164734 370.13371277 C184.27894973 368.69116768 184.27894973 368.69116768 178.15605164 367.2931366 C171.89308559 365.73119262 171.89308559 365.73119262 169.45414734 362.82511902 C169.10352234 361.93695496 168.75289734 361.04879089 168.39164734 360.13371277 C167.70522156 358.71445496 167.70522156 358.71445496 167.00492859 357.26652527 C166.36104187 355.77765808 166.36104187 355.77765808 165.70414734 354.25871277 C165.26715515 353.27129089 164.83016296 352.28386902 164.37992859 351.26652527 C163.21758835 347.58195267 162.95386829 344.98021796 163.39164734 341.13371277 C164.69200557 338.71437675 165.93222591 336.65028417 167.51664734 334.44621277 C169.01468275 332.35914401 170.19501515 330.43377212 171.39164734 328.13371277 C170.61063487 323.96017737 166.23046899 320.75813841 163.26664734 317.88371277 C162.42166687 317.05226746 162.42166687 317.05226746 161.55961609 316.20402527 C160.17478706 314.84266792 158.7838153 313.48756418 157.39164734 312.13371277 C155.86948499 312.88101179 154.34899471 313.63171675 152.82914734 314.38371277 C151.91133484 314.83230652 150.99352234 315.28090027 150.04789734 315.74308777 C147.81152418 316.91389489 145.88091954 318.18198715 143.82914734 319.63371277 C140.18406777 321.22429295 139.74598235 321.31969807 136.20414734 320.19621277 C134.59599926 319.51807804 132.99223168 318.82951211 131.39164734 318.13371277 C130.35653015 317.79984558 129.32141296 317.46597839 128.25492859 317.12199402 C120.23249545 314.36398021 120.23249545 314.36398021 118.06742859 311.19621277 C117.2742791 308.84614021 116.81688188 306.57694632 116.39164734 304.13371277 C115.84303326 302.10906559 115.28041861 300.08816221 114.70414734 298.07121277 C114.27102234 296.44183777 113.83789734 294.81246277 113.39164734 293.13371277 C106.46164734 293.13371277 99.53164734 293.13371277 92.39164734 293.13371277 Z " fill="#000000" transform="translate(310.6083526611328,32.86628723144531)"/>
<path d="M0 0 C1.00106576 -0.00482883 2.00213153 -0.00965766 3.03353262 -0.01463282 C6.39782162 -0.02593094 9.76135513 -0.00856351 13.12561035 0.00863647 C15.5334748 0.00649129 17.94133823 0.00261462 20.34919739 -0.00286865 C26.21621138 -0.01156994 32.08302064 -0.00166892 37.94999564 0.01683195 C44.78065775 0.03759762 51.61127109 0.03745963 58.44195884 0.03648679 C70.6287119 0.03548542 82.81536001 0.05381183 95.0020752 0.08285522 C106.83054517 0.11103031 118.65892277 0.12519677 130.48742676 0.12387085 C131.58017887 0.12375098 131.58017887 0.12375098 132.69500679 0.12362869 C133.42224199 0.12354798 134.14947719 0.12346727 134.89874983 0.12338412 C148.36027245 0.12200461 161.82175579 0.13378357 175.28326568 0.15169055 C180.04587529 0.15772499 184.80847769 0.15984988 189.5710907 0.16075516 C195.97981025 0.16226146 202.38845172 0.17494449 208.79714012 0.19508743 C211.15301606 0.20094057 213.50890322 0.20338753 215.86478615 0.20223236 C219.07312913 0.20125432 222.28119719 0.21252907 225.48950195 0.22705078 C226.42840444 0.22395358 227.36730693 0.22085637 228.33466101 0.21766531 C229.62305498 0.22733865 229.62305498 0.22733865 230.93747711 0.23720741 C231.67804179 0.23861626 232.41860646 0.24002511 233.18161249 0.24147666 C235.61318226 0.53965651 237.19248235 1.15992223 239.24475098 2.49447632 C240.27998417 5.66919146 240.64203821 7.54548242 239.33829021 10.65972519 C235.91771027 13.6574779 232.20654503 13.03109425 227.81062317 12.97549438 C226.83209088 12.97891208 225.85355859 12.98232978 224.84537381 12.98585105 C221.55152936 12.99246355 218.25849162 12.97039781 214.96472168 12.94857788 C212.60962951 12.94745013 210.25453593 12.94808184 207.89944458 12.9503479 C201.49267942 12.95149881 195.08621187 12.9279283 188.67951608 12.90005207 C182.66645667 12.87572586 176.65336177 12.87356274 170.64026179 12.86944458 C158.72899028 12.86068696 146.81782826 12.83405877 134.90661621 12.79623413 C123.33500721 12.75952609 111.76342792 12.73120845 100.19177246 12.71420288 C99.47866869 12.71315199 98.76556492 12.71210109 98.03085194 12.71101835 C94.453471 12.70579826 90.87608985 12.70074341 87.29870856 12.69577074 C57.61398343 12.65429417 27.9293724 12.58353603 -1.75524902 12.49447632 C-1.66787616 15.53746222 -1.56094277 18.57765997 -1.44274902 21.61947632 C-1.42019043 22.47541382 -1.39763184 23.33135132 -1.37438965 24.21322632 C-1.11069319 30.44605162 0.08963643 34.72361476 3.99475098 39.74447632 C10.02870347 44.43755048 17.62188574 43.77938712 24.89277649 43.75276184 C26.06115875 43.75643755 27.22954102 43.76011325 28.43332881 43.76390034 C31.66314713 43.77213512 34.89282295 43.77151719 38.12264431 43.76717341 C41.61067592 43.76469115 45.09867932 43.7737729 48.58670044 43.78155518 C54.62599489 43.79358404 60.66526299 43.79870723 66.70456886 43.79943657 C75.43851944 43.80076309 84.17240604 43.81588136 92.90633401 43.83493174 C107.08024829 43.86575212 121.2541642 43.88992987 135.42810059 43.9078064 C136.27594266 43.90887908 137.12378474 43.90995176 137.99731901 43.91105694 C147.46496742 43.92288716 156.93261648 43.93309242 166.40026855 43.9414978 C169.83793133 43.94457201 173.2755941 43.94766074 176.71325684 43.95077515 C177.5615807 43.95154049 178.40990457 43.95230582 179.28393523 43.95309436 C193.41160851 43.96616003 207.53923527 43.99077366 221.66687411 44.02451855 C230.38347229 44.0448395 239.09997108 44.05509371 247.81659313 44.05252934 C253.78200789 44.05149699 259.74734384 44.06108714 265.7127311 44.07916837 C269.15806074 44.08924611 272.60321612 44.09430658 276.04855537 44.08640099 C279.77643255 44.08031538 283.5038102 44.09238991 287.23164368 44.10920715 C288.32996342 44.10299534 289.42828316 44.09678352 290.55988532 44.09038347 C291.55231827 44.09860661 292.54475121 44.10682976 293.56725788 44.11530209 C294.42846628 44.11611654 295.28967469 44.116931 296.17698032 44.11777014 C296.85934463 44.24208318 297.54170895 44.36639622 298.24475098 44.49447632 C300.24475098 47.49447632 300.24475098 47.49447632 299.93225098 51.11947632 C299.24475098 54.49447632 299.24475098 54.49447632 298.24475098 55.49447632 C296.69370331 55.59500275 295.13807614 55.62554661 293.58377743 55.6286974 C292.56956846 55.63315524 291.5553595 55.63761308 290.51041692 55.64220601 C289.38262982 55.64202165 288.25484272 55.64183729 287.09288025 55.64164734 C285.90527306 55.64532403 284.71766587 55.64900072 283.49407059 55.65278882 C280.1825014 55.66193767 276.87098187 55.66653018 273.55940473 55.66917813 C269.9934476 55.67307298 266.42750494 55.68265208 262.86155701 55.69139099 C254.24043147 55.71118215 245.61930471 55.7212265 236.99816212 55.73011878 C232.94018594 55.73449871 228.88221106 55.73986641 224.82423592 55.74510765 C211.33646001 55.76212515 197.84868493 55.77661858 184.36089993 55.78385639 C180.85823503 55.78576636 177.35557014 55.78768668 173.85290527 55.78964233 C172.54701198 55.79036794 172.54701198 55.79036794 171.21473701 55.79110821 C157.11667023 55.79940562 143.0186884 55.82473528 128.9206587 55.85722301 C114.45190792 55.89029347 99.98320028 55.90830528 85.51441151 55.91150063 C77.38863271 55.91366611 69.26297763 55.92241985 61.13723564 55.94796181 C54.21533916 55.96966894 47.29359642 55.97771934 40.37166976 55.96799503 C36.84051188 55.96344984 33.30967121 55.96534859 29.77855682 55.98475647 C25.94740867 56.00563114 22.11669751 55.99540387 18.2855072 55.98222351 C17.17333515 55.99319276 16.0611631 56.004162 14.91528887 56.01546365 C5.49103374 55.93713783 -1.02373112 53.22599422 -7.75524902 46.49447632 C-13.92163224 37.3448969 -13.98579029 29.24506517 -14.06774902 18.43197632 C-14.09675293 17.15258179 -14.12575684 15.87318726 -14.15563965 14.55502319 C-14.16401855 13.32719116 -14.17239746 12.09935913 -14.18103027 10.83432007 C-14.19561279 9.71404419 -14.21019531 8.59376831 -14.22521973 7.43954468 C-13.75524902 4.49447632 -13.75524902 4.49447632 -12.33557892 2.34131432 C-8.39565735 -0.47863396 -4.73300073 -0.05185733 0 0 Z " fill="#000000" transform="translate(78.7552490234375,456.5055236816406)"/>
<path d="M0 0 C2.04169709 -0.00438028 4.08124296 -0.04072914 6.12255859 -0.07861328 C7.40775391 -0.08248047 8.69294922 -0.08634766 10.01708984 -0.09033203 C11.19722656 -0.0985498 12.37736328 -0.10676758 13.59326172 -0.11523438 C16.54833984 0.37060547 16.54833984 0.37060547 18.3972168 2.18359375 C20.00566221 5.23946947 20.57811071 8.23799851 21.23583984 11.62060547 C21.48720703 12.88388672 21.73857422 14.14716797 21.99755859 15.44873047 C22.17931641 16.41294922 22.36107422 17.37716797 22.54833984 18.37060547 C26.6992842 19.44677623 29.1525675 20.07608916 33.06005859 18.10107422 C34.72083818 17.01508205 36.35612099 15.88871541 37.95849609 14.71826172 C41.6544145 12.79504626 43.41031651 12.57976423 47.54833984 13.37060547 C51.07651664 15.83791293 53.99079964 18.79109596 56.98583984 21.87060547 C58.22624023 23.05783203 58.22624023 23.05783203 59.49169922 24.26904297 C66.07568809 30.90196322 66.07568809 30.90196322 66.27490234 35.67529297 C65.55046179 39.35981323 64.83606995 41.13678342 62.48583984 43.99560547 C59.87111121 47.46688241 59.87111121 47.46688241 59.61083984 51.80810547 C60.47300654 54.31383873 60.47300654 54.31383873 61.54833984 56.37060547 C64.71283567 57.29342775 67.87568615 58.05762511 71.08935547 58.78271484 C76.34034143 60.05860785 76.34034143 60.05860785 78.54833984 63.37060547 C78.80712891 66.23388672 78.80712891 66.23388672 78.81396484 69.68310547 C78.81654297 70.92318359 78.81912109 72.16326172 78.82177734 73.44091797 C78.81404297 74.73771484 78.80630859 76.03451172 78.79833984 77.37060547 C78.80607422 78.66740234 78.81380859 79.96419922 78.82177734 81.30029297 C78.81919922 82.54037109 78.81662109 83.78044922 78.81396484 85.05810547 C78.81170898 86.19634766 78.80945313 87.33458984 78.80712891 88.50732422 C78.54833984 91.37060547 78.54833984 91.37060547 76.54833984 94.37060547 C73.36183312 95.29878518 70.21157607 96.01730677 66.95849609 96.65576172 C62.76451411 97.61079963 62.76451411 97.61079963 60.01708984 100.75341797 C59.04912574 106.1578842 61.68076063 109.42657822 64.48974609 113.85888672 C66.0257712 117.50340386 66.25687757 119.42654862 65.54833984 123.37060547 C63.1023844 126.69763701 60.18693429 129.43550133 57.17333984 132.24560547 C56.37927734 133.01646484 55.58521484 133.78732422 54.76708984 134.58154297 C47.97427449 141.12106691 47.97427449 141.12106691 44.04833984 141.80810547 C40.25509792 141.33395023 38.70489677 140.36176901 35.54833984 138.30810547 C31.65216352 135.76629474 31.65216352 135.76629474 27.04833984 135.43310547 C24.59741084 136.30245131 24.59741084 136.30245131 22.54833984 137.37060547 C21.62551757 140.53510129 20.8613202 143.69795177 20.13623047 146.91162109 C18.86033746 152.16260706 18.86033746 152.16260706 15.54833984 154.37060547 C12.68505859 154.62939453 12.68505859 154.62939453 9.23583984 154.63623047 C7.99576172 154.63880859 6.75568359 154.64138672 5.47802734 154.64404297 C4.18123047 154.63630859 2.88443359 154.62857422 1.54833984 154.62060547 C0.25154297 154.62833984 -1.04525391 154.63607422 -2.38134766 154.64404297 C-3.62142578 154.64146484 -4.86150391 154.63888672 -6.13916016 154.63623047 C-7.27740234 154.63397461 -8.41564453 154.63171875 -9.58837891 154.62939453 C-12.45166016 154.37060547 -12.45166016 154.37060547 -15.45166016 152.37060547 C-16.41238935 149.18522197 -17.14677496 146.03361962 -17.82470703 142.78076172 C-18.69824435 138.7853495 -18.69824435 138.7853495 -21.40869141 135.89794922 C-24.50033102 135.09991605 -26.36837152 135.48119529 -29.45166016 136.37060547 C-30.80467614 137.19323918 -32.13722862 138.05012856 -33.45166016 138.93310547 C-35.9301174 140.53377577 -37.54830633 141.39476701 -40.45166016 142.12060547 C-45.24740538 140.92166916 -48.00495396 137.79316662 -51.45166016 134.37060547 C-52.34240234 133.50564453 -53.23314453 132.64068359 -54.15087891 131.74951172 C-62.24886855 123.79014672 -62.24886855 123.79014672 -62.88916016 119.30810547 C-62.42853088 115.16244196 -61.8042931 114.1878298 -59.38916016 110.99560547 C-56.84517752 107.5341209 -56.05752325 105.6027835 -56.57666016 101.30810547 C-56.83383104 99.98841277 -57.11327656 98.6718442 -57.45166016 97.37060547 C-58.58603516 97.26748047 -59.72041016 97.16435547 -60.88916016 97.05810547 C-65.57688499 96.47213986 -70.14381526 95.34071397 -74.45166016 93.37060547 C-76.73545198 88.80302182 -75.72688621 82.51019423 -75.76416016 77.49560547 C-75.80766602 75.55621094 -75.80766602 75.55621094 -75.85205078 73.57763672 C-75.86042969 72.33626953 -75.86880859 71.09490234 -75.87744141 69.81591797 C-75.89202393 68.67654785 -75.90660645 67.53717773 -75.92163086 66.36328125 C-75.34747201 62.70715702 -74.36554198 61.58355687 -71.45166016 59.37060547 C-67.99853516 58.32373047 -67.99853516 58.32373047 -64.20166016 57.62060547 C-62.93837891 57.37826172 -61.67509766 57.13591797 -60.37353516 56.88623047 C-59.40931641 56.71607422 -58.44509766 56.54591797 -57.45166016 56.37060547 C-56.3754894 52.21966111 -55.74617647 49.76637781 -57.72119141 45.85888672 C-58.80718357 44.19810713 -59.93355021 42.56282432 -61.10400391 40.96044922 C-63.03153213 37.25624281 -63.2620187 35.51672566 -62.45166016 31.37060547 C-59.88718783 27.87331926 -56.84519846 24.97039555 -53.70166016 21.99560547 C-52.87666016 21.17705078 -52.05166016 20.35849609 -51.20166016 19.51513672 C-44.23532424 12.73981323 -44.23532424 12.73981323 -40.45166016 12.37060547 C-37.27568599 13.50916225 -34.50122794 14.67709949 -31.68994141 16.53466797 C-28.40816976 18.70284968 -26.83471769 19.41618764 -22.87353516 18.94482422 C-19.13727203 17.69007025 -19.13727203 17.69007025 -17.99853516 13.96435547 C-17.70200739 12.60615239 -17.43726371 11.24069134 -17.20166016 9.87060547 C-16.70651265 7.32345243 -16.13132148 4.88189645 -15.45166016 2.37060547 C-10.70333831 -0.79494243 -5.58745688 -0.0013467 0 0 Z M-5.45166016 12.37060547 C-6.07041016 15.68091797 -6.07041016 15.68091797 -6.70166016 19.05810547 C-7.68096899 23.08676192 -8.70471794 25.81338007 -12.14306641 28.37841797 C-15.22551217 29.66694974 -18.20620469 30.58929211 -21.45166016 31.37060547 C-23.21509766 31.95841797 -23.21509766 31.95841797 -25.01416016 32.55810547 C-30.56490253 32.2553377 -34.80986489 29.26648136 -39.45166016 26.37060547 C-40.98713491 27.77138945 -42.50471163 29.1918145 -44.01416016 30.62060547 C-44.86107422 31.40951172 -45.70798828 32.19841797 -46.58056641 33.01123047 C-48.69079598 35.14241426 -48.69079598 35.14241426 -48.35791016 37.46044922 C-47.35914045 39.65905563 -47.35914045 39.65905563 -45.38916016 42.68310547 C-42.64180109 47.47078267 -42.95269855 50.93735766 -44.05322266 56.30419922 C-46.41394454 64.14448287 -46.41394454 64.14448287 -50.16064453 66.39892578 C-54.44858759 68.26556766 -58.89131975 69.38396578 -63.45166016 70.37060547 C-63.45166016 74.99060547 -63.45166016 79.61060547 -63.45166016 84.37060547 C-61.26541016 84.76248047 -59.07916016 85.15435547 -56.82666016 85.55810547 C-52.61187495 86.568685 -49.92757279 87.75848336 -47.18603516 91.28466797 C-44.4434205 97.07611155 -42.88521471 101.90557481 -43.45166016 108.37060547 C-44.58056641 110.66357422 -44.58056641 110.66357422 -46.01416016 112.55810547 C-48.06268096 115.18367269 -48.06268096 115.18367269 -48.31103516 118.37060547 C-47.26787501 120.79832362 -45.99016892 122.30038777 -44.13916016 124.18310547 C-43.54490234 124.80830078 -42.95064453 125.43349609 -42.33837891 126.07763672 C-40.55231262 127.5941965 -40.55231262 127.5941965 -38.42822266 127.19873047 C-35.93645791 126.15474998 -33.75501707 124.72712676 -31.52587891 123.21044922 C-26.20318681 121.05531024 -20.89774143 122.46647394 -15.76416016 124.49560547 C-11.50954511 126.51043466 -9.82028206 127.62001787 -7.72509766 131.88623047 C-6.57145193 135.35791288 -6.109353 138.70137173 -5.45166016 142.37060547 C-0.83166016 142.37060547 3.78833984 142.37060547 8.54833984 142.37060547 C8.94021484 140.18435547 9.33208984 137.99810547 9.73583984 135.74560547 C10.74641938 131.53082026 11.93621774 128.8465181 15.46240234 126.10498047 C21.25384592 123.36236581 26.08330918 121.80416003 32.54833984 122.37060547 C34.84130859 123.49951172 34.84130859 123.49951172 36.73583984 124.93310547 C39.36129466 126.98276231 39.36129466 126.98276231 42.54833984 127.22607422 C46.3733346 125.58999248 49.08679632 122.66907379 51.54833984 119.37060547 C51.81343243 115.74767352 50.60006905 114.44271284 48.48583984 111.49560547 C46.11809754 107.67666626 46.24546585 105.81120414 46.54833984 101.37060547 C47.74021727 96.44985439 49.43105647 92.38007684 52.54833984 88.37060547 C57.43968452 85.96841175 61.01171091 85.36302009 66.54833984 84.37060547 C66.54833984 79.75060547 66.54833984 75.13060547 66.54833984 70.37060547 C64.36208984 69.99935547 62.17583984 69.62810547 59.92333984 69.24560547 C55.54836667 68.22176117 52.97850327 66.97283427 50.28271484 63.19873047 C47.72543188 57.80547701 45.88183767 52.38538121 46.54833984 46.37060547 C47.86083984 43.59716797 47.86083984 43.59716797 49.54833984 40.99560547 C50.10521484 40.12162109 50.66208984 39.24763672 51.23583984 38.34716797 C51.66896484 37.69490234 52.10208984 37.04263672 52.54833984 36.37060547 C51.63711257 35.26194562 50.71907325 34.15888328 49.79833984 33.05810547 C49.28787109 32.44322266 48.77740234 31.82833984 48.25146484 31.19482422 C46.4929545 29.31128218 44.64914348 27.85486891 42.54833984 26.37060547 C41.89607422 26.80373047 41.24380859 27.23685547 40.57177734 27.68310547 C39.69779297 28.23998047 38.82380859 28.79685547 37.92333984 29.37060547 C37.06482422 29.92748047 36.20630859 30.48435547 35.32177734 31.05810547 C30.95197235 33.12606952 27.92481342 32.84997438 23.40771484 31.27685547 C22.38162109 30.81279297 21.35552734 30.34873047 20.29833984 29.87060547 C16.55641541 28.02250736 16.55641541 28.02250736 12.54833984 27.37060547 C12.34337891 26.45537109 12.13841797 25.54013672 11.92724609 24.59716797 C11.65783203 23.40865234 11.38841797 22.22013672 11.11083984 20.99560547 C10.84400391 19.81224609 10.57716797 18.62888672 10.30224609 17.40966797 C9.6919929 14.47565966 9.6919929 14.47565966 8.54833984 12.37060547 C3.92833984 12.37060547 -0.69166016 12.37060547 -5.45166016 12.37060547 Z " fill="#000000" transform="translate(243.45166015625,251.62939453125)"/>
<path d="M0 0 C12.22566002 9.20558284 20.64145237 21.71394131 23 37 C23.92951336 54.3211239 21.3564 68.67502332 9.75 82.25 C-0.88511007 93.49181098 -13.68252877 99.83812045 -29.13598633 100.28564453 C-45.64342603 100.48364021 -59.49160385 95.28419832 -71.5234375 83.703125 C-83.32423505 70.82275922 -86.73227924 56.03535471 -86.13183594 39.05615234 C-85.23346036 25.04482067 -77.23617121 12.16755993 -67 3 C-60.23815368 -1.956499 -53.20544877 -6.06082168 -45 -8 C-43.89011719 -8.27263672 -43.89011719 -8.27263672 -42.7578125 -8.55078125 C-27.49927388 -11.03623726 -13.12826539 -8.13437621 0 0 Z M-63.87890625 17.015625 C-72.41051308 27.87792141 -75.08688497 39.27459368 -74 53 C-71.85762563 64.29492311 -65.7621855 73.40201319 -56.75 80.4375 C-45.65750582 87.85789103 -33.89765907 89.91259112 -20.765625 87.375 C-8.47092289 83.80762529 0.68980696 76.04654969 7 65 C12.08521701 54.51264028 12.74392692 42.92996241 9.5 31.75 C4.87512922 19.76078795 -3.32451821 11.20665532 -14.84375 5.62109375 C-32.37171049 -1.14036413 -51.12704626 3.33587499 -63.87890625 17.015625 Z " fill="#000000" transform="translate(445,368)"/>
<path d="M0 0 C8.51850832 7.46155899 12.82294758 14.78752766 14.37109375 26.04296875 C14.75285544 34.47643148 12.12238461 42.69989447 6.7421875 49.1640625 C-0.27279325 56.67421836 -7.85153755 61.33697 -18.31640625 61.96875 C-28.39431596 61.86282602 -36.4642898 58.90404514 -43.95703125 52.0859375 C-51.39422454 44.15820593 -54.0336613 35.74419788 -53.91796875 24.94140625 C-53.08961359 15.66678691 -48.54194061 7.74482798 -41.80078125 1.44140625 C-29.8314269 -8.09434493 -12.58553717 -8.87895326 0 0 Z M-36.35546875 13.12890625 C-40.24319891 18.3088649 -42.27514674 23.935823 -41.98046875 30.44140625 C-40.96943717 36.59364096 -37.69246926 41.49331756 -33.05859375 45.58203125 C-27.6252959 49.36360655 -22.13027693 50.68475475 -15.59375 49.53125 C-9.10136552 47.69045508 -4.06827945 44.52938866 -0.5625 38.6796875 C2.2079179 32.6566288 2.88799599 27.35678099 1.08203125 20.94140625 C-1.82073113 14.36411531 -6.25325189 9.57883293 -12.85546875 6.62890625 C-21.47171366 4.69464719 -30.17505065 6.51801127 -36.35546875 13.12890625 Z " fill="#000000" transform="translate(264.91796875,301.05859375)"/>
<path d="M0 0 C5.40293576 4.85541072 8.59126826 9.41960938 9.24609375 16.7578125 C9.520415 23.39139906 9.12613014 28.64064102 5 34 C0.13167276 39.23086225 -4.28890476 42.61337516 -11.5703125 43.2109375 C-19.99221665 43.50926108 -26.16418692 41.52137033 -32.421875 35.78515625 C-37.32189276 30.24231437 -38.69981168 23.97078626 -38.375 16.703125 C-37.31829994 9.0860787 -33.97568247 4.11478408 -27.99609375 -0.625 C-19.74409436 -6.30935183 -8.16065973 -5.50191372 0 0 Z M-24 12 C-26.59036348 15.41457004 -26.43108741 18.83282171 -26 23 C-24.3718054 26.08193978 -22.96990938 28.26420667 -20.1875 30.375 C-15.42619727 31.73537221 -12.07662283 31.56878187 -7.6875 29.25 C-3.88379401 26.06550196 -3.16984457 24.52860114 -2.625 19.625 C-3.07168615 15.30703393 -4.2315711 13.30673452 -7 10 C-12.70217357 5.67421316 -18.9699607 7.78880431 -24 12 Z " fill="#000000" transform="translate(428,394)"/>
<path d="M0 0 C1.12109375 1.69921875 1.12109375 1.69921875 1.05859375 5.26171875 C0.12109375 8.69921875 0.12109375 8.69921875 -1.5234375 9.859375 C-4.51318971 10.92537289 -7.34890615 11.23143603 -10.50390625 11.57421875 C-23.19059086 13.29645262 -33.39744321 18.49494026 -41.47265625 28.65625 C-46.99930573 36.68524355 -49.64192182 44.41199847 -50.76635742 53.99951172 C-51.19312482 57.25469603 -51.47489573 59.27183572 -53.76953125 61.69921875 C-56.84474905 63.15709978 -58.69177701 62.73850003 -61.87890625 61.69921875 C-65.39140454 56.71932808 -63.74653306 50.35765446 -62.87890625 44.69921875 C-59.76406533 32.054815 -53.94294839 22.9208964 -44.87890625 13.69921875 C-44.31300781 13.12042969 -43.74710938 12.54164062 -43.1640625 11.9453125 C-34.59638148 3.92227624 -11.37524041 -7.87516644 0 0 Z " fill="#000000" transform="translate(123.87890625,62.30078125)"/>
<path d="M0 0 C0 4.62 0 9.24 0 14 C-3.08058153 15.65116773 -6.16422811 17.29608433 -9.25 18.9375 C-10.12269531 19.40607422 -10.99539063 19.87464844 -11.89453125 20.35742188 C-12.73886719 20.80537109 -13.58320313 21.25332031 -14.453125 21.71484375 C-15.61569824 22.33540649 -15.61569824 22.33540649 -16.80175781 22.96850586 C-18.8706075 23.9392844 -20.7690269 24.53558429 -23 25 C-23 25.66 -23 26.32 -23 27 C-22.19304687 27.23460937 -21.38609375 27.46921875 -20.5546875 27.7109375 C-16.1727263 29.30000035 -12.21537571 31.40649114 -8.125 33.625 C-7.34125 34.04523438 -6.5575 34.46546875 -5.75 34.8984375 C-3.83107943 35.9281022 -1.91522397 36.96347567 0 38 C0 42.62 0 47.24 0 52 C-14 45 -28 38 -42 31 C-42 28.03 -42 25.06 -42 22 C-33.18505814 16.77524969 -24.21827252 12.01401128 -15.01855469 7.50244141 C-11.27311381 5.66104485 -7.57675606 3.79650733 -3.96484375 1.703125 C-1 0 -1 0 0 0 Z " fill="#000000" transform="translate(372,134)"/>
<path d="M0 0 C12.22204421 5.66621086 24.23365826 11.62514058 36.10327148 17.99780273 C38.05344072 19.02823712 40.02719386 20.01359693 42 21 C42 24.3 42 27.6 42 31 C36.1805967 33.99329089 30.35985789 36.98396218 24.5378418 39.97216797 C22.55569725 40.98999521 20.57392562 42.00854899 18.5925293 43.02783203 C15.75145643 44.48919868 12.90907132 45.94798347 10.06640625 47.40625 C8.72891075 48.09527405 8.72891075 48.09527405 7.36439514 48.79821777 C6.54361984 49.21865356 5.72284454 49.63908936 4.87719727 50.07226562 C4.15105728 50.44532837 3.4249173 50.81839111 2.67677307 51.20275879 C1 52 1 52 0 52 C0 47.38 0 42.76 0 38 C3.62262199 36.16183267 7.24789568 34.3292831 10.875 32.5 C11.90753906 31.97535156 12.94007813 31.45070312 14.00390625 30.91015625 C14.99003906 30.41386719 15.97617187 29.91757813 16.9921875 29.40625 C17.90339355 28.94541016 18.81459961 28.48457031 19.75341797 28.00976562 C22 27 22 27 24 27 C24 26.34 24 25.68 24 25 C23.20335937 24.76539063 22.40671875 24.53078125 21.5859375 24.2890625 C17.06856229 22.66516945 12.89569499 20.55462105 8.625 18.375 C7.79355469 17.95476562 6.96210938 17.53453125 6.10546875 17.1015625 C4.06846481 16.07135361 2.0339751 15.03617599 0 14 C0 9.38 0 4.76 0 0 Z " fill="#000000" transform="translate(419,134)"/>
<path d="M0 0 C1.79244141 0.01740234 1.79244141 0.01740234 3.62109375 0.03515625 C5.41740234 0.04869141 5.41740234 0.04869141 7.25 0.0625 C8.17683594 0.07410156 9.10367188 0.08570312 10.05859375 0.09765625 C8.01232071 6.40577071 5.77727983 12.61975737 3.40625 18.8125 C3.06484482 19.70828262 2.72343964 20.60406525 2.37168884 21.5269928 C1.6540337 23.40887706 0.93547977 25.29041879 0.21606445 27.17163086 C-0.87431049 30.0231376 -1.96180663 32.87572905 -3.04882812 35.72851562 C-3.75113298 37.56907495 -4.45360156 39.40957181 -5.15625 41.25 C-5.47617416 42.08885239 -5.79609833 42.92770477 -6.12571716 43.79197693 C-7.76881617 48.08608701 -9.43021887 52.37288695 -11.11547852 56.65063477 C-11.60371849 57.89213036 -11.60371849 57.89213036 -12.1018219 59.15870667 C-12.94140625 61.09765625 -12.94140625 61.09765625 -13.94140625 62.09765625 C-15.96104824 62.17009678 -17.98307749 62.18142813 -20.00390625 62.16015625 C-21.10863281 62.15113281 -22.21335937 62.14210937 -23.3515625 62.1328125 C-24.63353516 62.11541016 -24.63353516 62.11541016 -25.94140625 62.09765625 C-25.35563338 57.95179081 -24.41193498 54.2907557 -22.91601562 50.38354492 C-22.49888306 49.28608444 -22.08175049 48.18862396 -21.65197754 47.0579071 C-21.20092651 45.88895401 -20.74987549 44.72000092 -20.28515625 43.515625 C-19.82282593 42.30570389 -19.36049561 41.09578278 -18.88415527 39.84919739 C-17.90915769 37.29858764 -16.93042319 34.74945621 -15.94873047 32.20141602 C-14.68868422 28.93054893 -13.43604787 25.65690653 -12.18590546 22.38224316 C-10.99287271 19.25886503 -9.79522118 16.13726838 -8.59765625 13.015625 C-8.14660522 11.83655075 -7.6955542 10.6574765 -7.23083496 9.44267273 C-6.81370239 8.36097305 -6.39656982 7.27927338 -5.96679688 6.16479492 C-5.59897095 5.20804367 -5.23114502 4.25129242 -4.85217285 3.26554871 C-3.52949279 0.11718104 -3.52949279 0.11718104 0 0 Z " fill="#000000" transform="translate(405.94140625,124.90234375)"/>
<path d="M0 0 C4.33381571 1.97069179 7.58171316 5.87710508 9.984375 9.90234375 C10.30859375 13.08203125 10.30859375 13.08203125 9.984375 15.90234375 C8.359375 17.83984375 8.359375 17.83984375 5.984375 18.90234375 C2.48865503 19.14068829 0.61252792 18.37062381 -2.1796875 16.2890625 C-5.80893359 12.98683328 -7.81623006 11.00807933 -8.703125 6.08984375 C-8.015625 2.90234375 -8.015625 2.90234375 -6.953125 0.90234375 C-4.55092848 -0.33749962 -2.6548439 -0.50487416 0 0 Z " fill="#000000" transform="translate(34.015625,38.09765625)"/>
<path d="M0 0 C1.051875 0.01160156 1.051875 0.01160156 2.125 0.0234375 C2.82625 0.01570312 3.5275 0.00796875 4.25 0 C6.125 0.3984375 6.125 0.3984375 8.125 3.3984375 C8.42578125 6.61328125 8.42578125 6.61328125 8.4375 10.3359375 C8.45425781 11.56183594 8.47101563 12.78773437 8.48828125 14.05078125 C8.10683312 17.56584632 7.66388106 18.98441945 5.125 21.3984375 C2.07086585 21.84383206 0.11154358 22.02455766 -2.54296875 20.33984375 C-4.57576324 17.37709049 -4.26988418 14.35857315 -4.1875 10.8984375 C-4.19072266 10.22167969 -4.19394531 9.54492188 -4.19726562 8.84765625 C-4.11076137 0.87353679 -4.11076137 0.87353679 0 0 Z " fill="#000000" transform="translate(116.875,-0.3984375)"/>
<path d="M0 0 C1.670625 0.37125 1.670625 0.37125 3.375 0.75 C4.88389469 3.76778937 4.87526276 5.37322637 4.375 8.75 C1.65051764 12.98633385 -1.31719563 16.0832762 -5.8125 18.375 C-8.625 18.75 -8.625 18.75 -10.9375 18.3125 C-12.625 16.75 -12.625 16.75 -13.8125 13.625 C-13.54218886 8.03856977 -10.63856658 5.41786021 -6.625 1.75 C-3.625 -0.25 -3.625 -0.25 0 0 Z " fill="#000000" transform="translate(207.625,38.25)"/>
<path d="M0 0 C0.67675781 -0.02449219 1.35351562 -0.04898438 2.05078125 -0.07421875 C5.30210445 -0.09345735 7.04266217 -0.0479923 9.4765625 2.203125 C10.9308339 5.28928874 10.47815831 7.16105126 9.5 10.375 C5.83236683 12.82008878 3.86568225 12.67385724 -0.5 12.6875 C-2.35625 12.71263672 -2.35625 12.71263672 -4.25 12.73828125 C-7.5 12.375 -7.5 12.375 -9.4140625 11.078125 C-11.24462925 8.20716419 -10.85850876 5.66133031 -10.5 2.375 C-6.89405244 -0.02896504 -4.17159744 0.0079459 0 0 Z " fill="#000000" transform="translate(10.5,101.625)"/>
<path d="M0 0 C1.10021484 -0.04350586 1.10021484 -0.04350586 2.22265625 -0.08789062 C7.61965748 -0.15178955 7.61965748 -0.15178955 10.14453125 2.16796875 C11.43195491 4.98388744 11.11544559 6.41735136 10.125 9.3125 C7.19706819 12.24043181 4.10663289 11.71897784 0.1875 11.75 C-0.54146484 11.78287109 -1.27042969 11.81574219 -2.02148438 11.84960938 C-4.15234375 11.87109375 -4.15234375 11.87109375 -7.875 11.3125 C-9.92578125 8.95703125 -9.92578125 8.95703125 -10.875 6.3125 C-9.04367935 -0.40234237 -6.34144033 0.08271444 0 0 Z " fill="#000000" transform="translate(227.875,101.6875)"/>
<path d="M0 0 C3.4375 0.8125 3.4375 0.8125 5.4375 3.8125 C5.76252803 6.93276907 5.94901479 8.95997535 4.3125 11.6875 C1.51303259 13.36718045 -0.36054064 13.26992277 -3.5625 12.8125 C-6 11.25 -6 11.25 -7.5625 8.8125 C-7.5 5.1875 -7.5 5.1875 -6.5625 1.8125 C-3.5625 -0.1875 -3.5625 -0.1875 0 0 Z " fill="#000000" transform="translate(431.5625,53.1875)"/>
<path d="M0 0 C3.375 0.9375 3.375 0.9375 5.375 2.9375 C5.92521834 8.98990175 5.92521834 8.98990175 4.25 11.875 C1.51515561 13.42474515 -0.5374407 13.25912076 -3.625 12.9375 C-6.625 10.9375 -6.625 10.9375 -7.5625 8.125 C-7.625 4.9375 -7.625 4.9375 -6.125 2 C-3.625 -0.0625 -3.625 -0.0625 0 0 Z " fill="#000000" transform="translate(482.625,53.0625)"/>
<path d="M0 0 C2.375 2.125 2.375 2.125 4 5 C3.9375 8.1875 3.9375 8.1875 3 11 C-0.46923881 13.31282587 -1.92205575 13.42478586 -6 13 C-7.875 11.9375 -7.875 11.9375 -9 10 C-9.4375 6.5 -9.4375 6.5 -9 3 C-6.3773336 -0.01120957 -3.90597484 -0.78119497 0 0 Z " fill="#000000" transform="translate(459,53)"/>
</svg>
