<?xml version="1.0" encoding="UTF-8"?>
<svg version="1.1" xmlns="http://www.w3.org/2000/svg" width="512" height="512">
<path d="M0 0 C1.15585178 -0.00573832 1.15585178 -0.00573832 2.3350541 -0.01159257 C4.90737408 -0.02188016 7.47946908 -0.0179385 10.05180359 -0.01396179 C11.90013332 -0.01831067 13.74846125 -0.0234944 15.5967865 -0.02944946 C20.61135872 -0.04283318 25.62585554 -0.04341872 30.64044213 -0.04088616 C34.83016445 -0.03981583 39.01987156 -0.04470153 43.20959061 -0.04949158 C53.09694794 -0.06058504 62.98426727 -0.06102537 72.87162781 -0.05497742 C83.06221577 -0.04893967 93.25266558 -0.06124399 103.44322997 -0.08254749 C112.20011598 -0.10017888 120.95695807 -0.10616233 129.71386117 -0.10290974 C134.94049757 -0.10109888 140.16703548 -0.10371326 145.39365578 -0.11762428 C150.31110401 -0.13022266 155.22833744 -0.12823946 160.14578247 -0.11521339 C161.94645956 -0.11285228 163.74715186 -0.11556557 165.54781151 -0.12383652 C184.91376949 -0.20634722 184.91376949 -0.20634722 193.47636414 5.44819641 C201.31398514 13.65035793 200.74394816 22.29678767 200.6973114 32.92280579 C200.7043759 34.61542511 200.71312315 36.30803812 200.72341919 38.00064087 C200.7458618 42.58124084 200.74298574 47.16149446 200.73409772 51.74212837 C200.72897704 55.57169026 200.73628904 59.40118769 200.74356979 63.23074293 C200.76055204 72.26666399 200.75701928 81.3024161 200.74028015 90.33833313 C200.72335334 99.64978044 200.73920483 108.96075913 200.77150303 118.27215528 C200.79821835 126.27835536 200.8054699 134.28440973 200.79698795 142.29064989 C200.79206528 147.06736691 200.79423887 151.84380192 200.81477547 156.6204834 C200.83316361 161.11213605 200.82713588 165.60311556 200.80257607 170.09473228 C200.79757842 171.73940891 200.80103075 173.38413712 200.81372452 175.02877235 C200.92833596 191.15863525 200.92833596 191.15863525 195.16386414 197.26069641 C193.13652039 199.10054016 193.13652039 199.10054016 191.22636414 200.19819641 C190.5985907 200.57846985 189.97081726 200.95874329 189.32402039 201.35054016 C183.92863639 203.6238213 178.15267655 203.40001257 172.40458679 203.3742218 C171.11580124 203.37444084 171.11580124 203.37444084 169.80097961 203.37466431 C166.97660245 203.3739707 164.1522922 203.36620421 161.32792664 203.35835266 C159.36352067 203.35648652 157.39911424 203.35506354 155.43470764 203.35406494 C150.27593185 203.3502552 145.11718442 203.34043813 139.9584198 203.32936096 C133.76256903 203.31731049 127.56670876 203.31273725 121.37084961 203.30690765 C111.96850142 203.29722553 102.5662154 203.27805816 93.16386414 203.26069641 C93.16386414 230.32069641 93.16386414 257.38069641 93.16386414 285.26069641 C102.73386414 285.26069641 112.30386414 285.26069641 122.16386414 285.26069641 C126.16386414 299.26069641 126.16386414 299.26069641 126.92558289 303.04585266 C127.87387066 306.45228984 127.87387066 306.45228984 130.87870789 308.00288391 C131.94218445 308.37671204 133.00566101 308.75054016 134.10136414 309.13569641 C135.69271179 309.71964172 135.69271179 309.71964172 137.31620789 310.31538391 C138.25593445 310.62733704 139.19566101 310.93929016 140.16386414 311.26069641 C141.15386414 311.59069641 142.14386414 311.92069641 143.16386414 312.26069641 C145.25101124 311.37797655 145.25101124 311.37797655 147.39433289 309.95210266 C148.597995 309.20283508 148.597995 309.20283508 149.82597351 308.43843079 C150.65935242 307.90540344 151.49273132 307.3723761 152.35136414 306.82319641 C153.61883484 306.02945618 153.61883484 306.02945618 154.91191101 305.21968079 C157.00182645 303.90905585 159.08527523 302.58918447 161.16386414 301.26069641 C166.60119469 305.79061438 171.62845345 310.60363857 176.60136414 315.63569641 C177.3329071 316.3717511 178.06445007 317.10780579 178.81816101 317.86616516 C180.60239137 319.66205715 182.38422537 321.46025626 184.16386414 323.26069641 C183.39429714 324.84071246 182.61990557 326.4183791 181.84355164 327.99507141 C181.41284363 328.87388977 180.98213562 329.75270813 180.53837585 330.65815735 C179.26079342 333.07716778 177.85940459 335.2745473 176.28886414 337.51069641 C174.65633523 340.095963 174.16952694 341.00020764 174.10136414 344.13569641 C174.45198914 345.16694641 174.80261414 346.19819641 175.16386414 347.26069641 C175.36213806 348.04122375 175.56041199 348.8217511 175.76469421 349.62593079 C177.39501424 355.00684917 177.39501424 355.00684917 181.45854187 358.63618469 C184.27298701 359.59213039 187.00302483 360.27547333 189.91386414 360.88569641 C194.98761414 362.06132141 194.98761414 362.06132141 200.16386414 363.26069641 C200.16386414 373.82069641 200.16386414 384.38069641 200.16386414 395.26069641 C193.16386414 397.26069641 186.16386414 399.26069641 179.16386414 401.26069641 C177.29248261 403.94748668 177.29248261 403.94748668 176.28886414 407.19819641 C175.70491882 408.78954407 175.70491882 408.78954407 175.10917664 410.41304016 C174.79722351 411.35276672 174.48527039 412.29249329 174.16386414 413.26069641 C173.83386414 414.25069641 173.50386414 415.24069641 173.16386414 416.26069641 C174.046584 418.34784351 174.046584 418.34784351 175.47245789 420.49116516 C176.22172546 421.69482727 176.22172546 421.69482727 176.98612976 422.92280579 C177.5191571 423.75618469 178.05218445 424.5895636 178.60136414 425.44819641 C179.39510437 426.71566711 179.39510437 426.71566711 180.20487976 428.00874329 C181.5155047 430.09865872 182.83537608 432.18210751 184.16386414 434.26069641 C179.63394617 439.69802696 174.82092198 444.72528572 169.78886414 449.69819641 C169.05280945 450.42973938 168.31675476 451.16128235 167.55839539 451.91499329 C165.7625034 453.69922364 163.96430428 455.48105765 162.16386414 457.26069641 C156.85981196 454.71572872 151.91765317 452.21566743 147.22636414 448.63569641 C144.83465405 447.00032279 144.83465405 447.00032279 142.16386414 446.26069641 C138.04880214 447.2299018 134.76909738 449.10715442 131.16386414 451.26069641 C130.17386414 451.59069641 129.18386414 451.92069641 128.16386414 452.26069641 C127.18603322 454.36272973 127.18603322 454.36272973 126.55839539 456.95210266 C126.29736023 457.89634094 126.03632507 458.84057922 125.76737976 459.81343079 C125.5063446 460.80665344 125.24530945 461.7998761 124.97636414 462.82319641 C124.70372742 463.82028625 124.4310907 464.8173761 124.15019226 465.84468079 C123.4767791 468.31386239 122.81526317 470.78563294 122.16386414 473.26069641 C78.09431117 473.35223919 34.02476827 473.42272867 -10.04486102 473.46495773 C-15.24693326 473.46996059 -20.44900531 473.47513788 -25.65107727 473.48042297 C-26.68672211 473.48147222 -27.72236696 473.48252146 -28.78939497 473.48360249 C-45.56142245 473.50101073 -62.33339512 473.53255074 -79.10539007 473.5693076 C-96.31325412 473.60670533 -113.52108945 473.6289298 -130.72899246 473.63705039 C-141.34836987 473.64254058 -151.96759238 473.65988485 -162.58692211 473.69236228 C-169.86764611 473.71349574 -177.14828995 473.71989909 -184.4290424 473.71470192 C-188.6305426 473.71213833 -192.83177198 473.71608569 -197.03322411 473.73751831 C-200.88143262 473.75700553 -204.72918859 473.75795258 -208.57741809 473.74429199 C-209.9678699 473.74260403 -211.35835013 473.74766012 -212.74874616 473.76022914 C-221.45580594 473.83434872 -228.21977361 473.58296609 -234.85957336 467.36616516 C-235.30558899 466.73323547 -235.75160461 466.10030579 -236.21113586 465.44819641 C-236.67262024 464.8230011 -237.13410461 464.19780579 -237.60957336 463.55366516 C-241.45724719 456.36072078 -241.07908818 449.30312394 -240.96113586 441.32319641 C-240.95211243 440.16239563 -240.94308899 439.00159485 -240.93379211 437.80561829 C-240.91034852 434.95722146 -240.87448159 432.1089316 -240.83613586 429.26069641 C-234.56613586 429.26069641 -228.29613586 429.26069641 -221.83613586 429.26069641 C-222.16613586 354.35069641 -222.49613586 279.44069641 -222.83613586 202.26069641 C-224.81613586 201.93069641 -226.79613586 201.60069641 -228.83613586 201.26069641 C-233.5856543 198.69595646 -236.4153513 196.10226554 -238.83613586 191.26069641 C-240.21756803 185.62142536 -240.34879974 180.45620856 -237.99238586 175.08882141 C-235.92005338 171.81229573 -233.15635703 169.25282911 -229.83613586 167.26069641 C-228.84613586 167.26069641 -227.85613586 167.26069641 -226.83613586 167.26069641 C-230.61193488 156.23817756 -236.42959706 148.48021181 -244.71113586 140.44819641 C-261.21132839 124.38977902 -270.42277485 104.66879155 -271.02363586 81.57319641 C-270.63900698 58.88009234 -261.75279216 38.52927247 -245.46846008 22.74751282 C-232.06533458 10.53916189 -213.973542 3.06758295 -195.83613586 2.26069641 C-194.82099915 2.200755 -194.82099915 2.200755 -193.78535461 2.13960266 C-171.54368736 1.44836255 -152.22278512 10.50162768 -135.90254211 24.97554016 C-122.80471001 37.37326542 -113.62346705 56.15207913 -112.83613586 74.26069641 C-112.78457336 75.26100891 -112.73301086 76.26132141 -112.67988586 77.29194641 C-112.07196324 99.78508357 -119.32911621 119.49234214 -134.70429993 135.98262024 C-138.0259025 139.48220669 -141.44285019 142.87483742 -144.98457336 146.15132141 C-147.67002971 149.21070206 -149.67861142 152.8086573 -151.83613586 156.26069641 C-109.92613586 156.59069641 -68.01613586 156.92069641 -24.83613586 157.26069641 C-24.87094055 147.24725891 -24.90574524 137.23382141 -24.94160461 126.91694641 C-24.95693321 120.57319409 -24.9714993 114.2294552 -24.98262024 107.88569641 C-25.00041367 97.81663931 -25.02131938 87.74765758 -25.06245422 77.67866516 C-25.09239963 70.34511555 -25.11172107 63.01162715 -25.11840135 55.67801809 C-25.12230492 51.79659031 -25.13144941 47.91533761 -25.15332603 44.03396606 C-25.17377256 40.37649917 -25.17995329 36.71927857 -25.17545891 33.06175995 C-25.17667056 31.08802134 -25.19276982 29.11430921 -25.20939636 27.14064026 C-25.18323453 19.59798416 -24.9699871 13.09615613 -20.00410461 7.01850891 C-19.35054993 6.47968079 -18.69699524 5.94085266 -18.02363586 5.38569641 C-17.0549054 4.5542511 -17.0549054 4.5542511 -16.06660461 3.70600891 C-10.99101809 0.41709995 -5.90786356 -0.03136917 0 0 Z " fill="#39484C" transform="translate(311.8361358642578,38.73930358886719)"/>
<path d="M0 0 C16.06384756 -0.16361097 32.12742437 -0.28700385 48.19190407 -0.3626852 C55.65116879 -0.3987615 63.10991548 -0.44793433 70.56884766 -0.52807617 C77.07102952 -0.59790492 83.57283619 -0.643021 90.07538259 -0.65861946 C93.51783603 -0.66773628 96.95921624 -0.68911819 100.40132523 -0.7401104 C104.24643121 -0.79660926 108.0904928 -0.79792552 111.93603516 -0.79467773 C113.07395508 -0.81984467 114.211875 -0.8450116 115.38427734 -0.87094116 C123.00805148 -0.80118014 123.00805148 -0.80118014 125.86500168 1.50633049 C127.3789978 3.36216736 127.3789978 3.36216736 128.71679306 5.27181435 C130.70643739 7.95140926 132.90287703 8.8964326 136 10 C139.34764128 10.46588871 139.34764128 10.46588871 142.92333984 10.43237305 C143.9354676 10.44778373 143.9354676 10.44778373 144.96804237 10.46350574 C147.1324342 10.49317756 149.29637118 10.50290113 151.4609375 10.51171875 C152.8051103 10.52719993 154.14926858 10.54399949 155.4934082 10.56213379 C160.4537788 10.61987161 165.41441919 10.65217018 170.375 10.6875 C187.019375 10.8421875 187.019375 10.8421875 204 11 C204 45.32 204 79.64 204 115 C202.02 114.01 200.04 113.02 198 112 C194.4321547 112.93956019 192.21668297 115.55165013 189.671875 118.1328125 C188.87265625 118.93847656 188.0734375 119.74414062 187.25 120.57421875 C186.425 121.41597656 185.6 122.25773437 184.75 123.125 C183.90953125 123.97449219 183.0690625 124.82398438 182.203125 125.69921875 C180.13084317 127.79504923 178.06337607 129.89540713 176 132 C176.76972571 133.57863815 177.54407906 135.15502033 178.3203125 136.73046875 C178.75102051 137.60856201 179.18172852 138.48665527 179.62548828 139.39135742 C181.2536958 142.48148128 183.13338921 145.28889948 185.1796875 148.11328125 C186.32953956 150.757941 185.75305243 152.24423515 185 155 C184.81566406 155.969375 184.63132812 156.93875 184.44140625 157.9375 C183.38771532 161.6090275 182.39853064 163.99561213 180 167 C173.45464202 170.50891982 165.3642192 172 158 172 C158.33 182.23 158.66 192.46 159 203 C160.65 203.33 162.3 203.66 164 204 C164 204.33 164 204.66 164 205 C96.35 205 28.7 205 -41 205 C-41 150.88 -41 96.76 -41 41 C-35.06 40.67 -29.12 40.34 -23 40 C-18.02378257 37.49943407 -18.02378257 37.49943407 -16 34 C-15.63250611 31.38710506 -15.63250611 31.38710506 -15.5859375 28.45703125 C-15.54726562 27.38388672 -15.50859375 26.31074219 -15.46875 25.20507812 C-15.42234375 23.52575195 -15.42234375 23.52575195 -15.375 21.8125 C-15.33632812 20.68134766 -15.29765625 19.55019531 -15.2578125 18.38476562 C-15.16347467 15.5900075 -15.07788348 12.79525722 -15 10 C-14.38511719 9.8131665 -13.77023438 9.62633301 -13.13671875 9.43383789 C-12.32847656 9.17852295 -11.52023438 8.92320801 -10.6875 8.66015625 C-9.88699219 8.41144775 -9.08648437 8.16273926 -8.26171875 7.90649414 C-4.40140191 6.35928382 -1.84227089 3.68454179 0 0 Z " fill="#FEFEFE" transform="translate(166,230)"/>
<path d="M0 0 C1.15585178 -0.00573832 1.15585178 -0.00573832 2.3350541 -0.01159257 C4.90737408 -0.02188016 7.47946908 -0.0179385 10.05180359 -0.01396179 C11.90013332 -0.01831067 13.74846125 -0.0234944 15.5967865 -0.02944946 C20.61135872 -0.04283318 25.62585554 -0.04341872 30.64044213 -0.04088616 C34.83016445 -0.03981583 39.01987156 -0.04470153 43.20959061 -0.04949158 C53.09694794 -0.06058504 62.98426727 -0.06102537 72.87162781 -0.05497742 C83.06221577 -0.04893967 93.25266558 -0.06124399 103.44322997 -0.08254749 C112.20011598 -0.10017888 120.95695807 -0.10616233 129.71386117 -0.10290974 C134.94049757 -0.10109888 140.16703548 -0.10371326 145.39365578 -0.11762428 C150.31110401 -0.13022266 155.22833744 -0.12823946 160.14578247 -0.11521339 C161.94645956 -0.11285228 163.74715186 -0.11556557 165.54781151 -0.12383652 C184.91376949 -0.20634722 184.91376949 -0.20634722 193.47636414 5.44819641 C201.31398514 13.65035793 200.74394816 22.29678767 200.6973114 32.92280579 C200.7043759 34.61542511 200.71312315 36.30803812 200.72341919 38.00064087 C200.7458618 42.58124084 200.74298574 47.16149446 200.73409772 51.74212837 C200.72897704 55.57169026 200.73628904 59.40118769 200.74356979 63.23074293 C200.76055204 72.26666399 200.75701928 81.3024161 200.74028015 90.33833313 C200.72335334 99.64978044 200.73920483 108.96075913 200.77150303 118.27215528 C200.79821835 126.27835536 200.8054699 134.28440973 200.79698795 142.29064989 C200.79206528 147.06736691 200.79423887 151.84380192 200.81477547 156.6204834 C200.83316361 161.11213605 200.82713588 165.60311556 200.80257607 170.09473228 C200.79757842 171.73940891 200.80103075 173.38413712 200.81372452 175.02877235 C200.92833596 191.15863525 200.92833596 191.15863525 195.16386414 197.26069641 C193.13652039 199.10054016 193.13652039 199.10054016 191.22636414 200.19819641 C190.28470398 200.76860657 190.28470398 200.76860657 189.32402039 201.35054016 C184.10455297 203.54970093 178.51936662 203.40518104 172.94413757 203.39009094 C171.73727295 203.39271942 171.73727295 203.39271942 170.50602722 203.395401 C167.84507581 203.39979848 165.18419124 203.39688113 162.52323914 203.39350891 C160.64028409 203.39418438 158.75732914 203.39515641 156.87437439 203.39640808 C152.9099902 203.39788373 148.94562851 203.39574145 144.98124695 203.3910675 C140.00974009 203.38547975 135.03828855 203.38857854 130.06678391 203.39463997 C126.16054406 203.39834443 122.25431618 203.39706135 118.34807587 203.39451218 C116.52289574 203.39386395 114.69771437 203.39459359 112.87253571 203.39699173 C94.94702748 203.41531616 77.09779307 202.78816491 59.16386414 202.26069641 C59.16386414 236.91069641 59.16386414 271.56069641 59.16386414 307.26069641 C58.83386414 307.26069641 58.50386414 307.26069641 58.16386414 307.26069641 C58.16386414 272.61069641 58.16386414 237.96069641 58.16386414 202.26069641 C36.14499994 202.45830525 36.14499994 202.45830525 14.12675476 202.71113586 C9.84648132 202.73371887 9.84648132 202.73371887 7.83610535 202.73791504 C6.44637524 202.74554109 5.05667608 202.76301861 3.66716003 202.78857422 C-11.55649775 203.05431452 -11.55649775 203.05431452 -17.83613586 197.26069641 C-22.41136231 192.44466857 -24.04829008 187.96634747 -24.24305725 181.37968445 C-24.28075855 180.21450098 -24.31845985 179.04931751 -24.35730362 177.84882545 C-24.38737881 176.58788252 -24.41745399 175.32693958 -24.44844055 174.02778625 C-24.48596593 172.68596732 -24.52380816 171.34415722 -24.56194687 170.00235558 C-24.95443474 155.40831473 -25.01793824 140.81075261 -25.0363245 126.21225786 C-25.03931227 123.9483051 -25.04342456 121.68435677 -25.04782867 119.42040634 C-25.06135632 112.29351546 -25.07110745 105.16663536 -25.07503057 98.03973258 C-25.07955054 89.88418872 -25.0973396 81.72880915 -25.12603116 73.57331526 C-25.14765716 67.20150947 -25.15773445 60.82975012 -25.15907168 54.45790803 C-25.16011407 50.67754239 -25.16590692 46.89733446 -25.1838913 43.11700821 C-25.20346514 38.92603138 -25.19907957 34.73540533 -25.19258118 30.54438782 C-25.20179596 29.31117798 -25.21101074 28.07796814 -25.22050476 26.80738831 C-25.18444927 19.39045379 -24.88457951 12.99162743 -20.00410461 7.01850891 C-19.35054993 6.47968079 -18.69699524 5.94085266 -18.02363586 5.38569641 C-17.37781555 4.83139954 -16.73199524 4.27710266 -16.06660461 3.70600891 C-10.99101809 0.41709995 -5.90786356 -0.03136917 0 0 Z " fill="#8383FE" transform="translate(311.8361358642578,38.73930358886719)"/>
<path d="M0 0 C11.22 0 22.44 0 34 0 C34 27.39 34 54.78 34 83 C43.57 83 53.14 83 63 83 C67 97 67 97 67.76171875 100.78515625 C68.71000652 104.19159342 68.71000652 104.19159342 71.71484375 105.7421875 C73.31005859 106.30292969 73.31005859 106.30292969 74.9375 106.875 C75.99839844 107.26429688 77.05929687 107.65359375 78.15234375 108.0546875 C79.56193359 108.52261719 79.56193359 108.52261719 81 109 C81.99 109.33 82.98 109.66 84 110 C86.0871471 109.11728014 86.0871471 109.11728014 88.23046875 107.69140625 C89.03291016 107.19189453 89.83535156 106.69238281 90.66210938 106.17773438 C91.49548828 105.64470703 92.32886719 105.11167969 93.1875 104.5625 C94.03248047 104.03333984 94.87746094 103.50417969 95.74804688 102.95898438 C97.83796231 101.64835944 99.9214111 100.32848806 102 99 C107.43733055 103.52991796 112.46458931 108.34294216 117.4375 113.375 C118.16904297 114.11105469 118.90058594 114.84710938 119.65429688 115.60546875 C121.43852723 117.40136074 123.22036124 119.19955985 125 121 C124.23043301 122.58001605 123.45604143 124.15768268 122.6796875 125.734375 C122.24897949 126.61319336 121.81827148 127.49201172 121.37451172 128.39746094 C120.09692929 130.81647137 118.69554046 133.01385089 117.125 135.25 C115.4924711 137.83526659 115.0056628 138.73951123 114.9375 141.875 C115.288125 142.90625 115.63875 143.9375 116 145 C116.19827393 145.78052734 116.39654785 146.56105469 116.60083008 147.36523438 C118.23115011 152.74615275 118.23115011 152.74615275 122.29467773 156.37548828 C125.10912288 157.33143398 127.8391607 158.01477692 130.75 158.625 C135.82375 159.800625 135.82375 159.800625 141 161 C141 171.56 141 182.12 141 193 C134 195 127 197 120 199 C118.12861847 201.68679027 118.12861847 201.68679027 117.125 204.9375 C116.73570312 205.99839844 116.34640625 207.05929687 115.9453125 208.15234375 C115.47738281 209.56193359 115.47738281 209.56193359 115 211 C114.67 211.99 114.34 212.98 114 214 C114.88271986 216.0871471 114.88271986 216.0871471 116.30859375 218.23046875 C116.80810547 219.03291016 117.30761719 219.83535156 117.82226562 220.66210938 C118.35529297 221.49548828 118.88832031 222.32886719 119.4375 223.1875 C119.96666016 224.03248047 120.49582031 224.87746094 121.04101562 225.74804688 C122.35164056 227.83796231 123.67151194 229.9214111 125 232 C120.47008204 237.43733055 115.65705784 242.46458931 110.625 247.4375 C109.88894531 248.16904297 109.15289062 248.90058594 108.39453125 249.65429688 C106.59863926 251.43852723 104.80044015 253.22036124 103 255 C97.69594783 252.45503231 92.75378903 249.95497101 88.0625 246.375 C85.67078992 244.73962638 85.67078992 244.73962638 83 244 C78.884938 244.96920539 75.60523325 246.84645801 72 249 C71.01 249.33 70.02 249.66 69 250 C68.02216909 252.10203332 68.02216909 252.10203332 67.39453125 254.69140625 C67.15839111 255.54162354 66.92225098 256.39184082 66.67895508 257.26782227 C66.3930249 258.35506592 66.10709473 259.44230957 65.8125 260.5625 C64.4203125 265.7290625 64.4203125 265.7290625 63 271 C52.44 271 41.88 271 31 271 C30.175 267.74125 29.35 264.4825 28.5 261.125 C28.23896484 260.09906738 27.97792969 259.07313477 27.70898438 258.01611328 C27.50595703 257.20899902 27.30292969 256.40188477 27.09375 255.5703125 C26.88427734 254.74289551 26.67480469 253.91547852 26.45898438 253.06298828 C26 251 26 251 26 249 C25.32453125 248.80664062 24.6490625 248.61328125 23.953125 248.4140625 C23.06109375 248.15367187 22.1690625 247.89328125 21.25 247.625 C20.36828125 247.36976563 19.4865625 247.11453125 18.578125 246.8515625 C16 246 16 246 13.984375 244.8359375 C11.16376255 243.64772674 9.9103359 244.03265583 7 245 C4.31288032 246.39194691 1.75294381 247.95940449 -0.8125 249.5625 C-1.50537109 249.98724609 -2.19824219 250.41199219 -2.91210938 250.84960938 C-4.61216951 251.89309456 -6.30665476 252.94565296 -8 254 C-13.25174926 249.61557474 -18.13222473 244.99157907 -22.9375 240.125 C-23.62134766 239.43664062 -24.30519531 238.74828125 -25.00976562 238.0390625 C-26.67551464 236.36166489 -28.3388622 234.68196209 -30 233 C-28.28272973 228.12985786 -25.5565479 224.04377206 -22.65820312 219.81640625 C-20.98646856 217.23750538 -19.95834452 215.58679892 -20.1796875 212.46875 C-20.45039063 211.6540625 -20.72109375 210.839375 -21 210 C-21.16113281 209.030625 -21.32226562 208.06125 -21.48828125 207.0625 C-22.51101449 203.26239165 -23.42805259 201.02360647 -26 198 C-31.67196631 195.3425764 -37.98340297 194.36341444 -44.12988281 193.38208008 C-46 193 -46 193 -47 192 C-47.08790975 189.70848583 -47.10694038 187.41427476 -47.09765625 185.12109375 C-47.0962413 184.4344313 -47.09482635 183.74776886 -47.09336853 183.04029846 C-47.08775479 180.83932199 -47.07520007 178.63844591 -47.0625 176.4375 C-47.05748676 174.94856917 -47.05292355 173.45963676 -47.04882812 171.97070312 C-47.03778093 168.31376925 -47.02050713 164.65689442 -47 161 C-43.70929159 160.16285091 -40.41728353 159.33093104 -37.125 158.5 C-36.18785156 158.26152344 -35.25070312 158.02304687 -34.28515625 157.77734375 C-32.94130859 157.43896484 -32.94130859 157.43896484 -31.5703125 157.09375 C-30.74289551 156.88427734 -29.91547852 156.67480469 -29.06298828 156.45898438 C-27 156 -27 156 -25 156 C-24.9175 155.360625 -24.835 154.72125 -24.75 154.0625 C-23.87920356 150.50674785 -22.40193448 147.53206477 -20.7421875 144.28125 C-19.76996183 141.2929353 -20.00210099 139.99369702 -21 137 C-22.39256159 134.31320098 -23.95940131 131.7529489 -25.5625 129.1875 C-25.98724609 128.49462891 -26.41199219 127.80175781 -26.84960938 127.08789062 C-27.89309456 125.38783049 -28.94565296 123.69334524 -30 122 C-25.61557474 116.74825074 -20.99157907 111.86777527 -16.125 107.0625 C-15.43664062 106.37865234 -14.74828125 105.69480469 -14.0390625 104.99023438 C-12.36166489 103.32448536 -10.68196209 101.6611378 -9 100 C-6.0280615 101.12451727 -3.66559313 102.22293791 -1 104 C-0.67 69.68 -0.34 35.36 0 0 Z " fill="#EC5132" transform="translate(371,241)"/>
<path d="M0 0 C22.24166725 -0.69124012 41.56256949 8.36202502 57.8828125 22.8359375 C70.9806446 35.23366276 80.16188756 54.01247647 80.94921875 72.12109375 C81.00078125 73.12140625 81.05234375 74.12171875 81.10546875 75.15234375 C81.73905979 98.59521232 73.72528777 118.38660972 57.6484375 135.359375 C55.42243795 137.63691723 53.14805512 139.82068605 50.82421875 141.99609375 C44.52672732 148.16347172 39.86482755 156.28987615 35.94921875 164.12109375 C13.17921875 164.12109375 -9.59078125 164.12109375 -33.05078125 164.12109375 C-35.36078125 159.50109375 -37.67078125 154.88109375 -40.05078125 150.12109375 C-43.6425057 145.75971406 -47.2398386 141.85057531 -51.30859375 137.96484375 C-67.68320323 122.21783254 -76.64706794 102.15835554 -77.23828125 79.43359375 C-76.85365237 56.74048968 -67.96743755 36.38966981 -51.68310547 20.60791016 C-37.41460939 7.61132907 -19.07406769 1.12627828 0 0 Z " fill="#FEBF4D" transform="translate(118.05078125,40.87890625)"/>
<path d="M0 0 C1.00023193 0.00523682 2.00046387 0.01047363 3.03100586 0.01586914 C4.1105957 0.0190918 5.19018555 0.02231445 6.30249023 0.02563477 C8.00695312 0.03820312 8.00695312 0.03820312 9.74584961 0.05102539 C11.45611328 0.05779297 11.45611328 0.05779297 13.20092773 0.06469727 C16.02845312 0.07652792 18.85587601 0.09301129 21.68334961 0.11352539 C21.85608398 1.22211914 22.02881836 2.33071289 22.20678711 3.47290039 C23.44401257 11.63185343 23.44401257 11.63185343 27.99975586 18.10180664 C32.52046745 19.95455729 35.95108632 20.55866276 40.68334961 19.11352539 C43.06529972 17.62731706 45.25690621 15.98020899 47.49975586 14.29321289 C49.68334961 13.11352539 49.68334961 13.11352539 51.60180664 13.35327148 C55.5104867 14.78086118 58.09684144 17.97329323 60.99584961 20.86352539 C61.65391602 21.48485352 62.31198242 22.10618164 62.98999023 22.74633789 C67.65007356 27.36259599 67.65007356 27.36259599 67.80053711 30.75805664 C66.56111451 33.37124485 65.13917777 35.67064387 63.49584961 38.05102539 C60.993717 41.86756865 60.993717 41.86756865 61.18334961 46.30102539 C61.67834961 47.22915039 62.17334961 48.15727539 62.68334961 49.11352539 C63.085869 50.39688267 63.46082466 51.68919703 63.80834961 52.98852539 C64.09709961 54.01977539 64.38584961 55.05102539 64.68334961 56.11352539 C65.81772461 56.21665039 66.95209961 56.31977539 68.12084961 56.42602539 C72.68334961 57.11352539 72.68334961 57.11352539 81.68334961 60.11352539 C81.68334961 67.70352539 81.68334961 75.29352539 81.68334961 83.11352539 C72.68334961 86.11352539 72.68334961 86.11352539 68.37084961 86.67602539 C64.16349105 88.31618212 63.82284933 88.91553104 62.05834961 92.86352539 C61.0168327 96.09454231 60.64581087 97.84539152 61.12084961 101.23852539 C62.81794422 104.36117947 64.6949134 107.29031065 66.75756836 110.18383789 C67.68334961 112.11352539 67.68334961 112.11352539 67.4387207 114.01831055 C66.53853294 116.51521145 65.42029038 117.72082626 63.52319336 119.56665039 C62.89477539 120.18540039 62.26635742 120.80415039 61.61889648 121.44165039 C60.95954102 122.07586914 60.30018555 122.71008789 59.62084961 123.36352539 C58.62601563 124.33805664 58.62601563 124.33805664 57.61108398 125.33227539 C55.97505644 126.93299299 54.33244049 128.52628732 52.68334961 130.11352539 C48.88914984 128.96393143 45.84016018 127.73308779 42.62084961 125.42602539 C39.65165554 123.47769252 39.65165554 123.47769252 36.18334961 123.11352539 C34.94584961 123.60852539 34.94584961 123.60852539 33.68334961 124.11352539 C33.04268555 124.17668945 32.40202148 124.23985352 31.74194336 124.30493164 C29.00266243 124.78417968 27.76892603 125.22387995 25.68334961 127.11352539 C23.45753782 132.1857662 22.72093017 137.70945996 21.68334961 143.11352539 C13.76334961 143.11352539 5.84334961 143.11352539 -2.31665039 143.11352539 C-3.24477539 139.27727539 -3.24477539 139.27727539 -4.19165039 135.36352539 C-5.37838842 131.1352716 -6.27610433 127.96916019 -9.73461914 125.12524414 C-13.84094162 123.45724018 -17.06951488 122.51567519 -21.31665039 124.11352539 C-23.89455352 125.64208974 -26.3798661 127.28034798 -28.87915039 128.93383789 C-31.31665039 130.11352539 -31.31665039 130.11352539 -33.25097656 129.87597656 C-37.15608777 128.43457929 -39.73974067 125.20209771 -42.62915039 122.30102539 C-43.2872168 121.67131836 -43.9452832 121.04161133 -44.62329102 120.39282227 C-45.24010742 119.77858398 -45.85692383 119.1643457 -46.49243164 118.53149414 C-47.05873291 117.97228271 -47.62503418 117.41307129 -48.20849609 116.83691406 C-49.31665039 115.11352539 -49.31665039 115.11352539 -49.08349609 113.04785156 C-48.0897964 110.54129865 -46.6910909 108.47722495 -45.19165039 106.23852539 C-42.76084915 102.32624974 -42.76084915 102.32624974 -42.31665039 97.80102539 C-43.27673764 95.22079092 -44.28234869 92.66480291 -45.31665039 90.11352539 C-45.31665039 89.12352539 -45.31665039 88.13352539 -45.31665039 87.11352539 C-46.46004883 86.90856445 -47.60344727 86.70360352 -48.78149414 86.49243164 C-50.27241716 86.22050229 -51.76330055 85.94835565 -53.25415039 85.67602539 C-54.38626953 85.47396484 -54.38626953 85.47396484 -55.54125977 85.26782227 C-61.20336914 84.22680664 -61.20336914 84.22680664 -62.31665039 83.11352539 C-62.40391262 81.33281293 -62.4236408 79.54869399 -62.41430664 77.76586914 C-62.41108398 76.6862793 -62.40786133 75.60668945 -62.40454102 74.49438477 C-62.39616211 73.35807617 -62.3877832 72.22176758 -62.37915039 71.05102539 C-62.37463867 69.91084961 -62.37012695 68.77067383 -62.36547852 67.59594727 C-62.35364787 64.76842188 -62.33716449 61.94099899 -62.31665039 59.11352539 C-61.20805664 58.94079102 -60.09946289 58.76805664 -58.95727539 58.59008789 C-50.79832235 57.35286243 -50.79832235 57.35286243 -44.32836914 52.79711914 C-42.47282908 48.26960139 -41.88035492 44.85181973 -43.31665039 40.11352539 C-44.84652398 37.49376824 -46.52465917 35.0209798 -48.23461914 32.51586914 C-48.77022461 31.32670898 -48.77022461 31.32670898 -49.31665039 30.11352539 C-47.5909786 25.65675152 -44.29502707 22.65034161 -41.00415039 19.30102539 C-40.4350293 18.6906543 -39.8659082 18.0802832 -39.27954102 17.45141602 C-35.04439374 13.13847039 -35.04439374 13.13847039 -31.69555664 13.02368164 C-29.07089408 14.22611326 -26.90264854 15.66878164 -24.56665039 17.36352539 C-20.95356793 19.66426431 -20.95356793 19.66426431 -16.80883789 19.91040039 C-14.51118811 19.13693413 -12.45794165 18.24666006 -10.31665039 17.11352539 C-9.60637695 16.88793945 -8.89610352 16.66235352 -8.16430664 16.42993164 C-5.1721617 14.29810745 -5.24652184 11.55897995 -4.62915039 8.05102539 C-3.19451885 0.15654455 -3.19451885 0.15654455 0 0 Z " fill="#54D390" transform="translate(238.316650390625,260.886474609375)"/>
<path d="M0 0 C90.09 0 180.18 0 273 0 C272.34 1.98 271.68 3.96 271 6 C277.6 12.6 284.2 19.2 291 26 C299.42858498 21.8154662 299.42858498 21.8154662 307.11328125 16.8203125 C309.757941 15.67046044 311.24423515 16.24694757 314 17 C314.969375 17.18433594 315.93875 17.36867188 316.9375 17.55859375 C320.6090275 18.61228468 322.99561213 19.60146936 326 22 C329.50891982 28.54535798 331 36.6357808 331 44 C291.00705923 44.09155268 251.01413212 44.16203728 211.02110749 44.20426132 C206.29971602 44.20926415 201.57832476 44.21444144 196.85693359 44.21972656 C195.91698842 44.2207758 194.97704325 44.22182505 194.0086149 44.22290608 C178.78855079 44.24031197 163.56854711 44.27185069 148.34851885 44.30861118 C132.73171261 44.34601547 117.11493803 44.36823477 101.49808884 44.37635398 C91.86140739 44.38184281 82.22489674 44.3991797 72.58826786 44.43166587 C65.98033519 44.45280742 59.37249083 44.45920086 52.76452678 44.45400551 C48.95186687 44.45144316 45.13950544 44.45537487 41.32689857 44.4768219 C37.19128873 44.49991578 33.05631399 44.49194827 28.9206543 44.48101807 C27.71830832 44.49266943 26.51596233 44.5043208 25.27718163 44.51632524 C17.54619599 44.46101516 11.83042054 43.58639761 5.9765625 38.10546875 C5.53054687 37.47253906 5.08453125 36.83960938 4.625 36.1875 C4.16351563 35.56230469 3.70203125 34.93710937 3.2265625 34.29296875 C-2.57988863 23.43823368 0 12.48476441 0 0 Z " fill="#61797E" transform="translate(71,468)"/>
<path d="M0 0 C1.15585178 -0.00573832 1.15585178 -0.00573832 2.3350541 -0.01159257 C4.90737408 -0.02188016 7.47946908 -0.0179385 10.05180359 -0.01396179 C11.90013332 -0.01831067 13.74846125 -0.0234944 15.5967865 -0.02944946 C20.61135872 -0.04283318 25.62585554 -0.04341872 30.64044213 -0.04088616 C34.83016445 -0.03981583 39.01987156 -0.04470153 43.20959061 -0.04949158 C53.09694794 -0.06058504 62.98426727 -0.06102537 72.87162781 -0.05497742 C83.06221577 -0.04893967 93.25266558 -0.06124399 103.44322997 -0.08254749 C112.20011598 -0.10017888 120.95695807 -0.10616233 129.71386117 -0.10290974 C134.94049757 -0.10109888 140.16703548 -0.10371326 145.39365578 -0.11762428 C150.31110401 -0.13022266 155.22833744 -0.12823946 160.14578247 -0.11521339 C161.94645956 -0.11285228 163.74715186 -0.11556557 165.54781151 -0.12383652 C184.91376949 -0.20634722 184.91376949 -0.20634722 193.47636414 5.44819641 C204.09467874 16.56038612 200.16386414 25.89523379 200.16386414 42.26069641 C125.91386414 42.26069641 51.66386414 42.26069641 -24.83613586 42.26069641 C-24.83613586 12.9323382 -24.83613586 12.9323382 -20.00410461 7.01850891 C-19.35054993 6.47968079 -18.69699524 5.94085266 -18.02363586 5.38569641 C-17.37781555 4.83139954 -16.73199524 4.27710266 -16.06660461 3.70600891 C-10.99101809 0.41709995 -5.90786356 -0.03136917 0 0 Z " fill="#4646F9" transform="translate(311.8361358642578,38.73930358886719)"/>
<path d="M0 0 C2.27635384 -0.36914349 2.27635384 -0.36914349 5.17581177 -0.36076355 C6.27240112 -0.36488754 7.36899048 -0.36901154 8.49880981 -0.3732605 C9.70721527 -0.36247467 10.91562073 -0.35168884 12.16064453 -0.34057617 C13.42890076 -0.34101425 14.69715698 -0.34145233 16.00384521 -0.34190369 C19.48721345 -0.34276647 22.97027346 -0.32509529 26.45356989 -0.30418181 C30.09174199 -0.28546198 33.72992071 -0.28366829 37.36813354 -0.28010559 C44.26008253 -0.27077127 51.1518892 -0.24613886 58.04377544 -0.21605712 C65.88887618 -0.18255614 73.73398361 -0.16603795 81.57913804 -0.15097082 C97.71950875 -0.11959041 113.85973623 -0.06680312 130 0 C130.02505615 0.8878418 130.0501123 1.77568359 130.07592773 2.69042969 C130.17121797 5.99296037 130.27044207 9.29532459 130.37231445 12.59765625 C130.41555318 14.02534388 130.45723585 15.45307954 130.49731445 16.88085938 C130.55528602 18.93634496 130.61890175 20.99159128 130.68359375 23.046875 C130.72025146 24.28276367 130.75690918 25.51865234 130.79467773 26.79199219 C130.91395072 30.16601565 130.91395072 30.16601565 132 34 C91.08 34 50.16 34 8 34 C7.34 35.65 6.68 37.3 6 39 C1.92347512 43.31632046 -1.3721534 43.42455556 -7 44 C-6.97905273 44.70084717 -6.95810547 45.40169434 -6.93652344 46.1237793 C-6.85316952 49.31153919 -6.80127861 52.49906952 -6.75 55.6875 C-6.71648437 56.79029297 -6.68296875 57.89308594 -6.6484375 59.02929688 C-6.54972126 67.19806552 -6.54972126 67.19806552 -8.765625 71.14453125 C-12.29134161 74.07235536 -14.97729732 75.24266736 -19.56567383 75.32226562 C-20.91276176 75.35108826 -20.91276176 75.35108826 -22.2870636 75.38049316 C-23.25065292 75.38899292 -24.21424225 75.39749268 -25.20703125 75.40625 C-26.70516609 75.42335022 -26.70516609 75.42335022 -28.23356628 75.4407959 C-30.34585344 75.45967428 -32.45819921 75.47275531 -34.57055664 75.48046875 C-37.79092973 75.49987005 -41.00874226 75.56192034 -44.22851562 75.625 C-46.28383905 75.63806246 -48.33918069 75.64856247 -50.39453125 75.65625 C-51.35204788 75.6809436 -52.30956451 75.70563721 -53.2960968 75.7310791 C-59.26170636 75.69162327 -62.43454906 74.677833 -66.74394226 70.48474121 C-69.14709268 67.64406252 -69.11853497 65.62508393 -69.09765625 61.9921875 C-69.09443359 61.00605469 -69.09121094 60.01992188 -69.08789062 59.00390625 C-69.07951172 57.97136719 -69.07113281 56.93882812 -69.0625 55.875 C-69.05798828 54.83472656 -69.05347656 53.79445312 -69.04882812 52.72265625 C-69.03701952 50.14838038 -69.02055075 47.57421854 -69 45 C-70.38832031 44.80470703 -70.38832031 44.80470703 -71.8046875 44.60546875 C-76.90825107 43.63841208 -79.91970979 41.22627537 -83.3125 37.375 C-86.14721869 31.70556261 -86.8884811 25.87290144 -85 19.75 C-83.10270099 15.41959069 -79.90803388 12.5668677 -76 10 C-72.56961706 8.85653902 -69.9436825 8.879884 -66.32543945 8.88647461 C-65.652005 8.88632858 -64.97857056 8.88618256 -64.284729 8.8860321 C-62.06088021 8.88672825 -59.83711539 8.89450668 -57.61328125 8.90234375 C-56.07057236 8.90420899 -54.52786289 8.90563239 -52.9851532 8.90663147 C-48.92616132 8.91044831 -44.86720527 8.92027149 -40.80822754 8.93133545 C-36.66577641 8.94156748 -32.5233195 8.94613293 -28.38085938 8.95117188 C-20.25388982 8.96189449 -12.12694937 8.97896093 -4 9 C-3.71125 8.071875 -3.4225 7.14375 -3.125 6.1875 C-2 3 -2 3 0 0 Z " fill="#4646F8" transform="translate(158,196)"/>
<path d="M0 0 C9.85220161 7.44458964 16.47136432 17.79904544 19.4296875 29.8359375 C19.86140356 33.09920301 19.95498999 36.29661434 19.9296875 39.5859375 C19.92396729 40.45847168 19.91824707 41.33100586 19.91235352 42.22998047 C19.52052097 56.52329288 12.82755807 67.88653982 2.6796875 77.6484375 C-2.27656846 81.92471931 -7.45486775 84.58335504 -13.5703125 86.8359375 C-14.47136719 87.19945312 -15.37242187 87.56296875 -16.30078125 87.9375 C-28.18273315 91.20255249 -41.84340787 89.6964179 -52.5703125 83.8359375 C-65.20396306 76.55215899 -73.53040834 66.01753429 -77.7109375 52.015625 C-80.26501697 41.06530159 -79.72604872 28.87521269 -74.5703125 18.8359375 C-74.13460938 17.97613281 -73.69890625 17.11632812 -73.25 16.23046875 C-67.34871397 5.57268169 -59.34961752 -0.70947442 -48.5703125 -6.1640625 C-47.51263672 -6.70933594 -47.51263672 -6.70933594 -46.43359375 -7.265625 C-31.50292339 -13.54295989 -12.70082244 -8.7249128 0 0 Z " fill="#FEFDFD" transform="translate(447.5703125,378.1640625)"/>
<path d="M0 0 C0.95589932 0.00460896 1.91179865 0.00921793 2.89666462 0.01396656 C3.99462864 0.00709324 5.09259266 0.00021992 6.22382832 -0.00686169 C7.4286385 0.01111469 8.63344868 0.02909107 9.87476826 0.04761219 C11.14317051 0.04688206 12.41157276 0.04615192 13.71841145 0.04539967 C17.1978149 0.04396344 20.67635873 0.07338481 24.15556216 0.10826945 C27.79103072 0.13949955 31.42651841 0.14246101 35.06210041 0.14839649 C41.94705488 0.16394492 48.83161299 0.20498644 55.71639282 0.25514394 C63.55422578 0.31100671 71.39207754 0.3385161 79.23005998 0.36362112 C95.35380491 0.41590181 111.47715106 0.50386295 127.60059834 0.61523914 C127.62565449 1.50308094 127.65071064 2.39092274 127.67652607 3.30566883 C127.77181631 6.60819951 127.8710404 9.91056373 127.97291279 13.21289539 C128.01615151 14.64058302 128.05783418 16.06831868 128.09791279 17.49609852 C128.15588435 19.55158411 128.21950009 21.60683042 128.28419209 23.66211414 C128.3208498 24.89800282 128.35750751 26.13389149 128.39527607 27.40723133 C128.51454905 30.7812548 128.51454905 30.7812548 129.60059834 34.61523914 C89.01059834 34.61523914 48.42059834 34.61523914 6.60059834 34.61523914 C6.60059834 30.65523914 6.60059834 26.69523914 6.60059834 22.61523914 C3.52899262 15.70412629 0.5160777 13.4283155 -6.39940166 10.61523914 C-5.75606462 6.11187983 -4.87414063 1.24979579 0 0 Z " fill="#39484C" transform="translate(160.3994016647339,195.38476085662842)"/>
<path d="M0 0 C11.22 0 22.44 0 34 0 C34 27.39 34 54.78 34 83 C33.34 83 32.68 83 32 83 C31.73445313 84.16917969 31.46890625 85.33835937 31.1953125 86.54296875 C30.83875149 88.09119417 30.48196898 89.63936859 30.125 91.1875 C29.95097656 91.95642578 29.77695312 92.72535156 29.59765625 93.51757812 C27.55954858 102.31163531 27.55954858 102.31163531 26 105 C23.35546875 106.546875 23.35546875 106.546875 20.1875 107.75 C19.14980469 108.15734375 18.11210937 108.5646875 17.04296875 108.984375 C9.97538933 111.34325902 9.97538933 111.34325902 6.57888889 110.14796257 C0.50345937 106.38797136 0.50345937 106.38797136 -0.81064034 102.76517105 C-1.11094463 100.03142215 -1.11435542 97.42901544 -1.02172852 94.68017578 C-1.02304276 93.65517471 -1.02435699 92.63017365 -1.02571106 91.57411194 C-1.01945519 88.19608251 -0.94953179 84.82255797 -0.87890625 81.4453125 C-0.86211479 79.0997868 -0.84930617 76.75422947 -0.84031677 74.40866089 C-0.80599572 68.24288377 -0.71762432 62.07902281 -0.61798096 55.91400146 C-0.52582042 49.62001468 -0.48478887 43.32571742 -0.43945312 37.03125 C-0.34300437 24.68652375 -0.18472952 12.34372118 0 0 Z " fill="#39484C" transform="translate(371,241)"/>
<path d="M0 0 C6.86731699 5.77875989 11.9860468 11.76278368 13.3046875 20.79296875 C13.78734253 29.02735604 10.89864008 36.79805478 5.68359375 43.1171875 C-0.4835587 49.57549307 -6.8184232 51.80072679 -15.62890625 52.0546875 C-23.60256594 51.9718873 -29.13200777 50.18492892 -35.06640625 44.8125 C-42.22581474 37.14596674 -43.65639005 30.80327456 -43.41015625 20.41015625 C-42.600049 12.97119068 -39.57051815 7.8454475 -34.19140625 2.7421875 C-24.75226494 -4.66928642 -10.4226747 -6.97471993 0 0 Z " fill="#FDFEFD" transform="translate(263.00390625,308.3203125)"/>
<path d="M0 0 C5.293321 3.01097814 9.46246551 7.78655863 11.75 13.4375 C12.71629804 21.63220934 11.43988983 28.16668466 6.3125 34.75 C4.08750286 37.08353358 2.75919208 38.43443597 -0.25 39.4375 C-1.24 39.4375 -2.23 39.4375 -3.25 39.4375 C-3.25 56.5975 -3.25 73.7575 -3.25 91.4375 C-6.88 91.4375 -10.51 91.4375 -14.25 91.4375 C-14.24363525 89.91350586 -14.23727051 88.38951172 -14.23071289 86.81933594 C-14.21628999 81.16838037 -14.24757613 75.51844371 -14.29272461 69.86767578 C-14.30586953 67.42142195 -14.30659399 64.97506872 -14.29467773 62.52880859 C-14.27970166 59.01299618 -14.30929167 55.4999597 -14.34765625 51.984375 C-14.33340103 50.8894574 -14.31914581 49.79453979 -14.30445862 48.66644287 C-14.20018793 43.2821068 -14.20018793 43.2821068 -16.80836487 38.88926697 C-18.91254902 37.62804077 -18.91254902 37.62804077 -22.25 36.4375 C-26.53057975 32.60750759 -28.89263372 28.09025737 -29.65625 22.421875 C-29.8539078 15.6026808 -29.43924125 10.77782903 -25.14453125 5.31640625 C-18.07275981 -1.6970413 -9.3246011 -4.08506334 0 0 Z " fill="#FFFEFC" transform="translate(129.25,113.5625)"/>
<path d="M0 0 C1.62215675 0.00333092 1.62215675 0.00333092 3.27708435 0.00672913 C4.49827469 0.00680466 5.71946503 0.00688019 6.97766113 0.00695801 C8.32022644 0.0120654 9.66279134 0.01728141 11.00535583 0.02259827 C12.37156116 0.02446252 13.73776716 0.02588639 15.10397339 0.02688599 C18.70596654 0.03071058 22.30791959 0.04054035 25.90989685 0.05158997 C29.58298703 0.06180536 33.25608368 0.06638388 36.92918396 0.07142639 C44.14079081 0.08216268 51.35236459 0.09923838 58.56394958 0.12025452 C58.68038263 4.01583539 58.75127868 7.9109671 58.81394958 11.80775452 C58.86422302 13.46194397 58.86422302 13.46194397 58.91551208 15.14955139 C59.01422832 23.31832004 59.01422832 23.31832004 56.79832458 27.26478577 C53.27260798 30.19260987 50.58665227 31.36292187 45.99827576 31.44252014 C44.65118782 31.47134277 44.65118782 31.47134277 43.27688599 31.50074768 C42.31329666 31.50924744 41.34970734 31.51774719 40.35691833 31.52650452 C39.35816177 31.53790466 38.35940521 31.54930481 37.3303833 31.56105042 C35.21809615 31.5799288 33.10575038 31.59300983 30.99339294 31.60072327 C27.77301986 31.62012457 24.55520733 31.68217485 21.33543396 31.74525452 C19.28011053 31.75831697 17.2247689 31.76881698 15.16941833 31.77650452 C14.2119017 31.80119812 13.25438507 31.82589172 12.26785278 31.85133362 C6.30224323 31.81187778 3.12940052 30.79808752 -1.17999268 26.60499573 C-3.56798897 23.78223018 -3.56436166 21.75857331 -3.56886292 18.14759827 C-3.57015198 17.16597717 -3.57144104 16.18435608 -3.57276917 15.17298889 C-3.56890198 14.14496155 -3.56503479 13.1169342 -3.56105042 12.05775452 C-3.5649176 11.02585999 -3.56878479 9.99396545 -3.57276917 8.93080139 C-3.5714801 7.95046936 -3.57019104 6.97013733 -3.56886292 5.96009827 C-3.56717102 4.6045282 -3.56717102 4.6045282 -3.56544495 3.22157288 C-3.37768384 0.17240332 -3.06488327 0.15129656 0 0 Z " fill="#5353FD" transform="translate(92.43605041503906,239.87974548339844)"/>
<path d="M0 0 C5.17909282 4.18910694 6.81337749 9.50470829 7.58203125 15.91015625 C6.99827324 21.94232235 4.90418748 27.48155394 0.19921875 31.5 C-5.59198587 35.18628338 -10.93184351 36.8496319 -17.79296875 35.78515625 C-23.77842666 33.54171795 -27.86120037 30.50354126 -30.91796875 24.84765625 C-33.51287975 18.65126734 -33.39930876 14.07180739 -31.35546875 7.72265625 C-28.97454837 2.12450654 -25.19604359 -0.63696825 -19.79296875 -3.21484375 C-11.95066982 -5.60033392 -6.76129076 -4.39328109 0 0 Z " fill="#E2E2E2" transform="translate(430.79296875,402.21484375)"/>
<path d="M0 0 C2 2 2 2 2.3125 5.5 C2.209375 6.655 2.10625 7.81 2 9 C-1.56945721 11.37963814 -3.81801875 11.45184724 -8.0625 11.875 C-22.26749442 13.55990519 -31.92437371 19.73999102 -41.20703125 30.5234375 C-47.15615693 38.74074836 -49.09878455 47.04528107 -49.5234375 56.96875 C-50 60 -50 60 -51.34765625 61.88671875 C-53.90629211 63.61062234 -56.00582184 63.31852959 -59 63 C-61.83489511 60.16510489 -61.36755928 58.21605004 -61.4375 54.25 C-61.39509194 39.59624975 -54.52410316 26.80253938 -44.6875 16.1875 C-32.6105627 4.90835583 -16.5765429 -1.75851001 0 0 Z " fill="#FFFDFA" transform="translate(123,62)"/>
<path d="M0 0 C5.86967695 1.69524894 11.13526319 4.43694277 16.5625 7.1875 C18.02163818 7.92190308 18.02163818 7.92190308 19.51025391 8.67114258 C26.7415789 12.3252504 33.90921348 16.07999915 41 20 C41 22.97 41 25.94 41 29 C27.54892457 36.50637675 14.01018528 43.59349495 0 50 C0 45.71 0 41.42 0 37 C7.92 33.04 15.84 29.08 24 25 C17.97314669 21.84247917 17.97314669 21.84247917 11.94458008 18.68823242 C10.35617259 17.8541541 8.77244482 17.01112422 7.19262695 16.16088867 C5.45735221 15.24214562 3.68690166 14.3898735 1.90625 13.5625 C0 12 0 12 -0.48828125 9.08203125 C-0.43027344 8.00308594 -0.37226563 6.92414063 -0.3125 5.8125 C-0.26738281 4.72582031 -0.22226562 3.63914063 -0.17578125 2.51953125 C-0.11777344 1.68808594 -0.05976563 0.85664063 0 0 Z " fill="#FBFBFF" transform="translate(424,137)"/>
<path d="M0 0 C0 3.96 0 7.92 0 12 C-0.97839844 12.51949219 -1.95679688 13.03898438 -2.96484375 13.57421875 C-4.28908547 14.27860265 -5.61330291 14.98303221 -6.9375 15.6875 C-7.57751953 16.02716797 -8.21753906 16.36683594 -8.87695312 16.71679688 C-13.95159043 19.41822072 -18.98205308 22.19480557 -24 25 C-23.30849854 25.35827881 -22.61699707 25.71655762 -21.90454102 26.08569336 C-18.7895148 27.70101838 -15.67599157 29.31921913 -12.5625 30.9375 C-11.47388672 31.50146484 -10.38527344 32.06542969 -9.26367188 32.64648438 C-8.22919922 33.18466797 -7.19472656 33.72285156 -6.12890625 34.27734375 C-5.17056885 34.77484131 -4.21223145 35.27233887 -3.22485352 35.78491211 C-1 37 -1 37 0 38 C0.07244053 40.01964199 0.08377188 42.04167124 0.0625 44.0625 C0.05347656 45.16722656 0.04445313 46.27195313 0.03515625 47.41015625 C0.02355469 48.26480469 0.01195312 49.11945313 0 50 C-3.52295342 48.63766979 -6.9024659 47.1130479 -10.28125 45.42578125 C-11.78365234 44.67603027 -11.78365234 44.67603027 -13.31640625 43.91113281 C-14.36699219 43.38358398 -15.41757812 42.85603516 -16.5 42.3125 C-17.57121094 41.77592773 -18.64242188 41.23935547 -19.74609375 40.68652344 C-27.23745443 36.92041211 -34.66753779 33.06722513 -42 29 C-42 26.36 -42 23.72 -42 21 C-31.32851957 15.09928138 -20.6473325 9.22569001 -9.75 3.75 C-8.99477051 3.36787354 -8.23954102 2.98574707 -7.46142578 2.59204102 C-2.24828092 0 -2.24828092 0 0 0 Z " fill="#FBFBFF" transform="translate(376,137)"/>
<path d="M0 0 C3.96 0 7.92 0 12 0 C11.22752626 3.86236872 10.36119785 6.97056686 8.97460938 10.60058594 C8.55747681 11.69812195 8.14034424 12.79565796 7.71057129 13.92645264 C7.25952026 15.10056702 6.80846924 16.2746814 6.34375 17.484375 C5.88141968 18.69571106 5.41908936 19.90704712 4.94274902 21.15509033 C3.96677247 23.71129127 2.9880768 26.2664286 2.00732422 28.82080078 C0.74844 32.09998536 -0.50447631 35.38141098 -1.75550079 38.66360092 C-2.94878049 41.7924336 -4.14638261 44.91960427 -5.34375 48.046875 C-5.79480103 49.2290863 -6.24585205 50.41129761 -6.71057129 51.6293335 C-7.33627014 53.25672455 -7.33627014 53.25672455 -7.97460938 54.91699219 C-8.3424353 55.87675964 -8.71026123 56.8365271 -9.0892334 57.82537842 C-10 60 -10 60 -11 61 C-12.85287502 61.07226502 -14.70833878 61.0838122 -16.5625 61.0625 C-17.57441406 61.05347656 -18.58632813 61.04445312 -19.62890625 61.03515625 C-20.41136719 61.02355469 -21.19382812 61.01195312 -22 61 C-21.35978768 54.85147165 -19.02428381 49.37208487 -16.81640625 43.65234375 C-16.40083969 42.56288956 -15.98527313 41.47343536 -15.55711365 40.35096741 C-14.23081705 36.87778078 -12.8967277 33.40764656 -11.5625 29.9375 C-10.66811471 27.59850036 -9.77422894 25.25930965 -8.88085938 22.91992188 C-2.68845361 6.72113403 -2.68845361 6.72113403 0 0 Z " fill="#FCFCFF" transform="translate(407,127)"/>
<path d="M0 0 C0.66 0 1.32 0 2 0 C2.41572266 1.35544922 2.41572266 1.35544922 2.83984375 2.73828125 C3.20207031 3.91777344 3.56429688 5.09726563 3.9375 6.3125 C4.29714844 7.48425781 4.65679687 8.65601563 5.02734375 9.86328125 C5.66372279 11.91553977 6.32053379 13.96160137 7 16 C10.45041465 17.70375715 14.10177809 18.64143516 17.8125 19.625 C19.27623047 20.01558594 19.27623047 20.01558594 20.76953125 20.4140625 C21.50558594 20.60742188 22.24164063 20.80078125 23 21 C23 21.66 23 22.32 23 23 C22.11957031 23.21914063 21.23914063 23.43828125 20.33203125 23.6640625 C12.96600174 25.40056448 12.96600174 25.40056448 6.875 29.5625 C4.35360795 34.1850521 3.12127861 38.87675954 2 44 C1.34 44 0.68 44 0 44 C-0.15855469 43.27554688 -0.31710938 42.55109375 -0.48046875 41.8046875 C-2.36159735 33.26432163 -2.36159735 33.26432163 -8 27 C-12.26094332 25.34843145 -16.56804825 24.10312123 -21 23 C-21 22.34 -21 21.68 -21 21 C-19.89591797 20.70996094 -19.89591797 20.70996094 -18.76953125 20.4140625 C-17.79371094 20.15367188 -16.81789062 19.89328125 -15.8125 19.625 C-14.84957031 19.36976562 -13.88664063 19.11453125 -12.89453125 18.8515625 C-11.93933594 18.57054688 -10.98414063 18.28953125 -10 18 C-9.09636719 17.73960938 -8.19273437 17.47921875 -7.26171875 17.2109375 C-4.82486979 16.17513021 -4.82486979 16.17513021 -3.7890625 13.73828125 C-3.52867187 12.83464844 -3.26828125 11.93101563 -3 11 C-2.71898437 10.04480469 -2.43796875 9.08960938 -2.1484375 8.10546875 C-1.89320313 7.14253906 -1.63796875 6.17960938 -1.375 5.1875 C-1.11460937 4.21167969 -0.85421875 3.23585937 -0.5859375 2.23046875 C-0.39257812 1.49441406 -0.19921875 0.75835937 0 0 Z " fill="#C2C2FF" transform="translate(255,0)"/>
<path d="M0 0 C2 1 2 1 3.03515625 3.8359375 C3.37417969 5.00382812 3.71320312 6.17171875 4.0625 7.375 C4.57490234 9.11910156 4.57490234 9.11910156 5.09765625 10.8984375 C5.39542969 11.92195313 5.69320312 12.94546875 6 14 C6.33 14.99 6.66 15.98 7 17 C10.45041465 18.70375715 14.10177809 19.64143516 17.8125 20.625 C19.27623047 21.01558594 19.27623047 21.01558594 20.76953125 21.4140625 C21.50558594 21.60742188 22.24164063 21.80078125 23 22 C22 24 22 24 19.453125 24.89453125 C17.86757812 25.34892578 17.86757812 25.34892578 16.25 25.8125 C9.63112708 27.96897772 9.63112708 27.96897772 5 33 C4.07115701 35.87283739 3.31863325 38.72185478 2.67578125 41.671875 C2.34126953 42.82429688 2.34126953 42.82429688 2 44 C1.01 44.495 1.01 44.495 0 45 C-0.21914063 44.11957031 -0.43828125 43.23914063 -0.6640625 42.33203125 C-2.40456327 34.9440821 -2.40456327 34.9440821 -6.625 28.875 C-10.3276065 26.81799639 -13.82495888 25.67493528 -17.92578125 24.67578125 C-18.95251953 24.34126953 -18.95251953 24.34126953 -20 24 C-20.33 23.34 -20.66 22.68 -21 22 C-20.10796875 21.75765625 -19.2159375 21.5153125 -18.296875 21.265625 C-17.12640625 20.93046875 -15.9559375 20.5953125 -14.75 20.25 C-13.00976562 19.76273437 -13.00976562 19.76273437 -11.234375 19.265625 C-7.75917589 17.90576448 -6.21390344 16.97870645 -4 14 C-2.66323517 10.52641221 -2.66323517 10.52641221 -1.75 6.75 C-1.24726562 4.85507812 -1.24726562 4.85507812 -0.734375 2.921875 C-0.49203125 1.95765625 -0.2496875 0.9934375 0 0 Z " fill="#FF8A7F" transform="translate(32,267)"/>
<path d="M0 0 C2.91714801 -0.27570606 5.5886826 -0.3722561 8.5 -0.3125 C9.67755859 -0.31733398 9.67755859 -0.31733398 10.87890625 -0.32226562 C16.73296131 -0.26703869 16.73296131 -0.26703869 19 2 C19.4375 5.4375 19.4375 5.4375 19 9 C15.98275854 12.22532707 12.70848107 12.23301346 8.5 12.375 C1.0285769 12.13301059 1.0285769 12.13301059 -2 9 C-2.59587577 4.91399472 -2.31567384 3.47351075 0 0 Z " fill="#FFBE4C" transform="translate(222,103)"/>
<path d="M0 0 C0.67675781 -0.02449219 1.35351562 -0.04898438 2.05078125 -0.07421875 C5.30210445 -0.09345735 7.04266217 -0.0479923 9.4765625 2.203125 C10.9308339 5.28928874 10.47815831 7.16105126 9.5 10.375 C5.82077133 12.82781911 3.87740649 12.64323919 -0.5 12.625 C-1.7375 12.63015625 -2.975 12.6353125 -4.25 12.640625 C-7.5 12.375 -7.5 12.375 -10.5 10.375 C-10.8984375 8.5 -10.8984375 8.5 -10.875 6.375 C-10.88273438 5.67375 -10.89046875 4.9725 -10.8984375 4.25 C-9.81980098 -0.82593656 -4.10512999 0.0078193 0 0 Z " fill="#FFBE4C" transform="translate(10.5,102.625)"/>
<path d="M0 0 C1.9375 1.6875 1.9375 1.6875 3 4 C2.38198055 9.43857116 -1.08074908 12.79360439 -4.90234375 16.4140625 C-7 18 -7 18 -10.3125 18.75 C-13 18 -13 18 -14.875 16.3125 C-16.23466464 13.51763379 -16.3995895 12.08319627 -16 9 C-14.1015625 6.578125 -14.1015625 6.578125 -11.625 4.25 C-10.40683594 3.08210938 -10.40683594 3.08210938 -9.1640625 1.890625 C-5.78213253 -1.0639853 -4.2869483 -1.35927629 0 0 Z " fill="#FFBE4C" transform="translate(212,39)"/>
<path d="M0 0 C2.40975706 3.61463559 2.33239432 6.3221926 2.3125 10.5 C2.32861328 11.17675781 2.34472656 11.85351562 2.36132812 12.55078125 C2.36420206 15.46495095 2.34392777 17.49873285 0.66796875 19.94140625 C-1.98654358 21.62612016 -3.94586585 21.44539456 -7 21 C-9.52707503 18.59156699 -9.98211319 17.15028424 -10.3984375 13.65234375 C-10.38683594 11.81349609 -10.38683594 11.81349609 -10.375 9.9375 C-10.38273437 8.70902344 -10.39046875 7.48054687 -10.3984375 6.21484375 C-10 3 -10 3 -8.69921875 1.08984375 C-5.83263828 -0.74872166 -3.28579027 -0.35844985 0 0 Z " fill="#FFBE4D" transform="translate(124,0)"/>
<path d="M0 0 C5.00166157 0.20048854 7.94971265 3.81482623 11.171875 7.2890625 C12.9375 9.75 12.9375 9.75 13.625 13.6875 C12.9375 16.75 12.9375 16.75 10.9375 18.75 C7.8125 19.375 7.8125 19.375 3.9375 18.75 C-0.63480276 15.54776669 -3.60012711 12.31693037 -5.1875 6.9375 C-5.01662976 2.58030887 -4.32057108 1.05809904 0 0 Z " fill="#FFBF4C" transform="translate(31.0625,38.25)"/>
<path d="M0 0 C2.15502531 3.23253796 2.46856135 4.25150923 2 8 C0.875 9.8125 0.875 9.8125 -1 11 C-4.14924548 11.39365568 -6.11909116 11.52854531 -8.875 9.875 C-10.54663625 7.08893958 -10.46376624 5.18011138 -10 2 C-6.96457461 -1.61916104 -4.32701626 -1.31691799 0 0 Z " fill="#F6F6FE" transform="translate(491,55)"/>
<path d="M0 0 C1.8125 1.125 1.8125 1.125 3 3 C3.39365568 6.14924548 3.52854531 8.11909116 1.875 10.875 C-0.91106042 12.54663625 -2.81988862 12.46376624 -6 12 C-7.9375 10.375 -7.9375 10.375 -9 8 C-8.875 4.875 -8.875 4.875 -8 2 C-4.76746204 -0.15502531 -3.74849077 -0.46856135 0 0 Z " fill="#F5F5FE" transform="translate(438,54)"/>
<path d="M0 0 C2.9375 0.75 2.9375 0.75 4.9375 2.75 C5.26765665 5.85347254 5.44281294 7.90781176 3.8125 10.625 C1.02643958 12.29663625 -0.88238862 12.21376624 -4.0625 11.75 C-6 10.125 -6 10.125 -7.0625 7.75 C-6.9375 4.625 -6.9375 4.625 -6.0625 1.75 C-3.0625 -0.25 -3.0625 -0.25 0 0 Z " fill="#F7F7FE" transform="translate(462.0625,54.25)"/>
</svg>
