<?xml version="1.0" encoding="UTF-8"?>
<svg version="1.1" xmlns="http://www.w3.org/2000/svg" width="512" height="512">
<path d="M0 0 C1.13759281 -0.00480972 1.13759281 -0.00480972 2.29816729 -0.0097166 C4.83604306 -0.0180091 7.37368238 -0.01209496 9.91156197 -0.00622082 C11.75085166 -0.00924184 13.5901401 -0.01313108 15.42942631 -0.01781338 C20.48135889 -0.02810843 25.53322063 -0.02590772 30.58515906 -0.02163279 C36.03448298 -0.01916831 41.48378972 -0.02817627 46.93310738 -0.03567028 C57.60799077 -0.04842701 68.28284901 -0.05020976 78.95773874 -0.04787002 C87.63360427 -0.0460878 96.30946215 -0.04783444 104.98532677 -0.05209446 C106.21959094 -0.05268965 107.45385512 -0.05328484 108.72552124 -0.05389806 C111.23284093 -0.0551098 113.74016061 -0.05632393 116.24748029 -0.05754044 C137.08702195 -0.06717998 157.92655309 -0.06761848 178.76609574 -0.06223653 C179.42878968 -0.06206544 180.09148361 -0.06189435 180.77425919 -0.06171808 C182.11438703 -0.06137142 183.45451487 -0.06102289 184.79464271 -0.06067249 C205.64720064 -0.05531525 226.49971627 -0.06324605 247.35226631 -0.08170605 C270.78406672 -0.1024251 294.21584501 -0.11311786 317.64765561 -0.10913056 C330.0529397 -0.10721693 342.45818527 -0.10972186 354.86346245 -0.1238451 C365.42408363 -0.13574646 375.98464257 -0.13717775 386.54526459 -0.12505493 C391.93367769 -0.11915754 397.32197688 -0.11809064 402.71038246 -0.13005733 C407.64387469 -0.14088646 412.57715749 -0.13784813 417.5106398 -0.12379565 C419.29456263 -0.12114054 421.07850172 -0.12354075 422.86240862 -0.13153151 C442.27738658 -0.21245599 442.27738658 -0.21245599 449.53830147 4.90291309 C450.06552803 5.47267872 450.59275459 6.04244434 451.13595772 6.62947559 C451.95386787 7.47638966 451.95386787 7.47638966 452.78830147 8.34041309 C455.82764872 12.46584288 456.44940211 16.2631531 456.46131325 21.31065464 C456.46899554 22.53424804 456.47667783 23.75784145 456.48459291 25.01851344 C456.48303254 26.37318905 456.48127499 27.72786443 456.47934151 29.08253956 C456.48451051 30.52412396 456.49053731 31.96570549 456.49734831 33.40728307 C456.51347484 37.36917613 456.51706669 41.33099669 456.51854324 45.29291868 C456.52224669 49.56572791 456.53734248 53.83849961 456.55081367 58.11128712 C456.57797114 67.45426735 456.59002813 76.7972304 456.59883499 86.14024353 C456.60436104 91.97420522 456.61283594 97.80816029 456.62184334 103.6421175 C456.64622681 119.79534838 456.66682624 135.94857396 456.67359352 152.10182285 C456.67425222 153.65240927 456.67425222 153.65240927 456.67492422 155.23432066 C456.67536078 156.27051282 456.67579734 157.30670498 456.67624712 158.3742969 C456.67713405 160.47400491 456.67802718 162.57371291 456.67892647 164.67342091 C456.67959076 166.23571121 456.67959076 166.23571121 456.68026847 167.82956293 C456.6881651 184.70734534 456.72307594 201.58495507 456.76964551 218.46267077 C456.81707417 235.79161958 456.84199727 253.12048174 456.84432936 270.44949651 C456.84616273 280.17881281 456.85766383 289.90790408 456.89396858 299.63715839 C456.92477284 307.92150703 456.93501042 316.20556109 456.91849238 324.48995611 C456.91067997 328.71603394 456.91253345 332.94151859 456.94060707 337.16752338 C456.96609164 341.03922623 456.96368743 344.90989046 456.93942565 348.78159192 C456.93551248 350.17931526 456.9416658 351.57711223 456.95911437 352.97473213 C457.06060802 361.65658602 456.26309703 367.74387862 450.19845772 374.25447559 C444.92437644 378.89959003 440.09740104 379.3797698 433.26358223 379.37473011 C432.56596063 379.37558454 431.86833903 379.37643896 431.14957738 379.37731928 C428.81265457 379.37896601 426.47580359 379.3734659 424.13888741 379.36800098 C422.46344187 379.36771891 420.7879962 379.36787724 419.11255074 379.36844349 C414.5633351 379.36873068 410.01414577 379.36284649 405.46493626 379.35586953 C400.71101133 379.34962308 395.95708582 379.34903117 391.20315742 379.34784412 C382.20054592 379.34473463 373.19794655 379.33652636 364.19534039 379.32649463 C353.94635118 379.31532167 343.69736139 379.30982006 333.4483676 379.3047992 C312.36505603 379.29434345 291.28176109 379.27600269 270.19845772 379.25447559 C270.52845772 389.81447559 270.85845772 400.37447559 271.19845772 411.25447559 C279.30010287 415.22682902 279.30010287 415.22682902 287.41086006 419.18050098 C307.32224444 429.03970218 307.32224444 429.03970218 310.64767647 437.21931934 C312.15447834 442.78700568 311.58995196 447.98920398 309.37033272 453.29744434 C306.45411015 458.16753604 302.32771289 461.5456034 296.9723444 463.3285141 C293.311289 464.22679129 290.24577445 464.50836693 286.48814583 464.515172 C284.52214172 464.52579922 284.52214172 464.52579922 282.51642036 464.53664112 C281.08108676 464.53434775 279.64575349 464.53183811 278.21042061 464.5291338 C276.68543944 464.53348521 275.16046046 464.53866979 273.6354847 464.54462147 C269.50736976 464.55797592 265.37934658 464.55859415 261.25121427 464.55605817 C257.79948871 464.55498614 254.34778154 464.55987771 250.89605993 464.56466359 C242.75050722 464.57574628 234.60500064 464.57620302 226.45944405 464.57014942 C218.06777773 464.56410866 209.67627905 464.57642606 201.28464133 464.59771949 C194.06828816 464.61535459 186.85198825 464.62133388 179.63561434 464.61808175 C175.33066492 464.61627194 171.02583512 464.6188749 166.7209053 464.63279629 C162.67181222 464.6454013 158.62297991 464.64340541 154.57389069 464.6303854 C153.09207889 464.62802595 151.61024858 464.63073159 150.12845802 464.63900852 C139.80993459 464.69246803 131.54643232 464.26330485 123.67502022 456.98494434 C119.89869699 452.55925337 118.56277263 447.0053118 118.86642647 441.25838184 C119.66771272 436.42238362 121.41619053 432.75700988 125.20504951 429.5628252 C131.73363227 425.02047452 138.48912921 421.35393376 145.63595772 417.87947559 C146.71039131 417.34709278 147.78482491 416.81470997 148.89181709 416.26619434 C156.68602734 412.42528572 156.68602734 412.42528572 160.19845772 411.25447559 C160.19845772 400.69447559 160.19845772 390.13447559 160.19845772 379.25447559 C152.52873726 379.27804127 152.52873726 379.27804127 144.70407295 379.30208302 C127.82453427 379.35175607 110.94499275 379.38506826 94.06540012 379.40991211 C83.82968545 379.42537789 73.59404004 379.44646194 63.35836983 379.48079395 C54.4364726 379.5107051 45.51462554 379.5300527 36.59267956 379.53674108 C31.86901486 379.54065042 27.14549368 379.54983198 22.421875 379.57166576 C17.9740156 379.59205797 13.52635858 379.59830385 9.07845688 379.59379864 C7.44786542 379.59462261 5.81726705 379.600572 4.18671608 379.61209202 C1.95559645 379.62707929 -0.27476505 379.62340701 -2.50590324 379.61523914 C-3.75308915 379.61800452 -5.00027506 379.6207699 -6.28525448 379.62361908 C-12.37290254 378.98453157 -17.3841583 376.55247082 -21.80154228 372.25447559 C-26.82594718 365.69205461 -26.36222876 359.15838205 -26.30274773 351.16571522 C-26.30664281 349.7202643 -26.31228491 348.27481721 -26.31951863 346.82937914 C-26.33426154 342.86609058 -26.32409916 338.90319981 -26.30978191 334.93992412 C-26.29866943 330.66243569 -26.31061559 326.38500294 -26.31962395 322.1075182 C-26.33355618 313.73165633 -26.32600053 305.35594523 -26.31094836 296.98009055 C-26.29408846 287.22712707 -26.29729847 277.47420115 -26.30104245 267.72122759 C-26.30692092 250.32074007 -26.29274953 232.92032491 -26.26809502 215.51985645 C-26.2441706 198.63278459 -26.23709222 181.74580941 -26.2475872 164.85872364 C-26.25899428 146.47108352 -26.26092936 128.08348811 -26.24648911 109.69584852 C-26.24496326 107.73552295 -26.2434429 105.77519737 -26.2419281 103.81487179 C-26.24117029 102.85034238 -26.24041247 101.88581297 -26.23963169 100.8920554 C-26.23488753 94.09252088 -26.23674122 87.29300632 -26.2409935 80.4934721 C-26.24591809 72.20876545 -26.23994495 63.92415024 -26.2200992 55.63946455 C-26.21022194 51.41189738 -26.20512679 47.18446949 -26.21299171 42.95689487 C-26.22004303 39.08751983 -26.21325691 35.21842596 -26.19538809 31.34908802 C-26.19134004 29.94880136 -26.19234947 28.54848911 -26.19890695 27.14821195 C-26.20705633 25.24524663 -26.19495035 23.34222683 -26.18185902 21.43928909 C-26.18082989 20.382145 -26.17980076 19.3250009 -26.17874044 18.23582214 C-25.5004468 12.87463905 -23.07300653 9.01119242 -19.05154228 5.50447559 C-18.10021416 4.64595997 -18.10021416 4.64595997 -17.12966728 3.77010059 C-11.87949248 0.35220156 -6.10775427 -0.03866047 0 0 Z M-10.80154228 15.25447559 C-14.3817866 21.26676359 -14.21778294 26.98038168 -14.16230583 33.84003162 C-14.16487389 34.99886356 -14.16744194 36.1576955 -14.17008781 37.35164356 C-14.17418003 40.5612768 -14.16480709 43.77054456 -14.14976047 46.98013465 C-14.13663454 50.49698023 -14.14104601 54.0138125 -14.14321423 57.53067589 C-14.14480748 64.35355526 -14.13097241 71.17631593 -14.11171024 77.99916482 C-14.09009192 85.89324003 -14.087725 93.78724415 -14.08535576 101.68135548 C-14.06961118 122.51824763 -14.02772775 143.3551134 -13.98904228 164.19197559 C-13.92716728 210.74260059 -13.86529228 257.29322559 -13.80154228 305.25447559 C137.33845772 305.25447559 288.47845772 305.25447559 444.19845772 305.25447559 C444.26033272 258.70385059 444.32220772 212.15322559 444.38595772 164.19197559 C444.41326973 149.48111378 444.44058174 134.77025196 444.46872139 119.61360645 C444.47875328 106.45309268 444.47875328 106.45309268 444.48478889 93.29257679 C444.48758939 87.42034787 444.49860608 81.54820433 444.5151844 75.67599964 C444.53427304 68.9046151 444.54296728 62.13331261 444.53879257 55.36190096 C444.53698434 51.89760165 444.53986257 48.43348575 444.55610311 44.96922004 C444.57098413 41.2593402 444.56744265 37.54992165 444.55922127 33.84003162 C444.56795926 32.75959363 444.57669725 31.67915564 444.58570004 30.5659771 C444.55080331 24.72290346 444.22147053 20.33100724 441.19845772 15.25447559 C437.67144743 12.75465847 433.9407698 12.97501089 429.7833271 13.00279331 C428.65374474 12.99843299 428.65374474 12.99843299 427.50134254 12.99398458 C424.96361443 12.98665277 422.4261257 12.9936427 419.88839912 13.00050831 C418.05638505 12.99820513 416.2243719 12.99502958 414.39236069 12.99105382 C409.34679679 12.98267749 404.30130821 12.98684394 399.25574398 12.99302626 C393.81873556 12.99753817 388.38174039 12.99057327 382.94473457 12.98506641 C372.28916269 12.97615726 361.63361894 12.97810119 350.97804594 12.9838917 C342.32065887 12.9884022 333.6632797 12.98902374 325.0058918 12.98684406 C323.77532826 12.9865376 322.54476472 12.98623113 321.27691138 12.98591538 C318.77731244 12.98527595 316.2777135 12.98462752 313.77811456 12.9839702 C290.98971494 12.97842526 268.20132889 12.98418275 245.41293183 12.99465539 C224.60119786 13.0041469 203.78948835 13.00329765 182.97775459 12.99373341 C159.60608702 12.98302867 136.23443223 12.9788118 112.86276245 12.98495793 C110.37218285 12.98559505 107.88160324 12.9862238 105.39102364 12.98684406 C103.5527404 12.98730689 103.5527404 12.98730689 101.67732012 12.98777907 C93.0269123 12.98950839 84.37651313 12.9865858 75.72610664 12.98188496 C65.18906773 12.97628492 54.65205862 12.97777404 44.11502314 12.98844644 C38.73537524 12.993715 33.3557771 12.99573981 27.97612953 12.98914814 C23.05638718 12.98321101 18.13674096 12.98642663 13.2170074 12.99710324 C11.43241177 12.9993468 9.6478081 12.99817973 7.86321759 12.99335167 C5.44655732 12.98731255 3.03023087 12.99346478 0.61358833 13.00279331 C-0.0870896 12.99811098 -0.78776753 12.99342865 -1.50967813 12.98860443 C-5.08666404 13.01639781 -7.83541807 13.1521942 -10.80154228 15.25447559 Z M-13.80154228 318.25447559 C-15.73746364 342.0655866 -15.73746364 342.0655866 -10.80154228 364.25447559 C-7.20497382 366.6521879 -4.63333972 366.53702596 -0.48101807 366.51453781 C0.27396015 366.51834348 1.02893836 366.52214915 1.8067947 366.52607015 C4.35708487 366.5364428 6.90715481 366.53246938 9.4574604 366.52863026 C11.29614929 366.53307958 13.13483626 366.53839261 14.9735204 366.54449898 C20.04220588 366.55872596 25.11083018 366.56034139 30.17953277 366.55990207 C35.63976237 366.56154614 41.09996646 366.57460486 46.56018257 366.58609486 C58.50624028 366.6089751 70.45228026 366.61686857 82.39835691 366.6219213 C89.85276461 366.62517452 97.30716712 366.63169468 104.76157188 366.63892269 C125.38748891 366.65849181 146.0134011 366.67489444 166.639328 366.67779922 C167.29925954 366.67789329 167.95919107 366.67798735 168.63912053 366.67808426 C171.31362735 366.67846275 173.98813416 366.67882674 176.66264098 366.67918724 C178.67571921 366.67945896 180.68879745 366.67973564 182.70187569 366.6800127 C183.36707307 366.68010073 184.03227046 366.68018875 184.71762534 366.68027944 C205.62322432 366.68318553 226.52873088 366.70528624 247.43429756 366.74153614 C270.90997696 366.78224133 294.38560923 366.80593803 317.86132824 366.80625874 C330.29564253 366.8068443 342.72983787 366.81540019 355.16412163 366.8442564 C365.74986744 366.86870919 376.33545092 366.8760945 386.92121731 366.86100888 C392.32538747 366.85381518 397.7292367 366.854803 403.13337135 366.87741947 C408.07680183 366.89791031 413.01966263 366.89550226 417.96308626 366.87454463 C419.75513712 366.8710307 421.54722826 366.87603954 423.33922623 366.89024907 C425.76893321 366.90827951 428.19660786 366.89571735 430.62625122 366.87530136 C431.32779668 366.88786473 432.02934213 366.90042811 432.75214654 366.91337219 C436.55590243 366.84459419 438.11085687 366.32523918 441.10922062 363.90317398 C450.77429323 351.64996331 444.19845772 331.12131986 444.19845772 318.25447559 C293.05845772 318.25447559 141.91845772 318.25447559 -13.80154228 318.25447559 Z M173.19845772 379.25447559 C172.86845772 391.79447559 172.53845772 404.33447559 172.19845772 417.25447559 C168.62201437 420.83091894 165.61371898 422.82692091 161.20236397 425.00447559 C160.53180473 425.34446583 159.8612455 425.68445606 159.17036629 426.03474903 C157.03755286 427.11542867 154.89984581 428.18587543 152.76095772 429.25447559 C150.6260135 430.32375718 148.49240713 431.39539156 146.36226082 432.47420216 C145.04064974 433.1433372 143.71628618 433.80707326 142.38878059 434.46443653 C138.61953623 436.37041788 135.40094836 438.50219843 132.19845772 441.25447559 C132.61495423 445.4449268 132.61495423 445.4449268 134.57345772 449.06697559 C137.9771833 451.55431352 141.23623346 451.38405365 145.29608345 451.39491749 C146.57193306 451.40062763 147.84778267 451.40633778 149.16229439 451.41222095 C150.57913389 451.4134663 151.9959735 451.4145914 153.41281319 451.41560841 C154.90266226 451.42023693 156.39251014 451.42526164 157.88235664 451.43065357 C161.93197189 451.44377533 165.98157056 451.45022196 170.03120375 451.45466423 C172.56082539 451.45759501 175.09044251 451.4616998 177.62006187 451.4661684 C185.5335268 451.47984206 193.44698138 451.48950965 201.3604573 451.49337029 C210.49772423 451.49785241 219.63484167 451.51540793 228.77206314 451.54437089 C235.83371757 451.56597849 242.89532992 451.57607406 249.95701706 451.57741141 C254.1753108 451.57846 258.39346399 451.58437935 262.61172295 451.60223103 C266.57948347 451.61869608 270.54699755 451.62087493 274.51478004 451.61209202 C275.9704409 451.61132083 277.42611492 451.61567519 278.88174248 451.62555027 C280.87007637 451.63824749 282.85850904 451.63060935 284.8468647 451.62196827 C286.51545697 451.62416811 286.51545697 451.62416811 288.21775818 451.62641239 C291.62105098 451.20174368 293.46442938 450.29703615 296.19845772 448.25447559 C298.45771817 445.50656191 298.45771817 445.50656191 298.08517647 442.74593067 C296.9619615 439.58998113 295.91942569 438.98865733 293.01095772 437.39119434 C292.10603584 436.8876543 291.20111397 436.38411427 290.26877022 435.86531544 C283.98393245 432.5679745 277.6796091 429.31459897 271.33566475 426.13264942 C269.53646028 425.2283037 267.74237103 424.31380352 265.94845772 423.39900684 C264.36291084 422.60007008 264.36291084 422.60007008 262.74533272 421.78499317 C260.19845772 420.25447559 260.19845772 420.25447559 258.19845772 417.25447559 C257.86845772 404.71447559 257.53845772 392.17447559 257.19845772 379.25447559 C229.47845772 379.25447559 201.75845772 379.25447559 173.19845772 379.25447559 Z " fill="#000000" transform="translate(40.80154228210449,23.745524406433105)"/>
<path d="M0 0 C2.45255978 2.14782555 4.73664737 4.36297284 6.984375 6.72265625 C7.55414063 7.2846875 8.12390625 7.84671875 8.7109375 8.42578125 C20.32624976 20.69631625 24.25870869 39.22345595 24.0859375 55.63671875 C23.95225238 58.38240555 23.5362869 61.03208574 22.984375 63.72265625 C23.685625 63.74328125 24.386875 63.76390625 25.109375 63.78515625 C29.35195251 65.16860544 31.40617073 68.18986369 33.984375 71.72265625 C36.51664153 76.78718931 35.79730092 85.70601549 34.3359375 91.12890625 C32.43732471 94.82876708 29.63295026 97.22216128 26 99.078125 C22.36542917 100.24034242 18.74987349 100.03004388 14.984375 99.72265625 C14.86964844 100.59535156 14.75492188 101.46804687 14.63671875 102.3671875 C12.54689095 113.11666103 5.68042699 121.34496612 -2.015625 128.72265625 C-2.675625 129.05265625 -3.335625 129.38265625 -4.015625 129.72265625 C-4.015625 136.32265625 -4.015625 142.92265625 -4.015625 149.72265625 C-0.91341553 151.24234009 -0.91341553 151.24234009 2.25146484 152.79272461 C9.12401776 156.16238252 15.98752443 159.55015732 22.84685326 162.94664669 C27.00130766 165.00310043 31.15848929 167.05356322 35.32275391 169.09008789 C39.34997473 171.05987213 43.3689121 173.04571093 47.38286209 175.04239082 C48.90686965 175.79706865 50.43365848 176.54615952 51.96335983 177.28922844 C65.69777092 183.96880419 77.61164869 191.57630688 83.0378418 206.64892578 C84.47866138 211.83993681 84.28971274 217.10756358 84.28515625 222.45703125 C84.28944138 223.57200989 84.2937265 224.68698853 84.29814148 225.83575439 C84.30386497 228.18232546 84.30439971 230.52891427 84.30004883 232.87548828 C84.2968733 236.47458744 84.32042719 240.0728764 84.34570312 243.671875 C84.34797467 245.95442605 84.34868029 248.2369793 84.34765625 250.51953125 C84.356866 251.59765076 84.36607574 252.67577026 84.37556458 253.78656006 C84.36933578 254.78479797 84.36310699 255.78303589 84.35668945 256.81152344 C84.35731888 257.68975769 84.3579483 258.56799194 84.3585968 259.47283936 C83.89536658 262.25777376 83.1649465 262.97899386 80.984375 264.72265625 C79.10199261 265.09870374 79.10199261 265.09870374 76.93791199 265.10017967 C76.11170758 265.10800291 75.28550318 265.11582616 74.43426228 265.12388647 C73.52678336 265.1171943 72.61930445 265.11050214 71.68432617 265.10360718 C70.72016124 265.10828715 69.7559963 265.11296712 68.76261425 265.11778891 C65.517386 265.1297977 62.27257547 265.12025863 59.02734375 265.11083984 C56.70667269 265.11490293 54.38600357 265.12024332 52.06533813 265.12677002 C45.75141814 265.1404807 39.43764473 265.13512946 33.12372208 265.12563276 C26.52673182 265.11805559 19.9297544 265.12507636 13.33276367 265.12979126 C1.54233703 265.13620534 -10.24802776 265.12626168 -22.03844368 265.11101325 C-32.73367008 265.09760956 -43.4287988 265.0999375 -54.12402344 265.11376953 C-66.53723111 265.12981584 -78.95037647 265.13580453 -91.3635931 265.12693274 C-97.93705021 265.12224734 -104.51044 265.12165515 -111.08389282 265.13154221 C-117.26281074 265.14018609 -123.44154358 265.13423714 -129.62044144 265.11685944 C-131.89288653 265.11288079 -134.1653471 265.11405203 -136.4377861 265.12064743 C-139.53059559 265.12879858 -142.6228053 265.11861922 -145.71557617 265.10360718 C-146.62305509 265.11029934 -147.530534 265.11699151 -148.46551228 265.12388647 C-149.29171668 265.11606322 -150.11792109 265.10823998 -150.96916199 265.10017967 C-151.68330859 265.09969262 -152.3974552 265.09920556 -153.13324261 265.09870374 C-155.58863578 264.60818468 -156.48518078 263.66722563 -158.015625 261.72265625 C-158.40330505 259.49975586 -158.40330505 259.49975586 -158.41967773 256.875 C-158.43236191 255.88967285 -158.44504608 254.9043457 -158.45811462 253.88916016 C-158.45517899 252.82358887 -158.45224335 251.75801758 -158.44921875 250.66015625 C-158.4544606 249.55849121 -158.45970245 248.45682617 -158.46510315 247.32177734 C-158.47153377 244.98487185 -158.47017299 242.64793403 -158.46166992 240.31103516 C-158.45322356 236.7640462 -158.48180527 233.21870213 -158.51367188 229.671875 C-158.51528575 227.3971359 -158.5147028 225.12239397 -158.51171875 222.84765625 C-158.52295273 221.79827881 -158.53418671 220.74890137 -158.54576111 219.66772461 C-158.43560388 207.80125488 -154.56220695 198.71688422 -146.51403809 190.11839294 C-139.95663756 183.89668686 -131.94956236 180.31153122 -123.921875 176.3828125 C-122.36336722 175.60916399 -120.80539191 174.83444197 -119.2479248 174.05870056 C-115.17617326 172.03419946 -111.09742103 170.02422587 -107.01696777 168.01733398 C-102.8428684 165.96114546 -98.67565248 163.89110382 -94.5078125 161.82226562 C-86.35037605 157.77558108 -78.18546602 153.74423167 -70.015625 149.72265625 C-69.88050076 146.50692405 -69.79887371 143.29192795 -69.7265625 140.07421875 C-69.68781006 139.16744385 -69.64905762 138.26066895 -69.60913086 137.32641602 C-69.53113163 132.69916442 -69.59104937 130.37597146 -72.17358398 126.40209961 C-74.6340713 124.04710983 -74.6340713 124.04710983 -77.40234375 121.875 C-83.84293588 116.57041665 -86.85067545 108.58484146 -89.015625 100.72265625 C-89.5725 100.70847656 -90.129375 100.69429688 -90.703125 100.6796875 C-96.69174322 100.30539886 -101.58345562 98.94424744 -106.015625 94.72265625 C-108.87679789 90.16451185 -109.44769532 86.56545965 -109.453125 81.22265625 C-109.47246094 79.95421875 -109.49179688 78.68578125 -109.51171875 77.37890625 C-108.80300276 72.15561358 -106.10001176 68.06442723 -102.015625 64.72265625 C-101.355625 64.72265625 -100.695625 64.72265625 -100.015625 64.72265625 C-100.33660156 64.10003906 -100.65757812 63.47742188 -100.98828125 62.8359375 C-105.57283558 48.94282037 -101.72002209 32.66171484 -95.6640625 19.8671875 C-87.98358601 6.02945751 -75.07528301 -5.25111149 -60.015625 -10.27734375 C-38.77063768 -15.83044566 -17.82117116 -13.45821605 0 0 Z M-75.390625 14.28515625 C-84.14779618 23.61282718 -89.91464635 36.85797641 -90.015625 49.72265625 C-89.53995663 53.43671334 -88.84138832 57.07155397 -88.015625 60.72265625 C-84.09868039 61.19294503 -84.09868039 61.19294503 -82.359375 59.07421875 C-80.38145466 55.61285816 -79.72902748 52.04526489 -78.859375 48.18359375 C-78.015625 45.72265625 -78.015625 45.72265625 -75.015625 43.72265625 C-70.21390398 43.95688654 -66.32339135 45.81681455 -62.06640625 47.8828125 C-51.13842541 50.8911555 -40.40575691 47.07143478 -29.84179688 44.2109375 C-17.8328553 41.10244232 -7.36503773 40.00225982 3.984375 45.72265625 C6.23301439 47.25799417 8.02408124 48.8153434 9.984375 50.72265625 C12.31896332 46.05347961 9.41302999 38.64072817 7.984375 33.72265625 C3.03922035 19.64135532 -5.83267415 10.58908668 -19.04052734 4.21533203 C-38.32837937 -4.4895621 -59.93316116 0.08857314 -75.390625 14.28515625 Z M-29.140625 56.66015625 C-31.24685317 57.21300908 -33.3536095 57.76385438 -35.4609375 58.3125 C-36.84563232 58.68169556 -36.84563232 58.68169556 -38.25830078 59.05834961 C-48.45602271 61.51522949 -58.68173456 61.12386173 -69.015625 59.72265625 C-69.25796875 60.25375 -69.5003125 60.78484375 -69.75 61.33203125 C-70.08515625 62.0384375 -70.4203125 62.74484375 -70.765625 63.47265625 C-71.09046875 64.16875 -71.4153125 64.86484375 -71.75 65.58203125 C-73.015625 67.72265625 -73.015625 67.72265625 -75.125 69.296875 C-78.26711228 73.32838683 -77.6056916 77.8287521 -77.515625 82.78515625 C-77.50354004 83.82486572 -77.49145508 84.8645752 -77.47900391 85.93579102 C-77.15583292 98.39941856 -73.64906946 106.89822971 -64.98046875 115.81640625 C-57.41475803 122.96847141 -48.1216699 128.50900855 -37.49609375 128.7890625 C-25.08922638 128.20333056 -14.5242703 122.54123704 -6.046875 113.66015625 C3.07638173 102.83595334 4.20176401 90.42444736 4.421875 76.78515625 C4.49051758 75.05362305 4.49051758 75.05362305 4.56054688 73.28710938 C4.68641473 65.84520839 4.68641473 65.84520839 1.16796875 59.52734375 C-2.79419128 55.59935634 -6.91254065 53.8742299 -12.484375 53.47265625 C-18.22405237 53.55268632 -23.62927878 55.18257447 -29.140625 56.66015625 Z M-94.015625 75.72265625 C-96.1859042 77.48139265 -96.1859042 77.48139265 -96.24609375 79.6328125 C-96.55316532 83.48951576 -96.55316532 83.48951576 -95.015625 86.72265625 C-93.365625 86.72265625 -91.715625 86.72265625 -90.015625 86.72265625 C-90.015625 83.09265625 -90.015625 79.46265625 -90.015625 75.72265625 C-91.335625 75.72265625 -92.655625 75.72265625 -94.015625 75.72265625 Z M16.984375 75.72265625 C16.984375 79.35265625 16.984375 82.98265625 16.984375 86.72265625 C18.634375 86.39265625 20.284375 86.06265625 21.984375 85.72265625 C22.025625 84.44390625 22.066875 83.16515625 22.109375 81.84765625 C22.14417969 80.76871094 22.14417969 80.76871094 22.1796875 79.66796875 C22.16769189 77.4840198 22.16769189 77.4840198 19.984375 75.72265625 C18.994375 75.72265625 18.004375 75.72265625 16.984375 75.72265625 Z M-56.015625 137.72265625 C-57.29657006 142.19805688 -57.76540271 146.35422495 -56.015625 150.72265625 C-50.96678147 157.53119898 -44.37078223 163.16095467 -38.015625 168.72265625 C-33.88957459 165.20623801 -29.79361172 161.66414429 -25.765625 158.03515625 C-24.93546875 157.28878906 -24.1053125 156.54242188 -23.25 155.7734375 C-22.14398438 154.75830078 -22.14398438 154.75830078 -21.015625 153.72265625 C-20.42652344 153.27664062 -19.83742188 152.830625 -19.23046875 152.37109375 C-17.2826678 149.72809697 -17.73281148 147.24404464 -17.828125 144.03515625 C-17.85519531 142.85566406 -17.88226563 141.67617187 -17.91015625 140.4609375 C-17.96236328 139.10548828 -17.96236328 139.10548828 -18.015625 137.72265625 C-19.35753906 138.0475 -19.35753906 138.0475 -20.7265625 138.37890625 C-31.69032446 140.9036105 -39.87337285 141.73377346 -50.66796875 138.37890625 C-53.09088965 137.58804933 -53.09088965 137.58804933 -56.015625 137.72265625 Z M-11.015625 161.72265625 C-13.69437178 164.14715363 -16.35638914 166.58928813 -19.015625 169.03515625 C-19.77875 169.72544922 -20.541875 170.41574219 -21.328125 171.12695312 C-22.05 171.79404297 -22.771875 172.46113281 -23.515625 173.1484375 C-24.1859375 173.76114502 -24.85625 174.37385254 -25.546875 175.00512695 C-27.34058453 176.7260085 -27.34058453 176.7260085 -27.015625 179.72265625 C-24.79493788 182.30883762 -24.79493788 182.30883762 -22.015625 184.91015625 C-21.0875 185.81121094 -20.159375 186.71226562 -19.203125 187.640625 C-18.48125 188.32769531 -17.759375 189.01476562 -17.015625 189.72265625 C-13.18606122 185.329395 -10.53070873 180.50225085 -7.765625 175.41015625 C-7.30671875 174.57419922 -6.8478125 173.73824219 -6.375 172.87695312 C-5.25090651 170.82782437 -4.13126744 168.7763946 -3.015625 166.72265625 C-5.36839769 163.99839314 -7.64058831 162.90847995 -11.015625 161.72265625 Z M-67.578125 163.72265625 C-68.7125 164.38265625 -69.846875 165.04265625 -71.015625 165.72265625 C-67.03440993 173.94758409 -62.71274712 181.88485484 -58.015625 189.72265625 C-54.20927003 186.51505374 -50.46998933 183.31519516 -47.015625 179.72265625 C-48.37035624 176.69594396 -49.8895842 174.60128819 -52.23828125 172.26953125 C-52.85896484 171.65078125 -53.47964844 171.03203125 -54.11914062 170.39453125 C-54.76560547 169.7603125 -55.41207031 169.12609375 -56.078125 168.47265625 C-56.72845703 167.82296875 -57.37878906 167.17328125 -58.04882812 166.50390625 C-62.28698343 161.6602346 -62.28698343 161.6602346 -67.578125 163.72265625 Z M-87.85766602 173.58691406 C-88.67264053 173.99443909 -89.48761505 174.40196411 -90.32728577 174.82183838 C-91.65994728 175.4920401 -91.65994728 175.4920401 -93.01953125 176.17578125 C-94.38729958 176.86072662 -94.38729958 176.86072662 -95.78269958 177.55950928 C-98.71544769 179.02869207 -101.64680084 180.50063477 -104.578125 181.97265625 C-106.52920519 182.95070375 -108.48037595 183.9285706 -110.43164062 184.90625 C-114.8506725 187.12076386 -119.26926513 189.33614317 -123.68551636 191.55619812 C-125.23295577 192.3308501 -126.78285911 193.10060048 -128.3352356 193.86531067 C-133.41490644 196.35919669 -133.41490644 196.35919669 -137.765625 199.91015625 C-138.29671875 200.41933594 -138.8278125 200.92851562 -139.375 201.453125 C-144.08154054 207.96383942 -145.60903488 214.20980939 -145.40625 222.1328125 C-145.40059021 222.98572372 -145.39493042 223.83863495 -145.38909912 224.71739197 C-145.3669379 227.4072493 -145.31678359 230.09571041 -145.265625 232.78515625 C-145.24553366 234.62302746 -145.22728754 236.46091982 -145.2109375 238.29882812 C-145.17056255 242.77439123 -145.09224134 247.24698511 -145.015625 251.72265625 C-133.465625 251.72265625 -121.915625 251.72265625 -110.015625 251.72265625 C-109.72705568 243.39138726 -109.72705568 243.39138726 -109.44750977 235.05981445 C-109.40940186 234.01656006 -109.37129395 232.97330566 -109.33203125 231.8984375 C-109.29537354 230.83536377 -109.25871582 229.77229004 -109.22094727 228.67700195 C-109.0307725 225.94061093 -108.6224743 223.39408893 -108.015625 220.72265625 C-101.9609375 220.52734375 -101.9609375 220.52734375 -100.015625 220.72265625 C-92.67471982 228.06356143 -97.37339883 241.34721526 -97.015625 251.72265625 C-57.415625 251.72265625 -17.815625 251.72265625 22.984375 251.72265625 C23.314375 242.15265625 23.644375 232.58265625 23.984375 222.72265625 C25.984375 220.72265625 25.984375 220.72265625 27.9296875 220.52734375 C29.94791667 220.59244792 31.96614583 220.65755208 33.984375 220.72265625 C34.83732275 224.47744757 35.16817207 228.05277119 35.30078125 231.8984375 C35.33888916 232.94169189 35.37699707 233.98494629 35.41625977 235.05981445 C35.45936279 236.37167725 35.50246582 237.68354004 35.546875 239.03515625 C35.7634375 245.31546875 35.7634375 245.31546875 35.984375 251.72265625 C47.534375 251.72265625 59.084375 251.72265625 70.984375 251.72265625 C71.09982922 246.35018664 71.19915528 240.98210172 71.2590332 235.609375 C71.28401779 233.78598363 71.31801779 231.96269077 71.36157227 230.13964844 C71.82946289 214.11987366 71.82946289 214.11987366 64.06054688 200.56030273 C58.53570836 195.18608481 52.2691678 192.03658841 45.296875 188.91015625 C43.09554119 187.8897729 40.89503778 186.86759639 38.6953125 185.84375 C37.03193848 185.07587158 37.03193848 185.07587158 35.33496094 184.29248047 C29.98126979 181.78415679 24.70123587 179.13304947 19.421875 176.47265625 C18.47030518 175.99465576 17.51873535 175.51665527 16.53833008 175.02416992 C14.35271563 173.9255591 12.1680278 172.82515945 9.984375 171.72265625 C7.09838275 174.2802955 5.41647433 177.19156988 3.515625 180.52734375 C2.86207031 181.66816406 2.20851563 182.80898437 1.53515625 183.984375 C0.85140208 185.18871102 0.16780976 186.39313894 -0.515625 187.59765625 C-1.19876588 188.79452943 -1.88235522 189.99114676 -2.56640625 191.1875 C-3.8285439 193.39561852 -5.08854042 195.60496325 -6.34570312 197.81591797 C-6.89677734 198.7751416 -7.44785156 199.73436523 -8.015625 200.72265625 C-8.53318359 201.65223145 -9.05074219 202.58180664 -9.58398438 203.53955078 C-11.015625 205.72265625 -11.015625 205.72265625 -13.390625 206.72265625 C-18.37330696 206.72265625 -21.38960495 203.47381182 -24.78515625 200.1484375 C-26.13796667 198.78242893 -27.48550455 197.41118161 -28.828125 196.03515625 C-29.52099609 195.33326172 -30.21386719 194.63136719 -30.92773438 193.90820312 C-32.62833509 192.18414584 -34.32407161 190.45558347 -36.015625 188.72265625 C-39.14788315 190.10270421 -41.17215422 191.67845938 -43.51171875 194.1640625 C-44.47368164 195.16276367 -44.47368164 195.16276367 -45.45507812 196.18164062 C-46.7872126 197.58409305 -48.11534777 198.99035513 -49.43945312 200.40039062 C-50.08205078 201.06490234 -50.72464844 201.72941406 -51.38671875 202.4140625 C-51.96349365 203.02451416 -52.54026855 203.63496582 -53.13452148 204.26391602 C-55.44490419 206.05554959 -57.12160555 206.45131501 -60.015625 206.72265625 C-64.11879557 205.35493273 -64.58249923 203.45538213 -66.66796875 199.7109375 C-67.18007652 198.8021711 -67.18007652 198.8021711 -67.70252991 197.87504578 C-68.79479743 195.93316235 -69.87438647 193.98458229 -70.953125 192.03515625 C-72.03059991 190.1049721 -73.11069242 188.17629866 -74.19300842 186.24882507 C-75.18026362 184.48798207 -76.16051301 182.72321652 -77.14038086 180.95825195 C-78.9889169 177.76873911 -80.88842694 174.73156496 -83.015625 171.72265625 C-84.79582783 171.72265625 -86.29185281 172.80159208 -87.85766602 173.58691406 Z " fill="#000000" transform="translate(293.015625,58.27734375)"/>
<path d="M0 0 C13.65678308 12.04363286 23.49210617 29.34857626 24.80078125 47.71728516 C25.92263049 69.94191991 20.76948464 88.62012306 6.01660156 105.72460938 C-6.33202964 119.26044231 -23.62894496 127.63695075 -41.91015625 128.62890625 C-63.37036373 129.29543838 -82.32474047 123.88957537 -98.3984375 109.203125 C-112.34305899 95.76704057 -120.26143812 78.01994371 -120.84765625 58.75439453 C-121.02421547 39.35494992 -115.96779193 23.25289565 -103.375 8.25 C-102.653125 7.26 -101.93125 6.27 -101.1875 5.25 C-75.52391634 -24.73237444 -29.04728494 -22.8701408 0 0 Z M-84.375 8.25 C-85.07882812 8.76046875 -85.78265625 9.2709375 -86.5078125 9.796875 C-97.4141258 18.43638593 -105.35831986 32.53258163 -107.375 46.25 C-108.7565981 65.55843945 -104.86681042 81.56381129 -92.0625 96.5625 C-81.89425342 107.28038153 -67.88884452 114.82225194 -52.9296875 115.5859375 C-34.17565611 115.94984247 -18.63509145 111.00833121 -4.76171875 97.89453125 C8.17189032 83.56383839 12.53348664 67.56045002 11.79980469 48.64453125 C10.76079666 34.41186261 3.03619646 20.79934245 -7.375 11.25 C-30.48103933 -7.0570927 -60.17239436 -10.00114523 -84.375 8.25 Z " fill="#000000" transform="translate(455.375,57.75)"/>
<path d="M0 0 C2.21717015 3.32575522 2.24543438 4.3360624 2.22705078 8.20581055 C2.22689972 9.26668381 2.22674866 10.32755707 2.22659302 11.420578 C2.21627045 12.56440445 2.20594788 13.7082309 2.1953125 14.88671875 C2.1924826 16.05886429 2.18965271 17.23100983 2.18673706 18.43867493 C2.17552753 22.18838643 2.15042128 25.93786049 2.125 29.6875 C2.11497121 32.2272101 2.10584519 34.76692393 2.09765625 37.30664062 C2.07558567 43.53784165 2.04210039 49.76890386 2 56 C3.00811234 55.99333817 3.00811234 55.99333817 4.03659058 55.98654175 C11.01151408 55.94240366 17.98639813 55.91217333 24.96142578 55.89013672 C27.56691091 55.88005936 30.17238469 55.8663973 32.77783203 55.84912109 C36.51597899 55.82494898 40.25397685 55.8135344 43.9921875 55.8046875 C45.16304901 55.79436493 46.33391052 55.78404236 47.54025269 55.77340698 C48.62122223 55.77325592 49.70219177 55.77310486 50.81591797 55.77294922 C51.77078094 55.768508 52.72564392 55.76406677 53.70944214 55.75949097 C56 56 56 56 58 58 C59.8320916 74.27579048 54.85020455 88.79028218 44.93359375 101.6875 C32.20791112 116.62139589 16.54272754 123.41030846 -2.6015625 125.25 C-19.90917832 125.75349428 -35.1240767 118.97811209 -47.75 107.5 C-48.86375 106.2625 -48.86375 106.2625 -50 105 C-50.52851562 104.47535156 -51.05703125 103.95070313 -51.6015625 103.41015625 C-62.40591794 92.15363615 -66.88129291 77.45545786 -67.4375 62.125 C-66.95169024 43.28403009 -59.40343947 27.9522718 -46 15 C-34.18378189 4.00293046 -16.2244763 -3.35618856 0 0 Z M-39 26 C-48.67833699 35.95958781 -53.88148005 47.98394318 -54.3125 61.8125 C-54.02330206 75.21767509 -49.15246135 87.34649869 -39.9609375 97.16015625 C-31.31985769 105.26762356 -19.99455652 111.29443785 -8 112 C-6.80375 112.0825 -5.6075 112.165 -4.375 112.25 C10.69634348 111.98712773 22.69876377 105.56903266 33 95 C40.03541151 87.36419232 43.64781778 78.20419762 45 68 C44.01067978 67.99120064 44.01067978 67.99120064 43.00137329 67.98222351 C36.15590173 67.91844308 29.31090703 67.83406402 22.46582031 67.73754883 C19.90891799 67.70423043 17.3519409 67.67622035 14.79492188 67.65356445 C11.12597691 67.62014577 7.45772159 67.56783588 3.7890625 67.51171875 C2.64007477 67.50532883 1.49108704 67.4989389 0.30728149 67.49235535 C-0.7536673 67.47256119 -1.81461609 67.45276703 -2.90771484 67.43237305 C-3.84481293 67.42126999 -4.78191101 67.41016693 -5.74740601 67.39872742 C-6.49076202 67.26714737 -7.23411804 67.13556732 -8 67 C-10.17089653 63.74365521 -10.26291012 62.75356718 -10.31884766 58.9777832 C-10.33871735 57.95695145 -10.35858704 56.93611969 -10.37905884 55.88435364 C-10.39061005 54.78427475 -10.40216125 53.68419586 -10.4140625 52.55078125 C-10.43342865 51.4230278 -10.4527948 50.29527435 -10.4727478 49.13334656 C-10.53259307 45.52647497 -10.57894922 41.91957156 -10.625 38.3125 C-10.66317518 35.8691266 -10.70222664 33.42576672 -10.7421875 30.98242188 C-10.8382987 24.98840116 -10.92333178 18.99429921 -11 13 C-21.49898215 13 -31.35844301 19.20485572 -39 26 Z " fill="#000000" transform="translate(102,70)"/>
<path d="M0 0 C11.00035731 7.0515111 18.20937972 17.25748127 22.05859375 29.70703125 C24.10182423 40.1771445 24.2368344 52.42332086 19.75 62.25 C19.35941406 63.136875 18.96882813 64.02375 18.56640625 64.9375 C13.41381329 75.44703805 5.44413841 83.4748584 -5.25 88.25 C-5.99894531 88.64058594 -6.74789062 89.03117187 -7.51953125 89.43359375 C-18.72608406 94.53389889 -33.45269881 93.97391147 -45 90.1875 C-50.87128015 87.72086751 -55.59209904 84.56390428 -60.25 80.25 C-60.88550781 79.693125 -61.52101563 79.13625 -62.17578125 78.5625 C-66.72576728 74.35351935 -69.62062298 69.83515946 -72.25 64.25 C-72.64445312 63.4971875 -73.03890625 62.744375 -73.4453125 61.96875 C-78.1361027 51.60308773 -78.27490786 36.81285887 -74.625 26.0625 C-73.88630844 24.43326043 -73.09496593 22.82674328 -72.25 21.25 C-71.61384766 19.98349609 -71.61384766 19.98349609 -70.96484375 18.69140625 C-63.88361687 5.73216931 -53.58014885 -1.15429045 -39.89453125 -5.91796875 C-25.97945467 -9.09472257 -12.38541607 -6.85788545 0 0 Z M-55.25 19.25 C-63.12687963 29.01863541 -64.2191218 39.00272326 -63.25 51.25 C-60.85293486 61.64182219 -54.51811968 69.03136466 -45.76171875 74.77734375 C-36.88597451 79.98131821 -28.08562842 81.13470969 -18.02734375 79.046875 C-6.57827475 75.76191006 0.68636011 69.31115063 6.75 59.25 C11.4066051 50.36160289 11.22684723 38.8623385 8.3125 29.4375 C4.44565339 20.28777845 -3.37762108 12.6416792 -12.25 8.25 C-28.82722781 2.59423992 -43.62619574 6.56763563 -55.25 19.25 Z " fill="#000000" transform="translate(434.25,70.75)"/>
<path d="M0 0 C17.58070622 3.80442702 31.20767176 14.01000341 41.28515625 28.67578125 C47.15369501 38.75169466 52.17197241 52.71008225 49.96875 64.56640625 C47.83650982 67.3034275 46.65366827 68.44247214 43.19885254 69.06761169 C42.13614136 69.06777786 41.07343018 69.06794403 39.97851562 69.06811523 C38.16643616 69.08218666 38.16643616 69.08218666 36.31774902 69.09654236 C35.01664185 69.08530838 33.71553467 69.0740744 32.375 69.0625 C31.0226636 69.06265504 29.67032675 69.06414478 28.31799316 69.06690979 C25.48669745 69.06829291 22.65590884 69.05575142 19.82470703 69.03295898 C16.19963269 69.00457371 12.57540066 69.00731238 8.95026398 69.0200491 C6.15863886 69.02701167 3.36720766 69.01921056 0.5756073 69.00679207 C-1.40966697 69.00009391 -3.39496851 69.00441656 -5.38024902 69.00889587 C-6.588302 68.9962117 -7.79635498 68.98352753 -9.04101562 68.97045898 C-10.10372681 68.965056 -11.16643799 68.95965302 -12.26135254 68.9540863 C-15.48904295 68.50233269 -16.85638323 68.00055625 -19.03125 65.56640625 C-19.53245544 62.83410645 -19.53245544 62.83410645 -19.53295898 59.49023438 C-19.54233994 58.23883667 -19.55172089 56.98743896 -19.56138611 55.69812012 C-19.55090808 54.33129189 -19.5395391 52.96447024 -19.52734375 51.59765625 C-19.52749871 50.19665451 -19.52898725 48.79565234 -19.53175354 47.39465332 C-19.53313806 44.45903564 -19.52057167 41.52390622 -19.49780273 38.58837891 C-19.46941714 34.82530347 -19.47215431 31.06303935 -19.48489285 27.29990387 C-19.49184764 24.40709502 -19.48406319 21.51447374 -19.47163582 18.62168884 C-19.46711932 17.23421447 -19.46678627 15.84671998 -19.47070122 14.45924377 C-19.47361111 12.5203215 -19.45495467 10.58140299 -19.43530273 8.64257812 C-19.42719826 6.98736145 -19.42719826 6.98736145 -19.41893005 5.29870605 C-19.03125 2.56640625 -19.03125 2.56640625 -17.67567444 0.71154785 C-13.10033467 -2.47461978 -5.21967332 -0.74662853 0 0 Z M-6.03125 12.56640625 C-6.03125 26.75640625 -6.03125 40.94640625 -6.03125 55.56640625 C7.82875 55.56640625 21.68875 55.56640625 35.96875 55.56640625 C34.32361344 40.76017725 27.6320105 30.63015132 16.15625 21.25390625 C9.45626989 16.52766778 1.99187697 13.90359408 -6.03125 12.56640625 Z " fill="#000000" transform="translate(131.03125,49.43359375)"/>
<path d="M0 0 C0.85658707 -0.00571014 1.71317413 -0.01142029 2.59571838 -0.01730347 C3.53242371 -0.01842133 4.46912903 -0.01953918 5.43421936 -0.02069092 C6.42309647 -0.02565582 7.41197357 -0.03062073 8.43081665 -0.03573608 C11.70677888 -0.05035879 14.98269273 -0.05715921 18.25868225 -0.06268311 C20.53167726 -0.06843359 22.80467226 -0.07419134 25.07766724 -0.07995605 C29.84495775 -0.09046575 34.61223139 -0.09630892 39.37953186 -0.09979248 C45.49421975 -0.10528316 51.60868563 -0.12932372 57.72330379 -0.15776443 C62.41840268 -0.17636666 67.11344777 -0.18159508 71.8085804 -0.18312836 C74.06327595 -0.18615987 76.31797044 -0.1942051 78.57262993 -0.20731354 C81.7232809 -0.22432652 84.87338512 -0.22250551 88.02406311 -0.21600342 C89.42608475 -0.22982559 89.42608475 -0.22982559 90.85643005 -0.243927 C97.16042316 -0.20307569 97.16042316 -0.20307569 100.3734436 1.53942871 C102.14573455 3.53708526 102.30552542 4.55694173 102.2313385 7.20294189 C102.0869635 8.50231689 101.9425885 9.80169189 101.7938385 11.14044189 C98.67960089 13.2166003 97.99987429 13.39169068 94.46705627 13.40113831 C93.14214424 13.41176552 93.14214424 13.41176552 91.79046631 13.42260742 C90.82413773 13.42013 89.85780914 13.41765259 88.86219788 13.4151001 C87.84245377 13.42021103 86.82270966 13.42532196 85.77206421 13.43058777 C82.39384631 13.4445132 79.01583172 13.44352493 75.6375885 13.44122314 C73.29493636 13.44510811 70.95228492 13.44944236 68.6096344 13.45420837 C63.69689145 13.4616767 58.78422037 13.4613746 53.87147522 13.45611572 C47.56610157 13.4503167 41.26102123 13.46725982 34.95569611 13.4904604 C30.11736828 13.5051682 25.2791116 13.50607353 20.44076538 13.50295067 C18.1154726 13.50346525 15.79017597 13.50872846 13.46490479 13.51876259 C10.21823364 13.53105396 6.97214052 13.52437934 3.72547913 13.51275635 C2.27598625 13.52422195 2.27598625 13.52422195 0.79721069 13.53591919 C-0.086064 13.52890488 -0.96933868 13.52189056 -1.87937927 13.5146637 C-2.64702354 13.51483144 -3.41466782 13.51499918 -4.20557404 13.515172 C-6.76717855 13.03535777 -7.65542807 12.20639142 -9.2061615 10.14044189 C-9.63094736 6.06249764 -9.51898737 4.6096807 -7.2061615 1.14044189 C-4.45850162 0.22455527 -2.83042985 0.01131325 0 0 Z " fill="#000000" transform="translate(44.20616149902344,214.85955810546875)"/>
<path d="M0 0 C0.90255524 -0.0049649 1.80511047 -0.00992981 2.73501587 -0.01504517 C5.72903192 -0.02968397 8.72299502 -0.03647109 11.71704102 -0.04199219 C13.79207868 -0.04774153 15.86711632 -0.05349929 17.94215393 -0.05926514 C22.29591114 -0.06977954 26.64964985 -0.07561956 31.00341797 -0.07910156 C36.59024997 -0.08459201 42.17683895 -0.10862999 47.76359463 -0.13707352 C52.05032574 -0.15566793 56.3369979 -0.16090375 60.62376595 -0.16243744 C62.6839131 -0.16547094 64.74405905 -0.1735228 66.80416679 -0.18662262 C69.68213453 -0.20361891 72.55950288 -0.2018188 75.4375 -0.1953125 C76.72103615 -0.20913467 76.72103615 -0.20913467 78.03050232 -0.22323608 C83.83221903 -0.18201038 83.83221903 -0.18201038 85.99847507 1.4653511 C88.15004434 4.3047836 87.71038387 6.74563997 87.28344727 10.16113281 C84.79428265 13.00943191 83.1738872 13.17181048 79.37463379 13.54208374 C77.7629547 13.55989645 76.15104105 13.56110508 74.53930664 13.54931641 C73.21670586 13.55720184 73.21670586 13.55720184 71.86738586 13.56524658 C68.95380928 13.57844659 66.04077937 13.56970846 63.12719727 13.55957031 C61.10225316 13.56159105 59.07730977 13.56450248 57.05236816 13.56826782 C52.80884878 13.57269118 48.56551885 13.56625967 44.32202148 13.55224609 C38.88102894 13.53515429 33.44048034 13.5449954 27.99950409 13.56296349 C23.81822359 13.57380095 19.63704844 13.57035513 15.45576477 13.56258011 C13.44948779 13.560578 11.44320126 13.56303774 9.43693542 13.57001877 C6.63356161 13.57763254 3.83090803 13.56602999 1.02758789 13.54931641 C0.19733597 13.5553891 -0.63291595 13.56146179 -1.48832703 13.56771851 C-4.83760767 13.53070136 -7.25886802 13.41957681 -10.20837402 11.75405884 C-12.0401019 9.81940283 -12.55985191 8.82504679 -12.71655273 6.16113281 C-11.90405273 3.47363281 -11.90405273 3.47363281 -10.71655273 1.16113281 C-7.38933362 -0.50247675 -3.65880978 0.00476852 0 0 Z " fill="#000000" transform="translate(382.716552734375,220.8388671875)"/>
<path d="M0 0 C0.84417984 -0.00846954 1.68835968 -0.01693909 2.55812073 -0.02566528 C5.35205088 -0.04908869 8.14543216 -0.05005628 10.93945312 -0.04882812 C12.8785423 -0.05592584 14.81762936 -0.06362426 16.75671387 -0.07189941 C20.82208088 -0.08535604 24.88725365 -0.0869074 28.95263672 -0.08105469 C34.16865125 -0.07515364 39.38373657 -0.10576135 44.59957123 -0.14617157 C48.60411624 -0.17198775 52.60843561 -0.1749316 56.61305237 -0.17127991 C58.53644652 -0.17297648 60.4598505 -0.18267035 62.38316345 -0.20042419 C65.06988227 -0.2224973 67.75469539 -0.21297294 70.44140625 -0.1953125 C71.23942154 -0.20857574 72.03743683 -0.22183899 72.8596344 -0.23550415 C75.07727051 -0.20153809 75.07727051 -0.20153809 78.72070312 0.41992188 C80.77331543 2.75915527 80.77331543 2.75915527 81.72070312 5.41992188 C81.16328537 8.57862246 80.79081551 10.64190775 78.12573242 12.57952881 C74.70425942 13.77509935 71.38279499 13.69813706 67.80273438 13.67871094 C67.00878265 13.68221558 66.21483093 13.68572021 65.39682007 13.68933105 C62.77552517 13.6981249 60.15450072 13.69230753 57.53320312 13.68554688 C55.71004179 13.6868942 53.88688081 13.6888353 52.0637207 13.69134521 C48.24394305 13.6942933 44.42425896 13.69000897 40.60449219 13.68066406 C35.70838472 13.66926972 30.81249652 13.67583088 25.91639709 13.68780899 C22.15204211 13.6950361 18.38773911 13.69273574 14.62338257 13.68755341 C12.81806411 13.68621927 11.01274093 13.68785638 9.20742798 13.69251251 C6.6843821 13.6975917 4.16169131 13.68984798 1.63867188 13.67871094 C0.51952896 13.68478363 0.51952896 13.68478363 -0.6222229 13.690979 C-4.30278547 13.66088226 -7.21459169 13.58767219 -10.27929688 11.41992188 C-11.67864701 8.62122161 -11.53195092 6.51493395 -11.27929688 3.41992188 C-8.76632669 -0.77225451 -4.34983431 -0.01597418 0 0 Z " fill="#000000" transform="translate(46.279296875,275.580078125)"/>
<path d="M0 0 C0.70810318 0.00247742 1.41620636 0.00495483 2.14576721 0.00750732 C2.89226532 0.00239639 3.63876343 -0.00271454 4.40788269 -0.00798035 C6.88252212 -0.02191268 9.35688417 -0.02091685 11.83155823 -0.01861572 C13.54787297 -0.02250075 15.26418675 -0.02683501 16.98049927 -0.03160095 C20.58103042 -0.03907106 24.18146352 -0.03876626 27.78199768 -0.0335083 C32.40033247 -0.02771352 37.01826623 -0.04464087 41.63653469 -0.06785297 C45.18211216 -0.08257193 48.72759266 -0.08346452 52.27319527 -0.08034325 C53.97607785 -0.08085742 55.67896572 -0.08611307 57.38181877 -0.09615517 C59.76173463 -0.10846654 62.14086431 -0.10176032 64.52076721 -0.09014893 C65.57988564 -0.10161453 65.57988564 -0.10161453 66.66040039 -0.11331177 C69.49600087 -0.08267078 71.44486571 -0.02350068 73.83169556 1.58668518 C75.66461392 4.50121921 75.31335468 6.95904395 74.89796448 10.28216553 C72.53274238 12.82916714 71.07032982 13.26192479 67.59657288 13.66984558 C66.2851532 13.67524857 64.97373352 13.68065155 63.62257385 13.68621826 C62.53405876 13.69651314 62.53405876 13.69651314 61.42355347 13.70701599 C59.02940705 13.7252889 56.63591553 13.72144644 54.24171448 13.71575928 C52.57549323 13.72032049 50.90927387 13.72562589 49.24305725 13.73164368 C45.75278576 13.74057544 42.26274308 13.73815056 38.7724762 13.72821045 C34.29988618 13.71671383 29.82808485 13.73694197 25.35559845 13.76612759 C21.91547125 13.78447268 18.47553371 13.78420067 15.03536987 13.77849007 C13.38634127 13.77833668 11.73729996 13.78439542 10.08831787 13.79678154 C7.78282648 13.81166053 5.47880062 13.80103957 3.1733551 13.78387451 C1.86193542 13.78370834 0.55051575 13.78354218 -0.80064392 13.78337097 C-4.10203552 13.28216553 -4.10203552 13.28216553 -6.56455994 11.47737122 C-8.10203552 9.28216553 -8.10203552 9.28216553 -7.97703552 5.65716553 C-6.62615735 0.44663542 -5.12397919 0.05616927 0 0 Z " fill="#000000" transform="translate(395.10203552246094,273.71783447265625)"/>
<path d="M0 0 C0.69787628 -0.00686325 1.39575256 -0.0137265 2.11477661 -0.02079773 C4.42177672 -0.03910047 6.72809912 -0.03522398 9.03515625 -0.02954102 C10.63794171 -0.03410084 12.24072521 -0.03940582 13.84350586 -0.04542542 C17.20271752 -0.05436306 20.56169152 -0.0519257 23.92089844 -0.04199219 C28.22883969 -0.03049539 32.53596213 -0.05072079 36.84379578 -0.07990932 C40.1534955 -0.09824119 43.46299785 -0.09798506 46.7727356 -0.0922718 C48.36118723 -0.09211825 49.94965196 -0.09819067 51.53805542 -0.11056328 C53.75766637 -0.12541742 55.97574987 -0.11484019 58.1953125 -0.09765625 C60.09035522 -0.097407 60.09035522 -0.097407 62.02368164 -0.09715271 C65.09765625 0.40405273 65.09765625 0.40405273 67.04077148 2.24009705 C68.53305968 5.29553472 68.00593285 7.19015093 67.09765625 10.40405273 C64.24489124 13.25681775 62.30490818 12.66416312 58.30883789 12.67871094 C57.61110764 12.68382187 56.91337738 12.6889328 56.19450378 12.69419861 C53.88218671 12.70812766 51.5701666 12.70713536 49.2578125 12.70483398 C47.65359892 12.70871921 46.04938637 12.71305352 44.44517517 12.71781921 C41.08003406 12.72528862 37.71499784 12.72498505 34.34985352 12.71972656 C30.03417859 12.71393207 25.71893284 12.73085865 21.4033289 12.75407124 C18.08936547 12.76879278 14.77550576 12.76968243 11.46151543 12.76656151 C9.87027575 12.76707556 8.2790304 12.77232894 6.68782234 12.78237343 C4.46355317 12.79468986 2.24012454 12.78797579 0.01586914 12.77636719 C-1.25050888 12.77699661 -2.5168869 12.77762604 -3.82164001 12.77827454 C-6.90234375 12.40405273 -6.90234375 12.40405273 -8.81129456 11.06828308 C-10.52317548 8.45706793 -10.28162925 6.43833671 -9.90234375 3.40405273 C-7.38530808 -0.42724499 -4.30099288 0.01839394 0 0 Z " fill="#000000" transform="translate(44.90234375,245.595947265625)"/>
<path d="M0 0 C1.81196617 -0.01407143 1.81196617 -0.01407143 3.66053772 -0.02842712 C4.95648361 -0.01719315 6.2524295 -0.00595917 7.58764648 0.00561523 C8.93855365 0.00546015 10.28946126 0.00396957 11.6403656 0.00120544 C14.46568575 -0.00017624 17.29049681 0.01234132 20.11572266 0.03515625 C23.73292154 0.06356837 27.34927684 0.06079354 30.96653843 0.04806614 C33.75387247 0.04110456 36.54101223 0.04890307 39.32832146 0.06132317 C41.30916621 0.06801896 43.29003828 0.06369948 45.27088928 0.05921936 C47.07812721 0.07824562 47.07812721 0.07824562 48.921875 0.09765625 C49.98156998 0.10305923 51.04126495 0.10846222 52.1330719 0.11402893 C55.28627 0.55643122 56.68031377 1.23279311 58.89624023 3.50170898 C59.63439375 9.40693712 59.63439375 9.40693712 57.75439453 12.19520569 C55.0643278 14.08664229 52.99781916 13.8900066 49.72827148 13.90576172 C47.8211438 13.92478798 47.8211438 13.92478798 45.87548828 13.94419861 C44.48657062 13.94214731 43.09765406 13.93915941 41.70874023 13.93530273 C40.28531647 13.93986318 38.86189491 13.94516835 37.43847656 13.95118713 C34.45588228 13.96012222 31.47355571 13.95769043 28.4909668 13.94775391 C24.66725972 13.93625694 20.84447514 13.9564834 17.02088928 13.98567104 C14.08176803 14.00400889 11.14286892 14.00374564 8.20370483 13.99803352 C6.79388127 13.99788004 5.38404291 14.00394646 3.97427368 14.016325 C2.00430347 14.03118642 0.03418163 14.01795309 -1.93579102 14.00341797 C-3.61765503 14.00316872 -3.61765503 14.00316872 -5.33349609 14.00291443 C-8.10375977 13.50170898 -8.10375977 13.50170898 -9.95800781 11.62660217 C-11.41662685 8.9214707 -11.70907438 7.52828203 -11.10375977 4.50170898 C-7.46184292 0.9019275 -5.07441244 0.00079511 0 0 Z " fill="#000000" transform="translate(411.103759765625,246.498291015625)"/>
<path d="M0 0 C1.11125244 -0.00945648 2.22250488 -0.01891296 3.36743164 -0.02865601 C5.16748657 -0.01954697 5.16748657 -0.01954697 7.00390625 -0.01025391 C8.2355249 -0.01312408 9.46714355 -0.01599426 10.73608398 -0.01895142 C14.00988582 -0.02151799 17.28326162 -0.00943251 20.55700684 0.00732422 C22.5645101 0.01317806 24.57161994 0.00734564 26.57910156 -0.00292969 C30.4292232 -0.02142621 34.27876059 -0.01922633 38.12890625 -0.01025391 C39.32894287 -0.0163266 40.52897949 -0.02239929 41.76538086 -0.02865601 C43.43225952 -0.01447128 43.43225952 -0.01447128 45.1328125 0 C46.6014978 0.00358017 46.6014978 0.00358017 48.09985352 0.00723267 C50.56640625 0.38818359 50.56640625 0.38818359 52.37866211 1.72885132 C54.25713465 4.3531624 54.01352971 6.2583194 53.56640625 9.38818359 C51.53180762 11.98270024 50.33069701 13.23315708 47.06225586 13.89611816 C46.12389893 13.89930054 45.18554199 13.90248291 44.21875 13.90576172 C42.61688843 13.92467468 42.61688843 13.92467468 40.98266602 13.94396973 C39.83467529 13.9358728 38.68668457 13.92777588 37.50390625 13.91943359 C35.72874634 13.92517395 35.72874634 13.92517395 33.91772461 13.93103027 C31.41616973 13.93375169 28.91458651 13.92637463 26.41308594 13.90966797 C22.58073576 13.88826363 18.75026051 13.90946404 14.91796875 13.93505859 C12.48827711 13.93241536 10.05858663 13.92729048 7.62890625 13.91943359 C5.90692017 13.93157898 5.90692017 13.93157898 4.15014648 13.94396973 C3.08223877 13.93136108 2.01433105 13.91875244 0.9140625 13.90576172 C-0.4934729 13.90098816 -0.4934729 13.90098816 -1.92944336 13.89611816 C-5.19788451 13.23315708 -6.39899512 11.98270024 -8.43359375 9.38818359 C-8.88071721 6.2583194 -9.12432215 4.3531624 -7.24584961 1.72885132 C-4.75767283 -0.1118481 -3.07958042 0.007507 0 0 Z " fill="#000000" transform="translate(43.43359375,305.61181640625)"/>
<path d="M0 0 C0.92783798 -0.00960754 1.85567596 -0.01921509 2.81163025 -0.02911377 C4.31168358 -0.03548859 4.31168358 -0.03548859 5.84204102 -0.04199219 C7.38626488 -0.0505423 7.38626488 -0.0505423 8.96168518 -0.05926514 C11.13964816 -0.0687127 13.31762541 -0.07524815 15.49560547 -0.07910156 C18.82943554 -0.08881906 22.16265222 -0.11984996 25.49633789 -0.15136719 C27.6115686 -0.15789614 29.72680372 -0.16314703 31.84204102 -0.16699219 C32.84005234 -0.17933899 33.83806366 -0.19168579 34.86631775 -0.20440674 C35.79730789 -0.20140564 36.72829803 -0.19840454 37.6875 -0.1953125 C38.50451889 -0.19895813 39.32153778 -0.20260376 40.16331482 -0.20635986 C42.99878783 0.25776223 44.36478919 1.15972429 46.40844727 3.16113281 C47.15420222 9.12717247 47.15420222 9.12717247 45.1862793 11.85562134 C42.84859894 13.572245 41.41232175 13.54142 38.52563477 13.54931641 C37.53450684 13.55877289 36.54337891 13.56822937 35.5222168 13.57797241 C34.45342285 13.57189972 33.38462891 13.56582703 32.28344727 13.55957031 C30.63578369 13.56387558 30.63578369 13.56387558 28.95483398 13.56826782 C26.6314238 13.57031017 24.30799648 13.56476844 21.98461914 13.55224609 C18.42238015 13.53619559 14.86127585 13.55208979 11.29907227 13.57128906 C9.04386142 13.56930666 6.78865128 13.56546305 4.53344727 13.55957031 C3.46465332 13.56564301 2.39585937 13.5717157 1.29467773 13.57797241 C-0.19201416 13.56378769 -0.19201416 13.56378769 -1.70874023 13.54931641 C-2.58127441 13.54692963 -3.45380859 13.54454285 -4.3527832 13.54208374 C-7.07956457 13.0780923 -7.97381052 12.37686885 -9.59155273 10.16113281 C-10.01633859 6.08318856 -9.9043786 4.63037162 -7.59155273 1.16113281 C-4.75002863 0.21395811 -2.94851995 0.02466544 0 0 Z " fill="#000000" transform="translate(423.591552734375,299.8388671875)"/>
<path d="M0 0 C2 2 2 2 2.22705078 4.24658203 C2.21134033 5.61339111 2.21134033 5.61339111 2.1953125 7.0078125 C2.18564453 8.48701172 2.18564453 8.48701172 2.17578125 9.99609375 C2.15902344 11.02863281 2.14226562 12.06117187 2.125 13.125 C2.11597656 14.16527344 2.10695313 15.20554687 2.09765625 16.27734375 C2.07403747 18.85179092 2.04110149 21.42578212 2 24 C2.97582031 23.96519531 3.95164062 23.93039063 4.95703125 23.89453125 C6.22933594 23.86746094 7.50164062 23.84039062 8.8125 23.8125 C10.07707031 23.77769531 11.34164063 23.74289063 12.64453125 23.70703125 C16 24 16 24 17.89453125 25.39453125 C19.26699721 27.3877592 19.85668794 28.56369505 20 31 C18.85213059 33.24356294 17.7904233 35.2095767 16 37 C12.23743097 37.30812861 8.46113356 37.27842143 4.6875 37.3125 C3.62853516 37.34150391 2.56957031 37.37050781 1.47851562 37.40039062 C-0.05192383 37.41295898 -0.05192383 37.41295898 -1.61328125 37.42578125 C-2.54954346 37.44036377 -3.48580566 37.45494629 -4.45043945 37.4699707 C-7.89009687 36.83592488 -8.99687165 35.85517949 -11 33 C-11.50170898 29.74780273 -11.50170898 29.74780273 -11.49609375 25.93359375 C-11.49754898 25.25829117 -11.49900421 24.58298859 -11.50050354 23.88722229 C-11.4988482 22.46424022 -11.48732752 21.04123958 -11.46655273 19.6184082 C-11.43754391 17.44079657 -11.44595884 15.26561324 -11.45898438 13.08789062 C-11.45274795 11.70311318 -11.44435774 10.3183434 -11.43359375 8.93359375 C-11.42384521 7.67603271 -11.41409668 6.41847168 -11.40405273 5.12280273 C-11 2 -11 2 -9.66040039 0.12915039 C-5.86419127 -2.45245043 -3.92480162 -1.91208284 0 0 Z " fill="#000000" transform="translate(412,83)"/>
</svg>
