<?xml version="1.0" encoding="UTF-8"?>
<svg version="1.1" xmlns="http://www.w3.org/2000/svg" width="512" height="512">
<path d="M0 0 C0.94434359 -0.0034177 1.88868718 -0.0068354 2.86164725 -0.01035666 C6.02181393 -0.01693837 9.18112878 0.00504583 12.34121704 0.0269165 C14.60808289 0.02804492 16.87495019 0.02741125 19.14181519 0.02514648 C25.29428422 0.02399818 31.44644173 0.04752683 37.59883833 0.07544231 C44.02903129 0.10043625 50.45923129 0.10279639 56.88946533 0.10754395 C67.68171222 0.11856643 78.47383128 0.14355639 89.26602173 0.17926025 C100.38059935 0.21599238 111.49514576 0.24425235 122.60977173 0.2612915 C123.30218944 0.26236349 123.99460715 0.26343548 124.70800722 0.26453996 C130.73131521 0.2737917 136.75462409 0.28240273 142.77793312 0.29095078 C168.70099077 0.32857015 194.62374548 0.40825732 220.54678345 0.48101807 C220.54678345 74.40101807 220.54678345 148.32101807 220.54678345 224.48101807 C294.46678345 224.48101807 368.38678345 224.48101807 444.54678345 224.48101807 C444.54678345 302.48101807 444.54678345 302.48101807 440.54678345 308.48101807 C436.11411012 312.22933799 432.571542 313.05744524 426.91583252 312.96203613 C426.16749944 312.96545383 425.41916636 312.96887153 424.64815652 312.9723928 C422.15124265 312.97895925 419.65541397 312.95701722 417.15859985 312.93511963 C415.36463445 312.93399088 413.57066721 312.93462555 411.77670288 312.93688965 C406.91341461 312.93803665 402.05052149 312.91452951 397.187325 312.88659382 C392.10244281 312.86157791 387.01755142 312.85923801 381.93261719 312.85449219 C372.30666979 312.84206299 362.68090425 312.80924206 353.0550369 312.76909423 C340.04543936 312.71601203 327.03579204 312.69443061 314.02611351 312.67108536 C293.53286729 312.63348068 273.04000482 312.55378942 252.54678345 312.48101807 C252.54678345 338.88101807 252.54678345 365.28101807 252.54678345 392.48101807 C263.10678345 392.48101807 273.66678345 392.48101807 284.54678345 392.48101807 C284.54678345 403.04101807 284.54678345 413.60101807 284.54678345 424.48101807 C237.02678345 424.48101807 189.50678345 424.48101807 140.54678345 424.48101807 C140.54678345 413.92101807 140.54678345 403.36101807 140.54678345 392.48101807 C151.10678345 392.48101807 161.66678345 392.48101807 172.54678345 392.48101807 C172.54678345 366.08101807 172.54678345 339.68101807 172.54678345 312.48101807 C159.47826782 312.52742432 146.4097522 312.57383057 132.94522095 312.62164307 C124.67829072 312.64207519 116.41137873 312.66149594 108.1444397 312.67633057 C95.01563274 312.70007854 81.88692836 312.72801826 68.75820923 312.78277588 C59.1972428 312.82263402 49.63635946 312.84844862 40.07531226 312.85737205 C35.01237745 312.8625885 29.94968039 312.87485568 24.88682175 312.90393829 C20.12129003 312.93109114 15.35609397 312.93946329 10.59049225 312.93344879 C8.8417567 312.93454908 7.09300992 312.94250377 5.34434128 312.95783997 C2.95506081 312.97776634 0.5670446 312.97294831 -1.82226562 312.96203613 C-2.51294117 312.9736875 -3.20361671 312.98533886 -3.91522181 312.9973433 C-8.88683922 312.93604366 -11.68038984 311.67136405 -15.45321655 308.48101807 C-20.46609746 303.10160692 -20.0168655 297.67388212 -19.96115112 290.7144165 C-19.97051107 288.92448084 -19.97051107 288.92448084 -19.9800601 287.09838486 C-19.99324244 283.79394289 -19.98851531 280.49041198 -19.97611523 277.18602562 C-19.96706024 273.61948914 -19.98103666 270.05303193 -19.99203491 266.48651123 C-20.00982 259.50284886 -20.00598025 252.51935846 -19.99438435 245.53568935 C-19.98535024 239.85985846 -19.98412592 234.18407576 -19.98847961 228.50823975 C-19.98909255 227.70037954 -19.98970548 226.89251934 -19.99033698 226.06017852 C-19.99161589 224.4190181 -19.99291274 222.77785769 -19.99422735 221.13669729 C-20.00563311 205.74806854 -19.99251952 190.35953511 -19.97102588 174.97092199 C-19.95315489 161.76720837 -19.956259 148.56363541 -19.97470093 135.35992432 C-19.99610772 120.02630929 -20.00453448 104.69277781 -19.99225187 89.35914993 C-19.99097768 87.7240321 -19.9897202 86.08891425 -19.98847961 84.45379639 C-19.98786251 83.64929039 -19.98724541 82.84478439 -19.98660961 82.01589942 C-19.98315613 76.34698465 -19.988985 70.67812287 -19.99839783 65.00921631 C-20.00961707 58.10053271 -20.00657943 51.19203089 -19.98527485 44.28336811 C-19.97476329 40.75851753 -19.97064407 37.23397003 -19.98387146 33.7091217 C-19.99799211 29.88844967 -19.98113011 26.06827377 -19.96115112 22.24761963 C-19.97007401 21.13303249 -19.9789969 20.01844536 -19.98819017 18.87008286 C-19.92778598 12.93216852 -19.68668187 9.02402457 -15.45321655 4.48101807 C-10.44495532 0.06458873 -6.36096562 -0.084466 0 0 Z " fill="#5670E4" transform="translate(43.453216552734375,47.51898193359375)"/>
<path d="M0 0 C0.94434359 -0.0034177 1.88868718 -0.0068354 2.86164725 -0.01035666 C6.02181393 -0.01693837 9.18112878 0.00504583 12.34121704 0.0269165 C14.60808289 0.02804492 16.87495019 0.02741125 19.14181519 0.02514648 C25.29428422 0.02399818 31.44644173 0.04752683 37.59883833 0.07544231 C44.02903129 0.10043625 50.45923129 0.10279639 56.88946533 0.10754395 C67.68171222 0.11856643 78.47383128 0.14355639 89.26602173 0.17926025 C100.38059926 0.21599238 111.49514573 0.24429823 122.60977173 0.2612915 C123.29520437 0.2623424 123.98063701 0.26339329 124.68684034 0.26447603 C128.12555273 0.26969629 131.56426533 0.2747511 135.00297809 0.27972364 C163.51767554 0.32117127 192.03218378 0.39490126 220.54678345 0.48101807 C220.54678345 16.32101807 220.54678345 32.16101807 220.54678345 48.48101807 C141.34678345 48.48101807 62.14678345 48.48101807 -19.45321655 48.48101807 C-19.45321655 10.48101807 -19.45321655 10.48101807 -15.45321655 4.48101807 C-10.44495532 0.06458873 -6.36096562 -0.084466 0 0 Z " fill="#89A8F4" transform="translate(43.453216552734375,47.51898193359375)"/>
<path d="M0 0 C26.4 0 52.8 0 80 0 C80 26.4 80 52.8 80 80 C90.56 80 101.12 80 112 80 C112 90.56 112 101.12 112 112 C64.48 112 16.96 112 -32 112 C-32 101.44 -32 90.88 -32 80 C-21.44 80 -10.88 80 0 80 C0 53.6 0 27.2 0 0 Z " fill="#C9D7EC" transform="translate(216,360)"/>
<path d="M0 0 C10.56 0 21.12 0 32 0 C32 55.44 32 110.88 32 168 C10.88 168 -10.24 168 -32 168 C-32 125.76 -32 83.52 -32 40 C-21.44 40 -10.88 40 0 40 C0 26.8 0 13.6 0 0 Z " fill="#B6E3CC" transform="translate(200,128)"/>
<path d="M0 0 C4.88201639 3.92090354 8.8728567 8.35850344 10.74609375 14.40234375 C11.5512348 22.23842583 11.87069767 30.02156952 6.74609375 36.40234375 C1.94160736 41.44755597 -2.4156768 45.0079737 -9.5234375 45.73828125 C-18.07276352 45.83254063 -23.9470047 45.50735929 -30.25390625 39.49609375 C-33.23954279 36.26968006 -35.47543107 33.81698781 -36.25390625 29.40234375 C-41.25773373 28.83739549 -46.6204955 28.43431722 -50.85400391 31.59814453 C-54.19244387 34.897803 -56.96283651 38.66130644 -59.75244141 42.42529297 C-62.18664847 45.63053017 -64.85295353 48.62633124 -67.50390625 51.65234375 C-72.22475616 57.13281784 -76.77681305 62.71987931 -81.25390625 68.40234375 C-74.32390625 68.73234375 -67.39390625 69.06234375 -60.25390625 69.40234375 C-59.59390625 67.42234375 -58.93390625 65.44234375 -58.25390625 63.40234375 C-54.77257063 58.67176896 -50.11960969 54.56304832 -44.25390625 53.40234375 C-36.36413063 52.64914321 -28.68850899 52.23450844 -22.25390625 57.40234375 C-17.20869403 62.20683014 -13.6482763 66.5641143 -12.91796875 73.671875 C-12.82407421 82.18810948 -13.13617745 88.07829869 -19.125 94.3671875 C-26.02885356 100.74901055 -31.45558554 101.88276627 -40.80859375 101.70703125 C-48.72600508 101.00685202 -52.85963118 97.28814975 -57.90625 91.40234375 C-59.28959311 89.34938238 -59.72433162 87.79056051 -60.25390625 85.40234375 C-60.79990479 85.41788803 -61.34590332 85.43343231 -61.90844727 85.44944763 C-67.61881261 85.60495762 -73.32857173 85.71015056 -79.04052734 85.78686523 C-81.16870577 85.82195221 -83.29671686 85.86963604 -85.42431641 85.93041992 C-88.49293377 86.01585873 -91.55931178 86.05514952 -94.62890625 86.0859375 C-95.57193604 86.1220665 -96.51496582 86.1581955 -97.48657227 86.19541931 C-103.81844507 86.19913769 -107.10738513 84.78472028 -111.60461426 80.30329895 C-113.73965717 77.84247276 -115.49108878 75.29134894 -117.17578125 72.50390625 C-123.30976631 63.85409069 -129.7218672 56.01183674 -140.57006836 53.69372559 C-159.2233253 51.17815744 -178.53915872 52.34718846 -197.25390625 53.40234375 C-197.25390625 48.12234375 -197.25390625 42.84234375 -197.25390625 37.40234375 C-188.52602363 37.24380069 -179.79910685 37.11555051 -171.07010651 37.03965855 C-167.01624285 37.00322225 -162.9634206 36.95385381 -158.91015625 36.87426758 C-154.99376798 36.79785569 -151.07837717 36.75628131 -147.16130066 36.73820305 C-145.67173061 36.72533107 -144.18221137 36.70019367 -142.69306946 36.66223335 C-129.57785011 36.34139606 -129.57785011 36.34139606 -124.58398438 40.64257812 C-123.44315219 41.86785701 -122.32934394 43.11928482 -121.25390625 44.40234375 C-120.37863281 45.24015381 -119.50335938 46.07796387 -118.6015625 46.94116211 C-117.47041016 48.08016968 -117.47041016 48.08016968 -116.31640625 49.2421875 C-115.48496094 50.07685547 -114.65351563 50.91152344 -113.796875 51.77148438 C-112.95769531 52.61904297 -112.11851562 53.46660156 -111.25390625 54.33984375 C-110.38378906 55.21447266 -109.51367188 56.08910156 -108.6171875 56.99023438 C-106.49377076 59.12531824 -104.37274247 61.2627158 -102.25390625 63.40234375 C-94.13967775 55.37567886 -86.58920469 46.93799911 -79.43359375 38.05078125 C-76.57965814 34.58309605 -73.55928434 31.28415491 -70.53125 27.96875 C-67.25175424 24.27298892 -64.17640397 20.42128709 -61.1015625 16.5546875 C-59.25390625 14.40234375 -59.25390625 14.40234375 -57.25390625 13.40234375 C-55.65943161 13.31833846 -54.0615008 13.29506908 -52.46484375 13.3046875 C-51.52382813 13.30791016 -50.5828125 13.31113281 -49.61328125 13.31445312 C-48.6284375 13.32283203 -47.64359375 13.33121094 -46.62890625 13.33984375 C-45.14003906 13.34661133 -45.14003906 13.34661133 -43.62109375 13.35351562 C-41.16530465 13.3653223 -38.70963521 13.38178975 -36.25390625 13.40234375 C-35.85751953 12.03142578 -35.85751953 12.03142578 -35.453125 10.6328125 C-33.33930858 4.93859041 -29.23789994 1.65752343 -24.19140625 -1.53515625 C-16.82416665 -4.20203031 -6.77920269 -4.09667947 0 0 Z " fill="#F7D178" transform="translate(485.25390625,42.59765625)"/>
<path d="M0 0 C10.56 0 21.12 0 32 0 C32 31.68 32 63.36 32 96 C0.32 96 -31.36 96 -64 96 C-64 88.08 -64 80.16 -64 72 C-53.44 72 -42.88 72 -32 72 C-32 61.44 -32 50.88 -32 40 C-21.44 40 -10.88 40 0 40 C0 26.8 0 13.6 0 0 Z " fill="#5EBD92" transform="translate(136,200)"/>
<path d="M0 0 C47.52 0 95.04 0 144 0 C144 10.56 144 21.12 144 32 C96.48 32 48.96 32 0 32 C0 21.44 0 10.88 0 0 Z " fill="#E4E9F2" transform="translate(184,440)"/>
<path d="M0 0 C5.82485779 3.51996782 10.54466582 8.98962934 12.5625 15.5 C13.36764105 23.33608208 13.68710392 31.11922577 8.5625 37.5 C4.73937435 41.514681 0.98936696 44.98172302 -4.4375 46.5 C-6.29623218 46.36492944 -8.15562263 46.22489151 -10.00708008 46.01220703 C-15.45881621 45.4825099 -19.09496166 45.46481006 -23.54296875 48.89453125 C-25.98398402 51.61035426 -28.07282177 54.56135189 -30.11669922 57.58300781 C-31.92291148 60.20451959 -33.88682136 62.68503702 -35.8659668 65.17724609 C-36.80269776 66.35760616 -37.73058459 67.54506183 -38.64770508 68.74072266 C-39.88465807 70.34774862 -41.16048713 71.92461964 -42.4375 73.5 C-43.06774582 74.37710129 -43.69799164 75.25420258 -44.34733582 76.15788269 C-49.09759513 79.75823008 -53.58221395 79.15905449 -59.38793945 79.06762695 C-60.59811234 79.06835709 -61.80828522 79.06908722 -63.05513 79.06983948 C-66.36526064 79.06695673 -69.6738239 79.04191926 -72.98367715 79.00696969 C-76.44562915 78.9756706 -79.90760302 78.97277269 -83.36967468 78.96684265 C-89.92166282 78.95131448 -96.47323282 78.91030049 -103.02503699 78.8600952 C-110.48565314 78.80416931 -117.94628947 78.77670717 -125.40706313 78.75161803 C-140.75079069 78.69938324 -156.09407495 78.6104521 -171.4375 78.5 C-171.4375 73.22 -171.4375 67.94 -171.4375 62.5 C-169.29425484 62.52784073 -169.29425484 62.52784073 -167.10771179 62.5562439 C-153.61644744 62.72230307 -140.12612319 62.8150328 -126.63386822 62.83421898 C-119.69765441 62.84594309 -112.76343207 62.88354041 -105.82788086 62.98339844 C-99.12914878 63.07977242 -92.43382317 63.10224943 -85.73426247 63.08046341 C-83.18377291 63.08409212 -80.63319314 63.11213186 -78.08325768 63.16541672 C-63.83448695 64.09243505 -63.83448695 64.09243505 -51.47372437 58.41853333 C-48.55407836 55.05620696 -46.51352017 51.42588471 -44.4375 47.5 C-43.37920955 46.12272158 -42.28803505 44.76880874 -41.140625 43.46484375 C-40.33109375 42.46582031 -39.5215625 41.46679688 -38.6875 40.4375 C-38.25179687 39.92251953 -37.81609375 39.40753906 -37.3671875 38.87695312 C-34.9222425 35.8295835 -34.9222425 35.8295835 -34.65234375 32.0546875 C-34.91144531 31.21164063 -35.17054688 30.36859375 -35.4375 29.5 C-36.57467773 13.89643021 -36.57467773 13.89643021 -31.4375 7.5 C-23.13577971 -1.21767287 -11.72105717 -5.1940371 0 0 Z " fill="#F7D179" transform="translate(459.4375,161.5)"/>
<path d="M0 0 C10.56 0 21.12 0 32 0 C32 42.24 32 84.48 32 128 C21.44 128 10.88 128 0 128 C0 85.76 0 43.52 0 0 Z " fill="#90D4B1" transform="translate(168,168)"/>
<path d="M0 0 C73.92 0 147.84 0 224 0 C224 5.28 224 10.56 224 16 C150.08 16 76.16 16 0 16 C0 10.72 0 5.44 0 0 Z " fill="#3D44D1" transform="translate(48,296)"/>
<path d="M0 0 C8.72788262 -0.15854306 17.4547994 -0.28679324 26.18379974 -0.3626852 C30.2376634 -0.3991215 34.29048565 -0.44848994 38.34375 -0.52807617 C42.26013827 -0.60448806 46.17552908 -0.64606244 50.09260559 -0.6641407 C51.58217564 -0.67701268 53.07169488 -0.70215008 54.56083679 -0.7401104 C67.67535853 -1.06093062 67.67535853 -1.06093062 72.84619141 3.37695312 C74.59365845 5.23376465 74.59365845 5.23376465 76 7 C76.69867188 7.87527344 77.39734375 8.75054687 78.1171875 9.65234375 C78.69726562 10.40644531 79.27734375 11.16054687 79.875 11.9375 C82.91114033 15.08491248 85.00145071 16.24273761 89.29296875 16.4296875 C91.66616977 16.42210773 93.98934613 16.31905749 96.35302734 16.10717773 C102.23251725 15.63203514 106.07902393 16.70274255 111 20 C113.2421875 21.96484375 113.2421875 21.96484375 114.875 23.9375 C115.42929687 24.58589844 115.98359375 25.23429687 116.5546875 25.90234375 C121.03412097 32.40357557 120.67463728 39.37140917 120 47 C118.31914417 53.65959333 113.53621678 58.18547447 108 62 C101.56912546 65.23701739 93.45288124 65.12389015 86.5546875 63.3828125 C80.47234216 60.68749868 75.95919801 55.52159643 72.765625 49.78125 C72.03565384 47.12951802 71.99070815 45.67499055 72.2265625 42.99609375 C72.28714844 42.25423828 72.34773438 41.51238281 72.41015625 40.74804688 C72.55125166 39.23062987 72.73245183 37.71630862 72.95703125 36.20898438 C73.29991348 30.81090609 71.27118737 26.60650191 67.8828125 22.48828125 C61.67223461 16.01395216 54.27765097 15.84373726 45.703125 15.609375 C40.92037911 15.54042107 36.14401839 15.60992256 31.36230469 15.71246338 C27.82237274 15.77536959 24.28258002 15.76931954 20.7421875 15.76953125 C13.82651489 15.77987867 6.9144825 15.87174238 0 16 C0 10.72 0 5.44 0 0 Z " fill="#F7DEA0" transform="translate(288,120)"/>
<path d="M0 0 C4.88201639 3.92090354 8.8728567 8.35850344 10.74609375 14.40234375 C11.5512348 22.23842583 11.87069767 30.02156952 6.74609375 36.40234375 C1.94160736 41.44755597 -2.4156768 45.0079737 -9.5234375 45.73828125 C-18.07276352 45.83254063 -23.9470047 45.50735929 -30.25390625 39.49609375 C-33.43356166 36.06001452 -35.09571716 34.03510011 -36.25390625 29.40234375 C-57.70390625 29.40234375 -79.15390625 29.40234375 -101.25390625 29.40234375 C-101.25390625 24.12234375 -101.25390625 18.84234375 -101.25390625 13.40234375 C-79.80390625 13.40234375 -58.35390625 13.40234375 -36.25390625 13.40234375 C-35.59390625 11.42234375 -34.93390625 9.44234375 -34.25390625 7.40234375 C-26.54380315 -3.07444542 -11.56183595 -6.9868299 0 0 Z " fill="#F7DEA0" transform="translate(389.25390625,34.59765625)"/>
<path d="M0 0 C10.56 0 21.12 0 32 0 C32 18.48 32 36.96 32 56 C10.88 56 -10.24 56 -32 56 C-32 48.08 -32 40.16 -32 32 C-21.44 32 -10.88 32 0 32 C0 21.44 0 10.88 0 0 Z " fill="#51A37E" transform="translate(104,240)"/>
<path d="M0 0 C4.88201639 3.92090354 8.8728567 8.35850344 10.74609375 14.40234375 C11.5512348 22.23842583 11.87069767 30.02156952 6.74609375 36.40234375 C1.94160736 41.44755597 -2.4156768 45.0079737 -9.5234375 45.73828125 C-18.07276352 45.83254063 -23.9470047 45.50735929 -30.25390625 39.49609375 C-33.43356166 36.06001452 -35.09571716 34.03510011 -36.25390625 29.40234375 C-47.14390625 29.40234375 -58.03390625 29.40234375 -69.25390625 29.40234375 C-69.25390625 24.12234375 -69.25390625 18.84234375 -69.25390625 13.40234375 C-58.36390625 13.40234375 -47.47390625 13.40234375 -36.25390625 13.40234375 C-35.59390625 11.42234375 -34.93390625 9.44234375 -34.25390625 7.40234375 C-26.54380315 -3.07444542 -11.56183595 -6.9868299 0 0 Z " fill="#F7DEA0" transform="translate(357.25390625,170.59765625)"/>
<path d="M0 0 C4.88201639 3.92090354 8.8728567 8.35850344 10.74609375 14.40234375 C11.5512348 22.23842583 11.87069767 30.02156952 6.74609375 36.40234375 C1.94160736 41.44755597 -2.4156768 45.0079737 -9.5234375 45.73828125 C-18.05301081 45.83232285 -23.87870925 45.4905 -30.21875 39.56640625 C-36.42137198 32.94520242 -37.69562711 27.33510357 -37.49609375 18.3671875 C-36.91435413 11.24556855 -34.40582802 6.67481628 -29.1171875 1.87890625 C-21.30354932 -4.31303344 -8.65048184 -5.22749548 0 0 Z " fill="#F7DEA0" transform="translate(461.25390625,98.59765625)"/>
<path d="M0 0 C4.88201639 3.92090354 8.8728567 8.35850344 10.74609375 14.40234375 C11.5512348 22.23842583 11.87069767 30.02156952 6.74609375 36.40234375 C1.94160736 41.44755597 -2.4156768 45.0079737 -9.5234375 45.73828125 C-18.05301081 45.83232285 -23.87870925 45.4905 -30.21875 39.56640625 C-36.42137198 32.94520242 -37.69562711 27.33510357 -37.49609375 18.3671875 C-36.91435413 11.24556855 -34.40582802 6.67481628 -29.1171875 1.87890625 C-21.30354932 -4.31303344 -8.65048184 -5.22749548 0 0 Z " fill="#F7DEA0" transform="translate(485.25390625,42.59765625)"/>
<path d="M0 0 C5.82485779 3.51996782 10.54466582 8.98962934 12.5625 15.5 C13.36764105 23.33608208 13.68710392 31.11922577 8.5625 37.5 C2.60837286 43.75245501 -2.40861054 46.76589628 -11.1875 47 C-19.53507797 46.86043757 -23.75332655 44.19810227 -29.50390625 38.42578125 C-35.28861965 32.10349852 -35.80357531 27.54660935 -35.70703125 19.015625 C-35.17421731 12.06587798 -32.53533977 8.27959574 -27.5 3.625 C-20.13239494 -2.67335025 -8.93475005 -3.95932061 0 0 Z " fill="#F7DEA0" transform="translate(459.4375,161.5)"/>
<path d="M0 0 C8.72788262 -0.15854306 17.4547994 -0.28679324 26.18379974 -0.3626852 C30.2376634 -0.3991215 34.29048565 -0.44848994 38.34375 -0.52807617 C42.26013827 -0.60448806 46.17552908 -0.64606244 50.09260559 -0.6641407 C51.58217564 -0.67701268 53.07169488 -0.70215008 54.56083679 -0.7401104 C67.67684731 -1.06096704 67.67684731 -1.06096704 72.79296875 3.36328125 C73.89292501 4.54751277 74.96535997 5.7582963 76 7 C76.9811796 7.96564517 77.97019779 8.92342426 78.96875 9.87109375 C79.8040625 10.71800781 80.639375 11.56492188 81.5 12.4375 C82.3559375 13.30246094 83.211875 14.16742188 84.09375 15.05859375 C84.7228125 15.69925781 85.351875 16.33992188 86 17 C85.25363281 17.73605469 84.50726563 18.47210938 83.73828125 19.23046875 C81.46228661 21.53243766 79.303056 23.86509208 77.1875 26.3125 C76.58292969 27.00988281 75.97835937 27.70726562 75.35546875 28.42578125 C74.90816406 28.94527344 74.46085937 29.46476562 74 30 C67.28240918 24.3791587 67.28240918 24.3791587 65.73791504 22.30554199 C63.14487765 19.0946267 61.15068022 17.2564967 57.05384827 16.34327698 C53.41757674 16.09436312 49.8360225 16.05694882 46.19140625 16.09765625 C44.85617142 16.08826008 43.520955 16.07579543 42.18577576 16.06040955 C38.69197076 16.02830997 35.1994841 16.03757802 31.70562744 16.05578613 C28.13238339 16.06698019 24.5594704 16.03860608 20.98632812 16.01367188 C13.99062489 15.97063037 6.99578785 15.97499809 0 16 C0 10.72 0 5.44 0 0 Z " fill="#F7D179" transform="translate(288,120)"/>
<path d="M0 0 C21.45 0 42.9 0 65 0 C65 5.28 65 10.56 65 16 C43.55 16 22.1 16 0 16 C0 10.72 0 5.44 0 0 Z " fill="#F7D179" transform="translate(288,48)"/>
<path d="M0 0 C10.56 0 21.12 0 32 0 C32 7.92 32 15.84 32 24 C21.44 24 10.88 24 0 24 C0 16.08 0 8.16 0 0 Z " fill="#308C72" transform="translate(72,272)"/>
<path d="M0 0 C5.28 0 10.56 0 16 0 C16.06900495 4.75111878 16.12869507 9.50048771 16.16479492 14.25170898 C16.17984876 15.86667789 16.20029648 17.48160613 16.22631836 19.09643555 C16.26285286 21.42246555 16.27976015 23.74795341 16.29296875 26.07421875 C16.30845261 26.79212082 16.32393646 27.51002289 16.33988953 28.24967957 C16.34136511 32.67999919 15.73905727 35.48259257 13 39 C10.37121839 40.12276504 7.83903809 40.20605922 5 40 C1.73288174 38.32455474 1.172189 37.51656699 0 34 C-0.08481773 31.41369776 -0.11598229 28.85521944 -0.09765625 26.26953125 C-0.0962413 25.51911057 -0.09482635 24.76868988 -0.09336853 23.99552917 C-0.0877756 21.6011454 -0.07522444 19.20685547 -0.0625 16.8125 C-0.05748408 15.18815239 -0.05292134 13.56380332 -0.04882812 11.93945312 C-0.0386598 7.95957025 -0.01908312 3.97989007 0 0 Z " fill="#A6BCE3" transform="translate(248,360)"/>
<path d="M0 0 C10.89 0 21.78 0 33 0 C33 5.28 33 10.56 33 16 C22.11 16 11.22 16 0 16 C0 10.72 0 5.44 0 0 Z " fill="#F7D179" transform="translate(288,184)"/>
<path d="M0 0 C5.28 0 10.56 0 16 0 C16 5.28 16 10.56 16 16 C10.72 16 5.44 16 0 16 C0 10.72 0 5.44 0 0 Z " fill="#3D44D1" transform="translate(288,296)"/>
<path d="M0 0 C4.0743356 0.84881992 5.54405875 2.30225596 8 5.625 C8.625 8.625 8.625 8.625 8 11.625 C5.54405875 14.94774404 4.0743356 16.40118008 0 17.25 C-4.0743356 16.40118008 -5.54405875 14.94774404 -8 11.625 C-8.625 8.625 -8.625 8.625 -8 5.625 C-5.54405875 2.30225596 -4.0743356 0.84881992 0 0 Z " fill="#F1BE52" transform="translate(72,63.375)"/>
<path d="M0 0 C2.0625 1.5625 2.0625 1.5625 3 4 C3.17821261 6.85140177 2.92914963 9.292848 2 12 C-0.93837168 14.85194898 -2.53597436 15 -6.625 15 C-10 14 -10 14 -12 11.875 C-13.30782688 8.11499772 -13.06090617 5.81926223 -12 2 C-8.81688665 -2.07438508 -4.54417813 -1.38635943 0 0 Z " fill="#F7C14D" transform="translate(349,185)"/>
<path d="M0 0 C2.0625 1.5625 2.0625 1.5625 3 4 C3.17821261 6.85140177 2.92914963 9.292848 2 12 C-0.93837168 14.85194898 -2.53597436 15 -6.625 15 C-10 14 -10 14 -12 11.875 C-13.30782688 8.11499772 -13.06090617 5.81926223 -12 2 C-8.81688665 -2.07438508 -4.54417813 -1.38635943 0 0 Z " fill="#F7C14D" transform="translate(453,177)"/>
<path d="M0 0 C2.0625 1.5625 2.0625 1.5625 3 4 C3.17821261 6.85140177 2.92914963 9.292848 2 12 C-0.93837168 14.85194898 -2.53597436 15 -6.625 15 C-10 14 -10 14 -12 11.875 C-13.30782688 8.11499772 -13.06090617 5.81926223 -12 2 C-8.81688665 -2.07438508 -4.54417813 -1.38635943 0 0 Z " fill="#F7C14D" transform="translate(389,153)"/>
<path d="M0 0 C2.0625 1.5625 2.0625 1.5625 3 4 C3.17821261 6.85140177 2.92914963 9.292848 2 12 C-0.93837168 14.85194898 -2.53597436 15 -6.625 15 C-10 14 -10 14 -12 11.875 C-13.30782688 8.11499772 -13.06090617 5.81926223 -12 2 C-8.81688665 -2.07438508 -4.54417813 -1.38635943 0 0 Z " fill="#F7C14D" transform="translate(453,113)"/>
<path d="M0 0 C2.0625 1.5625 2.0625 1.5625 3 4 C3.17821261 6.85140177 2.92914963 9.292848 2 12 C-0.93837168 14.85194898 -2.53597436 15 -6.625 15 C-10 14 -10 14 -12 11.875 C-13.30782688 8.11499772 -13.06090617 5.81926223 -12 2 C-8.81688665 -2.07438508 -4.54417813 -1.38635943 0 0 Z " fill="#8FD2B3" transform="translate(101,65)"/>
<path d="M0 0 C2.0625 1.5625 2.0625 1.5625 3 4 C3.17821261 6.85140177 2.92914963 9.292848 2 12 C-0.93837168 14.85194898 -2.53597436 15 -6.625 15 C-10 14 -10 14 -12 11.875 C-13.30782688 8.11499772 -13.06090617 5.81926223 -12 2 C-8.81688665 -2.07438508 -4.54417813 -1.38635943 0 0 Z " fill="#ED896D" transform="translate(53,65)"/>
<path d="M0 0 C2.0625 1.5625 2.0625 1.5625 3 4 C3.17821261 6.85140177 2.92914963 9.292848 2 12 C-0.93837168 14.85194898 -2.53597436 15 -6.625 15 C-10 14 -10 14 -12 11.875 C-13.30782688 8.11499772 -13.06090617 5.81926223 -12 2 C-8.81688665 -2.07438508 -4.54417813 -1.38635943 0 0 Z " fill="#F7C14D" transform="translate(477,57)"/>
<path d="M0 0 C2.0625 1.5625 2.0625 1.5625 3 4 C3.17821261 6.85140177 2.92914963 9.292848 2 12 C-0.93837168 14.85194898 -2.53597436 15 -6.625 15 C-10 14 -10 14 -12 11.875 C-13.30782688 8.11499772 -13.06090617 5.81926223 -12 2 C-8.81688665 -2.07438508 -4.54417813 -1.38635943 0 0 Z " fill="#F7C14D" transform="translate(381,49)"/>
</svg>
