<?xml version="1.0" encoding="UTF-8"?>
<svg version="1.1" xmlns="http://www.w3.org/2000/svg" width="512" height="512">
<path d="M0 0 C1.05682983 0.00506058 1.05682983 0.00506058 2.13500977 0.01022339 C43.01312544 0.29012423 88.82697419 11.89647644 122.25 36.4375 C124.75031654 40.18797482 124.78603554 41.99606266 124.25 46.4375 C121.43358412 50.66212382 118.7389886 51.76927041 113.9375 52.75 C112.37790527 52.99816909 110.81601911 53.23376547 109.25 53.4375 C109.806875 54.2625 110.36375 55.0875 110.9375 55.9375 C115.18129675 62.32145104 119.11912145 68.7714161 122.5625 75.625 C122.87509766 76.24052734 123.18769531 76.85605469 123.50976562 77.49023438 C126.20319287 82.97471842 128.23497595 88.67491401 130.25 94.4375 C135.72693762 94.02922618 141.20382309 93.62026166 146.68066406 93.21069336 C148.53872325 93.07183771 150.39679587 92.93316153 152.25488281 92.79467773 C162.25673272 92.04911465 172.25747711 91.30109903 182.25 90.4375 C182.23428955 89.67606689 182.2185791 88.91463379 182.20239258 88.13012695 C182.13991547 84.6701606 182.10096828 81.2103131 182.0625 77.75 C182.02479492 75.95272461 182.02479492 75.95272461 181.98632812 74.11914062 C181.97666016 72.96220703 181.96699219 71.80527344 181.95703125 70.61328125 C181.9413208 69.55020752 181.92561035 68.48713379 181.90942383 67.3918457 C182.30205148 63.9859767 183.21157034 62.17180429 185.25 59.4375 C192.42220067 54.65603289 203.78846638 57.69993336 211.875 59.125 C212.90826416 59.30361572 213.94152832 59.48223145 215.00610352 59.66625977 C242.64469734 64.63228616 242.64469734 64.63228616 251.25 71.4375 C253.56807301 74.91460951 253.50262829 76.2455959 253.51006222 80.34966755 C253.5206606 82.21321022 253.5206606 82.21321022 253.5314731 84.11440021 C253.52922154 85.50060896 253.52677501 86.88681741 253.52415466 88.27302551 C253.52860479 89.73977024 253.53391809 91.20651256 253.54002339 92.67325133 C253.55424092 96.71386831 253.55586597 100.75440851 253.55542648 104.79504693 C253.55707139 109.14894914 253.57013177 113.50281941 253.58161926 117.85670471 C253.60449363 127.38141908 253.61239246 136.9061112 253.61744571 146.43084931 C253.62069984 152.37566794 253.62722058 158.32048007 253.6344471 164.26529503 C253.65401604 180.71783776 253.67041858 197.17037445 253.67332363 213.62292957 C253.6735112 214.67628444 253.67369877 215.72963931 253.67389202 216.81491403 C253.67425828 218.95041605 253.67462198 221.08591807 253.67498314 223.22142009 C253.67516595 224.28151796 253.67534876 225.34161584 253.67553711 226.43383789 C253.67580793 228.02592063 253.67580793 228.02592063 253.67608423 229.65016665 C253.67962683 246.8534056 253.70665328 264.05651945 253.744035 281.259715 C253.78208824 298.91289939 253.80148089 316.56602166 253.80178314 334.219248 C253.80236838 344.13458349 253.81090298 354.04976975 253.83978081 363.96506691 C253.86425481 372.40726287 253.87160458 380.84925519 253.85653328 389.291477 C253.84934805 393.60013214 253.85029081 397.90838483 253.87294388 402.21699524 C253.89347995 406.16068118 253.8909846 410.1036539 253.87006903 414.04733165 C253.86656376 415.47466626 253.87152809 416.90205176 253.88577347 418.32931957 C253.99780636 430.32642809 253.99780636 430.32642809 250.86880589 434.22983837 C241.29047577 442.3044009 226.33606746 444.495524 214.17114258 446.17211914 C197.82133078 448.46205928 182.44350306 453.03949914 166.79368973 458.13003922 C163.17320292 459.30317202 159.54630255 460.45611782 155.91967773 461.61010742 C151.35201022 463.06439069 146.78464207 464.51953981 142.21955872 465.98191833 C125.45226983 471.35115687 108.63450782 476.55526162 91.8125 481.75 C90.32069173 482.2108324 88.82889076 482.67168846 87.33709717 483.13256836 C86.60224279 483.35959631 85.86738842 483.58662426 85.11026573 483.82053185 C82.17324988 484.72795214 79.2362653 485.63547358 76.29929733 486.54304886 C74.85436845 486.98949003 73.40940457 487.43581797 71.96440506 487.88203049 C63.07204808 490.62811288 54.18578175 493.39257634 45.30726624 496.18309021 C40.44117851 497.71146921 35.57257383 499.23172326 30.70358276 500.75082397 C28.47113022 501.44975747 26.23990915 502.15263862 24.01004028 502.85977173 C20.97983977 503.82038979 17.94564611 504.76719164 14.91015625 505.7109375 C14.03967651 505.99099136 13.16919678 506.27104523 12.27233887 506.55958557 C1.32719724 509.92325507 -6.42677851 507.64126851 -17.1171875 504.21484375 C-18.56162114 503.76122443 -20.00638358 503.30865095 -21.45144653 502.85704041 C-24.55340434 501.88528273 -27.65301847 500.90649169 -30.75097656 499.92205811 C-35.68466239 498.35435544 -40.62314301 496.80216838 -45.5625 495.25244141 C-51.59793981 493.35777416 -57.63223177 491.45953284 -63.66510391 489.55670547 C-74.64624798 486.09366128 -85.63666598 482.66117784 -96.6328125 479.24609375 C-97.43415997 478.99714481 -98.23550743 478.74819588 -99.06113815 478.49170303 C-106.97903658 476.03212872 -114.89800338 473.5760152 -122.81804466 471.12335014 C-126.61851681 469.94627889 -130.41869444 468.76825914 -134.21875 467.58984375 C-134.94713703 467.36404507 -135.67552406 467.13824638 -136.42598343 466.90560532 C-145.47935211 464.09751975 -154.51472253 461.24110546 -163.53125 458.31640625 C-180.72940318 452.7639747 -197.56261603 447.92141939 -215.48828125 445.34545898 C-226.77768138 443.68495722 -239.31244591 441.24131806 -248.75 434.4375 C-250.94097001 431.12032973 -251.0029626 428.31959273 -251.01006222 424.39949131 C-251.01712781 423.15452179 -251.0241934 421.90955226 -251.0314731 420.62685639 C-251.02922168 419.24290089 -251.02677518 417.85894569 -251.02415466 416.47499084 C-251.02860608 415.00667038 -251.03391981 413.53835231 -251.04002339 412.07003778 C-251.05422504 408.0297495 -251.05586627 403.98953807 -251.05542648 399.94922841 C-251.05707274 395.59399959 -251.07013554 391.23880262 -251.08161926 386.8835907 C-251.1044814 377.35900268 -251.11239088 367.83443692 -251.11744571 358.30982518 C-251.12070072 352.36517647 -251.12722192 346.42053425 -251.1344471 340.47588921 C-251.15401305 324.02330388 -251.17041781 307.57072458 -251.17332363 291.11812687 C-251.1735112 290.06505556 -251.17369877 289.01198425 -251.17389202 287.92700168 C-251.17425828 285.79209832 -251.17462198 283.65719497 -251.17498314 281.52229161 C-251.17516595 280.46249641 -251.17534876 279.40270122 -251.17553711 278.31079102 C-251.17571766 277.24970572 -251.17589821 276.18862041 -251.17608423 275.09538101 C-251.17962794 257.89153011 -251.20666263 240.68780422 -251.244035 223.4839967 C-251.28207994 205.82965546 -251.30148082 188.17537633 -251.30178314 170.52099317 C-251.3023685 160.60514554 -251.31091129 150.6894471 -251.33978081 140.77363777 C-251.36424352 132.33253539 -251.37161214 123.89163663 -251.35653328 115.45050842 C-251.34934385 111.14197025 -251.35030878 106.83383457 -251.37294388 102.52534103 C-251.39345756 98.58298066 -251.39100583 94.64133416 -251.37006903 90.69898217 C-251.36655947 89.27102232 -251.371546 87.84301175 -251.38577347 86.41511846 C-251.49781979 74.397768 -251.49781979 74.397768 -248.35562229 71.14479733 C-237.15756653 63.80742893 -223.68683395 61.92387292 -210.75 59.4375 C-210.05068359 59.30182617 -209.35136719 59.16615234 -208.63085938 59.02636719 C-189.36155122 55.38387283 -189.36155122 55.38387283 -182.5625 59.25 C-179.56162404 62.87174685 -179.63019763 65.87801445 -179.65234375 70.41796875 C-179.65717773 72.16303711 -179.65717773 72.16303711 -179.66210938 73.94335938 C-179.67467773 75.76577148 -179.67467773 75.76577148 -179.6875 77.625 C-179.69201172 78.85154297 -179.69652344 80.07808594 -179.70117188 81.34179688 C-179.71296935 84.37374668 -179.72943079 87.40559906 -179.75 90.4375 C-172.82671842 91.00886636 -165.90328297 91.57833904 -158.97973633 92.14648438 C-156.62358049 92.34005649 -154.26746045 92.53406492 -151.91137695 92.72851562 C-148.52825042 93.00765383 -145.14499898 93.2852317 -141.76171875 93.5625 C-140.17722176 93.69374268 -140.17722176 93.69374268 -138.56071472 93.82763672 C-137.57992447 93.90771973 -136.59913422 93.98780273 -135.58862305 94.0703125 C-134.72480515 94.14137207 -133.86098724 94.21243164 -132.97099304 94.28564453 C-131.23398144 94.40440884 -129.49106699 94.4375 -127.75 94.4375 C-127.54955078 93.90495605 -127.34910156 93.37241211 -127.14257812 92.82373047 C-113.77522767 57.60940079 -90.64918138 27.73319252 -55.5847168 11.84814453 C-50.73707819 9.75224083 -45.80350138 7.91139932 -40.8125 6.1875 C-39.81319458 5.83606934 -39.81319458 5.83606934 -38.79370117 5.47753906 C-26.11936368 1.31202534 -13.29539677 -0.12542452 0 0 Z " fill="#3A64CC" transform="translate(254.75,1.5625)"/>
<path d="M0 0 C0 112.53 0 225.06 0 341 C-13.50275915 348.71586237 -28.77306308 350.05236853 -44 352 C-44.33 346.06 -44.66 340.12 -45 334 C-53.97710317 330.9346477 -62.92056865 327.96527519 -72.0625 325.4375 C-89.86313616 320.49740707 -107.40891092 314.63125177 -125 309 C-125.0093457 307.98276855 -125.01869141 306.96553711 -125.02832031 305.91748047 C-125.06877172 302.07396677 -125.13466954 298.23120818 -125.20751953 294.38818359 C-125.23541447 292.73789308 -125.25678219 291.08747677 -125.27099609 289.43701172 C-125.3973957 275.5751882 -127.14392792 263.57490508 -133.75 251.125 C-134.06582031 250.52042969 -134.38164062 249.91585937 -134.70703125 249.29296875 C-135.45979887 247.85586694 -136.22801521 246.42687077 -137 245 C-134.21694401 241.8314138 -132.39683528 240.23722782 -128.18026733 239.52111816 C-124.62728052 239.34173181 -121.10048157 239.30810782 -117.54296875 239.328125 C-115.55925334 239.30865049 -113.57553796 239.28917274 -111.59182453 239.26949692 C-108.82655916 239.24839442 -106.06147397 239.25019743 -103.29614258 239.25140381 C-98.43530094 239.24816775 -93.57461469 239.2055451 -88.71394348 239.16766357 C-86.12763087 239.14982867 -83.54125301 239.13960983 -80.95487976 239.13751221 C-79.79309708 239.13370544 -78.63131439 239.12989868 -77.43432617 239.12597656 C-76.40651535 239.12551331 -75.37870453 239.12505005 -74.31974792 239.12457275 C-72.03841569 239.26113959 -72.03841569 239.26113959 -71 238 C-70.95936168 236.33382885 -70.957279 234.66611905 -71 233 C-79.09315174 232.86063453 -87.18579758 232.75419677 -95.27985477 232.68912697 C-99.03880935 232.65788733 -102.79693968 232.61555408 -106.55541992 232.54736328 C-110.18649258 232.48190056 -113.8167754 232.44623859 -117.44839287 232.43073654 C-118.82990382 232.41969774 -120.21137422 232.39814043 -121.59254646 232.36561966 C-130.65530689 231.98503352 -130.65530689 231.98503352 -138.40405273 236.03662109 C-139.26071533 237.01453613 -140.11737793 237.99245117 -141 239 C-144.0800582 237.50863727 -146.64504211 235.81843226 -149.375 233.75 C-158.5198342 227.25485773 -168.71507322 223.08715122 -179.95703125 222.68359375 C-181.06884766 222.64169922 -182.18066406 222.59980469 -183.32617188 222.55664062 C-184.47666016 222.51732422 -185.62714844 222.47800781 -186.8125 222.4375 C-187.98232422 222.39431641 -189.15214844 222.35113281 -190.35742188 222.30664062 C-193.23815093 222.20081792 -196.11906049 222.09992927 -199 222 C-199 218.04 -199 214.08 -199 210 C-197.98421875 209.45472656 -196.9684375 208.90945313 -195.921875 208.34765625 C-170.14689719 194.31859622 -149.47910002 174.51561075 -140.375 145.9375 C-138.11238046 140.52374366 -132.464436 138.7947557 -127.41015625 136.60546875 C-119.05416807 132.67154992 -114.33469902 125.70158076 -110.88671875 117.28125 C-110.19440881 115.20760126 -109.58689368 113.10591262 -109 111 C-107.96939453 110.83564453 -107.96939453 110.83564453 -106.91796875 110.66796875 C-106.01691406 110.50941406 -105.11585938 110.35085937 -104.1875 110.1875 C-103.29417969 110.03667969 -102.40085937 109.88585937 -101.48046875 109.73046875 C-98.76353184 108.93036292 -97.70779042 108.22497616 -96 106 C-94.74808144 102.24424431 -94.79888645 98.70441468 -94.76171875 94.7890625 C-94.74961113 93.58133682 -94.74961113 93.58133682 -94.73725891 92.34921265 C-94.723437 90.64624168 -94.71270638 88.94324323 -94.70483398 87.24023438 C-94.68760865 84.64139206 -94.64370613 82.0438183 -94.59960938 79.4453125 C-94.58948286 77.78907183 -94.58096663 76.13282038 -94.57421875 74.4765625 C-94.54795662 73.31539413 -94.54795662 73.31539413 -94.52116394 72.13076782 C-94.53566265 68.5094848 -94.87817292 66.21143311 -96.69848633 63.05224609 C-99.30285036 60.72995013 -100.82972298 60.18254009 -104.25 59.6875 C-105.14203125 59.54699219 -106.0340625 59.40648437 -106.953125 59.26171875 C-107.62859375 59.17535156 -108.3040625 59.08898437 -109 59 C-109.029729 57.96613159 -109.029729 57.96613159 -109.06005859 56.91137695 C-109.44119144 40.09883806 -109.44119144 40.09883806 -111.59765625 23.453125 C-112.01215395 20.92589629 -112.06896325 18.55623795 -112 16 C-102.54451579 14.99030633 -93.08697017 14.0680742 -83.60546875 13.33984375 C-56.38869399 11.23810722 -26.21490546 0 0 0 Z " fill="#6BDCDC" transform="translate(499,89)"/>
<path d="M0 0 C0.74693115 0.20464371 1.4938623 0.40928741 2.26342773 0.62013245 C3.24770752 0.88929977 4.2319873 1.1584671 5.24609375 1.43579102 C6.70680298 1.83556908 6.70680298 1.83556908 8.19702148 2.24342346 C42.25274524 11.43570283 77.95868889 13.41445125 113 16 C112.79503906 17.00933594 112.59007813 18.01867187 112.37890625 19.05859375 C109.85022836 32.33141938 109.29663957 45.5119134 109 59 C108.32453125 59.08636719 107.6490625 59.17273438 106.953125 59.26171875 C106.06109375 59.40222656 105.1690625 59.54273438 104.25 59.6875 C102.92742187 59.87892578 102.92742187 59.87892578 101.578125 60.07421875 C98.01647098 61.35317633 96.89238228 62.72909523 95 66 C94.62107633 68.93403085 94.46109121 71.47985839 94.50390625 74.40625 C94.5017234 75.60973083 94.5017234 75.60973083 94.49949646 76.83752441 C94.50115152 78.52860151 94.51266878 80.21969428 94.53344727 81.91064453 C94.56240873 84.49186505 94.55404759 87.07103045 94.54101562 89.65234375 C94.5472536 91.2994891 94.555645 92.94662799 94.56640625 94.59375 C94.56347061 95.36158813 94.56053497 96.12942627 94.55751038 96.92053223 C94.63681667 101.44883017 95.16802466 104.41891076 98 108 C100.90092502 109.93395001 101.89674737 110.30131941 105.1875 110.625 C106.445625 110.74875 107.70375 110.8725 109 111 C109.20753906 111.67804688 109.41507812 112.35609375 109.62890625 113.0546875 C113.48035327 124.68960277 119.13377386 132.98536107 130 139 C131.57921354 139.51286356 133.16244309 140.01357684 134.75 140.5 C138.1551862 141.88242181 138.92989546 142.86711042 140.68359375 146.19140625 C142.01705027 149.45973194 143.16155785 152.7935097 144.31591797 156.12841797 C153.46326453 181.15467019 176.34029286 198.20453601 199 210 C199 213.96 199 217.92 199 222 C196.39351563 222.03867187 196.39351563 222.03867187 193.734375 222.078125 C191.40622644 222.13445117 189.07810241 222.19179744 186.75 222.25 C185.61046875 222.26417969 184.4709375 222.27835938 183.296875 222.29296875 C167.28047168 222.74798021 153.59972798 229.01767689 142 240 C136.29648507 246.57100759 131.929292 253.80212274 129 262 C128.74323486 262.70487549 128.48646973 263.40975098 128.22192383 264.13598633 C125.31705216 273.18099679 125.44132785 282.28492063 125.3125 291.6875 C125.27925889 293.37177021 125.24476319 295.05601616 125.20898438 296.74023438 C125.12486655 300.82668713 125.05769677 304.91309233 125 309 C122.36 309.66 119.72 310.32 117 311 C117.00049095 310.09497993 117.00049095 310.09497993 117.00099182 309.17167664 C117.00185385 307.29656483 117.00246666 305.4214529 117.00291443 303.54634094 C117.00359053 301.26467361 117.00488776 298.98300641 117.00672913 296.70133972 C117.00957362 289.99797636 116.99343849 283.29546819 116.94873047 276.59228516 C116.90510779 269.93849236 116.89877857 263.28549761 116.92484093 256.63160896 C116.93841454 252.80470673 116.93421407 248.97933108 116.89379883 245.15258789 C116.85453763 241.36765822 116.85910368 237.58506319 116.89392281 233.80011559 C116.89947203 232.37962984 116.8896114 230.95898799 116.86323357 229.53873634 C116.67447319 218.62509228 116.67447319 218.62509228 120.00662231 214.53988647 C125.66527083 210 125.66527083 210 129 210 C129.26683594 209.46375 129.53367188 208.9275 129.80859375 208.375 C130.68852062 206.62091628 131.57799178 204.87161286 132.47265625 203.125 C132.99730469 202.09375 133.52195313 201.0625 134.0625 200 C134.85333984 198.453125 134.85333984 198.453125 135.66015625 196.875 C139.1532684 189.37957567 139.18512894 180.07235186 137.31640625 172.07421875 C133.29014548 161.33195453 126.62909872 154.73907122 116.43359375 149.7421875 C107.14176373 145.87397297 98.1129593 145.45690564 88.6875 149.125 C79.65586288 153.38498167 73.86783429 158.21970076 69 167 C68.48759766 167.88751953 68.48759766 167.88751953 67.96484375 168.79296875 C64.10329837 176.92915506 64.83490227 188.5901104 67.5625 196.9375 C71.18444047 205.37180893 76.14842819 211.1431634 84.27734375 215.41796875 C84.84582031 215.94003906 85.41429688 216.46210938 86 217 C86.10766602 220.09887695 86.10766602 220.09887695 86 223 C84.6087793 223.00616333 84.6087793 223.00616333 83.18945312 223.01245117 C79.71473758 223.03958382 76.24174184 223.08882446 72.76757812 223.15258789 C71.27029124 223.17564043 69.77284514 223.19013346 68.27539062 223.19555664 C56.11564432 223.01520296 56.11564432 223.01520296 46 229 C41.74627892 235.0001752 41.40978661 240.8375614 41.46875 248 C41.4649231 249.03511719 41.46109619 250.07023438 41.45715332 251.13671875 C41.45444346 253.31511412 41.46173937 255.49354254 41.47851562 257.671875 C41.49993756 260.99032718 41.47868129 264.30661449 41.453125 267.625 C41.45576844 269.75000474 41.46089375 271.87500814 41.46875 274 C41.46065308 274.98355469 41.45255615 275.96710938 41.44421387 276.98046875 C41.5273337 283.14142734 42.45853772 287.86635284 46 293 C48.37842577 295.40406384 48.37842577 295.40406384 51 297 C51.598125 297.391875 52.19625 297.78375 52.8125 298.1875 C55.87371076 299.41962202 55.87371076 299.41962202 63 300 C63 309.24 63 318.48 63 328 C57.06 329.98 51.12 331.96 45 334 C44.67 339.94 44.34 345.88 44 352 C29.80399538 351.17704321 12.0636271 349.04241807 0 341 C-0.37259549 338.56510103 -0.37259549 338.56510103 -0.36914349 335.42838097 C-0.37511663 334.23656098 -0.38108978 333.04474099 -0.38724393 331.81680524 C-0.37868373 330.48247251 -0.36984692 329.14814153 -0.36076355 327.81381226 C-0.36207068 326.40552745 -0.3646954 324.99724334 -0.36853105 323.58896315 C-0.37526618 319.7054526 -0.36320207 315.8221884 -0.34819686 311.93870926 C-0.33528414 307.75601945 -0.33962257 303.57334439 -0.34190369 299.39064026 C-0.34347945 292.13930321 -0.33403868 284.88804693 -0.31719017 277.63673019 C-0.29284566 267.15245788 -0.28499957 256.66822477 -0.2812262 246.18392725 C-0.27465455 229.17533038 -0.25467409 212.16677659 -0.22631836 195.15820312 C-0.19879621 178.63248918 -0.17755361 162.10678692 -0.16479492 145.58105469 C-0.16400675 144.56301464 -0.16321858 143.5449746 -0.16240653 142.49608485 C-0.15849151 137.3890579 -0.15470037 132.28203086 -0.15097082 127.17500377 C-0.11985272 84.783306 -0.06699756 42.39165522 0 0 Z " fill="#6ADCDC" transform="translate(13,89)"/>
<path d="M0 0 C0 5.94 0 11.88 0 18 C-2.64 17.67 -5.28 17.34 -8 17 C-8 19.31 -8 21.62 -8 24 C-7.13375 24.268125 -6.2675 24.53625 -5.375 24.8125 C-2 26 -2 26 1 27.625 C4.30431916 29.13947962 6.40868539 29.32648315 10 29 C10.99 28.505 10.99 28.505 12 28 C14.0625 28.5625 14.0625 28.5625 16 30 C16.8125 33.0625 16.8125 33.0625 17 36 C16.67 36.33 16.34 36.66 16 37 C15.95936168 38.66617115 15.957279 40.33388095 16 42 C17.134375 42.28875 18.26875 42.5775 19.4375 42.875 C20.613125 43.24625 21.78875 43.6175 23 44 C23.33 44.66 23.66 45.32 24 46 C24.99 46.33 25.98 46.66 27 47 C27.1875 49.875 27.1875 49.875 27 53 C26.01 53.66 25.02 54.32 24 55 C23.53665948 56.99251574 23.53665948 56.99251574 23.6015625 59.28125 C23.59769531 60.12300781 23.59382812 60.96476562 23.58984375 61.83203125 C23.60144531 62.71246094 23.61304688 63.59289062 23.625 64.5 C23.60759766 65.82064453 23.60759766 65.82064453 23.58984375 67.16796875 C23.59371094 68.00972656 23.59757813 68.85148437 23.6015625 69.71875 C23.60663818 70.87793945 23.60663818 70.87793945 23.61181641 72.06054688 C23.84364865 74.40637982 23.84364865 74.40637982 27 76 C27.375 79 27.375 79 27 82 C26.01 82.66 25.02 83.32 24 84 C23.58519893 86.02887311 23.58519893 86.02887311 23.70703125 88.3515625 C23.7215332 89.62773437 23.7215332 89.62773437 23.73632812 90.9296875 C23.76146484 91.81914062 23.78660156 92.70859375 23.8125 93.625 C23.82603516 94.5221875 23.83957031 95.419375 23.85351562 96.34375 C23.88893075 98.56309789 23.93831539 100.78125188 24 103 C25.66611905 103.042721 27.33382885 103.04063832 29 103 C30.94090826 101.05909174 30.39919435 97.52706098 30.5625 94.9375 C30.64628906 93.64714844 30.73007812 92.35679687 30.81640625 91.02734375 C30.87699219 90.02832031 30.93757812 89.02929688 31 88 C40.32251757 90.56130602 49.53904228 93.40296208 58.74267578 96.36157227 C63.38659039 97.85386443 68.03545677 99.32473856 72.69921875 100.75390625 C78.86440318 102.64381667 85.01879919 104.5671485 91.171875 106.49609375 C92.18591904 106.81377716 93.19996307 107.13146057 94.24473572 107.45877075 C98.47136948 108.78293538 102.69795749 110.10723958 106.92382812 111.43383789 C119.58288664 115.40694023 132.25290042 119.31810778 145 123 C141.91760314 125.05493124 139.42031759 125.93544758 135.89550781 127.03125 C134.63700012 127.42505859 133.37849243 127.81886719 132.08184814 128.22460938 C130.70564593 128.64986526 129.32940388 129.07499227 127.953125 129.5 C126.539162 129.94035631 125.12532506 130.38111757 123.71160889 130.82226562 C119.98709746 131.98318285 116.26076053 133.13813267 112.53405762 134.29199219 C109.50619872 135.2305621 106.47965342 136.17332414 103.45317459 137.11633301 C99.82859361 138.24562314 96.20344936 139.37309887 92.578125 140.5 C91.54992519 140.81964722 91.54992519 140.81964722 90.50095367 141.14575195 C88.54161879 141.75436738 86.58191434 142.36177637 84.62207031 142.96875 C83.50971008 143.31357422 82.39734985 143.65839844 81.25128174 144.01367188 C80.17835876 144.33916016 79.10543579 144.66464844 78 145 C76.83244675 145.35971893 75.66489349 145.71943787 74.46195984 146.09005737 C64.46811218 148.71684348 53.49939685 148.26824426 43.21484375 148.5546875 C42.47766554 148.57562344 41.74048733 148.59655937 40.98097038 148.61812973 C15.34231428 149.3164298 -10.31601902 149.15004254 -35.96216929 149.12856936 C-41.72863936 149.12424519 -47.49508741 149.12731995 -53.26155609 149.1321975 C-58.94082252 149.13680014 -64.62007976 149.13734549 -70.29934746 149.13475883 C-73.64260656 149.13323694 -76.98583981 149.13330624 -80.32909966 149.13629532 C-94.09076766 149.14591419 -107.84176528 149.02835518 -121.59790039 148.61669922 C-123.35092169 148.57118518 -123.35092169 148.57118518 -125.13935757 148.52475166 C-134.63556625 148.20107624 -143.97754789 147.19446207 -153.06542969 144.29174805 C-154.09400085 143.96768478 -155.12257202 143.64362152 -156.18231201 143.30973816 C-157.2513678 142.96389175 -158.32042358 142.61804535 -159.421875 142.26171875 C-160.56553528 141.89907425 -161.70919556 141.53642975 -162.88751221 141.16279602 C-166.51083406 140.01202468 -170.13044675 138.85006373 -173.75 137.6875 C-176.16121572 136.91916008 -178.5726724 136.15157594 -180.984375 135.38476562 C-185.59426893 133.91818593 -190.20291877 132.44780308 -194.81054688 130.97412109 C-202.19621317 128.61445755 -209.59449992 126.29661542 -217 124 C-213.64402632 121.76268421 -210.31892263 120.70896883 -206.5078125 119.5390625 C-205.76602753 119.3072226 -205.02424255 119.07538269 -204.25997925 118.83651733 C-201.88303517 118.09481764 -199.50407227 117.35984113 -197.125 116.625 C-195.56236387 116.13845782 -193.9998624 115.65148293 -192.4375 115.1640625 C-185.61173688 113.03721448 -178.77972718 110.93090233 -171.9453125 108.83203125 C-166.87018071 107.27278003 -161.80815441 105.67578562 -156.75 104.0625 C-150.07547793 101.9426403 -143.38148102 99.91506027 -136.65234375 97.97607422 C-132.48504057 96.76417425 -128.34933596 95.47701225 -124.22265625 94.1328125 C-123.23241455 93.81111084 -122.24217285 93.48940918 -121.22192383 93.15795898 C-119.27824656 92.52326604 -117.3365719 91.8823986 -115.3972168 91.23461914 C-114.5081665 90.94449951 -113.61911621 90.65437988 -112.703125 90.35546875 C-111.91583008 90.09403076 -111.12853516 89.83259277 -110.31738281 89.56323242 C-107.8028591 88.95208554 -105.5781278 88.90099487 -103 89 C-102.93941406 89.84304688 -102.87882812 90.68609375 -102.81640625 91.5546875 C-102.73261719 92.65039062 -102.64882812 93.74609375 -102.5625 94.875 C-102.48128906 95.96554687 -102.40007812 97.05609375 -102.31640625 98.1796875 C-102.16998297 100.94728971 -102.16998297 100.94728971 -101 103 C-99.35 102.67 -97.7 102.34 -96 102 C-96 95.73 -96 89.46 -96 83 C-97.485 82.505 -97.485 82.505 -99 82 C-99.1875 79.125 -99.1875 79.125 -99 76 C-98.01 75.34 -97.02 74.68 -96 74 C-95.53665948 72.00748426 -95.53665948 72.00748426 -95.6015625 69.71875 C-95.59769531 68.87699219 -95.59382813 68.03523438 -95.58984375 67.16796875 C-95.60144531 66.28753906 -95.61304688 65.40710938 -95.625 64.5 C-95.61339844 63.61957031 -95.60179687 62.73914063 -95.58984375 61.83203125 C-95.59371094 60.99027344 -95.59757812 60.14851563 -95.6015625 59.28125 C-95.60663818 58.12206055 -95.60663818 58.12206055 -95.61181641 56.93945312 C-95.84364865 54.59362018 -95.84364865 54.59362018 -99 53 C-99.1875 49.875 -99.1875 49.875 -99 47 C-97.68 46.67 -96.36 46.34 -95 46 C-95 45.01 -95 44.02 -95 43 C-92.69 43 -90.38 43 -88 43 C-87.79029441 38.85906302 -87.79029441 38.85906302 -89 35 C-88.72057545 33.32345271 -88.39171753 31.65391846 -88 30 C-84.69624213 29.42184237 -81.47193353 28.95741399 -78.125 28.6875 C-74.15161534 28.22903254 -71.13028671 26.78010073 -67.6640625 24.83984375 C-66 24 -66 24 -64 24 C-64 21.69 -64 19.38 -64 17 C-66.64 17.33 -69.28 17.66 -72 18 C-72 12.39 -72 6.78 -72 1 C-70.288125 1.28875 -68.57625 1.5775 -66.8125 1.875 C-60.21714939 2.97553526 -53.61090522 3.99770147 -47 5 C-47 5.66 -47 6.32 -47 7 C-48.06541016 7.47179687 -48.06541016 7.47179687 -49.15234375 7.953125 C-50.53099609 8.59507812 -50.53099609 8.59507812 -51.9375 9.25 C-52.85402344 9.66765625 -53.77054688 10.0853125 -54.71484375 10.515625 C-57.1447157 11.78824613 -57.1447157 11.78824613 -57.87890625 14.109375 C-57.91886719 14.73328125 -57.95882812 15.3571875 -58 16 C-57.67 16.33 -57.34 16.66 -57 17 C-50.86614529 16.73898491 -44.92141484 14.73348712 -40 11 C-39.14248676 8.41689976 -39.14248676 8.41689976 -39 6 C-37.02 6 -35.04 6 -33 6 C-32.896875 6.886875 -32.79375 7.77375 -32.6875 8.6875 C-30.361337 13.25367181 -27.4012095 14.1315353 -22.82421875 16.1171875 C-20.03180417 16.99005845 -17.9023398 17.17974418 -15 17 C-14.67 15.68 -14.34 14.36 -14 13 C-14.721875 12.566875 -15.44375 12.13375 -16.1875 11.6875 C-20.09375 9.34375 -20.09375 9.34375 -24 7 C-21.72871644 4.72871644 -20.79504253 4.56490039 -17.71875 3.96484375 C-16.87699219 3.79533203 -16.03523437 3.62582031 -15.16796875 3.45117188 C-14.28753906 3.28166016 -13.40710938 3.11214844 -12.5 2.9375 C-10.75994411 2.59483892 -9.02033583 2.24989459 -7.28125 1.90234375 C-6.50845703 1.75273193 -5.73566406 1.60312012 -4.93945312 1.44897461 C-3.22351533 1.05174278 -1.71898365 0 0 0 Z " fill="#DEE9FB" transform="translate(292,302)"/>
<path d="M0 0 C1.44836746 0.05226746 1.44836746 0.05226746 2.92599487 0.10559082 C29.84984949 1.12926907 29.84984949 1.12926907 40.625 10.1875 C41.644729 10.95175293 42.66445801 11.71600586 43.71508789 12.50341797 C47.49256781 16.3364681 47.33869849 20.14421859 47.38172913 25.32698059 C47.3493943 27.10838692 47.3493943 27.10838692 47.31640625 28.92578125 C47.31503159 30.16112106 47.31365692 31.39646088 47.3122406 32.66923523 C47.30087723 35.94619114 47.26197048 39.2213837 47.21185303 42.4979248 C47.1715922 45.80778825 47.18102571 49.11766546 47.18164062 52.42773438 C47.16688622 54.96876796 47.14939739 57.50978745 47.12890625 60.05078125 C47.12556778 61.23231277 47.12222931 62.4138443 47.11878967 63.63117981 C46.9627306 72.7726451 45.68809472 81.00751942 39.625 88.1875 C31.80807525 94.40822065 24.81084425 96.44831424 14.96875 96.8203125 C14.03059448 96.86187469 13.09243896 96.90343689 12.12585449 96.94625854 C10.1356725 97.03258321 8.14530375 97.11469168 6.15478516 97.19287109 C3.18990475 97.30993728 0.22590568 97.44085761 -2.73828125 97.57421875 C-7.62443697 97.78763915 -12.510645 97.94906063 -17.39941406 98.08898926 C-20.4480671 98.18991898 -23.49240714 98.33856672 -26.5390625 98.48730469 C-28.51555662 98.5535064 -30.49211897 98.61770811 -32.46875 98.6796875 C-33.37685425 98.73504669 -34.2849585 98.79040588 -35.22058105 98.84744263 C-41.45489007 98.97881611 -41.45489007 98.97881611 -44.14575195 96.66461182 C-45.15958852 95.42173134 -46.14306269 94.15337662 -47.09240723 92.86056519 C-48.95100732 90.43613307 -50.39766213 89.82168152 -53.375 89.1875 C-56.54592233 88.9281759 -59.69470049 88.90719737 -62.875 88.921875 C-63.78830078 88.91996155 -64.70160156 88.9180481 -65.64257812 88.91607666 C-67.56901323 88.91471874 -69.4954576 88.91838768 -71.421875 88.92675781 C-74.36479311 88.93746287 -77.3071008 88.92684916 -80.25 88.9140625 C-82.12500134 88.91538416 -84.00000231 88.9179467 -85.875 88.921875 C-86.75220703 88.91782654 -87.62941406 88.91377808 -88.53320312 88.90960693 C-94.69957503 88.94396792 -94.69957503 88.94396792 -100.375 91.1875 C-101.75712377 92.87512731 -101.75712377 92.87512731 -102.875 94.77734375 C-104.88819235 97.23331101 -105.9182367 98.08472826 -109.05078125 98.78955078 C-112.51580331 98.95730014 -115.90869596 98.89439156 -119.375 98.75 C-120.66631836 98.71994873 -121.95763672 98.68989746 -123.28808594 98.65893555 C-126.87223356 98.56956514 -130.45283867 98.42809119 -134.03491211 98.27856445 C-136.46897615 98.18384292 -138.90296238 98.10984167 -141.33789062 98.04101562 C-145.59805468 97.91979456 -149.85631461 97.77012018 -154.11474609 97.59860229 C-155.77304433 97.53346466 -157.43159221 97.47436965 -159.09033203 97.42166138 C-169.91278288 97.0558864 -178.55227266 95.97507581 -187.1875 88.875 C-192.80657099 81.97156993 -195.32341569 76.57905162 -195.72314453 67.62207031 C-195.77213898 66.53033508 -195.82113342 65.43859985 -195.87161255 64.31378174 C-196.06268498 59.33613717 -196.22628374 54.35807825 -196.37207031 49.37890625 C-196.45714544 46.75781289 -196.56025117 44.13724085 -196.68164062 41.51757812 C-196.85549015 37.72536595 -196.96890523 33.93538365 -197.0703125 30.140625 C-197.13550079 28.9778302 -197.20068909 27.8150354 -197.26785278 26.61700439 C-197.34395858 21.80685474 -197.2953597 18.51070581 -194.49627686 14.4864502 C-181.59223098 1.20567557 -165.83566296 0.78119962 -148.375 0.0625 C-147.39224091 0.02080688 -146.40948181 -0.02088623 -145.39694214 -0.06384277 C-97.070905 -2.02343417 -48.32631324 -1.89208015 0 0 Z " fill="#4671C6" transform="translate(330.375,121.8125)"/>
<path d="M0 0 C0 0.33 0 0.66 0 1 C-9.405 1.99 -9.405 1.99 -19 3 C-20.52577181 7.62292452 -20.52577181 7.62292452 -18.8828125 9.74609375 C-18.30273438 10.30425781 -17.72265625 10.86242188 -17.125 11.4375 C-9.26782501 19.82472251 -3.91336874 29.7519451 1 40.0625 C1.38591309 40.87178955 1.77182617 41.6810791 2.16943359 42.51489258 C3.95313534 46.36560884 5.26705759 49.79611719 6 54 C-12.60757342 55.35853352 -31.21286912 56.25433458 -49.87194824 56.40942383 C-51.82672161 56.42808786 -53.78143229 56.4553825 -55.73596191 56.49145508 C-58.49762537 56.53926691 -61.25749901 56.55352002 -64.01953125 56.55859375 C-64.84002457 56.5780455 -65.66051788 56.59749725 -66.50587463 56.61753845 C-72.43179292 56.57130499 -74.75276858 55.08771841 -79 51 C-82.28597161 49.90467613 -84.7517939 49.85314476 -88.2121582 49.82299805 C-89.49391434 49.81016281 -90.77567047 49.79732758 -92.0962677 49.78410339 C-93.49776828 49.77593555 -94.89927324 49.7684919 -96.30078125 49.76171875 C-97.00765768 49.75764322 -97.71453411 49.7535677 -98.44283104 49.74936867 C-102.18445924 49.72852598 -105.92605096 49.71421661 -109.66772461 49.70483398 C-113.52467876 49.69377411 -117.38105526 49.65937478 -121.23780537 49.61966228 C-124.21045476 49.59346994 -127.18296703 49.58513988 -130.15572166 49.58155251 C-131.57704761 49.57669313 -132.99836769 49.5650975 -134.41958046 49.54651451 C-136.41279743 49.52207254 -138.4062965 49.52551283 -140.3996582 49.5300293 C-142.0981768 49.52122993 -142.0981768 49.52122993 -143.83100891 49.51225281 C-148.58647587 50.24417839 -151.6506609 52.6506609 -155 56 C-159.47327623 56.87588626 -163.52927753 56.89736857 -168 56 C-171.567635 53.41211325 -173.08227452 49.89994846 -175 46 C-175.80981827 44.45438644 -176.61972089 42.90881708 -177.4296875 41.36328125 C-183.07781724 30.28527132 -187.26595337 19.11164338 -190.4296875 7.09472656 C-190.96558252 5.1264135 -191.58941253 3.1826447 -192.21875 1.2421875 C-193.02267066 -2.09408326 -193.19493354 -3.80616841 -192 -7 C-147.18459375 -57.75199253 -46.73545213 -32.59289792 0 0 Z " fill="#E8A87D" transform="translate(370,44)"/>
<path d="M0 0 C9.32251757 2.56130602 18.53904228 5.40296208 27.74267578 8.36157227 C32.38659039 9.85386443 37.03545677 11.32473856 41.69921875 12.75390625 C47.86440318 14.64381667 54.01879919 16.5671485 60.171875 18.49609375 C61.18591904 18.81377716 62.19996307 19.13146057 63.24473572 19.45877075 C67.47136948 20.78293538 71.69795749 22.10723958 75.92382812 23.43383789 C88.58288664 27.40694023 101.25290042 31.31810778 114 35 C110.91760314 37.05493124 108.42031759 37.93544758 104.89550781 39.03125 C103.63700012 39.42505859 102.37849243 39.81886719 101.08184814 40.22460938 C99.70564593 40.64986526 98.32940388 41.07499227 96.953125 41.5 C95.539162 41.94035631 94.12532506 42.38111757 92.71160889 42.82226562 C88.98709746 43.98318285 85.26076053 45.13813267 81.53405762 46.29199219 C78.50619872 47.2305621 75.47965342 48.17332414 72.45317459 49.11633301 C68.82859361 50.24562314 65.20344936 51.37309887 61.578125 52.5 C60.89265846 52.71309814 60.20719193 52.92619629 59.50095367 53.14575195 C57.54161879 53.75436738 55.58191434 54.36177637 53.62207031 54.96875 C51.95352997 55.48598633 51.95352997 55.48598633 50.25128174 56.01367188 C49.17835876 56.33916016 48.10543579 56.66464844 47 57 C45.83244675 57.35971893 44.66489349 57.71943787 43.46195984 58.09005737 C33.46811218 60.71684348 22.49939685 60.26824426 12.21484375 60.5546875 C11.47766554 60.57562344 10.74048733 60.59655937 9.98097038 60.61812973 C-15.65768572 61.3164298 -41.31601902 61.15004254 -66.96216929 61.12856936 C-72.72863936 61.12424519 -78.49508741 61.12731995 -84.26155609 61.1321975 C-89.94082252 61.13680014 -95.62007976 61.13734549 -101.29934746 61.13475883 C-104.64260656 61.13323694 -107.98583981 61.13330624 -111.32909966 61.13629532 C-125.09076766 61.14591419 -138.84176528 61.02835518 -152.59790039 60.61669922 C-154.35092169 60.57118518 -154.35092169 60.57118518 -156.13935757 60.52475166 C-165.63556625 60.20107624 -174.97754789 59.19446207 -184.06542969 56.29174805 C-185.60828644 55.80565315 -185.60828644 55.80565315 -187.18231201 55.30973816 C-188.2513678 54.96389175 -189.32042358 54.61804535 -190.421875 54.26171875 C-192.13736542 53.717752 -192.13736542 53.717752 -193.88751221 53.16279602 C-197.51083406 52.01202468 -201.13044675 50.85006373 -204.75 49.6875 C-207.16121572 48.91916008 -209.5726724 48.15157594 -211.984375 47.38476562 C-216.59426893 45.91818593 -221.20291877 44.44780308 -225.81054688 42.97412109 C-233.19621317 40.61445755 -240.59449992 38.29661542 -248 36 C-244.64402632 33.76268421 -241.31892263 32.70896883 -237.5078125 31.5390625 C-236.76602753 31.3072226 -236.02424255 31.07538269 -235.25997925 30.83651733 C-232.88303517 30.09481764 -230.50407227 29.35984113 -228.125 28.625 C-226.56236387 28.13845782 -224.9998624 27.65148293 -223.4375 27.1640625 C-216.61173688 25.03721448 -209.77972718 22.93090233 -202.9453125 20.83203125 C-197.87018071 19.27278003 -192.80815441 17.67578562 -187.75 16.0625 C-181.07547793 13.9426403 -174.38148102 11.91506027 -167.65234375 9.97607422 C-163.48504057 8.76417425 -159.34933596 7.47701225 -155.22265625 6.1328125 C-154.23241455 5.81111084 -153.24217285 5.48940918 -152.22192383 5.15795898 C-150.27824656 4.52326604 -148.3365719 3.8823986 -146.3972168 3.23461914 C-145.5081665 2.94449951 -144.61911621 2.65437988 -143.703125 2.35546875 C-142.91583008 2.09403076 -142.12853516 1.83259277 -141.31738281 1.56323242 C-138.8028591 0.95208554 -136.5781278 0.90099487 -134 1 C-133.94392578 2.24716797 -133.94392578 2.24716797 -133.88671875 3.51953125 C-133.82097656 4.60621094 -133.75523437 5.69289063 -133.6875 6.8125 C-133.62949219 7.89144531 -133.57148438 8.97039062 -133.51171875 10.08203125 C-132.9516317 13.27581009 -132.37865788 13.96377102 -130 16 C-129.505 17.485 -129.505 17.485 -129 19 C-127.02 16.69 -125.04 14.38 -123 12 C-121.35 12.33 -119.7 12.66 -118 13 C-117.875 15.875 -117.875 15.875 -118 19 C-118.66 19.66 -119.32 20.32 -120 21 C-119.13375 21.44730469 -118.2675 21.89460938 -117.375 22.35546875 C-116.26125 22.96003906 -115.1475 23.56460937 -114 24.1875 C-112.88625 24.77917969 -111.7725 25.37085938 -110.625 25.98046875 C-108 28 -108 28 -107.625 30.73828125 C-107.810625 31.85783203 -107.810625 31.85783203 -108 33 C-106.34385343 33.38218767 -104.67542976 33.71395102 -103 34 C-102.67 33.67 -102.34 33.34 -102 33 C-94.86627316 33.15852726 -89.17141032 36.68628707 -83 40 C-83 41.65 -83 43.3 -83 45 C-77.39887575 46.1887111 -77.39887575 46.1887111 -72 45 C-71.67 44.34 -71.34 43.68 -71 43 C-70 41 -70 41 -68.0625 40.125 C-66 40 -66 40 -63 42 C-62.67 42.99 -62.34 43.98 -62 45 C-57.38492226 46.04214691 -57.38492226 46.04214691 -53 45 C-52.75894531 44.23300781 -52.51789063 43.46601563 -52.26953125 42.67578125 C-50.50827049 38.9635855 -48.29500181 38.06274726 -44.6875 36.1875 C-43.55699219 35.58292969 -42.42648437 34.97835937 -41.26171875 34.35546875 C-36.89824943 32.54214677 -34.43383788 32.52205404 -30 34 C-27.85744207 33.61067144 -27.85744207 33.61067144 -26 33 C-26 31.35 -26 29.7 -26 28 C-23.63508245 26.62497797 -21.26071484 25.27555542 -18.875 23.9375 C-18.20984375 23.54755859 -17.5446875 23.15761719 -16.859375 22.75585938 C-13.35691216 20.81576967 -11.60694952 19.95587056 -7.5078125 20.25390625 C-6.68023437 20.50011719 -5.85265625 20.74632812 -5 21 C-4.8453125 19.824375 -4.8453125 19.824375 -4.6875 18.625 C-4 16 -4 16 -1 14 C-0.41312216 10.65386488 -0.41312216 10.65386488 -0.3125 6.875 C-0.21388672 4.95300781 -0.21388672 4.95300781 -0.11328125 2.9921875 C-0.07589844 2.00476563 -0.03851563 1.01734375 0 0 Z " fill="#F7A6A7" transform="translate(323,390)"/>
<path d="M0 0 C1.46308762 -0.04636316 2.92731061 -0.06319267 4.39111328 -0.05566406 C5.55986496 -0.06995453 5.55986496 -0.06995453 6.75222778 -0.08453369 C8.39792482 -0.09667936 10.04376159 -0.09587735 11.68945312 -0.08300781 C14.19797833 -0.07135155 16.69973331 -0.12350093 19.20751953 -0.18066406 C30.89314443 -0.27621483 30.89314443 -0.27621483 34.66552734 2.21972656 C36.21923828 4.10058594 36.21923828 4.10058594 37.27050781 5.97851562 C38.69614222 8.2524776 39.8062939 8.79590396 42.33642578 9.67871094 C45.34792352 9.97095229 45.34792352 9.97095229 48.71533203 9.90917969 C50.66258179 9.90724609 50.66258179 9.90724609 52.64916992 9.90527344 C54.06575963 9.89274326 55.48234497 9.87971003 56.89892578 9.86621094 C58.35522285 9.85931829 59.81152181 9.85281411 61.26782227 9.84667969 C77.62977793 9.75005856 93.98471945 9.23688085 110.33642578 8.67871094 C104.98041558 21.86715181 98.82623352 32.97779137 89.33642578 43.67871094 C88.41603516 44.72478516 88.41603516 44.72478516 87.47705078 45.79199219 C71.67527077 62.6404713 47.48646516 74.38341111 24.40063477 75.86743164 C21.3969852 75.94529763 18.40341765 75.95664178 15.39892578 75.92871094 C14.34205566 75.92194336 13.28518555 75.91517578 12.19628906 75.90820312 C5.06707116 75.81348464 -1.72671277 75.42800643 -8.66357422 73.67871094 C-10.27619141 73.31132812 -10.27619141 73.31132812 -11.92138672 72.93652344 C-37.71905781 66.41496453 -60.19723071 48.85451983 -73.76513672 26.11621094 C-81.66357422 11.81451341 -81.66357422 11.81451341 -81.66357422 8.67871094 C-72.93127136 8.57690948 -64.25700702 8.65455303 -55.53857422 9.17871094 C-47.15924594 9.64149803 -38.77782798 9.88051144 -30.38677979 9.96582031 C-28.99845099 9.98262064 -27.61018771 10.00643892 -26.22210693 10.03759766 C-24.25760983 10.07977993 -22.29255062 10.09259413 -20.32763672 10.10449219 C-19.18762207 10.11907471 -18.04760742 10.13365723 -16.87304688 10.14868164 C-12.8552065 9.56033973 -10.81045618 8.21741987 -7.66357422 5.67871094 C-7.04595215 4.78635742 -6.42833008 3.89400391 -5.79199219 2.97460938 C-3.66357422 0.67871094 -3.66357422 0.67871094 0 0 Z " fill="#A3C8FE" transform="translate(241.66357421875,224.3212890625)"/>
<path d="M0 0 C1.07451416 -0.00630432 2.14902832 -0.01260864 3.25610352 -0.019104 C5.00298462 -0.01303131 5.00298462 -0.01303131 6.78515625 -0.00683594 C7.97616943 -0.00874939 9.16718262 -0.01066284 10.39428711 -0.01263428 C12.91618053 -0.01399724 15.43808094 -0.0102931 17.95996094 -0.00195312 C21.83153974 0.00874453 25.70265447 -0.00184499 29.57421875 -0.01464844 C32.01953228 -0.01332686 34.46484552 -0.01076451 36.91015625 -0.00683594 C38.07474365 -0.0108844 39.23933105 -0.01493286 40.43920898 -0.019104 C42.05098022 -0.00964752 42.05098022 -0.00964752 43.6953125 0 C45.11855835 0.00238678 45.11855835 0.00238678 46.57055664 0.00482178 C48.84765625 0.25878906 48.84765625 0.25878906 50.84765625 2.25878906 C51.10162354 5.29516602 51.10162354 5.29516602 51.10644531 9.24707031 C51.10994995 9.965914 51.11345459 10.68475769 51.11706543 11.42538452 C51.1258859 13.80745022 51.12003261 16.18922021 51.11328125 18.57128906 C51.11462781 20.22273821 51.11656827 21.87418698 51.11907959 23.52563477 C51.12203128 26.98913339 51.11773182 30.45252896 51.10839844 33.91601562 C51.09700383 38.36174217 51.10356307 42.80722726 51.11554337 47.25294495 C51.12276079 50.66379627 51.12047459 54.07459009 51.11528778 57.48544312 C51.11395096 59.12494943 51.11560015 60.76446091 51.12024689 62.40396118 C51.12531025 64.69295132 51.11760487 66.98154714 51.10644531 69.27050781 C51.10485413 70.57463623 51.10326294 71.87876465 51.10162354 73.22241211 C50.84765625 76.25878906 50.84765625 76.25878906 48.84765625 78.25878906 C46.57055664 78.51275635 46.57055664 78.51275635 43.6953125 78.51757812 C42.62079834 78.52388245 41.54628418 78.53018677 40.43920898 78.53668213 C39.27462158 78.53263367 38.11003418 78.52858521 36.91015625 78.52441406 C35.71914307 78.52632751 34.52812988 78.52824097 33.30102539 78.5302124 C30.77913197 78.53157536 28.25723156 78.52787122 25.73535156 78.51953125 C21.86377276 78.50883359 17.99265803 78.51942312 14.12109375 78.53222656 C11.67578022 78.53090499 9.23046698 78.52834264 6.78515625 78.52441406 C5.03827515 78.53048676 5.03827515 78.53048676 3.25610352 78.53668213 C1.64433228 78.52722565 1.64433228 78.52722565 0 78.51757812 C-1.42324585 78.51519135 -1.42324585 78.51519135 -2.87524414 78.51275635 C-5.15234375 78.25878906 -5.15234375 78.25878906 -7.15234375 76.25878906 C-7.40631104 73.22241211 -7.40631104 73.22241211 -7.41113281 69.27050781 C-7.41463745 68.55166412 -7.41814209 67.83282043 -7.42175293 67.0921936 C-7.4305734 64.71012791 -7.42472011 62.32835791 -7.41796875 59.94628906 C-7.41931531 58.29483991 -7.42125577 56.64339115 -7.42376709 54.99194336 C-7.42671878 51.52844473 -7.42241932 48.06504916 -7.41308594 44.6015625 C-7.40169133 40.15583595 -7.40825057 35.71035086 -7.42023087 31.26463318 C-7.42744829 27.85378186 -7.42516209 24.44298804 -7.41997528 21.03213501 C-7.41863846 19.3926287 -7.42028765 17.75311721 -7.42493439 16.11361694 C-7.42999775 13.8246268 -7.42229237 11.53603099 -7.41113281 9.24707031 C-7.40954163 7.94294189 -7.40795044 6.63881348 -7.40631104 5.29516602 C-6.96648168 0.03666303 -4.67831661 0.00784553 0 0 Z " fill="#FEE992" transform="translate(36.15234375,136.7412109375)"/>
<path d="M0 0 C0 5.94 0 11.88 0 18 C-2.64 17.67 -5.28 17.34 -8 17 C-8 19.31 -8 21.62 -8 24 C-7.13375 24.268125 -6.2675 24.53625 -5.375 24.8125 C-2 26 -2 26 1 27.625 C4.30431916 29.13947962 6.40868539 29.32648315 10 29 C10.99 28.505 10.99 28.505 12 28 C14.0625 28.5625 14.0625 28.5625 16 30 C17.30987501 33.75497502 17.04364204 35.83906999 16 39.6875 C13.41708363 43.96545523 11.65535237 44.50677377 7 46 C6.34 45.34 5.68 44.68 5 44 C0.0192596 44.28398958 -3.9272563 46.25001529 -8.25 48.5625 C-14.76174168 52 -14.76174168 52 -17 52 C-17 53.98 -17 55.96 -17 58 C-18.7578125 58.9765625 -20.515625 59.953125 -22.2734375 60.9296875 C-24.1612614 62.00897274 -24.1612614 62.00897274 -26 64 C-26 62.68 -26 61.36 -26 60 C-29.11332666 59.92587317 -31.93201549 59.9872529 -35 60.5625 C-38.2747234 61.04006383 -40.7760091 60.65945268 -44 60 C-44.66 60 -45.32 60 -46 60 C-46.33 61.32 -46.66 62.64 -47 64 C-47 63.01 -47 62.02 -47 61 C-47.94875 60.71125 -48.8975 60.4225 -49.875 60.125 C-53 59 -53 59 -55 57 C-55.125 54.375 -55.125 54.375 -55 52 C-55.87011719 51.73574219 -56.74023438 51.47148437 -57.63671875 51.19921875 C-60.94918596 50.01811836 -63.75445892 48.53597429 -66.8125 46.8125 C-71.76564 44.2592085 -74.62862798 43.62656347 -80.01953125 44.765625 C-83.22786715 45.14530972 -85.37191552 43.68466954 -88 42 C-87.979375 41.21625 -87.95875 40.4325 -87.9375 39.625 C-87.81315937 37.01885039 -87.81315937 37.01885039 -89 35 C-88.72057545 33.32345271 -88.39171753 31.65391846 -88 30 C-84.69624213 29.42184237 -81.47193353 28.95741399 -78.125 28.6875 C-74.15161534 28.22903254 -71.13028671 26.78010073 -67.6640625 24.83984375 C-66 24 -66 24 -64 24 C-64 21.69 -64 19.38 -64 17 C-67.96 17.495 -67.96 17.495 -72 18 C-72 12.39 -72 6.78 -72 1 C-69.4321875 1.433125 -69.4321875 1.433125 -66.8125 1.875 C-60.21714939 2.97553526 -53.61090522 3.99770147 -47 5 C-47 5.66 -47 6.32 -47 7 C-47.71027344 7.31453125 -48.42054688 7.6290625 -49.15234375 7.953125 C-50.07144531 8.38109375 -50.99054688 8.8090625 -51.9375 9.25 C-52.85402344 9.66765625 -53.77054688 10.0853125 -54.71484375 10.515625 C-57.1447157 11.78824613 -57.1447157 11.78824613 -57.87890625 14.109375 C-57.91886719 14.73328125 -57.95882812 15.3571875 -58 16 C-57.67 16.33 -57.34 16.66 -57 17 C-50.86614529 16.73898491 -44.92141484 14.73348712 -40 11 C-39.14248676 8.41689976 -39.14248676 8.41689976 -39 6 C-37.02 6 -35.04 6 -33 6 C-32.8453125 7.3303125 -32.8453125 7.3303125 -32.6875 8.6875 C-30.361337 13.25367181 -27.4012095 14.1315353 -22.82421875 16.1171875 C-20.03180417 16.99005845 -17.9023398 17.17974418 -15 17 C-14.67 15.68 -14.34 14.36 -14 13 C-15.0828125 12.3503125 -15.0828125 12.3503125 -16.1875 11.6875 C-18.79166667 10.125 -21.39583333 8.5625 -24 7 C-21.72871644 4.72871644 -20.79504253 4.56490039 -17.71875 3.96484375 C-16.87699219 3.79533203 -16.03523438 3.62582031 -15.16796875 3.45117188 C-14.28753906 3.28166016 -13.40710938 3.11214844 -12.5 2.9375 C-10.75994411 2.59483892 -9.02033583 2.24989459 -7.28125 1.90234375 C-6.50845703 1.75273193 -5.73566406 1.60312012 -4.93945312 1.44897461 C-3.22351533 1.05174278 -1.71898365 0 0 0 Z " fill="#DEE9FB" transform="translate(292,302)"/>
<path d="M0 0 C1.07451416 -0.00630432 2.14902832 -0.01260864 3.25610352 -0.019104 C5.00298462 -0.01303131 5.00298462 -0.01303131 6.78515625 -0.00683594 C7.97616943 -0.00874939 9.16718262 -0.01066284 10.39428711 -0.01263428 C12.91618053 -0.01399724 15.43808094 -0.0102931 17.95996094 -0.00195312 C21.83153974 0.00874453 25.70265447 -0.00184499 29.57421875 -0.01464844 C32.01953228 -0.01332686 34.46484552 -0.01076451 36.91015625 -0.00683594 C38.07474365 -0.0108844 39.23933105 -0.01493286 40.43920898 -0.019104 C42.05098022 -0.00964752 42.05098022 -0.00964752 43.6953125 0 C45.11855835 0.00238678 45.11855835 0.00238678 46.57055664 0.00482178 C48.84765625 0.25878906 48.84765625 0.25878906 50.84765625 2.25878906 C51.10162354 4.53588867 51.10162354 4.53588867 51.10644531 7.41113281 C51.11274963 8.48564697 51.11905396 9.56016113 51.12554932 10.66723633 C51.12150085 11.83182373 51.11745239 12.99641113 51.11328125 14.19628906 C51.11615143 15.98280884 51.11615143 15.98280884 51.11907959 17.80541992 C51.12044255 20.32731334 51.11673841 22.84921375 51.10839844 25.37109375 C51.09770078 29.24267255 51.10829031 33.11378728 51.12109375 36.98535156 C51.11977218 39.43066509 51.11720983 41.87597833 51.11328125 44.32128906 C51.11732971 45.48587646 51.12137817 46.65046387 51.12554932 47.8503418 C51.119245 48.92485596 51.11294067 49.99937012 51.10644531 51.10644531 C51.10485413 52.05527588 51.10326294 53.00410645 51.10162354 53.98168945 C50.84765625 56.25878906 50.84765625 56.25878906 48.84765625 58.25878906 C46.57055664 58.51275635 46.57055664 58.51275635 43.6953125 58.51757812 C42.62079834 58.52388245 41.54628418 58.53018677 40.43920898 58.53668213 C39.27462158 58.53263367 38.11003418 58.52858521 36.91015625 58.52441406 C35.71914307 58.52632751 34.52812988 58.52824097 33.30102539 58.5302124 C30.77913197 58.53157536 28.25723156 58.52787122 25.73535156 58.51953125 C21.86377276 58.50883359 17.99265803 58.51942312 14.12109375 58.53222656 C11.67578022 58.53090499 9.23046698 58.52834264 6.78515625 58.52441406 C5.03827515 58.53048676 5.03827515 58.53048676 3.25610352 58.53668213 C2.18158936 58.53037781 1.1070752 58.52407349 0 58.51757812 C-1.42324585 58.51519135 -1.42324585 58.51519135 -2.87524414 58.51275635 C-5.15234375 58.25878906 -5.15234375 58.25878906 -7.15234375 56.25878906 C-7.40631104 53.98168945 -7.40631104 53.98168945 -7.41113281 51.10644531 C-7.41743713 50.03193115 -7.42374146 48.95741699 -7.43023682 47.8503418 C-7.42618835 46.68575439 -7.42213989 45.52116699 -7.41796875 44.32128906 C-7.4198822 43.13027588 -7.42179565 41.9392627 -7.42376709 40.7121582 C-7.42513005 38.19026478 -7.42142591 35.66836437 -7.41308594 33.14648438 C-7.40238828 29.27490558 -7.41297781 25.40379084 -7.42578125 21.53222656 C-7.42445968 19.08691303 -7.42189733 16.64159979 -7.41796875 14.19628906 C-7.42201721 13.03170166 -7.42606567 11.86711426 -7.43023682 10.66723633 C-7.4239325 9.59272217 -7.41762817 8.51820801 -7.41113281 7.41113281 C-7.40954163 6.46230225 -7.40795044 5.51347168 -7.40631104 4.53588867 C-6.8788195 -0.19366051 -4.04687607 0.0067866 0 0 Z " fill="#FEE992" transform="translate(429.15234375,345.7412109375)"/>
<path d="M0 0 C1.02158203 0.00322266 2.04316406 0.00644531 3.09570312 0.00976562 C4.15080078 0.01814453 5.20589844 0.02652344 6.29296875 0.03515625 C7.36740234 0.03966797 8.44183594 0.04417969 9.54882812 0.04882812 C12.19276558 0.06057896 14.83658827 0.07700838 17.48046875 0.09765625 C17.48046875 2.07765625 17.48046875 4.05765625 17.48046875 6.09765625 C16.82046875 6.42765625 16.16046875 6.75765625 15.48046875 7.09765625 C15.48046875 8.74765625 15.48046875 10.39765625 15.48046875 12.09765625 C13.50046875 12.42765625 11.52046875 12.75765625 9.48046875 13.09765625 C9.40922701 16.16105087 9.40554913 18.80478866 10.16796875 21.78515625 C10.48046875 24.09765625 10.48046875 24.09765625 9.35546875 25.97265625 C7.48046875 27.09765625 7.48046875 27.09765625 4.79296875 26.78515625 C4.02984375 26.55828125 3.26671875 26.33140625 2.48046875 26.09765625 C2.48046875 27.08765625 2.48046875 28.07765625 2.48046875 29.09765625 C1.16046875 29.42765625 -0.15953125 29.75765625 -1.51953125 30.09765625 C-1.25296553 33.03209027 -1.25296553 33.03209027 -0.51953125 36.09765625 C0.47046875 36.75765625 1.46046875 37.41765625 2.48046875 38.09765625 C2.86865234 40.03710938 2.86865234 40.03710938 2.87890625 42.37890625 C2.88470703 43.64154297 2.88470703 43.64154297 2.890625 44.9296875 C2.87902344 45.81011719 2.86742187 46.69054687 2.85546875 47.59765625 C2.86707031 48.47808594 2.87867188 49.35851562 2.890625 50.265625 C2.88675781 51.10738281 2.88289063 51.94914062 2.87890625 52.81640625 C2.87552246 53.58919922 2.87213867 54.36199219 2.86865234 55.15820312 C2.48046875 57.09765625 2.48046875 57.09765625 -0.51953125 59.09765625 C-0.84953125 60.08765625 -1.17953125 61.07765625 -1.51953125 62.09765625 C-3.8473121 63.03485704 -6.04368713 63.76501156 -8.44921875 64.4375 C-9.50666794 64.74984337 -9.50666794 64.74984337 -10.58547974 65.0684967 C-12.85192918 65.73576157 -15.12280009 66.38612458 -17.39453125 67.03515625 C-20.3518171 67.89315404 -23.30699504 68.75822543 -26.26171875 69.625 C-26.97720886 69.83321381 -27.69269897 70.04142761 -28.42987061 70.25595093 C-33.51637654 71.75223668 -38.48307442 73.46693332 -43.42236328 75.40063477 C-45.51953125 76.09765625 -45.51953125 76.09765625 -48.51953125 76.09765625 C-49.15943133 32.13652045 -49.15943133 32.13652045 -33.08203125 14.41015625 C-23.66063 5.9079161 -12.98869092 -0.07256252 0 0 Z " fill="#4570C6" transform="translate(194.51953125,318.90234375)"/>
<path d="M0 0 C0.33 0 0.66 0 1 0 C1.00586624 0.66905869 1.01173248 1.33811737 1.01777649 2.02745056 C1.08193812 9.01995625 1.16641615 16.01201137 1.26245117 23.00415039 C1.29561126 25.61020958 1.32367065 28.21633904 1.34643555 30.82250977 C1.38014489 34.5785911 1.43247112 38.33403355 1.48828125 42.08984375 C1.49467117 43.24645004 1.5010611 44.40305634 1.50764465 45.5947113 C1.65754266 53.92833126 2.47949582 61.42797122 8 68 C8 68.66 8 69.32 8 70 C8.57459961 70.27755127 9.14919922 70.55510254 9.74121094 70.84106445 C12 72 12 72 13.95410156 73.24291992 C22.07708256 78.07262893 30.58094757 78.02219718 39.75 78.3125 C41.43435683 78.37795921 43.118683 78.44421214 44.80297852 78.51123047 C48.21548218 78.64072102 51.62793689 78.75180032 55.04150391 78.84912109 C58.95728611 78.9616638 62.8687307 79.12241756 66.78189087 79.30284119 C70.1662465 79.44811294 73.55124754 79.53404694 76.9375 79.625 C78.16114258 79.68469971 79.38478516 79.74439941 80.64550781 79.8059082 C86.88316594 80.00255844 86.88316594 80.00255844 92.21923828 77.20996094 C94.08550429 75.08319109 94.08550429 75.08319109 95.53735352 72.82568359 C97.33422775 70.58281503 98.22334383 70.50620141 101 70 C102.40247609 69.90321659 103.80860725 69.85221421 105.21435547 69.83886719 C106.44616043 69.82445587 106.44616043 69.82445587 107.70285034 69.80975342 C108.5820816 69.80550354 109.46131287 69.80125366 110.3671875 69.796875 C111.27953156 69.79117493 112.19187561 69.78547485 113.13186646 69.77960205 C115.06006719 69.77016695 116.98828395 69.76362399 118.91650391 69.75976562 C121.85738383 69.75005815 124.79756517 69.71901998 127.73828125 69.6875 C129.6145792 69.68096957 131.49088213 69.67571925 133.3671875 69.671875 C134.2423703 69.6595282 135.1175531 69.6471814 136.01925659 69.63446045 C141.09141068 69.65285549 144.68659942 70.04876682 149 73 C149.74540039 74.04317383 150.49080078 75.08634766 151.25878906 76.16113281 C154.20606468 79.21340578 154.5315277 79.42045462 158.48339844 79.61230469 C160.27622601 79.58014011 162.06865461 79.51453439 163.859375 79.421875 C164.8259906 79.39583191 165.7926062 79.36978882 166.78851318 79.34295654 C168.83136033 79.28423204 170.87385469 79.21184921 172.91577148 79.12670898 C175.89507335 79.00431069 178.87253589 78.9219776 181.85351562 78.85351562 C186.68341542 78.73567348 191.50921668 78.56389166 196.33642578 78.36523438 C198.29999291 78.2875736 200.26389805 78.21808191 202.22802734 78.15625 C205.13734436 78.06445232 208.04488422 77.94892218 210.953125 77.828125 C211.81681702 77.80502258 212.68050903 77.78192017 213.57037354 77.75811768 C221.26662152 77.38926162 228.49959446 75.60913595 234 70 C234.66 70 235.32 70 236 70 C236.4021875 69.195625 236.4021875 69.195625 236.8125 68.375 C237.70425428 66.59149144 238.62608084 64.82296802 239.5625 63.0625 C241.7027264 58.50288723 242.12486043 54.3836734 242.20532227 49.38354492 C242.22526749 48.28278122 242.24521271 47.18201752 242.26576233 46.04789734 C242.28247482 44.8706459 242.29918732 43.69339447 242.31640625 42.48046875 C242.3475779 40.65990715 242.3475779 40.65990715 242.37937927 38.80256653 C242.44468916 34.93093449 242.50367363 31.05923545 242.5625 27.1875 C242.60570285 24.56053998 242.64931771 21.93358671 242.69335938 19.30664062 C242.80035158 12.87116429 242.90215236 6.43562151 243 0 C249.00121506 6.80137706 249.32356018 12.96582007 249.37109375 21.6640625 C249.38012222 22.69252289 249.3891507 23.72098328 249.39845276 24.78060913 C249.41292975 26.95413314 249.42183564 29.12770047 249.42553711 31.30126953 C249.43738677 34.59354067 249.48656001 37.88390771 249.53710938 41.17578125 C249.6402237 54.43016141 249.49431165 65.05746628 240.3125 75.4375 C232.80376951 82.27657141 224.6081368 84.97432844 214.67578125 85.53515625 C213.58555916 85.60009781 213.58555916 85.60009781 212.47331238 85.66635132 C197.88074358 86.51429567 183.27102978 87.23629367 168.65316772 87.40841675 C167.22547659 87.42770085 165.79787252 87.45538046 164.37051392 87.49172974 C162.3828686 87.53923372 160.39444318 87.54973849 158.40625 87.55859375 C156.72499023 87.57877563 156.72499023 87.57877563 155.00976562 87.59936523 C150.25643738 86.65278664 148.10586297 83.46319965 145.27734375 79.72070312 C141.6551521 76.98386707 137.9823783 77.42833532 133.5625 77.46875 C132.6454126 77.4649231 131.7283252 77.46109619 130.78344727 77.45715332 C128.84683127 77.45443451 126.91017853 77.46179354 124.97363281 77.47851562 C122.01023447 77.49992606 119.04926049 77.47871331 116.0859375 77.453125 C114.20311965 77.45576828 112.32030331 77.46089327 110.4375 77.46875 C109.55199463 77.46065308 108.66648926 77.45255615 107.75415039 77.44421387 C102.78086428 77.48077903 102.78086428 77.48077903 98.53417969 79.86303711 C98.02790039 80.56823486 97.52162109 81.27343262 97 82 C94.81677086 84.99549352 93.27992957 86.77624143 89.54492188 87.42919922 C86.26595272 87.57373129 83.03092256 87.53327376 79.75 87.4375 C78.50814941 87.41719727 77.26629883 87.39689453 75.98681641 87.37597656 C72.45176841 87.3100797 68.91917924 87.20077469 65.38562012 87.08001709 C62.85783868 86.99523171 60.32987199 86.92035579 57.80175781 86.84619141 C53.23235944 86.70789423 48.66457395 86.542379 44.09680176 86.35818481 C42.29807752 86.28669002 40.49915801 86.21993328 38.70007324 86.15817261 C24.80047156 85.66023346 13.65095923 84.58196244 3.16796875 74.515625 C-1.70837137 68.85731322 -5.08656702 61.91897951 -5.17700195 54.39599609 C-5.18983719 53.46427582 -5.20267242 52.53255554 -5.21589661 51.57260132 C-5.22328354 50.56637726 -5.23067047 49.5601532 -5.23828125 48.5234375 C-5.246353 47.48361725 -5.25442474 46.443797 -5.26274109 45.37246704 C-5.27657873 43.16841293 -5.28730231 40.96433742 -5.29516602 38.76025391 C-5.31232714 35.40875878 -5.35621103 32.05826347 -5.40039062 28.70703125 C-5.41052247 26.56250723 -5.41903703 24.41797485 -5.42578125 22.2734375 C-5.44328934 21.27935883 -5.46079742 20.28528015 -5.47883606 19.26107788 C-5.45842894 12.62999383 -4.15463209 7.82292319 -1 2 C-0.67 1.34 -0.34 0.68 0 0 Z " fill="#DAE6FA" transform="translate(134,140)"/>
<path d="M0 0 C0.96961166 0.00142502 1.93922333 0.00285004 2.93821716 0.00431824 C4.03597977 0.00124161 5.13374237 -0.00183502 6.26477051 -0.00500488 C7.45436874 0.00218063 8.64396698 0.00936615 9.86961365 0.01676941 C11.692985 0.01745674 11.692985 0.01745674 13.55319214 0.01815796 C16.12636794 0.0211832 18.69954187 0.02907753 21.27268982 0.04142761 C25.22758924 0.05967762 29.18225466 0.06193741 33.13719177 0.06169128 C35.63133444 0.06660647 38.1254755 0.07243479 40.61961365 0.07926941 C41.81123611 0.08038223 43.00285858 0.08149506 44.23059082 0.0826416 C45.87250648 0.09221138 45.87250648 0.09221138 47.54759216 0.10197449 C48.51640823 0.10578629 49.4852243 0.10959808 50.48339844 0.11352539 C52.6782074 0.24723816 52.6782074 0.24723816 53.6782074 1.24723816 C53.791699 4.10818033 53.84239231 6.94407271 53.84617615 9.80583191 C53.85116875 11.0950631 53.85116875 11.0950631 53.85626221 12.41033936 C53.8613351 14.23202477 53.86367042 16.05371952 53.86351013 17.87541199 C53.86569543 20.66943106 53.88384384 23.46305473 53.90281677 26.25700378 C53.9057508 28.02327847 53.90773553 29.78955504 53.90867615 31.55583191 C53.91586166 32.39544968 53.92304718 33.23506744 53.93045044 34.10012817 C53.90702921 40.01841635 53.90702921 40.01841635 51.6782074 42.24723816 C49.40110779 42.50120544 49.40110779 42.50120544 46.52586365 42.50602722 C45.45134949 42.51233154 44.37683533 42.51863586 43.26976013 42.52513123 C42.10517273 42.52108276 40.94058533 42.5170343 39.7407074 42.51286316 C38.54969421 42.51477661 37.35868103 42.51669006 36.13157654 42.5186615 C33.60968312 42.52002446 31.08778271 42.51632032 28.56590271 42.50798035 C24.69432391 42.49728269 20.82320918 42.50787222 16.9516449 42.52067566 C14.50633137 42.51935408 12.06101813 42.51679173 9.6157074 42.51286316 C7.86882629 42.51893585 7.86882629 42.51893585 6.08665466 42.52513123 C5.0121405 42.5188269 3.93762634 42.51252258 2.83055115 42.50602722 C1.4073053 42.50364044 1.4073053 42.50364044 -0.04469299 42.50120544 C-2.3217926 42.24723816 -2.3217926 42.24723816 -4.3217926 40.24723816 C-4.52169488 37.40183674 -4.60156236 34.65586032 -4.5874176 31.80973816 C-4.58933105 30.97386169 -4.59124451 30.13798523 -4.59321594 29.27677917 C-4.59457796 27.50814005 -4.59088037 25.73949093 -4.58253479 23.97087097 C-4.57183536 21.25807822 -4.58242936 18.54594772 -4.5952301 15.83317566 C-4.59390851 14.11702836 -4.59134612 12.40088147 -4.5874176 10.68473816 C-4.59146606 9.87013123 -4.59551453 9.05552429 -4.59968567 8.2162323 C-4.53504174 0.48291797 -4.53504174 0.48291797 0 0 Z " fill="#FEE992" transform="translate(371.32179260253906,265.7527618408203)"/>
<path d="M0 0 C1.485 -0.05607422 1.485 -0.05607422 3 -0.11328125 C11.21839884 -0.21216573 11.21839884 -0.21216573 14.890625 2.7734375 C18.52156994 6.77709533 18.75741286 9.61152992 18.7421875 14.90234375 C18.25 17.375 18.25 17.375 16.7578125 19.00390625 C14.875 20.25 14.875 20.25 12.9765625 21.2421875 C10.76542757 22.69293214 10.16695444 23.91180865 9.25 26.375 C8.52201728 31.03070345 8.82185844 34.51871687 10.9375 38.75 C13.05951507 41.50493803 13.05951507 41.50493803 16 42.6875 C18.25 44.375 18.25 44.375 18.671875 46.37890625 C18.82898192 51.1471012 18.35936443 54.5746657 15.25 58.375 C10.50034302 61.54143799 5.4614351 60.78419036 -0.125 60.8125 C-1.83042969 60.86180664 -1.83042969 60.86180664 -3.5703125 60.91210938 C-4.66859375 60.91919922 -5.766875 60.92628906 -6.8984375 60.93359375 C-8.40156494 60.95377563 -8.40156494 60.95377563 -9.93505859 60.97436523 C-14.04992129 60.09821711 -15.35777401 58.84335189 -17.75 55.375 C-18.4794259 51.69526218 -18.45081869 48.08549307 -18.4140625 44.34375 C-18.42123795 42.74074036 -18.42123795 42.74074036 -18.42855835 41.10534668 C-18.43195581 38.84935023 -18.4227643 36.59330445 -18.40185547 34.33740234 C-18.3750898 30.88657736 -18.40161071 27.4390052 -18.43359375 23.98828125 C-18.43028963 21.79426366 -18.42388335 19.6002481 -18.4140625 17.40625 C-18.42418365 16.37592651 -18.43430481 15.34560303 -18.44473267 14.28405762 C-18.32770728 7.12255252 -18.32770728 7.12255252 -15.33349609 3.24804688 C-10.33591135 -0.37522568 -6.02857137 0.08501831 0 0 Z " fill="#A3C8FE" transform="translate(80.75,319.625)"/>
<path d="M0 0 C49.5 0 99 0 150 0 C146.78546776 2.14302149 144.00432354 3.10246622 140.33227539 4.29418945 C139.65860931 4.51387894 138.98494324 4.73356842 138.29086304 4.95991516 C136.0618055 5.68411778 133.83022436 6.39997751 131.59765625 7.11328125 C130.83207335 7.35790792 130.06649044 7.6025346 129.27770805 7.8545742 C125.22013909 9.14845363 121.16006773 10.43417477 117.09838867 11.71508789 C113.75167027 12.77243738 110.41117649 13.84677132 107.07495117 14.93676758 C103.03392464 16.25692342 98.98420043 17.54613296 94.92663383 18.81450462 C93.38968481 19.3003915 91.85598647 19.79669929 90.32597542 20.30401039 C80.67753503 23.49188446 73.80498905 24.60433713 64 21 C61.58980063 20.26710301 59.17719798 19.5420793 56.76269531 18.82348633 C54.11506258 18.0017961 51.47190545 17.16601973 48.828125 16.33203125 C47.41047449 15.88761265 45.99272769 15.44350107 44.57489014 14.99967957 C40.88498482 13.84375206 37.19638201 12.68372343 33.50805664 11.52276611 C29.7275198 10.33360763 25.9457359 9.14842867 22.1640625 7.96289062 C14.77483191 5.64576815 7.386976 3.32430139 0 1 C0 0.67 0 0.34 0 0 Z " fill="#F3CBCE" transform="translate(181,458)"/>
<path d="M0 0 C8.85336375 8.15639682 10.6535429 20.036374 11.15576172 31.58032227 C11.1951391 35.16001808 11.17588413 38.73299719 11.125 42.3125 C11.11597656 43.54162109 11.10695313 44.77074219 11.09765625 46.03710938 C11.07440453 49.02495544 11.04173123 52.01236484 11 55 C2.65900208 53.02818585 -5.48176093 50.6676128 -13.625 48 C-21.06009632 45.58223029 -28.49924742 43.20696426 -36 41 C-35.42655063 38.13275314 -35.1385485 37.1385485 -33 35 C-33.061875 33.700625 -33.12375 32.40125 -33.1875 31.0625 C-32.80748066 26.6852402 -31.06650071 24.69486962 -27.79125977 21.8425293 C-25.4572709 19.94560712 -23.09469117 18.0942901 -20.69384766 16.28271484 C-18.3330888 14.49496232 -16.04623896 12.61953629 -13.75 10.75 C-9.19234183 7.13375974 -4.60320521 3.55803301 0 0 Z " fill="#4570C6" transform="translate(355,340)"/>
<path d="M0 0 C28.62877824 -0.36156755 54.04790978 4.2999626 81.08514404 13.34332275 C85.01601531 14.6495335 88.96054981 15.91300003 92.90429688 17.1796875 C98.28329331 18.91120351 103.65781142 20.655343 109.02631569 22.4191246 C122.29964861 26.77923275 135.64313495 30.90378298 149 35 C149 38.63 149 42.26 149 46 C143.40369002 45.37488027 138.34348151 43.99881541 133 42.25 C132.16259277 41.98123047 131.32518555 41.71246094 130.46240234 41.43554688 C125.50038903 39.83666542 120.56071665 38.17792575 115.625 36.5 C108.75241282 34.18689622 101.80633094 32.19795942 94.82861328 30.22827148 C84.28294736 27.24615018 73.85777974 23.97331112 63.4765625 20.46264648 C54.67651871 17.48924459 45.85407491 14.76634914 36.90478516 12.27856445 C29.55278978 10.21275439 22.32131275 7.84593551 15.1015625 5.359375 C10.10648998 3.64949281 5.14096093 2.20685389 0 1 C0 0.67 0 0.34 0 0 Z " fill="#F3CBCE" transform="translate(103,454)"/>
<path d="M0 0 C-2.96256764 1.9750451 -5.1408223 2.75767694 -8.53125 3.734375 C-9.64274414 4.05817139 -10.75423828 4.38196777 -11.89941406 4.71557617 C-13.08760742 5.05693604 -14.27580078 5.3982959 -15.5 5.75 C-17.96391384 6.46877752 -20.42745429 7.18883622 -22.890625 7.91015625 C-24.10298828 8.26480957 -25.31535156 8.61946289 -26.56445312 8.98486328 C-31.14194776 10.33742317 -35.70029066 11.744513 -40.25 13.1875 C-41.01328613 13.42952148 -41.77657227 13.67154297 -42.56298828 13.92089844 C-47.184758 15.39672384 -51.78169913 16.93748405 -56.375 18.5 C-61.8777652 20.34932796 -67.40861166 21.98180893 -73 23.5390625 C-82.14463921 26.12019984 -91.22329355 28.8985615 -100.2890625 31.7421875 C-101.28361513 32.05388508 -101.28361513 32.05388508 -102.29825974 32.37187958 C-108.489057 34.31282476 -114.67760622 36.26089217 -120.86523438 38.21191406 C-124.29236595 39.29224109 -127.72076899 40.36844949 -131.14997482 41.442173 C-133.06712267 42.04387841 -134.98275038 42.65042043 -136.89834595 43.25704956 C-138.0516037 43.6180777 -139.20486145 43.97910583 -140.39306641 44.35107422 C-141.40672272 44.67050995 -142.42037903 44.98994568 -143.4647522 45.31906128 C-146 46 -146 46 -149 46 C-149 42.37 -149 38.74 -149 35 C-145.22936063 33.8150312 -141.45862662 32.630364 -137.68782806 31.44590187 C-136.29909839 31.00964107 -134.91039101 30.57330932 -133.52170563 30.13690758 C-125.15658869 27.50820614 -116.78952343 24.88596485 -108.41796875 22.27783203 C-105.33583512 21.31705985 -102.25382252 20.35590026 -99.171875 19.39453125 C-98.41098068 19.15727829 -97.65008636 18.92002533 -96.86613464 18.67558289 C-88.13756645 15.95186236 -79.43123665 13.18091403 -70.765625 10.26171875 C-47.40205035 2.4658113 -24.67461942 -0.38181861 0 0 Z " fill="#F4CCCE" transform="translate(409,454)"/>
<path d="M0 0 C0.76171509 -0.00287018 1.52343018 -0.00574036 2.30822754 -0.00869751 C3.91529079 -0.01073484 5.52237902 -0.00522808 7.12939453 0.00732422 C9.5855264 0.02338373 12.04001289 0.00746554 14.49609375 -0.01171875 C16.05989946 -0.00973626 17.62370414 -0.00589246 19.1875 0 C19.91988892 -0.00607269 20.65227783 -0.01214539 21.40686035 -0.0184021 C24.45061483 0.02346357 26.79217305 0.25501732 29.55688477 1.56982422 C31.68969694 4.10751496 31.59586461 5.76467996 31.58984375 9.0546875 C31.59048828 10.15941406 31.59113281 11.26414063 31.59179688 12.40234375 C31.57181641 13.55605469 31.55183594 14.70976562 31.53125 15.8984375 C31.53833984 17.05214844 31.54542969 18.20585937 31.55273438 19.39453125 C31.48988567 27.68089066 31.48988567 27.68089066 30.08422852 30.22705078 C26.86058796 32.12414724 23.44874829 31.82502497 19.8125 31.796875 C18.5976593 31.80118027 18.5976593 31.80118027 17.35827637 31.80557251 C15.64688416 31.80761292 13.93546862 31.80208459 12.22412109 31.78955078 C9.6033111 31.77349607 6.98404323 31.78939944 4.36328125 31.80859375 C2.70051743 31.80661131 1.03775456 31.80276763 -0.625 31.796875 C-1.40943481 31.80294769 -2.19386963 31.80902039 -3.0020752 31.8152771 C-8.31474174 31.74653717 -8.31474174 31.74653717 -10.89672852 30.22705078 C-13.22807469 26.00412869 -12.37257872 20.58965582 -12.34375 15.8984375 C-12.36373047 14.74472656 -12.38371094 13.59101563 -12.40429688 12.40234375 C-12.40365234 11.29761719 -12.40300781 10.19289062 -12.40234375 9.0546875 C-12.40419678 8.04212891 -12.4060498 7.02957031 -12.40795898 5.98632812 C-11.90625 3.3984375 -11.90625 3.3984375 -10.36938477 1.56982422 C-6.9397686 -0.06118959 -3.72066641 -0.03085036 0 0 Z " fill="#DEE9FB" transform="translate(162.90625,132.6015625)"/>
<path d="M0 0 C7.03051048 3.90686297 11.51780162 9.00493383 15.75 15.75 C17.90541767 23.96752986 18.09997539 32.86308473 14.09765625 40.5234375 C11.38577208 44.62663616 8.22965507 49.32267246 3.75 51.5625 C3.52775749 48.97968164 3.32176512 46.39727813 3.125 43.8125 C3.02832031 42.71808594 3.02832031 42.71808594 2.9296875 41.6015625 C2.63727489 37.58088908 2.69357824 35.02837937 4.75 31.5625 C5.53590613 25.94888479 4.99234268 21.31793593 1.75 16.5625 C-2.86409029 12.02223516 -6.04616547 10.38998043 -12.5 10.25 C-17.94480827 10.31003096 -21.24992359 10.56242359 -25.25 14.5625 C-29.2109596 19.67005317 -29.67754945 23.51954808 -29.5859375 29.9140625 C-29.37470908 32.58498114 -29.37470908 32.58498114 -28.203125 34.94140625 C-26.931983 38.43704674 -27.28059196 41.18983398 -27.625 44.875 C-27.73585938 46.12925781 -27.84671875 47.38351562 -27.9609375 48.67578125 C-28.05632812 49.62839844 -28.15171875 50.58101563 -28.25 51.5625 C-34.27471411 46.7901141 -38.76727698 42.01066906 -41.25 34.5625 C-42.38887715 24.07284202 -41.32277679 15.94040869 -34.640625 7.5390625 C-25.57022469 -2.32187728 -12.35946709 -5.68504077 0 0 Z " fill="#69D9DC" transform="translate(127.25,245.4375)"/>
<path d="M0 0 C3.51736852 3.51736852 4.26441787 8.63258461 5.6875 13.3125 C6.02072266 14.35857422 6.35394531 15.40464844 6.69726562 16.48242188 C7.16229492 18.00125977 7.16229492 18.00125977 7.63671875 19.55078125 C7.92248779 20.47544189 8.20825684 21.40010254 8.50268555 22.3527832 C9.05075174 25.27015275 8.83207772 27.16714804 8 30 C6.72265625 31.67578125 6.72265625 31.67578125 5.0625 33.3125 C2.442243 36.05475278 0.53910734 38.72643822 -1.1953125 42.07421875 C-7.17232466 53.42714653 -7.17232466 53.42714653 -12.40234375 55.06640625 C-16.07008055 55.06242391 -19.39544972 54.66097106 -23 54 C-24.95724036 53.8209542 -26.91552428 53.65265037 -28.875 53.5 C-30.25087691 53.34073451 -31.626324 53.17724852 -33 53 C-28.21497768 32.26490327 -14.82586309 14.69259691 0 0 Z " fill="#E6A77E" transform="translate(169,45)"/>
<path d="M0 0 C16.80546036 -0.55996664 32.06418637 -0.90740477 46 10 C47.37868281 11.62935241 48.72354698 13.28937928 50 15 C43.97868883 20.52497749 37.84972774 25.86007773 31.4765625 30.9765625 C29.44976407 32.63252715 27.54123921 34.34633694 25.625 36.125 C23 38 23 38 20.125 37.8125 C19.42375 37.544375 18.7225 37.27625 18 37 C18.33 34.69 18.66 32.38 19 30 C18.360625 29.87625 17.72125 29.7525 17.0625 29.625 C16.0415625 29.315625 16.0415625 29.315625 15 29 C14.67 28.34 14.34 27.68 14 27 C12.00714063 26.62633887 10.00636471 26.29259485 8 26 C7 25 7 25 6.875 22.5625 C7 20 7 20 8 18 C8.0396713 16.33380554 8.04384447 14.66608987 8 13 C7.195625 12.7525 6.39125 12.505 5.5625 12.25 C4.716875 11.8375 3.87125 11.425 3 11 C2.3125 8.9375 2.3125 8.9375 2 7 C1.34 6.67 0.68 6.34 0 6 C0 4.02 0 2.04 0 0 Z " fill="#4570C6" transform="translate(300,319)"/>
<path d="M0 0 C1.83749565 -0.01925285 1.83749565 -0.01925285 3.71211243 -0.03889465 C5.05571082 -0.04706237 6.39931378 -0.05450604 7.74291992 -0.0612793 C8.41886389 -0.06535482 9.09480785 -0.06943035 9.79123497 -0.07362938 C13.36960927 -0.09448933 16.94794524 -0.10879078 20.52636719 -0.11816406 C24.21867292 -0.12922282 27.91037503 -0.16361566 31.60246754 -0.20333576 C34.44468794 -0.22950944 37.28676476 -0.23785654 40.12909508 -0.24144554 C41.48984538 -0.2463104 42.8505893 -0.25792176 44.21122169 -0.27648354 C46.11853089 -0.30088366 48.02613384 -0.29748929 49.93359375 -0.29296875 C51.01788162 -0.29883499 52.10216949 -0.30470123 53.21931458 -0.31074524 C56.86654226 0.29400752 58.52626077 1.63652802 61.16088867 4.17700195 C62.16088867 6.17700195 62.16088867 6.17700195 62.16088867 12.17700195 C37.74088867 12.17700195 13.32088867 12.17700195 -11.83911133 12.17700195 C-11.83911133 6.01536421 -11.81384522 5.26863978 -7.83911133 1.17700195 C-5.14243932 -0.17133405 -3.019393 0.02747343 0 0 Z " fill="#DDE8FB" transform="translate(230.839111328125,100.822998046875)"/>
<path d="M0 0 C0 7.92 0 15.84 0 24 C-5.97146694 24 -11.0295347 23.74840082 -16.8125 22.8125 C-17.62420654 22.68230469 -18.43591309 22.55210938 -19.2722168 22.41796875 C-25.35965012 21.38828277 -31.33786993 20.05205726 -37.3125 18.5 C-38.09407471 18.29866455 -38.87564941 18.0973291 -39.6809082 17.88989258 C-44.08176246 16.69670828 -47.97467088 15.20145185 -52 13 C-52 12.34 -52 11.68 -52 11 C-44.85226758 7.84314229 -37.84517636 5.86862901 -30.1875 4.375 C-29.13522217 4.16335205 -28.08294434 3.9517041 -26.9987793 3.73364258 C-8.19996873 0 -8.19996873 0 0 0 Z " fill="#DDE9FB" transform="translate(66,67)"/>
<path d="M0 0 C37.57281553 3.78640777 37.57281553 3.78640777 52 11 C51.67 11.99 51.34 12.98 51 14 C48.58532624 14.99624276 46.31063643 15.7814446 43.8125 16.5 C43.09070557 16.71503174 42.36891113 16.93006348 41.62524414 17.15161133 C28.13962441 21.08300732 14.0848524 24 0 24 C0 16.08 0 8.16 0 0 Z " fill="#DEE9FB" transform="translate(446,67)"/>
<path d="M0 0 C1.8277663 4.30412481 2.60457119 8.37586201 3.125 13 C3.21136719 13.69867188 3.29773438 14.39734375 3.38671875 15.1171875 C3.82006681 18.76281406 4.10038328 22.32883989 4 26 C2.5459375 24.700625 2.5459375 24.700625 1.0625 23.375 C-8.31102531 15.38104595 -16.98913897 10.8406628 -29.3125 9.875 C-30.2195166 9.79717285 -31.1265332 9.7193457 -32.06103516 9.63916016 C-47.00120466 8.47830972 -62.02272379 8.31410144 -77 8 C-77 6.02 -77 4.04 -77 2 C-68.58470766 1.73722839 -60.16936056 1.47631448 -51.75393963 1.21769714 C-47.84529011 1.09752221 -43.93666161 0.976735 -40.02807617 0.85449219 C-36.2479831 0.73629152 -32.46784143 0.61977275 -28.68766212 0.50436401 C-27.25374352 0.46030149 -25.81984264 0.41565812 -24.38596153 0.37039185 C-16.25561498 0.11414462 -8.13509746 -0.06723827 0 0 Z " fill="#9FC4FC" transform="translate(378,106)"/>
<path d="M0 0 C0 5.28 0 10.56 0 16 C-3.96420968 17.24861044 -7.92902582 18.49482379 -11.89575195 19.73535156 C-13.2412233 20.15686716 -14.58628666 20.57968762 -15.9309082 21.00390625 C-17.87862517 21.61813607 -19.82782695 22.22744766 -21.77734375 22.8359375 C-22.94515381 23.20251465 -24.11296387 23.5690918 -25.31616211 23.94677734 C-29.49734668 25.14219323 -33.75484053 26.05663123 -38 27 C-38 18.75 -38 10.5 -38 2 C-34.46152344 1.90912109 -34.46152344 1.90912109 -30.8515625 1.81640625 C-28.57125605 1.75462856 -26.29099984 1.69123603 -24.01074219 1.62768555 C-22.42387343 1.58432759 -20.83695776 1.54265313 -19.25 1.50268555 C-16.97121021 1.44500368 -14.69265678 1.38130362 -12.4140625 1.31640625 C-11.70255035 1.29969376 -10.99103821 1.28298126 -10.25796509 1.26576233 C-6.59517813 1.15516223 -3.54909556 0 0 0 Z " fill="#A3C8FE" transform="translate(122,387)"/>
<path d="M0 0 C1.67542976 0.28604898 3.34385343 0.61781233 5 1 C5.125 3.875 5.125 3.875 5 7 C4.34 7.66 3.68 8.32 3 9 C8.94 12.465 8.94 12.465 15 16 C14.67 17.98 14.34 19.96 14 22 C9.32051602 22.27771418 6.32416664 21.54837397 2.125 19.5 C0.67480469 18.80390625 0.67480469 18.80390625 -0.8046875 18.09375 C-1.89136719 17.55234375 -1.89136719 17.55234375 -3 17 C-3.31040222 17.49697388 -3.62080444 17.99394775 -3.94061279 18.50598145 C-6.06131334 21.46213192 -7.71013066 23.64651209 -11.30822754 24.63256836 C-14.0878298 24.82552461 -16.79335378 24.81356895 -19.578125 24.71875 C-21.08980255 24.70745056 -21.08980255 24.70745056 -22.63201904 24.69592285 C-25.83943 24.6634739 -29.04350797 24.58179827 -32.25 24.5 C-34.42183919 24.47345098 -36.59371833 24.44997958 -38.765625 24.4296875 C-42.7260814 24.3794238 -46.68594076 24.32352114 -50.64550781 24.22460938 C-51.44015442 24.20571655 -52.23480103 24.18682373 -53.05352783 24.1673584 C-55 24 -55 24 -57 23 C-57.125 20.625 -57.125 20.625 -57 18 C-55 16 -55 16 -51.10791016 15.90332031 C-49.41813166 15.95666499 -47.72851595 16.01532324 -46.0390625 16.078125 C-44.18625128 16.10658168 -42.33337777 16.13119232 -40.48046875 16.15234375 C-37.56350971 16.19092399 -34.65437419 16.24874231 -31.73974609 16.37353516 C-19.48885796 17.1688845 -19.48885796 17.1688845 -9.00683594 11.83398438 C-5.92390723 8.47383251 -3.42656432 4.85328029 -1 1 C-0.67 0.67 -0.34 0.34 0 0 Z " fill="#3B64CB" transform="translate(200,402)"/>
<path d="M0 0 C1.89746094 -0.3742218 1.89746094 -0.3742218 4.234375 -0.37231445 C5.10868164 -0.37854324 5.98298828 -0.38477203 6.88378906 -0.39118958 C8.30256348 -0.37737495 8.30256348 -0.37737495 9.75 -0.36328125 C11.2035791 -0.36402901 11.2035791 -0.36402901 12.68652344 -0.36479187 C14.73765104 -0.36244884 16.78878138 -0.35270694 18.83984375 -0.33618164 C21.9872395 -0.31259562 25.13378841 -0.31561814 28.28125 -0.32226562 C30.27083841 -0.31668893 32.26042323 -0.30957911 34.25 -0.30078125 C35.19584961 -0.30169266 36.14169922 -0.30260406 37.11621094 -0.30354309 C38.4276709 -0.28924507 38.4276709 -0.28924507 39.765625 -0.2746582 C40.53680664 -0.27005081 41.30798828 -0.26544342 42.10253906 -0.26069641 C44 0 44 0 46 2 C46.265625 4.09375 46.265625 4.09375 46.25 6.5 C46.25773437 7.69109375 46.25773437 7.69109375 46.265625 8.90625 C46 11 46 11 44 13 C42.14723206 13.26069641 42.14723206 13.26069641 39.87329102 13.2746582 C39.02223282 13.28419022 38.17117462 13.29372223 37.29432678 13.30354309 C36.37348801 13.30263168 35.45264923 13.30172028 34.50390625 13.30078125 C33.55942123 13.30506638 32.61493622 13.3093515 31.64183044 13.31376648 C29.64200645 13.31951586 27.64216155 13.32000558 25.64233398 13.31567383 C22.57825096 13.31251623 19.51513525 13.33595726 16.45117188 13.36132812 C14.51041789 13.36360125 12.5696613 13.36430456 10.62890625 13.36328125 C9.25068443 13.37709587 9.25068443 13.37709587 7.84461975 13.39118958 C6.99040939 13.38496078 6.13619904 13.37873199 5.25610352 13.37231445 C4.50490738 13.37294388 3.75371124 13.3735733 2.97975159 13.3742218 C0.41955947 12.89028245 -0.46267407 12.07934134 -2 10 C-2.38991688 5.63293092 -2.46324069 3.69486103 0 0 Z " fill="#E0EAFB" transform="translate(145,431)"/>
<path d="M0 0 C5.28 0 10.56 0 16 0 C16 8.91 16 17.82 16 27 C10.72 27 5.44 27 0 27 C-0.185625 24.463125 -0.185625 24.463125 -0.375 21.875 C-0.7513774 17.64757269 -1.39371466 13.96217051 -3 10 C-2.34 9.67 -1.68 9.34 -1 9 C-0.53348793 6.87423218 -0.53348793 6.87423218 -0.375 4.4375 C-0.25125 2.973125 -0.1275 1.50875 0 0 Z " fill="#A3C8FE" transform="translate(107,309)"/>
<path d="M0 0 C3.6268166 0.21980707 5.50725434 1.38679389 8.25 3.5625 C14.5061866 7.66961487 22.8320692 6.98052748 30 6 C34.07327658 4.78198266 36.96762809 3.03237191 40 0 C42.625 0.375 42.625 0.375 45 1 C45.495 3.475 45.495 3.475 46 6 C39.07079949 12.77521828 31.77271087 16.11973888 22 16.5 C12.22728913 16.11973888 4.92920051 12.77521828 -2 6 C-1.125 1.125 -1.125 1.125 0 0 Z " fill="#3C66CE" transform="translate(234,239)"/>
<path d="M0 0 C7.26 0 14.52 0 22 0 C21.45395932 4.42292955 21.09297778 7.156815 19 11 C15.58637235 13.28433951 12.16367843 14.82692956 8.40234375 16.4296875 C4.19724052 18.37050438 2.01294808 20.56858691 -1 24 C-1.66 24 -2.32 24 -3 24 C-3.08264614 21.87568814 -3.13991672 19.75038634 -3.1875 17.625 C-3.22230469 16.44164063 -3.25710937 15.25828125 -3.29296875 14.0390625 C-3 10 -3 10 0 0 Z " fill="#A0C5FD" transform="translate(134,106)"/>
<path d="M0 0 C1.03125 0.01804687 2.0625 0.03609375 3.125 0.0546875 C5.6670645 0.10176277 8.20865067 0.17350454 10.75 0.25 C10.75 4.54 10.75 8.83 10.75 13.25 C6.97874047 13.33074862 3.20920007 13.3903818 -0.5625 13.4375 C-1.63435547 13.46263672 -2.70621094 13.48777344 -3.81054688 13.51367188 C-4.83857422 13.52333984 -5.86660156 13.53300781 -6.92578125 13.54296875 C-7.87364502 13.5586792 -8.82150879 13.57438965 -9.7980957 13.59057617 C-12.25 13.25 -12.25 13.25 -14.05541992 11.9152832 C-15.94009655 9.28798313 -15.69803402 7.38623814 -15.25 4.25 C-11.78228929 -1.44768397 -5.90070826 -0.19469342 0 0 Z " fill="#A1C6FD" transform="translate(112.25,343.75)"/>
<path d="M0 0 C0 3.3 0 6.6 0 10 C-3.43708025 10.48234401 -6.87461691 10.9609398 -10.3125 11.4375 C-11.74819336 11.63956055 -11.74819336 11.63956055 -13.21289062 11.84570312 C-22.00902266 13.05998398 -30.79341653 14.16713628 -39.6875 14.0625 C-41.20923828 14.04896484 -41.20923828 14.04896484 -42.76171875 14.03515625 C-43.50035156 14.02355469 -44.23898437 14.01195312 -45 14 C-41.38328095 11.58885397 -37.6419862 10.46906294 -33.53515625 9.1796875 C-32.29057899 8.78440353 -32.29057899 8.78440353 -31.02085876 8.38113403 C-29.26734645 7.82575571 -27.5130571 7.27282568 -25.75805664 6.72216797 C-23.0738017 5.87855193 -20.39327775 5.02378316 -17.71289062 4.16796875 C-16.00802673 3.62952955 -14.30295526 3.09174706 -12.59765625 2.5546875 C-11.79650894 2.29847626 -10.99536163 2.04226501 -10.16993713 1.77828979 C-9.04373207 1.42759933 -9.04373207 1.42759933 -7.89477539 1.06982422 C-7.23764053 0.86267792 -6.58050568 0.65553162 -5.90345764 0.44210815 C-4 0 -4 0 0 0 Z " fill="#F2A4A8" transform="translate(447,432)"/>
<path d="M0 0 C5.58854055 0.62745103 10.65379589 1.99363387 15.99609375 3.72265625 C16.82963882 3.98759384 17.6631839 4.25253143 18.52198792 4.52549744 C21.16218161 5.36597373 23.79984156 6.21410498 26.4375 7.0625 C28.23616575 7.63657671 30.03499236 8.21014965 31.83398438 8.78320312 C36.22453873 10.1829811 40.61283857 11.58962576 45 13 C45 13.33 45 13.66 45 14 C36.08278344 14.21282876 27.41815035 13.57470884 18.5625 12.5625 C17.32306641 12.42779297 16.08363281 12.29308594 14.80664062 12.15429688 C9.82229718 11.60227613 4.90710206 11.05172436 0 10 C0 6.7 0 3.4 0 0 Z " fill="#F4A5A7" transform="translate(65,432)"/>
<path d="M0 0 C2.58505639 -0.27072577 4.9104354 -0.35154231 7.4921875 -0.28515625 C8.23453644 -0.2729454 8.97688538 -0.26073456 9.74172974 -0.24815369 C11.31384318 -0.21638121 12.88580755 -0.17632379 14.45751953 -0.12866211 C16.8590339 -0.06293696 19.25786024 -0.04483215 21.66015625 -0.02929688 C23.18757316 0.00749568 24.71492507 0.04711727 26.2421875 0.08984375 C27.31737137 0.0903196 27.31737137 0.0903196 28.41427612 0.09080505 C30.45654297 0.17944336 30.45654297 0.17944336 34 1 C36.48486328 4.05688477 36.48486328 4.05688477 38 7 C24.32060126 7.73091572 10.69890638 8.14236739 -3 8 C-2.45276317 4.62537285 -1.9451 2.91765 0 0 Z " fill="#9EC3FC" transform="translate(165,107)"/>
<path d="M0 0 C0 5.94 0 11.88 0 18 C-2.64 17.67 -5.28 17.34 -8 17 C-8.33 17.66 -8.66 18.32 -9 19 C-11.4375 18.3125 -11.4375 18.3125 -14 17 C-14.12375 16.2059375 -14.2475 15.411875 -14.375 14.59375 C-14.74853731 11.84863387 -14.74853731 11.84863387 -17.06640625 10.41796875 C-17.89011719 10.01191406 -18.71382813 9.60585938 -19.5625 9.1875 C-20.38878906 8.76855469 -21.21507812 8.34960938 -22.06640625 7.91796875 C-22.70449219 7.61503906 -23.34257812 7.31210937 -24 7 C-21.72871644 4.72871644 -20.79504253 4.56490039 -17.71875 3.96484375 C-16.87699219 3.79533203 -16.03523438 3.62582031 -15.16796875 3.45117188 C-14.28753906 3.28166016 -13.40710938 3.11214844 -12.5 2.9375 C-10.75994411 2.59483892 -9.02033583 2.24989459 -7.28125 1.90234375 C-6.50845703 1.75273193 -5.73566406 1.60312012 -4.93945312 1.44897461 C-3.22351533 1.05174278 -1.71898365 0 0 0 Z " fill="#A0C5FD" transform="translate(292,302)"/>
<path d="M0 0 C2.5678125 0.433125 2.5678125 0.433125 5.1875 0.875 C11.78285061 1.97553526 18.38909478 2.99770147 25 4 C25 4.66 25 5.32 25 6 C24.28972656 6.30292969 23.57945312 6.60585938 22.84765625 6.91796875 C21.92855469 7.33691406 21.00945312 7.75585938 20.0625 8.1875 C19.14597656 8.59355469 18.22945312 8.99960937 17.28515625 9.41796875 C14.75182704 10.8223391 14.75182704 10.8223391 14.18359375 13.67578125 C14.12300781 14.44277344 14.06242188 15.20976562 14 16 C12.02 16.66 10.04 17.32 8 18 C8 17.34 8 16.68 8 16 C4.04 16.495 4.04 16.495 0 17 C0 11.39 0 5.78 0 0 Z " fill="#A1C6FD" transform="translate(220,303)"/>
<path d="M0 0 C5.28 0 10.56 0 16 0 C16 9.37931034 16 9.37931034 13 13 C8.40666878 17.16270641 2.82351077 16.27536741 -3 16 C-2.5359375 14.824375 -2.5359375 14.824375 -2.0625 13.625 C-0.72271943 9.05398395 -0.38487156 4.74674928 0 0 Z " fill="#9FC5FD" transform="translate(107,365)"/>
<path d="M0 0 C3.9981842 0.46221783 7.28441098 0.2931178 11.25 -0.5 C11.91 -0.17 12.57 0.16 13.25 0.5 C13.5625 3.3125 13.5625 3.3125 13.25 6.5 C11.58720673 7.5064275 9.92016516 8.50585407 8.25 9.5 C6.88099646 13.07996259 6.88099646 13.07996259 6.25 16.5 C3.875 17.125 3.875 17.125 1.25 17.5 C-0.75 15.5 -0.75 15.5 -1.0625 12.5625 C-1.289375 11.551875 -1.51625 10.54125 -1.75 9.5 C-2.595625 9.005 -3.44125 8.51 -4.3125 8 C-5.116875 7.505 -5.92125 7.01 -6.75 6.5 C-7.0625 3.3125 -7.0625 3.3125 -6.75 0.5 C-4.1845146 -0.7827427 -2.82469052 -0.3766254 0 0 Z " fill="#3B65CD" transform="translate(252.75,361.5)"/>
<path d="M0 0 C3.26828007 2.78370858 5.12457911 6.43188665 7.1875 10.125 C7.55552734 10.77082031 7.92355469 11.41664062 8.30273438 12.08203125 C11 16.85604128 11 16.85604128 11 18 C3.24506486 18.09928082 -4.31068715 18.06059488 -12 17 C-8.75127084 10.53248388 -4.97080336 5.257305 0 0 Z " fill="#F3CBCE" transform="translate(181,82)"/>
<path d="M0 0 C1.65 0 3.3 0 5 0 C5 11.88 5 23.76 5 36 C3.35 36 1.7 36 0 36 C-1.7329298 34.2670702 -1.12820046 32.03785664 -1.13894653 29.72851562 C-1.1369223 28.99310547 -1.13489807 28.25769531 -1.1328125 27.5 C-1.13376923 26.74912109 -1.13472595 25.99824219 -1.13571167 25.22460938 C-1.13639338 23.63411373 -1.13453972 22.04361533 -1.13037109 20.453125 C-1.12502267 18.01035345 -1.13031634 15.56776579 -1.13671875 13.125 C-1.13605797 11.58333293 -1.1347768 10.04166597 -1.1328125 8.5 C-1.13483673 7.76458984 -1.13686096 7.02917969 -1.13894653 6.27148438 C-1.11495161 1.11495161 -1.11495161 1.11495161 0 0 Z " fill="#D1DEF7" transform="translate(116,156)"/>
<path d="M0 0 C4.09807568 0.53123203 5.96755555 1.7414233 8.953125 4.515625 C11.38875896 7.80774563 11.81147726 11.41731471 11.375 15.4375 C10.385 16.9225 10.385 16.9225 9.375 18.4375 C6.875 18.8125 6.875 18.8125 4.375 18.4375 C3.715 17.4475 3.055 16.4575 2.375 15.4375 C-0.65434491 14.77977572 -0.65434491 14.77977572 -3.625 14.4375 C-4.625 13.4375 -4.625 13.4375 -4.75 11 C-4.625 8.4375 -4.625 8.4375 -3.625 6.4375 C-3.625 5.591875 -3.625 4.74625 -3.625 3.875 C-3.625 0.46197587 -3.36461755 0.56076959 0 0 Z " fill="#3B65CC" transform="translate(311.625,330.5625)"/>
<path d="M0 0 C2.4375 1.25 2.4375 1.25 3.4375 4.25 C5.41795559 4.91179847 5.41795559 4.91179847 7.4375 5.25 C8.4375 6.25 8.4375 6.25 8.5 8.8125 C8.479375 9.616875 8.45875 10.42125 8.4375 11.25 C4.43252206 13.67379185 1.51600235 15.2682797 -3.25 15.1875 C-6.57468812 14.24655053 -8.92246255 13.49003178 -11.5625 11.25 C-12 8.6875 -12 8.6875 -11.5625 6.25 C-10.9025 5.59 -10.2425 4.93 -9.5625 4.25 C-8.5725 4.25 -7.5825 4.25 -6.5625 4.25 C-6.129375 3.2909375 -6.129375 3.2909375 -5.6875 2.3125 C-4.04439608 -0.69985718 -3.30278206 -0.96666792 0 0 Z " fill="#3E65CB" transform="translate(257.5625,430.75)"/>
<path d="M0 0 C5.33132423 0.42585078 9.59518713 2.41495159 14.3125 4.75 C15.40401367 5.25273437 15.40401367 5.25273437 16.51757812 5.765625 C21.71707782 8.3241859 21.71707782 8.3241859 23.10546875 11.640625 C23 14 23 14 21 16 C15.62605261 15.72832079 11.38080756 14.03770302 6.6875 11.5625 C6.06810547 11.24990234 5.44871094 10.93730469 4.81054688 10.61523438 C2.20008484 9.27457363 0.08716571 8.08716571 -2 6 C-1.44444444 1.44444444 -1.44444444 1.44444444 0 0 Z " fill="#3D67CD" transform="translate(215,345)"/>
<path d="M0 0 C1.77201559 1.77201559 1 4.60574059 1 7 C1.226875 7.886875 1.45375 8.77375 1.6875 9.6875 C2 12 2 12 0.875 13.875 C-1 15 -1 15 -3.6875 14.6875 C-4.450625 14.460625 -5.21375 14.23375 -6 14 C-6 14.99 -6 15.98 -6 17 C-7.98 17.33 -9.96 17.66 -12 18 C-14.26020272 14.80912557 -14.33467958 11.85528446 -13.734375 8.0390625 C-11.58356675 2.06713747 -6.16948146 -1.02824691 0 0 Z " fill="#3964CC" transform="translate(203,331)"/>
<path d="M0 0 C0.33 1.65 0.66 3.3 1 5 C-2.61888912 8.10576305 -6.17545102 10.24939089 -10.5 12.25 C-11.6034375 12.77078125 -12.706875 13.2915625 -13.84375 13.828125 C-16.85307818 14.94544982 -18.83465838 15.25984148 -22 15 C-22.66 13.35 -23.32 11.7 -24 10 C-20.82784985 6.58832759 -17.24214042 4.82711589 -13.125 2.75 C-12.41730469 2.37359375 -11.70960938 1.9971875 -10.98046875 1.609375 C-6.98326559 -0.41527911 -4.45376869 -1.6417814 0 0 Z " fill="#3C66CD" transform="translate(298,346)"/>
<path d="M0 0 C5.28 0 10.56 0 16 0 C16 3.96 16 7.92 16 12 C13.20251159 12.93249614 11.45679119 13.13476152 8.5625 13.125 C7.41974609 13.12886719 7.41974609 13.12886719 6.25390625 13.1328125 C4 13 4 13 0 12 C0 8.04 0 4.08 0 0 Z " fill="#9EC4FC" transform="translate(107,289)"/>
<path d="M0 0 C2.475 0.495 2.475 0.495 5 1 C5 12.22 5 23.44 5 35 C2.525 35.495 2.525 35.495 0 36 C0 24.12 0 12.24 0 0 Z " fill="#DEEAFB" transform="translate(392,156)"/>
<path d="M0 0 C3.16872216 0.68885264 4.96142228 2.13674555 7.15625 4.46875 C8.51064668 7.17754335 8.22126451 9.47808268 8.15625 12.46875 C7.516875 12.13875 6.8775 11.80875 6.21875 11.46875 C0.02719667 9.4470183 -5.83573599 10.00392374 -11.84375 12.46875 C-12.32310012 8.44220897 -11.95329733 6.65957438 -9.90625 3.09375 C-6.96465398 -0.09088387 -4.19633749 -0.27975583 0 0 Z " fill="#69D9DC" transform="translate(116.84375,262.53125)"/>
<path d="M0 0 C2 2 2 2 2.046875 4.3828125 C0.5298848 8.17528801 -2.23047692 9.23635565 -5.75 10.875 C-6.37132812 11.1946875 -6.99265625 11.514375 -7.6328125 11.84375 C-11.46693631 13.70418982 -13.91953921 14.38611073 -18 13 C-18.33 11.35 -18.66 9.7 -19 8 C-5.37822712 -0.74697599 -5.37822712 -0.74697599 0 0 Z " fill="#4068CD" transform="translate(290,423)"/>
<path d="M0 0 C1 1 1 1 1.0625 3.5625 C1.041875 4.366875 1.02125 5.17125 1 6 C-1.03369998 7.18280474 -3.07512682 8.34583227 -5.125 9.5 C-6.26195312 10.1496875 -7.39890625 10.799375 -8.5703125 11.46875 C-12.08489618 13.03790353 -14.20696854 13.4051903 -18 13 C-19 12 -19 12 -19.0625 9.4375 C-19.041875 8.633125 -19.02125 7.82875 -19 7 C-16.59087645 5.63063499 -14.17425815 4.27958007 -11.75 2.9375 C-11.06808594 2.54755859 -10.38617188 2.15761719 -9.68359375 1.75585938 C-9.01972656 1.39169922 -8.35585938 1.02753906 -7.671875 0.65234375 C-7.0644043 0.31195068 -6.45693359 -0.02844238 -5.83105469 -0.37915039 C-3.51571139 -1.16420612 -2.26934542 -0.82425479 0 0 Z " fill="#3E66CC" transform="translate(316,411)"/>
<path d="M0 0 C7.13372684 0.15852726 12.82858968 3.68628707 19 7 C19 8.98 19 10.96 19 13 C15.43975462 14.23657378 14.05766227 14.02293677 10.484375 12.6015625 C9.23214631 11.95695533 7.98740934 11.2976167 6.75 10.625 C6.11320313 10.295 5.47640625 9.965 4.8203125 9.625 C0.21407645 7.21407645 0.21407645 7.21407645 -1 6 C-1.125 3.5 -1.125 3.5 -1 1 C-0.67 0.67 -0.34 0.34 0 0 Z " fill="#3D65CC" transform="translate(221,423)"/>
<path d="M0 0 C0.78375 0.04125 1.5675 0.0825 2.375 0.125 C3.95477708 3.28455417 3.55947084 6.65963817 3.5625 10.125 C3.57474609 10.86234375 3.58699219 11.5996875 3.59960938 12.359375 C3.60487395 14.28270058 3.49703447 16.20554263 3.375 18.125 C2.715 18.785 2.055 19.445 1.375 20.125 C-3.18055556 19.56944444 -3.18055556 19.56944444 -4.625 18.125 C-4.75158222 15.46677343 -4.81020214 12.84612576 -4.8125 10.1875 C-4.82474609 9.44564453 -4.83699219 8.70378906 -4.84960938 7.93945312 C-4.85488478 5.99986371 -4.74688902 4.0607629 -4.625 2.125 C-2.625 0.125 -2.625 0.125 0 0 Z " fill="#3964CC" transform="translate(256.625,406.875)"/>
<path d="M0 0 C4.55555556 0.55555556 4.55555556 0.55555556 6 2 C6.12658222 4.65822657 6.18520214 7.27887424 6.1875 9.9375 C6.19974609 10.67935547 6.21199219 11.42121094 6.22460938 12.18554688 C6.22988478 14.12513629 6.12188902 16.0642371 6 18 C5.34 18.66 4.68 19.32 4 20 C-0.55555556 19.44444444 -0.55555556 19.44444444 -2 18 C-2.12658222 15.34177343 -2.18520214 12.72112576 -2.1875 10.0625 C-2.19974609 9.32064453 -2.21199219 8.57878906 -2.22460938 7.81445312 C-2.22988478 5.87486371 -2.12188902 3.9357629 -2 2 C-1.34 1.34 -0.68 0.68 0 0 Z " fill="#3863CC" transform="translate(254,383)"/>
<path d="M0 0 C2.5 0.125 2.5 0.125 3.5 1.125 C3.59860131 2.52848735 3.63078937 3.93680477 3.6328125 5.34375 C3.63410156 6.19324219 3.63539063 7.04273438 3.63671875 7.91796875 C3.63285156 8.81128906 3.62898437 9.70460938 3.625 10.625 C3.62886719 11.51832031 3.63273438 12.41164063 3.63671875 13.33203125 C3.63542969 14.18152344 3.63414062 15.03101563 3.6328125 15.90625 C3.63168457 16.69064453 3.63055664 17.47503906 3.62939453 18.28320312 C3.5 20.125 3.5 20.125 2.5 21.125 C0 21.25 0 21.25 -2.5 21.125 C-4.05606751 19.56893249 -3.62970769 18.06542629 -3.6328125 15.90625 C-3.63410156 15.05675781 -3.63539063 14.20726562 -3.63671875 13.33203125 C-3.63285156 12.43871094 -3.62898437 11.54539062 -3.625 10.625 C-3.62886719 9.73167969 -3.63273438 8.83835937 -3.63671875 7.91796875 C-3.63542969 7.06847656 -3.63414062 6.21898437 -3.6328125 5.34375 C-3.63168457 4.55935547 -3.63055664 3.77496094 -3.62939453 2.96679688 C-3.42562955 0.06641384 -2.91395956 0.14569798 0 0 Z " fill="#3762CC" transform="translate(193.5,355.875)"/>
</svg>
