<?xml version="1.0" encoding="UTF-8"?>
<svg version="1.1" xmlns="http://www.w3.org/2000/svg" width="512" height="512">
<path d="M0 0 C1.11592529 0.78914795 1.11592529 0.78914795 2.25439453 1.59423828 C13.35938531 9.50223398 23.89892718 17.84687838 34 27 C34.57476074 27.51836426 35.14952148 28.03672852 35.74169922 28.57080078 C39.53713883 32.00272138 43.28453921 35.48175568 47 39 C48.43085937 40.34964844 48.43085937 40.34964844 49.890625 41.7265625 C61.1033825 52.57867576 61.1033825 52.57867576 61.5 62.0625 C61.29634603 67.16021353 60.72522673 70.27477327 57 74 C52.47878824 77.24547481 47.86730397 78.80639576 42.28515625 78.5 C34.50136399 76.79687964 29.47044619 70.51831348 24.48828125 64.76171875 C-20.52644436 14.80032 -89.63179716 -14.53663368 -155 -24 C-155.80276367 -24.11859375 -156.60552734 -24.2371875 -157.43261719 -24.359375 C-235.09187558 -35.24527855 -317.63454427 -11.69892409 -380 35 C-380.62342285 35.46647949 -381.2468457 35.93295898 -381.88916016 36.41357422 C-389.39326269 42.07484196 -396.47038882 48.0811932 -403.32421875 54.51171875 C-405.56621418 56.59661085 -407.8467535 58.59110206 -410.1875 60.5625 C-413.27638788 63.21561117 -415.89770876 66.10998016 -418.5625 69.1875 C-423.48590198 74.70742338 -427.26686928 78.08308558 -434.9375 78.5625 C-440.29609267 78.32561099 -444.03437365 76.57572065 -448 73 C-451.3616709 68.58780695 -451.37909833 64.23729662 -451.49609375 58.87890625 C-450.09036948 50.721278 -443.92553661 45.52715656 -438.25 40 C-437.4765625 39.23171875 -436.703125 38.4634375 -435.90625 37.671875 C-431.09259284 32.92283069 -426.13159733 28.40126796 -421 24 C-420.01257813 23.13117188 -419.02515625 22.26234375 -418.0078125 21.3671875 C-398.78536642 4.74940891 -377.40906171 -9.09630642 -355 -21 C-354.36336426 -21.34095703 -353.72672852 -21.68191406 -353.07080078 -22.03320312 C-316.76321318 -41.33329989 -277.62680844 -52.52929696 -237 -58 C-236.14712402 -58.11859375 -235.29424805 -58.2371875 -234.41552734 -58.359375 C-153.7403051 -69.09264551 -66.34435985 -46.93433643 0 0 Z " fill="#F0661E" transform="translate(451,127)"/>
<path d="M0 0 C0.92320038 0.00215515 1.84640076 0.0043103 2.7975769 0.00653076 C16.8396985 0.05904851 30.57510247 0.48807734 44.375 3.3125 C45.37692383 3.51649414 46.37884766 3.72048828 47.41113281 3.93066406 C96.38994849 14.2301579 154.5320318 41.1212532 183.375 84.3125 C185.12805915 89.52325041 185.00229557 94.48139949 182.75 99.5 C180.59972899 103.36599248 178.44415104 105.39308913 174.375 107.3125 C169.09057999 108.7242931 164.3995548 108.70944401 159.3515625 106.52734375 C155.42227283 104.11230603 152.45899498 100.69819014 149.375 97.3125 C148.570625 96.508125 147.76625 95.70375 146.9375 94.875 C145.49069557 93.42819557 144.05645088 91.96770885 142.66796875 90.46484375 C116.01006788 62.37975125 77.62480497 45.47765725 40.375 37.3125 C39.56788574 37.13315918 38.76077148 36.95381836 37.92919922 36.76904297 C-12.45169786 26.17969558 -67.83022485 38.72962082 -110.99511719 65.79882812 C-120.79942972 72.24538424 -129.83284269 79.56246488 -138.625 87.3125 C-139.46804687 88.03308594 -140.31109375 88.75367188 -141.1796875 89.49609375 C-144.84561059 92.66211824 -148.18351945 95.86089556 -151.3125 99.5625 C-155.2948976 104.20103633 -158.8986954 107.24877286 -165.0625 108.25 C-170.97635068 108.65750904 -174.94148814 106.73413224 -179.4375 102.9375 C-183.37639088 98.21083095 -184.15331619 94.44096775 -183.625 88.3125 C-181.58375933 82.31769845 -178.50365234 78.50734981 -174.125 74 C-173.49698486 73.34338379 -172.86896973 72.68676758 -172.22192383 72.01025391 C-138.75281709 37.32896069 -94.57887964 13.73852625 -47.4375 4.0625 C-46.70313721 3.91127686 -45.96877441 3.76005371 -45.2121582 3.60424805 C-30.17127953 0.72047668 -15.27987743 -0.06441319 0 0 Z " fill="#F3801A" transform="translate(255.625,169.6875)"/>
<path d="M0 0 C0.82886719 0.69609375 1.65773438 1.3921875 2.51171875 2.109375 C10.73311617 9.21024505 20.25833392 17.45972822 21.375 28.8125 C21.1919322 34.86517915 18.72172689 39.27827311 14.5 43.5 C9.41755298 45.67819158 4.45285815 45.81462618 -1 45 C-4.5489691 43.12972705 -7.16408037 41.0383219 -9.8984375 38.12109375 C-10.61733154 37.36932861 -11.33622559 36.61756348 -12.0769043 35.84301758 C-12.83527588 35.04919678 -13.59364746 34.25537598 -14.375 33.4375 C-21.9633267 25.69539223 -29.51073454 19.25047077 -39 14 C-39.59312988 13.66967773 -40.18625977 13.33935547 -40.79736328 12.99902344 C-64.11634221 0.36237578 -92.35788276 -2.60439845 -117.86010742 4.52172852 C-132.82931174 9.00360224 -148.65035629 16.55506792 -159.73828125 27.76953125 C-162 30 -162 30 -164 30 C-164.22816406 30.55300781 -164.45632812 31.10601562 -164.69140625 31.67578125 C-166.37542889 34.66680654 -168.50543242 36.76971769 -170.9375 39.1875 C-172.25041016 40.50814453 -172.25041016 40.50814453 -173.58984375 41.85546875 C-177.91370401 45.70279336 -182.43130643 45.40023367 -187.98046875 45.33984375 C-192.42970677 44.83908863 -195.08441188 43.36741903 -198 40 C-201.03987961 34.90084711 -202.17887621 29.82561327 -201 24 C-190.38725785 1.12632468 -161.47419335 -16.02681529 -138.81567383 -24.62646484 C-91.69081988 -41.77457849 -38.06441378 -32.94160511 0 0 Z " fill="#F69B15" transform="translate(346,305)"/>
<path d="M0 0 C8.38830565 6.1169736 15.14579023 13.54899948 17 24 C17.82578681 34.29057413 17.25751539 43.28830479 10.94140625 51.76171875 C3.64267581 60.1927986 -3.7190622 65.19157072 -14.9609375 66.2890625 C-27.00017766 66.62950374 -35.19575629 63.34506162 -43.91015625 55.21875 C-50.63164819 48.25465644 -53.1745229 40.59632479 -53.5 31 C-53.11050852 20.18866082 -49.88736078 12.93079884 -42.3671875 5.1640625 C-30.82099066 -5.39137157 -13.88988174 -7.779168 0 0 Z M-19 29 C-19 30.32 -19 31.64 -19 33 C-18.01 32.67 -17.02 32.34 -16 32 C-16.33 31.01 -16.66 30.02 -17 29 C-17.66 29 -18.32 29 -19 29 Z " fill="#FAB810" transform="translate(274,379)"/>
</svg>
