<?xml version="1.0" encoding="UTF-8"?>
<svg version="1.1" xmlns="http://www.w3.org/2000/svg" width="512" height="512">
<path d="M0 0 C0.80843353 0.00498505 1.61686707 0.00997009 2.44979858 0.0151062 C14.3635179 0.10105105 25.96250452 0.41799572 37.5625 3.375 C38.49803711 3.61138184 39.43357422 3.84776367 40.39746094 4.09130859 C64.95589441 10.46773322 86.75388701 20.30830466 106.5625 36.375 C107.11502441 36.82069336 107.66754883 37.26638672 108.23681641 37.72558594 C127.00133216 52.96946631 141.455436 70.90885694 152.5625 92.375 C152.91441406 93.04756836 153.26632812 93.72013672 153.62890625 94.41308594 C159.44099873 105.65658957 163.4576938 117.11685159 166.5625 129.375 C166.77422852 130.17341309 166.98595703 130.97182617 167.20410156 131.79443359 C173.60610456 156.77847858 173.09019811 186.49414087 166.5625 211.375 C166.37526367 212.1292627 166.18802734 212.88352539 165.99511719 213.66064453 C162.20168595 228.75247329 155.68605449 242.59757594 148.5625 256.375 C149.31917969 256.61734375 150.07585937 256.8596875 150.85546875 257.109375 C152.07878906 257.52703125 153.30210937 257.9446875 154.5625 258.375 C155.82054443 258.75688477 155.82054443 258.75688477 157.10400391 259.14648438 C164.68109864 261.648145 171.90066184 264.6503443 176.5625 271.375 C180.32816651 283.15161728 178.51380251 297.24183141 177.5625 309.375 C178.19003174 309.71120361 178.81756348 310.04740723 179.46411133 310.39379883 C182.43613713 311.98849816 185.4055502 313.58800939 188.375 315.1875 C189.36048828 315.71537109 190.34597656 316.24324219 191.36132812 316.78710938 C193.45552083 317.9167843 195.53263844 319.07860333 197.59283447 320.26914978 C200.4301163 321.8543042 203.27145552 323.05299058 206.31280518 324.1934967 C212.55045232 326.77213946 218.9088135 329.52951046 221.70831871 336.03949165 C223.66314101 344.21897152 223.45437454 352.61583688 223.40234375 360.9765625 C223.42334826 363.01078073 223.45572959 365.04461247 223.48895079 367.07866418 C223.59139765 373.47058938 223.59395794 379.85720495 223.53393555 386.24951172 C223.48081843 392.07835989 223.5443625 397.89181899 223.71850586 403.71826172 C225.18075984 453.75670978 225.18075984 453.75670978 216.34063148 463.26983833 C210.41204778 468.47374941 203.40114291 471.10753378 195.92831421 473.32049561 C191.46375655 474.71923462 187.88873774 476.88034794 184.01171875 479.4375 C182.86217366 480.1194261 181.70810282 480.79379608 180.54907227 481.45947266 C169.49684683 487.82462696 169.49684683 487.82462696 158.6171875 494.4765625 C157.92278564 494.91355469 157.22838379 495.35054688 156.51293945 495.80078125 C154.80297782 496.88694853 153.10576977 497.99312985 151.41015625 499.1015625 C147.73284983 500.74600954 146.39074798 500.64642542 142.5625 499.375 C139.29846632 497.65769551 136.22092704 495.68889277 133.125 493.6875 C131.23890161 492.4938109 129.35216027 491.30113721 127.46484375 490.109375 C126.49144043 489.49126953 125.51803711 488.87316406 124.51513672 488.23632812 C118.83278378 484.6541999 113.08215149 481.18364125 107.33056641 477.71411133 C102.24675181 474.64150927 97.20503107 471.51924961 92.20703125 468.30859375 C91.16788574 467.65044678 90.12874023 466.9922998 89.05810547 466.31420898 C87.06086262 465.04771529 85.07361453 463.76528155 83.09814453 462.46508789 C78.18644963 459.20078166 78.18644963 459.20078166 72.54296875 458.6484375 C71.55941406 459.21820313 70.57585937 459.78796875 69.5625 460.375 C68.84989014 460.75430664 68.13728027 461.13361328 67.40307617 461.52441406 C64.71678604 462.96579924 62.07809631 464.47657033 59.4375 466 C58.44484131 466.56686523 57.45218262 467.13373047 56.42944336 467.71777344 C54.27795345 468.94719625 52.12785946 470.17906442 49.97900391 471.41308594 C46.45096801 473.43904681 42.91941258 475.45874092 39.38671875 477.4765625 C38.78689178 477.81938766 38.18706482 478.16221283 37.56906128 478.51542664 C34.55613807 480.23728127 31.54219557 481.95731067 28.52636719 483.67407227 C23.47412462 486.55221232 18.43002635 489.43824037 13.44140625 492.42578125 C12.70656006 492.85922852 11.97171387 493.29267578 11.21459961 493.73925781 C9.91944628 494.50483803 8.63159003 495.28299164 7.35375977 496.07714844 C4.72624865 497.61546299 2.79680964 498.36916656 -0.26171875 498.4453125 C-4.91748889 496.87620916 -8.7639869 494.34510523 -12.875 491.6875 C-14.76109839 490.4938109 -16.64783973 489.30113721 -18.53515625 488.109375 C-19.50855957 487.49126953 -20.48196289 486.87316406 -21.48486328 486.23632812 C-27.16670005 482.65452529 -32.91735971 479.18528032 -38.66723633 475.71411133 C-43.75866794 472.63507939 -48.81321769 469.51103987 -53.828125 466.30859375 C-54.87178223 465.65044678 -55.91543945 464.9922998 -56.99072266 464.31420898 C-58.9997721 463.04589872 -60.99992974 461.76336423 -62.98974609 460.46508789 C-63.89289551 459.89910889 -64.79604492 459.33312988 -65.7265625 458.75 C-66.51756348 458.24210937 -67.30856445 457.73421875 -68.12353516 457.2109375 C-70.46667902 456.11001317 -70.46667902 456.11001317 -73.03759766 457.11279297 C-76.18248284 458.76681702 -79.19388591 460.59065974 -82.1875 462.5 C-82.87013916 462.93103027 -83.55277832 463.36206055 -84.25610352 463.80615234 C-86.65359554 465.32336648 -89.04599271 466.84837032 -91.4375 468.375 C-92.35708496 468.96152344 -93.27666992 469.54804688 -94.22412109 470.15234375 C-96.22604193 471.43006665 -98.227405 472.70866377 -100.22827148 473.98803711 C-102.33753056 475.33666028 -104.44773038 476.68381318 -106.55883789 478.02954102 C-111.6168876 481.26008758 -116.659469 484.50884506 -121.6526947 487.83862305 C-123.36791581 488.98096931 -125.08759129 490.11626919 -126.80883789 491.24951172 C-128.97874626 492.68120713 -131.13984081 494.12637397 -133.29077148 495.58642578 C-134.76139038 496.55104736 -134.76139038 496.55104736 -136.26171875 497.53515625 C-137.11854248 498.10886963 -137.97536621 498.68258301 -138.8581543 499.27368164 C-142.20972839 500.70472288 -143.95901082 500.35764975 -147.4375 499.375 C-149.94091797 498.19848633 -149.94091797 498.19848633 -152.4296875 496.70703125 C-153.36973633 496.15063965 -154.30978516 495.59424805 -155.27832031 495.02099609 C-156.27959961 494.41594238 -157.28087891 493.81088867 -158.3125 493.1875 C-160.47117705 491.90464983 -162.63003639 490.62210636 -164.7890625 489.33984375 C-165.8915332 488.68097168 -166.99400391 488.02209961 -168.12988281 487.34326172 C-174.17787073 483.74428928 -180.27478731 480.22917404 -186.36279297 476.69848633 C-188.19501805 475.63147304 -190.00282446 474.52154654 -191.78530884 473.37336731 C-194.56533583 471.70395866 -197.26245126 470.78060868 -200.36486816 469.85617065 C-206.63821083 467.62754249 -211.62055659 464.97937653 -215.4375 459.375 C-219.06656693 447.00995609 -217.82635558 433.33793179 -217.46537876 420.59946156 C-217.33980215 415.4190167 -217.32856316 410.23831153 -217.30487061 405.05657959 C-217.24286041 395.25876527 -217.07897535 385.46544804 -216.87788081 375.66960883 C-216.65383103 364.51177691 -216.54424731 353.35372269 -216.44397211 342.19419909 C-216.23527275 319.25197864 -215.88381223 296.31374191 -215.4375 273.375 C-214.82800507 273.07156174 -214.21851013 272.76812347 -213.59054565 272.45549011 C-210.7655385 271.04825962 -207.94136129 269.63937092 -205.1171875 268.23046875 C-204.15901123 267.75347534 -203.20083496 267.27648193 -202.21362305 266.78503418 C-192.87842602 262.12529027 -183.64699319 257.27751312 -174.4375 252.375 C-174.43339111 251.08811279 -174.42928223 249.80122559 -174.42504883 248.4753418 C-174.40329576 243.70589 -174.34904597 238.9372677 -174.28491211 234.16821289 C-174.26169866 232.10318952 -174.24732857 230.0380472 -174.24194336 227.97290039 C-174.23267822 225.00591615 -174.1917418 222.04081155 -174.14453125 219.07421875 C-174.1484639 218.1491301 -174.15239655 217.22404144 -174.15644836 216.2709198 C-174.10158672 213.86714721 -174.01339989 211.70945201 -173.4375 209.375 C-170.98706988 207.24159999 -169.68420959 206.375 -166.4375 206.375 C-166.75581787 204.86377563 -166.75581787 204.86377563 -167.08056641 203.32202148 C-169.122907 193.0991645 -169.91105113 183.26165222 -169.82861328 172.84594727 C-169.81252771 170.44164144 -169.8285768 168.03902131 -169.84765625 165.63476562 C-169.86831493 151.07891998 -167.89281948 136.91263038 -163.75 122.9375 C-163.49653809 122.07116943 -163.24307617 121.20483887 -162.98193359 120.31225586 C-154.97600626 93.88116943 -140.81921908 71.75502456 -122.4375 51.375 C-121.76203125 50.62605469 -121.0865625 49.87710938 -120.390625 49.10546875 C-100.50587379 28.24347549 -73.09445519 13.57408566 -45.625 5.6875 C-44.97547363 5.49712158 -44.32594727 5.30674316 -43.65673828 5.1105957 C-29.26107366 1.18185743 -14.86954764 -0.15560818 0 0 Z M113.61499023 297.77832031 C106.57451633 303.95500154 99.20021282 309.28941738 91.28369141 314.28320312 C89.78329921 315.23494127 88.30194834 316.21656659 86.82421875 317.203125 C66.97624353 329.78821151 42.74119505 336.54110845 19.5625 339.375 C23.28301171 343.28576515 27.21272953 346.50296402 31.5625 349.6875 C32.98502274 350.7413137 34.40686136 351.79605129 35.828125 352.8515625 C36.58802734 353.41520508 37.34792969 353.97884766 38.13085938 354.55957031 C42.55086563 357.85948663 46.92930407 361.21394218 51.3125 364.5625 C60.05219215 371.23231878 60.05219215 371.23231878 68.8125 377.875 C69.72515625 378.5659375 70.6378125 379.256875 71.578125 379.96875 C73.29312711 381.47136593 73.29312711 381.47136593 74.5625 381.375 C74.8925 365.535 75.2225 349.695 75.5625 333.375 C79.31625 331.43625 83.07 329.4975 86.9375 327.5 C97.58842669 321.97986034 108.12177193 316.28207859 118.5625 310.375 C118.5625 305.095 118.5625 299.815 118.5625 294.375 C116.47943392 294.375 115.10652144 296.46655174 113.61499023 297.77832031 Z M-71.4375 325.375 C-71.4375 343.855 -71.4375 362.335 -71.4375 381.375 C-63.84575996 376.32726926 -63.84575996 376.32726926 -56.875 370.75 C-52.27958113 366.82768543 -47.54453855 363.15474002 -42.6875 359.5625 C-36.83637515 355.22514849 -31.09720051 350.77221257 -25.4375 346.1875 C-24.73657227 345.62248779 -24.03564453 345.05747559 -23.31347656 344.4753418 C-21.66771539 343.13323807 -20.04942035 341.75756466 -18.4375 340.375 C-18.4375 340.045 -18.4375 339.715 -18.4375 339.375 C-18.99920898 339.28524902 -19.56091797 339.19549805 -20.13964844 339.10302734 C-30.66555296 337.3885646 -41.02778901 335.45183465 -51.25 332.375 C-52.04180664 332.1382959 -52.83361328 331.9015918 -53.64941406 331.65771484 C-58.47447995 330.15179606 -63.02531717 328.30206276 -67.59643555 326.14453125 C-69.41247871 325.24645034 -69.41247871 325.24645034 -71.4375 325.375 Z " fill="#46D3D6" transform="translate(251.4375,11.625)"/>
<path d="M0 0 C2.79324156 1.31168682 5.46941794 2.73567129 8.15405273 4.25756836 C9.17112305 4.83313477 10.18819336 5.40870117 11.23608398 6.00170898 C12.81196289 6.89986328 12.81196289 6.89986328 14.41967773 7.81616211 C16.01875977 8.72011719 16.01875977 8.72011719 17.65014648 9.64233398 C25.53067507 14.11465944 25.53067507 14.11465944 26.66967773 15.25366211 C26.65807617 16.02194336 26.64647461 16.79022461 26.63452148 17.58178711 C26.60515821 20.71946282 26.72895972 23.25127705 27.66967773 26.25366211 C29.83996902 27.49059313 29.83996902 27.49059313 32.48217773 28.19116211 C35.22436523 29.25366211 35.22436523 29.25366211 37.66967773 31.25366211 C39.97756147 36.7172236 40.51348521 42.88240336 41.31811523 48.71704102 C41.81404516 52.29531322 42.43048129 55.82968346 43.10717773 59.37866211 C43.29151367 60.47436523 43.47584961 61.57006836 43.66577148 62.69897461 C44.40192823 65.45218085 44.40192823 65.45218085 46.93066406 66.25292969 C47.83453857 66.58317139 48.73841309 66.91341309 49.66967773 67.25366211 C51.29243779 68.08345997 52.9016919 68.94009969 54.49780273 69.82006836 C55.37952148 70.30540039 56.26124023 70.79073242 57.16967773 71.29077148 C58.07717773 71.79415039 58.98467773 72.2975293 59.91967773 72.81616211 C61.30413086 73.57703125 61.30413086 73.57703125 62.71655273 74.35327148 C69.5338249 78.11780928 69.5338249 78.11780928 70.66967773 79.25366211 C70.76271791 80.72720559 70.78714039 82.20516802 70.78320312 83.68164062 C70.78312759 84.62254044 70.78305206 85.56344025 70.78297424 86.53285217 C70.77781296 87.55575851 70.77265167 88.57866486 70.76733398 89.63256836 C70.76521156 91.19526711 70.76521156 91.19526711 70.76304626 92.78953552 C70.75742853 96.13177305 70.74487303 99.47394468 70.73217773 102.81616211 C70.72716502 105.07592677 70.72260172 107.33569248 70.71850586 109.59545898 C70.70745335 115.14821602 70.69069798 120.70093436 70.66967773 126.25366211 C71.78028564 126.40818848 72.89089355 126.56271484 74.03515625 126.72192383 C82.50911894 127.96168273 87.55562339 131.31847638 93.66967773 137.25366211 C89.47108256 138.65319383 86.66103263 136.99933822 82.73217773 135.44116211 C82.01610352 135.16723633 81.3000293 134.89331055 80.56225586 134.61108398 C77.15363405 133.29375748 73.94933931 131.8934929 70.66967773 130.25366211 C70.99967773 148.40366211 71.32967773 166.55366211 71.66967773 185.25366211 C76.61967773 181.29366211 81.56967773 177.33366211 86.66967773 173.25366211 C92.98217773 168.37866211 92.98217773 168.37866211 96.14624023 165.96069336 C98.82134891 163.91278187 101.47847441 161.84294734 104.13061523 159.76538086 C118.293273 148.6758081 118.293273 148.6758081 125.22827148 143.98413086 C127.21312246 142.57726849 129.11473652 141.13016708 131.01733398 139.61694336 C131.601521 139.15449219 132.18570801 138.69204102 132.78759766 138.21557617 C133.93378472 137.30270355 135.07363629 136.38180202 136.20605469 135.4519043 C139.40957486 132.90492023 140.41400519 132.25366211 144.66967773 132.25366211 C145.22655273 132.74866211 145.78342773 133.24366211 146.35717773 133.75366211 C149.95397536 136.08672003 153.54304671 135.49608102 157.66967773 135.25366211 C158.64928467 135.19855469 158.64928467 135.19855469 159.64868164 135.14233398 C164.32457834 134.87664605 168.99727598 134.57471057 173.66967773 134.25366211 C171.39370128 136.74918613 169.06246595 138.31989197 166.10717773 139.94116211 C165.32213867 140.3781543 164.53709961 140.81514648 163.72827148 141.26538086 C161.66967773 142.25366211 161.66967773 142.25366211 159.66967773 142.25366211 C159.66967773 142.91366211 159.66967773 143.57366211 159.66967773 144.25366211 C160.35803711 144.47538086 161.04639648 144.69709961 161.75561523 144.92553711 C165.40756541 146.58996481 168.24103545 148.95198842 171.29467773 151.50366211 C177.16870287 156.31102204 183.16490798 160.90220824 189.29467773 165.37866211 C195.96756246 170.25523279 202.57300091 175.19952559 209.10327148 180.26538086 C211.2762051 181.94882562 213.47067771 183.60441209 215.66967773 185.25366211 C215.99967773 169.74366211 216.32967773 154.23366211 216.66967773 138.25366211 C226.41967773 132.94116211 226.41967773 132.94116211 229.65600586 131.17919922 C234.61921823 128.47431785 239.57456905 125.75669837 244.51342773 123.00756836 C245.42382812 122.50201416 246.33422852 121.99645996 247.2722168 121.47558594 C249.0156964 120.50625372 250.7572886 119.5335177 252.49682617 118.55712891 C253.67293457 117.90417847 253.67293457 117.90417847 254.87280273 117.23803711 C255.9038916 116.66134277 255.9038916 116.66134277 256.95581055 116.07299805 C258.66967773 115.25366211 258.66967773 115.25366211 260.66967773 115.25366211 C260.66967773 102.71366211 260.66967773 90.17366211 260.66967773 77.25366211 C265.94967773 74.28366211 271.22967773 71.31366211 276.66967773 68.25366211 C281.7876766 65.31705711 281.7876766 65.31705711 286.90014648 62.37084961 C292.36772772 60.16530908 298.38091825 63.26573523 303.59545898 65.3918457 C309.64455315 68.21114297 314.64751485 70.78450161 318.66967773 76.25366211 C322.68669275 87.93269781 320.73863673 102.17550891 319.66967773 114.25366211 C320.29720947 114.58986572 320.92474121 114.92606934 321.57128906 115.27246094 C324.54331486 116.86716027 327.51272794 118.4666715 330.48217773 120.06616211 C331.46766602 120.5940332 332.4531543 121.1219043 333.46850586 121.66577148 C335.56269856 122.79544641 337.63981618 123.95726544 339.70001221 125.14781189 C342.53729404 126.73296631 345.37863326 127.93165269 348.41998291 129.07215881 C354.65763005 131.65080157 361.01599124 134.40817257 363.81549644 140.91815376 C365.77031875 149.09763363 365.56155227 157.49449899 365.50952148 165.85522461 C365.53052599 167.88944284 365.56290733 169.92327458 365.59612852 171.95732629 C365.69857538 178.34925149 365.70113568 184.73586706 365.64111328 191.12817383 C365.58799617 196.957022 365.65154024 202.7704811 365.82568359 208.59692383 C367.28793758 258.63537189 367.28793758 258.63537189 358.44780922 268.14850044 C352.51922552 273.35241152 345.50832065 275.98619589 338.03549194 278.19915771 C333.57093429 279.59789673 329.99591548 281.75901005 326.11889648 284.31616211 C324.96935139 284.99808821 323.81528055 285.67245819 322.65625 286.33813477 C311.60402456 292.70328907 311.60402456 292.70328907 300.72436523 299.35522461 C300.02996338 299.7922168 299.33556152 300.22920898 298.62011719 300.67944336 C296.91015555 301.76561064 295.2129475 302.87179196 293.51733398 303.98022461 C289.84002757 305.62467165 288.49792571 305.52508753 284.66967773 304.25366211 C281.40564406 302.53635761 278.32810477 300.56755488 275.23217773 298.56616211 C273.34607934 297.37247301 271.459338 296.17979932 269.57202148 294.98803711 C268.59861816 294.36993164 267.62521484 293.75182617 266.62231445 293.11499023 C260.93996151 289.532862 255.18932923 286.06230336 249.43774414 282.59277344 C244.35392954 279.52017137 239.3122088 276.39791172 234.31420898 273.18725586 C233.27506348 272.52910889 232.23591797 271.87096191 231.1652832 271.19287109 C229.16804035 269.9263774 227.18079227 268.64394366 225.20532227 267.34375 C220.29362737 264.07944377 220.29362737 264.07944377 214.65014648 263.52709961 C213.6665918 264.09686523 212.68303711 264.66663086 211.66967773 265.25366211 C210.95706787 265.63296875 210.24445801 266.01227539 209.51025391 266.40307617 C206.82396377 267.84446134 204.18527404 269.35523244 201.54467773 270.87866211 C200.55201904 271.44552734 199.55936035 272.01239258 198.53662109 272.59643555 C196.38513118 273.82585835 194.23503719 275.05772653 192.08618164 276.29174805 C188.55814574 278.31770892 185.02659032 280.33740302 181.49389648 282.35522461 C180.89406952 282.69804977 180.29424255 283.04087494 179.67623901 283.39408875 C176.66331581 285.11594338 173.64937331 286.83597278 170.63354492 288.55273438 C165.58130236 291.43087443 160.53720408 294.31690248 155.54858398 297.30444336 C154.81373779 297.73789062 154.0788916 298.17133789 153.32177734 298.61791992 C152.02662402 299.38350014 150.73876777 300.16165375 149.4609375 300.95581055 C146.83342639 302.4941251 144.90398738 303.24782867 141.84545898 303.32397461 C137.18968884 301.75487126 133.34319083 299.22376734 129.23217773 296.56616211 C127.34607934 295.37247301 125.459338 294.17979932 123.57202148 292.98803711 C122.59861816 292.36993164 121.62521484 291.75182617 120.62231445 291.11499023 C114.94047769 287.5331874 109.18981802 284.06394243 103.43994141 280.59277344 C98.3485098 277.5137415 93.29396004 274.38970198 88.27905273 271.18725586 C87.23539551 270.52910889 86.19173828 269.87096191 85.11645508 269.19287109 C83.10740563 267.92456083 81.107248 266.64202634 79.11743164 265.34375 C78.21428223 264.777771 77.31113281 264.21179199 76.38061523 263.62866211 C75.58961426 263.12077148 74.79861328 262.61288086 73.98364258 262.08959961 C71.64049872 260.98867528 71.64049872 260.98867528 69.06958008 261.99145508 C65.9246949 263.64547913 62.91329182 265.46932185 59.91967773 267.37866211 C59.23703857 267.80969238 58.55439941 268.24072266 57.85107422 268.68481445 C55.45358219 270.20202859 53.06118503 271.72703243 50.66967773 273.25366211 C49.75009277 273.84018555 48.83050781 274.42670898 47.88305664 275.03100586 C45.88113581 276.30872876 43.87977273 277.58732588 41.87890625 278.86669922 C39.76964717 280.21532239 37.65944735 281.56247529 35.54833984 282.90820312 C30.49029014 286.13874969 25.44770873 289.38750717 20.45448303 292.71728516 C18.73926192 293.85963142 17.01958644 294.9949313 15.29833984 296.12817383 C13.12843148 297.55986924 10.96733693 299.00503608 8.81640625 300.46508789 C7.34578735 301.42970947 7.34578735 301.42970947 5.84545898 302.41381836 C4.98863525 302.98753174 4.13181152 303.56124512 3.24902344 304.15234375 C-0.10255066 305.58338499 -1.85183308 305.23631186 -5.33032227 304.25366211 C-7.83374023 303.07714844 -7.83374023 303.07714844 -10.32250977 301.58569336 C-11.26255859 301.02930176 -12.20260742 300.47291016 -13.17114258 299.8996582 C-14.17242187 299.29460449 -15.17370117 298.68955078 -16.20532227 298.06616211 C-18.36399932 296.78331194 -20.52285865 295.50076847 -22.68188477 294.21850586 C-23.78435547 293.55963379 -24.88682617 292.90076172 -26.02270508 292.22192383 C-32.070693 288.62295139 -38.16760957 285.10783615 -44.25561523 281.57714844 C-46.08784031 280.51013515 -47.89564673 279.40020865 -49.6781311 278.25202942 C-52.4581581 276.58262077 -55.15527353 275.65927079 -58.25769043 274.73483276 C-64.5310331 272.5062046 -69.51337886 269.85803864 -73.33032227 264.25366211 C-76.95938919 251.8886182 -75.71917784 238.2165939 -75.35820103 225.47812366 C-75.23262442 220.29767881 -75.22138542 215.11697364 -75.19769287 209.9352417 C-75.13568268 200.13742738 -74.97179761 190.34411015 -74.77070308 180.54827094 C-74.5466533 169.39043902 -74.43706957 158.2323848 -74.33679438 147.07286119 C-74.12809501 124.13064075 -73.77663449 101.19240401 -73.33032227 78.25366211 C-72.76337646 77.97280762 -72.19643066 77.69195312 -71.61230469 77.40258789 C-68.91296347 76.06364512 -66.21540737 74.72113925 -63.51782227 73.37866211 C-62.62772461 72.93780273 -61.73762695 72.49694336 -60.82055664 72.04272461 C-51.23496559 67.26651315 -41.81676826 62.24652842 -32.33032227 57.25366211 C-32.00032227 43.06366211 -31.67032227 28.87366211 -31.33032227 14.25366211 C-26.05032227 11.61366211 -20.77032227 8.97366211 -15.33032227 6.25366211 C-10.1970614 3.31176812 -10.1970614 3.31176812 -5.09985352 0.30834961 C-2.33032227 -0.74633789 -2.33032227 -0.74633789 0 0 Z " fill="#E64E17" transform="translate(109.330322265625,206.746337890625)"/>
<path d="M0 0 C0 108.9 0 217.8 0 330 C-2.475 328.515 -2.475 328.515 -5 327 C-9.63143106 328.20778592 -13.58621273 332.48809461 -17.31054688 335.45507812 C-23.31056002 340.16789122 -23.31056002 340.16789122 -27.2331543 339.77807617 C-28.08820557 339.61799072 -28.94325684 339.45790527 -29.82421875 339.29296875 C-30.77103516 339.11830078 -31.71785156 338.94363281 -32.69335938 338.76367188 C-34.17545898 338.4784668 -34.17545898 338.4784668 -35.6875 338.1875 C-37.1405957 337.91969727 -37.1405957 337.91969727 -38.62304688 337.64648438 C-55.16957942 334.54750566 -55.16957942 334.54750566 -59 329 C-62.82683756 325.40887345 -66.26520619 324.07078717 -71.3125 322.75 C-73.19388672 322.24726562 -73.19388672 322.24726562 -75.11328125 321.734375 C-76.06589844 321.49203125 -77.01851563 321.2496875 -78 321 C-77.95701279 320.44226898 -77.91402557 319.88453796 -77.86973572 319.30990601 C-74.89857492 295.05767319 -74.89857492 295.05767319 -80.09918213 272.15649414 C-85.48338199 266.11441057 -93.9944165 264.06396278 -101.33886719 261.34716797 C-104.95962468 259.51420101 -106.1229735 257.68112496 -107.39038086 253.89892578 C-108.18639559 250.26653213 -108.69042129 246.70438152 -109 243 C-109.34507103 239.90860386 -109.74401237 236.82877633 -110.1875 233.75 C-110.28579102 233.02240479 -110.38408203 232.29480957 -110.48535156 231.54516602 C-111.09097425 228.08732167 -111.52011994 226.36208413 -114.37109375 224.2109375 C-117.07743427 223.1043937 -117.07743427 223.1043937 -119.73388672 222.31420898 C-120.85561279 221.66367554 -120.85561279 221.66367554 -122 221 C-122.2487793 218.6784668 -122.2487793 218.6784668 -122.01171875 215.88671875 C-122.20711608 211.90321854 -122.50359794 210.48269153 -125.40429688 207.66210938 C-128.15985005 205.84714552 -130.93137769 204.18275086 -133.85424805 202.65161133 C-135.69143174 201.68543229 -137.48337181 200.65966223 -139.27929688 199.61914062 C-145.34530236 195.84631444 -145.34530236 195.84631444 -152.12084961 195.69604492 C-154.55624189 196.79902382 -156.95132314 197.89686631 -159.3046875 199.1640625 C-160.05234375 199.56367188 -160.8 199.96328125 -161.5703125 200.375 C-162.71113281 200.99375 -162.71113281 200.99375 -163.875 201.625 C-164.65875 202.04523438 -165.4425 202.46546875 -166.25 202.8984375 C-168.16892057 203.9281022 -170.08477603 204.96347567 -172 206 C-177.40897781 196.40626359 -176.34445569 183.49554762 -176.31567383 172.77270508 C-176.31252649 170.33303524 -176.33602139 167.89459816 -176.36132812 165.45507812 C-176.42116397 150.81170661 -174.48090722 136.62394646 -170.3125 122.5625 C-169.93230713 121.26300415 -169.93230713 121.26300415 -169.54443359 119.93725586 C-161.53850626 93.50616943 -147.38171908 71.38002456 -129 51 C-127.98679687 49.87658203 -127.98679687 49.87658203 -126.953125 48.73046875 C-93.53455048 13.66952839 -47.0500811 0 0 0 Z " fill="#E9FDD6" transform="translate(258,12)"/>
<path d="M0 0 C2.79324156 1.31168682 5.46941794 2.73567129 8.15405273 4.25756836 C9.17112305 4.83313477 10.18819336 5.40870117 11.23608398 6.00170898 C12.81196289 6.89986328 12.81196289 6.89986328 14.41967773 7.81616211 C16.01875977 8.72011719 16.01875977 8.72011719 17.65014648 9.64233398 C25.53067507 14.11465944 25.53067507 14.11465944 26.66967773 15.25366211 C26.65807617 16.02194336 26.64647461 16.79022461 26.63452148 17.58178711 C26.60515821 20.71946282 26.72895972 23.25127705 27.66967773 26.25366211 C29.83996902 27.49059313 29.83996902 27.49059313 32.48217773 28.19116211 C35.22436523 29.25366211 35.22436523 29.25366211 37.66967773 31.25366211 C39.97756147 36.7172236 40.51348521 42.88240336 41.31811523 48.71704102 C41.81404516 52.29531322 42.43048129 55.82968346 43.10717773 59.37866211 C43.29151367 60.47436523 43.47584961 61.57006836 43.66577148 62.69897461 C44.40166764 65.45192144 44.40166764 65.45192144 46.9284668 66.25073242 C48.28536621 66.74718262 48.28536621 66.74718262 49.66967773 67.25366211 C51.30441058 68.09485628 52.92536112 68.96326709 54.53295898 69.85522461 C55.41918945 70.34506836 56.30541992 70.83491211 57.21850586 71.33959961 C58.58652344 72.10143555 58.58652344 72.10143555 59.98217773 72.87866211 C60.91352539 73.39428711 61.84487305 73.90991211 62.80444336 74.44116211 C65.09431242 75.70939728 67.38265488 76.98030373 69.66967773 78.25366211 C69.66967773 78.91366211 69.66967773 79.57366211 69.66967773 80.25366211 C68.71605347 80.80171509 68.71605347 80.80171509 67.74316406 81.36083984 C54.62810493 88.90237844 41.53494548 96.47978654 28.48217773 104.12866211 C27.60693954 104.64104935 27.60693954 104.64104935 26.71401978 105.16378784 C23.9273922 106.79564725 21.14953643 108.4360723 18.39191532 110.1167078 C15.91072772 111.5932304 13.42416583 112.83732786 10.77822781 113.99017239 C6.65988806 115.89760547 2.78404101 117.88630231 -0.33032227 121.25366211 C-2.51274676 127.22197692 -2.29597738 132.87952702 -2.125 139.16601562 C-2.13063746 140.98015933 -2.1428781 142.79429266 -2.16119385 144.60835266 C-2.19213507 149.51451803 -2.13111651 154.4156794 -2.05316043 159.32116055 C-1.98736093 164.45409717 -2.00668758 169.58670849 -2.01686096 174.71995544 C-2.02323652 184.43160063 -1.95341385 194.14113281 -1.85599047 203.85223097 C-1.74876898 214.91144321 -1.72682719 225.97031504 -1.71193397 237.02997696 C-1.67940416 259.77209001 -1.54015141 282.51254248 -1.33032227 305.25366211 C-5.12490374 304.024103 -8.4669907 302.76939769 -11.88500977 300.70678711 C-12.73466309 300.19881592 -13.58431641 299.69084473 -14.4597168 299.16748047 C-15.3657666 298.61842041 -16.27181641 298.06936035 -17.20532227 297.50366211 C-19.17882661 296.32191404 -21.15280163 295.14095172 -23.12719727 293.96069336 C-24.14749023 293.34919434 -25.1677832 292.73769531 -26.21899414 292.10766602 C-32.16733469 288.56311971 -38.16262645 285.09874525 -44.15405273 281.62768555 C-46.0089115 280.54939432 -47.83936114 279.42815114 -49.64465332 278.26878357 C-52.43933481 276.59362823 -55.14728973 275.66055201 -58.26455688 274.73139954 C-64.53577042 272.50376331 -69.51565881 269.85683172 -73.33032227 264.25366211 C-76.95867228 251.88815601 -75.71918614 238.21688665 -75.35820103 225.47812366 C-75.23262442 220.29767881 -75.22138542 215.11697364 -75.19769287 209.9352417 C-75.13568268 200.13742738 -74.97179761 190.34411015 -74.77070308 180.54827094 C-74.5466533 169.39043902 -74.43706957 158.2323848 -74.33679438 147.07286119 C-74.12809501 124.13064075 -73.77663449 101.19240401 -73.33032227 78.25366211 C-72.76337646 77.97280762 -72.19643066 77.69195312 -71.61230469 77.40258789 C-68.91296347 76.06364512 -66.21540737 74.72113925 -63.51782227 73.37866211 C-62.62772461 72.93780273 -61.73762695 72.49694336 -60.82055664 72.04272461 C-51.23496559 67.26651315 -41.81676826 62.24652842 -32.33032227 57.25366211 C-32.00032227 43.06366211 -31.67032227 28.87366211 -31.33032227 14.25366211 C-26.05032227 11.61366211 -20.77032227 8.97366211 -15.33032227 6.25366211 C-10.1970614 3.31176812 -10.1970614 3.31176812 -5.09985352 0.30834961 C-2.33032227 -0.74633789 -2.33032227 -0.74633789 0 0 Z " fill="#E64E17" transform="translate(109.330322265625,206.746337890625)"/>
<path d="M0 0 C0 15.51 0 31.02 0 47 C2.31 47.33 4.62 47.66 7 48 C13.71693096 49.58475685 18.11564832 53.25854158 23 58 C18.80140483 59.39953172 15.99135489 57.74567611 12.0625 56.1875 C11.34642578 55.91357422 10.63035156 55.63964844 9.89257812 55.35742188 C6.50208448 54.04710135 3.24604124 52.63852857 0 51 C0.03180186 51.98423746 0.03180186 51.98423746 0.06424618 52.9883585 C0.57401995 69.01531707 0.95362229 85.0394288 1.19167995 101.07250309 C1.30989575 108.82678283 1.47073863 116.57562838 1.73510742 124.32641602 C1.96566211 131.0891111 2.11301898 137.84787283 2.16403538 144.61438841 C2.19384085 148.19407964 2.26278835 151.76253091 2.43179131 155.33857918 C3.41232292 176.92410468 3.41232292 176.92410468 -2.19202805 183.61829758 C-7.59573143 188.26829103 -13.58434361 191.48767033 -20.00356865 194.51641655 C-24.87842252 196.93003852 -29.34132027 199.94578022 -33.875 202.9375 C-35.66712998 204.077591 -37.46116699 205.21469454 -39.2578125 206.34765625 C-43.47457147 209.02222271 -47.67403761 211.7222766 -51.8671875 214.43359375 C-53.59654139 215.54940998 -55.32610635 216.66489833 -57.0557251 217.78030396 C-58.72390711 218.858141 -60.38907936 219.94063169 -62.05419922 221.02319336 C-63.06240723 221.67296143 -64.07061523 222.32272949 -65.109375 222.9921875 C-66.45467285 223.86399658 -66.45467285 223.86399658 -67.82714844 224.75341797 C-70 226 -70 226 -72 226 C-72.21020088 202.11320339 -72.36892941 178.22654528 -72.46630955 154.33901024 C-72.51272598 143.24766507 -72.57601168 132.1568944 -72.67895508 121.06591797 C-72.76863363 111.39947303 -72.82671752 101.73344409 -72.84679645 92.06659472 C-72.85853483 86.94734937 -72.88613604 81.82929416 -72.95157051 76.71043015 C-73.01266529 71.89201417 -73.03150426 67.0752782 -73.01796913 62.25651169 C-73.02044505 60.48835111 -73.03834892 58.72013435 -73.07284927 56.95230865 C-73.32063502 43.60055835 -73.32063502 43.60055835 -70.08671379 39.68117142 C-67.7672248 38.10025784 -65.59860918 37.04332856 -63 36 C-61.4812239 35.13618544 -59.97179542 34.25551768 -58.4765625 33.3515625 C-56.86083389 32.44011729 -55.24357141 31.53138728 -53.625 30.625 C-45.04072341 25.77142302 -36.53666979 20.79227492 -28.0625 15.75 C-1.57164045 0 -1.57164045 0 0 0 Z " fill="#00537C" transform="translate(180,286)"/>
<path d="M0 0 C0.65717177 15.74140819 1.14923508 31.47906185 1.45074081 47.23081875 C1.59454197 54.54734293 1.79080309 61.85521878 2.11230469 69.16625977 C4.21074164 117.84924362 4.21074164 117.84924362 -2.59188843 127.2210083 C-8.5048198 133.65362263 -16.41557928 136.54281276 -24.61505127 138.94851685 C-29.09385663 140.33979003 -32.66707451 142.49646128 -36.55078125 145.0625 C-37.70060313 145.74443007 -38.85499955 146.41872148 -40.0144043 147.08422852 C-49.91665356 152.83616796 -59.79151224 158.62364374 -69.54296875 164.62890625 C-72 166 -72 166 -74 166 C-74.18691261 149.91891837 -74.32796882 133.83818923 -74.41449738 117.75628376 C-74.45574294 110.28905736 -74.51196894 102.82250599 -74.60351562 95.35571289 C-74.68327385 88.84731367 -74.73486991 82.33940326 -74.75270796 75.83052891 C-74.76313541 72.38405193 -74.78762049 68.93897325 -74.84584045 65.49294472 C-74.91031993 61.64517722 -74.91191803 57.79877537 -74.90820312 53.95043945 C-74.93696533 52.80892426 -74.96572754 51.66740906 -74.99536133 50.49130249 C-74.91630756 42.94177667 -74.91630756 42.94177667 -72.2662878 40.21809864 C-70.22127523 38.92068251 -68.22843261 37.93902655 -66 37 C-64.98301025 36.40131104 -63.96602051 35.80262207 -62.91821289 35.18579102 C-61.46016235 34.35325806 -61.46016235 34.35325806 -59.97265625 33.50390625 C-58.30783203 32.55245728 -58.30783203 32.55245728 -56.609375 31.58178711 C-55.42713467 30.90860124 -54.24484177 30.23550769 -53.0625 29.5625 C-51.82680513 28.85753443 -50.59112833 28.15253718 -49.35546875 27.44750977 C-40.10611792 22.17552783 -30.8269683 16.95778759 -21.52368164 11.78149414 C-15.4047499 8.37166798 -9.34481408 4.87596593 -3.31835938 1.30493164 C-1 0 -1 0 0 0 Z " fill="#00537C" transform="translate(472,346)"/>
<path d="M0 0 C0.67353516 0.25168945 1.34707031 0.50337891 2.04101562 0.76269531 C25.66518251 9.54727816 45.10302104 13.54706947 71 17 C71 51.32 71 85.64 71 121 C47.63563312 121 47.63563312 121 39.0625 119.8125 C38.0636377 119.6794043 37.06477539 119.54630859 36.03564453 119.40917969 C18.14640524 116.87904523 1.09855475 111.71107077 -16 106 C-16.62132565 62.63465613 -16.62132565 62.63465613 -13 44 C-12.72935641 42.43639004 -12.45982614 40.87258698 -12.19140625 39.30859375 C-6.15809045 6.15809045 -6.15809045 6.15809045 0 0 Z " fill="#39BDBD" transform="translate(175,124)"/>
<path d="M0 0 C0 56.76 0 113.52 0 172 C-3.71245612 170.51501755 -6.67376623 169.11805419 -10.04296875 167.0859375 C-11.02144775 166.49772217 -11.99992676 165.90950684 -13.00805664 165.3034668 C-14.05727295 164.66707275 -15.10648926 164.03067871 -16.1875 163.375 C-17.83190063 162.38270386 -17.83190063 162.38270386 -19.50952148 161.37036133 C-45.91793065 145.41700853 -45.91793065 145.41700853 -52.65185547 140.93896484 C-55.34938683 139.37678065 -57.36863215 138.50772396 -60.27392578 137.59619141 C-65.33944746 135.73956012 -69.16938776 133.74343586 -72 129 C-74.8944877 117.86248708 -74.09848508 105.9972194 -73.7980957 94.59265137 C-73.73410425 91.14312214 -73.77382336 87.69803172 -73.81457138 84.24839783 C-73.8425521 80.90491909 -73.81108629 77.56400619 -73.76154327 74.22085571 C-73.74362777 72.63271978 -73.74201338 71.04430471 -73.75780487 69.45614624 C-73.82624607 56.51977164 -73.82624607 56.51977164 -69.35871887 51.84762573 C-66.45156409 49.24309167 -63.2827608 47.10864329 -60 45 C-58.60926099 43.95224277 -57.22501847 42.89561886 -55.85546875 41.8203125 C-54.63486269 40.9190916 -53.41221406 40.02063034 -52.1875 39.125 C-46.76103009 35.10908438 -41.43702425 30.99452505 -36.1875 26.75 C-30.26120903 21.96506309 -24.2067143 17.41755743 -18 13 C-10.53845661 7.69395745 -10.53845661 7.69395745 -3.375 2 C-1 0 -1 0 0 0 Z " fill="#E64E17" transform="translate(252,338)"/>
<path d="M0 0 C11.9196926 28.36210545 15.24231555 58.01278258 15.0625 88.5 C15.05746416 90.01692557 15.05290501 91.5338528 15.04882812 93.05078125 C15.03801236 96.7005564 15.02086846 100.35026679 15 104 C-13.2182563 115.41039099 -41.58278457 119 -72 119 C-72 84.68 -72 50.36 -72 15 C-62.1 14.01 -52.2 13.02 -42 12 C-29.31680184 9.69396397 -12.41073674 0 0 0 Z " fill="#00537D" transform="translate(330,126)"/>
<path d="M0 0 C0.20753906 0.87140625 0.41507813 1.7428125 0.62890625 2.640625 C6.15243913 23.99520399 19.33669801 36.89074574 37 49 C36.82122314 49.59216309 36.64244629 50.18432617 36.45825195 50.79443359 C35.9630982 52.43770755 35.47109416 54.08193086 34.98046875 55.7265625 C34.28244691 58.05700992 33.57578989 60.38487836 32.86328125 62.7109375 C23.57945081 93.24897212 20.58116655 123.2092262 20 155 C-5.35333201 142.99842272 -27.86849747 126.07395233 -39.06640625 99.6484375 C-43.15936134 88.03746031 -41.83283118 77.66044633 -38.4375 66.0625 C-38.17501465 65.16007568 -37.9125293 64.25765137 -37.64208984 63.32788086 C-33.84522818 50.70656618 -16.11241242 0 0 0 Z " fill="#39BDBD" transform="translate(126,69)"/>
<path d="M0 0 C20.2686352 19.55495086 31.4214 48.26538639 37.5 75.25 C37.67281494 76.00007324 37.84562988 76.75014648 38.02368164 77.52294922 C40.63699626 90.32432035 35.59036402 101.66078042 28.85546875 112.4296875 C16.11127345 130.08375173 -2.12188595 143.41174472 -22 152 C-22.66 152 -23.32 152 -24 152 C-24.0093457 151.15743652 -24.01869141 150.31487305 -24.02832031 149.44677734 C-24.47687677 116.92643406 -26.82510489 84.07221916 -39.21484375 53.609375 C-40.07276522 50.75817329 -40.36268029 49.64227032 -39 47 C-36.69921875 45.24609375 -36.69921875 45.24609375 -33.6875 43.4375 C-17.34586289 32.94465334 -5.60144465 18.84122291 0 0 Z " fill="#00537D" transform="translate(382,72)"/>
<path d="M0 0 C0.55931116 9.53460659 0.9839423 19.06348921 1.24349213 28.61098671 C1.36817789 33.04672424 1.53659329 37.47116579 1.81054688 41.90039062 C3.52520865 70.36711314 3.52520865 70.36711314 -2.21255493 77.90777588 C-7.83236257 82.69374002 -14.18316485 85.43413966 -21.07891846 87.91558838 C-24.85818054 89.3185878 -28.05867196 91.15291942 -31.51171875 93.2265625 C-33.56890376 94.36193126 -35.62745517 95.49482848 -37.6875 96.625 C-47.09641425 101.81246586 -56.45390505 107.07669245 -65.73120117 112.49658203 C-66.53275635 112.9604834 -67.33431152 113.42438477 -68.16015625 113.90234375 C-68.85761963 114.30960693 -69.55508301 114.71687012 -70.27368164 115.13647461 C-72 116 -72 116 -74 116 C-74.39526705 106.52550632 -74.69657977 97.05387657 -74.88080692 87.57291603 C-74.96927347 83.16916971 -75.08900118 78.77108871 -75.2824707 74.37060547 C-76.49411769 46.06943637 -76.49411769 46.06943637 -72.47091675 39.50512695 C-68.63640364 35.78298749 -64.24204407 34.10093152 -59.165802 32.6630249 C-56.06598868 31.71406769 -53.47460654 30.13166061 -50.71484375 28.453125 C-48.78979844 27.38409035 -46.86401312 26.31638722 -44.9375 25.25 C-34.22876201 19.28964807 -23.62450344 13.16374813 -13.0546875 6.9609375 C-1.18014706 0 -1.18014706 0 0 0 Z " fill="#00527C" transform="translate(326,394)"/>
<path d="M0 0 C-0.42450346 7.91593653 -2.20037991 15.07811807 -4.5625 22.625 C-5.09605103 24.33925171 -5.09605103 24.33925171 -5.64038086 26.08813477 C-8.58873509 35.2679281 -12.17813359 43.66422284 -17 52 C-17.86238281 53.49660156 -17.86238281 53.49660156 -18.7421875 55.0234375 C-22.32123014 60.9115399 -26.42339378 66.25852853 -30.91015625 71.484375 C-32.9829063 73.85658359 -32.9829063 73.85658359 -34.30859375 76.140625 C-36.61292799 79.73689745 -38.38334776 80.82294144 -42.55078125 82.01953125 C-47.00285125 82.92444061 -51.49157558 83.46391424 -56 84 C-57.48991058 84.20334568 -58.97950345 84.40903443 -60.46875 84.6171875 C-68.776131 85.72232731 -76.52218117 86 -85 86 C-85 62.24 -85 38.48 -85 14 C-71.635 13.01 -71.635 13.01 -58 12 C-53.37551343 11.48616816 -48.83563111 10.96157001 -44.25 10.25 C-43.15856689 10.08516113 -42.06713379 9.92032227 -40.94262695 9.75048828 C-28.58610862 7.77580425 -16.35464902 4.8065673 -4.48828125 0.8203125 C-2 0 -2 0 0 0 Z " fill="#00537D" transform="translate(343,244)"/>
<path d="M0 0 C5.73683345 1.22722435 11.39401129 2.61865318 17.0546875 4.15722656 C27.30319372 6.93112781 37.4698814 9.22004482 47.98144531 10.71191406 C49.90418506 10.9863254 51.82334349 11.2854922 53.7421875 11.5859375 C64.24159305 13.14391381 74.25475517 13.46273776 85 14 C85 37.76 85 61.52 85 86 C39.76277429 82.76876959 39.76277429 82.76876959 34 76.6875 C32.61594992 74.82836924 31.28679789 72.92772223 30 71 C29.09913551 69.76298704 28.19256899 68.5301126 27.28125 67.30078125 C18.99573711 56.03369539 18.99573711 56.03369539 18.9375 48.6875 C18.84528021 44.08824409 18.84528021 44.08824409 16.3671875 40.55859375 C15.68914062 40.25050781 15.01109375 39.94242187 14.3125 39.625 C9.27846112 37.20253764 7.94685051 33.601666 6.0222168 28.51342773 C2.99514878 19.76283214 0 9.31152786 0 0 Z " fill="#39BDBD" transform="translate(161,244)"/>
<path d="M0 0 C2.79324156 1.31168682 5.46941794 2.73567129 8.15405273 4.25756836 C9.17112305 4.83313477 10.18819336 5.40870117 11.23608398 6.00170898 C12.28666992 6.60047852 13.33725586 7.19924805 14.41967773 7.81616211 C16.01875977 8.72011719 16.01875977 8.72011719 17.65014648 9.64233398 C25.53067507 14.11465944 25.53067507 14.11465944 26.66967773 15.25366211 C26.65807617 16.02194336 26.64647461 16.79022461 26.63452148 17.58178711 C26.60515821 20.71946282 26.72895972 23.25127705 27.66967773 26.25366211 C29.83996902 27.49059313 29.83996902 27.49059313 32.48217773 28.19116211 C35.22436523 29.24975586 35.22436523 29.24975586 37.66967773 31.25366211 C39.96868857 36.74175701 40.48827045 42.90259787 41.29614258 48.75561523 C41.81552193 52.22900706 42.5962424 55.58960144 43.41967773 59.00366211 C43.66202148 60.02975586 43.90436523 61.05584961 44.15405273 62.11303711 C44.32420898 62.81944336 44.49436523 63.52584961 44.66967773 64.25366211 C40.52934927 62.70981082 36.7341472 60.74337273 32.85717773 58.62866211 C32.25969727 58.30381836 31.6622168 57.97897461 31.04663086 57.64428711 C29.58630638 56.84987059 28.12780282 56.05210835 26.66967773 55.25366211 C26.73775635 55.81762695 26.80583496 56.3815918 26.87597656 56.96264648 C27.5146886 63.03756295 28.10967379 69.2602336 26.66967773 75.25366211 C23.51040497 78.97287102 20.0637406 80.58360361 15.58227539 82.40307617 C13.55816129 83.30325661 11.76720099 84.36805985 9.90014648 85.55834961 C9.28671387 85.94539063 8.67328125 86.33243164 8.04125977 86.73120117 C7.4442627 87.10986328 6.84726563 87.48852539 6.23217773 87.87866211 C2.86108398 89.98022461 2.86108398 89.98022461 -0.33032227 91.25366211 C-4.59205868 90.15301917 -8.27971059 88.35036989 -12.13110352 86.24975586 C-13.19006836 85.67418945 -14.2490332 85.09862305 -15.34008789 84.50561523 C-16.42999023 83.9068457 -17.51989258 83.30807617 -18.64282227 82.69116211 C-19.75206055 82.08852539 -20.86129883 81.48588867 -22.00415039 80.86499023 C-30.17981056 76.40417382 -30.17981056 76.40417382 -31.33032227 75.25366211 C-31.42423523 73.35122449 -31.44775885 71.44527752 -31.44384766 69.54052734 C-31.44377213 68.31933701 -31.44369659 67.09814667 -31.44361877 65.83995056 C-31.43851138 64.49738525 -31.43329537 63.15482035 -31.42797852 61.81225586 C-31.42611426 60.44605053 -31.42469039 59.07984454 -31.4236908 57.71363831 C-31.41986621 54.11164516 -31.41003644 50.50969211 -31.39898682 46.90771484 C-31.38877143 43.23462466 -31.3841929 39.56152802 -31.37915039 35.88842773 C-31.36841411 28.67682088 -31.3513384 21.46524711 -31.33032227 14.25366211 C-29.72290161 13.45919678 -29.72290161 13.45919678 -28.08300781 12.64868164 C-26.64846118 11.9363955 -25.2139755 11.22398658 -23.77954102 10.51147461 C-23.0766394 10.1644751 -22.37373779 9.81747559 -21.64953613 9.45996094 C-15.98332943 6.64074135 -10.53201799 3.55788574 -5.09985352 0.30834961 C-2.33032227 -0.74633789 -2.33032227 -0.74633789 0 0 Z " fill="#E64E17" transform="translate(109.330322265625,206.746337890625)"/>
<path d="M0 0 C16.31987047 7.22530186 16.31987047 7.22530186 19.72198486 15.12878418 C21.61788592 23.60339028 21.23746275 32.09601897 20.74871826 40.6975708 C20.62399428 43.51149743 20.63855636 46.31785511 20.6525526 49.13396263 C20.69987554 69.22709568 20.69987554 69.22709568 17.06729126 74.92706299 C13.71549259 78.22778215 9.74732606 79.5615007 5.34301758 80.92529297 C3.10166671 82.18727973 3.10166671 82.18727973 1.22192383 83.52685547 C0.12750977 84.19458984 -0.9669043 84.86232422 -2.09448242 85.55029297 C-3.76317383 86.59056641 -3.76317383 86.59056641 -5.46557617 87.65185547 C-9.51839214 89.26901337 -10.6799415 88.51874924 -14.65698242 86.92529297 C-16.61259613 85.96770972 -18.54613895 84.96401877 -20.45776367 83.92138672 C-21.51672852 83.34582031 -22.57569336 82.77025391 -23.66674805 82.17724609 C-24.75665039 81.57847656 -25.84655273 80.97970703 -26.96948242 80.36279297 C-28.0787207 79.76015625 -29.18795898 79.15751953 -30.33081055 78.53662109 C-38.50647071 74.07580468 -38.50647071 74.07580468 -39.65698242 72.92529297 C-39.75084623 71.05348357 -39.77442046 69.17811237 -39.77050781 67.30395508 C-39.77043228 66.10278549 -39.77035675 64.90161591 -39.77027893 63.66404724 C-39.76511765 62.35678177 -39.75995636 61.0495163 -39.75463867 59.70263672 C-39.75277441 58.35885165 -39.75135054 57.0150659 -39.75035095 55.67127991 C-39.74652644 52.1284702 -39.73669674 48.58570127 -39.72564697 45.04290771 C-39.71543142 41.4301407 -39.71085302 37.81736713 -39.70581055 34.20458984 C-39.6950744 27.11147417 -39.67799878 20.01838623 -39.65698242 12.92529297 C-38.58536865 12.32346191 -37.51375488 11.72163086 -36.40966797 11.1015625 C-34.97516948 10.29542716 -33.54068109 9.48927385 -32.10620117 8.68310547 C-31.40329956 8.28841064 -30.70039795 7.89371582 -29.97619629 7.48706055 C-24.43883458 4.37438965 -18.92700152 1.21991247 -13.42651367 -1.95751953 C-8.67902071 -3.87258721 -4.5829193 -1.82817227 0 0 Z " fill="#E64E17" transform="translate(409.656982421875,271.07470703125)"/>
<path d="M0 0 C14.78621541 6.45630981 28.35378265 13.92617594 41 24 C42.21887517 24.86677784 43.44034044 25.72992233 44.6640625 26.58984375 C53.4736549 33.00950713 53.4736549 33.00950713 54.76953125 37.91015625 C54.60977766 41.1872636 53.98653133 43.87139865 53 47 C52.68675781 48.08796875 52.37351562 49.1759375 52.05078125 50.296875 C46.76506597 66.09838172 34.35405662 77.21216077 20 85 C17.7266512 82.14227941 15.86950657 79.13580636 14.04541016 75.97583008 C-0.735188 50.45014745 -22.21999286 28.11934236 -50 17 C-50 16.34 -50 15.68 -50 15 C-34.19902705 7.12164374 -17.89567529 1.30125346 0 2 C0 1.34 0 0.68 0 0 Z " fill="#00537D" transform="translate(317,24)"/>
<path d="M0 0 C0.86512207 0.10675049 1.73024414 0.21350098 2.62158203 0.32348633 C16.34285154 2.13565839 29.74711467 4.77821101 41.5 12.5 C41.995 13.985 41.995 13.985 42.5 15.5 C41.43523437 16.03367187 40.37046875 16.56734375 39.2734375 17.1171875 C24.30226175 24.74764653 11.47015132 33.70109548 -0.5 45.5 C-1.26699219 46.25410156 -2.03398437 47.00820312 -2.82421875 47.78515625 C-12.47157605 57.88283903 -19.90085513 70.2539965 -26.5 82.5 C-40.36488049 75.7656847 -50.05518786 65.27808768 -55.9375 51.0625 C-58.12093256 44.53094423 -58.73874872 37.48630512 -56.67578125 30.84765625 C-50.61329206 18.74281903 -30.09007774 9.573519 -18.5 3.5 C-17.81325195 3.12649414 -17.12650391 2.75298828 -16.41894531 2.36816406 C-10.63044841 -0.54249313 -6.35929581 -0.89126017 0 0 Z " fill="#3ABDBD" transform="translate(195.5,24.5)"/>
<path d="M0 0 C0.33 0 0.66 0 1 0 C1.21654774 7.41965616 0.71632268 14.34040533 -0.6875 21.625 C-0.86756592 22.57648926 -1.04763184 23.52797852 -1.2331543 24.50830078 C-3.90580308 38.13298706 -7.7222771 51.25032185 -13.90283203 63.72998047 C-14.75708132 65.4974059 -15.5348216 67.30188179 -16.28076172 69.11767578 C-21.13087179 79.7928155 -28.07471014 83.01129571 -38.34619141 87.17382812 C-42.66847325 88.96623079 -46.54913236 90.75634835 -50 94 C-50.95347571 98.11170902 -50.95510622 101.40051893 -50.86230469 105.61621094 C-51 109 -51 109 -52.14550781 110.92285156 C-53.85728503 112.23775548 -55.45364416 113.08974984 -57.4375 113.9375 C-58.42665405 114.44240967 -58.42665405 114.44240967 -59.43579102 114.95751953 C-61.59856891 116.03752257 -63.78995419 117.02076364 -66 118 C-67.57366995 118.73667424 -69.1465776 119.4749789 -70.71875 120.21484375 C-75.10704706 122.24183834 -79.52594186 124.17031989 -84 126 C-85.09272217 126.45874512 -85.09272217 126.45874512 -86.20751953 126.92675781 C-91.645956 129.11801467 -91.645956 129.11801467 -95 128 C-94.39414062 127.16082031 -93.78828125 126.32164062 -93.1640625 125.45703125 C-81.35295436 108.67545475 -70.58960628 88.31573452 -68.1953125 67.671875 C-66.14457609 51.27079481 -66.14457609 51.27079481 -62.16650391 47.05859375 C-57.64352765 43.82224759 -52.61512292 41.86452668 -47.42431641 39.94775391 C-43.83252596 38.54359172 -40.59621442 36.69522389 -37.3125 34.6875 C-36.71622803 34.32769043 -36.11995605 33.96788086 -35.50561523 33.59716797 C-22.69158091 25.63743201 -10.1877811 15.31458538 -1.796875 2.68359375 C-1.20390625 1.79800781 -0.6109375 0.91242188 0 0 Z " fill="#00537D" transform="translate(421,190)"/>
<path d="M0 0 C15.07132209 7.24035938 29.6848504 15.36240054 44 24 C41.497912 26.80545161 38.71982473 28.45460454 35.4609375 30.30078125 C34.33534424 30.94128418 33.20975098 31.58178711 32.05004883 32.24169922 C30.82509701 32.93208052 29.6000791 33.62234458 28.375 34.3125 C27.11266263 35.02843542 25.85053959 35.74474887 24.58862305 36.46142578 C15.32119208 41.7178109 6.02803271 46.92980504 -3.29052734 52.0949707 C-7.97186786 54.6984504 -12.60766966 57.34033467 -17.16015625 60.1640625 C-18.3344519 60.88650146 -18.3344519 60.88650146 -19.5324707 61.62353516 C-20.96173071 62.51070546 -22.38176181 63.41300814 -23.78979492 64.33349609 C-25.671875 65.5 -25.671875 65.5 -29 67 C-32.68588505 65.87919468 -35.9032667 64.01045684 -39.2265625 62.0859375 C-40.24516357 61.4976416 -41.26376465 60.9093457 -42.31323242 60.30322266 C-43.40611572 59.66690918 -44.49899902 59.0305957 -45.625 58.375 C-46.76493408 57.71419434 -47.90486816 57.05338867 -49.0793457 56.37255859 C-66.81511456 46.07838708 -84.43918389 35.58943685 -102 25 C-99.67614565 22.41521338 -97.32792432 20.96782672 -94.23828125 19.3984375 C-93.29106201 18.91213867 -92.34384277 18.42583984 -91.36791992 17.92480469 C-90.35963135 17.41336914 -89.35134277 16.90193359 -88.3125 16.375 C-80.33703165 12.28309108 -72.44464797 8.10380192 -64.69848633 3.59130859 C-60.20337154 1 -60.20337154 1 -58 1 C-58.11633789 1.58789307 -58.23267578 2.17578613 -58.35253906 2.78149414 C-59.49189419 9.6869828 -60.13743681 16.56017061 -57 23 C-52.86081212 26.88234979 -48.30263571 29.47156472 -43.25 32 C-42.60341431 32.32831818 -41.95682861 32.65663635 -41.29064941 32.99490356 C-34.14310025 37.00319106 -34.14310025 37.00319106 -26.43164062 37.28393555 C-25.62919922 36.86023682 -24.82675781 36.43653809 -24 36 C-22.68177246 35.47756714 -22.68177246 35.47756714 -21.33691406 34.94458008 C-10.28813198 30.34522496 -10.28813198 30.34522496 -1 23 C1.96207034 15.72077729 1.09409837 7.62935617 0 0 Z " fill="#FE9B1A" transform="translate(428,321)"/>
<path d="M0 0 C2.97 1.98 2.97 1.98 6 4 C9.17236844 4.25583616 11.851454 4.22828035 15 4 C16.37881556 3.91901381 17.75773155 3.83972772 19.13671875 3.76171875 C23.09295216 3.53180702 27.04642453 3.27165672 31 3 C28.72402354 5.49552403 26.39278822 7.06622986 23.4375 8.6875 C22.65246094 9.12449219 21.86742187 9.56148438 21.05859375 10.01171875 C19 11 19 11 17 11 C17 11.66 17 12.32 17 13 C17.68835938 13.22171875 18.37671875 13.4434375 19.0859375 13.671875 C22.73788768 15.3363027 25.57135771 17.69832631 28.625 20.25 C34.49902514 25.05735993 40.49523024 29.64854613 46.625 34.125 C53.29788472 39.00157068 59.90332318 43.94586348 66.43359375 49.01171875 C68.60740082 50.69584021 70.79456421 52.3576542 73 54 C72.8137207 55.80566406 72.8137207 55.80566406 72 58 C69.85229492 59.57714844 69.85229492 59.57714844 66.98046875 61.109375 C65.90901611 61.69122559 64.83756348 62.27307617 63.73364258 62.87255859 C63.1567569 63.1779657 62.57987122 63.4833728 61.98550415 63.79803467 C59.53772477 65.09402785 57.1057438 66.41845302 54.67247009 67.74142456 C53.39549134 68.43538769 52.11769485 69.12784797 50.83912659 69.81887817 C44.53521997 73.23083599 38.31120098 76.77651892 32.097229 80.34899902 C29.18141176 82.02523745 26.26232237 83.69575107 23.34375 85.3671875 C21.72146484 86.2967627 21.72146484 86.2967627 20.06640625 87.24511719 C15.82135505 89.67453024 11.57081693 92.09392001 7.3125 94.5 C6.66514893 94.86786621 6.01779785 95.23573242 5.35083008 95.61474609 C1.11745051 98 1.11745051 98 0 98 C0 65.66 0 33.32 0 0 Z " fill="#85273D" transform="translate(252,338)"/>
<path d="M0 0 C3.74662375 1.42095631 7.22717941 3.11200315 10.75390625 5.01171875 C11.85669922 5.60533203 12.95949219 6.19894531 14.09570312 6.81054688 C15.81176758 7.73963867 15.81176758 7.73963867 17.5625 8.6875 C18.67947266 9.28755859 19.79644531 9.88761719 20.94726562 10.50585938 C24.30814465 12.31975988 27.65749012 14.15247703 31 16 C31.58046082 16.32067444 32.16092163 16.64134888 32.75897217 16.97174072 C34.45779109 17.91588327 36.14897154 18.87372961 37.83984375 19.83203125 C38.83234131 20.39253174 39.82483887 20.95303223 40.84741211 21.53051758 C41.55776611 22.01544678 42.26812012 22.50037598 43 23 C43 23.66 43 24.32 43 25 C42.04637573 25.54805298 42.04637573 25.54805298 41.07348633 26.10717773 C28.58353426 33.28926167 16.10986677 40.4980907 3.67904663 47.78210449 C1.82131318 48.86983973 -0.03787251 49.95506017 -1.8972168 51.04003906 C-6.9718362 54.00666595 -12.0306982 56.98480994 -16.98828125 60.14453125 C-18.03495972 60.80509521 -18.03495972 60.80509521 -19.1027832 61.47900391 C-20.82864186 62.57834766 -22.54017906 63.70009369 -24.25 64.82421875 C-27 66 -27 66 -29.34521484 65.25561523 C-32.05348222 63.97470489 -34.63393396 62.5873277 -37.2265625 61.0859375 C-38.24516357 60.4976416 -39.26376465 59.9093457 -40.31323242 59.30322266 C-41.40611572 58.66690918 -42.49899902 58.0305957 -43.625 57.375 C-44.76493408 56.71419434 -45.90486816 56.05338867 -47.0793457 55.37255859 C-64.81511456 45.07838708 -82.43918389 34.58943685 -100 24 C-96.20575805 20.8501939 -91.91963678 18.7760537 -87.55078125 16.55078125 C-86.73755905 16.13330124 -85.92433685 15.71582123 -85.08647156 15.28569031 C-83.37358308 14.40734687 -81.65976069 13.5308226 -79.94506836 12.65600586 C-77.30938983 11.31091275 -74.67695586 9.95963026 -72.04492188 8.60742188 C-70.38039543 7.75484296 -68.71568817 6.90261695 -67.05078125 6.05078125 C-66.25916092 5.64459061 -65.46754059 5.23839996 -64.65193176 4.81990051 C-59.11589339 2 -59.11589339 2 -58 2 C-58.37898438 3.68802734 -58.37898438 3.68802734 -58.765625 5.41015625 C-59.48132601 10.70263784 -59.68826589 15.23469302 -57 20 C-52.79441147 23.65114674 -48.1943631 26.22663123 -43.25 28.75 C-42.60341431 29.08540802 -41.95682861 29.42081604 -41.29064941 29.76638794 C-34.16020184 33.90819538 -34.16020184 33.90819538 -26.43164062 34.29931641 C-25.62919922 33.87054199 -24.82675781 33.44176758 -24 33 C-22.68177246 32.45400146 -22.68177246 32.45400146 -21.33691406 31.89697266 C-8.66520734 26.93011934 -8.66520734 26.93011934 0.16552734 17.43017578 C1.37856591 11.54950741 0.88773119 5.89665155 0 0 Z " fill="#FD9B1A" transform="translate(136,262)"/>
<path d="M0 0 C0 32.34 0 64.68 0 98 C-8.04793685 93.61021626 -16.04350303 89.17318036 -24 84.625 C-24.59395569 84.28561401 -25.18791138 83.94622803 -25.79986572 83.59655762 C-35.20133621 78.22045181 -44.55572841 72.76729477 -53.875 67.25 C-55.00292969 66.58307129 -56.13085938 65.91614258 -57.29296875 65.22900391 C-62.27934592 62.26624958 -67.22496288 59.29427648 -72 56 C-68.1326567 51.98476594 -64.02489426 48.435296 -59.6875 44.9375 C-58.63961304 44.08877319 -58.63961304 44.08877319 -57.57055664 43.22290039 C-52.12386016 38.84004518 -46.56564948 34.6241113 -40.94775391 30.46411133 C-36.22830908 26.95845343 -31.62900932 23.32709326 -27.0625 19.625 C-22.55664611 15.97572168 -18.03437983 12.56115784 -13.13671875 9.4453125 C-9.57170139 7.0338748 -6.28802634 4.27439208 -2.96875 1.5390625 C-1 0 -1 0 0 0 Z " fill="#FE9C1A" transform="translate(252,338)"/>
<path d="M0 0 C13.05130034 3.9153901 22.73514238 10.20872716 33 19 C33.82113281 19.68707031 34.64226562 20.37414062 35.48828125 21.08203125 C46.45818545 30.55061108 54.56227411 41.68578846 62 54 C62.37801758 54.61665527 62.75603516 55.23331055 63.14550781 55.86865234 C66 60.64660612 66 60.64660612 66 64 C51.90489231 69.36621723 38.15480508 73.47936633 23.21484375 75.67138672 C21.38725403 75.94254366 19.5671263 76.26349721 17.75 76.59765625 C11.86558583 77.22900485 5.91818648 77 0 77 C0 51.59 0 26.18 0 0 Z " fill="#00537D" transform="translate(258,51)"/>
<path d="M0 0 C0 25.41 0 50.82 0 77 C-9.86942474 77 -18.47014746 75.96252128 -28 74 C-28.70995117 73.85546387 -29.41990234 73.71092773 -30.15136719 73.56201172 C-38.37974924 71.85234099 -46.37131743 69.69589915 -54.3125 66.9375 C-55.0240625 66.69217529 -55.735625 66.44685059 -56.46875 66.1940918 C-60.08012555 64.89003247 -63.0869106 63.52367899 -66 61 C-60.3653121 50.96578543 -54.68322085 41.63512431 -47 33 C-46.28199219 32.15050781 -45.56398437 31.30101563 -44.82421875 30.42578125 C-35.75362541 19.90518187 -15.12324431 0 0 0 Z " fill="#3ABDBD" transform="translate(246,51)"/>
<path d="M0 0 C-0.04382813 0.66386719 -0.08765625 1.32773438 -0.1328125 2.01171875 C-0.12425492 4.94268856 0.02557352 7.22528782 1 10 C3.18272144 11.16541765 3.18272144 11.16541765 5.8125 11.875 C8.5546875 12.9609375 8.5546875 12.9609375 11 15 C13.29507678 20.49110206 13.81838552 26.64743462 14.62646484 32.50195312 C15.14584419 35.97534495 15.92656466 39.33593933 16.75 42.75 C16.99234375 43.77609375 17.2346875 44.8021875 17.484375 45.859375 C17.65453125 46.56578125 17.8246875 47.2721875 18 48 C13.85967154 46.45614871 10.06446947 44.48971062 6.1875 42.375 C5.59001953 42.05015625 4.99253906 41.7253125 4.37695312 41.390625 C2.91662865 40.59620849 1.45812509 39.79844624 0 39 C0.06807861 39.56396484 0.13615723 40.12792969 0.20629883 40.70898438 C0.84501087 46.78390084 1.43999605 53.00657149 0 59 C-3.14917404 62.70732034 -6.59783079 64.33969834 -11.06542969 66.15820312 C-14.46107295 67.63576218 -17.57459598 69.60549367 -20.75 71.5 C-26.8020165 75 -26.8020165 75 -28 75 C-28.39578446 67.35196809 -28.69683913 59.70500566 -28.88080692 52.04903603 C-28.96917993 48.4920412 -29.08864631 44.94209372 -29.2824707 41.38916016 C-30.50224385 18.44552765 -30.50224385 18.44552765 -26.36416626 12.74749756 C-22.39793503 9.2684936 -17.99366851 7.326521 -13.01753235 5.69747925 C-10.31572993 4.76344162 -7.98274744 3.3810576 -5.5625 1.875 C-2.25862069 0 -2.25862069 0 0 0 Z " fill="#00537C" transform="translate(136,223)"/>
<path d="M0 0 C0.3022237 7.68353533 0.53268413 15.36645057 0.67355824 23.05458832 C0.74120953 26.62577745 0.83278024 30.19288197 0.98071289 33.76171875 C1.90909883 56.75549889 1.90909883 56.75549889 -1.1930542 62.02758789 C-4.52409725 65.40227145 -8.55484389 66.68329994 -13 68 C-14.4592341 68.79624702 -15.89820018 69.63287245 -17.296875 70.53125 C-19.00617188 71.50578125 -19.00617188 71.50578125 -20.75 72.5 C-21.35070312 72.84546875 -21.95140625 73.1909375 -22.5703125 73.546875 C-26.87301587 76 -26.87301587 76 -28 76 C-28.39578446 68.35196809 -28.69683913 60.70500566 -28.88080692 53.04903603 C-28.96917993 49.4920412 -29.08864631 45.94209372 -29.2824707 42.38916016 C-30.50181532 19.45174108 -30.50181532 19.45174108 -26.37322998 13.7555542 C-22.41517915 10.28397172 -18.02222251 8.3735554 -13.06271362 6.73764038 C-10.11599963 5.68387547 -7.61071457 4.0797659 -5 2.375 C-1.1160221 0 -1.1160221 0 0 0 Z " fill="#01537C" transform="translate(428,284)"/>
<path d="M0 0 C1.94934606 0.98403415 3.86053235 2.04555663 5.73828125 3.16015625 C6.80498047 3.78857422 7.87167969 4.41699219 8.97070312 5.06445312 C10.07349609 5.72380859 11.17628906 6.38316406 12.3125 7.0625 C13.43462891 7.72572266 14.55675781 8.38894531 15.71289062 9.07226562 C18.4791287 10.70846602 21.2412485 12.35121864 24 14 C19.53822408 18.77926595 14.25128083 21.64198788 8.625 24.875 C7.59632813 25.49375 6.56765625 26.1125 5.5078125 26.75 C4.5075 27.32492187 3.5071875 27.89984375 2.4765625 28.4921875 C1.116521 29.28665283 1.116521 29.28665283 -0.27099609 30.09716797 C-4.46480339 31.48459858 -7.1230485 29.87380963 -10.96289062 28.08618164 C-11.52169922 27.78059326 -12.08050781 27.47500488 -12.65625 27.16015625 C-13.28660156 26.81919922 -13.91695313 26.47824219 -14.56640625 26.12695312 C-15.20449219 25.77568359 -15.84257812 25.42441406 -16.5 25.0625 C-17.78084921 24.36514876 -19.06209447 23.66852444 -20.34375 22.97265625 C-20.95476562 22.64023926 -21.56578125 22.30782227 -22.1953125 21.96533203 C-24.76963589 20.58831977 -27.38091008 19.28933593 -30 18 C-30 17.34 -30 16.68 -30 16 C-31.32 15.67 -32.64 15.34 -34 15 C-30.14045037 12.81506882 -26.27752206 10.63675312 -22.40625 8.47265625 C-19.66389459 6.93963658 -16.93534641 5.38674471 -14.21875 3.80859375 C-13.0946875 3.17050781 -11.970625 2.53242188 -10.8125 1.875 C-9.80832031 1.29492188 -8.80414063 0.71484375 -7.76953125 0.1171875 C-4.46488973 -1.21585548 -3.38084377 -0.96599927 0 0 Z " fill="#FC9B1A" transform="translate(404,269)"/>
<path d="M0 0 C4.9508879 2.32082774 9.66284518 5.06079023 14.41967773 7.75146484 C16.01875977 8.64285156 16.01875977 8.64285156 17.65014648 9.55224609 C18.66206055 10.12330078 19.67397461 10.69435547 20.71655273 11.28271484 C22.10632324 12.06485352 22.10632324 12.06485352 23.52416992 12.86279297 C25.66967773 14.25146484 25.66967773 14.25146484 26.66967773 16.25146484 C26.0294165 16.59927002 25.38915527 16.9470752 24.72949219 17.30541992 C21.81311168 18.89048395 18.89763753 20.477208 15.98217773 22.06396484 C14.47107422 22.88477539 14.47107422 22.88477539 12.92944336 23.72216797 C11.46474609 24.51977539 11.46474609 24.51977539 9.97045898 25.33349609 C9.07496338 25.82052002 8.17946777 26.30754395 7.25683594 26.80932617 C4.62508459 28.22783888 4.62508459 28.22783888 2.08837891 29.99633789 C-0.33032227 31.25146484 -0.33032227 31.25146484 -2.31274414 31.1003418 C-6.95313938 29.1479393 -11.37053416 26.7678431 -15.83032227 24.43896484 C-16.87575195 23.90464844 -17.92118164 23.37033203 -18.99829102 22.81982422 C-20.00504883 22.29582031 -21.01180664 21.77181641 -22.04907227 21.23193359 C-22.96624023 20.75651123 -23.8834082 20.28108887 -24.82836914 19.79125977 C-27.40360254 18.20636544 -29.28840178 16.46921737 -31.33032227 14.25146484 C-30.32614258 13.75517578 -29.32196289 13.25888672 -28.28735352 12.74755859 C-26.90579906 12.06144935 -25.52429212 11.37524442 -24.14282227 10.68896484 C-23.42118896 10.3327002 -22.69955566 9.97643555 -21.95605469 9.609375 C-18.43169924 7.85630765 -14.95329957 6.06892462 -11.54907227 4.09130859 C-9.86297852 3.11871094 -9.86297852 3.11871094 -8.14282227 2.12646484 C-7.13864258 1.52576172 -6.13446289 0.92505859 -5.09985352 0.30615234 C-2.33032227 -0.74853516 -2.33032227 -0.74853516 0 0 Z " fill="#FC9C1C" transform="translate(109.330322265625,206.74853515625)"/>
<path d="M0 0 C10 4 10 4 11.53515625 6.80859375 C11.76525391 8.38833984 11.76525391 8.38833984 12 10 C12.24621094 11.12535156 12.49242187 12.25070313 12.74609375 13.41015625 C12.97425781 14.61542969 13.20242187 15.82070312 13.4375 17.0625 C14.7909417 24.08265543 16.34604357 31.04399883 18 38 C11.67411157 35.64119414 5.91640723 32.22713122 0 29 C0 19.43 0 9.86 0 0 Z " fill="#3DBEBC" transform="translate(136,233)"/>
<path d="M0 0 C7.51756815 -0.29289227 14.58844594 0.21608186 22 1.375 C22.8247583 1.50108643 23.6495166 1.62717285 24.49926758 1.75708008 C28.39165808 2.39827851 31.5044422 3.10036811 35 5 C33.80117188 5.23783203 33.80117188 5.23783203 32.578125 5.48046875 C20.83405847 7.97539368 10.63127947 12.52801792 0 18 C0 12.06 0 6.12 0 0 Z " fill="#01557E" transform="translate(258,12)"/>
<path d="M0 0 C0.53496094 0.67933594 1.06992188 1.35867187 1.62109375 2.05859375 C4.88048539 6.08867898 8.27515809 9.99649821 11.66601562 13.91601562 C12.17970703 14.51220703 12.69339844 15.10839844 13.22265625 15.72265625 C13.68422119 16.25640869 14.14578613 16.79016113 14.62133789 17.34008789 C16.1453737 19.17503024 17.56881466 21.09175288 19 23 C11.08 26.96 11.08 26.96 3 31 C0.90923461 20.37194263 -0.46416112 10.84761719 0 0 Z " fill="#3BBDBB" transform="translate(82,187)"/>
<path d="M0 0 C0 5.28 0 10.56 0 16 C-1.27875 15.38511719 -2.5575 14.77023438 -3.875 14.13671875 C-5.58324983 13.32013779 -7.29158787 12.50374135 -9 11.6875 C-9.83917969 11.28337891 -10.67835938 10.87925781 -11.54296875 10.46289062 C-16.62233025 8.04133456 -21.70112203 5.89508483 -27 4 C-26.67 3.34 -26.34 2.68 -26 2 C-17.4501998 -0.1777793 -8.76081081 -0.19254529 0 0 Z " fill="#3DBEBD" transform="translate(246,12)"/>
<path d="M0 0 C1.77178053 0.956581 3.54239076 1.91532988 5.3125 2.875 C6.79169922 3.67550781 6.79169922 3.67550781 8.30078125 4.4921875 C11 6 11 6 14 8 C14.22107787 10.7885289 14.28107535 13.34653181 14.1875 16.125 C14.17396484 16.87910156 14.16042969 17.63320313 14.14648438 18.41015625 C14.11109985 20.27374127 14.05729167 22.13695978 14 24 C12.22821947 23.043419 10.45760924 22.08467012 8.6875 21.125 C7.70136719 20.59132813 6.71523437 20.05765625 5.69921875 19.5078125 C3 18 3 18 0 16 C-0.22107787 13.2114711 -0.28107535 10.65346819 -0.1875 7.875 C-0.17396484 7.12089844 -0.16042969 6.36679687 -0.14648438 5.58984375 C-0.11109985 3.72625873 -0.05729167 1.86304022 0 0 Z " fill="#EBFBD3" transform="translate(222,434)"/>
<path d="M0 0 C1.77178053 0.956581 3.54239076 1.91532988 5.3125 2.875 C6.79169922 3.67550781 6.79169922 3.67550781 8.30078125 4.4921875 C11 6 11 6 14 8 C14.22107787 10.7885289 14.28107535 13.34653181 14.1875 16.125 C14.17396484 16.87910156 14.16042969 17.63320313 14.14648438 18.41015625 C14.11109985 20.27374127 14.05729167 22.13695978 14 24 C12.22821947 23.043419 10.45760924 22.08467012 8.6875 21.125 C7.70136719 20.59132813 6.71523437 20.05765625 5.69921875 19.5078125 C3 18 3 18 0 16 C-0.22107787 13.2114711 -0.28107535 10.65346819 -0.1875 7.875 C-0.17396484 7.12089844 -0.16042969 6.36679687 -0.14648438 5.58984375 C-0.11109985 3.72625873 -0.05729167 1.86304022 0 0 Z " fill="#EBFBD3" transform="translate(198,420)"/>
<path d="M0 0 C1.77178053 0.956581 3.54239076 1.91532988 5.3125 2.875 C6.79169922 3.67550781 6.79169922 3.67550781 8.30078125 4.4921875 C11 6 11 6 14 8 C14.22107787 10.7885289 14.28107535 13.34653181 14.1875 16.125 C14.17396484 16.87910156 14.16042969 17.63320313 14.14648438 18.41015625 C14.11109985 20.27374127 14.05729167 22.13695978 14 24 C12.22821947 23.043419 10.45760924 22.08467012 8.6875 21.125 C7.70136719 20.59132813 6.71523438 20.05765625 5.69921875 19.5078125 C3 18 3 18 0 16 C-0.22107787 13.2114711 -0.28107535 10.65346819 -0.1875 7.875 C-0.17396484 7.12089844 -0.16042969 6.36679687 -0.14648438 5.58984375 C-0.11109985 3.72625873 -0.05729167 1.86304022 0 0 Z " fill="#EBFBD3" transform="translate(366,414)"/>
<path d="M0 0 C1.77178053 0.956581 3.54239076 1.91532988 5.3125 2.875 C6.79169922 3.67550781 6.79169922 3.67550781 8.30078125 4.4921875 C11 6 11 6 14 8 C14.22107787 10.7885289 14.28107535 13.34653181 14.1875 16.125 C14.17396484 16.87910156 14.16042969 17.63320313 14.14648438 18.41015625 C14.11109985 20.27374127 14.05729167 22.13695978 14 24 C12.22821947 23.043419 10.45760924 22.08467012 8.6875 21.125 C7.70136719 20.59132813 6.71523438 20.05765625 5.69921875 19.5078125 C3 18 3 18 0 16 C-0.22107787 13.2114711 -0.28107535 10.65346819 -0.1875 7.875 C-0.17396484 7.12089844 -0.16042969 6.36679687 -0.14648438 5.58984375 C-0.11109985 3.72625873 -0.05729167 1.86304022 0 0 Z " fill="#EBFBD3" transform="translate(342,400)"/>
<path d="M0 0 C1.77178053 0.956581 3.54239076 1.91532988 5.3125 2.875 C6.79169922 3.67550781 6.79169922 3.67550781 8.30078125 4.4921875 C11 6 11 6 14 8 C14.22107787 10.7885289 14.28107535 13.34653181 14.1875 16.125 C14.17396484 16.87910156 14.16042969 17.63320313 14.14648438 18.41015625 C14.11109985 20.27374127 14.05729167 22.13695978 14 24 C12.22821947 23.043419 10.45760924 22.08467012 8.6875 21.125 C7.70136719 20.59132813 6.71523438 20.05765625 5.69921875 19.5078125 C3 18 3 18 0 16 C-0.22107787 13.2114711 -0.28107535 10.65346819 -0.1875 7.875 C-0.17396484 7.12089844 -0.16042969 6.36679687 -0.14648438 5.58984375 C-0.11109985 3.72625873 -0.05729167 1.86304022 0 0 Z " fill="#EBFBD3" transform="translate(366,388)"/>
<path d="M0 0 C1.77178053 0.956581 3.54239076 1.91532988 5.3125 2.875 C6.79169922 3.67550781 6.79169922 3.67550781 8.30078125 4.4921875 C11 6 11 6 14 8 C14.22107787 10.7885289 14.28107535 13.34653181 14.1875 16.125 C14.17396484 16.87910156 14.16042969 17.63320313 14.14648438 18.41015625 C14.11109985 20.27374127 14.05729167 22.13695978 14 24 C12.22821947 23.043419 10.45760924 22.08467012 8.6875 21.125 C7.70136719 20.59132813 6.71523438 20.05765625 5.69921875 19.5078125 C3 18 3 18 0 16 C-0.22107787 13.2114711 -0.28107535 10.65346819 -0.1875 7.875 C-0.17396484 7.12089844 -0.16042969 6.36679687 -0.14648438 5.58984375 C-0.11109985 3.72625873 -0.05729167 1.86304022 0 0 Z " fill="#EBFBD3" transform="translate(342,374)"/>
<path d="M0 0 C1.77178053 0.956581 3.54239076 1.91532988 5.3125 2.875 C6.79169922 3.67550781 6.79169922 3.67550781 8.30078125 4.4921875 C11 6 11 6 14 8 C14.22107787 10.7885289 14.28107535 13.34653181 14.1875 16.125 C14.17396484 16.87910156 14.16042969 17.63320313 14.14648438 18.41015625 C14.11109985 20.27374127 14.05729167 22.13695978 14 24 C12.22821947 23.043419 10.45760924 22.08467012 8.6875 21.125 C7.70136719 20.59132813 6.71523437 20.05765625 5.69921875 19.5078125 C3 18 3 18 0 16 C-0.22107787 13.2114711 -0.28107535 10.65346819 -0.1875 7.875 C-0.17396484 7.12089844 -0.16042969 6.36679687 -0.14648438 5.58984375 C-0.11109985 3.72625873 -0.05729167 1.86304022 0 0 Z " fill="#EBFBD3" transform="translate(76,356)"/>
<path d="M0 0 C1.77178053 0.956581 3.54239076 1.91532988 5.3125 2.875 C6.79169922 3.67550781 6.79169922 3.67550781 8.30078125 4.4921875 C11 6 11 6 14 8 C14.22107787 10.7885289 14.28107535 13.34653181 14.1875 16.125 C14.17396484 16.87910156 14.16042969 17.63320313 14.14648438 18.41015625 C14.11109985 20.27374127 14.05729167 22.13695978 14 24 C12.22821947 23.043419 10.45760924 22.08467012 8.6875 21.125 C7.70136719 20.59132813 6.71523438 20.05765625 5.69921875 19.5078125 C3 18 3 18 0 16 C-0.22107787 13.2114711 -0.28107535 10.65346819 -0.1875 7.875 C-0.17396484 7.12089844 -0.16042969 6.36679687 -0.14648438 5.58984375 C-0.11109985 3.72625873 -0.05729167 1.86304022 0 0 Z " fill="#EBFBD3" transform="translate(52,342)"/>
<path d="M0 0 C1.77178053 0.956581 3.54239076 1.91532988 5.3125 2.875 C6.79169922 3.67550781 6.79169922 3.67550781 8.30078125 4.4921875 C11 6 11 6 14 8 C14.22107787 10.7885289 14.28107535 13.34653181 14.1875 16.125 C14.17396484 16.87910156 14.16042969 17.63320313 14.14648438 18.41015625 C14.11109985 20.27374127 14.05729167 22.13695978 14 24 C12.22821947 23.043419 10.45760924 22.08467012 8.6875 21.125 C7.70136719 20.59132813 6.71523437 20.05765625 5.69921875 19.5078125 C3 18 3 18 0 16 C-0.22107787 13.2114711 -0.28107535 10.65346819 -0.1875 7.875 C-0.17396484 7.12089844 -0.16042969 6.36679687 -0.14648438 5.58984375 C-0.11109985 3.72625873 -0.05729167 1.86304022 0 0 Z " fill="#EBFBD3" transform="translate(76,330)"/>
<path d="M0 0 C1.77178053 0.956581 3.54239076 1.91532988 5.3125 2.875 C6.79169922 3.67550781 6.79169922 3.67550781 8.30078125 4.4921875 C11 6 11 6 14 8 C14.22107787 10.7885289 14.28107535 13.34653181 14.1875 16.125 C14.17396484 16.87910156 14.16042969 17.63320313 14.14648438 18.41015625 C14.11109985 20.27374127 14.05729167 22.13695978 14 24 C12.22821947 23.043419 10.45760924 22.08467012 8.6875 21.125 C7.70136719 20.59132813 6.71523438 20.05765625 5.69921875 19.5078125 C3 18 3 18 0 16 C-0.22107787 13.2114711 -0.28107535 10.65346819 -0.1875 7.875 C-0.17396484 7.12089844 -0.16042969 6.36679687 -0.14648438 5.58984375 C-0.11109985 3.72625873 -0.05729167 1.86304022 0 0 Z " fill="#EBFBD3" transform="translate(52,316)"/>
<path d="M0 0 C-8.4449268 4.4295597 -16.93946883 8.55361127 -25.8125 12.0625 C-26.58255371 12.37324463 -27.35260742 12.68398926 -28.14599609 13.00415039 C-33.63433727 15.12188758 -33.63433727 15.12188758 -37 14 C-30.79340206 7.35252204 -24.31549572 4.93636566 -15.6875 2.5 C-14.50865234 2.14164062 -13.32980469 1.78328125 -12.11523438 1.4140625 C-3.43791231 -1.14597077 -3.43791231 -1.14597077 0 0 Z " fill="#02577F" transform="translate(338,330)"/>
<path d="M0 0 C8.25 0.33 16.5 0.66 25 1 C18.0625 7.9375 18.0625 7.9375 16 9 C10.19378286 8.03229714 4.82177522 4.26851562 0 1 C0 0.67 0 0.34 0 0 Z " fill="#48C1BC" transform="translate(221,341)"/>
<path d="M0 0 C9.81956108 1.02287095 15.88422588 4.09240013 23 11 C18.80140483 12.39953172 15.99135489 10.74567611 12.0625 9.1875 C11.34642578 8.91357422 10.63035156 8.63964844 9.89257812 8.35742188 C6.51154893 7.05075906 3.20064528 5.71313912 0 4 C0 2.68 0 1.36 0 0 Z " fill="#3BBDBC" transform="translate(180,333)"/>
<path d="M0 0 C-2.27597646 2.49552403 -4.60721178 4.06622986 -7.5625 5.6875 C-8.34753906 6.12449219 -9.13257813 6.56148438 -9.94140625 7.01171875 C-12 8 -12 8 -14 8 C-14.33 8.66 -14.66 9.32 -15 10 C-16.50287218 8.85793642 -18.00223284 7.71125043 -19.5 6.5625 C-20.3353125 5.92441406 -21.170625 5.28632813 -22.03125 4.62890625 C-22.6809375 4.09136719 -23.330625 3.55382812 -24 3 C-24 2.67 -24 2.34 -24 2 C-20.93796326 1.66231828 -17.87530542 1.33063107 -14.8125 1 C-13.51602539 0.85691406 -13.51602539 0.85691406 -12.19335938 0.7109375 C-8.11207075 0.27309811 -4.11211498 -0.13621913 0 0 Z " fill="#075A81" transform="translate(283,341)"/>
<path d="M0 0 C0 3 0 3 -1.609375 4.68359375 C-2.31578125 5.26238281 -3.0221875 5.84117188 -3.75 6.4375 C-6.07866007 8.37942147 -8.25563998 10.26236735 -10.375 12.4375 C-12 14 -12 14 -14 14 C-12.41438362 10.14406926 -9.93490046 7.66783709 -7 4.75 C-6.113125 3.85796875 -5.22625 2.9659375 -4.3125 2.046875 C-2 0 -2 0 0 0 Z " fill="#BEEDD0" transform="translate(139,55)"/>
</svg>
